G04 #@! TF.GenerationSoftware,KiCad,Pcbnew,(5.1.7-0-10_14)*
G04 #@! TF.CreationDate,2020-10-24T15:10:09+08:00*
G04 #@! TF.ProjectId,Feather_STM32WB55,46656174-6865-4725-9f53-544d33325742,rev?*
G04 #@! TF.SameCoordinates,Original*
G04 #@! TF.FileFunction,Copper,L1,Top*
G04 #@! TF.FilePolarity,Positive*
%FSLAX46Y46*%
G04 Gerber Fmt 4.6, Leading zero omitted, Abs format (unit mm)*
G04 Created by KiCad (PCBNEW (5.1.7-0-10_14)) date 2020-10-24 15:10:09*
%MOMM*%
%LPD*%
G01*
G04 APERTURE LIST*
G04 #@! TA.AperFunction,SMDPad,CuDef*
%ADD10R,2.600000X1.500000*%
G04 #@! TD*
G04 #@! TA.AperFunction,SMDPad,CuDef*
%ADD11R,1.150000X0.300000*%
G04 #@! TD*
G04 #@! TA.AperFunction,ComponentPad*
%ADD12O,1.600000X1.000000*%
G04 #@! TD*
G04 #@! TA.AperFunction,ComponentPad*
%ADD13O,2.100000X1.000000*%
G04 #@! TD*
G04 #@! TA.AperFunction,SMDPad,CuDef*
%ADD14R,0.300000X0.300000*%
G04 #@! TD*
G04 #@! TA.AperFunction,SMDPad,CuDef*
%ADD15R,1.600000X0.850000*%
G04 #@! TD*
G04 #@! TA.AperFunction,SMDPad,CuDef*
%ADD16R,5.700000X5.700000*%
G04 #@! TD*
G04 #@! TA.AperFunction,SMDPad,CuDef*
%ADD17R,0.242474X0.909637*%
G04 #@! TD*
G04 #@! TA.AperFunction,SMDPad,CuDef*
%ADD18R,1.297940X1.148080*%
G04 #@! TD*
G04 #@! TA.AperFunction,SMDPad,CuDef*
%ADD19R,1.200000X1.400000*%
G04 #@! TD*
G04 #@! TA.AperFunction,ComponentPad*
%ADD20O,1.700000X1.700000*%
G04 #@! TD*
G04 #@! TA.AperFunction,ComponentPad*
%ADD21R,1.700000X1.700000*%
G04 #@! TD*
G04 #@! TA.AperFunction,ComponentPad*
%ADD22C,3.200000*%
G04 #@! TD*
G04 #@! TA.AperFunction,SMDPad,CuDef*
%ADD23R,1.200000X0.900000*%
G04 #@! TD*
G04 #@! TA.AperFunction,SMDPad,CuDef*
%ADD24R,0.900000X0.800000*%
G04 #@! TD*
G04 #@! TA.AperFunction,SMDPad,CuDef*
%ADD25R,0.650000X1.060000*%
G04 #@! TD*
G04 #@! TA.AperFunction,SMDPad,CuDef*
%ADD26R,1.060000X0.650000*%
G04 #@! TD*
G04 #@! TA.AperFunction,ViaPad*
%ADD27C,0.800000*%
G04 #@! TD*
G04 #@! TA.AperFunction,ViaPad*
%ADD28C,0.450000*%
G04 #@! TD*
G04 #@! TA.AperFunction,Conductor*
%ADD29C,0.200000*%
G04 #@! TD*
G04 #@! TA.AperFunction,Conductor*
%ADD30C,1.000000*%
G04 #@! TD*
G04 #@! TA.AperFunction,Conductor*
%ADD31C,0.300000*%
G04 #@! TD*
G04 #@! TA.AperFunction,Conductor*
%ADD32C,0.750000*%
G04 #@! TD*
G04 #@! TA.AperFunction,Conductor*
%ADD33C,0.400000*%
G04 #@! TD*
G04 #@! TA.AperFunction,Conductor*
%ADD34C,0.293370*%
G04 #@! TD*
G04 #@! TA.AperFunction,Conductor*
%ADD35C,0.500000*%
G04 #@! TD*
G04 #@! TA.AperFunction,Conductor*
%ADD36C,0.127000*%
G04 #@! TD*
G04 #@! TA.AperFunction,Conductor*
%ADD37C,0.100000*%
G04 #@! TD*
G04 APERTURE END LIST*
G04 #@! TA.AperFunction,SMDPad,CuDef*
G36*
G01*
X167575000Y-86556250D02*
X167575000Y-86043750D01*
G75*
G02*
X167793750Y-85825000I218750J0D01*
G01*
X168231250Y-85825000D01*
G75*
G02*
X168450000Y-86043750I0J-218750D01*
G01*
X168450000Y-86556250D01*
G75*
G02*
X168231250Y-86775000I-218750J0D01*
G01*
X167793750Y-86775000D01*
G75*
G02*
X167575000Y-86556250I0J218750D01*
G01*
G37*
G04 #@! TD.AperFunction*
G04 #@! TA.AperFunction,SMDPad,CuDef*
G36*
G01*
X169150000Y-86556250D02*
X169150000Y-86043750D01*
G75*
G02*
X169368750Y-85825000I218750J0D01*
G01*
X169806250Y-85825000D01*
G75*
G02*
X170025000Y-86043750I0J-218750D01*
G01*
X170025000Y-86556250D01*
G75*
G02*
X169806250Y-86775000I-218750J0D01*
G01*
X169368750Y-86775000D01*
G75*
G02*
X169150000Y-86556250I0J218750D01*
G01*
G37*
G04 #@! TD.AperFunction*
D10*
X176100000Y-94450000D03*
X176100000Y-99550000D03*
D11*
X131940000Y-96056000D03*
X131940000Y-95256000D03*
X131940000Y-90456000D03*
X131940000Y-89656000D03*
X131940000Y-89356000D03*
X131940000Y-90156000D03*
X131940000Y-90956000D03*
X131940000Y-91456000D03*
X131940000Y-91956000D03*
X131940000Y-92456000D03*
X131940000Y-92956000D03*
X131940000Y-93456000D03*
X131940000Y-93956000D03*
X131940000Y-94456000D03*
X131940000Y-94956000D03*
X131940000Y-95756000D03*
D12*
X127195000Y-97026000D03*
X127195000Y-88386000D03*
D13*
X131375000Y-97026000D03*
X131375000Y-88386000D03*
D14*
X169412000Y-92475000D03*
X168825000Y-92475000D03*
X168238000Y-92475000D03*
X168238000Y-92975000D03*
X168825000Y-92975000D03*
X169412000Y-92975000D03*
G04 #@! TA.AperFunction,SMDPad,CuDef*
G36*
G01*
X165400000Y-100043750D02*
X165400000Y-100556250D01*
G75*
G02*
X165181250Y-100775000I-218750J0D01*
G01*
X164743750Y-100775000D01*
G75*
G02*
X164525000Y-100556250I0J218750D01*
G01*
X164525000Y-100043750D01*
G75*
G02*
X164743750Y-99825000I218750J0D01*
G01*
X165181250Y-99825000D01*
G75*
G02*
X165400000Y-100043750I0J-218750D01*
G01*
G37*
G04 #@! TD.AperFunction*
G04 #@! TA.AperFunction,SMDPad,CuDef*
G36*
G01*
X166975000Y-100043750D02*
X166975000Y-100556250D01*
G75*
G02*
X166756250Y-100775000I-218750J0D01*
G01*
X166318750Y-100775000D01*
G75*
G02*
X166100000Y-100556250I0J218750D01*
G01*
X166100000Y-100043750D01*
G75*
G02*
X166318750Y-99825000I218750J0D01*
G01*
X166756250Y-99825000D01*
G75*
G02*
X166975000Y-100043750I0J-218750D01*
G01*
G37*
G04 #@! TD.AperFunction*
G04 #@! TA.AperFunction,SMDPad,CuDef*
G36*
G01*
X129890000Y-86743250D02*
X129890000Y-86230750D01*
G75*
G02*
X130108750Y-86012000I218750J0D01*
G01*
X130546250Y-86012000D01*
G75*
G02*
X130765000Y-86230750I0J-218750D01*
G01*
X130765000Y-86743250D01*
G75*
G02*
X130546250Y-86962000I-218750J0D01*
G01*
X130108750Y-86962000D01*
G75*
G02*
X129890000Y-86743250I0J218750D01*
G01*
G37*
G04 #@! TD.AperFunction*
G04 #@! TA.AperFunction,SMDPad,CuDef*
G36*
G01*
X128315000Y-86743250D02*
X128315000Y-86230750D01*
G75*
G02*
X128533750Y-86012000I218750J0D01*
G01*
X128971250Y-86012000D01*
G75*
G02*
X129190000Y-86230750I0J-218750D01*
G01*
X129190000Y-86743250D01*
G75*
G02*
X128971250Y-86962000I-218750J0D01*
G01*
X128533750Y-86962000D01*
G75*
G02*
X128315000Y-86743250I0J218750D01*
G01*
G37*
G04 #@! TD.AperFunction*
G04 #@! TA.AperFunction,SMDPad,CuDef*
G36*
G01*
X129190000Y-98676750D02*
X129190000Y-99189250D01*
G75*
G02*
X128971250Y-99408000I-218750J0D01*
G01*
X128533750Y-99408000D01*
G75*
G02*
X128315000Y-99189250I0J218750D01*
G01*
X128315000Y-98676750D01*
G75*
G02*
X128533750Y-98458000I218750J0D01*
G01*
X128971250Y-98458000D01*
G75*
G02*
X129190000Y-98676750I0J-218750D01*
G01*
G37*
G04 #@! TD.AperFunction*
G04 #@! TA.AperFunction,SMDPad,CuDef*
G36*
G01*
X130765000Y-98676750D02*
X130765000Y-99189250D01*
G75*
G02*
X130546250Y-99408000I-218750J0D01*
G01*
X130108750Y-99408000D01*
G75*
G02*
X129890000Y-99189250I0J218750D01*
G01*
X129890000Y-98676750D01*
G75*
G02*
X130108750Y-98458000I218750J0D01*
G01*
X130546250Y-98458000D01*
G75*
G02*
X130765000Y-98676750I0J-218750D01*
G01*
G37*
G04 #@! TD.AperFunction*
G04 #@! TA.AperFunction,SMDPad,CuDef*
G36*
G01*
X169025000Y-99100000D02*
X169025000Y-98600000D01*
G75*
G02*
X169250000Y-98375000I225000J0D01*
G01*
X169700000Y-98375000D01*
G75*
G02*
X169925000Y-98600000I0J-225000D01*
G01*
X169925000Y-99100000D01*
G75*
G02*
X169700000Y-99325000I-225000J0D01*
G01*
X169250000Y-99325000D01*
G75*
G02*
X169025000Y-99100000I0J225000D01*
G01*
G37*
G04 #@! TD.AperFunction*
G04 #@! TA.AperFunction,SMDPad,CuDef*
G36*
G01*
X167475000Y-99100000D02*
X167475000Y-98600000D01*
G75*
G02*
X167700000Y-98375000I225000J0D01*
G01*
X168150000Y-98375000D01*
G75*
G02*
X168375000Y-98600000I0J-225000D01*
G01*
X168375000Y-99100000D01*
G75*
G02*
X168150000Y-99325000I-225000J0D01*
G01*
X167700000Y-99325000D01*
G75*
G02*
X167475000Y-99100000I0J225000D01*
G01*
G37*
G04 #@! TD.AperFunction*
D15*
X142150000Y-98025000D03*
X142150000Y-99775000D03*
X145650000Y-98025000D03*
X145650000Y-99775000D03*
D16*
X163322000Y-93726000D03*
G04 #@! TA.AperFunction,SMDPad,CuDef*
G36*
G01*
X160254334Y-96597237D02*
X159587172Y-96597237D01*
G75*
G02*
X159465935Y-96476000I0J121237D01*
G01*
X159465935Y-96476000D01*
G75*
G02*
X159587172Y-96354763I121237J0D01*
G01*
X160254334Y-96354763D01*
G75*
G02*
X160375571Y-96476000I0J-121237D01*
G01*
X160375571Y-96476000D01*
G75*
G02*
X160254334Y-96597237I-121237J0D01*
G01*
G37*
G04 #@! TD.AperFunction*
G04 #@! TA.AperFunction,SMDPad,CuDef*
G36*
G01*
X160254334Y-96097237D02*
X159587172Y-96097237D01*
G75*
G02*
X159465935Y-95976000I0J121237D01*
G01*
X159465935Y-95976000D01*
G75*
G02*
X159587172Y-95854763I121237J0D01*
G01*
X160254334Y-95854763D01*
G75*
G02*
X160375571Y-95976000I0J-121237D01*
G01*
X160375571Y-95976000D01*
G75*
G02*
X160254334Y-96097237I-121237J0D01*
G01*
G37*
G04 #@! TD.AperFunction*
G04 #@! TA.AperFunction,SMDPad,CuDef*
G36*
G01*
X160254334Y-95597237D02*
X159587172Y-95597237D01*
G75*
G02*
X159465935Y-95476000I0J121237D01*
G01*
X159465935Y-95476000D01*
G75*
G02*
X159587172Y-95354763I121237J0D01*
G01*
X160254334Y-95354763D01*
G75*
G02*
X160375571Y-95476000I0J-121237D01*
G01*
X160375571Y-95476000D01*
G75*
G02*
X160254334Y-95597237I-121237J0D01*
G01*
G37*
G04 #@! TD.AperFunction*
G04 #@! TA.AperFunction,SMDPad,CuDef*
G36*
G01*
X160254334Y-95097237D02*
X159587172Y-95097237D01*
G75*
G02*
X159465935Y-94976000I0J121237D01*
G01*
X159465935Y-94976000D01*
G75*
G02*
X159587172Y-94854763I121237J0D01*
G01*
X160254334Y-94854763D01*
G75*
G02*
X160375571Y-94976000I0J-121237D01*
G01*
X160375571Y-94976000D01*
G75*
G02*
X160254334Y-95097237I-121237J0D01*
G01*
G37*
G04 #@! TD.AperFunction*
G04 #@! TA.AperFunction,SMDPad,CuDef*
G36*
G01*
X160254334Y-94597237D02*
X159587172Y-94597237D01*
G75*
G02*
X159465935Y-94476000I0J121237D01*
G01*
X159465935Y-94476000D01*
G75*
G02*
X159587172Y-94354763I121237J0D01*
G01*
X160254334Y-94354763D01*
G75*
G02*
X160375571Y-94476000I0J-121237D01*
G01*
X160375571Y-94476000D01*
G75*
G02*
X160254334Y-94597237I-121237J0D01*
G01*
G37*
G04 #@! TD.AperFunction*
G04 #@! TA.AperFunction,SMDPad,CuDef*
G36*
G01*
X160254334Y-94097237D02*
X159587172Y-94097237D01*
G75*
G02*
X159465935Y-93976000I0J121237D01*
G01*
X159465935Y-93976000D01*
G75*
G02*
X159587172Y-93854763I121237J0D01*
G01*
X160254334Y-93854763D01*
G75*
G02*
X160375571Y-93976000I0J-121237D01*
G01*
X160375571Y-93976000D01*
G75*
G02*
X160254334Y-94097237I-121237J0D01*
G01*
G37*
G04 #@! TD.AperFunction*
G04 #@! TA.AperFunction,SMDPad,CuDef*
G36*
G01*
X160254334Y-93597237D02*
X159587172Y-93597237D01*
G75*
G02*
X159465935Y-93476000I0J121237D01*
G01*
X159465935Y-93476000D01*
G75*
G02*
X159587172Y-93354763I121237J0D01*
G01*
X160254334Y-93354763D01*
G75*
G02*
X160375571Y-93476000I0J-121237D01*
G01*
X160375571Y-93476000D01*
G75*
G02*
X160254334Y-93597237I-121237J0D01*
G01*
G37*
G04 #@! TD.AperFunction*
G04 #@! TA.AperFunction,SMDPad,CuDef*
G36*
G01*
X160254334Y-93097237D02*
X159587172Y-93097237D01*
G75*
G02*
X159465935Y-92976000I0J121237D01*
G01*
X159465935Y-92976000D01*
G75*
G02*
X159587172Y-92854763I121237J0D01*
G01*
X160254334Y-92854763D01*
G75*
G02*
X160375571Y-92976000I0J-121237D01*
G01*
X160375571Y-92976000D01*
G75*
G02*
X160254334Y-93097237I-121237J0D01*
G01*
G37*
G04 #@! TD.AperFunction*
G04 #@! TA.AperFunction,SMDPad,CuDef*
G36*
G01*
X160254334Y-92597237D02*
X159587172Y-92597237D01*
G75*
G02*
X159465935Y-92476000I0J121237D01*
G01*
X159465935Y-92476000D01*
G75*
G02*
X159587172Y-92354763I121237J0D01*
G01*
X160254334Y-92354763D01*
G75*
G02*
X160375571Y-92476000I0J-121237D01*
G01*
X160375571Y-92476000D01*
G75*
G02*
X160254334Y-92597237I-121237J0D01*
G01*
G37*
G04 #@! TD.AperFunction*
G04 #@! TA.AperFunction,SMDPad,CuDef*
G36*
G01*
X160254334Y-92097237D02*
X159587172Y-92097237D01*
G75*
G02*
X159465935Y-91976000I0J121237D01*
G01*
X159465935Y-91976000D01*
G75*
G02*
X159587172Y-91854763I121237J0D01*
G01*
X160254334Y-91854763D01*
G75*
G02*
X160375571Y-91976000I0J-121237D01*
G01*
X160375571Y-91976000D01*
G75*
G02*
X160254334Y-92097237I-121237J0D01*
G01*
G37*
G04 #@! TD.AperFunction*
G04 #@! TA.AperFunction,SMDPad,CuDef*
G36*
G01*
X160254334Y-91597237D02*
X159587172Y-91597237D01*
G75*
G02*
X159465935Y-91476000I0J121237D01*
G01*
X159465935Y-91476000D01*
G75*
G02*
X159587172Y-91354763I121237J0D01*
G01*
X160254334Y-91354763D01*
G75*
G02*
X160375571Y-91476000I0J-121237D01*
G01*
X160375571Y-91476000D01*
G75*
G02*
X160254334Y-91597237I-121237J0D01*
G01*
G37*
G04 #@! TD.AperFunction*
G04 #@! TA.AperFunction,SMDPad,CuDef*
G36*
G01*
X160254334Y-91097237D02*
X159587172Y-91097237D01*
G75*
G02*
X159465935Y-90976000I0J121237D01*
G01*
X159465935Y-90976000D01*
G75*
G02*
X159587172Y-90854763I121237J0D01*
G01*
X160254334Y-90854763D01*
G75*
G02*
X160375571Y-90976000I0J-121237D01*
G01*
X160375571Y-90976000D01*
G75*
G02*
X160254334Y-91097237I-121237J0D01*
G01*
G37*
G04 #@! TD.AperFunction*
G04 #@! TA.AperFunction,SMDPad,CuDef*
G36*
G01*
X167056829Y-91097237D02*
X166389667Y-91097237D01*
G75*
G02*
X166268430Y-90976000I0J121237D01*
G01*
X166268430Y-90976000D01*
G75*
G02*
X166389667Y-90854763I121237J0D01*
G01*
X167056829Y-90854763D01*
G75*
G02*
X167178066Y-90976000I0J-121237D01*
G01*
X167178066Y-90976000D01*
G75*
G02*
X167056829Y-91097237I-121237J0D01*
G01*
G37*
G04 #@! TD.AperFunction*
G04 #@! TA.AperFunction,SMDPad,CuDef*
G36*
G01*
X167056829Y-91597237D02*
X166389667Y-91597237D01*
G75*
G02*
X166268430Y-91476000I0J121237D01*
G01*
X166268430Y-91476000D01*
G75*
G02*
X166389667Y-91354763I121237J0D01*
G01*
X167056829Y-91354763D01*
G75*
G02*
X167178066Y-91476000I0J-121237D01*
G01*
X167178066Y-91476000D01*
G75*
G02*
X167056829Y-91597237I-121237J0D01*
G01*
G37*
G04 #@! TD.AperFunction*
G04 #@! TA.AperFunction,SMDPad,CuDef*
G36*
G01*
X167056829Y-92097237D02*
X166389667Y-92097237D01*
G75*
G02*
X166268430Y-91976000I0J121237D01*
G01*
X166268430Y-91976000D01*
G75*
G02*
X166389667Y-91854763I121237J0D01*
G01*
X167056829Y-91854763D01*
G75*
G02*
X167178066Y-91976000I0J-121237D01*
G01*
X167178066Y-91976000D01*
G75*
G02*
X167056829Y-92097237I-121237J0D01*
G01*
G37*
G04 #@! TD.AperFunction*
G04 #@! TA.AperFunction,SMDPad,CuDef*
G36*
G01*
X167056829Y-92597237D02*
X166389667Y-92597237D01*
G75*
G02*
X166268430Y-92476000I0J121237D01*
G01*
X166268430Y-92476000D01*
G75*
G02*
X166389667Y-92354763I121237J0D01*
G01*
X167056829Y-92354763D01*
G75*
G02*
X167178066Y-92476000I0J-121237D01*
G01*
X167178066Y-92476000D01*
G75*
G02*
X167056829Y-92597237I-121237J0D01*
G01*
G37*
G04 #@! TD.AperFunction*
G04 #@! TA.AperFunction,SMDPad,CuDef*
G36*
G01*
X167056829Y-93097237D02*
X166389667Y-93097237D01*
G75*
G02*
X166268430Y-92976000I0J121237D01*
G01*
X166268430Y-92976000D01*
G75*
G02*
X166389667Y-92854763I121237J0D01*
G01*
X167056829Y-92854763D01*
G75*
G02*
X167178066Y-92976000I0J-121237D01*
G01*
X167178066Y-92976000D01*
G75*
G02*
X167056829Y-93097237I-121237J0D01*
G01*
G37*
G04 #@! TD.AperFunction*
G04 #@! TA.AperFunction,SMDPad,CuDef*
G36*
G01*
X167056829Y-93597237D02*
X166389667Y-93597237D01*
G75*
G02*
X166268430Y-93476000I0J121237D01*
G01*
X166268430Y-93476000D01*
G75*
G02*
X166389667Y-93354763I121237J0D01*
G01*
X167056829Y-93354763D01*
G75*
G02*
X167178066Y-93476000I0J-121237D01*
G01*
X167178066Y-93476000D01*
G75*
G02*
X167056829Y-93597237I-121237J0D01*
G01*
G37*
G04 #@! TD.AperFunction*
G04 #@! TA.AperFunction,SMDPad,CuDef*
G36*
G01*
X167056829Y-94097237D02*
X166389667Y-94097237D01*
G75*
G02*
X166268430Y-93976000I0J121237D01*
G01*
X166268430Y-93976000D01*
G75*
G02*
X166389667Y-93854763I121237J0D01*
G01*
X167056829Y-93854763D01*
G75*
G02*
X167178066Y-93976000I0J-121237D01*
G01*
X167178066Y-93976000D01*
G75*
G02*
X167056829Y-94097237I-121237J0D01*
G01*
G37*
G04 #@! TD.AperFunction*
G04 #@! TA.AperFunction,SMDPad,CuDef*
G36*
G01*
X167056829Y-94597237D02*
X166389667Y-94597237D01*
G75*
G02*
X166268430Y-94476000I0J121237D01*
G01*
X166268430Y-94476000D01*
G75*
G02*
X166389667Y-94354763I121237J0D01*
G01*
X167056829Y-94354763D01*
G75*
G02*
X167178066Y-94476000I0J-121237D01*
G01*
X167178066Y-94476000D01*
G75*
G02*
X167056829Y-94597237I-121237J0D01*
G01*
G37*
G04 #@! TD.AperFunction*
G04 #@! TA.AperFunction,SMDPad,CuDef*
G36*
G01*
X167056829Y-95097237D02*
X166389667Y-95097237D01*
G75*
G02*
X166268430Y-94976000I0J121237D01*
G01*
X166268430Y-94976000D01*
G75*
G02*
X166389667Y-94854763I121237J0D01*
G01*
X167056829Y-94854763D01*
G75*
G02*
X167178066Y-94976000I0J-121237D01*
G01*
X167178066Y-94976000D01*
G75*
G02*
X167056829Y-95097237I-121237J0D01*
G01*
G37*
G04 #@! TD.AperFunction*
G04 #@! TA.AperFunction,SMDPad,CuDef*
G36*
G01*
X167056829Y-95597237D02*
X166389667Y-95597237D01*
G75*
G02*
X166268430Y-95476000I0J121237D01*
G01*
X166268430Y-95476000D01*
G75*
G02*
X166389667Y-95354763I121237J0D01*
G01*
X167056829Y-95354763D01*
G75*
G02*
X167178066Y-95476000I0J-121237D01*
G01*
X167178066Y-95476000D01*
G75*
G02*
X167056829Y-95597237I-121237J0D01*
G01*
G37*
G04 #@! TD.AperFunction*
G04 #@! TA.AperFunction,SMDPad,CuDef*
G36*
G01*
X167056829Y-96097237D02*
X166389667Y-96097237D01*
G75*
G02*
X166268430Y-95976000I0J121237D01*
G01*
X166268430Y-95976000D01*
G75*
G02*
X166389667Y-95854763I121237J0D01*
G01*
X167056829Y-95854763D01*
G75*
G02*
X167178066Y-95976000I0J-121237D01*
G01*
X167178066Y-95976000D01*
G75*
G02*
X167056829Y-96097237I-121237J0D01*
G01*
G37*
G04 #@! TD.AperFunction*
G04 #@! TA.AperFunction,SMDPad,CuDef*
G36*
G01*
X167056829Y-96597237D02*
X166389667Y-96597237D01*
G75*
G02*
X166268430Y-96476000I0J121237D01*
G01*
X166268430Y-96476000D01*
G75*
G02*
X166389667Y-96354763I121237J0D01*
G01*
X167056829Y-96354763D01*
G75*
G02*
X167178066Y-96476000I0J-121237D01*
G01*
X167178066Y-96476000D01*
G75*
G02*
X167056829Y-96597237I-121237J0D01*
G01*
G37*
G04 #@! TD.AperFunction*
G04 #@! TA.AperFunction,SMDPad,CuDef*
G36*
G01*
X160572000Y-90779570D02*
X160572000Y-90779570D01*
G75*
G02*
X160450763Y-90658333I0J121237D01*
G01*
X160450763Y-89991171D01*
G75*
G02*
X160572000Y-89869934I121237J0D01*
G01*
X160572000Y-89869934D01*
G75*
G02*
X160693237Y-89991171I0J-121237D01*
G01*
X160693237Y-90658333D01*
G75*
G02*
X160572000Y-90779570I-121237J0D01*
G01*
G37*
G04 #@! TD.AperFunction*
G04 #@! TA.AperFunction,SMDPad,CuDef*
G36*
G01*
X161072000Y-90779570D02*
X161072000Y-90779570D01*
G75*
G02*
X160950763Y-90658333I0J121237D01*
G01*
X160950763Y-89991171D01*
G75*
G02*
X161072000Y-89869934I121237J0D01*
G01*
X161072000Y-89869934D01*
G75*
G02*
X161193237Y-89991171I0J-121237D01*
G01*
X161193237Y-90658333D01*
G75*
G02*
X161072000Y-90779570I-121237J0D01*
G01*
G37*
G04 #@! TD.AperFunction*
G04 #@! TA.AperFunction,SMDPad,CuDef*
G36*
G01*
X161572000Y-90779570D02*
X161572000Y-90779570D01*
G75*
G02*
X161450763Y-90658333I0J121237D01*
G01*
X161450763Y-89991171D01*
G75*
G02*
X161572000Y-89869934I121237J0D01*
G01*
X161572000Y-89869934D01*
G75*
G02*
X161693237Y-89991171I0J-121237D01*
G01*
X161693237Y-90658333D01*
G75*
G02*
X161572000Y-90779570I-121237J0D01*
G01*
G37*
G04 #@! TD.AperFunction*
G04 #@! TA.AperFunction,SMDPad,CuDef*
G36*
G01*
X162072000Y-90779570D02*
X162072000Y-90779570D01*
G75*
G02*
X161950763Y-90658333I0J121237D01*
G01*
X161950763Y-89991171D01*
G75*
G02*
X162072000Y-89869934I121237J0D01*
G01*
X162072000Y-89869934D01*
G75*
G02*
X162193237Y-89991171I0J-121237D01*
G01*
X162193237Y-90658333D01*
G75*
G02*
X162072000Y-90779570I-121237J0D01*
G01*
G37*
G04 #@! TD.AperFunction*
G04 #@! TA.AperFunction,SMDPad,CuDef*
G36*
G01*
X162572000Y-90779570D02*
X162572000Y-90779570D01*
G75*
G02*
X162450763Y-90658333I0J121237D01*
G01*
X162450763Y-89991171D01*
G75*
G02*
X162572000Y-89869934I121237J0D01*
G01*
X162572000Y-89869934D01*
G75*
G02*
X162693237Y-89991171I0J-121237D01*
G01*
X162693237Y-90658333D01*
G75*
G02*
X162572000Y-90779570I-121237J0D01*
G01*
G37*
G04 #@! TD.AperFunction*
G04 #@! TA.AperFunction,SMDPad,CuDef*
G36*
G01*
X163072000Y-90779570D02*
X163072000Y-90779570D01*
G75*
G02*
X162950763Y-90658333I0J121237D01*
G01*
X162950763Y-89991171D01*
G75*
G02*
X163072000Y-89869934I121237J0D01*
G01*
X163072000Y-89869934D01*
G75*
G02*
X163193237Y-89991171I0J-121237D01*
G01*
X163193237Y-90658333D01*
G75*
G02*
X163072000Y-90779570I-121237J0D01*
G01*
G37*
G04 #@! TD.AperFunction*
G04 #@! TA.AperFunction,SMDPad,CuDef*
G36*
G01*
X163572000Y-90779570D02*
X163572000Y-90779570D01*
G75*
G02*
X163450763Y-90658333I0J121237D01*
G01*
X163450763Y-89991171D01*
G75*
G02*
X163572000Y-89869934I121237J0D01*
G01*
X163572000Y-89869934D01*
G75*
G02*
X163693237Y-89991171I0J-121237D01*
G01*
X163693237Y-90658333D01*
G75*
G02*
X163572000Y-90779570I-121237J0D01*
G01*
G37*
G04 #@! TD.AperFunction*
G04 #@! TA.AperFunction,SMDPad,CuDef*
G36*
G01*
X164072000Y-90779570D02*
X164072000Y-90779570D01*
G75*
G02*
X163950763Y-90658333I0J121237D01*
G01*
X163950763Y-89991171D01*
G75*
G02*
X164072000Y-89869934I121237J0D01*
G01*
X164072000Y-89869934D01*
G75*
G02*
X164193237Y-89991171I0J-121237D01*
G01*
X164193237Y-90658333D01*
G75*
G02*
X164072000Y-90779570I-121237J0D01*
G01*
G37*
G04 #@! TD.AperFunction*
G04 #@! TA.AperFunction,SMDPad,CuDef*
G36*
G01*
X164572000Y-90779570D02*
X164572000Y-90779570D01*
G75*
G02*
X164450763Y-90658333I0J121237D01*
G01*
X164450763Y-89991171D01*
G75*
G02*
X164572000Y-89869934I121237J0D01*
G01*
X164572000Y-89869934D01*
G75*
G02*
X164693237Y-89991171I0J-121237D01*
G01*
X164693237Y-90658333D01*
G75*
G02*
X164572000Y-90779570I-121237J0D01*
G01*
G37*
G04 #@! TD.AperFunction*
G04 #@! TA.AperFunction,SMDPad,CuDef*
G36*
G01*
X165072000Y-90779570D02*
X165072000Y-90779570D01*
G75*
G02*
X164950763Y-90658333I0J121237D01*
G01*
X164950763Y-89991171D01*
G75*
G02*
X165072000Y-89869934I121237J0D01*
G01*
X165072000Y-89869934D01*
G75*
G02*
X165193237Y-89991171I0J-121237D01*
G01*
X165193237Y-90658333D01*
G75*
G02*
X165072000Y-90779570I-121237J0D01*
G01*
G37*
G04 #@! TD.AperFunction*
G04 #@! TA.AperFunction,SMDPad,CuDef*
G36*
G01*
X165572000Y-90779570D02*
X165572000Y-90779570D01*
G75*
G02*
X165450763Y-90658333I0J121237D01*
G01*
X165450763Y-89991171D01*
G75*
G02*
X165572000Y-89869934I121237J0D01*
G01*
X165572000Y-89869934D01*
G75*
G02*
X165693237Y-89991171I0J-121237D01*
G01*
X165693237Y-90658333D01*
G75*
G02*
X165572000Y-90779570I-121237J0D01*
G01*
G37*
G04 #@! TD.AperFunction*
G04 #@! TA.AperFunction,SMDPad,CuDef*
G36*
G01*
X166072000Y-90779570D02*
X166072000Y-90779570D01*
G75*
G02*
X165950763Y-90658333I0J121237D01*
G01*
X165950763Y-89991171D01*
G75*
G02*
X166072000Y-89869934I121237J0D01*
G01*
X166072000Y-89869934D01*
G75*
G02*
X166193237Y-89991171I0J-121237D01*
G01*
X166193237Y-90658333D01*
G75*
G02*
X166072000Y-90779570I-121237J0D01*
G01*
G37*
G04 #@! TD.AperFunction*
G04 #@! TA.AperFunction,SMDPad,CuDef*
G36*
G01*
X166072000Y-97582065D02*
X166072000Y-97582065D01*
G75*
G02*
X165950763Y-97460828I0J121237D01*
G01*
X165950763Y-96793666D01*
G75*
G02*
X166072000Y-96672429I121237J0D01*
G01*
X166072000Y-96672429D01*
G75*
G02*
X166193237Y-96793666I0J-121237D01*
G01*
X166193237Y-97460828D01*
G75*
G02*
X166072000Y-97582065I-121237J0D01*
G01*
G37*
G04 #@! TD.AperFunction*
G04 #@! TA.AperFunction,SMDPad,CuDef*
G36*
G01*
X165572000Y-97582065D02*
X165572000Y-97582065D01*
G75*
G02*
X165450763Y-97460828I0J121237D01*
G01*
X165450763Y-96793666D01*
G75*
G02*
X165572000Y-96672429I121237J0D01*
G01*
X165572000Y-96672429D01*
G75*
G02*
X165693237Y-96793666I0J-121237D01*
G01*
X165693237Y-97460828D01*
G75*
G02*
X165572000Y-97582065I-121237J0D01*
G01*
G37*
G04 #@! TD.AperFunction*
G04 #@! TA.AperFunction,SMDPad,CuDef*
G36*
G01*
X165072000Y-97582065D02*
X165072000Y-97582065D01*
G75*
G02*
X164950763Y-97460828I0J121237D01*
G01*
X164950763Y-96793666D01*
G75*
G02*
X165072000Y-96672429I121237J0D01*
G01*
X165072000Y-96672429D01*
G75*
G02*
X165193237Y-96793666I0J-121237D01*
G01*
X165193237Y-97460828D01*
G75*
G02*
X165072000Y-97582065I-121237J0D01*
G01*
G37*
G04 #@! TD.AperFunction*
G04 #@! TA.AperFunction,SMDPad,CuDef*
G36*
G01*
X164572000Y-97582065D02*
X164572000Y-97582065D01*
G75*
G02*
X164450763Y-97460828I0J121237D01*
G01*
X164450763Y-96793666D01*
G75*
G02*
X164572000Y-96672429I121237J0D01*
G01*
X164572000Y-96672429D01*
G75*
G02*
X164693237Y-96793666I0J-121237D01*
G01*
X164693237Y-97460828D01*
G75*
G02*
X164572000Y-97582065I-121237J0D01*
G01*
G37*
G04 #@! TD.AperFunction*
G04 #@! TA.AperFunction,SMDPad,CuDef*
G36*
G01*
X164072000Y-97582065D02*
X164072000Y-97582065D01*
G75*
G02*
X163950763Y-97460828I0J121237D01*
G01*
X163950763Y-96793666D01*
G75*
G02*
X164072000Y-96672429I121237J0D01*
G01*
X164072000Y-96672429D01*
G75*
G02*
X164193237Y-96793666I0J-121237D01*
G01*
X164193237Y-97460828D01*
G75*
G02*
X164072000Y-97582065I-121237J0D01*
G01*
G37*
G04 #@! TD.AperFunction*
G04 #@! TA.AperFunction,SMDPad,CuDef*
G36*
G01*
X163572000Y-97582065D02*
X163572000Y-97582065D01*
G75*
G02*
X163450763Y-97460828I0J121237D01*
G01*
X163450763Y-96793666D01*
G75*
G02*
X163572000Y-96672429I121237J0D01*
G01*
X163572000Y-96672429D01*
G75*
G02*
X163693237Y-96793666I0J-121237D01*
G01*
X163693237Y-97460828D01*
G75*
G02*
X163572000Y-97582065I-121237J0D01*
G01*
G37*
G04 #@! TD.AperFunction*
G04 #@! TA.AperFunction,SMDPad,CuDef*
G36*
G01*
X163072000Y-97582065D02*
X163072000Y-97582065D01*
G75*
G02*
X162950763Y-97460828I0J121237D01*
G01*
X162950763Y-96793666D01*
G75*
G02*
X163072000Y-96672429I121237J0D01*
G01*
X163072000Y-96672429D01*
G75*
G02*
X163193237Y-96793666I0J-121237D01*
G01*
X163193237Y-97460828D01*
G75*
G02*
X163072000Y-97582065I-121237J0D01*
G01*
G37*
G04 #@! TD.AperFunction*
G04 #@! TA.AperFunction,SMDPad,CuDef*
G36*
G01*
X162572000Y-97582065D02*
X162572000Y-97582065D01*
G75*
G02*
X162450763Y-97460828I0J121237D01*
G01*
X162450763Y-96793666D01*
G75*
G02*
X162572000Y-96672429I121237J0D01*
G01*
X162572000Y-96672429D01*
G75*
G02*
X162693237Y-96793666I0J-121237D01*
G01*
X162693237Y-97460828D01*
G75*
G02*
X162572000Y-97582065I-121237J0D01*
G01*
G37*
G04 #@! TD.AperFunction*
G04 #@! TA.AperFunction,SMDPad,CuDef*
G36*
G01*
X162072000Y-97582065D02*
X162072000Y-97582065D01*
G75*
G02*
X161950763Y-97460828I0J121237D01*
G01*
X161950763Y-96793666D01*
G75*
G02*
X162072000Y-96672429I121237J0D01*
G01*
X162072000Y-96672429D01*
G75*
G02*
X162193237Y-96793666I0J-121237D01*
G01*
X162193237Y-97460828D01*
G75*
G02*
X162072000Y-97582065I-121237J0D01*
G01*
G37*
G04 #@! TD.AperFunction*
G04 #@! TA.AperFunction,SMDPad,CuDef*
G36*
G01*
X161572000Y-97582065D02*
X161572000Y-97582065D01*
G75*
G02*
X161450763Y-97460828I0J121237D01*
G01*
X161450763Y-96793666D01*
G75*
G02*
X161572000Y-96672429I121237J0D01*
G01*
X161572000Y-96672429D01*
G75*
G02*
X161693237Y-96793666I0J-121237D01*
G01*
X161693237Y-97460828D01*
G75*
G02*
X161572000Y-97582065I-121237J0D01*
G01*
G37*
G04 #@! TD.AperFunction*
G04 #@! TA.AperFunction,SMDPad,CuDef*
G36*
G01*
X161072000Y-97582065D02*
X161072000Y-97582065D01*
G75*
G02*
X160950763Y-97460828I0J121237D01*
G01*
X160950763Y-96793666D01*
G75*
G02*
X161072000Y-96672429I121237J0D01*
G01*
X161072000Y-96672429D01*
G75*
G02*
X161193237Y-96793666I0J-121237D01*
G01*
X161193237Y-97460828D01*
G75*
G02*
X161072000Y-97582065I-121237J0D01*
G01*
G37*
G04 #@! TD.AperFunction*
D17*
X160572000Y-97127247D03*
G04 #@! TA.AperFunction,SMDPad,CuDef*
G36*
G01*
X135195000Y-82010000D02*
X135195000Y-84910000D01*
G75*
G02*
X134945000Y-85160000I-250000J0D01*
G01*
X133945000Y-85160000D01*
G75*
G02*
X133695000Y-84910000I0J250000D01*
G01*
X133695000Y-82010000D01*
G75*
G02*
X133945000Y-81760000I250000J0D01*
G01*
X134945000Y-81760000D01*
G75*
G02*
X135195000Y-82010000I0J-250000D01*
G01*
G37*
G04 #@! TD.AperFunction*
G04 #@! TA.AperFunction,SMDPad,CuDef*
G36*
G01*
X141895000Y-82010000D02*
X141895000Y-84910000D01*
G75*
G02*
X141645000Y-85160000I-250000J0D01*
G01*
X140645000Y-85160000D01*
G75*
G02*
X140395000Y-84910000I0J250000D01*
G01*
X140395000Y-82010000D01*
G75*
G02*
X140645000Y-81760000I250000J0D01*
G01*
X141645000Y-81760000D01*
G75*
G02*
X141895000Y-82010000I0J-250000D01*
G01*
G37*
G04 #@! TD.AperFunction*
G04 #@! TA.AperFunction,SMDPad,CuDef*
G36*
G01*
X137295000Y-87710000D02*
X137295000Y-90710000D01*
G75*
G02*
X137045000Y-90960000I-250000J0D01*
G01*
X136545000Y-90960000D01*
G75*
G02*
X136295000Y-90710000I0J250000D01*
G01*
X136295000Y-87710000D01*
G75*
G02*
X136545000Y-87460000I250000J0D01*
G01*
X137045000Y-87460000D01*
G75*
G02*
X137295000Y-87710000I0J-250000D01*
G01*
G37*
G04 #@! TD.AperFunction*
G04 #@! TA.AperFunction,SMDPad,CuDef*
G36*
G01*
X139295000Y-87710000D02*
X139295000Y-90710000D01*
G75*
G02*
X139045000Y-90960000I-250000J0D01*
G01*
X138545000Y-90960000D01*
G75*
G02*
X138295000Y-90710000I0J250000D01*
G01*
X138295000Y-87710000D01*
G75*
G02*
X138545000Y-87460000I250000J0D01*
G01*
X139045000Y-87460000D01*
G75*
G02*
X139295000Y-87710000I0J-250000D01*
G01*
G37*
G04 #@! TD.AperFunction*
D18*
X139648180Y-100074420D03*
X135751820Y-100074420D03*
X139648180Y-97925580D03*
X135751820Y-97925580D03*
D19*
X166150000Y-85400000D03*
X166150000Y-87600000D03*
X164450000Y-87600000D03*
X164450000Y-85400000D03*
D20*
X171450000Y-82550000D03*
X168910000Y-82550000D03*
X166370000Y-82550000D03*
X163830000Y-82550000D03*
X161290000Y-82550000D03*
X158750000Y-82550000D03*
X156210000Y-82550000D03*
X153670000Y-82550000D03*
X151130000Y-82550000D03*
X148590000Y-82550000D03*
X146050000Y-82550000D03*
D21*
X143510000Y-82550000D03*
D20*
X171450000Y-102870000D03*
X168910000Y-102870000D03*
X166370000Y-102870000D03*
X163830000Y-102870000D03*
X161290000Y-102870000D03*
X158750000Y-102870000D03*
X156210000Y-102870000D03*
X153670000Y-102870000D03*
X151130000Y-102870000D03*
X148590000Y-102870000D03*
X146050000Y-102870000D03*
X143510000Y-102870000D03*
X140970000Y-102870000D03*
X138430000Y-102870000D03*
X135890000Y-102870000D03*
D21*
X133350000Y-102870000D03*
D22*
X129540000Y-83820000D03*
X129540000Y-101600000D03*
D23*
X149250000Y-84750000D03*
X149250000Y-88050000D03*
G04 #@! TA.AperFunction,SMDPad,CuDef*
G36*
G01*
X173075000Y-89650000D02*
X171825000Y-89650000D01*
G75*
G02*
X171675000Y-89500000I0J150000D01*
G01*
X171675000Y-89200000D01*
G75*
G02*
X171825000Y-89050000I150000J0D01*
G01*
X173075000Y-89050000D01*
G75*
G02*
X173225000Y-89200000I0J-150000D01*
G01*
X173225000Y-89500000D01*
G75*
G02*
X173075000Y-89650000I-150000J0D01*
G01*
G37*
G04 #@! TD.AperFunction*
G04 #@! TA.AperFunction,SMDPad,CuDef*
G36*
G01*
X173075000Y-88650000D02*
X171825000Y-88650000D01*
G75*
G02*
X171675000Y-88500000I0J150000D01*
G01*
X171675000Y-88200000D01*
G75*
G02*
X171825000Y-88050000I150000J0D01*
G01*
X173075000Y-88050000D01*
G75*
G02*
X173225000Y-88200000I0J-150000D01*
G01*
X173225000Y-88500000D01*
G75*
G02*
X173075000Y-88650000I-150000J0D01*
G01*
G37*
G04 #@! TD.AperFunction*
G04 #@! TA.AperFunction,SMDPad,CuDef*
G36*
G01*
X173075000Y-87650000D02*
X171825000Y-87650000D01*
G75*
G02*
X171675000Y-87500000I0J150000D01*
G01*
X171675000Y-87200000D01*
G75*
G02*
X171825000Y-87050000I150000J0D01*
G01*
X173075000Y-87050000D01*
G75*
G02*
X173225000Y-87200000I0J-150000D01*
G01*
X173225000Y-87500000D01*
G75*
G02*
X173075000Y-87650000I-150000J0D01*
G01*
G37*
G04 #@! TD.AperFunction*
G04 #@! TA.AperFunction,SMDPad,CuDef*
G36*
G01*
X173075000Y-86650000D02*
X171825000Y-86650000D01*
G75*
G02*
X171675000Y-86500000I0J150000D01*
G01*
X171675000Y-86200000D01*
G75*
G02*
X171825000Y-86050000I150000J0D01*
G01*
X173075000Y-86050000D01*
G75*
G02*
X173225000Y-86200000I0J-150000D01*
G01*
X173225000Y-86500000D01*
G75*
G02*
X173075000Y-86650000I-150000J0D01*
G01*
G37*
G04 #@! TD.AperFunction*
G04 #@! TA.AperFunction,SMDPad,CuDef*
G36*
G01*
X176975001Y-91250000D02*
X175674999Y-91250000D01*
G75*
G02*
X175425000Y-91000001I0J249999D01*
G01*
X175425000Y-90299999D01*
G75*
G02*
X175674999Y-90050000I249999J0D01*
G01*
X176975001Y-90050000D01*
G75*
G02*
X177225000Y-90299999I0J-249999D01*
G01*
X177225000Y-91000001D01*
G75*
G02*
X176975001Y-91250000I-249999J0D01*
G01*
G37*
G04 #@! TD.AperFunction*
G04 #@! TA.AperFunction,SMDPad,CuDef*
G36*
G01*
X176975001Y-85650000D02*
X175674999Y-85650000D01*
G75*
G02*
X175425000Y-85400001I0J249999D01*
G01*
X175425000Y-84699999D01*
G75*
G02*
X175674999Y-84450000I249999J0D01*
G01*
X176975001Y-84450000D01*
G75*
G02*
X177225000Y-84699999I0J-249999D01*
G01*
X177225000Y-85400001D01*
G75*
G02*
X176975001Y-85650000I-249999J0D01*
G01*
G37*
G04 #@! TD.AperFunction*
D24*
X147300000Y-86750000D03*
X147300000Y-84850000D03*
X145300000Y-85800000D03*
D25*
X145299000Y-88466000D03*
X144349000Y-88466000D03*
X143399000Y-88466000D03*
X143399000Y-90666000D03*
X145299000Y-90666000D03*
D26*
X155016000Y-86930000D03*
X155016000Y-88830000D03*
X152816000Y-88830000D03*
X152816000Y-87880000D03*
X152816000Y-86930000D03*
X136822000Y-92649000D03*
X136822000Y-93599000D03*
X136822000Y-94549000D03*
X139022000Y-94549000D03*
X139022000Y-92649000D03*
X139022000Y-93599000D03*
G04 #@! TA.AperFunction,SMDPad,CuDef*
G36*
G01*
X143053750Y-84325000D02*
X143966250Y-84325000D01*
G75*
G02*
X144210000Y-84568750I0J-243750D01*
G01*
X144210000Y-85056250D01*
G75*
G02*
X143966250Y-85300000I-243750J0D01*
G01*
X143053750Y-85300000D01*
G75*
G02*
X142810000Y-85056250I0J243750D01*
G01*
X142810000Y-84568750D01*
G75*
G02*
X143053750Y-84325000I243750J0D01*
G01*
G37*
G04 #@! TD.AperFunction*
G04 #@! TA.AperFunction,SMDPad,CuDef*
G36*
G01*
X143053750Y-86200000D02*
X143966250Y-86200000D01*
G75*
G02*
X144210000Y-86443750I0J-243750D01*
G01*
X144210000Y-86931250D01*
G75*
G02*
X143966250Y-87175000I-243750J0D01*
G01*
X143053750Y-87175000D01*
G75*
G02*
X142810000Y-86931250I0J243750D01*
G01*
X142810000Y-86443750D01*
G75*
G02*
X143053750Y-86200000I243750J0D01*
G01*
G37*
G04 #@! TD.AperFunction*
G04 #@! TA.AperFunction,SMDPad,CuDef*
G36*
G01*
X152650000Y-85456250D02*
X152650000Y-84543750D01*
G75*
G02*
X152893750Y-84300000I243750J0D01*
G01*
X153381250Y-84300000D01*
G75*
G02*
X153625000Y-84543750I0J-243750D01*
G01*
X153625000Y-85456250D01*
G75*
G02*
X153381250Y-85700000I-243750J0D01*
G01*
X152893750Y-85700000D01*
G75*
G02*
X152650000Y-85456250I0J243750D01*
G01*
G37*
G04 #@! TD.AperFunction*
G04 #@! TA.AperFunction,SMDPad,CuDef*
G36*
G01*
X150775000Y-85456250D02*
X150775000Y-84543750D01*
G75*
G02*
X151018750Y-84300000I243750J0D01*
G01*
X151506250Y-84300000D01*
G75*
G02*
X151750000Y-84543750I0J-243750D01*
G01*
X151750000Y-85456250D01*
G75*
G02*
X151506250Y-85700000I-243750J0D01*
G01*
X151018750Y-85700000D01*
G75*
G02*
X150775000Y-85456250I0J243750D01*
G01*
G37*
G04 #@! TD.AperFunction*
G04 #@! TA.AperFunction,SMDPad,CuDef*
G36*
G01*
X154375000Y-85456250D02*
X154375000Y-84543750D01*
G75*
G02*
X154618750Y-84300000I243750J0D01*
G01*
X155106250Y-84300000D01*
G75*
G02*
X155350000Y-84543750I0J-243750D01*
G01*
X155350000Y-85456250D01*
G75*
G02*
X155106250Y-85700000I-243750J0D01*
G01*
X154618750Y-85700000D01*
G75*
G02*
X154375000Y-85456250I0J243750D01*
G01*
G37*
G04 #@! TD.AperFunction*
G04 #@! TA.AperFunction,SMDPad,CuDef*
G36*
G01*
X156250000Y-85456250D02*
X156250000Y-84543750D01*
G75*
G02*
X156493750Y-84300000I243750J0D01*
G01*
X156981250Y-84300000D01*
G75*
G02*
X157225000Y-84543750I0J-243750D01*
G01*
X157225000Y-85456250D01*
G75*
G02*
X156981250Y-85700000I-243750J0D01*
G01*
X156493750Y-85700000D01*
G75*
G02*
X156250000Y-85456250I0J243750D01*
G01*
G37*
G04 #@! TD.AperFunction*
G04 #@! TA.AperFunction,SMDPad,CuDef*
G36*
G01*
X158750000Y-87643750D02*
X158750000Y-88556250D01*
G75*
G02*
X158506250Y-88800000I-243750J0D01*
G01*
X158018750Y-88800000D01*
G75*
G02*
X157775000Y-88556250I0J243750D01*
G01*
X157775000Y-87643750D01*
G75*
G02*
X158018750Y-87400000I243750J0D01*
G01*
X158506250Y-87400000D01*
G75*
G02*
X158750000Y-87643750I0J-243750D01*
G01*
G37*
G04 #@! TD.AperFunction*
G04 #@! TA.AperFunction,SMDPad,CuDef*
G36*
G01*
X160625000Y-87643750D02*
X160625000Y-88556250D01*
G75*
G02*
X160381250Y-88800000I-243750J0D01*
G01*
X159893750Y-88800000D01*
G75*
G02*
X159650000Y-88556250I0J243750D01*
G01*
X159650000Y-87643750D01*
G75*
G02*
X159893750Y-87400000I243750J0D01*
G01*
X160381250Y-87400000D01*
G75*
G02*
X160625000Y-87643750I0J-243750D01*
G01*
G37*
G04 #@! TD.AperFunction*
G04 #@! TA.AperFunction,SMDPad,CuDef*
G36*
G01*
X167475000Y-100556250D02*
X167475000Y-100043750D01*
G75*
G02*
X167693750Y-99825000I218750J0D01*
G01*
X168131250Y-99825000D01*
G75*
G02*
X168350000Y-100043750I0J-218750D01*
G01*
X168350000Y-100556250D01*
G75*
G02*
X168131250Y-100775000I-218750J0D01*
G01*
X167693750Y-100775000D01*
G75*
G02*
X167475000Y-100556250I0J218750D01*
G01*
G37*
G04 #@! TD.AperFunction*
G04 #@! TA.AperFunction,SMDPad,CuDef*
G36*
G01*
X169050000Y-100556250D02*
X169050000Y-100043750D01*
G75*
G02*
X169268750Y-99825000I218750J0D01*
G01*
X169706250Y-99825000D01*
G75*
G02*
X169925000Y-100043750I0J-218750D01*
G01*
X169925000Y-100556250D01*
G75*
G02*
X169706250Y-100775000I-218750J0D01*
G01*
X169268750Y-100775000D01*
G75*
G02*
X169050000Y-100556250I0J218750D01*
G01*
G37*
G04 #@! TD.AperFunction*
G04 #@! TA.AperFunction,SMDPad,CuDef*
G36*
G01*
X156962500Y-97493750D02*
X156962500Y-98406250D01*
G75*
G02*
X156718750Y-98650000I-243750J0D01*
G01*
X156231250Y-98650000D01*
G75*
G02*
X155987500Y-98406250I0J243750D01*
G01*
X155987500Y-97493750D01*
G75*
G02*
X156231250Y-97250000I243750J0D01*
G01*
X156718750Y-97250000D01*
G75*
G02*
X156962500Y-97493750I0J-243750D01*
G01*
G37*
G04 #@! TD.AperFunction*
G04 #@! TA.AperFunction,SMDPad,CuDef*
G36*
G01*
X155087500Y-97493750D02*
X155087500Y-98406250D01*
G75*
G02*
X154843750Y-98650000I-243750J0D01*
G01*
X154356250Y-98650000D01*
G75*
G02*
X154112500Y-98406250I0J243750D01*
G01*
X154112500Y-97493750D01*
G75*
G02*
X154356250Y-97250000I243750J0D01*
G01*
X154843750Y-97250000D01*
G75*
G02*
X155087500Y-97493750I0J-243750D01*
G01*
G37*
G04 #@! TD.AperFunction*
G04 #@! TA.AperFunction,SMDPad,CuDef*
G36*
G01*
X152843750Y-97673000D02*
X153356250Y-97673000D01*
G75*
G02*
X153575000Y-97891750I0J-218750D01*
G01*
X153575000Y-98329250D01*
G75*
G02*
X153356250Y-98548000I-218750J0D01*
G01*
X152843750Y-98548000D01*
G75*
G02*
X152625000Y-98329250I0J218750D01*
G01*
X152625000Y-97891750D01*
G75*
G02*
X152843750Y-97673000I218750J0D01*
G01*
G37*
G04 #@! TD.AperFunction*
G04 #@! TA.AperFunction,SMDPad,CuDef*
G36*
G01*
X152843750Y-99248000D02*
X153356250Y-99248000D01*
G75*
G02*
X153575000Y-99466750I0J-218750D01*
G01*
X153575000Y-99904250D01*
G75*
G02*
X153356250Y-100123000I-218750J0D01*
G01*
X152843750Y-100123000D01*
G75*
G02*
X152625000Y-99904250I0J218750D01*
G01*
X152625000Y-99466750D01*
G75*
G02*
X152843750Y-99248000I218750J0D01*
G01*
G37*
G04 #@! TD.AperFunction*
G04 #@! TA.AperFunction,SMDPad,CuDef*
G36*
G01*
X151350750Y-99248000D02*
X151863250Y-99248000D01*
G75*
G02*
X152082000Y-99466750I0J-218750D01*
G01*
X152082000Y-99904250D01*
G75*
G02*
X151863250Y-100123000I-218750J0D01*
G01*
X151350750Y-100123000D01*
G75*
G02*
X151132000Y-99904250I0J218750D01*
G01*
X151132000Y-99466750D01*
G75*
G02*
X151350750Y-99248000I218750J0D01*
G01*
G37*
G04 #@! TD.AperFunction*
G04 #@! TA.AperFunction,SMDPad,CuDef*
G36*
G01*
X151350750Y-97673000D02*
X151863250Y-97673000D01*
G75*
G02*
X152082000Y-97891750I0J-218750D01*
G01*
X152082000Y-98329250D01*
G75*
G02*
X151863250Y-98548000I-218750J0D01*
G01*
X151350750Y-98548000D01*
G75*
G02*
X151132000Y-98329250I0J218750D01*
G01*
X151132000Y-97891750D01*
G75*
G02*
X151350750Y-97673000I218750J0D01*
G01*
G37*
G04 #@! TD.AperFunction*
G04 #@! TA.AperFunction,SMDPad,CuDef*
G36*
G01*
X169150000Y-88056250D02*
X169150000Y-87543750D01*
G75*
G02*
X169368750Y-87325000I218750J0D01*
G01*
X169806250Y-87325000D01*
G75*
G02*
X170025000Y-87543750I0J-218750D01*
G01*
X170025000Y-88056250D01*
G75*
G02*
X169806250Y-88275000I-218750J0D01*
G01*
X169368750Y-88275000D01*
G75*
G02*
X169150000Y-88056250I0J218750D01*
G01*
G37*
G04 #@! TD.AperFunction*
G04 #@! TA.AperFunction,SMDPad,CuDef*
G36*
G01*
X167575000Y-88056250D02*
X167575000Y-87543750D01*
G75*
G02*
X167793750Y-87325000I218750J0D01*
G01*
X168231250Y-87325000D01*
G75*
G02*
X168450000Y-87543750I0J-218750D01*
G01*
X168450000Y-88056250D01*
G75*
G02*
X168231250Y-88275000I-218750J0D01*
G01*
X167793750Y-88275000D01*
G75*
G02*
X167575000Y-88056250I0J218750D01*
G01*
G37*
G04 #@! TD.AperFunction*
G04 #@! TA.AperFunction,SMDPad,CuDef*
G36*
G01*
X158606250Y-85200000D02*
X158093750Y-85200000D01*
G75*
G02*
X157875000Y-84981250I0J218750D01*
G01*
X157875000Y-84543750D01*
G75*
G02*
X158093750Y-84325000I218750J0D01*
G01*
X158606250Y-84325000D01*
G75*
G02*
X158825000Y-84543750I0J-218750D01*
G01*
X158825000Y-84981250D01*
G75*
G02*
X158606250Y-85200000I-218750J0D01*
G01*
G37*
G04 #@! TD.AperFunction*
G04 #@! TA.AperFunction,SMDPad,CuDef*
G36*
G01*
X158606250Y-86775000D02*
X158093750Y-86775000D01*
G75*
G02*
X157875000Y-86556250I0J218750D01*
G01*
X157875000Y-86118750D01*
G75*
G02*
X158093750Y-85900000I218750J0D01*
G01*
X158606250Y-85900000D01*
G75*
G02*
X158825000Y-86118750I0J-218750D01*
G01*
X158825000Y-86556250D01*
G75*
G02*
X158606250Y-86775000I-218750J0D01*
G01*
G37*
G04 #@! TD.AperFunction*
G04 #@! TA.AperFunction,SMDPad,CuDef*
G36*
G01*
X156443750Y-86325000D02*
X156956250Y-86325000D01*
G75*
G02*
X157175000Y-86543750I0J-218750D01*
G01*
X157175000Y-86981250D01*
G75*
G02*
X156956250Y-87200000I-218750J0D01*
G01*
X156443750Y-87200000D01*
G75*
G02*
X156225000Y-86981250I0J218750D01*
G01*
X156225000Y-86543750D01*
G75*
G02*
X156443750Y-86325000I218750J0D01*
G01*
G37*
G04 #@! TD.AperFunction*
G04 #@! TA.AperFunction,SMDPad,CuDef*
G36*
G01*
X156443750Y-87900000D02*
X156956250Y-87900000D01*
G75*
G02*
X157175000Y-88118750I0J-218750D01*
G01*
X157175000Y-88556250D01*
G75*
G02*
X156956250Y-88775000I-218750J0D01*
G01*
X156443750Y-88775000D01*
G75*
G02*
X156225000Y-88556250I0J218750D01*
G01*
X156225000Y-88118750D01*
G75*
G02*
X156443750Y-87900000I218750J0D01*
G01*
G37*
G04 #@! TD.AperFunction*
G04 #@! TA.AperFunction,SMDPad,CuDef*
G36*
G01*
X167943750Y-90450000D02*
X168456250Y-90450000D01*
G75*
G02*
X168675000Y-90668750I0J-218750D01*
G01*
X168675000Y-91106250D01*
G75*
G02*
X168456250Y-91325000I-218750J0D01*
G01*
X167943750Y-91325000D01*
G75*
G02*
X167725000Y-91106250I0J218750D01*
G01*
X167725000Y-90668750D01*
G75*
G02*
X167943750Y-90450000I218750J0D01*
G01*
G37*
G04 #@! TD.AperFunction*
G04 #@! TA.AperFunction,SMDPad,CuDef*
G36*
G01*
X167943750Y-88875000D02*
X168456250Y-88875000D01*
G75*
G02*
X168675000Y-89093750I0J-218750D01*
G01*
X168675000Y-89531250D01*
G75*
G02*
X168456250Y-89750000I-218750J0D01*
G01*
X167943750Y-89750000D01*
G75*
G02*
X167725000Y-89531250I0J218750D01*
G01*
X167725000Y-89093750D01*
G75*
G02*
X167943750Y-88875000I218750J0D01*
G01*
G37*
G04 #@! TD.AperFunction*
G04 #@! TA.AperFunction,SMDPad,CuDef*
G36*
G01*
X169443750Y-90450000D02*
X169956250Y-90450000D01*
G75*
G02*
X170175000Y-90668750I0J-218750D01*
G01*
X170175000Y-91106250D01*
G75*
G02*
X169956250Y-91325000I-218750J0D01*
G01*
X169443750Y-91325000D01*
G75*
G02*
X169225000Y-91106250I0J218750D01*
G01*
X169225000Y-90668750D01*
G75*
G02*
X169443750Y-90450000I218750J0D01*
G01*
G37*
G04 #@! TD.AperFunction*
G04 #@! TA.AperFunction,SMDPad,CuDef*
G36*
G01*
X169443750Y-88875000D02*
X169956250Y-88875000D01*
G75*
G02*
X170175000Y-89093750I0J-218750D01*
G01*
X170175000Y-89531250D01*
G75*
G02*
X169956250Y-89750000I-218750J0D01*
G01*
X169443750Y-89750000D01*
G75*
G02*
X169225000Y-89531250I0J218750D01*
G01*
X169225000Y-89093750D01*
G75*
G02*
X169443750Y-88875000I218750J0D01*
G01*
G37*
G04 #@! TD.AperFunction*
G04 #@! TA.AperFunction,SMDPad,CuDef*
G36*
G01*
X132077750Y-99918000D02*
X132590250Y-99918000D01*
G75*
G02*
X132809000Y-100136750I0J-218750D01*
G01*
X132809000Y-100574250D01*
G75*
G02*
X132590250Y-100793000I-218750J0D01*
G01*
X132077750Y-100793000D01*
G75*
G02*
X131859000Y-100574250I0J218750D01*
G01*
X131859000Y-100136750D01*
G75*
G02*
X132077750Y-99918000I218750J0D01*
G01*
G37*
G04 #@! TD.AperFunction*
G04 #@! TA.AperFunction,SMDPad,CuDef*
G36*
G01*
X132077750Y-98343000D02*
X132590250Y-98343000D01*
G75*
G02*
X132809000Y-98561750I0J-218750D01*
G01*
X132809000Y-98999250D01*
G75*
G02*
X132590250Y-99218000I-218750J0D01*
G01*
X132077750Y-99218000D01*
G75*
G02*
X131859000Y-98999250I0J218750D01*
G01*
X131859000Y-98561750D01*
G75*
G02*
X132077750Y-98343000I218750J0D01*
G01*
G37*
G04 #@! TD.AperFunction*
G04 #@! TA.AperFunction,SMDPad,CuDef*
G36*
G01*
X169150000Y-85056250D02*
X169150000Y-84543750D01*
G75*
G02*
X169368750Y-84325000I218750J0D01*
G01*
X169806250Y-84325000D01*
G75*
G02*
X170025000Y-84543750I0J-218750D01*
G01*
X170025000Y-85056250D01*
G75*
G02*
X169806250Y-85275000I-218750J0D01*
G01*
X169368750Y-85275000D01*
G75*
G02*
X169150000Y-85056250I0J218750D01*
G01*
G37*
G04 #@! TD.AperFunction*
G04 #@! TA.AperFunction,SMDPad,CuDef*
G36*
G01*
X167575000Y-85056250D02*
X167575000Y-84543750D01*
G75*
G02*
X167793750Y-84325000I218750J0D01*
G01*
X168231250Y-84325000D01*
G75*
G02*
X168450000Y-84543750I0J-218750D01*
G01*
X168450000Y-85056250D01*
G75*
G02*
X168231250Y-85275000I-218750J0D01*
G01*
X167793750Y-85275000D01*
G75*
G02*
X167575000Y-85056250I0J218750D01*
G01*
G37*
G04 #@! TD.AperFunction*
G04 #@! TA.AperFunction,SMDPad,CuDef*
G36*
G01*
X132077750Y-84373000D02*
X132590250Y-84373000D01*
G75*
G02*
X132809000Y-84591750I0J-218750D01*
G01*
X132809000Y-85029250D01*
G75*
G02*
X132590250Y-85248000I-218750J0D01*
G01*
X132077750Y-85248000D01*
G75*
G02*
X131859000Y-85029250I0J218750D01*
G01*
X131859000Y-84591750D01*
G75*
G02*
X132077750Y-84373000I218750J0D01*
G01*
G37*
G04 #@! TD.AperFunction*
G04 #@! TA.AperFunction,SMDPad,CuDef*
G36*
G01*
X132077750Y-85948000D02*
X132590250Y-85948000D01*
G75*
G02*
X132809000Y-86166750I0J-218750D01*
G01*
X132809000Y-86604250D01*
G75*
G02*
X132590250Y-86823000I-218750J0D01*
G01*
X132077750Y-86823000D01*
G75*
G02*
X131859000Y-86604250I0J218750D01*
G01*
X131859000Y-86166750D01*
G75*
G02*
X132077750Y-85948000I218750J0D01*
G01*
G37*
G04 #@! TD.AperFunction*
G04 #@! TA.AperFunction,SMDPad,CuDef*
G36*
G01*
X150943750Y-88550000D02*
X151456250Y-88550000D01*
G75*
G02*
X151675000Y-88768750I0J-218750D01*
G01*
X151675000Y-89206250D01*
G75*
G02*
X151456250Y-89425000I-218750J0D01*
G01*
X150943750Y-89425000D01*
G75*
G02*
X150725000Y-89206250I0J218750D01*
G01*
X150725000Y-88768750D01*
G75*
G02*
X150943750Y-88550000I218750J0D01*
G01*
G37*
G04 #@! TD.AperFunction*
G04 #@! TA.AperFunction,SMDPad,CuDef*
G36*
G01*
X150943750Y-86975000D02*
X151456250Y-86975000D01*
G75*
G02*
X151675000Y-87193750I0J-218750D01*
G01*
X151675000Y-87631250D01*
G75*
G02*
X151456250Y-87850000I-218750J0D01*
G01*
X150943750Y-87850000D01*
G75*
G02*
X150725000Y-87631250I0J218750D01*
G01*
X150725000Y-87193750D01*
G75*
G02*
X150943750Y-86975000I218750J0D01*
G01*
G37*
G04 #@! TD.AperFunction*
G04 #@! TA.AperFunction,SMDPad,CuDef*
G36*
G01*
X142322000Y-90493750D02*
X142322000Y-91006250D01*
G75*
G02*
X142103250Y-91225000I-218750J0D01*
G01*
X141665750Y-91225000D01*
G75*
G02*
X141447000Y-91006250I0J218750D01*
G01*
X141447000Y-90493750D01*
G75*
G02*
X141665750Y-90275000I218750J0D01*
G01*
X142103250Y-90275000D01*
G75*
G02*
X142322000Y-90493750I0J-218750D01*
G01*
G37*
G04 #@! TD.AperFunction*
G04 #@! TA.AperFunction,SMDPad,CuDef*
G36*
G01*
X140747000Y-90493750D02*
X140747000Y-91006250D01*
G75*
G02*
X140528250Y-91225000I-218750J0D01*
G01*
X140090750Y-91225000D01*
G75*
G02*
X139872000Y-91006250I0J218750D01*
G01*
X139872000Y-90493750D01*
G75*
G02*
X140090750Y-90275000I218750J0D01*
G01*
X140528250Y-90275000D01*
G75*
G02*
X140747000Y-90493750I0J-218750D01*
G01*
G37*
G04 #@! TD.AperFunction*
G04 #@! TA.AperFunction,SMDPad,CuDef*
G36*
G01*
X147356250Y-90475000D02*
X146843750Y-90475000D01*
G75*
G02*
X146625000Y-90256250I0J218750D01*
G01*
X146625000Y-89818750D01*
G75*
G02*
X146843750Y-89600000I218750J0D01*
G01*
X147356250Y-89600000D01*
G75*
G02*
X147575000Y-89818750I0J-218750D01*
G01*
X147575000Y-90256250D01*
G75*
G02*
X147356250Y-90475000I-218750J0D01*
G01*
G37*
G04 #@! TD.AperFunction*
G04 #@! TA.AperFunction,SMDPad,CuDef*
G36*
G01*
X147356250Y-88900000D02*
X146843750Y-88900000D01*
G75*
G02*
X146625000Y-88681250I0J218750D01*
G01*
X146625000Y-88243750D01*
G75*
G02*
X146843750Y-88025000I218750J0D01*
G01*
X147356250Y-88025000D01*
G75*
G02*
X147575000Y-88243750I0J-218750D01*
G01*
X147575000Y-88681250D01*
G75*
G02*
X147356250Y-88900000I-218750J0D01*
G01*
G37*
G04 #@! TD.AperFunction*
G04 #@! TA.AperFunction,SMDPad,CuDef*
G36*
G01*
X133743750Y-96575000D02*
X134256250Y-96575000D01*
G75*
G02*
X134475000Y-96793750I0J-218750D01*
G01*
X134475000Y-97231250D01*
G75*
G02*
X134256250Y-97450000I-218750J0D01*
G01*
X133743750Y-97450000D01*
G75*
G02*
X133525000Y-97231250I0J218750D01*
G01*
X133525000Y-96793750D01*
G75*
G02*
X133743750Y-96575000I218750J0D01*
G01*
G37*
G04 #@! TD.AperFunction*
G04 #@! TA.AperFunction,SMDPad,CuDef*
G36*
G01*
X133743750Y-98150000D02*
X134256250Y-98150000D01*
G75*
G02*
X134475000Y-98368750I0J-218750D01*
G01*
X134475000Y-98806250D01*
G75*
G02*
X134256250Y-99025000I-218750J0D01*
G01*
X133743750Y-99025000D01*
G75*
G02*
X133525000Y-98806250I0J218750D01*
G01*
X133525000Y-98368750D01*
G75*
G02*
X133743750Y-98150000I218750J0D01*
G01*
G37*
G04 #@! TD.AperFunction*
G04 #@! TA.AperFunction,SMDPad,CuDef*
G36*
G01*
X134950000Y-91656250D02*
X134950000Y-91143750D01*
G75*
G02*
X135168750Y-90925000I218750J0D01*
G01*
X135606250Y-90925000D01*
G75*
G02*
X135825000Y-91143750I0J-218750D01*
G01*
X135825000Y-91656250D01*
G75*
G02*
X135606250Y-91875000I-218750J0D01*
G01*
X135168750Y-91875000D01*
G75*
G02*
X134950000Y-91656250I0J218750D01*
G01*
G37*
G04 #@! TD.AperFunction*
G04 #@! TA.AperFunction,SMDPad,CuDef*
G36*
G01*
X133375000Y-91656250D02*
X133375000Y-91143750D01*
G75*
G02*
X133593750Y-90925000I218750J0D01*
G01*
X134031250Y-90925000D01*
G75*
G02*
X134250000Y-91143750I0J-218750D01*
G01*
X134250000Y-91656250D01*
G75*
G02*
X134031250Y-91875000I-218750J0D01*
G01*
X133593750Y-91875000D01*
G75*
G02*
X133375000Y-91656250I0J218750D01*
G01*
G37*
G04 #@! TD.AperFunction*
G04 #@! TA.AperFunction,SMDPad,CuDef*
G36*
G01*
X155000000Y-99393750D02*
X155000000Y-99906250D01*
G75*
G02*
X154781250Y-100125000I-218750J0D01*
G01*
X154343750Y-100125000D01*
G75*
G02*
X154125000Y-99906250I0J218750D01*
G01*
X154125000Y-99393750D01*
G75*
G02*
X154343750Y-99175000I218750J0D01*
G01*
X154781250Y-99175000D01*
G75*
G02*
X155000000Y-99393750I0J-218750D01*
G01*
G37*
G04 #@! TD.AperFunction*
G04 #@! TA.AperFunction,SMDPad,CuDef*
G36*
G01*
X156575000Y-99393750D02*
X156575000Y-99906250D01*
G75*
G02*
X156356250Y-100125000I-218750J0D01*
G01*
X155918750Y-100125000D01*
G75*
G02*
X155700000Y-99906250I0J218750D01*
G01*
X155700000Y-99393750D01*
G75*
G02*
X155918750Y-99175000I218750J0D01*
G01*
X156356250Y-99175000D01*
G75*
G02*
X156575000Y-99393750I0J-218750D01*
G01*
G37*
G04 #@! TD.AperFunction*
D27*
X136017000Y-86741000D03*
X137541000Y-86741000D03*
X141350000Y-88450000D03*
X130429000Y-91250000D03*
X130429000Y-94250000D03*
X144400000Y-90350000D03*
X140208000Y-93627010D03*
X133100000Y-95100000D03*
X133100000Y-90300000D03*
X149250000Y-89050000D03*
D28*
X161828144Y-99900002D03*
X166950002Y-99300000D03*
X170400002Y-86300000D03*
X159832082Y-89167918D03*
X169070864Y-96379145D03*
X147547990Y-96300000D03*
X144899998Y-95300000D03*
X156848941Y-95430413D03*
X159686680Y-100037048D03*
X149411334Y-98327906D03*
X169166551Y-95633449D03*
X168600000Y-97800000D03*
X168060527Y-97110527D03*
X132969000Y-83820000D03*
X167430357Y-97756783D03*
X149900000Y-83500000D03*
X152000000Y-89350000D03*
X158800000Y-100100000D03*
X158600000Y-98100000D03*
X158266399Y-95966399D03*
X157847999Y-96723050D03*
X157843285Y-95112136D03*
X156919143Y-96519145D03*
X163955311Y-100686967D03*
X162935807Y-99935807D03*
X133477000Y-100457000D03*
X143150000Y-89550000D03*
X164946181Y-98402010D03*
X159823888Y-99133036D03*
X160736588Y-99242748D03*
X165700000Y-98050000D03*
D27*
X141097000Y-86741000D03*
X135636000Y-93599000D03*
X137700000Y-97900000D03*
X144300000Y-99800000D03*
X164000000Y-94500000D03*
X162500000Y-94500000D03*
X162500000Y-93000000D03*
X164000000Y-93000000D03*
D28*
X170900000Y-93000000D03*
X170900000Y-94000000D03*
X170900000Y-95000000D03*
X170900000Y-96000000D03*
X170900000Y-97000000D03*
X170900000Y-98000000D03*
X169900000Y-93000000D03*
X170900000Y-91950000D03*
X169900000Y-91950000D03*
X168900000Y-91950000D03*
X170900000Y-90950000D03*
X170900000Y-89950000D03*
X170900000Y-88950000D03*
X170900000Y-87700000D03*
X170900000Y-85400000D03*
X170900000Y-84400000D03*
X166150000Y-84300000D03*
X170900000Y-99000000D03*
X170900000Y-100000000D03*
X170900000Y-101000000D03*
X164450000Y-88650000D03*
D27*
X153850000Y-87900000D03*
X139450000Y-86250000D03*
X144750000Y-87150000D03*
D28*
X140300000Y-89950000D03*
X135400000Y-90600000D03*
X153937504Y-85800004D03*
X157550000Y-85250000D03*
X157450000Y-88700000D03*
X152350000Y-100250000D03*
X155200000Y-98950000D03*
D27*
X155000000Y-87800000D03*
D28*
X168500000Y-85550000D03*
X159100000Y-92500000D03*
D27*
X143500000Y-98000000D03*
D28*
X168500000Y-87050000D03*
X168950000Y-88800000D03*
X148455380Y-94755380D03*
X168999996Y-94700000D03*
X165750000Y-99752010D03*
X161249994Y-88650000D03*
X152350000Y-98700004D03*
D27*
X159000000Y-97250000D03*
D28*
X155800000Y-96899998D03*
D29*
X143207999Y-82852001D02*
X143510000Y-82550000D01*
D30*
X136795000Y-87519000D02*
X136017000Y-86741000D01*
D29*
X136795000Y-89210000D02*
X136795000Y-87519000D01*
D30*
X136795000Y-87487000D02*
X137541000Y-86741000D01*
D29*
X136795000Y-89210000D02*
X136795000Y-87487000D01*
D30*
X136017000Y-86741000D02*
X137541000Y-86741000D01*
D29*
X143406000Y-88773000D02*
X143449000Y-88816000D01*
X143510000Y-84914500D02*
X144366500Y-84914500D01*
D31*
X143510000Y-84914500D02*
X143510000Y-82550000D01*
X144312500Y-84812500D02*
X145300000Y-85800000D01*
X143510000Y-84812500D02*
X144312500Y-84812500D01*
X143383000Y-88450000D02*
X143399000Y-88466000D01*
X141350000Y-88450000D02*
X143383000Y-88450000D01*
D29*
X131899007Y-90297000D02*
X131940000Y-90256007D01*
X143406000Y-91059000D02*
X143449000Y-91016000D01*
X139022000Y-93599000D02*
X139050010Y-93627010D01*
X139050010Y-93627010D02*
X140208000Y-93627010D01*
D32*
X133100000Y-95100000D02*
X132500000Y-95100000D01*
X133100000Y-90300000D02*
X132500000Y-90300000D01*
D33*
X131223000Y-90456000D02*
X131940000Y-90456000D01*
X130429000Y-91250000D02*
X131223000Y-90456000D01*
X131135000Y-94956000D02*
X131940000Y-94956000D01*
X130429000Y-94250000D02*
X131135000Y-94956000D01*
D29*
X128750000Y-95929000D02*
X130429000Y-94250000D01*
X128750000Y-98848000D02*
X128750000Y-95929000D01*
X128665000Y-98933000D02*
X128750000Y-98848000D01*
D31*
X147950000Y-86750000D02*
X149250000Y-88050000D01*
X147300000Y-86750000D02*
X147950000Y-86750000D01*
X149250000Y-89050000D02*
X149250000Y-88050000D01*
X144084000Y-90666000D02*
X144400000Y-90350000D01*
X143399000Y-90666000D02*
X144084000Y-90666000D01*
X143315000Y-90750000D02*
X143399000Y-90666000D01*
X141884500Y-90750000D02*
X143315000Y-90750000D01*
X151012500Y-84750000D02*
X151262500Y-85000000D01*
X149250000Y-84750000D02*
X151012500Y-84750000D01*
X151200000Y-85062500D02*
X151262500Y-85000000D01*
X151200000Y-87412500D02*
X151200000Y-85062500D01*
X151682500Y-86930000D02*
X152816000Y-86930000D01*
X151200000Y-87412500D02*
X151682500Y-86930000D01*
X147400000Y-84750000D02*
X147300000Y-84850000D01*
X149250000Y-84750000D02*
X147400000Y-84750000D01*
D29*
X166950002Y-99337502D02*
X167912500Y-100300000D01*
X166950002Y-99300000D02*
X166950002Y-99337502D01*
X166537500Y-99712502D02*
X166537500Y-100300000D01*
X166950002Y-99300000D02*
X166537500Y-99712502D01*
X167350000Y-98900000D02*
X167875000Y-98900000D01*
X167875000Y-98900000D02*
X167925000Y-98850000D01*
X166950002Y-99299998D02*
X167350000Y-98900000D01*
X166950002Y-99300000D02*
X166950002Y-99299998D01*
X163700226Y-97809075D02*
X161828144Y-99681157D01*
X163920248Y-97605079D02*
X163716252Y-97809075D01*
X161828144Y-99681157D02*
X161828144Y-99900002D01*
X163920248Y-97589053D02*
X163920248Y-97605079D01*
X164072000Y-97437301D02*
X163920248Y-97589053D01*
X164072000Y-97127247D02*
X164072000Y-97437301D01*
X163716252Y-97809075D02*
X163700226Y-97809075D01*
X132221000Y-98933000D02*
X132334000Y-98820000D01*
X130415000Y-98933000D02*
X132221000Y-98933000D01*
X150545978Y-96554022D02*
X153470904Y-96554022D01*
X149075000Y-98025000D02*
X150545978Y-96554022D01*
X158134392Y-93476000D02*
X159920753Y-93476000D01*
X145650000Y-98025000D02*
X149075000Y-98025000D01*
X153470904Y-96554022D02*
X154270902Y-95754022D01*
X154270902Y-95754022D02*
X155856370Y-95754022D01*
X155856370Y-95754022D02*
X158134392Y-93476000D01*
X132320000Y-86487000D02*
X132334000Y-86473000D01*
X130415000Y-86487000D02*
X132320000Y-86487000D01*
X171637500Y-87350000D02*
X172450000Y-87350000D01*
X171450002Y-87350000D02*
X170400002Y-86300000D01*
X172450000Y-87350000D02*
X171450002Y-87350000D01*
X170400002Y-86300000D02*
X169587500Y-86300000D01*
X159832082Y-89584834D02*
X159832082Y-89167918D01*
X160572000Y-90324752D02*
X159832082Y-89584834D01*
X171150000Y-86350000D02*
X172450000Y-86350000D01*
X169600000Y-84800000D02*
X171150000Y-86350000D01*
X169587500Y-84800000D02*
X169600000Y-84800000D01*
X168910000Y-84122500D02*
X169587500Y-84800000D01*
X168910000Y-82550000D02*
X168910000Y-84122500D01*
X166723248Y-93976000D02*
X167144573Y-93976000D01*
X168714549Y-96022830D02*
X169070864Y-96379145D01*
X167144573Y-93976000D02*
X168714549Y-95545976D01*
X168714549Y-95545976D02*
X168714549Y-96022830D01*
X149750000Y-96300000D02*
X147547990Y-96300000D01*
X153200000Y-95900000D02*
X150150000Y-95900000D01*
X154000000Y-95100000D02*
X153200000Y-95900000D01*
X158709466Y-91976000D02*
X155585466Y-95100000D01*
X155585466Y-95100000D02*
X154000000Y-95100000D01*
X150150000Y-95900000D02*
X149750000Y-96300000D01*
X159920753Y-91976000D02*
X158709466Y-91976000D01*
X145124997Y-95524999D02*
X144899998Y-95300000D01*
X146351999Y-96752001D02*
X145124997Y-95524999D01*
X154135451Y-95427011D02*
X153335452Y-96227011D01*
X159920753Y-92976000D02*
X159799515Y-93097238D01*
X159799515Y-93097238D02*
X158050691Y-93097238D01*
X155720918Y-95427011D02*
X154135451Y-95427011D01*
X158050691Y-93097238D02*
X155720918Y-95427011D01*
X153335452Y-96227011D02*
X150285451Y-96227011D01*
X150285451Y-96227011D02*
X149760461Y-96752001D01*
X149760461Y-96752001D02*
X146351999Y-96752001D01*
X133730000Y-102870000D02*
X135300000Y-101300000D01*
X133350000Y-102870000D02*
X133730000Y-102870000D01*
X135751820Y-100351820D02*
X136700000Y-101300000D01*
X136700000Y-101300000D02*
X137800000Y-101300000D01*
X135751820Y-100074420D02*
X135751820Y-100351820D01*
X135300000Y-101300000D02*
X136700000Y-101300000D01*
X139648180Y-100074420D02*
X139648180Y-100548180D01*
X139648180Y-100548180D02*
X140400000Y-101300000D01*
X137800000Y-101300000D02*
X140400000Y-101300000D01*
X163572000Y-97463445D02*
X160998397Y-100037048D01*
X163572000Y-97127247D02*
X163572000Y-97463445D01*
X160998397Y-100037048D02*
X159686680Y-100037048D01*
X149186335Y-98552905D02*
X149411334Y-98327906D01*
X146439240Y-101300000D02*
X149186335Y-98552905D01*
X140400000Y-101300000D02*
X146439240Y-101300000D01*
X150858207Y-96881033D02*
X149411334Y-98327906D01*
X155991822Y-96081033D02*
X154406353Y-96081033D01*
X153606356Y-96881033D02*
X150858207Y-96881033D01*
X156848941Y-95430413D02*
X156642442Y-95430413D01*
X156642442Y-95430413D02*
X155991822Y-96081033D01*
X154406353Y-96081033D02*
X153606356Y-96881033D01*
X165270000Y-83650000D02*
X166370000Y-82550000D01*
X164572000Y-89997075D02*
X161600000Y-87025075D01*
X164572000Y-90324752D02*
X164572000Y-89997075D01*
X161600000Y-84800000D02*
X162750000Y-83650000D01*
X161600000Y-87025075D02*
X161600000Y-84800000D01*
X162750000Y-83650000D02*
X165270000Y-83650000D01*
X163830000Y-82931000D02*
X163830000Y-82550000D01*
X161272989Y-84664548D02*
X163387537Y-82550000D01*
X164072000Y-89959538D02*
X161272989Y-87160527D01*
X161272989Y-87160527D02*
X161272989Y-84664548D01*
X163387537Y-82550000D02*
X163830000Y-82550000D01*
X164072000Y-90324752D02*
X164072000Y-89959538D01*
X160945978Y-87295978D02*
X160945978Y-82894022D01*
X163572000Y-89922000D02*
X160945978Y-87295978D01*
X160945978Y-82894022D02*
X161290000Y-82550000D01*
X163572000Y-90324752D02*
X163572000Y-89922000D01*
X158750000Y-82894490D02*
X158750000Y-82550000D01*
X158750000Y-83312000D02*
X158750000Y-82550000D01*
X166723248Y-93476000D02*
X167107036Y-93476000D01*
X167107036Y-93476000D02*
X169166551Y-95535515D01*
X169166551Y-95535515D02*
X169166551Y-95633449D01*
X168387538Y-95685472D02*
X168387538Y-96797520D01*
X168600000Y-97009982D02*
X168600000Y-97800000D01*
X167178066Y-94476000D02*
X168387538Y-95685472D01*
X166723248Y-94476000D02*
X167178066Y-94476000D01*
X168387538Y-96797520D02*
X168600000Y-97009982D01*
X166723248Y-94976000D02*
X167178066Y-94976000D01*
X167178066Y-94976000D02*
X168060527Y-95858461D01*
X168060527Y-95858461D02*
X168060527Y-97110527D01*
X132334000Y-84455000D02*
X132969000Y-83820000D01*
X132334000Y-84723000D02*
X132334000Y-84455000D01*
X167430357Y-97100679D02*
X167430357Y-97756783D01*
X167178066Y-95476000D02*
X167733516Y-96031450D01*
X166723248Y-95476000D02*
X167178066Y-95476000D01*
X167733516Y-96031450D02*
X167733516Y-96797520D01*
X167733516Y-96797520D02*
X167430357Y-97100679D01*
X147150000Y-83650000D02*
X149750000Y-83650000D01*
X149750000Y-83650000D02*
X149900000Y-83500000D01*
X146050000Y-82550000D02*
X147150000Y-83650000D01*
X151637500Y-88987500D02*
X152000000Y-89350000D01*
X151200000Y-88987500D02*
X151637500Y-88987500D01*
X152520000Y-88830000D02*
X152000000Y-89350000D01*
X152816000Y-88830000D02*
X152520000Y-88830000D01*
X133756500Y-91456000D02*
X133812500Y-91400000D01*
X131940000Y-91456000D02*
X133756500Y-91456000D01*
X131129998Y-91956000D02*
X130810000Y-92275998D01*
X131940000Y-91956000D02*
X131129998Y-91956000D01*
X130810000Y-92636002D02*
X131129998Y-92956000D01*
X131129998Y-92956000D02*
X131940000Y-92956000D01*
X130810000Y-92275998D02*
X130810000Y-92636002D01*
X136026999Y-92649000D02*
X136822000Y-92649000D01*
X135777000Y-92898999D02*
X136026999Y-92649000D01*
X131940000Y-91956000D02*
X132365000Y-91956000D01*
X134332200Y-93374000D02*
X134824998Y-93374000D01*
X135299999Y-92898999D02*
X135777000Y-92898999D01*
X134824998Y-93374000D02*
X135299999Y-92898999D01*
X132390000Y-91981000D02*
X132939200Y-91981000D01*
X132365000Y-91956000D02*
X132390000Y-91981000D01*
X132939200Y-91981000D02*
X134332200Y-93374000D01*
X132840001Y-93366001D02*
X132750002Y-93456000D01*
X132840001Y-92545999D02*
X132840001Y-93366001D01*
X132750002Y-92456000D02*
X132840001Y-92545999D01*
X132750002Y-93456000D02*
X131940000Y-93456000D01*
X131940000Y-92456000D02*
X132750002Y-92456000D01*
X135777000Y-94299001D02*
X136026999Y-94549000D01*
X136026999Y-94549000D02*
X136822000Y-94549000D01*
X135299999Y-94299001D02*
X135777000Y-94299001D01*
X134824998Y-93824000D02*
X135299999Y-94299001D01*
X132752800Y-92431000D02*
X134145800Y-93824000D01*
X134145800Y-93824000D02*
X134824998Y-93824000D01*
X132390000Y-92431000D02*
X132752800Y-92431000D01*
X132365000Y-92456000D02*
X132390000Y-92431000D01*
X131940000Y-92456000D02*
X132365000Y-92456000D01*
X134000000Y-95072038D02*
X134000000Y-97012500D01*
X133383962Y-94456000D02*
X134000000Y-95072038D01*
X131940000Y-94456000D02*
X133383962Y-94456000D01*
X170912500Y-102332500D02*
X171450000Y-102870000D01*
X157170256Y-99650000D02*
X156137500Y-99650000D01*
X158600000Y-98220256D02*
X157170256Y-99650000D01*
X158600000Y-98100000D02*
X158600000Y-98220256D01*
X158800000Y-99487387D02*
X158800000Y-100100000D01*
X161167601Y-98463735D02*
X160239161Y-98463735D01*
X160239161Y-98463735D02*
X160021870Y-98681026D01*
X160021870Y-98681026D02*
X159606361Y-98681026D01*
X162072000Y-97559336D02*
X161167601Y-98463735D01*
X162072000Y-97127247D02*
X162072000Y-97559336D01*
X159606361Y-98681026D02*
X158800000Y-99487387D01*
X159920753Y-95476000D02*
X158756798Y-95476000D01*
X158756798Y-95476000D02*
X158266399Y-95966399D01*
X159920753Y-95976000D02*
X158896038Y-95976000D01*
X158896038Y-95976000D02*
X158148988Y-96723050D01*
X158148988Y-96723050D02*
X157847999Y-96723050D01*
X158479421Y-94476000D02*
X157843285Y-95112136D01*
X159920753Y-94476000D02*
X158479421Y-94476000D01*
X157044691Y-96519145D02*
X156919143Y-96519145D01*
X158049438Y-95514398D02*
X157044691Y-96519145D01*
X159920753Y-94976000D02*
X158779590Y-94976000D01*
X158779590Y-94976000D02*
X158241192Y-95514398D01*
X158241192Y-95514398D02*
X158049438Y-95514398D01*
X165072000Y-97127247D02*
X165122011Y-97177258D01*
X165072000Y-97127247D02*
X165072000Y-97310000D01*
X158750000Y-102870000D02*
X159925001Y-101694999D01*
X162947279Y-101694999D02*
X163955311Y-100686967D01*
X162935807Y-99617609D02*
X162935807Y-99935807D01*
X159925001Y-101694999D02*
X162947279Y-101694999D01*
X165072000Y-97481416D02*
X162935807Y-99617609D01*
X165072000Y-97127247D02*
X165072000Y-97481416D01*
X166978355Y-98203070D02*
X166000402Y-99181023D01*
X167406505Y-96621053D02*
X166978355Y-97049203D01*
X157914247Y-101358044D02*
X156402291Y-102870000D01*
X164800406Y-99181023D02*
X162623385Y-101358044D01*
X167178066Y-95976000D02*
X167406505Y-96204439D01*
X166000402Y-99181023D02*
X164800406Y-99181023D01*
X166723248Y-95976000D02*
X167178066Y-95976000D01*
X166978355Y-97049203D02*
X166978355Y-98203070D01*
X162623385Y-101358044D02*
X157914247Y-101358044D01*
X156402291Y-102870000D02*
X156210000Y-102870000D01*
X167406505Y-96204439D02*
X167406505Y-96621053D01*
X154758967Y-101781033D02*
X153670000Y-102870000D01*
X156968818Y-101781033D02*
X154758967Y-101781033D01*
X162479820Y-101031033D02*
X157718818Y-101031033D01*
X164656841Y-98854012D02*
X162479820Y-101031033D01*
X166602010Y-98116952D02*
X165864950Y-98854012D01*
X165864950Y-98854012D02*
X164656841Y-98854012D01*
X166602010Y-96597238D02*
X166602010Y-98116952D01*
X166723248Y-96476000D02*
X166602010Y-96597238D01*
X157718818Y-101031033D02*
X156968818Y-101781033D01*
X162280154Y-100500882D02*
X162077014Y-100704022D01*
X152545978Y-101454022D02*
X151130000Y-102870000D01*
X164572000Y-97490463D02*
X162665384Y-99397079D01*
X157583366Y-100704022D02*
X156833366Y-101454022D01*
X164572000Y-97127247D02*
X164572000Y-97490463D01*
X162582119Y-99397079D02*
X162280154Y-99699044D01*
X156833366Y-101454022D02*
X152545978Y-101454022D01*
X162280154Y-99699044D02*
X162280154Y-100500882D01*
X162077014Y-100704022D02*
X157583366Y-100704022D01*
X162665384Y-99397079D02*
X162582119Y-99397079D01*
X159467381Y-98354015D02*
X156694385Y-101127011D01*
X160103708Y-98136724D02*
X159886417Y-98354015D01*
X150332989Y-101127011D02*
X148590000Y-102870000D01*
X161572000Y-97582065D02*
X161017341Y-98136724D01*
X161572000Y-97127247D02*
X161572000Y-97582065D01*
X161017341Y-98136724D02*
X160103708Y-98136724D01*
X159886417Y-98354015D02*
X159467381Y-98354015D01*
X156694385Y-101127011D02*
X150332989Y-101127011D01*
X159331925Y-98027008D02*
X156558933Y-100800000D01*
X161072000Y-97127247D02*
X161072000Y-97582065D01*
X156558933Y-100800000D02*
X148120000Y-100800000D01*
X148120000Y-100800000D02*
X146899999Y-102020001D01*
X146899999Y-102020001D02*
X146050000Y-102870000D01*
X160844352Y-97809713D02*
X159918257Y-97809713D01*
X159918257Y-97809713D02*
X159700962Y-98027008D01*
X161072000Y-97582065D02*
X160844352Y-97809713D01*
X159700962Y-98027008D02*
X159331925Y-98027008D01*
X154541805Y-96408044D02*
X153741808Y-97208044D01*
X153741808Y-97208044D02*
X151191300Y-97208044D01*
X156917782Y-96058044D02*
X156477274Y-96058044D01*
X158310459Y-93976000D02*
X157325935Y-94960524D01*
X159920753Y-93976000D02*
X158310459Y-93976000D01*
X156127274Y-96408044D02*
X154541805Y-96408044D01*
X144702989Y-101677011D02*
X143510000Y-102870000D01*
X146722333Y-101677011D02*
X144702989Y-101677011D01*
X157325935Y-95649891D02*
X156917782Y-96058044D01*
X157325935Y-94960524D02*
X157325935Y-95649891D01*
X156477274Y-96058044D02*
X156127274Y-96408044D01*
X151191300Y-97208044D02*
X146722333Y-101677011D01*
X132359500Y-100457000D02*
X132334000Y-100482500D01*
X133477000Y-100457000D02*
X132359500Y-100457000D01*
X145299000Y-89196000D02*
X145299000Y-88466000D01*
X144945000Y-89550000D02*
X145299000Y-89196000D01*
X143150000Y-89550000D02*
X144945000Y-89550000D01*
D31*
X146471500Y-90666000D02*
X147100000Y-90037500D01*
X145299000Y-90666000D02*
X146471500Y-90666000D01*
D29*
X159465935Y-91476000D02*
X159920753Y-91476000D01*
X147474000Y-91476000D02*
X159465935Y-91476000D01*
X146550000Y-92400000D02*
X147474000Y-91476000D01*
X142428162Y-92400000D02*
X146550000Y-92400000D01*
X140279162Y-94549000D02*
X142428162Y-92400000D01*
X139022000Y-94549000D02*
X140279162Y-94549000D01*
X141651000Y-92649000D02*
X139022000Y-92649000D01*
X146200000Y-92000000D02*
X142300000Y-92000000D01*
X147224000Y-90976000D02*
X146200000Y-92000000D01*
X142300000Y-92000000D02*
X141651000Y-92649000D01*
X159920753Y-90976000D02*
X147224000Y-90976000D01*
X165572000Y-97127247D02*
X165621990Y-97177237D01*
X164946181Y-98083812D02*
X164946181Y-98402010D01*
X165572000Y-97127247D02*
X165572000Y-97457993D01*
X165572000Y-97457993D02*
X164946181Y-98083812D01*
X160142086Y-99133036D02*
X159823888Y-99133036D01*
X160484376Y-98790746D02*
X160142086Y-99133036D01*
X162572000Y-97521798D02*
X161303053Y-98790746D01*
X161303053Y-98790746D02*
X160484376Y-98790746D01*
X162572000Y-97127247D02*
X162572000Y-97521798D01*
X163072000Y-97127247D02*
X163072000Y-97484260D01*
X163072000Y-97484260D02*
X161313512Y-99242748D01*
X161313512Y-99242748D02*
X160736588Y-99242748D01*
X166072000Y-97127247D02*
X166072000Y-97678000D01*
X166072000Y-97678000D02*
X165700000Y-98050000D01*
X165844990Y-89642924D02*
X166072000Y-89869934D01*
X164784322Y-89642924D02*
X165844990Y-89642924D01*
X163600000Y-88458602D02*
X164784322Y-89642924D01*
X166072000Y-89869934D02*
X166072000Y-90324752D01*
X163600000Y-86250000D02*
X163600000Y-88458602D01*
X164450000Y-85400000D02*
X163600000Y-86250000D01*
X166500000Y-87950000D02*
X166150000Y-87600000D01*
X166500000Y-90752752D02*
X166500000Y-87950000D01*
X166723248Y-90976000D02*
X166500000Y-90752752D01*
X131919001Y-89535000D02*
X131940000Y-89555999D01*
X131769000Y-95885000D02*
X131940000Y-96056000D01*
X138811000Y-89194000D02*
X138795000Y-89210000D01*
X170067000Y-91059000D02*
X170053000Y-91045000D01*
X162572000Y-92976000D02*
X162572000Y-92976000D01*
X162572000Y-90324752D02*
X162572000Y-92976000D01*
X165072000Y-91976000D02*
X163322000Y-93726000D01*
X166723248Y-91976000D02*
X165072000Y-91976000D01*
D30*
X138795000Y-89210000D02*
X138795000Y-87392000D01*
X138795000Y-87392000D02*
X139446000Y-86741000D01*
D29*
X143461500Y-86741000D02*
X143510000Y-86789500D01*
D30*
X140208000Y-86741000D02*
X141097000Y-86741000D01*
X139446000Y-86741000D02*
X140208000Y-86741000D01*
D29*
X136822000Y-93599000D02*
X135636000Y-93599000D01*
X162572000Y-92976000D02*
X163322000Y-93726000D01*
X131375000Y-96621000D02*
X131375000Y-97026000D01*
D30*
X131940000Y-96056000D02*
X131375000Y-96621000D01*
X131375000Y-88791000D02*
X131940000Y-89356000D01*
D29*
X131375000Y-88386000D02*
X131375000Y-88791000D01*
X130289000Y-87300000D02*
X131375000Y-88386000D01*
X128665000Y-87136000D02*
X128829000Y-87300000D01*
X128829000Y-87300000D02*
X130289000Y-87300000D01*
X128665000Y-86487000D02*
X128665000Y-87136000D01*
X134000000Y-98587500D02*
X134101900Y-98587500D01*
X132438500Y-97026000D02*
X134000000Y-98587500D01*
X131375000Y-97026000D02*
X132438500Y-97026000D01*
X145625000Y-99800000D02*
X145650000Y-99775000D01*
X144300000Y-99800000D02*
X145625000Y-99800000D01*
X139622600Y-97900000D02*
X139648180Y-97925580D01*
X137700000Y-97900000D02*
X139622600Y-97900000D01*
X135777400Y-97900000D02*
X135751820Y-97925580D01*
X137700000Y-97900000D02*
X135777400Y-97900000D01*
X170053000Y-90957500D02*
X170053000Y-90597000D01*
X171000000Y-89350000D02*
X170900000Y-89450000D01*
X172450000Y-89350000D02*
X171000000Y-89350000D01*
X166150000Y-84300000D02*
X166150000Y-85400000D01*
X169475000Y-98850000D02*
X170750000Y-98850000D01*
X170750000Y-98850000D02*
X170900000Y-99000000D01*
X170600000Y-100300000D02*
X170900000Y-100000000D01*
X169487500Y-100300000D02*
X170600000Y-100300000D01*
X164450000Y-87600000D02*
X164450000Y-88447990D01*
D31*
X152836000Y-87900000D02*
X152816000Y-87880000D01*
X153850000Y-87900000D02*
X152836000Y-87900000D01*
D30*
X138795000Y-86905000D02*
X139450000Y-86250000D01*
X138795000Y-89210000D02*
X138795000Y-86905000D01*
D31*
X144287500Y-86687500D02*
X144750000Y-87150000D01*
X143510000Y-86687500D02*
X144287500Y-86687500D01*
X144349000Y-87551000D02*
X144750000Y-87150000D01*
X144349000Y-88466000D02*
X144349000Y-87551000D01*
X140309500Y-89959500D02*
X140300000Y-89950000D01*
X140309500Y-90750000D02*
X140309500Y-89959500D01*
D29*
X135400000Y-91387500D02*
X135387500Y-91400000D01*
X135400000Y-90600000D02*
X135400000Y-91387500D01*
D31*
X145787500Y-87150000D02*
X147100000Y-88462500D01*
X144750000Y-87150000D02*
X145787500Y-87150000D01*
X156987500Y-85250000D02*
X156737500Y-85000000D01*
X157550000Y-85250000D02*
X156987500Y-85250000D01*
X157862500Y-85250000D02*
X158350000Y-84762500D01*
X157550000Y-85250000D02*
X157862500Y-85250000D01*
X153937504Y-85800004D02*
X153137500Y-85000000D01*
X157087500Y-88337500D02*
X157450000Y-88700000D01*
X156700000Y-88337500D02*
X157087500Y-88337500D01*
X158050000Y-88100000D02*
X157450000Y-88700000D01*
X158262500Y-88100000D02*
X158050000Y-88100000D01*
X151607000Y-99685500D02*
X151814506Y-99685500D01*
X153100000Y-99685500D02*
X152885500Y-99685500D01*
X152914500Y-99685500D02*
X152350000Y-100250000D01*
X153100000Y-99685500D02*
X152914500Y-99685500D01*
X151785500Y-99685500D02*
X152350000Y-100250000D01*
X151607000Y-99685500D02*
X151785500Y-99685500D01*
X155200000Y-98550000D02*
X154600000Y-97950000D01*
X155200000Y-98950000D02*
X155200000Y-98550000D01*
X155200000Y-99012500D02*
X154562500Y-99650000D01*
X155200000Y-98950000D02*
X155200000Y-99012500D01*
D29*
X153414500Y-98185500D02*
X153400000Y-98200000D01*
X153385500Y-98185500D02*
X153400000Y-98200000D01*
X168402000Y-89295000D02*
X168402000Y-89281000D01*
X160572000Y-97127247D02*
X160572000Y-97478000D01*
X166723248Y-92976000D02*
X166723248Y-93023248D01*
X167152566Y-92976000D02*
X166723248Y-92976000D01*
X143475000Y-98025000D02*
X143500000Y-98000000D01*
X142150000Y-98025000D02*
X143475000Y-98025000D01*
X163072000Y-89894744D02*
X162777256Y-89600000D01*
X163072000Y-90324752D02*
X163072000Y-89894744D01*
X162072000Y-90324752D02*
X162072000Y-89672000D01*
X162072000Y-89672000D02*
X162000000Y-89600000D01*
X162777256Y-89600000D02*
X162000000Y-89600000D01*
X161572000Y-89672000D02*
X161500000Y-89600000D01*
X161572000Y-90324752D02*
X161572000Y-89672000D01*
X162000000Y-89600000D02*
X161500000Y-89600000D01*
X167497990Y-90014510D02*
X168200000Y-89312500D01*
X167497990Y-91156076D02*
X167497990Y-90014510D01*
X167178066Y-91476000D02*
X167497990Y-91156076D01*
X166723248Y-91476000D02*
X167178066Y-91476000D01*
X172397999Y-88402001D02*
X172450000Y-88350000D01*
X170172999Y-88402001D02*
X172397999Y-88402001D01*
X169700000Y-88875000D02*
X170172999Y-88402001D01*
X169700000Y-89312500D02*
X169700000Y-88875000D01*
X168012500Y-85062500D02*
X168500000Y-85550000D01*
X168012500Y-84800000D02*
X168012500Y-85062500D01*
X168012500Y-86037500D02*
X168500000Y-85550000D01*
X168012500Y-86300000D02*
X168012500Y-86037500D01*
X168012500Y-86562500D02*
X168500000Y-87050000D01*
X168012500Y-86300000D02*
X168012500Y-86562500D01*
X168500000Y-87312500D02*
X168012500Y-87800000D01*
X168500000Y-87050000D02*
X168500000Y-87312500D01*
X168437500Y-89312500D02*
X168950000Y-88800000D01*
X168200000Y-89312500D02*
X168437500Y-89312500D01*
X169462500Y-89312500D02*
X168950000Y-88800000D01*
X169700000Y-89312500D02*
X169462500Y-89312500D01*
X167275996Y-92976000D02*
X168999996Y-94700000D01*
X168999996Y-94650108D02*
X168999996Y-94700000D01*
X166723248Y-92976000D02*
X167275996Y-92976000D01*
X161500000Y-89600000D02*
X161400000Y-89600000D01*
X161400000Y-89600000D02*
X161250000Y-89600000D01*
X161072000Y-89778000D02*
X161072000Y-90324752D01*
X161250000Y-89600000D02*
X161072000Y-89778000D01*
X164962500Y-100300000D02*
X165202010Y-100300000D01*
X165202010Y-100300000D02*
X165750000Y-99752010D01*
X161250000Y-88650006D02*
X161249994Y-88650000D01*
D31*
X161250000Y-89600000D02*
X161250000Y-88650006D01*
X160699994Y-88100000D02*
X161249994Y-88650000D01*
X160137500Y-88100000D02*
X160699994Y-88100000D01*
X155000000Y-86946000D02*
X155016000Y-86930000D01*
X155000000Y-87800000D02*
X155000000Y-86946000D01*
X156532500Y-86930000D02*
X156700000Y-86762500D01*
X155016000Y-86930000D02*
X156532500Y-86930000D01*
X157125000Y-86337500D02*
X156700000Y-86762500D01*
X158350000Y-86337500D02*
X157125000Y-86337500D01*
X155016000Y-85153500D02*
X154862500Y-85000000D01*
X155016000Y-86930000D02*
X155016000Y-85153500D01*
X153139500Y-98150000D02*
X153100000Y-98110500D01*
X153100000Y-98110500D02*
X152939504Y-98110500D01*
X151607000Y-98110500D02*
X151760496Y-98110500D01*
X152939504Y-98110500D02*
X152350000Y-98700004D01*
X151760496Y-98110500D02*
X152350000Y-98700004D01*
X159774000Y-96476000D02*
X159000000Y-97250000D01*
X159920753Y-96476000D02*
X159774000Y-96476000D01*
X159122753Y-97127247D02*
X159000000Y-97250000D01*
X160572000Y-97127247D02*
X159122753Y-97127247D01*
X159000000Y-97250000D02*
X158200000Y-97250000D01*
X157500000Y-97950000D02*
X156475000Y-97950000D01*
X158200000Y-97250000D02*
X157500000Y-97950000D01*
X156475000Y-97574998D02*
X155800000Y-96899998D01*
X156475000Y-97950000D02*
X156475000Y-97574998D01*
D29*
X159722000Y-92500000D02*
X159100000Y-92500000D01*
X159746000Y-92476000D02*
X159722000Y-92500000D01*
X159920753Y-92476000D02*
X159746000Y-92476000D01*
D34*
X169412000Y-92475000D02*
X171225000Y-92475000D01*
D35*
X176100000Y-94450000D02*
X176100000Y-92450000D01*
X176100000Y-92450000D02*
X171400000Y-92450000D01*
D29*
X166724248Y-92475000D02*
X166723248Y-92476000D01*
X168237000Y-92476000D02*
X168238000Y-92475000D01*
D34*
X166723248Y-92476000D02*
X168237000Y-92476000D01*
D36*
X169061500Y-92761500D02*
X168588500Y-92761500D01*
X168588500Y-92188500D01*
X169061500Y-92188500D01*
X169061500Y-92761500D01*
G04 #@! TA.AperFunction,Conductor*
D37*
G36*
X169061500Y-92761500D02*
G01*
X168588500Y-92761500D01*
X168588500Y-92188500D01*
X169061500Y-92188500D01*
X169061500Y-92761500D01*
G37*
G04 #@! TD.AperFunction*
D36*
X171086500Y-92136500D02*
X169690000Y-92136500D01*
X169677612Y-92137720D01*
X169677299Y-92137815D01*
X169601184Y-92137815D01*
X169599344Y-92137257D01*
X169562000Y-92133579D01*
X169262000Y-92133579D01*
X169224656Y-92137257D01*
X169188746Y-92148150D01*
X169155652Y-92165839D01*
X169126645Y-92189645D01*
X169102839Y-92218652D01*
X169085150Y-92251746D01*
X169074257Y-92287656D01*
X169070579Y-92325000D01*
X169070579Y-92625000D01*
X169074257Y-92662344D01*
X169085150Y-92698254D01*
X169102839Y-92731348D01*
X169126645Y-92760355D01*
X169155652Y-92784161D01*
X169188746Y-92801850D01*
X169224656Y-92812743D01*
X169262000Y-92816421D01*
X169562000Y-92816421D01*
X169599344Y-92812743D01*
X169601184Y-92812185D01*
X169687653Y-92812185D01*
X169688746Y-92812495D01*
X169700000Y-92813500D01*
X171086500Y-92813500D01*
X171086500Y-101894337D01*
X170957138Y-101947920D01*
X170786720Y-102061791D01*
X170768359Y-102080152D01*
X170750327Y-102089790D01*
X170706092Y-102126092D01*
X170669790Y-102170327D01*
X170660152Y-102188359D01*
X170641791Y-102206720D01*
X170527920Y-102377138D01*
X170449485Y-102566497D01*
X170409500Y-102767520D01*
X170409500Y-102972480D01*
X170449485Y-103173503D01*
X170527920Y-103362862D01*
X170641791Y-103533280D01*
X170786720Y-103678209D01*
X170957138Y-103792080D01*
X171086500Y-103845663D01*
X171086500Y-103874500D01*
X169193469Y-103874500D01*
X169213503Y-103870515D01*
X169402862Y-103792080D01*
X169573280Y-103678209D01*
X169718209Y-103533280D01*
X169832080Y-103362862D01*
X169910515Y-103173503D01*
X169950500Y-102972480D01*
X169950500Y-102767520D01*
X169910515Y-102566497D01*
X169832080Y-102377138D01*
X169718209Y-102206720D01*
X169573280Y-102061791D01*
X169402862Y-101947920D01*
X169213503Y-101869485D01*
X169012480Y-101829500D01*
X168963500Y-101829500D01*
X168963500Y-98003864D01*
X168968211Y-97996813D01*
X168999532Y-97921197D01*
X169015500Y-97840923D01*
X169015500Y-97759077D01*
X168999532Y-97678803D01*
X168968211Y-97603187D01*
X168963500Y-97596136D01*
X168963500Y-96781429D01*
X169029941Y-96794645D01*
X169111787Y-96794645D01*
X169192061Y-96778677D01*
X169267677Y-96747356D01*
X169335730Y-96701885D01*
X169393604Y-96644011D01*
X169439075Y-96575958D01*
X169470396Y-96500342D01*
X169486364Y-96420068D01*
X169486364Y-96338222D01*
X169470396Y-96257948D01*
X169439075Y-96182332D01*
X169393604Y-96114279D01*
X169335730Y-96056405D01*
X169295727Y-96029676D01*
X169363364Y-96001660D01*
X169431417Y-95956189D01*
X169489291Y-95898315D01*
X169534762Y-95830262D01*
X169566083Y-95754646D01*
X169582051Y-95674372D01*
X169582051Y-95592526D01*
X169566083Y-95512252D01*
X169534762Y-95436636D01*
X169489291Y-95368583D01*
X169431417Y-95310709D01*
X169363364Y-95265238D01*
X169287748Y-95233917D01*
X169272811Y-95230946D01*
X169135479Y-95093614D01*
X169196809Y-95068211D01*
X169264862Y-95022740D01*
X169322736Y-94964866D01*
X169368207Y-94896813D01*
X169399528Y-94821197D01*
X169415496Y-94740923D01*
X169415496Y-94659077D01*
X169399528Y-94578803D01*
X169368207Y-94503187D01*
X169322736Y-94435134D01*
X169264862Y-94377260D01*
X169196809Y-94331789D01*
X169121193Y-94300468D01*
X169040919Y-94284500D01*
X168995325Y-94284500D01*
X167524009Y-92813185D01*
X168055144Y-92813185D01*
X168088000Y-92816421D01*
X168388000Y-92816421D01*
X168425344Y-92812743D01*
X168461254Y-92801850D01*
X168494348Y-92784161D01*
X168523355Y-92760355D01*
X168547161Y-92731348D01*
X168564850Y-92698254D01*
X168575743Y-92662344D01*
X168579421Y-92625000D01*
X168579421Y-92325000D01*
X168575743Y-92287656D01*
X168564850Y-92251746D01*
X168547161Y-92218652D01*
X168523355Y-92189645D01*
X168494348Y-92165839D01*
X168461254Y-92148150D01*
X168425344Y-92137257D01*
X168388000Y-92133579D01*
X168088000Y-92133579D01*
X168050656Y-92137257D01*
X168045520Y-92138815D01*
X166788500Y-92138815D01*
X166788500Y-91793065D01*
X166791228Y-91788659D01*
X167056829Y-91788659D01*
X167117826Y-91782651D01*
X167169289Y-91767040D01*
X167178066Y-91767904D01*
X167192323Y-91766500D01*
X167192331Y-91766500D01*
X167235014Y-91762296D01*
X167289773Y-91745685D01*
X167340240Y-91718710D01*
X167384474Y-91682408D01*
X167393572Y-91671322D01*
X167693318Y-91371577D01*
X167704398Y-91362484D01*
X167740700Y-91318250D01*
X167767675Y-91267783D01*
X167784286Y-91213024D01*
X167788490Y-91170341D01*
X167788490Y-91170340D01*
X167789895Y-91156076D01*
X167788490Y-91141811D01*
X167788490Y-90186954D01*
X167934413Y-89988915D01*
X167981907Y-89941421D01*
X168456250Y-89941421D01*
X168536270Y-89933540D01*
X168613216Y-89910199D01*
X168684129Y-89872295D01*
X168746285Y-89821285D01*
X168797295Y-89759129D01*
X168835199Y-89688216D01*
X168858540Y-89611270D01*
X168866421Y-89531250D01*
X168866421Y-89294407D01*
X168945329Y-89215500D01*
X168954672Y-89215500D01*
X169033579Y-89294408D01*
X169033579Y-89531250D01*
X169041460Y-89611270D01*
X169064801Y-89688216D01*
X169102705Y-89759129D01*
X169153715Y-89821285D01*
X169215871Y-89872295D01*
X169286784Y-89910199D01*
X169363730Y-89933540D01*
X169443750Y-89941421D01*
X169956250Y-89941421D01*
X170036270Y-89933540D01*
X170113216Y-89910199D01*
X170184129Y-89872295D01*
X170246285Y-89821285D01*
X170297295Y-89759129D01*
X170335199Y-89688216D01*
X170358540Y-89611270D01*
X170366421Y-89531250D01*
X170366421Y-89093750D01*
X170358540Y-89013730D01*
X170335199Y-88936784D01*
X170297295Y-88865871D01*
X170246285Y-88803715D01*
X170211039Y-88774790D01*
X170293328Y-88692501D01*
X171086500Y-88692501D01*
X171086500Y-92136500D01*
G04 #@! TA.AperFunction,Conductor*
D37*
G36*
X171086500Y-92136500D02*
G01*
X169690000Y-92136500D01*
X169677612Y-92137720D01*
X169677299Y-92137815D01*
X169601184Y-92137815D01*
X169599344Y-92137257D01*
X169562000Y-92133579D01*
X169262000Y-92133579D01*
X169224656Y-92137257D01*
X169188746Y-92148150D01*
X169155652Y-92165839D01*
X169126645Y-92189645D01*
X169102839Y-92218652D01*
X169085150Y-92251746D01*
X169074257Y-92287656D01*
X169070579Y-92325000D01*
X169070579Y-92625000D01*
X169074257Y-92662344D01*
X169085150Y-92698254D01*
X169102839Y-92731348D01*
X169126645Y-92760355D01*
X169155652Y-92784161D01*
X169188746Y-92801850D01*
X169224656Y-92812743D01*
X169262000Y-92816421D01*
X169562000Y-92816421D01*
X169599344Y-92812743D01*
X169601184Y-92812185D01*
X169687653Y-92812185D01*
X169688746Y-92812495D01*
X169700000Y-92813500D01*
X171086500Y-92813500D01*
X171086500Y-101894337D01*
X170957138Y-101947920D01*
X170786720Y-102061791D01*
X170768359Y-102080152D01*
X170750327Y-102089790D01*
X170706092Y-102126092D01*
X170669790Y-102170327D01*
X170660152Y-102188359D01*
X170641791Y-102206720D01*
X170527920Y-102377138D01*
X170449485Y-102566497D01*
X170409500Y-102767520D01*
X170409500Y-102972480D01*
X170449485Y-103173503D01*
X170527920Y-103362862D01*
X170641791Y-103533280D01*
X170786720Y-103678209D01*
X170957138Y-103792080D01*
X171086500Y-103845663D01*
X171086500Y-103874500D01*
X169193469Y-103874500D01*
X169213503Y-103870515D01*
X169402862Y-103792080D01*
X169573280Y-103678209D01*
X169718209Y-103533280D01*
X169832080Y-103362862D01*
X169910515Y-103173503D01*
X169950500Y-102972480D01*
X169950500Y-102767520D01*
X169910515Y-102566497D01*
X169832080Y-102377138D01*
X169718209Y-102206720D01*
X169573280Y-102061791D01*
X169402862Y-101947920D01*
X169213503Y-101869485D01*
X169012480Y-101829500D01*
X168963500Y-101829500D01*
X168963500Y-98003864D01*
X168968211Y-97996813D01*
X168999532Y-97921197D01*
X169015500Y-97840923D01*
X169015500Y-97759077D01*
X168999532Y-97678803D01*
X168968211Y-97603187D01*
X168963500Y-97596136D01*
X168963500Y-96781429D01*
X169029941Y-96794645D01*
X169111787Y-96794645D01*
X169192061Y-96778677D01*
X169267677Y-96747356D01*
X169335730Y-96701885D01*
X169393604Y-96644011D01*
X169439075Y-96575958D01*
X169470396Y-96500342D01*
X169486364Y-96420068D01*
X169486364Y-96338222D01*
X169470396Y-96257948D01*
X169439075Y-96182332D01*
X169393604Y-96114279D01*
X169335730Y-96056405D01*
X169295727Y-96029676D01*
X169363364Y-96001660D01*
X169431417Y-95956189D01*
X169489291Y-95898315D01*
X169534762Y-95830262D01*
X169566083Y-95754646D01*
X169582051Y-95674372D01*
X169582051Y-95592526D01*
X169566083Y-95512252D01*
X169534762Y-95436636D01*
X169489291Y-95368583D01*
X169431417Y-95310709D01*
X169363364Y-95265238D01*
X169287748Y-95233917D01*
X169272811Y-95230946D01*
X169135479Y-95093614D01*
X169196809Y-95068211D01*
X169264862Y-95022740D01*
X169322736Y-94964866D01*
X169368207Y-94896813D01*
X169399528Y-94821197D01*
X169415496Y-94740923D01*
X169415496Y-94659077D01*
X169399528Y-94578803D01*
X169368207Y-94503187D01*
X169322736Y-94435134D01*
X169264862Y-94377260D01*
X169196809Y-94331789D01*
X169121193Y-94300468D01*
X169040919Y-94284500D01*
X168995325Y-94284500D01*
X167524009Y-92813185D01*
X168055144Y-92813185D01*
X168088000Y-92816421D01*
X168388000Y-92816421D01*
X168425344Y-92812743D01*
X168461254Y-92801850D01*
X168494348Y-92784161D01*
X168523355Y-92760355D01*
X168547161Y-92731348D01*
X168564850Y-92698254D01*
X168575743Y-92662344D01*
X168579421Y-92625000D01*
X168579421Y-92325000D01*
X168575743Y-92287656D01*
X168564850Y-92251746D01*
X168547161Y-92218652D01*
X168523355Y-92189645D01*
X168494348Y-92165839D01*
X168461254Y-92148150D01*
X168425344Y-92137257D01*
X168388000Y-92133579D01*
X168088000Y-92133579D01*
X168050656Y-92137257D01*
X168045520Y-92138815D01*
X166788500Y-92138815D01*
X166788500Y-91793065D01*
X166791228Y-91788659D01*
X167056829Y-91788659D01*
X167117826Y-91782651D01*
X167169289Y-91767040D01*
X167178066Y-91767904D01*
X167192323Y-91766500D01*
X167192331Y-91766500D01*
X167235014Y-91762296D01*
X167289773Y-91745685D01*
X167340240Y-91718710D01*
X167384474Y-91682408D01*
X167393572Y-91671322D01*
X167693318Y-91371577D01*
X167704398Y-91362484D01*
X167740700Y-91318250D01*
X167767675Y-91267783D01*
X167784286Y-91213024D01*
X167788490Y-91170341D01*
X167788490Y-91170340D01*
X167789895Y-91156076D01*
X167788490Y-91141811D01*
X167788490Y-90186954D01*
X167934413Y-89988915D01*
X167981907Y-89941421D01*
X168456250Y-89941421D01*
X168536270Y-89933540D01*
X168613216Y-89910199D01*
X168684129Y-89872295D01*
X168746285Y-89821285D01*
X168797295Y-89759129D01*
X168835199Y-89688216D01*
X168858540Y-89611270D01*
X168866421Y-89531250D01*
X168866421Y-89294407D01*
X168945329Y-89215500D01*
X168954672Y-89215500D01*
X169033579Y-89294408D01*
X169033579Y-89531250D01*
X169041460Y-89611270D01*
X169064801Y-89688216D01*
X169102705Y-89759129D01*
X169153715Y-89821285D01*
X169215871Y-89872295D01*
X169286784Y-89910199D01*
X169363730Y-89933540D01*
X169443750Y-89941421D01*
X169956250Y-89941421D01*
X170036270Y-89933540D01*
X170113216Y-89910199D01*
X170184129Y-89872295D01*
X170246285Y-89821285D01*
X170297295Y-89759129D01*
X170335199Y-89688216D01*
X170358540Y-89611270D01*
X170366421Y-89531250D01*
X170366421Y-89093750D01*
X170358540Y-89013730D01*
X170335199Y-88936784D01*
X170297295Y-88865871D01*
X170246285Y-88803715D01*
X170211039Y-88774790D01*
X170293328Y-88692501D01*
X171086500Y-88692501D01*
X171086500Y-92136500D01*
G37*
G04 #@! TD.AperFunction*
D36*
X170203189Y-86668211D02*
X170278805Y-86699532D01*
X170359079Y-86715500D01*
X170404674Y-86715500D01*
X171086500Y-87397327D01*
X171086500Y-88111501D01*
X170187264Y-88111501D01*
X170172999Y-88110096D01*
X170116051Y-88115705D01*
X170061291Y-88132316D01*
X170016219Y-88156408D01*
X170010825Y-88159291D01*
X169966591Y-88195593D01*
X169957497Y-88206674D01*
X169504674Y-88659498D01*
X169493593Y-88668592D01*
X169484499Y-88679673D01*
X169481293Y-88683579D01*
X169443750Y-88683579D01*
X169363730Y-88691460D01*
X169352714Y-88694802D01*
X169349532Y-88678803D01*
X169318211Y-88603187D01*
X169272740Y-88535134D01*
X169214866Y-88477260D01*
X169146813Y-88431789D01*
X169096979Y-88411147D01*
X169151121Y-88337668D01*
X169157487Y-88326971D01*
X169161645Y-88315238D01*
X169163500Y-88300000D01*
X169163500Y-86909391D01*
X169211784Y-86935199D01*
X169288730Y-86958540D01*
X169368750Y-86966421D01*
X169806250Y-86966421D01*
X169886270Y-86958540D01*
X169963216Y-86935199D01*
X170034129Y-86897295D01*
X170096285Y-86846285D01*
X170147295Y-86784129D01*
X170185199Y-86713216D01*
X170199582Y-86665801D01*
X170203189Y-86668211D01*
G04 #@! TA.AperFunction,Conductor*
D37*
G36*
X170203189Y-86668211D02*
G01*
X170278805Y-86699532D01*
X170359079Y-86715500D01*
X170404674Y-86715500D01*
X171086500Y-87397327D01*
X171086500Y-88111501D01*
X170187264Y-88111501D01*
X170172999Y-88110096D01*
X170116051Y-88115705D01*
X170061291Y-88132316D01*
X170016219Y-88156408D01*
X170010825Y-88159291D01*
X169966591Y-88195593D01*
X169957497Y-88206674D01*
X169504674Y-88659498D01*
X169493593Y-88668592D01*
X169484499Y-88679673D01*
X169481293Y-88683579D01*
X169443750Y-88683579D01*
X169363730Y-88691460D01*
X169352714Y-88694802D01*
X169349532Y-88678803D01*
X169318211Y-88603187D01*
X169272740Y-88535134D01*
X169214866Y-88477260D01*
X169146813Y-88431789D01*
X169096979Y-88411147D01*
X169151121Y-88337668D01*
X169157487Y-88326971D01*
X169161645Y-88315238D01*
X169163500Y-88300000D01*
X169163500Y-86909391D01*
X169211784Y-86935199D01*
X169288730Y-86958540D01*
X169368750Y-86966421D01*
X169806250Y-86966421D01*
X169886270Y-86958540D01*
X169963216Y-86935199D01*
X170034129Y-86897295D01*
X170096285Y-86846285D01*
X170147295Y-86784129D01*
X170185199Y-86713216D01*
X170199582Y-86665801D01*
X170203189Y-86668211D01*
G37*
G04 #@! TD.AperFunction*
D36*
X171086500Y-81574337D02*
X170957138Y-81627920D01*
X170786720Y-81741791D01*
X170641791Y-81886720D01*
X170527920Y-82057138D01*
X170449485Y-82246497D01*
X170409500Y-82447520D01*
X170409500Y-82652480D01*
X170449485Y-82853503D01*
X170527920Y-83042862D01*
X170641791Y-83213280D01*
X170786720Y-83358209D01*
X170957138Y-83472080D01*
X171086500Y-83525663D01*
X171086500Y-85875671D01*
X170216421Y-85005593D01*
X170216421Y-84543750D01*
X170208540Y-84463730D01*
X170185199Y-84386784D01*
X170147295Y-84315871D01*
X170096285Y-84253715D01*
X170034129Y-84202705D01*
X169963216Y-84164801D01*
X169886270Y-84141460D01*
X169806250Y-84133579D01*
X169368750Y-84133579D01*
X169335211Y-84136882D01*
X169200500Y-84002172D01*
X169200500Y-83553101D01*
X169213503Y-83550515D01*
X169402862Y-83472080D01*
X169573280Y-83358209D01*
X169718209Y-83213280D01*
X169832080Y-83042862D01*
X169910515Y-82853503D01*
X169950500Y-82652480D01*
X169950500Y-82447520D01*
X169910515Y-82246497D01*
X169832080Y-82057138D01*
X169718209Y-81886720D01*
X169573280Y-81741791D01*
X169402862Y-81627920D01*
X169213503Y-81549485D01*
X169193469Y-81545500D01*
X171086500Y-81545500D01*
X171086500Y-81574337D01*
G04 #@! TA.AperFunction,Conductor*
D37*
G36*
X171086500Y-81574337D02*
G01*
X170957138Y-81627920D01*
X170786720Y-81741791D01*
X170641791Y-81886720D01*
X170527920Y-82057138D01*
X170449485Y-82246497D01*
X170409500Y-82447520D01*
X170409500Y-82652480D01*
X170449485Y-82853503D01*
X170527920Y-83042862D01*
X170641791Y-83213280D01*
X170786720Y-83358209D01*
X170957138Y-83472080D01*
X171086500Y-83525663D01*
X171086500Y-85875671D01*
X170216421Y-85005593D01*
X170216421Y-84543750D01*
X170208540Y-84463730D01*
X170185199Y-84386784D01*
X170147295Y-84315871D01*
X170096285Y-84253715D01*
X170034129Y-84202705D01*
X169963216Y-84164801D01*
X169886270Y-84141460D01*
X169806250Y-84133579D01*
X169368750Y-84133579D01*
X169335211Y-84136882D01*
X169200500Y-84002172D01*
X169200500Y-83553101D01*
X169213503Y-83550515D01*
X169402862Y-83472080D01*
X169573280Y-83358209D01*
X169718209Y-83213280D01*
X169832080Y-83042862D01*
X169910515Y-82853503D01*
X169950500Y-82652480D01*
X169950500Y-82447520D01*
X169910515Y-82246497D01*
X169832080Y-82057138D01*
X169718209Y-81886720D01*
X169573280Y-81741791D01*
X169402862Y-81627920D01*
X169213503Y-81549485D01*
X169193469Y-81545500D01*
X171086500Y-81545500D01*
X171086500Y-81574337D01*
G37*
G04 #@! TD.AperFunction*
M02*
