G04 #@! TF.GenerationSoftware,KiCad,Pcbnew,(5.1.7-0-10_14)*
G04 #@! TF.CreationDate,2020-10-24T15:10:09+08:00*
G04 #@! TF.ProjectId,Feather_STM32WB55,46656174-6865-4725-9f53-544d33325742,rev?*
G04 #@! TF.SameCoordinates,Original*
G04 #@! TF.FileFunction,Paste,Top*
G04 #@! TF.FilePolarity,Positive*
%FSLAX46Y46*%
G04 Gerber Fmt 4.6, Leading zero omitted, Abs format (unit mm)*
G04 Created by KiCad (PCBNEW (5.1.7-0-10_14)) date 2020-10-24 15:10:09*
%MOMM*%
%LPD*%
G01*
G04 APERTURE LIST*
%ADD10C,0.100000*%
%ADD11R,2.600000X1.500000*%
%ADD12R,1.150000X0.300000*%
%ADD13R,0.300000X0.300000*%
%ADD14R,1.600000X0.850000*%
%ADD15R,0.242474X0.909637*%
%ADD16R,1.297940X1.148080*%
%ADD17R,1.200000X1.400000*%
%ADD18R,1.200000X0.900000*%
%ADD19R,0.900000X0.800000*%
%ADD20R,0.650000X1.060000*%
%ADD21R,1.060000X0.650000*%
G04 APERTURE END LIST*
D10*
G36*
X163671166Y-93376834D02*
G01*
X163671166Y-91574336D01*
X165473664Y-91574336D01*
X165473664Y-93376834D01*
X163671166Y-93376834D01*
G37*
G36*
X163671166Y-95877666D02*
G01*
X163671166Y-94075168D01*
X165473664Y-94075168D01*
X165473664Y-95877666D01*
X163671166Y-95877666D01*
G37*
G36*
X161170334Y-93376834D02*
G01*
X161170334Y-91574336D01*
X162972832Y-91574336D01*
X162972832Y-93376834D01*
X161170334Y-93376834D01*
G37*
G36*
X161170334Y-95877666D02*
G01*
X161170334Y-94075168D01*
X162972832Y-94075168D01*
X162972832Y-95877666D01*
X161170334Y-95877666D01*
G37*
G36*
G01*
X167575000Y-86556250D02*
X167575000Y-86043750D01*
G75*
G02*
X167793750Y-85825000I218750J0D01*
G01*
X168231250Y-85825000D01*
G75*
G02*
X168450000Y-86043750I0J-218750D01*
G01*
X168450000Y-86556250D01*
G75*
G02*
X168231250Y-86775000I-218750J0D01*
G01*
X167793750Y-86775000D01*
G75*
G02*
X167575000Y-86556250I0J218750D01*
G01*
G37*
G36*
G01*
X169150000Y-86556250D02*
X169150000Y-86043750D01*
G75*
G02*
X169368750Y-85825000I218750J0D01*
G01*
X169806250Y-85825000D01*
G75*
G02*
X170025000Y-86043750I0J-218750D01*
G01*
X170025000Y-86556250D01*
G75*
G02*
X169806250Y-86775000I-218750J0D01*
G01*
X169368750Y-86775000D01*
G75*
G02*
X169150000Y-86556250I0J218750D01*
G01*
G37*
D11*
X176100000Y-94450000D03*
X176100000Y-99550000D03*
D12*
X131940000Y-96056000D03*
X131940000Y-95256000D03*
X131940000Y-90456000D03*
X131940000Y-89656000D03*
X131940000Y-89356000D03*
X131940000Y-90156000D03*
X131940000Y-90956000D03*
X131940000Y-91456000D03*
X131940000Y-91956000D03*
X131940000Y-92456000D03*
X131940000Y-92956000D03*
X131940000Y-93456000D03*
X131940000Y-93956000D03*
X131940000Y-94456000D03*
X131940000Y-94956000D03*
X131940000Y-95756000D03*
D13*
X169412000Y-92475000D03*
X168825000Y-92475000D03*
X168238000Y-92475000D03*
X168238000Y-92975000D03*
X168825000Y-92975000D03*
X169412000Y-92975000D03*
G36*
G01*
X165400000Y-100043750D02*
X165400000Y-100556250D01*
G75*
G02*
X165181250Y-100775000I-218750J0D01*
G01*
X164743750Y-100775000D01*
G75*
G02*
X164525000Y-100556250I0J218750D01*
G01*
X164525000Y-100043750D01*
G75*
G02*
X164743750Y-99825000I218750J0D01*
G01*
X165181250Y-99825000D01*
G75*
G02*
X165400000Y-100043750I0J-218750D01*
G01*
G37*
G36*
G01*
X166975000Y-100043750D02*
X166975000Y-100556250D01*
G75*
G02*
X166756250Y-100775000I-218750J0D01*
G01*
X166318750Y-100775000D01*
G75*
G02*
X166100000Y-100556250I0J218750D01*
G01*
X166100000Y-100043750D01*
G75*
G02*
X166318750Y-99825000I218750J0D01*
G01*
X166756250Y-99825000D01*
G75*
G02*
X166975000Y-100043750I0J-218750D01*
G01*
G37*
G36*
G01*
X129890000Y-86743250D02*
X129890000Y-86230750D01*
G75*
G02*
X130108750Y-86012000I218750J0D01*
G01*
X130546250Y-86012000D01*
G75*
G02*
X130765000Y-86230750I0J-218750D01*
G01*
X130765000Y-86743250D01*
G75*
G02*
X130546250Y-86962000I-218750J0D01*
G01*
X130108750Y-86962000D01*
G75*
G02*
X129890000Y-86743250I0J218750D01*
G01*
G37*
G36*
G01*
X128315000Y-86743250D02*
X128315000Y-86230750D01*
G75*
G02*
X128533750Y-86012000I218750J0D01*
G01*
X128971250Y-86012000D01*
G75*
G02*
X129190000Y-86230750I0J-218750D01*
G01*
X129190000Y-86743250D01*
G75*
G02*
X128971250Y-86962000I-218750J0D01*
G01*
X128533750Y-86962000D01*
G75*
G02*
X128315000Y-86743250I0J218750D01*
G01*
G37*
G36*
G01*
X129190000Y-98676750D02*
X129190000Y-99189250D01*
G75*
G02*
X128971250Y-99408000I-218750J0D01*
G01*
X128533750Y-99408000D01*
G75*
G02*
X128315000Y-99189250I0J218750D01*
G01*
X128315000Y-98676750D01*
G75*
G02*
X128533750Y-98458000I218750J0D01*
G01*
X128971250Y-98458000D01*
G75*
G02*
X129190000Y-98676750I0J-218750D01*
G01*
G37*
G36*
G01*
X130765000Y-98676750D02*
X130765000Y-99189250D01*
G75*
G02*
X130546250Y-99408000I-218750J0D01*
G01*
X130108750Y-99408000D01*
G75*
G02*
X129890000Y-99189250I0J218750D01*
G01*
X129890000Y-98676750D01*
G75*
G02*
X130108750Y-98458000I218750J0D01*
G01*
X130546250Y-98458000D01*
G75*
G02*
X130765000Y-98676750I0J-218750D01*
G01*
G37*
G36*
G01*
X169025000Y-99100000D02*
X169025000Y-98600000D01*
G75*
G02*
X169250000Y-98375000I225000J0D01*
G01*
X169700000Y-98375000D01*
G75*
G02*
X169925000Y-98600000I0J-225000D01*
G01*
X169925000Y-99100000D01*
G75*
G02*
X169700000Y-99325000I-225000J0D01*
G01*
X169250000Y-99325000D01*
G75*
G02*
X169025000Y-99100000I0J225000D01*
G01*
G37*
G36*
G01*
X167475000Y-99100000D02*
X167475000Y-98600000D01*
G75*
G02*
X167700000Y-98375000I225000J0D01*
G01*
X168150000Y-98375000D01*
G75*
G02*
X168375000Y-98600000I0J-225000D01*
G01*
X168375000Y-99100000D01*
G75*
G02*
X168150000Y-99325000I-225000J0D01*
G01*
X167700000Y-99325000D01*
G75*
G02*
X167475000Y-99100000I0J225000D01*
G01*
G37*
D14*
X142150000Y-98025000D03*
X142150000Y-99775000D03*
X145650000Y-98025000D03*
X145650000Y-99775000D03*
G36*
G01*
X160254334Y-96597237D02*
X159587172Y-96597237D01*
G75*
G02*
X159465935Y-96476000I0J121237D01*
G01*
X159465935Y-96476000D01*
G75*
G02*
X159587172Y-96354763I121237J0D01*
G01*
X160254334Y-96354763D01*
G75*
G02*
X160375571Y-96476000I0J-121237D01*
G01*
X160375571Y-96476000D01*
G75*
G02*
X160254334Y-96597237I-121237J0D01*
G01*
G37*
G36*
G01*
X160254334Y-96097237D02*
X159587172Y-96097237D01*
G75*
G02*
X159465935Y-95976000I0J121237D01*
G01*
X159465935Y-95976000D01*
G75*
G02*
X159587172Y-95854763I121237J0D01*
G01*
X160254334Y-95854763D01*
G75*
G02*
X160375571Y-95976000I0J-121237D01*
G01*
X160375571Y-95976000D01*
G75*
G02*
X160254334Y-96097237I-121237J0D01*
G01*
G37*
G36*
G01*
X160254334Y-95597237D02*
X159587172Y-95597237D01*
G75*
G02*
X159465935Y-95476000I0J121237D01*
G01*
X159465935Y-95476000D01*
G75*
G02*
X159587172Y-95354763I121237J0D01*
G01*
X160254334Y-95354763D01*
G75*
G02*
X160375571Y-95476000I0J-121237D01*
G01*
X160375571Y-95476000D01*
G75*
G02*
X160254334Y-95597237I-121237J0D01*
G01*
G37*
G36*
G01*
X160254334Y-95097237D02*
X159587172Y-95097237D01*
G75*
G02*
X159465935Y-94976000I0J121237D01*
G01*
X159465935Y-94976000D01*
G75*
G02*
X159587172Y-94854763I121237J0D01*
G01*
X160254334Y-94854763D01*
G75*
G02*
X160375571Y-94976000I0J-121237D01*
G01*
X160375571Y-94976000D01*
G75*
G02*
X160254334Y-95097237I-121237J0D01*
G01*
G37*
G36*
G01*
X160254334Y-94597237D02*
X159587172Y-94597237D01*
G75*
G02*
X159465935Y-94476000I0J121237D01*
G01*
X159465935Y-94476000D01*
G75*
G02*
X159587172Y-94354763I121237J0D01*
G01*
X160254334Y-94354763D01*
G75*
G02*
X160375571Y-94476000I0J-121237D01*
G01*
X160375571Y-94476000D01*
G75*
G02*
X160254334Y-94597237I-121237J0D01*
G01*
G37*
G36*
G01*
X160254334Y-94097237D02*
X159587172Y-94097237D01*
G75*
G02*
X159465935Y-93976000I0J121237D01*
G01*
X159465935Y-93976000D01*
G75*
G02*
X159587172Y-93854763I121237J0D01*
G01*
X160254334Y-93854763D01*
G75*
G02*
X160375571Y-93976000I0J-121237D01*
G01*
X160375571Y-93976000D01*
G75*
G02*
X160254334Y-94097237I-121237J0D01*
G01*
G37*
G36*
G01*
X160254334Y-93597237D02*
X159587172Y-93597237D01*
G75*
G02*
X159465935Y-93476000I0J121237D01*
G01*
X159465935Y-93476000D01*
G75*
G02*
X159587172Y-93354763I121237J0D01*
G01*
X160254334Y-93354763D01*
G75*
G02*
X160375571Y-93476000I0J-121237D01*
G01*
X160375571Y-93476000D01*
G75*
G02*
X160254334Y-93597237I-121237J0D01*
G01*
G37*
G36*
G01*
X160254334Y-93097237D02*
X159587172Y-93097237D01*
G75*
G02*
X159465935Y-92976000I0J121237D01*
G01*
X159465935Y-92976000D01*
G75*
G02*
X159587172Y-92854763I121237J0D01*
G01*
X160254334Y-92854763D01*
G75*
G02*
X160375571Y-92976000I0J-121237D01*
G01*
X160375571Y-92976000D01*
G75*
G02*
X160254334Y-93097237I-121237J0D01*
G01*
G37*
G36*
G01*
X160254334Y-92597237D02*
X159587172Y-92597237D01*
G75*
G02*
X159465935Y-92476000I0J121237D01*
G01*
X159465935Y-92476000D01*
G75*
G02*
X159587172Y-92354763I121237J0D01*
G01*
X160254334Y-92354763D01*
G75*
G02*
X160375571Y-92476000I0J-121237D01*
G01*
X160375571Y-92476000D01*
G75*
G02*
X160254334Y-92597237I-121237J0D01*
G01*
G37*
G36*
G01*
X160254334Y-92097237D02*
X159587172Y-92097237D01*
G75*
G02*
X159465935Y-91976000I0J121237D01*
G01*
X159465935Y-91976000D01*
G75*
G02*
X159587172Y-91854763I121237J0D01*
G01*
X160254334Y-91854763D01*
G75*
G02*
X160375571Y-91976000I0J-121237D01*
G01*
X160375571Y-91976000D01*
G75*
G02*
X160254334Y-92097237I-121237J0D01*
G01*
G37*
G36*
G01*
X160254334Y-91597237D02*
X159587172Y-91597237D01*
G75*
G02*
X159465935Y-91476000I0J121237D01*
G01*
X159465935Y-91476000D01*
G75*
G02*
X159587172Y-91354763I121237J0D01*
G01*
X160254334Y-91354763D01*
G75*
G02*
X160375571Y-91476000I0J-121237D01*
G01*
X160375571Y-91476000D01*
G75*
G02*
X160254334Y-91597237I-121237J0D01*
G01*
G37*
G36*
G01*
X160254334Y-91097237D02*
X159587172Y-91097237D01*
G75*
G02*
X159465935Y-90976000I0J121237D01*
G01*
X159465935Y-90976000D01*
G75*
G02*
X159587172Y-90854763I121237J0D01*
G01*
X160254334Y-90854763D01*
G75*
G02*
X160375571Y-90976000I0J-121237D01*
G01*
X160375571Y-90976000D01*
G75*
G02*
X160254334Y-91097237I-121237J0D01*
G01*
G37*
G36*
G01*
X167056829Y-91097237D02*
X166389667Y-91097237D01*
G75*
G02*
X166268430Y-90976000I0J121237D01*
G01*
X166268430Y-90976000D01*
G75*
G02*
X166389667Y-90854763I121237J0D01*
G01*
X167056829Y-90854763D01*
G75*
G02*
X167178066Y-90976000I0J-121237D01*
G01*
X167178066Y-90976000D01*
G75*
G02*
X167056829Y-91097237I-121237J0D01*
G01*
G37*
G36*
G01*
X167056829Y-91597237D02*
X166389667Y-91597237D01*
G75*
G02*
X166268430Y-91476000I0J121237D01*
G01*
X166268430Y-91476000D01*
G75*
G02*
X166389667Y-91354763I121237J0D01*
G01*
X167056829Y-91354763D01*
G75*
G02*
X167178066Y-91476000I0J-121237D01*
G01*
X167178066Y-91476000D01*
G75*
G02*
X167056829Y-91597237I-121237J0D01*
G01*
G37*
G36*
G01*
X167056829Y-92097237D02*
X166389667Y-92097237D01*
G75*
G02*
X166268430Y-91976000I0J121237D01*
G01*
X166268430Y-91976000D01*
G75*
G02*
X166389667Y-91854763I121237J0D01*
G01*
X167056829Y-91854763D01*
G75*
G02*
X167178066Y-91976000I0J-121237D01*
G01*
X167178066Y-91976000D01*
G75*
G02*
X167056829Y-92097237I-121237J0D01*
G01*
G37*
G36*
G01*
X167056829Y-92597237D02*
X166389667Y-92597237D01*
G75*
G02*
X166268430Y-92476000I0J121237D01*
G01*
X166268430Y-92476000D01*
G75*
G02*
X166389667Y-92354763I121237J0D01*
G01*
X167056829Y-92354763D01*
G75*
G02*
X167178066Y-92476000I0J-121237D01*
G01*
X167178066Y-92476000D01*
G75*
G02*
X167056829Y-92597237I-121237J0D01*
G01*
G37*
G36*
G01*
X167056829Y-93097237D02*
X166389667Y-93097237D01*
G75*
G02*
X166268430Y-92976000I0J121237D01*
G01*
X166268430Y-92976000D01*
G75*
G02*
X166389667Y-92854763I121237J0D01*
G01*
X167056829Y-92854763D01*
G75*
G02*
X167178066Y-92976000I0J-121237D01*
G01*
X167178066Y-92976000D01*
G75*
G02*
X167056829Y-93097237I-121237J0D01*
G01*
G37*
G36*
G01*
X167056829Y-93597237D02*
X166389667Y-93597237D01*
G75*
G02*
X166268430Y-93476000I0J121237D01*
G01*
X166268430Y-93476000D01*
G75*
G02*
X166389667Y-93354763I121237J0D01*
G01*
X167056829Y-93354763D01*
G75*
G02*
X167178066Y-93476000I0J-121237D01*
G01*
X167178066Y-93476000D01*
G75*
G02*
X167056829Y-93597237I-121237J0D01*
G01*
G37*
G36*
G01*
X167056829Y-94097237D02*
X166389667Y-94097237D01*
G75*
G02*
X166268430Y-93976000I0J121237D01*
G01*
X166268430Y-93976000D01*
G75*
G02*
X166389667Y-93854763I121237J0D01*
G01*
X167056829Y-93854763D01*
G75*
G02*
X167178066Y-93976000I0J-121237D01*
G01*
X167178066Y-93976000D01*
G75*
G02*
X167056829Y-94097237I-121237J0D01*
G01*
G37*
G36*
G01*
X167056829Y-94597237D02*
X166389667Y-94597237D01*
G75*
G02*
X166268430Y-94476000I0J121237D01*
G01*
X166268430Y-94476000D01*
G75*
G02*
X166389667Y-94354763I121237J0D01*
G01*
X167056829Y-94354763D01*
G75*
G02*
X167178066Y-94476000I0J-121237D01*
G01*
X167178066Y-94476000D01*
G75*
G02*
X167056829Y-94597237I-121237J0D01*
G01*
G37*
G36*
G01*
X167056829Y-95097237D02*
X166389667Y-95097237D01*
G75*
G02*
X166268430Y-94976000I0J121237D01*
G01*
X166268430Y-94976000D01*
G75*
G02*
X166389667Y-94854763I121237J0D01*
G01*
X167056829Y-94854763D01*
G75*
G02*
X167178066Y-94976000I0J-121237D01*
G01*
X167178066Y-94976000D01*
G75*
G02*
X167056829Y-95097237I-121237J0D01*
G01*
G37*
G36*
G01*
X167056829Y-95597237D02*
X166389667Y-95597237D01*
G75*
G02*
X166268430Y-95476000I0J121237D01*
G01*
X166268430Y-95476000D01*
G75*
G02*
X166389667Y-95354763I121237J0D01*
G01*
X167056829Y-95354763D01*
G75*
G02*
X167178066Y-95476000I0J-121237D01*
G01*
X167178066Y-95476000D01*
G75*
G02*
X167056829Y-95597237I-121237J0D01*
G01*
G37*
G36*
G01*
X167056829Y-96097237D02*
X166389667Y-96097237D01*
G75*
G02*
X166268430Y-95976000I0J121237D01*
G01*
X166268430Y-95976000D01*
G75*
G02*
X166389667Y-95854763I121237J0D01*
G01*
X167056829Y-95854763D01*
G75*
G02*
X167178066Y-95976000I0J-121237D01*
G01*
X167178066Y-95976000D01*
G75*
G02*
X167056829Y-96097237I-121237J0D01*
G01*
G37*
G36*
G01*
X167056829Y-96597237D02*
X166389667Y-96597237D01*
G75*
G02*
X166268430Y-96476000I0J121237D01*
G01*
X166268430Y-96476000D01*
G75*
G02*
X166389667Y-96354763I121237J0D01*
G01*
X167056829Y-96354763D01*
G75*
G02*
X167178066Y-96476000I0J-121237D01*
G01*
X167178066Y-96476000D01*
G75*
G02*
X167056829Y-96597237I-121237J0D01*
G01*
G37*
G36*
G01*
X160572000Y-90779570D02*
X160572000Y-90779570D01*
G75*
G02*
X160450763Y-90658333I0J121237D01*
G01*
X160450763Y-89991171D01*
G75*
G02*
X160572000Y-89869934I121237J0D01*
G01*
X160572000Y-89869934D01*
G75*
G02*
X160693237Y-89991171I0J-121237D01*
G01*
X160693237Y-90658333D01*
G75*
G02*
X160572000Y-90779570I-121237J0D01*
G01*
G37*
G36*
G01*
X161072000Y-90779570D02*
X161072000Y-90779570D01*
G75*
G02*
X160950763Y-90658333I0J121237D01*
G01*
X160950763Y-89991171D01*
G75*
G02*
X161072000Y-89869934I121237J0D01*
G01*
X161072000Y-89869934D01*
G75*
G02*
X161193237Y-89991171I0J-121237D01*
G01*
X161193237Y-90658333D01*
G75*
G02*
X161072000Y-90779570I-121237J0D01*
G01*
G37*
G36*
G01*
X161572000Y-90779570D02*
X161572000Y-90779570D01*
G75*
G02*
X161450763Y-90658333I0J121237D01*
G01*
X161450763Y-89991171D01*
G75*
G02*
X161572000Y-89869934I121237J0D01*
G01*
X161572000Y-89869934D01*
G75*
G02*
X161693237Y-89991171I0J-121237D01*
G01*
X161693237Y-90658333D01*
G75*
G02*
X161572000Y-90779570I-121237J0D01*
G01*
G37*
G36*
G01*
X162072000Y-90779570D02*
X162072000Y-90779570D01*
G75*
G02*
X161950763Y-90658333I0J121237D01*
G01*
X161950763Y-89991171D01*
G75*
G02*
X162072000Y-89869934I121237J0D01*
G01*
X162072000Y-89869934D01*
G75*
G02*
X162193237Y-89991171I0J-121237D01*
G01*
X162193237Y-90658333D01*
G75*
G02*
X162072000Y-90779570I-121237J0D01*
G01*
G37*
G36*
G01*
X162572000Y-90779570D02*
X162572000Y-90779570D01*
G75*
G02*
X162450763Y-90658333I0J121237D01*
G01*
X162450763Y-89991171D01*
G75*
G02*
X162572000Y-89869934I121237J0D01*
G01*
X162572000Y-89869934D01*
G75*
G02*
X162693237Y-89991171I0J-121237D01*
G01*
X162693237Y-90658333D01*
G75*
G02*
X162572000Y-90779570I-121237J0D01*
G01*
G37*
G36*
G01*
X163072000Y-90779570D02*
X163072000Y-90779570D01*
G75*
G02*
X162950763Y-90658333I0J121237D01*
G01*
X162950763Y-89991171D01*
G75*
G02*
X163072000Y-89869934I121237J0D01*
G01*
X163072000Y-89869934D01*
G75*
G02*
X163193237Y-89991171I0J-121237D01*
G01*
X163193237Y-90658333D01*
G75*
G02*
X163072000Y-90779570I-121237J0D01*
G01*
G37*
G36*
G01*
X163572000Y-90779570D02*
X163572000Y-90779570D01*
G75*
G02*
X163450763Y-90658333I0J121237D01*
G01*
X163450763Y-89991171D01*
G75*
G02*
X163572000Y-89869934I121237J0D01*
G01*
X163572000Y-89869934D01*
G75*
G02*
X163693237Y-89991171I0J-121237D01*
G01*
X163693237Y-90658333D01*
G75*
G02*
X163572000Y-90779570I-121237J0D01*
G01*
G37*
G36*
G01*
X164072000Y-90779570D02*
X164072000Y-90779570D01*
G75*
G02*
X163950763Y-90658333I0J121237D01*
G01*
X163950763Y-89991171D01*
G75*
G02*
X164072000Y-89869934I121237J0D01*
G01*
X164072000Y-89869934D01*
G75*
G02*
X164193237Y-89991171I0J-121237D01*
G01*
X164193237Y-90658333D01*
G75*
G02*
X164072000Y-90779570I-121237J0D01*
G01*
G37*
G36*
G01*
X164572000Y-90779570D02*
X164572000Y-90779570D01*
G75*
G02*
X164450763Y-90658333I0J121237D01*
G01*
X164450763Y-89991171D01*
G75*
G02*
X164572000Y-89869934I121237J0D01*
G01*
X164572000Y-89869934D01*
G75*
G02*
X164693237Y-89991171I0J-121237D01*
G01*
X164693237Y-90658333D01*
G75*
G02*
X164572000Y-90779570I-121237J0D01*
G01*
G37*
G36*
G01*
X165072000Y-90779570D02*
X165072000Y-90779570D01*
G75*
G02*
X164950763Y-90658333I0J121237D01*
G01*
X164950763Y-89991171D01*
G75*
G02*
X165072000Y-89869934I121237J0D01*
G01*
X165072000Y-89869934D01*
G75*
G02*
X165193237Y-89991171I0J-121237D01*
G01*
X165193237Y-90658333D01*
G75*
G02*
X165072000Y-90779570I-121237J0D01*
G01*
G37*
G36*
G01*
X165572000Y-90779570D02*
X165572000Y-90779570D01*
G75*
G02*
X165450763Y-90658333I0J121237D01*
G01*
X165450763Y-89991171D01*
G75*
G02*
X165572000Y-89869934I121237J0D01*
G01*
X165572000Y-89869934D01*
G75*
G02*
X165693237Y-89991171I0J-121237D01*
G01*
X165693237Y-90658333D01*
G75*
G02*
X165572000Y-90779570I-121237J0D01*
G01*
G37*
G36*
G01*
X166072000Y-90779570D02*
X166072000Y-90779570D01*
G75*
G02*
X165950763Y-90658333I0J121237D01*
G01*
X165950763Y-89991171D01*
G75*
G02*
X166072000Y-89869934I121237J0D01*
G01*
X166072000Y-89869934D01*
G75*
G02*
X166193237Y-89991171I0J-121237D01*
G01*
X166193237Y-90658333D01*
G75*
G02*
X166072000Y-90779570I-121237J0D01*
G01*
G37*
G36*
G01*
X166072000Y-97582065D02*
X166072000Y-97582065D01*
G75*
G02*
X165950763Y-97460828I0J121237D01*
G01*
X165950763Y-96793666D01*
G75*
G02*
X166072000Y-96672429I121237J0D01*
G01*
X166072000Y-96672429D01*
G75*
G02*
X166193237Y-96793666I0J-121237D01*
G01*
X166193237Y-97460828D01*
G75*
G02*
X166072000Y-97582065I-121237J0D01*
G01*
G37*
G36*
G01*
X165572000Y-97582065D02*
X165572000Y-97582065D01*
G75*
G02*
X165450763Y-97460828I0J121237D01*
G01*
X165450763Y-96793666D01*
G75*
G02*
X165572000Y-96672429I121237J0D01*
G01*
X165572000Y-96672429D01*
G75*
G02*
X165693237Y-96793666I0J-121237D01*
G01*
X165693237Y-97460828D01*
G75*
G02*
X165572000Y-97582065I-121237J0D01*
G01*
G37*
G36*
G01*
X165072000Y-97582065D02*
X165072000Y-97582065D01*
G75*
G02*
X164950763Y-97460828I0J121237D01*
G01*
X164950763Y-96793666D01*
G75*
G02*
X165072000Y-96672429I121237J0D01*
G01*
X165072000Y-96672429D01*
G75*
G02*
X165193237Y-96793666I0J-121237D01*
G01*
X165193237Y-97460828D01*
G75*
G02*
X165072000Y-97582065I-121237J0D01*
G01*
G37*
G36*
G01*
X164572000Y-97582065D02*
X164572000Y-97582065D01*
G75*
G02*
X164450763Y-97460828I0J121237D01*
G01*
X164450763Y-96793666D01*
G75*
G02*
X164572000Y-96672429I121237J0D01*
G01*
X164572000Y-96672429D01*
G75*
G02*
X164693237Y-96793666I0J-121237D01*
G01*
X164693237Y-97460828D01*
G75*
G02*
X164572000Y-97582065I-121237J0D01*
G01*
G37*
G36*
G01*
X164072000Y-97582065D02*
X164072000Y-97582065D01*
G75*
G02*
X163950763Y-97460828I0J121237D01*
G01*
X163950763Y-96793666D01*
G75*
G02*
X164072000Y-96672429I121237J0D01*
G01*
X164072000Y-96672429D01*
G75*
G02*
X164193237Y-96793666I0J-121237D01*
G01*
X164193237Y-97460828D01*
G75*
G02*
X164072000Y-97582065I-121237J0D01*
G01*
G37*
G36*
G01*
X163572000Y-97582065D02*
X163572000Y-97582065D01*
G75*
G02*
X163450763Y-97460828I0J121237D01*
G01*
X163450763Y-96793666D01*
G75*
G02*
X163572000Y-96672429I121237J0D01*
G01*
X163572000Y-96672429D01*
G75*
G02*
X163693237Y-96793666I0J-121237D01*
G01*
X163693237Y-97460828D01*
G75*
G02*
X163572000Y-97582065I-121237J0D01*
G01*
G37*
G36*
G01*
X163072000Y-97582065D02*
X163072000Y-97582065D01*
G75*
G02*
X162950763Y-97460828I0J121237D01*
G01*
X162950763Y-96793666D01*
G75*
G02*
X163072000Y-96672429I121237J0D01*
G01*
X163072000Y-96672429D01*
G75*
G02*
X163193237Y-96793666I0J-121237D01*
G01*
X163193237Y-97460828D01*
G75*
G02*
X163072000Y-97582065I-121237J0D01*
G01*
G37*
G36*
G01*
X162572000Y-97582065D02*
X162572000Y-97582065D01*
G75*
G02*
X162450763Y-97460828I0J121237D01*
G01*
X162450763Y-96793666D01*
G75*
G02*
X162572000Y-96672429I121237J0D01*
G01*
X162572000Y-96672429D01*
G75*
G02*
X162693237Y-96793666I0J-121237D01*
G01*
X162693237Y-97460828D01*
G75*
G02*
X162572000Y-97582065I-121237J0D01*
G01*
G37*
G36*
G01*
X162072000Y-97582065D02*
X162072000Y-97582065D01*
G75*
G02*
X161950763Y-97460828I0J121237D01*
G01*
X161950763Y-96793666D01*
G75*
G02*
X162072000Y-96672429I121237J0D01*
G01*
X162072000Y-96672429D01*
G75*
G02*
X162193237Y-96793666I0J-121237D01*
G01*
X162193237Y-97460828D01*
G75*
G02*
X162072000Y-97582065I-121237J0D01*
G01*
G37*
G36*
G01*
X161572000Y-97582065D02*
X161572000Y-97582065D01*
G75*
G02*
X161450763Y-97460828I0J121237D01*
G01*
X161450763Y-96793666D01*
G75*
G02*
X161572000Y-96672429I121237J0D01*
G01*
X161572000Y-96672429D01*
G75*
G02*
X161693237Y-96793666I0J-121237D01*
G01*
X161693237Y-97460828D01*
G75*
G02*
X161572000Y-97582065I-121237J0D01*
G01*
G37*
G36*
G01*
X161072000Y-97582065D02*
X161072000Y-97582065D01*
G75*
G02*
X160950763Y-97460828I0J121237D01*
G01*
X160950763Y-96793666D01*
G75*
G02*
X161072000Y-96672429I121237J0D01*
G01*
X161072000Y-96672429D01*
G75*
G02*
X161193237Y-96793666I0J-121237D01*
G01*
X161193237Y-97460828D01*
G75*
G02*
X161072000Y-97582065I-121237J0D01*
G01*
G37*
D15*
X160572000Y-97127247D03*
G36*
G01*
X135195000Y-82010000D02*
X135195000Y-84910000D01*
G75*
G02*
X134945000Y-85160000I-250000J0D01*
G01*
X133945000Y-85160000D01*
G75*
G02*
X133695000Y-84910000I0J250000D01*
G01*
X133695000Y-82010000D01*
G75*
G02*
X133945000Y-81760000I250000J0D01*
G01*
X134945000Y-81760000D01*
G75*
G02*
X135195000Y-82010000I0J-250000D01*
G01*
G37*
G36*
G01*
X141895000Y-82010000D02*
X141895000Y-84910000D01*
G75*
G02*
X141645000Y-85160000I-250000J0D01*
G01*
X140645000Y-85160000D01*
G75*
G02*
X140395000Y-84910000I0J250000D01*
G01*
X140395000Y-82010000D01*
G75*
G02*
X140645000Y-81760000I250000J0D01*
G01*
X141645000Y-81760000D01*
G75*
G02*
X141895000Y-82010000I0J-250000D01*
G01*
G37*
G36*
G01*
X137295000Y-87710000D02*
X137295000Y-90710000D01*
G75*
G02*
X137045000Y-90960000I-250000J0D01*
G01*
X136545000Y-90960000D01*
G75*
G02*
X136295000Y-90710000I0J250000D01*
G01*
X136295000Y-87710000D01*
G75*
G02*
X136545000Y-87460000I250000J0D01*
G01*
X137045000Y-87460000D01*
G75*
G02*
X137295000Y-87710000I0J-250000D01*
G01*
G37*
G36*
G01*
X139295000Y-87710000D02*
X139295000Y-90710000D01*
G75*
G02*
X139045000Y-90960000I-250000J0D01*
G01*
X138545000Y-90960000D01*
G75*
G02*
X138295000Y-90710000I0J250000D01*
G01*
X138295000Y-87710000D01*
G75*
G02*
X138545000Y-87460000I250000J0D01*
G01*
X139045000Y-87460000D01*
G75*
G02*
X139295000Y-87710000I0J-250000D01*
G01*
G37*
D16*
X139648180Y-100074420D03*
X135751820Y-100074420D03*
X139648180Y-97925580D03*
X135751820Y-97925580D03*
D17*
X166150000Y-85400000D03*
X166150000Y-87600000D03*
X164450000Y-87600000D03*
X164450000Y-85400000D03*
D18*
X149250000Y-84750000D03*
X149250000Y-88050000D03*
G36*
G01*
X173075000Y-89650000D02*
X171825000Y-89650000D01*
G75*
G02*
X171675000Y-89500000I0J150000D01*
G01*
X171675000Y-89200000D01*
G75*
G02*
X171825000Y-89050000I150000J0D01*
G01*
X173075000Y-89050000D01*
G75*
G02*
X173225000Y-89200000I0J-150000D01*
G01*
X173225000Y-89500000D01*
G75*
G02*
X173075000Y-89650000I-150000J0D01*
G01*
G37*
G36*
G01*
X173075000Y-88650000D02*
X171825000Y-88650000D01*
G75*
G02*
X171675000Y-88500000I0J150000D01*
G01*
X171675000Y-88200000D01*
G75*
G02*
X171825000Y-88050000I150000J0D01*
G01*
X173075000Y-88050000D01*
G75*
G02*
X173225000Y-88200000I0J-150000D01*
G01*
X173225000Y-88500000D01*
G75*
G02*
X173075000Y-88650000I-150000J0D01*
G01*
G37*
G36*
G01*
X173075000Y-87650000D02*
X171825000Y-87650000D01*
G75*
G02*
X171675000Y-87500000I0J150000D01*
G01*
X171675000Y-87200000D01*
G75*
G02*
X171825000Y-87050000I150000J0D01*
G01*
X173075000Y-87050000D01*
G75*
G02*
X173225000Y-87200000I0J-150000D01*
G01*
X173225000Y-87500000D01*
G75*
G02*
X173075000Y-87650000I-150000J0D01*
G01*
G37*
G36*
G01*
X173075000Y-86650000D02*
X171825000Y-86650000D01*
G75*
G02*
X171675000Y-86500000I0J150000D01*
G01*
X171675000Y-86200000D01*
G75*
G02*
X171825000Y-86050000I150000J0D01*
G01*
X173075000Y-86050000D01*
G75*
G02*
X173225000Y-86200000I0J-150000D01*
G01*
X173225000Y-86500000D01*
G75*
G02*
X173075000Y-86650000I-150000J0D01*
G01*
G37*
G36*
G01*
X176975001Y-91250000D02*
X175674999Y-91250000D01*
G75*
G02*
X175425000Y-91000001I0J249999D01*
G01*
X175425000Y-90299999D01*
G75*
G02*
X175674999Y-90050000I249999J0D01*
G01*
X176975001Y-90050000D01*
G75*
G02*
X177225000Y-90299999I0J-249999D01*
G01*
X177225000Y-91000001D01*
G75*
G02*
X176975001Y-91250000I-249999J0D01*
G01*
G37*
G36*
G01*
X176975001Y-85650000D02*
X175674999Y-85650000D01*
G75*
G02*
X175425000Y-85400001I0J249999D01*
G01*
X175425000Y-84699999D01*
G75*
G02*
X175674999Y-84450000I249999J0D01*
G01*
X176975001Y-84450000D01*
G75*
G02*
X177225000Y-84699999I0J-249999D01*
G01*
X177225000Y-85400001D01*
G75*
G02*
X176975001Y-85650000I-249999J0D01*
G01*
G37*
D19*
X147300000Y-86750000D03*
X147300000Y-84850000D03*
X145300000Y-85800000D03*
D20*
X145299000Y-88466000D03*
X144349000Y-88466000D03*
X143399000Y-88466000D03*
X143399000Y-90666000D03*
X145299000Y-90666000D03*
D21*
X155016000Y-86930000D03*
X155016000Y-88830000D03*
X152816000Y-88830000D03*
X152816000Y-87880000D03*
X152816000Y-86930000D03*
X136822000Y-92649000D03*
X136822000Y-93599000D03*
X136822000Y-94549000D03*
X139022000Y-94549000D03*
X139022000Y-92649000D03*
X139022000Y-93599000D03*
G36*
G01*
X143053750Y-84325000D02*
X143966250Y-84325000D01*
G75*
G02*
X144210000Y-84568750I0J-243750D01*
G01*
X144210000Y-85056250D01*
G75*
G02*
X143966250Y-85300000I-243750J0D01*
G01*
X143053750Y-85300000D01*
G75*
G02*
X142810000Y-85056250I0J243750D01*
G01*
X142810000Y-84568750D01*
G75*
G02*
X143053750Y-84325000I243750J0D01*
G01*
G37*
G36*
G01*
X143053750Y-86200000D02*
X143966250Y-86200000D01*
G75*
G02*
X144210000Y-86443750I0J-243750D01*
G01*
X144210000Y-86931250D01*
G75*
G02*
X143966250Y-87175000I-243750J0D01*
G01*
X143053750Y-87175000D01*
G75*
G02*
X142810000Y-86931250I0J243750D01*
G01*
X142810000Y-86443750D01*
G75*
G02*
X143053750Y-86200000I243750J0D01*
G01*
G37*
G36*
G01*
X152650000Y-85456250D02*
X152650000Y-84543750D01*
G75*
G02*
X152893750Y-84300000I243750J0D01*
G01*
X153381250Y-84300000D01*
G75*
G02*
X153625000Y-84543750I0J-243750D01*
G01*
X153625000Y-85456250D01*
G75*
G02*
X153381250Y-85700000I-243750J0D01*
G01*
X152893750Y-85700000D01*
G75*
G02*
X152650000Y-85456250I0J243750D01*
G01*
G37*
G36*
G01*
X150775000Y-85456250D02*
X150775000Y-84543750D01*
G75*
G02*
X151018750Y-84300000I243750J0D01*
G01*
X151506250Y-84300000D01*
G75*
G02*
X151750000Y-84543750I0J-243750D01*
G01*
X151750000Y-85456250D01*
G75*
G02*
X151506250Y-85700000I-243750J0D01*
G01*
X151018750Y-85700000D01*
G75*
G02*
X150775000Y-85456250I0J243750D01*
G01*
G37*
G36*
G01*
X154375000Y-85456250D02*
X154375000Y-84543750D01*
G75*
G02*
X154618750Y-84300000I243750J0D01*
G01*
X155106250Y-84300000D01*
G75*
G02*
X155350000Y-84543750I0J-243750D01*
G01*
X155350000Y-85456250D01*
G75*
G02*
X155106250Y-85700000I-243750J0D01*
G01*
X154618750Y-85700000D01*
G75*
G02*
X154375000Y-85456250I0J243750D01*
G01*
G37*
G36*
G01*
X156250000Y-85456250D02*
X156250000Y-84543750D01*
G75*
G02*
X156493750Y-84300000I243750J0D01*
G01*
X156981250Y-84300000D01*
G75*
G02*
X157225000Y-84543750I0J-243750D01*
G01*
X157225000Y-85456250D01*
G75*
G02*
X156981250Y-85700000I-243750J0D01*
G01*
X156493750Y-85700000D01*
G75*
G02*
X156250000Y-85456250I0J243750D01*
G01*
G37*
G36*
G01*
X158750000Y-87643750D02*
X158750000Y-88556250D01*
G75*
G02*
X158506250Y-88800000I-243750J0D01*
G01*
X158018750Y-88800000D01*
G75*
G02*
X157775000Y-88556250I0J243750D01*
G01*
X157775000Y-87643750D01*
G75*
G02*
X158018750Y-87400000I243750J0D01*
G01*
X158506250Y-87400000D01*
G75*
G02*
X158750000Y-87643750I0J-243750D01*
G01*
G37*
G36*
G01*
X160625000Y-87643750D02*
X160625000Y-88556250D01*
G75*
G02*
X160381250Y-88800000I-243750J0D01*
G01*
X159893750Y-88800000D01*
G75*
G02*
X159650000Y-88556250I0J243750D01*
G01*
X159650000Y-87643750D01*
G75*
G02*
X159893750Y-87400000I243750J0D01*
G01*
X160381250Y-87400000D01*
G75*
G02*
X160625000Y-87643750I0J-243750D01*
G01*
G37*
G36*
G01*
X167475000Y-100556250D02*
X167475000Y-100043750D01*
G75*
G02*
X167693750Y-99825000I218750J0D01*
G01*
X168131250Y-99825000D01*
G75*
G02*
X168350000Y-100043750I0J-218750D01*
G01*
X168350000Y-100556250D01*
G75*
G02*
X168131250Y-100775000I-218750J0D01*
G01*
X167693750Y-100775000D01*
G75*
G02*
X167475000Y-100556250I0J218750D01*
G01*
G37*
G36*
G01*
X169050000Y-100556250D02*
X169050000Y-100043750D01*
G75*
G02*
X169268750Y-99825000I218750J0D01*
G01*
X169706250Y-99825000D01*
G75*
G02*
X169925000Y-100043750I0J-218750D01*
G01*
X169925000Y-100556250D01*
G75*
G02*
X169706250Y-100775000I-218750J0D01*
G01*
X169268750Y-100775000D01*
G75*
G02*
X169050000Y-100556250I0J218750D01*
G01*
G37*
G36*
G01*
X156962500Y-97493750D02*
X156962500Y-98406250D01*
G75*
G02*
X156718750Y-98650000I-243750J0D01*
G01*
X156231250Y-98650000D01*
G75*
G02*
X155987500Y-98406250I0J243750D01*
G01*
X155987500Y-97493750D01*
G75*
G02*
X156231250Y-97250000I243750J0D01*
G01*
X156718750Y-97250000D01*
G75*
G02*
X156962500Y-97493750I0J-243750D01*
G01*
G37*
G36*
G01*
X155087500Y-97493750D02*
X155087500Y-98406250D01*
G75*
G02*
X154843750Y-98650000I-243750J0D01*
G01*
X154356250Y-98650000D01*
G75*
G02*
X154112500Y-98406250I0J243750D01*
G01*
X154112500Y-97493750D01*
G75*
G02*
X154356250Y-97250000I243750J0D01*
G01*
X154843750Y-97250000D01*
G75*
G02*
X155087500Y-97493750I0J-243750D01*
G01*
G37*
G36*
G01*
X152843750Y-97673000D02*
X153356250Y-97673000D01*
G75*
G02*
X153575000Y-97891750I0J-218750D01*
G01*
X153575000Y-98329250D01*
G75*
G02*
X153356250Y-98548000I-218750J0D01*
G01*
X152843750Y-98548000D01*
G75*
G02*
X152625000Y-98329250I0J218750D01*
G01*
X152625000Y-97891750D01*
G75*
G02*
X152843750Y-97673000I218750J0D01*
G01*
G37*
G36*
G01*
X152843750Y-99248000D02*
X153356250Y-99248000D01*
G75*
G02*
X153575000Y-99466750I0J-218750D01*
G01*
X153575000Y-99904250D01*
G75*
G02*
X153356250Y-100123000I-218750J0D01*
G01*
X152843750Y-100123000D01*
G75*
G02*
X152625000Y-99904250I0J218750D01*
G01*
X152625000Y-99466750D01*
G75*
G02*
X152843750Y-99248000I218750J0D01*
G01*
G37*
G36*
G01*
X151350750Y-99248000D02*
X151863250Y-99248000D01*
G75*
G02*
X152082000Y-99466750I0J-218750D01*
G01*
X152082000Y-99904250D01*
G75*
G02*
X151863250Y-100123000I-218750J0D01*
G01*
X151350750Y-100123000D01*
G75*
G02*
X151132000Y-99904250I0J218750D01*
G01*
X151132000Y-99466750D01*
G75*
G02*
X151350750Y-99248000I218750J0D01*
G01*
G37*
G36*
G01*
X151350750Y-97673000D02*
X151863250Y-97673000D01*
G75*
G02*
X152082000Y-97891750I0J-218750D01*
G01*
X152082000Y-98329250D01*
G75*
G02*
X151863250Y-98548000I-218750J0D01*
G01*
X151350750Y-98548000D01*
G75*
G02*
X151132000Y-98329250I0J218750D01*
G01*
X151132000Y-97891750D01*
G75*
G02*
X151350750Y-97673000I218750J0D01*
G01*
G37*
G36*
G01*
X169150000Y-88056250D02*
X169150000Y-87543750D01*
G75*
G02*
X169368750Y-87325000I218750J0D01*
G01*
X169806250Y-87325000D01*
G75*
G02*
X170025000Y-87543750I0J-218750D01*
G01*
X170025000Y-88056250D01*
G75*
G02*
X169806250Y-88275000I-218750J0D01*
G01*
X169368750Y-88275000D01*
G75*
G02*
X169150000Y-88056250I0J218750D01*
G01*
G37*
G36*
G01*
X167575000Y-88056250D02*
X167575000Y-87543750D01*
G75*
G02*
X167793750Y-87325000I218750J0D01*
G01*
X168231250Y-87325000D01*
G75*
G02*
X168450000Y-87543750I0J-218750D01*
G01*
X168450000Y-88056250D01*
G75*
G02*
X168231250Y-88275000I-218750J0D01*
G01*
X167793750Y-88275000D01*
G75*
G02*
X167575000Y-88056250I0J218750D01*
G01*
G37*
G36*
G01*
X158606250Y-85200000D02*
X158093750Y-85200000D01*
G75*
G02*
X157875000Y-84981250I0J218750D01*
G01*
X157875000Y-84543750D01*
G75*
G02*
X158093750Y-84325000I218750J0D01*
G01*
X158606250Y-84325000D01*
G75*
G02*
X158825000Y-84543750I0J-218750D01*
G01*
X158825000Y-84981250D01*
G75*
G02*
X158606250Y-85200000I-218750J0D01*
G01*
G37*
G36*
G01*
X158606250Y-86775000D02*
X158093750Y-86775000D01*
G75*
G02*
X157875000Y-86556250I0J218750D01*
G01*
X157875000Y-86118750D01*
G75*
G02*
X158093750Y-85900000I218750J0D01*
G01*
X158606250Y-85900000D01*
G75*
G02*
X158825000Y-86118750I0J-218750D01*
G01*
X158825000Y-86556250D01*
G75*
G02*
X158606250Y-86775000I-218750J0D01*
G01*
G37*
G36*
G01*
X156443750Y-86325000D02*
X156956250Y-86325000D01*
G75*
G02*
X157175000Y-86543750I0J-218750D01*
G01*
X157175000Y-86981250D01*
G75*
G02*
X156956250Y-87200000I-218750J0D01*
G01*
X156443750Y-87200000D01*
G75*
G02*
X156225000Y-86981250I0J218750D01*
G01*
X156225000Y-86543750D01*
G75*
G02*
X156443750Y-86325000I218750J0D01*
G01*
G37*
G36*
G01*
X156443750Y-87900000D02*
X156956250Y-87900000D01*
G75*
G02*
X157175000Y-88118750I0J-218750D01*
G01*
X157175000Y-88556250D01*
G75*
G02*
X156956250Y-88775000I-218750J0D01*
G01*
X156443750Y-88775000D01*
G75*
G02*
X156225000Y-88556250I0J218750D01*
G01*
X156225000Y-88118750D01*
G75*
G02*
X156443750Y-87900000I218750J0D01*
G01*
G37*
G36*
G01*
X167943750Y-90450000D02*
X168456250Y-90450000D01*
G75*
G02*
X168675000Y-90668750I0J-218750D01*
G01*
X168675000Y-91106250D01*
G75*
G02*
X168456250Y-91325000I-218750J0D01*
G01*
X167943750Y-91325000D01*
G75*
G02*
X167725000Y-91106250I0J218750D01*
G01*
X167725000Y-90668750D01*
G75*
G02*
X167943750Y-90450000I218750J0D01*
G01*
G37*
G36*
G01*
X167943750Y-88875000D02*
X168456250Y-88875000D01*
G75*
G02*
X168675000Y-89093750I0J-218750D01*
G01*
X168675000Y-89531250D01*
G75*
G02*
X168456250Y-89750000I-218750J0D01*
G01*
X167943750Y-89750000D01*
G75*
G02*
X167725000Y-89531250I0J218750D01*
G01*
X167725000Y-89093750D01*
G75*
G02*
X167943750Y-88875000I218750J0D01*
G01*
G37*
G36*
G01*
X169443750Y-90450000D02*
X169956250Y-90450000D01*
G75*
G02*
X170175000Y-90668750I0J-218750D01*
G01*
X170175000Y-91106250D01*
G75*
G02*
X169956250Y-91325000I-218750J0D01*
G01*
X169443750Y-91325000D01*
G75*
G02*
X169225000Y-91106250I0J218750D01*
G01*
X169225000Y-90668750D01*
G75*
G02*
X169443750Y-90450000I218750J0D01*
G01*
G37*
G36*
G01*
X169443750Y-88875000D02*
X169956250Y-88875000D01*
G75*
G02*
X170175000Y-89093750I0J-218750D01*
G01*
X170175000Y-89531250D01*
G75*
G02*
X169956250Y-89750000I-218750J0D01*
G01*
X169443750Y-89750000D01*
G75*
G02*
X169225000Y-89531250I0J218750D01*
G01*
X169225000Y-89093750D01*
G75*
G02*
X169443750Y-88875000I218750J0D01*
G01*
G37*
G36*
G01*
X132077750Y-99918000D02*
X132590250Y-99918000D01*
G75*
G02*
X132809000Y-100136750I0J-218750D01*
G01*
X132809000Y-100574250D01*
G75*
G02*
X132590250Y-100793000I-218750J0D01*
G01*
X132077750Y-100793000D01*
G75*
G02*
X131859000Y-100574250I0J218750D01*
G01*
X131859000Y-100136750D01*
G75*
G02*
X132077750Y-99918000I218750J0D01*
G01*
G37*
G36*
G01*
X132077750Y-98343000D02*
X132590250Y-98343000D01*
G75*
G02*
X132809000Y-98561750I0J-218750D01*
G01*
X132809000Y-98999250D01*
G75*
G02*
X132590250Y-99218000I-218750J0D01*
G01*
X132077750Y-99218000D01*
G75*
G02*
X131859000Y-98999250I0J218750D01*
G01*
X131859000Y-98561750D01*
G75*
G02*
X132077750Y-98343000I218750J0D01*
G01*
G37*
G36*
G01*
X169150000Y-85056250D02*
X169150000Y-84543750D01*
G75*
G02*
X169368750Y-84325000I218750J0D01*
G01*
X169806250Y-84325000D01*
G75*
G02*
X170025000Y-84543750I0J-218750D01*
G01*
X170025000Y-85056250D01*
G75*
G02*
X169806250Y-85275000I-218750J0D01*
G01*
X169368750Y-85275000D01*
G75*
G02*
X169150000Y-85056250I0J218750D01*
G01*
G37*
G36*
G01*
X167575000Y-85056250D02*
X167575000Y-84543750D01*
G75*
G02*
X167793750Y-84325000I218750J0D01*
G01*
X168231250Y-84325000D01*
G75*
G02*
X168450000Y-84543750I0J-218750D01*
G01*
X168450000Y-85056250D01*
G75*
G02*
X168231250Y-85275000I-218750J0D01*
G01*
X167793750Y-85275000D01*
G75*
G02*
X167575000Y-85056250I0J218750D01*
G01*
G37*
G36*
G01*
X132077750Y-84373000D02*
X132590250Y-84373000D01*
G75*
G02*
X132809000Y-84591750I0J-218750D01*
G01*
X132809000Y-85029250D01*
G75*
G02*
X132590250Y-85248000I-218750J0D01*
G01*
X132077750Y-85248000D01*
G75*
G02*
X131859000Y-85029250I0J218750D01*
G01*
X131859000Y-84591750D01*
G75*
G02*
X132077750Y-84373000I218750J0D01*
G01*
G37*
G36*
G01*
X132077750Y-85948000D02*
X132590250Y-85948000D01*
G75*
G02*
X132809000Y-86166750I0J-218750D01*
G01*
X132809000Y-86604250D01*
G75*
G02*
X132590250Y-86823000I-218750J0D01*
G01*
X132077750Y-86823000D01*
G75*
G02*
X131859000Y-86604250I0J218750D01*
G01*
X131859000Y-86166750D01*
G75*
G02*
X132077750Y-85948000I218750J0D01*
G01*
G37*
G36*
G01*
X150943750Y-88550000D02*
X151456250Y-88550000D01*
G75*
G02*
X151675000Y-88768750I0J-218750D01*
G01*
X151675000Y-89206250D01*
G75*
G02*
X151456250Y-89425000I-218750J0D01*
G01*
X150943750Y-89425000D01*
G75*
G02*
X150725000Y-89206250I0J218750D01*
G01*
X150725000Y-88768750D01*
G75*
G02*
X150943750Y-88550000I218750J0D01*
G01*
G37*
G36*
G01*
X150943750Y-86975000D02*
X151456250Y-86975000D01*
G75*
G02*
X151675000Y-87193750I0J-218750D01*
G01*
X151675000Y-87631250D01*
G75*
G02*
X151456250Y-87850000I-218750J0D01*
G01*
X150943750Y-87850000D01*
G75*
G02*
X150725000Y-87631250I0J218750D01*
G01*
X150725000Y-87193750D01*
G75*
G02*
X150943750Y-86975000I218750J0D01*
G01*
G37*
G36*
G01*
X142322000Y-90493750D02*
X142322000Y-91006250D01*
G75*
G02*
X142103250Y-91225000I-218750J0D01*
G01*
X141665750Y-91225000D01*
G75*
G02*
X141447000Y-91006250I0J218750D01*
G01*
X141447000Y-90493750D01*
G75*
G02*
X141665750Y-90275000I218750J0D01*
G01*
X142103250Y-90275000D01*
G75*
G02*
X142322000Y-90493750I0J-218750D01*
G01*
G37*
G36*
G01*
X140747000Y-90493750D02*
X140747000Y-91006250D01*
G75*
G02*
X140528250Y-91225000I-218750J0D01*
G01*
X140090750Y-91225000D01*
G75*
G02*
X139872000Y-91006250I0J218750D01*
G01*
X139872000Y-90493750D01*
G75*
G02*
X140090750Y-90275000I218750J0D01*
G01*
X140528250Y-90275000D01*
G75*
G02*
X140747000Y-90493750I0J-218750D01*
G01*
G37*
G36*
G01*
X147356250Y-90475000D02*
X146843750Y-90475000D01*
G75*
G02*
X146625000Y-90256250I0J218750D01*
G01*
X146625000Y-89818750D01*
G75*
G02*
X146843750Y-89600000I218750J0D01*
G01*
X147356250Y-89600000D01*
G75*
G02*
X147575000Y-89818750I0J-218750D01*
G01*
X147575000Y-90256250D01*
G75*
G02*
X147356250Y-90475000I-218750J0D01*
G01*
G37*
G36*
G01*
X147356250Y-88900000D02*
X146843750Y-88900000D01*
G75*
G02*
X146625000Y-88681250I0J218750D01*
G01*
X146625000Y-88243750D01*
G75*
G02*
X146843750Y-88025000I218750J0D01*
G01*
X147356250Y-88025000D01*
G75*
G02*
X147575000Y-88243750I0J-218750D01*
G01*
X147575000Y-88681250D01*
G75*
G02*
X147356250Y-88900000I-218750J0D01*
G01*
G37*
G36*
G01*
X133743750Y-96575000D02*
X134256250Y-96575000D01*
G75*
G02*
X134475000Y-96793750I0J-218750D01*
G01*
X134475000Y-97231250D01*
G75*
G02*
X134256250Y-97450000I-218750J0D01*
G01*
X133743750Y-97450000D01*
G75*
G02*
X133525000Y-97231250I0J218750D01*
G01*
X133525000Y-96793750D01*
G75*
G02*
X133743750Y-96575000I218750J0D01*
G01*
G37*
G36*
G01*
X133743750Y-98150000D02*
X134256250Y-98150000D01*
G75*
G02*
X134475000Y-98368750I0J-218750D01*
G01*
X134475000Y-98806250D01*
G75*
G02*
X134256250Y-99025000I-218750J0D01*
G01*
X133743750Y-99025000D01*
G75*
G02*
X133525000Y-98806250I0J218750D01*
G01*
X133525000Y-98368750D01*
G75*
G02*
X133743750Y-98150000I218750J0D01*
G01*
G37*
G36*
G01*
X134950000Y-91656250D02*
X134950000Y-91143750D01*
G75*
G02*
X135168750Y-90925000I218750J0D01*
G01*
X135606250Y-90925000D01*
G75*
G02*
X135825000Y-91143750I0J-218750D01*
G01*
X135825000Y-91656250D01*
G75*
G02*
X135606250Y-91875000I-218750J0D01*
G01*
X135168750Y-91875000D01*
G75*
G02*
X134950000Y-91656250I0J218750D01*
G01*
G37*
G36*
G01*
X133375000Y-91656250D02*
X133375000Y-91143750D01*
G75*
G02*
X133593750Y-90925000I218750J0D01*
G01*
X134031250Y-90925000D01*
G75*
G02*
X134250000Y-91143750I0J-218750D01*
G01*
X134250000Y-91656250D01*
G75*
G02*
X134031250Y-91875000I-218750J0D01*
G01*
X133593750Y-91875000D01*
G75*
G02*
X133375000Y-91656250I0J218750D01*
G01*
G37*
G36*
G01*
X155000000Y-99393750D02*
X155000000Y-99906250D01*
G75*
G02*
X154781250Y-100125000I-218750J0D01*
G01*
X154343750Y-100125000D01*
G75*
G02*
X154125000Y-99906250I0J218750D01*
G01*
X154125000Y-99393750D01*
G75*
G02*
X154343750Y-99175000I218750J0D01*
G01*
X154781250Y-99175000D01*
G75*
G02*
X155000000Y-99393750I0J-218750D01*
G01*
G37*
G36*
G01*
X156575000Y-99393750D02*
X156575000Y-99906250D01*
G75*
G02*
X156356250Y-100125000I-218750J0D01*
G01*
X155918750Y-100125000D01*
G75*
G02*
X155700000Y-99906250I0J218750D01*
G01*
X155700000Y-99393750D01*
G75*
G02*
X155918750Y-99175000I218750J0D01*
G01*
X156356250Y-99175000D01*
G75*
G02*
X156575000Y-99393750I0J-218750D01*
G01*
G37*
M02*
