G04 #@! TF.GenerationSoftware,KiCad,Pcbnew,(5.1.7-0-10_14)*
G04 #@! TF.CreationDate,2020-10-24T15:10:09+08:00*
G04 #@! TF.ProjectId,Feather_STM32WB55,46656174-6865-4725-9f53-544d33325742,rev?*
G04 #@! TF.SameCoordinates,Original*
G04 #@! TF.FileFunction,Copper,L4,Bot*
G04 #@! TF.FilePolarity,Positive*
%FSLAX46Y46*%
G04 Gerber Fmt 4.6, Leading zero omitted, Abs format (unit mm)*
G04 Created by KiCad (PCBNEW (5.1.7-0-10_14)) date 2020-10-24 15:10:09*
%MOMM*%
%LPD*%
G01*
G04 APERTURE LIST*
G04 #@! TA.AperFunction,ComponentPad*
%ADD10O,1.600000X1.000000*%
G04 #@! TD*
G04 #@! TA.AperFunction,ComponentPad*
%ADD11O,2.100000X1.000000*%
G04 #@! TD*
G04 #@! TA.AperFunction,ComponentPad*
%ADD12O,1.700000X1.700000*%
G04 #@! TD*
G04 #@! TA.AperFunction,ComponentPad*
%ADD13R,1.700000X1.700000*%
G04 #@! TD*
G04 #@! TA.AperFunction,ComponentPad*
%ADD14C,3.200000*%
G04 #@! TD*
G04 #@! TA.AperFunction,SMDPad,CuDef*
%ADD15R,2.000000X0.500000*%
G04 #@! TD*
G04 #@! TA.AperFunction,ViaPad*
%ADD16C,0.800000*%
G04 #@! TD*
G04 #@! TA.AperFunction,ViaPad*
%ADD17C,0.450000*%
G04 #@! TD*
G04 #@! TA.AperFunction,Conductor*
%ADD18C,0.200000*%
G04 #@! TD*
G04 #@! TA.AperFunction,Conductor*
%ADD19C,0.254000*%
G04 #@! TD*
G04 #@! TA.AperFunction,Conductor*
%ADD20C,0.100000*%
G04 #@! TD*
G04 APERTURE END LIST*
D10*
X127195000Y-97026000D03*
X127195000Y-88386000D03*
D11*
X131375000Y-97026000D03*
X131375000Y-88386000D03*
D12*
X171450000Y-82550000D03*
X168910000Y-82550000D03*
X166370000Y-82550000D03*
X163830000Y-82550000D03*
X161290000Y-82550000D03*
X158750000Y-82550000D03*
X156210000Y-82550000D03*
X153670000Y-82550000D03*
X151130000Y-82550000D03*
X148590000Y-82550000D03*
X146050000Y-82550000D03*
D13*
X143510000Y-82550000D03*
D12*
X171450000Y-102870000D03*
X168910000Y-102870000D03*
X166370000Y-102870000D03*
X163830000Y-102870000D03*
X161290000Y-102870000D03*
X158750000Y-102870000D03*
X156210000Y-102870000D03*
X153670000Y-102870000D03*
X151130000Y-102870000D03*
X148590000Y-102870000D03*
X146050000Y-102870000D03*
X143510000Y-102870000D03*
X140970000Y-102870000D03*
X138430000Y-102870000D03*
X135890000Y-102870000D03*
D13*
X133350000Y-102870000D03*
D14*
X129540000Y-83820000D03*
X129540000Y-101600000D03*
D15*
X142950000Y-96300000D03*
X146250000Y-96300000D03*
X142950000Y-95300000D03*
X146250000Y-95300000D03*
X142950000Y-94300000D03*
X146250000Y-94300000D03*
X142950000Y-93300000D03*
X146250000Y-93300000D03*
X142950000Y-92300000D03*
X146250000Y-92300000D03*
G04 #@! TA.AperFunction,SMDPad,CuDef*
G36*
G01*
X148950000Y-96405000D02*
X148950000Y-96105000D01*
G75*
G02*
X149100000Y-95955000I150000J0D01*
G01*
X150750000Y-95955000D01*
G75*
G02*
X150900000Y-96105000I0J-150000D01*
G01*
X150900000Y-96405000D01*
G75*
G02*
X150750000Y-96555000I-150000J0D01*
G01*
X149100000Y-96555000D01*
G75*
G02*
X148950000Y-96405000I0J150000D01*
G01*
G37*
G04 #@! TD.AperFunction*
G04 #@! TA.AperFunction,SMDPad,CuDef*
G36*
G01*
X148950000Y-95135000D02*
X148950000Y-94835000D01*
G75*
G02*
X149100000Y-94685000I150000J0D01*
G01*
X150750000Y-94685000D01*
G75*
G02*
X150900000Y-94835000I0J-150000D01*
G01*
X150900000Y-95135000D01*
G75*
G02*
X150750000Y-95285000I-150000J0D01*
G01*
X149100000Y-95285000D01*
G75*
G02*
X148950000Y-95135000I0J150000D01*
G01*
G37*
G04 #@! TD.AperFunction*
G04 #@! TA.AperFunction,SMDPad,CuDef*
G36*
G01*
X148950000Y-93865000D02*
X148950000Y-93565000D01*
G75*
G02*
X149100000Y-93415000I150000J0D01*
G01*
X150750000Y-93415000D01*
G75*
G02*
X150900000Y-93565000I0J-150000D01*
G01*
X150900000Y-93865000D01*
G75*
G02*
X150750000Y-94015000I-150000J0D01*
G01*
X149100000Y-94015000D01*
G75*
G02*
X148950000Y-93865000I0J150000D01*
G01*
G37*
G04 #@! TD.AperFunction*
G04 #@! TA.AperFunction,SMDPad,CuDef*
G36*
G01*
X148950000Y-92595000D02*
X148950000Y-92295000D01*
G75*
G02*
X149100000Y-92145000I150000J0D01*
G01*
X150750000Y-92145000D01*
G75*
G02*
X150900000Y-92295000I0J-150000D01*
G01*
X150900000Y-92595000D01*
G75*
G02*
X150750000Y-92745000I-150000J0D01*
G01*
X149100000Y-92745000D01*
G75*
G02*
X148950000Y-92595000I0J150000D01*
G01*
G37*
G04 #@! TD.AperFunction*
G04 #@! TA.AperFunction,SMDPad,CuDef*
G36*
G01*
X153900000Y-92595000D02*
X153900000Y-92295000D01*
G75*
G02*
X154050000Y-92145000I150000J0D01*
G01*
X155700000Y-92145000D01*
G75*
G02*
X155850000Y-92295000I0J-150000D01*
G01*
X155850000Y-92595000D01*
G75*
G02*
X155700000Y-92745000I-150000J0D01*
G01*
X154050000Y-92745000D01*
G75*
G02*
X153900000Y-92595000I0J150000D01*
G01*
G37*
G04 #@! TD.AperFunction*
G04 #@! TA.AperFunction,SMDPad,CuDef*
G36*
G01*
X153900000Y-93865000D02*
X153900000Y-93565000D01*
G75*
G02*
X154050000Y-93415000I150000J0D01*
G01*
X155700000Y-93415000D01*
G75*
G02*
X155850000Y-93565000I0J-150000D01*
G01*
X155850000Y-93865000D01*
G75*
G02*
X155700000Y-94015000I-150000J0D01*
G01*
X154050000Y-94015000D01*
G75*
G02*
X153900000Y-93865000I0J150000D01*
G01*
G37*
G04 #@! TD.AperFunction*
G04 #@! TA.AperFunction,SMDPad,CuDef*
G36*
G01*
X153900000Y-95135000D02*
X153900000Y-94835000D01*
G75*
G02*
X154050000Y-94685000I150000J0D01*
G01*
X155700000Y-94685000D01*
G75*
G02*
X155850000Y-94835000I0J-150000D01*
G01*
X155850000Y-95135000D01*
G75*
G02*
X155700000Y-95285000I-150000J0D01*
G01*
X154050000Y-95285000D01*
G75*
G02*
X153900000Y-95135000I0J150000D01*
G01*
G37*
G04 #@! TD.AperFunction*
G04 #@! TA.AperFunction,SMDPad,CuDef*
G36*
G01*
X153900000Y-96405000D02*
X153900000Y-96105000D01*
G75*
G02*
X154050000Y-95955000I150000J0D01*
G01*
X155700000Y-95955000D01*
G75*
G02*
X155850000Y-96105000I0J-150000D01*
G01*
X155850000Y-96405000D01*
G75*
G02*
X155700000Y-96555000I-150000J0D01*
G01*
X154050000Y-96555000D01*
G75*
G02*
X153900000Y-96405000I0J150000D01*
G01*
G37*
G04 #@! TD.AperFunction*
D16*
X136017000Y-86741000D03*
X137541000Y-86741000D03*
X141350000Y-88450000D03*
X130429000Y-91250000D03*
X130429000Y-94250000D03*
X144400000Y-90350000D03*
X140208000Y-93627010D03*
X133100000Y-95100000D03*
X133100000Y-90300000D03*
X149250000Y-89050000D03*
D17*
X161828144Y-99900002D03*
X166950002Y-99300000D03*
X170400002Y-86300000D03*
X159832082Y-89167918D03*
X169070864Y-96379145D03*
X147547990Y-96300000D03*
X144899998Y-95300000D03*
X156848941Y-95430413D03*
X159686680Y-100037048D03*
X149411334Y-98327906D03*
X169166551Y-95633449D03*
X168600000Y-97800000D03*
X168060527Y-97110527D03*
X132969000Y-83820000D03*
X167430357Y-97756783D03*
X149900000Y-83500000D03*
X152000000Y-89350000D03*
X158800000Y-100100000D03*
X158600000Y-98100000D03*
X158266399Y-95966399D03*
X157847999Y-96723050D03*
X157843285Y-95112136D03*
X156919143Y-96519145D03*
X163955311Y-100686967D03*
X162935807Y-99935807D03*
X133477000Y-100457000D03*
X143150000Y-89550000D03*
X164946181Y-98402010D03*
X159823888Y-99133036D03*
X160736588Y-99242748D03*
X165700000Y-98050000D03*
D16*
X141097000Y-86741000D03*
X135636000Y-93599000D03*
X137700000Y-97900000D03*
X144300000Y-99800000D03*
X164000000Y-94500000D03*
X162500000Y-94500000D03*
X162500000Y-93000000D03*
X164000000Y-93000000D03*
D17*
X170900000Y-93000000D03*
X170900000Y-94000000D03*
X170900000Y-95000000D03*
X170900000Y-96000000D03*
X170900000Y-97000000D03*
X170900000Y-98000000D03*
X169900000Y-93000000D03*
X170900000Y-91950000D03*
X169900000Y-91950000D03*
X168900000Y-91950000D03*
X170900000Y-90950000D03*
X170900000Y-89950000D03*
X170900000Y-88950000D03*
X170900000Y-87700000D03*
X170900000Y-85400000D03*
X170900000Y-84400000D03*
X166150000Y-84300000D03*
X170900000Y-99000000D03*
X170900000Y-100000000D03*
X170900000Y-101000000D03*
X164450000Y-88650000D03*
D16*
X153850000Y-87900000D03*
X139450000Y-86250000D03*
X144750000Y-87150000D03*
D17*
X140300000Y-89950000D03*
X135400000Y-90600000D03*
X153937504Y-85800004D03*
X157550000Y-85250000D03*
X157450000Y-88700000D03*
X152350000Y-100250000D03*
X155200000Y-98950000D03*
D16*
X155000000Y-87800000D03*
D17*
X168500000Y-85550000D03*
X159100000Y-92500000D03*
D16*
X143500000Y-98000000D03*
D17*
X168500000Y-87050000D03*
X168950000Y-88800000D03*
X148455380Y-94755380D03*
X168999996Y-94700000D03*
X165750000Y-99752010D03*
X161249994Y-88650000D03*
X152350000Y-98700004D03*
D16*
X159000000Y-97250000D03*
D17*
X155800000Y-96899998D03*
D18*
X163147577Y-99300000D02*
X166950002Y-99300000D01*
X162428146Y-99300000D02*
X163147577Y-99300000D01*
X161828144Y-99900002D02*
X162428146Y-99300000D01*
X170400000Y-86299998D02*
X170400002Y-86300000D01*
X170400000Y-83600000D02*
X170400000Y-86299998D01*
X171450000Y-82550000D02*
X170400000Y-83600000D01*
X166172989Y-94120510D02*
X166172989Y-89985600D01*
X170400002Y-86300000D02*
X170400002Y-96376581D01*
X170400002Y-96376581D02*
X169674581Y-97102002D01*
X166172989Y-89985600D02*
X165580306Y-89392917D01*
X169154481Y-97102002D02*
X166172989Y-94120510D01*
X165580306Y-89392917D02*
X160057081Y-89392917D01*
X160057081Y-89392917D02*
X159832082Y-89167918D01*
X169674581Y-97102002D02*
X169154481Y-97102002D01*
X169383512Y-95181448D02*
X169906784Y-95704718D01*
X167150000Y-93616896D02*
X168714552Y-95181448D01*
X167150000Y-84310000D02*
X167150000Y-93616896D01*
X169906784Y-95704718D02*
X169906784Y-95861423D01*
X169389062Y-96379145D02*
X169070864Y-96379145D01*
X169906784Y-95861423D02*
X169389062Y-96379145D01*
X168910000Y-82550000D02*
X167150000Y-84310000D01*
X168714552Y-95181448D02*
X169383512Y-95181448D01*
X146250000Y-96300000D02*
X147547990Y-96300000D01*
X146250000Y-95300000D02*
X144899998Y-95300000D01*
X159390866Y-100037048D02*
X159686680Y-100037048D01*
X160077001Y-97700965D02*
X159044867Y-98733099D01*
X158036760Y-94660134D02*
X160077001Y-96700375D01*
X156856044Y-95430413D02*
X157626323Y-94660134D01*
X159044867Y-98733099D02*
X159044867Y-99691049D01*
X160077001Y-96700375D02*
X160077001Y-97700965D01*
X157626323Y-94660134D02*
X158036760Y-94660134D01*
X159044867Y-99691049D02*
X159390866Y-100037048D01*
X156848941Y-95430413D02*
X156856044Y-95430413D01*
X146250000Y-92300000D02*
X147450000Y-92300000D01*
X148000000Y-92850000D02*
X148000000Y-96916572D01*
X147450000Y-92300000D02*
X148000000Y-92850000D01*
X148000000Y-96916572D02*
X149411334Y-98327906D01*
X158750000Y-82550000D02*
X159337822Y-82550000D01*
X166500000Y-93605312D02*
X168528137Y-95633449D01*
X166500000Y-89400000D02*
X166500000Y-93605312D01*
X166000000Y-88900000D02*
X166500000Y-89400000D01*
X168528137Y-95633449D02*
X169166551Y-95633449D01*
X159599999Y-84999999D02*
X163500000Y-88900000D01*
X163500000Y-88900000D02*
X166000000Y-88900000D01*
X159599999Y-83399999D02*
X159599999Y-84999999D01*
X158750000Y-82550000D02*
X159599999Y-83399999D01*
X156424926Y-82550000D02*
X159131001Y-85256075D01*
X159131001Y-85256075D02*
X159131001Y-89106076D01*
X165470904Y-89745978D02*
X165845978Y-90121052D01*
X156210000Y-82550000D02*
X156424926Y-82550000D01*
X159770903Y-89745978D02*
X165470904Y-89745978D01*
X168600000Y-97009984D02*
X168600000Y-97800000D01*
X159131001Y-89106076D02*
X159770903Y-89745978D01*
X165845978Y-90121052D02*
X165845978Y-94255962D01*
X165845978Y-94255962D02*
X168600000Y-97009984D01*
X153670000Y-82550000D02*
X154845001Y-83725000D01*
X159635451Y-90072988D02*
X165327408Y-90072989D01*
X157137463Y-83725000D02*
X158680992Y-85268529D01*
X154845001Y-83725000D02*
X157137463Y-83725000D01*
X158680992Y-85268529D02*
X158680992Y-89118529D01*
X165327408Y-90072989D02*
X165518967Y-90264548D01*
X165518967Y-94568967D02*
X168060527Y-97110527D01*
X165518967Y-90264548D02*
X165518967Y-94568967D01*
X158680992Y-89118529D02*
X159635451Y-90072988D01*
X148861040Y-83820000D02*
X132969000Y-83820000D01*
X151130000Y-82550000D02*
X150131040Y-82550000D01*
X150131040Y-82550000D02*
X148861040Y-83820000D01*
X165191956Y-95518382D02*
X167430357Y-97756783D01*
X161456351Y-90400000D02*
X165191956Y-90400000D01*
X160201683Y-90408034D02*
X161448317Y-90408034D01*
X159500000Y-90399999D02*
X160199676Y-90399999D01*
X158353981Y-85403981D02*
X158353981Y-89253980D01*
X154709550Y-84052011D02*
X157002011Y-84052011D01*
X152700000Y-83700000D02*
X154357539Y-83700000D01*
X151550000Y-82550000D02*
X152700000Y-83700000D01*
X165191956Y-90400000D02*
X165191956Y-95518382D01*
X157002011Y-84052011D02*
X158353981Y-85403981D01*
X151130000Y-82550000D02*
X151550000Y-82550000D01*
X154357539Y-83700000D02*
X154709550Y-84052011D01*
X160199676Y-90406027D02*
X160201683Y-90408034D01*
X161448317Y-90408034D02*
X161456351Y-90400000D01*
X160199676Y-90399999D02*
X160199676Y-90406027D01*
X158353981Y-89253980D02*
X159500000Y-90399999D01*
X152000000Y-85600000D02*
X152000000Y-89350000D01*
X149900000Y-83500000D02*
X152000000Y-85600000D01*
X158800000Y-100100000D02*
X158600000Y-99900000D01*
X158600000Y-99900000D02*
X158600000Y-98100000D01*
X159465623Y-100484955D02*
X159184955Y-100484955D01*
X169141967Y-101138977D02*
X163220013Y-101138977D01*
X159184955Y-100484955D02*
X158800000Y-100100000D01*
X162570086Y-100489050D02*
X159469718Y-100489050D01*
X170872990Y-102870000D02*
X169141967Y-101138977D01*
X159469718Y-100489050D02*
X159465623Y-100484955D01*
X163220013Y-101138977D02*
X162570086Y-100489050D01*
X157986092Y-97253921D02*
X158491398Y-96748615D01*
X167505988Y-101465988D02*
X163084561Y-101465988D01*
X158491398Y-96748615D02*
X158491398Y-96191398D01*
X157986092Y-99958648D02*
X157986092Y-97253921D01*
X162434634Y-100816061D02*
X159334266Y-100816061D01*
X159330171Y-100811966D02*
X158839410Y-100811966D01*
X158491398Y-96191398D02*
X158266399Y-95966399D01*
X158839410Y-100811966D02*
X157986092Y-99958648D01*
X168910000Y-102870000D02*
X167505988Y-101465988D01*
X159334266Y-100816061D02*
X159330171Y-100811966D01*
X163084561Y-101465988D02*
X162434634Y-100816061D01*
X157623000Y-96948049D02*
X157847999Y-96723050D01*
X165292999Y-101792999D02*
X162949109Y-101792999D01*
X162299182Y-101143072D02*
X159198814Y-101143072D01*
X158703958Y-101138977D02*
X157623000Y-100058019D01*
X166370000Y-102870000D02*
X165292999Y-101792999D01*
X159198814Y-101143072D02*
X159194719Y-101138977D01*
X159194719Y-101138977D02*
X158703958Y-101138977D01*
X162949109Y-101792999D02*
X162299182Y-101143072D01*
X157623000Y-100058019D02*
X157623000Y-96948049D01*
X157396146Y-96711106D02*
X157396146Y-95559275D01*
X163563647Y-102870000D02*
X162163730Y-101470083D01*
X158568506Y-101465988D02*
X157106024Y-100003506D01*
X162163730Y-101470083D02*
X159063362Y-101470083D01*
X159063362Y-101470083D02*
X159059267Y-101465988D01*
X157396146Y-95559275D02*
X157843285Y-95112136D01*
X157106024Y-97001227D02*
X157396146Y-96711106D01*
X157106024Y-100003506D02*
X157106024Y-97001227D01*
X159059267Y-101465988D02*
X158568506Y-101465988D01*
X163830000Y-102870000D02*
X163563647Y-102870000D01*
X156619145Y-101247145D02*
X156619145Y-97362282D01*
X160217094Y-101797094D02*
X158927910Y-101797094D01*
X156619145Y-97362282D02*
X156779013Y-97202414D01*
X158927910Y-101797094D02*
X158923815Y-101792999D01*
X156779013Y-96659275D02*
X156919143Y-96519145D01*
X161290000Y-102870000D02*
X160217094Y-101797094D01*
X157164999Y-101792999D02*
X156619145Y-101247145D01*
X156779013Y-97202414D02*
X156779013Y-96659275D01*
X158923815Y-101792999D02*
X157164999Y-101792999D01*
X163204151Y-99935807D02*
X162935807Y-99935807D01*
X163955311Y-100686967D02*
X163204151Y-99935807D01*
X133477000Y-99223000D02*
X143150000Y-89550000D01*
X133477000Y-100457000D02*
X133477000Y-99223000D01*
X160952026Y-100129012D02*
X162679028Y-98402010D01*
X156352002Y-95148770D02*
X156873761Y-94627011D01*
X156873761Y-94627011D02*
X157196983Y-94627011D01*
X159926016Y-99585038D02*
X160469990Y-100129012D01*
X160469990Y-100129012D02*
X160952026Y-100129012D01*
X162679028Y-98402010D02*
X164946181Y-98402010D01*
X159371878Y-99349990D02*
X159606926Y-99585038D01*
X156352002Y-97016964D02*
X156352002Y-95148770D01*
X156016962Y-97352004D02*
X156352002Y-97016964D01*
X160404012Y-96541436D02*
X160404012Y-97880331D01*
X159606926Y-99585038D02*
X159926016Y-99585038D01*
X151022004Y-97352004D02*
X156016962Y-97352004D01*
X159371878Y-98912465D02*
X159371878Y-99349990D01*
X157196983Y-94627011D02*
X157490871Y-94333123D01*
X149925000Y-96255000D02*
X151022004Y-97352004D01*
X157490871Y-94333123D02*
X158195699Y-94333123D01*
X160404012Y-97880331D02*
X159371878Y-98912465D01*
X158195699Y-94333123D02*
X160404012Y-96541436D01*
X150750000Y-95107000D02*
X149209000Y-95107000D01*
X159823888Y-99044686D02*
X159823888Y-99133036D01*
X157355419Y-94006112D02*
X158331151Y-94006112D01*
X157061532Y-94300000D02*
X157355419Y-94006112D01*
X160731023Y-98137551D02*
X159823888Y-99044686D01*
X160731023Y-96405984D02*
X160731023Y-98137551D01*
X150885451Y-94779990D02*
X151365441Y-94300000D01*
X158331151Y-94006112D02*
X160731023Y-96405984D01*
X151365441Y-94300000D02*
X157061532Y-94300000D01*
X149925000Y-94779990D02*
X150885451Y-94779990D01*
X157694965Y-92445000D02*
X161385045Y-96135080D01*
X161385045Y-96135080D02*
X161385045Y-98594291D01*
X161385045Y-98594291D02*
X160736588Y-99242748D01*
X154875000Y-92445000D02*
X157694965Y-92445000D01*
X161058034Y-96270532D02*
X161058034Y-98273003D01*
X160284583Y-99481142D02*
X160605442Y-99802001D01*
X165475001Y-97825001D02*
X165700000Y-98050000D01*
X160605442Y-99802001D02*
X160816574Y-99802001D01*
X154875000Y-93715000D02*
X155175000Y-93415000D01*
X155175000Y-93415000D02*
X158202502Y-93415000D01*
X160816574Y-99802001D02*
X162793574Y-97825001D01*
X161058034Y-98273003D02*
X160284583Y-99046454D01*
X158202502Y-93415000D02*
X161058034Y-96270532D01*
X162793574Y-97825001D02*
X165475001Y-97825001D01*
X160284583Y-99046454D02*
X160284583Y-99481142D01*
X155194000Y-90424000D02*
X152433000Y-90424000D01*
X162179000Y-92583000D02*
X162572000Y-92976000D01*
X160339000Y-92583000D02*
X162179000Y-92583000D01*
X143700000Y-97800000D02*
X143500000Y-98000000D01*
X143500000Y-96850000D02*
X142950000Y-96300000D01*
X143500000Y-98000000D02*
X143500000Y-96850000D01*
X148950000Y-93715000D02*
X148455380Y-94209620D01*
X149925000Y-93715000D02*
X148950000Y-93715000D01*
X148455380Y-94209620D02*
X148455380Y-94755380D01*
X154875000Y-96255000D02*
X154875000Y-94985000D01*
X158742707Y-97107299D02*
X158750000Y-97100006D01*
X158750000Y-97100006D02*
X159150006Y-97100006D01*
X154875000Y-96255000D02*
X155519998Y-96899998D01*
X155519998Y-96899998D02*
X155800000Y-96899998D01*
D19*
X142021928Y-83085000D02*
X133416954Y-83085000D01*
X133376363Y-83057878D01*
X133219853Y-82993049D01*
X133053703Y-82960000D01*
X132884297Y-82960000D01*
X132718147Y-82993049D01*
X132561637Y-83057878D01*
X132420782Y-83151995D01*
X132300995Y-83271782D01*
X132206878Y-83412637D01*
X132142049Y-83569147D01*
X132109000Y-83735297D01*
X132109000Y-83904703D01*
X132142049Y-84070853D01*
X132206878Y-84227363D01*
X132300995Y-84368218D01*
X132420782Y-84488005D01*
X132561637Y-84582122D01*
X132718147Y-84646951D01*
X132884297Y-84680000D01*
X133053703Y-84680000D01*
X133219853Y-84646951D01*
X133376363Y-84582122D01*
X133416954Y-84555000D01*
X148824935Y-84555000D01*
X148861040Y-84558556D01*
X148897145Y-84555000D01*
X149005125Y-84544365D01*
X149143673Y-84502337D01*
X149271360Y-84434087D01*
X149383278Y-84342238D01*
X149406298Y-84314188D01*
X149472092Y-84248394D01*
X149492637Y-84262122D01*
X149649147Y-84326951D01*
X149697029Y-84336475D01*
X151265000Y-85904447D01*
X151265001Y-88902045D01*
X151237878Y-88942637D01*
X151173049Y-89099147D01*
X151140000Y-89265297D01*
X151140000Y-89434703D01*
X151173049Y-89600853D01*
X151237878Y-89757363D01*
X151331995Y-89898218D01*
X151451782Y-90018005D01*
X151592637Y-90112122D01*
X151749147Y-90176951D01*
X151915297Y-90210000D01*
X152084703Y-90210000D01*
X152250853Y-90176951D01*
X152407363Y-90112122D01*
X152548218Y-90018005D01*
X152668005Y-89898218D01*
X152762122Y-89757363D01*
X152826951Y-89600853D01*
X152860000Y-89434703D01*
X152860000Y-89265297D01*
X152826951Y-89099147D01*
X152762122Y-88942637D01*
X152735000Y-88902046D01*
X152735000Y-87698061D01*
X153965000Y-87698061D01*
X153965000Y-87901939D01*
X154004774Y-88101898D01*
X154082795Y-88290256D01*
X154196063Y-88459774D01*
X154340226Y-88603937D01*
X154509744Y-88717205D01*
X154698102Y-88795226D01*
X154898061Y-88835000D01*
X155101939Y-88835000D01*
X155301898Y-88795226D01*
X155490256Y-88717205D01*
X155659774Y-88603937D01*
X155803937Y-88459774D01*
X155917205Y-88290256D01*
X155995226Y-88101898D01*
X156035000Y-87901939D01*
X156035000Y-87698061D01*
X155995226Y-87498102D01*
X155917205Y-87309744D01*
X155803937Y-87140226D01*
X155659774Y-86996063D01*
X155490256Y-86882795D01*
X155301898Y-86804774D01*
X155101939Y-86765000D01*
X154898061Y-86765000D01*
X154698102Y-86804774D01*
X154509744Y-86882795D01*
X154340226Y-86996063D01*
X154196063Y-87140226D01*
X154082795Y-87309744D01*
X154004774Y-87498102D01*
X153965000Y-87698061D01*
X152735000Y-87698061D01*
X152735000Y-85636094D01*
X152738555Y-85599999D01*
X152735000Y-85563904D01*
X152735000Y-85563895D01*
X152724365Y-85455915D01*
X152682337Y-85317367D01*
X152614087Y-85189680D01*
X152576667Y-85144084D01*
X152545253Y-85105806D01*
X152545250Y-85105803D01*
X152522237Y-85077762D01*
X152494197Y-85054750D01*
X151441565Y-84002119D01*
X151563158Y-83977932D01*
X151828555Y-83868001D01*
X152154746Y-84194193D01*
X152177762Y-84222238D01*
X152284700Y-84310000D01*
X152289680Y-84314087D01*
X152417366Y-84382337D01*
X152555915Y-84424365D01*
X152700000Y-84438556D01*
X152736105Y-84435000D01*
X154053093Y-84435000D01*
X154164291Y-84546198D01*
X154187312Y-84574249D01*
X154299230Y-84666098D01*
X154325239Y-84680000D01*
X154426916Y-84734348D01*
X154565465Y-84776376D01*
X154709550Y-84790567D01*
X154745655Y-84787011D01*
X156697565Y-84787011D01*
X157618981Y-85708428D01*
X157618982Y-89217865D01*
X157615425Y-89253980D01*
X157629616Y-89398065D01*
X157669290Y-89528849D01*
X157671645Y-89536613D01*
X157739895Y-89664300D01*
X157831744Y-89776218D01*
X157859789Y-89799234D01*
X158954746Y-90894192D01*
X158977762Y-90922237D01*
X159076297Y-91003103D01*
X159089680Y-91014086D01*
X159217366Y-91082336D01*
X159355915Y-91124364D01*
X159500000Y-91138555D01*
X159536105Y-91134999D01*
X160083996Y-91134999D01*
X160165578Y-91143034D01*
X160165587Y-91143034D01*
X160201682Y-91146589D01*
X160237777Y-91143034D01*
X161412212Y-91143034D01*
X161448317Y-91146590D01*
X161484422Y-91143034D01*
X161565993Y-91135000D01*
X164456956Y-91135000D01*
X164456957Y-95482267D01*
X164453400Y-95518382D01*
X164467591Y-95662467D01*
X164506357Y-95790258D01*
X164509620Y-95801015D01*
X164577870Y-95928702D01*
X164669719Y-96040620D01*
X164697764Y-96063636D01*
X165798790Y-97164662D01*
X165757634Y-97142664D01*
X165619086Y-97100636D01*
X165511106Y-97090001D01*
X165475001Y-97086445D01*
X165438896Y-97090001D01*
X162829668Y-97090001D01*
X162793573Y-97086446D01*
X162757478Y-97090001D01*
X162757469Y-97090001D01*
X162649489Y-97100636D01*
X162510941Y-97142664D01*
X162383254Y-97210914D01*
X162271336Y-97302763D01*
X162248320Y-97330808D01*
X162120045Y-97459083D01*
X162120045Y-96171176D01*
X162123600Y-96135079D01*
X162120045Y-96098982D01*
X162120045Y-96098975D01*
X162109410Y-95990995D01*
X162108305Y-95987350D01*
X162081057Y-95897528D01*
X162067382Y-95852447D01*
X161999132Y-95724760D01*
X161974089Y-95694245D01*
X161930298Y-95640886D01*
X161930295Y-95640883D01*
X161907282Y-95612842D01*
X161879242Y-95589830D01*
X159533841Y-93244430D01*
X159648218Y-93168005D01*
X159768005Y-93048218D01*
X159862122Y-92907363D01*
X159926951Y-92750853D01*
X159960000Y-92584703D01*
X159960000Y-92415297D01*
X159926951Y-92249147D01*
X159862122Y-92092637D01*
X159768005Y-91951782D01*
X159648218Y-91831995D01*
X159507363Y-91737878D01*
X159350853Y-91673049D01*
X159184703Y-91640000D01*
X159015297Y-91640000D01*
X158849147Y-91673049D01*
X158692637Y-91737878D01*
X158551782Y-91831995D01*
X158431995Y-91951782D01*
X158355570Y-92066159D01*
X158240224Y-91950813D01*
X158217203Y-91922762D01*
X158105285Y-91830913D01*
X157977598Y-91762663D01*
X157839050Y-91720635D01*
X157731070Y-91710000D01*
X157694965Y-91706444D01*
X157658860Y-91710000D01*
X156223439Y-91710000D01*
X156137829Y-91639742D01*
X156001582Y-91566916D01*
X155853745Y-91522071D01*
X155700000Y-91506928D01*
X154050000Y-91506928D01*
X153896255Y-91522071D01*
X153748418Y-91566916D01*
X153612171Y-91639742D01*
X153492749Y-91737749D01*
X153394742Y-91857171D01*
X153321916Y-91993418D01*
X153277071Y-92141255D01*
X153261928Y-92295000D01*
X153261928Y-92595000D01*
X153277071Y-92748745D01*
X153321916Y-92896582D01*
X153394742Y-93032829D01*
X153433454Y-93080000D01*
X153394742Y-93127171D01*
X153321916Y-93263418D01*
X153277071Y-93411255D01*
X153261928Y-93565000D01*
X151538072Y-93565000D01*
X151522929Y-93411255D01*
X151478084Y-93263418D01*
X151406270Y-93129064D01*
X151430537Y-93099494D01*
X151489502Y-92989180D01*
X151525812Y-92869482D01*
X151538072Y-92745000D01*
X151535000Y-92730750D01*
X151376250Y-92572000D01*
X150052000Y-92572000D01*
X150052000Y-92592000D01*
X149798000Y-92592000D01*
X149798000Y-92572000D01*
X149778000Y-92572000D01*
X149778000Y-92318000D01*
X149798000Y-92318000D01*
X149798000Y-91668750D01*
X150052000Y-91668750D01*
X150052000Y-92318000D01*
X151376250Y-92318000D01*
X151535000Y-92159250D01*
X151538072Y-92145000D01*
X151525812Y-92020518D01*
X151489502Y-91900820D01*
X151430537Y-91790506D01*
X151351185Y-91693815D01*
X151254494Y-91614463D01*
X151144180Y-91555498D01*
X151024482Y-91519188D01*
X150900000Y-91506928D01*
X150210750Y-91510000D01*
X150052000Y-91668750D01*
X149798000Y-91668750D01*
X149639250Y-91510000D01*
X148950000Y-91506928D01*
X148825518Y-91519188D01*
X148705820Y-91555498D01*
X148595506Y-91614463D01*
X148498815Y-91693815D01*
X148419463Y-91790506D01*
X148360498Y-91900820D01*
X148324188Y-92020518D01*
X148313947Y-92124500D01*
X147995258Y-91805812D01*
X147972238Y-91777762D01*
X147860320Y-91685913D01*
X147732633Y-91617663D01*
X147711356Y-91611209D01*
X147701185Y-91598815D01*
X147604494Y-91519463D01*
X147494180Y-91460498D01*
X147374482Y-91424188D01*
X147250000Y-91411928D01*
X145250000Y-91411928D01*
X145125518Y-91424188D01*
X145005820Y-91460498D01*
X144895506Y-91519463D01*
X144798815Y-91598815D01*
X144719463Y-91695506D01*
X144660498Y-91805820D01*
X144624188Y-91925518D01*
X144611928Y-92050000D01*
X144611928Y-92550000D01*
X144624188Y-92674482D01*
X144660498Y-92794180D01*
X144663609Y-92800000D01*
X144660498Y-92805820D01*
X144624188Y-92925518D01*
X144611928Y-93050000D01*
X144611928Y-93550000D01*
X144624188Y-93674482D01*
X144660498Y-93794180D01*
X144663609Y-93800000D01*
X144660498Y-93805820D01*
X144624188Y-93925518D01*
X144611928Y-94050000D01*
X144611928Y-94488465D01*
X144526925Y-94523675D01*
X144426250Y-94423000D01*
X144067849Y-94423000D01*
X144066933Y-94422734D01*
X143942312Y-94411974D01*
X143235750Y-94415000D01*
X143227750Y-94423000D01*
X143077000Y-94423000D01*
X143077000Y-95177000D01*
X143097000Y-95177000D01*
X143097000Y-95411928D01*
X141950000Y-95411928D01*
X141837580Y-95423000D01*
X141473750Y-95423000D01*
X141315000Y-95581750D01*
X141325734Y-95682013D01*
X141363279Y-95800618D01*
X141360498Y-95805820D01*
X141324188Y-95925518D01*
X141311928Y-96050000D01*
X141311928Y-96550000D01*
X141324188Y-96674482D01*
X141360498Y-96794180D01*
X141419463Y-96904494D01*
X141498815Y-97001185D01*
X141595506Y-97080537D01*
X141705820Y-97139502D01*
X141825518Y-97175812D01*
X141950000Y-97188072D01*
X142765001Y-97188072D01*
X142765001Y-97271288D01*
X142696063Y-97340226D01*
X142582795Y-97509744D01*
X142504774Y-97698102D01*
X142465000Y-97898061D01*
X142465000Y-98101939D01*
X142504774Y-98301898D01*
X142582795Y-98490256D01*
X142696063Y-98659774D01*
X142840226Y-98803937D01*
X143009744Y-98917205D01*
X143198102Y-98995226D01*
X143398061Y-99035000D01*
X143601939Y-99035000D01*
X143801898Y-98995226D01*
X143990256Y-98917205D01*
X144159774Y-98803937D01*
X144303937Y-98659774D01*
X144417205Y-98490256D01*
X144495226Y-98301898D01*
X144535000Y-98101939D01*
X144535000Y-97898061D01*
X144495226Y-97698102D01*
X144417205Y-97509744D01*
X144303937Y-97340226D01*
X144235000Y-97271289D01*
X144235000Y-97117683D01*
X144304494Y-97080537D01*
X144401185Y-97001185D01*
X144480537Y-96904494D01*
X144539502Y-96794180D01*
X144575812Y-96674482D01*
X144588072Y-96550000D01*
X144588072Y-96101654D01*
X144611928Y-96111535D01*
X144611928Y-96550000D01*
X144624188Y-96674482D01*
X144660498Y-96794180D01*
X144719463Y-96904494D01*
X144798815Y-97001185D01*
X144895506Y-97080537D01*
X145005820Y-97139502D01*
X145125518Y-97175812D01*
X145250000Y-97188072D01*
X147250000Y-97188072D01*
X147312422Y-97181924D01*
X147317664Y-97199205D01*
X147385914Y-97326892D01*
X147477763Y-97438810D01*
X147505808Y-97461826D01*
X148574859Y-98530878D01*
X148584383Y-98578759D01*
X148649212Y-98735269D01*
X148743329Y-98876124D01*
X148863116Y-98995911D01*
X149003971Y-99090028D01*
X149160481Y-99154857D01*
X149326631Y-99187906D01*
X149496037Y-99187906D01*
X149662187Y-99154857D01*
X149818697Y-99090028D01*
X149959552Y-98995911D01*
X150079339Y-98876124D01*
X150173456Y-98735269D01*
X150238285Y-98578759D01*
X150271334Y-98412609D01*
X150271334Y-98243203D01*
X150238285Y-98077053D01*
X150173456Y-97920543D01*
X150079339Y-97779688D01*
X149959552Y-97659901D01*
X149818697Y-97565784D01*
X149662187Y-97500955D01*
X149614306Y-97491431D01*
X149315947Y-97193072D01*
X149823626Y-97193072D01*
X150476750Y-97846197D01*
X150499766Y-97874242D01*
X150611684Y-97966091D01*
X150739371Y-98034341D01*
X150836798Y-98063895D01*
X150877919Y-98076369D01*
X151022004Y-98090560D01*
X151058109Y-98087004D01*
X151746777Y-98087004D01*
X151681995Y-98151786D01*
X151587878Y-98292641D01*
X151523049Y-98449151D01*
X151490000Y-98615301D01*
X151490000Y-98784707D01*
X151523049Y-98950857D01*
X151587878Y-99107367D01*
X151681995Y-99248222D01*
X151801782Y-99368009D01*
X151942637Y-99462126D01*
X152099147Y-99526955D01*
X152265297Y-99560004D01*
X152434703Y-99560004D01*
X152600853Y-99526955D01*
X152757363Y-99462126D01*
X152898218Y-99368009D01*
X153018005Y-99248222D01*
X153112122Y-99107367D01*
X153176951Y-98950857D01*
X153210000Y-98784707D01*
X153210000Y-98615301D01*
X153176951Y-98449151D01*
X153112122Y-98292641D01*
X153018005Y-98151786D01*
X152953223Y-98087004D01*
X155884146Y-98087004D01*
X155884145Y-101211040D01*
X155880589Y-101247145D01*
X155894780Y-101391230D01*
X155900878Y-101411332D01*
X155902613Y-101417050D01*
X155776842Y-101442068D01*
X155506589Y-101554010D01*
X155263368Y-101716525D01*
X155056525Y-101923368D01*
X154940000Y-102097760D01*
X154823475Y-101923368D01*
X154616632Y-101716525D01*
X154373411Y-101554010D01*
X154103158Y-101442068D01*
X153816260Y-101385000D01*
X153523740Y-101385000D01*
X153236842Y-101442068D01*
X152966589Y-101554010D01*
X152723368Y-101716525D01*
X152516525Y-101923368D01*
X152400000Y-102097760D01*
X152283475Y-101923368D01*
X152076632Y-101716525D01*
X151833411Y-101554010D01*
X151563158Y-101442068D01*
X151276260Y-101385000D01*
X150983740Y-101385000D01*
X150696842Y-101442068D01*
X150426589Y-101554010D01*
X150183368Y-101716525D01*
X149976525Y-101923368D01*
X149860000Y-102097760D01*
X149743475Y-101923368D01*
X149536632Y-101716525D01*
X149293411Y-101554010D01*
X149023158Y-101442068D01*
X148736260Y-101385000D01*
X148443740Y-101385000D01*
X148156842Y-101442068D01*
X147886589Y-101554010D01*
X147643368Y-101716525D01*
X147436525Y-101923368D01*
X147320000Y-102097760D01*
X147203475Y-101923368D01*
X146996632Y-101716525D01*
X146753411Y-101554010D01*
X146483158Y-101442068D01*
X146196260Y-101385000D01*
X145903740Y-101385000D01*
X145616842Y-101442068D01*
X145346589Y-101554010D01*
X145103368Y-101716525D01*
X144896525Y-101923368D01*
X144780000Y-102097760D01*
X144663475Y-101923368D01*
X144456632Y-101716525D01*
X144213411Y-101554010D01*
X143943158Y-101442068D01*
X143656260Y-101385000D01*
X143363740Y-101385000D01*
X143076842Y-101442068D01*
X142806589Y-101554010D01*
X142563368Y-101716525D01*
X142356525Y-101923368D01*
X142234805Y-102105534D01*
X142165178Y-101988645D01*
X141970269Y-101772412D01*
X141736920Y-101598359D01*
X141474099Y-101473175D01*
X141326890Y-101428524D01*
X141097000Y-101549845D01*
X141097000Y-102743000D01*
X141117000Y-102743000D01*
X141117000Y-102997000D01*
X141097000Y-102997000D01*
X141097000Y-103017000D01*
X140843000Y-103017000D01*
X140843000Y-102997000D01*
X140823000Y-102997000D01*
X140823000Y-102743000D01*
X140843000Y-102743000D01*
X140843000Y-101549845D01*
X140613110Y-101428524D01*
X140465901Y-101473175D01*
X140203080Y-101598359D01*
X139969731Y-101772412D01*
X139774822Y-101988645D01*
X139705195Y-102105534D01*
X139583475Y-101923368D01*
X139376632Y-101716525D01*
X139133411Y-101554010D01*
X138863158Y-101442068D01*
X138576260Y-101385000D01*
X138283740Y-101385000D01*
X137996842Y-101442068D01*
X137726589Y-101554010D01*
X137483368Y-101716525D01*
X137276525Y-101923368D01*
X137160000Y-102097760D01*
X137043475Y-101923368D01*
X136836632Y-101716525D01*
X136593411Y-101554010D01*
X136323158Y-101442068D01*
X136036260Y-101385000D01*
X135743740Y-101385000D01*
X135456842Y-101442068D01*
X135186589Y-101554010D01*
X134943368Y-101716525D01*
X134811513Y-101848380D01*
X134789502Y-101775820D01*
X134730537Y-101665506D01*
X134651185Y-101568815D01*
X134554494Y-101489463D01*
X134444180Y-101430498D01*
X134324482Y-101394188D01*
X134200000Y-101381928D01*
X132500000Y-101381928D01*
X132375518Y-101394188D01*
X132255820Y-101430498D01*
X132145506Y-101489463D01*
X132048815Y-101568815D01*
X131969463Y-101665506D01*
X131910498Y-101775820D01*
X131874188Y-101895518D01*
X131861928Y-102020000D01*
X131861928Y-103430000D01*
X130824105Y-103430000D01*
X130964729Y-103336038D01*
X131276038Y-103024729D01*
X131520631Y-102658669D01*
X131689110Y-102251925D01*
X131775000Y-101820128D01*
X131775000Y-101379872D01*
X131689110Y-100948075D01*
X131520631Y-100541331D01*
X131407687Y-100372297D01*
X132617000Y-100372297D01*
X132617000Y-100541703D01*
X132650049Y-100707853D01*
X132714878Y-100864363D01*
X132808995Y-101005218D01*
X132928782Y-101125005D01*
X133069637Y-101219122D01*
X133226147Y-101283951D01*
X133392297Y-101317000D01*
X133561703Y-101317000D01*
X133727853Y-101283951D01*
X133884363Y-101219122D01*
X134025218Y-101125005D01*
X134145005Y-101005218D01*
X134239122Y-100864363D01*
X134303951Y-100707853D01*
X134337000Y-100541703D01*
X134337000Y-100372297D01*
X134303951Y-100206147D01*
X134239122Y-100049637D01*
X134212000Y-100009046D01*
X134212000Y-99527446D01*
X139428363Y-94311084D01*
X139548226Y-94430947D01*
X139717744Y-94544215D01*
X139906102Y-94622236D01*
X140106061Y-94662010D01*
X140309939Y-94662010D01*
X140509898Y-94622236D01*
X140607639Y-94581750D01*
X141315000Y-94581750D01*
X141325734Y-94682013D01*
X141363083Y-94800000D01*
X141325734Y-94917987D01*
X141315000Y-95018250D01*
X141473750Y-95177000D01*
X141832151Y-95177000D01*
X141833067Y-95177266D01*
X141957688Y-95188026D01*
X142664250Y-95185000D01*
X142672250Y-95177000D01*
X142823000Y-95177000D01*
X142823000Y-94423000D01*
X142672250Y-94423000D01*
X142664250Y-94415000D01*
X141957688Y-94411974D01*
X141833067Y-94422734D01*
X141832151Y-94423000D01*
X141473750Y-94423000D01*
X141315000Y-94581750D01*
X140607639Y-94581750D01*
X140698256Y-94544215D01*
X140867774Y-94430947D01*
X141011937Y-94286784D01*
X141125205Y-94117266D01*
X141203226Y-93928908D01*
X141243000Y-93728949D01*
X141243000Y-93525071D01*
X141203226Y-93325112D01*
X141125205Y-93136754D01*
X141011937Y-92967236D01*
X140892074Y-92847373D01*
X141315000Y-92424447D01*
X141315000Y-92427002D01*
X141469748Y-92427002D01*
X141315000Y-92581750D01*
X141325734Y-92682013D01*
X141363279Y-92800618D01*
X141360498Y-92805820D01*
X141324188Y-92925518D01*
X141311928Y-93050000D01*
X141311928Y-93550000D01*
X141324188Y-93674482D01*
X141360498Y-93794180D01*
X141363279Y-93799382D01*
X141325734Y-93917987D01*
X141315000Y-94018250D01*
X141473750Y-94177000D01*
X141837580Y-94177000D01*
X141950000Y-94188072D01*
X143950000Y-94188072D01*
X144062420Y-94177000D01*
X144426250Y-94177000D01*
X144585000Y-94018250D01*
X144574266Y-93917987D01*
X144536721Y-93799382D01*
X144539502Y-93794180D01*
X144575812Y-93674482D01*
X144588072Y-93550000D01*
X144588072Y-93050000D01*
X144575812Y-92925518D01*
X144539502Y-92805820D01*
X144536721Y-92800618D01*
X144574266Y-92682013D01*
X144585000Y-92581750D01*
X144426250Y-92423000D01*
X144062420Y-92423000D01*
X143950000Y-92411928D01*
X142803000Y-92411928D01*
X142803000Y-92177000D01*
X142823000Y-92177000D01*
X142823000Y-91573750D01*
X143077000Y-91573750D01*
X143077000Y-92177000D01*
X144426250Y-92177000D01*
X144585000Y-92018250D01*
X144574266Y-91917987D01*
X144536517Y-91798736D01*
X144476228Y-91689140D01*
X144395716Y-91593412D01*
X144298076Y-91515230D01*
X144187059Y-91457599D01*
X144066933Y-91422734D01*
X143942312Y-91411974D01*
X143235750Y-91415000D01*
X143077000Y-91573750D01*
X142823000Y-91573750D01*
X142664250Y-91415000D01*
X142325896Y-91413551D01*
X143352972Y-90386475D01*
X143365000Y-90384083D01*
X143365000Y-90451939D01*
X143404774Y-90651898D01*
X143482795Y-90840256D01*
X143596063Y-91009774D01*
X143740226Y-91153937D01*
X143909744Y-91267205D01*
X144098102Y-91345226D01*
X144298061Y-91385000D01*
X144501939Y-91385000D01*
X144701898Y-91345226D01*
X144890256Y-91267205D01*
X145059774Y-91153937D01*
X145203937Y-91009774D01*
X145317205Y-90840256D01*
X145395226Y-90651898D01*
X145435000Y-90451939D01*
X145435000Y-90248061D01*
X145395226Y-90048102D01*
X145317205Y-89859744D01*
X145203937Y-89690226D01*
X145059774Y-89546063D01*
X144890256Y-89432795D01*
X144701898Y-89354774D01*
X144501939Y-89315000D01*
X144298061Y-89315000D01*
X144098102Y-89354774D01*
X143996396Y-89396902D01*
X143976951Y-89299147D01*
X143912122Y-89142637D01*
X143818005Y-89001782D01*
X143764284Y-88948061D01*
X148215000Y-88948061D01*
X148215000Y-89151939D01*
X148254774Y-89351898D01*
X148332795Y-89540256D01*
X148446063Y-89709774D01*
X148590226Y-89853937D01*
X148759744Y-89967205D01*
X148948102Y-90045226D01*
X149148061Y-90085000D01*
X149351939Y-90085000D01*
X149551898Y-90045226D01*
X149740256Y-89967205D01*
X149909774Y-89853937D01*
X150053937Y-89709774D01*
X150167205Y-89540256D01*
X150245226Y-89351898D01*
X150285000Y-89151939D01*
X150285000Y-88948061D01*
X150245226Y-88748102D01*
X150167205Y-88559744D01*
X150053937Y-88390226D01*
X149909774Y-88246063D01*
X149740256Y-88132795D01*
X149551898Y-88054774D01*
X149351939Y-88015000D01*
X149148061Y-88015000D01*
X148948102Y-88054774D01*
X148759744Y-88132795D01*
X148590226Y-88246063D01*
X148446063Y-88390226D01*
X148332795Y-88559744D01*
X148254774Y-88748102D01*
X148215000Y-88948061D01*
X143764284Y-88948061D01*
X143698218Y-88881995D01*
X143557363Y-88787878D01*
X143400853Y-88723049D01*
X143234703Y-88690000D01*
X143065297Y-88690000D01*
X142899147Y-88723049D01*
X142742637Y-88787878D01*
X142601782Y-88881995D01*
X142481995Y-89001782D01*
X142387878Y-89142637D01*
X142323049Y-89299147D01*
X142313525Y-89347028D01*
X132982808Y-98677746D01*
X132954763Y-98700762D01*
X132862914Y-98812680D01*
X132809578Y-98912465D01*
X132794664Y-98940367D01*
X132752635Y-99078915D01*
X132738444Y-99223000D01*
X132742001Y-99259115D01*
X132742000Y-100009046D01*
X132714878Y-100049637D01*
X132650049Y-100206147D01*
X132617000Y-100372297D01*
X131407687Y-100372297D01*
X131276038Y-100175271D01*
X130964729Y-99863962D01*
X130598669Y-99619369D01*
X130191925Y-99450890D01*
X129760128Y-99365000D01*
X129319872Y-99365000D01*
X128888075Y-99450890D01*
X128481331Y-99619369D01*
X128115271Y-99863962D01*
X127803962Y-100175271D01*
X127710000Y-100315895D01*
X127710000Y-98840875D01*
X127713435Y-98806000D01*
X127709107Y-98762054D01*
X127699727Y-98666816D01*
X127659128Y-98532980D01*
X127593200Y-98409637D01*
X127504474Y-98301525D01*
X127477383Y-98279292D01*
X127359091Y-98161000D01*
X127622000Y-98161000D01*
X127840987Y-98114415D01*
X128046678Y-98026003D01*
X128231169Y-97899161D01*
X128387369Y-97738764D01*
X128509276Y-97550976D01*
X128589119Y-97327874D01*
X129730881Y-97327874D01*
X129810724Y-97550976D01*
X129932631Y-97738764D01*
X130088831Y-97899161D01*
X130273322Y-98026003D01*
X130479013Y-98114415D01*
X130698000Y-98161000D01*
X131248000Y-98161000D01*
X131248000Y-97153000D01*
X131502000Y-97153000D01*
X131502000Y-98161000D01*
X132052000Y-98161000D01*
X132270987Y-98114415D01*
X132476678Y-98026003D01*
X132661169Y-97899161D01*
X132817369Y-97738764D01*
X132939276Y-97550976D01*
X133019119Y-97327874D01*
X132892954Y-97153000D01*
X131502000Y-97153000D01*
X131248000Y-97153000D01*
X129857046Y-97153000D01*
X129730881Y-97327874D01*
X128589119Y-97327874D01*
X128462954Y-97153000D01*
X127322000Y-97153000D01*
X127322000Y-97173000D01*
X127068000Y-97173000D01*
X127068000Y-97153000D01*
X127048000Y-97153000D01*
X127048000Y-96899000D01*
X127068000Y-96899000D01*
X127068000Y-95891000D01*
X127322000Y-95891000D01*
X127322000Y-96899000D01*
X128462954Y-96899000D01*
X128589119Y-96724126D01*
X128509276Y-96501024D01*
X128387369Y-96313236D01*
X128231169Y-96152839D01*
X128046678Y-96025997D01*
X127840987Y-95937585D01*
X127622000Y-95891000D01*
X127322000Y-95891000D01*
X127068000Y-95891000D01*
X126768000Y-95891000D01*
X126549013Y-95937585D01*
X126343322Y-96025997D01*
X126158831Y-96152839D01*
X126059000Y-96255352D01*
X126059000Y-94148061D01*
X129394000Y-94148061D01*
X129394000Y-94351939D01*
X129433774Y-94551898D01*
X129511795Y-94740256D01*
X129625063Y-94909774D01*
X129769226Y-95053937D01*
X129938744Y-95167205D01*
X130002566Y-95193641D01*
X129951892Y-95315978D01*
X129915000Y-95501448D01*
X129915000Y-95690552D01*
X129951892Y-95876022D01*
X130024259Y-96050731D01*
X130091335Y-96151117D01*
X130088831Y-96152839D01*
X129932631Y-96313236D01*
X129810724Y-96501024D01*
X129730881Y-96724126D01*
X129857046Y-96899000D01*
X131248000Y-96899000D01*
X131248000Y-96879000D01*
X131502000Y-96879000D01*
X131502000Y-96899000D01*
X132892954Y-96899000D01*
X133019119Y-96724126D01*
X132939276Y-96501024D01*
X132817369Y-96313236D01*
X132661169Y-96152839D01*
X132476678Y-96025997D01*
X132270987Y-95937585D01*
X132052000Y-95891000D01*
X131791904Y-95891000D01*
X131798108Y-95876022D01*
X131835000Y-95690552D01*
X131835000Y-95501448D01*
X131798108Y-95315978D01*
X131725741Y-95141269D01*
X131630053Y-94998061D01*
X132065000Y-94998061D01*
X132065000Y-95201939D01*
X132104774Y-95401898D01*
X132182795Y-95590256D01*
X132296063Y-95759774D01*
X132440226Y-95903937D01*
X132609744Y-96017205D01*
X132798102Y-96095226D01*
X132998061Y-96135000D01*
X133201939Y-96135000D01*
X133401898Y-96095226D01*
X133590256Y-96017205D01*
X133759774Y-95903937D01*
X133903937Y-95759774D01*
X134017205Y-95590256D01*
X134095226Y-95401898D01*
X134135000Y-95201939D01*
X134135000Y-94998061D01*
X134095226Y-94798102D01*
X134017205Y-94609744D01*
X133903937Y-94440226D01*
X133759774Y-94296063D01*
X133590256Y-94182795D01*
X133401898Y-94104774D01*
X133201939Y-94065000D01*
X132998061Y-94065000D01*
X132798102Y-94104774D01*
X132609744Y-94182795D01*
X132440226Y-94296063D01*
X132296063Y-94440226D01*
X132182795Y-94609744D01*
X132104774Y-94798102D01*
X132065000Y-94998061D01*
X131630053Y-94998061D01*
X131620681Y-94984036D01*
X131486964Y-94850319D01*
X131338809Y-94751325D01*
X131346205Y-94740256D01*
X131424226Y-94551898D01*
X131464000Y-94351939D01*
X131464000Y-94148061D01*
X131424226Y-93948102D01*
X131346205Y-93759744D01*
X131232937Y-93590226D01*
X131088774Y-93446063D01*
X130919256Y-93332795D01*
X130730898Y-93254774D01*
X130530939Y-93215000D01*
X130327061Y-93215000D01*
X130127102Y-93254774D01*
X129938744Y-93332795D01*
X129769226Y-93446063D01*
X129625063Y-93590226D01*
X129511795Y-93759744D01*
X129433774Y-93948102D01*
X129394000Y-94148061D01*
X126059000Y-94148061D01*
X126059000Y-91148061D01*
X129394000Y-91148061D01*
X129394000Y-91351939D01*
X129433774Y-91551898D01*
X129511795Y-91740256D01*
X129625063Y-91909774D01*
X129769226Y-92053937D01*
X129938744Y-92167205D01*
X130127102Y-92245226D01*
X130327061Y-92285000D01*
X130530939Y-92285000D01*
X130730898Y-92245226D01*
X130919256Y-92167205D01*
X131088774Y-92053937D01*
X131232937Y-91909774D01*
X131346205Y-91740256D01*
X131424226Y-91551898D01*
X131464000Y-91351939D01*
X131464000Y-91148061D01*
X131424226Y-90948102D01*
X131346205Y-90759744D01*
X131293962Y-90681557D01*
X131329731Y-90666741D01*
X131486964Y-90561681D01*
X131620681Y-90427964D01*
X131725741Y-90270731D01*
X131755841Y-90198061D01*
X132065000Y-90198061D01*
X132065000Y-90401939D01*
X132104774Y-90601898D01*
X132182795Y-90790256D01*
X132296063Y-90959774D01*
X132440226Y-91103937D01*
X132609744Y-91217205D01*
X132798102Y-91295226D01*
X132998061Y-91335000D01*
X133201939Y-91335000D01*
X133401898Y-91295226D01*
X133590256Y-91217205D01*
X133759774Y-91103937D01*
X133903937Y-90959774D01*
X134017205Y-90790256D01*
X134095226Y-90601898D01*
X134135000Y-90401939D01*
X134135000Y-90198061D01*
X134095226Y-89998102D01*
X134017205Y-89809744D01*
X133903937Y-89640226D01*
X133759774Y-89496063D01*
X133590256Y-89382795D01*
X133401898Y-89304774D01*
X133201939Y-89265000D01*
X132998061Y-89265000D01*
X132798102Y-89304774D01*
X132609744Y-89382795D01*
X132440226Y-89496063D01*
X132296063Y-89640226D01*
X132182795Y-89809744D01*
X132104774Y-89998102D01*
X132065000Y-90198061D01*
X131755841Y-90198061D01*
X131798108Y-90096022D01*
X131835000Y-89910552D01*
X131835000Y-89721448D01*
X131798108Y-89535978D01*
X131791904Y-89521000D01*
X132052000Y-89521000D01*
X132270987Y-89474415D01*
X132476678Y-89386003D01*
X132661169Y-89259161D01*
X132817369Y-89098764D01*
X132939276Y-88910976D01*
X133019119Y-88687874D01*
X132892954Y-88513000D01*
X131502000Y-88513000D01*
X131502000Y-88533000D01*
X131248000Y-88533000D01*
X131248000Y-88513000D01*
X129857046Y-88513000D01*
X129730881Y-88687874D01*
X129810724Y-88910976D01*
X129932631Y-89098764D01*
X130088831Y-89259161D01*
X130091335Y-89260883D01*
X130024259Y-89361269D01*
X129951892Y-89535978D01*
X129915000Y-89721448D01*
X129915000Y-89910552D01*
X129951892Y-90096022D01*
X130024259Y-90270731D01*
X130038202Y-90291598D01*
X129938744Y-90332795D01*
X129769226Y-90446063D01*
X129625063Y-90590226D01*
X129511795Y-90759744D01*
X129433774Y-90948102D01*
X129394000Y-91148061D01*
X126059000Y-91148061D01*
X126059000Y-89156648D01*
X126158831Y-89259161D01*
X126343322Y-89386003D01*
X126549013Y-89474415D01*
X126768000Y-89521000D01*
X127068000Y-89521000D01*
X127068000Y-88513000D01*
X127322000Y-88513000D01*
X127322000Y-89521000D01*
X127622000Y-89521000D01*
X127840987Y-89474415D01*
X128046678Y-89386003D01*
X128231169Y-89259161D01*
X128387369Y-89098764D01*
X128509276Y-88910976D01*
X128589119Y-88687874D01*
X128462954Y-88513000D01*
X127322000Y-88513000D01*
X127068000Y-88513000D01*
X127048000Y-88513000D01*
X127048000Y-88348061D01*
X140315000Y-88348061D01*
X140315000Y-88551939D01*
X140354774Y-88751898D01*
X140432795Y-88940256D01*
X140546063Y-89109774D01*
X140690226Y-89253937D01*
X140859744Y-89367205D01*
X141048102Y-89445226D01*
X141248061Y-89485000D01*
X141451939Y-89485000D01*
X141651898Y-89445226D01*
X141840256Y-89367205D01*
X142009774Y-89253937D01*
X142153937Y-89109774D01*
X142267205Y-88940256D01*
X142345226Y-88751898D01*
X142385000Y-88551939D01*
X142385000Y-88348061D01*
X142345226Y-88148102D01*
X142267205Y-87959744D01*
X142153937Y-87790226D01*
X142009774Y-87646063D01*
X141840256Y-87532795D01*
X141651898Y-87454774D01*
X141451939Y-87415000D01*
X141248061Y-87415000D01*
X141048102Y-87454774D01*
X140859744Y-87532795D01*
X140690226Y-87646063D01*
X140546063Y-87790226D01*
X140432795Y-87959744D01*
X140354774Y-88148102D01*
X140315000Y-88348061D01*
X127048000Y-88348061D01*
X127048000Y-88259000D01*
X127068000Y-88259000D01*
X127068000Y-88239000D01*
X127322000Y-88239000D01*
X127322000Y-88259000D01*
X128462954Y-88259000D01*
X128589119Y-88084126D01*
X129730881Y-88084126D01*
X129857046Y-88259000D01*
X131248000Y-88259000D01*
X131248000Y-87251000D01*
X131502000Y-87251000D01*
X131502000Y-88259000D01*
X132892954Y-88259000D01*
X133019119Y-88084126D01*
X132939276Y-87861024D01*
X132817369Y-87673236D01*
X132661169Y-87512839D01*
X132476678Y-87385997D01*
X132270987Y-87297585D01*
X132052000Y-87251000D01*
X131502000Y-87251000D01*
X131248000Y-87251000D01*
X130698000Y-87251000D01*
X130479013Y-87297585D01*
X130273322Y-87385997D01*
X130088831Y-87512839D01*
X129932631Y-87673236D01*
X129810724Y-87861024D01*
X129730881Y-88084126D01*
X128589119Y-88084126D01*
X128509276Y-87861024D01*
X128387369Y-87673236D01*
X128231169Y-87512839D01*
X128046678Y-87385997D01*
X127840987Y-87297585D01*
X127622000Y-87251000D01*
X127367091Y-87251000D01*
X127477379Y-87140712D01*
X127504475Y-87118475D01*
X127593200Y-87010363D01*
X127659128Y-86887020D01*
X127699727Y-86753184D01*
X127710000Y-86648877D01*
X127710000Y-86648875D01*
X127710966Y-86639061D01*
X134982000Y-86639061D01*
X134982000Y-86842939D01*
X135021774Y-87042898D01*
X135099795Y-87231256D01*
X135213063Y-87400774D01*
X135357226Y-87544937D01*
X135526744Y-87658205D01*
X135715102Y-87736226D01*
X135915061Y-87776000D01*
X136118939Y-87776000D01*
X136318898Y-87736226D01*
X136507256Y-87658205D01*
X136676774Y-87544937D01*
X136779000Y-87442711D01*
X136881226Y-87544937D01*
X137050744Y-87658205D01*
X137239102Y-87736226D01*
X137439061Y-87776000D01*
X137642939Y-87776000D01*
X137842898Y-87736226D01*
X138031256Y-87658205D01*
X138200774Y-87544937D01*
X138344937Y-87400774D01*
X138458205Y-87231256D01*
X138536226Y-87042898D01*
X138576000Y-86842939D01*
X138576000Y-86639061D01*
X138536226Y-86439102D01*
X138458205Y-86250744D01*
X138344937Y-86081226D01*
X138200774Y-85937063D01*
X138031256Y-85823795D01*
X137842898Y-85745774D01*
X137642939Y-85706000D01*
X137439061Y-85706000D01*
X137239102Y-85745774D01*
X137050744Y-85823795D01*
X136881226Y-85937063D01*
X136779000Y-86039289D01*
X136676774Y-85937063D01*
X136507256Y-85823795D01*
X136318898Y-85745774D01*
X136118939Y-85706000D01*
X135915061Y-85706000D01*
X135715102Y-85745774D01*
X135526744Y-85823795D01*
X135357226Y-85937063D01*
X135213063Y-86081226D01*
X135099795Y-86250744D01*
X135021774Y-86439102D01*
X134982000Y-86639061D01*
X127710966Y-86639061D01*
X127713435Y-86614000D01*
X127710000Y-86579125D01*
X127710000Y-85104105D01*
X127803962Y-85244729D01*
X128115271Y-85556038D01*
X128481331Y-85800631D01*
X128888075Y-85969110D01*
X129319872Y-86055000D01*
X129760128Y-86055000D01*
X130191925Y-85969110D01*
X130598669Y-85800631D01*
X130964729Y-85556038D01*
X131276038Y-85244729D01*
X131520631Y-84878669D01*
X131689110Y-84471925D01*
X131775000Y-84040128D01*
X131775000Y-83599872D01*
X131689110Y-83168075D01*
X131520631Y-82761331D01*
X131276038Y-82395271D01*
X130964729Y-82083962D01*
X130824105Y-81990000D01*
X142021928Y-81990000D01*
X142021928Y-83085000D01*
G04 #@! TA.AperFunction,Conductor*
D20*
G36*
X142021928Y-83085000D02*
G01*
X133416954Y-83085000D01*
X133376363Y-83057878D01*
X133219853Y-82993049D01*
X133053703Y-82960000D01*
X132884297Y-82960000D01*
X132718147Y-82993049D01*
X132561637Y-83057878D01*
X132420782Y-83151995D01*
X132300995Y-83271782D01*
X132206878Y-83412637D01*
X132142049Y-83569147D01*
X132109000Y-83735297D01*
X132109000Y-83904703D01*
X132142049Y-84070853D01*
X132206878Y-84227363D01*
X132300995Y-84368218D01*
X132420782Y-84488005D01*
X132561637Y-84582122D01*
X132718147Y-84646951D01*
X132884297Y-84680000D01*
X133053703Y-84680000D01*
X133219853Y-84646951D01*
X133376363Y-84582122D01*
X133416954Y-84555000D01*
X148824935Y-84555000D01*
X148861040Y-84558556D01*
X148897145Y-84555000D01*
X149005125Y-84544365D01*
X149143673Y-84502337D01*
X149271360Y-84434087D01*
X149383278Y-84342238D01*
X149406298Y-84314188D01*
X149472092Y-84248394D01*
X149492637Y-84262122D01*
X149649147Y-84326951D01*
X149697029Y-84336475D01*
X151265000Y-85904447D01*
X151265001Y-88902045D01*
X151237878Y-88942637D01*
X151173049Y-89099147D01*
X151140000Y-89265297D01*
X151140000Y-89434703D01*
X151173049Y-89600853D01*
X151237878Y-89757363D01*
X151331995Y-89898218D01*
X151451782Y-90018005D01*
X151592637Y-90112122D01*
X151749147Y-90176951D01*
X151915297Y-90210000D01*
X152084703Y-90210000D01*
X152250853Y-90176951D01*
X152407363Y-90112122D01*
X152548218Y-90018005D01*
X152668005Y-89898218D01*
X152762122Y-89757363D01*
X152826951Y-89600853D01*
X152860000Y-89434703D01*
X152860000Y-89265297D01*
X152826951Y-89099147D01*
X152762122Y-88942637D01*
X152735000Y-88902046D01*
X152735000Y-87698061D01*
X153965000Y-87698061D01*
X153965000Y-87901939D01*
X154004774Y-88101898D01*
X154082795Y-88290256D01*
X154196063Y-88459774D01*
X154340226Y-88603937D01*
X154509744Y-88717205D01*
X154698102Y-88795226D01*
X154898061Y-88835000D01*
X155101939Y-88835000D01*
X155301898Y-88795226D01*
X155490256Y-88717205D01*
X155659774Y-88603937D01*
X155803937Y-88459774D01*
X155917205Y-88290256D01*
X155995226Y-88101898D01*
X156035000Y-87901939D01*
X156035000Y-87698061D01*
X155995226Y-87498102D01*
X155917205Y-87309744D01*
X155803937Y-87140226D01*
X155659774Y-86996063D01*
X155490256Y-86882795D01*
X155301898Y-86804774D01*
X155101939Y-86765000D01*
X154898061Y-86765000D01*
X154698102Y-86804774D01*
X154509744Y-86882795D01*
X154340226Y-86996063D01*
X154196063Y-87140226D01*
X154082795Y-87309744D01*
X154004774Y-87498102D01*
X153965000Y-87698061D01*
X152735000Y-87698061D01*
X152735000Y-85636094D01*
X152738555Y-85599999D01*
X152735000Y-85563904D01*
X152735000Y-85563895D01*
X152724365Y-85455915D01*
X152682337Y-85317367D01*
X152614087Y-85189680D01*
X152576667Y-85144084D01*
X152545253Y-85105806D01*
X152545250Y-85105803D01*
X152522237Y-85077762D01*
X152494197Y-85054750D01*
X151441565Y-84002119D01*
X151563158Y-83977932D01*
X151828555Y-83868001D01*
X152154746Y-84194193D01*
X152177762Y-84222238D01*
X152284700Y-84310000D01*
X152289680Y-84314087D01*
X152417366Y-84382337D01*
X152555915Y-84424365D01*
X152700000Y-84438556D01*
X152736105Y-84435000D01*
X154053093Y-84435000D01*
X154164291Y-84546198D01*
X154187312Y-84574249D01*
X154299230Y-84666098D01*
X154325239Y-84680000D01*
X154426916Y-84734348D01*
X154565465Y-84776376D01*
X154709550Y-84790567D01*
X154745655Y-84787011D01*
X156697565Y-84787011D01*
X157618981Y-85708428D01*
X157618982Y-89217865D01*
X157615425Y-89253980D01*
X157629616Y-89398065D01*
X157669290Y-89528849D01*
X157671645Y-89536613D01*
X157739895Y-89664300D01*
X157831744Y-89776218D01*
X157859789Y-89799234D01*
X158954746Y-90894192D01*
X158977762Y-90922237D01*
X159076297Y-91003103D01*
X159089680Y-91014086D01*
X159217366Y-91082336D01*
X159355915Y-91124364D01*
X159500000Y-91138555D01*
X159536105Y-91134999D01*
X160083996Y-91134999D01*
X160165578Y-91143034D01*
X160165587Y-91143034D01*
X160201682Y-91146589D01*
X160237777Y-91143034D01*
X161412212Y-91143034D01*
X161448317Y-91146590D01*
X161484422Y-91143034D01*
X161565993Y-91135000D01*
X164456956Y-91135000D01*
X164456957Y-95482267D01*
X164453400Y-95518382D01*
X164467591Y-95662467D01*
X164506357Y-95790258D01*
X164509620Y-95801015D01*
X164577870Y-95928702D01*
X164669719Y-96040620D01*
X164697764Y-96063636D01*
X165798790Y-97164662D01*
X165757634Y-97142664D01*
X165619086Y-97100636D01*
X165511106Y-97090001D01*
X165475001Y-97086445D01*
X165438896Y-97090001D01*
X162829668Y-97090001D01*
X162793573Y-97086446D01*
X162757478Y-97090001D01*
X162757469Y-97090001D01*
X162649489Y-97100636D01*
X162510941Y-97142664D01*
X162383254Y-97210914D01*
X162271336Y-97302763D01*
X162248320Y-97330808D01*
X162120045Y-97459083D01*
X162120045Y-96171176D01*
X162123600Y-96135079D01*
X162120045Y-96098982D01*
X162120045Y-96098975D01*
X162109410Y-95990995D01*
X162108305Y-95987350D01*
X162081057Y-95897528D01*
X162067382Y-95852447D01*
X161999132Y-95724760D01*
X161974089Y-95694245D01*
X161930298Y-95640886D01*
X161930295Y-95640883D01*
X161907282Y-95612842D01*
X161879242Y-95589830D01*
X159533841Y-93244430D01*
X159648218Y-93168005D01*
X159768005Y-93048218D01*
X159862122Y-92907363D01*
X159926951Y-92750853D01*
X159960000Y-92584703D01*
X159960000Y-92415297D01*
X159926951Y-92249147D01*
X159862122Y-92092637D01*
X159768005Y-91951782D01*
X159648218Y-91831995D01*
X159507363Y-91737878D01*
X159350853Y-91673049D01*
X159184703Y-91640000D01*
X159015297Y-91640000D01*
X158849147Y-91673049D01*
X158692637Y-91737878D01*
X158551782Y-91831995D01*
X158431995Y-91951782D01*
X158355570Y-92066159D01*
X158240224Y-91950813D01*
X158217203Y-91922762D01*
X158105285Y-91830913D01*
X157977598Y-91762663D01*
X157839050Y-91720635D01*
X157731070Y-91710000D01*
X157694965Y-91706444D01*
X157658860Y-91710000D01*
X156223439Y-91710000D01*
X156137829Y-91639742D01*
X156001582Y-91566916D01*
X155853745Y-91522071D01*
X155700000Y-91506928D01*
X154050000Y-91506928D01*
X153896255Y-91522071D01*
X153748418Y-91566916D01*
X153612171Y-91639742D01*
X153492749Y-91737749D01*
X153394742Y-91857171D01*
X153321916Y-91993418D01*
X153277071Y-92141255D01*
X153261928Y-92295000D01*
X153261928Y-92595000D01*
X153277071Y-92748745D01*
X153321916Y-92896582D01*
X153394742Y-93032829D01*
X153433454Y-93080000D01*
X153394742Y-93127171D01*
X153321916Y-93263418D01*
X153277071Y-93411255D01*
X153261928Y-93565000D01*
X151538072Y-93565000D01*
X151522929Y-93411255D01*
X151478084Y-93263418D01*
X151406270Y-93129064D01*
X151430537Y-93099494D01*
X151489502Y-92989180D01*
X151525812Y-92869482D01*
X151538072Y-92745000D01*
X151535000Y-92730750D01*
X151376250Y-92572000D01*
X150052000Y-92572000D01*
X150052000Y-92592000D01*
X149798000Y-92592000D01*
X149798000Y-92572000D01*
X149778000Y-92572000D01*
X149778000Y-92318000D01*
X149798000Y-92318000D01*
X149798000Y-91668750D01*
X150052000Y-91668750D01*
X150052000Y-92318000D01*
X151376250Y-92318000D01*
X151535000Y-92159250D01*
X151538072Y-92145000D01*
X151525812Y-92020518D01*
X151489502Y-91900820D01*
X151430537Y-91790506D01*
X151351185Y-91693815D01*
X151254494Y-91614463D01*
X151144180Y-91555498D01*
X151024482Y-91519188D01*
X150900000Y-91506928D01*
X150210750Y-91510000D01*
X150052000Y-91668750D01*
X149798000Y-91668750D01*
X149639250Y-91510000D01*
X148950000Y-91506928D01*
X148825518Y-91519188D01*
X148705820Y-91555498D01*
X148595506Y-91614463D01*
X148498815Y-91693815D01*
X148419463Y-91790506D01*
X148360498Y-91900820D01*
X148324188Y-92020518D01*
X148313947Y-92124500D01*
X147995258Y-91805812D01*
X147972238Y-91777762D01*
X147860320Y-91685913D01*
X147732633Y-91617663D01*
X147711356Y-91611209D01*
X147701185Y-91598815D01*
X147604494Y-91519463D01*
X147494180Y-91460498D01*
X147374482Y-91424188D01*
X147250000Y-91411928D01*
X145250000Y-91411928D01*
X145125518Y-91424188D01*
X145005820Y-91460498D01*
X144895506Y-91519463D01*
X144798815Y-91598815D01*
X144719463Y-91695506D01*
X144660498Y-91805820D01*
X144624188Y-91925518D01*
X144611928Y-92050000D01*
X144611928Y-92550000D01*
X144624188Y-92674482D01*
X144660498Y-92794180D01*
X144663609Y-92800000D01*
X144660498Y-92805820D01*
X144624188Y-92925518D01*
X144611928Y-93050000D01*
X144611928Y-93550000D01*
X144624188Y-93674482D01*
X144660498Y-93794180D01*
X144663609Y-93800000D01*
X144660498Y-93805820D01*
X144624188Y-93925518D01*
X144611928Y-94050000D01*
X144611928Y-94488465D01*
X144526925Y-94523675D01*
X144426250Y-94423000D01*
X144067849Y-94423000D01*
X144066933Y-94422734D01*
X143942312Y-94411974D01*
X143235750Y-94415000D01*
X143227750Y-94423000D01*
X143077000Y-94423000D01*
X143077000Y-95177000D01*
X143097000Y-95177000D01*
X143097000Y-95411928D01*
X141950000Y-95411928D01*
X141837580Y-95423000D01*
X141473750Y-95423000D01*
X141315000Y-95581750D01*
X141325734Y-95682013D01*
X141363279Y-95800618D01*
X141360498Y-95805820D01*
X141324188Y-95925518D01*
X141311928Y-96050000D01*
X141311928Y-96550000D01*
X141324188Y-96674482D01*
X141360498Y-96794180D01*
X141419463Y-96904494D01*
X141498815Y-97001185D01*
X141595506Y-97080537D01*
X141705820Y-97139502D01*
X141825518Y-97175812D01*
X141950000Y-97188072D01*
X142765001Y-97188072D01*
X142765001Y-97271288D01*
X142696063Y-97340226D01*
X142582795Y-97509744D01*
X142504774Y-97698102D01*
X142465000Y-97898061D01*
X142465000Y-98101939D01*
X142504774Y-98301898D01*
X142582795Y-98490256D01*
X142696063Y-98659774D01*
X142840226Y-98803937D01*
X143009744Y-98917205D01*
X143198102Y-98995226D01*
X143398061Y-99035000D01*
X143601939Y-99035000D01*
X143801898Y-98995226D01*
X143990256Y-98917205D01*
X144159774Y-98803937D01*
X144303937Y-98659774D01*
X144417205Y-98490256D01*
X144495226Y-98301898D01*
X144535000Y-98101939D01*
X144535000Y-97898061D01*
X144495226Y-97698102D01*
X144417205Y-97509744D01*
X144303937Y-97340226D01*
X144235000Y-97271289D01*
X144235000Y-97117683D01*
X144304494Y-97080537D01*
X144401185Y-97001185D01*
X144480537Y-96904494D01*
X144539502Y-96794180D01*
X144575812Y-96674482D01*
X144588072Y-96550000D01*
X144588072Y-96101654D01*
X144611928Y-96111535D01*
X144611928Y-96550000D01*
X144624188Y-96674482D01*
X144660498Y-96794180D01*
X144719463Y-96904494D01*
X144798815Y-97001185D01*
X144895506Y-97080537D01*
X145005820Y-97139502D01*
X145125518Y-97175812D01*
X145250000Y-97188072D01*
X147250000Y-97188072D01*
X147312422Y-97181924D01*
X147317664Y-97199205D01*
X147385914Y-97326892D01*
X147477763Y-97438810D01*
X147505808Y-97461826D01*
X148574859Y-98530878D01*
X148584383Y-98578759D01*
X148649212Y-98735269D01*
X148743329Y-98876124D01*
X148863116Y-98995911D01*
X149003971Y-99090028D01*
X149160481Y-99154857D01*
X149326631Y-99187906D01*
X149496037Y-99187906D01*
X149662187Y-99154857D01*
X149818697Y-99090028D01*
X149959552Y-98995911D01*
X150079339Y-98876124D01*
X150173456Y-98735269D01*
X150238285Y-98578759D01*
X150271334Y-98412609D01*
X150271334Y-98243203D01*
X150238285Y-98077053D01*
X150173456Y-97920543D01*
X150079339Y-97779688D01*
X149959552Y-97659901D01*
X149818697Y-97565784D01*
X149662187Y-97500955D01*
X149614306Y-97491431D01*
X149315947Y-97193072D01*
X149823626Y-97193072D01*
X150476750Y-97846197D01*
X150499766Y-97874242D01*
X150611684Y-97966091D01*
X150739371Y-98034341D01*
X150836798Y-98063895D01*
X150877919Y-98076369D01*
X151022004Y-98090560D01*
X151058109Y-98087004D01*
X151746777Y-98087004D01*
X151681995Y-98151786D01*
X151587878Y-98292641D01*
X151523049Y-98449151D01*
X151490000Y-98615301D01*
X151490000Y-98784707D01*
X151523049Y-98950857D01*
X151587878Y-99107367D01*
X151681995Y-99248222D01*
X151801782Y-99368009D01*
X151942637Y-99462126D01*
X152099147Y-99526955D01*
X152265297Y-99560004D01*
X152434703Y-99560004D01*
X152600853Y-99526955D01*
X152757363Y-99462126D01*
X152898218Y-99368009D01*
X153018005Y-99248222D01*
X153112122Y-99107367D01*
X153176951Y-98950857D01*
X153210000Y-98784707D01*
X153210000Y-98615301D01*
X153176951Y-98449151D01*
X153112122Y-98292641D01*
X153018005Y-98151786D01*
X152953223Y-98087004D01*
X155884146Y-98087004D01*
X155884145Y-101211040D01*
X155880589Y-101247145D01*
X155894780Y-101391230D01*
X155900878Y-101411332D01*
X155902613Y-101417050D01*
X155776842Y-101442068D01*
X155506589Y-101554010D01*
X155263368Y-101716525D01*
X155056525Y-101923368D01*
X154940000Y-102097760D01*
X154823475Y-101923368D01*
X154616632Y-101716525D01*
X154373411Y-101554010D01*
X154103158Y-101442068D01*
X153816260Y-101385000D01*
X153523740Y-101385000D01*
X153236842Y-101442068D01*
X152966589Y-101554010D01*
X152723368Y-101716525D01*
X152516525Y-101923368D01*
X152400000Y-102097760D01*
X152283475Y-101923368D01*
X152076632Y-101716525D01*
X151833411Y-101554010D01*
X151563158Y-101442068D01*
X151276260Y-101385000D01*
X150983740Y-101385000D01*
X150696842Y-101442068D01*
X150426589Y-101554010D01*
X150183368Y-101716525D01*
X149976525Y-101923368D01*
X149860000Y-102097760D01*
X149743475Y-101923368D01*
X149536632Y-101716525D01*
X149293411Y-101554010D01*
X149023158Y-101442068D01*
X148736260Y-101385000D01*
X148443740Y-101385000D01*
X148156842Y-101442068D01*
X147886589Y-101554010D01*
X147643368Y-101716525D01*
X147436525Y-101923368D01*
X147320000Y-102097760D01*
X147203475Y-101923368D01*
X146996632Y-101716525D01*
X146753411Y-101554010D01*
X146483158Y-101442068D01*
X146196260Y-101385000D01*
X145903740Y-101385000D01*
X145616842Y-101442068D01*
X145346589Y-101554010D01*
X145103368Y-101716525D01*
X144896525Y-101923368D01*
X144780000Y-102097760D01*
X144663475Y-101923368D01*
X144456632Y-101716525D01*
X144213411Y-101554010D01*
X143943158Y-101442068D01*
X143656260Y-101385000D01*
X143363740Y-101385000D01*
X143076842Y-101442068D01*
X142806589Y-101554010D01*
X142563368Y-101716525D01*
X142356525Y-101923368D01*
X142234805Y-102105534D01*
X142165178Y-101988645D01*
X141970269Y-101772412D01*
X141736920Y-101598359D01*
X141474099Y-101473175D01*
X141326890Y-101428524D01*
X141097000Y-101549845D01*
X141097000Y-102743000D01*
X141117000Y-102743000D01*
X141117000Y-102997000D01*
X141097000Y-102997000D01*
X141097000Y-103017000D01*
X140843000Y-103017000D01*
X140843000Y-102997000D01*
X140823000Y-102997000D01*
X140823000Y-102743000D01*
X140843000Y-102743000D01*
X140843000Y-101549845D01*
X140613110Y-101428524D01*
X140465901Y-101473175D01*
X140203080Y-101598359D01*
X139969731Y-101772412D01*
X139774822Y-101988645D01*
X139705195Y-102105534D01*
X139583475Y-101923368D01*
X139376632Y-101716525D01*
X139133411Y-101554010D01*
X138863158Y-101442068D01*
X138576260Y-101385000D01*
X138283740Y-101385000D01*
X137996842Y-101442068D01*
X137726589Y-101554010D01*
X137483368Y-101716525D01*
X137276525Y-101923368D01*
X137160000Y-102097760D01*
X137043475Y-101923368D01*
X136836632Y-101716525D01*
X136593411Y-101554010D01*
X136323158Y-101442068D01*
X136036260Y-101385000D01*
X135743740Y-101385000D01*
X135456842Y-101442068D01*
X135186589Y-101554010D01*
X134943368Y-101716525D01*
X134811513Y-101848380D01*
X134789502Y-101775820D01*
X134730537Y-101665506D01*
X134651185Y-101568815D01*
X134554494Y-101489463D01*
X134444180Y-101430498D01*
X134324482Y-101394188D01*
X134200000Y-101381928D01*
X132500000Y-101381928D01*
X132375518Y-101394188D01*
X132255820Y-101430498D01*
X132145506Y-101489463D01*
X132048815Y-101568815D01*
X131969463Y-101665506D01*
X131910498Y-101775820D01*
X131874188Y-101895518D01*
X131861928Y-102020000D01*
X131861928Y-103430000D01*
X130824105Y-103430000D01*
X130964729Y-103336038D01*
X131276038Y-103024729D01*
X131520631Y-102658669D01*
X131689110Y-102251925D01*
X131775000Y-101820128D01*
X131775000Y-101379872D01*
X131689110Y-100948075D01*
X131520631Y-100541331D01*
X131407687Y-100372297D01*
X132617000Y-100372297D01*
X132617000Y-100541703D01*
X132650049Y-100707853D01*
X132714878Y-100864363D01*
X132808995Y-101005218D01*
X132928782Y-101125005D01*
X133069637Y-101219122D01*
X133226147Y-101283951D01*
X133392297Y-101317000D01*
X133561703Y-101317000D01*
X133727853Y-101283951D01*
X133884363Y-101219122D01*
X134025218Y-101125005D01*
X134145005Y-101005218D01*
X134239122Y-100864363D01*
X134303951Y-100707853D01*
X134337000Y-100541703D01*
X134337000Y-100372297D01*
X134303951Y-100206147D01*
X134239122Y-100049637D01*
X134212000Y-100009046D01*
X134212000Y-99527446D01*
X139428363Y-94311084D01*
X139548226Y-94430947D01*
X139717744Y-94544215D01*
X139906102Y-94622236D01*
X140106061Y-94662010D01*
X140309939Y-94662010D01*
X140509898Y-94622236D01*
X140607639Y-94581750D01*
X141315000Y-94581750D01*
X141325734Y-94682013D01*
X141363083Y-94800000D01*
X141325734Y-94917987D01*
X141315000Y-95018250D01*
X141473750Y-95177000D01*
X141832151Y-95177000D01*
X141833067Y-95177266D01*
X141957688Y-95188026D01*
X142664250Y-95185000D01*
X142672250Y-95177000D01*
X142823000Y-95177000D01*
X142823000Y-94423000D01*
X142672250Y-94423000D01*
X142664250Y-94415000D01*
X141957688Y-94411974D01*
X141833067Y-94422734D01*
X141832151Y-94423000D01*
X141473750Y-94423000D01*
X141315000Y-94581750D01*
X140607639Y-94581750D01*
X140698256Y-94544215D01*
X140867774Y-94430947D01*
X141011937Y-94286784D01*
X141125205Y-94117266D01*
X141203226Y-93928908D01*
X141243000Y-93728949D01*
X141243000Y-93525071D01*
X141203226Y-93325112D01*
X141125205Y-93136754D01*
X141011937Y-92967236D01*
X140892074Y-92847373D01*
X141315000Y-92424447D01*
X141315000Y-92427002D01*
X141469748Y-92427002D01*
X141315000Y-92581750D01*
X141325734Y-92682013D01*
X141363279Y-92800618D01*
X141360498Y-92805820D01*
X141324188Y-92925518D01*
X141311928Y-93050000D01*
X141311928Y-93550000D01*
X141324188Y-93674482D01*
X141360498Y-93794180D01*
X141363279Y-93799382D01*
X141325734Y-93917987D01*
X141315000Y-94018250D01*
X141473750Y-94177000D01*
X141837580Y-94177000D01*
X141950000Y-94188072D01*
X143950000Y-94188072D01*
X144062420Y-94177000D01*
X144426250Y-94177000D01*
X144585000Y-94018250D01*
X144574266Y-93917987D01*
X144536721Y-93799382D01*
X144539502Y-93794180D01*
X144575812Y-93674482D01*
X144588072Y-93550000D01*
X144588072Y-93050000D01*
X144575812Y-92925518D01*
X144539502Y-92805820D01*
X144536721Y-92800618D01*
X144574266Y-92682013D01*
X144585000Y-92581750D01*
X144426250Y-92423000D01*
X144062420Y-92423000D01*
X143950000Y-92411928D01*
X142803000Y-92411928D01*
X142803000Y-92177000D01*
X142823000Y-92177000D01*
X142823000Y-91573750D01*
X143077000Y-91573750D01*
X143077000Y-92177000D01*
X144426250Y-92177000D01*
X144585000Y-92018250D01*
X144574266Y-91917987D01*
X144536517Y-91798736D01*
X144476228Y-91689140D01*
X144395716Y-91593412D01*
X144298076Y-91515230D01*
X144187059Y-91457599D01*
X144066933Y-91422734D01*
X143942312Y-91411974D01*
X143235750Y-91415000D01*
X143077000Y-91573750D01*
X142823000Y-91573750D01*
X142664250Y-91415000D01*
X142325896Y-91413551D01*
X143352972Y-90386475D01*
X143365000Y-90384083D01*
X143365000Y-90451939D01*
X143404774Y-90651898D01*
X143482795Y-90840256D01*
X143596063Y-91009774D01*
X143740226Y-91153937D01*
X143909744Y-91267205D01*
X144098102Y-91345226D01*
X144298061Y-91385000D01*
X144501939Y-91385000D01*
X144701898Y-91345226D01*
X144890256Y-91267205D01*
X145059774Y-91153937D01*
X145203937Y-91009774D01*
X145317205Y-90840256D01*
X145395226Y-90651898D01*
X145435000Y-90451939D01*
X145435000Y-90248061D01*
X145395226Y-90048102D01*
X145317205Y-89859744D01*
X145203937Y-89690226D01*
X145059774Y-89546063D01*
X144890256Y-89432795D01*
X144701898Y-89354774D01*
X144501939Y-89315000D01*
X144298061Y-89315000D01*
X144098102Y-89354774D01*
X143996396Y-89396902D01*
X143976951Y-89299147D01*
X143912122Y-89142637D01*
X143818005Y-89001782D01*
X143764284Y-88948061D01*
X148215000Y-88948061D01*
X148215000Y-89151939D01*
X148254774Y-89351898D01*
X148332795Y-89540256D01*
X148446063Y-89709774D01*
X148590226Y-89853937D01*
X148759744Y-89967205D01*
X148948102Y-90045226D01*
X149148061Y-90085000D01*
X149351939Y-90085000D01*
X149551898Y-90045226D01*
X149740256Y-89967205D01*
X149909774Y-89853937D01*
X150053937Y-89709774D01*
X150167205Y-89540256D01*
X150245226Y-89351898D01*
X150285000Y-89151939D01*
X150285000Y-88948061D01*
X150245226Y-88748102D01*
X150167205Y-88559744D01*
X150053937Y-88390226D01*
X149909774Y-88246063D01*
X149740256Y-88132795D01*
X149551898Y-88054774D01*
X149351939Y-88015000D01*
X149148061Y-88015000D01*
X148948102Y-88054774D01*
X148759744Y-88132795D01*
X148590226Y-88246063D01*
X148446063Y-88390226D01*
X148332795Y-88559744D01*
X148254774Y-88748102D01*
X148215000Y-88948061D01*
X143764284Y-88948061D01*
X143698218Y-88881995D01*
X143557363Y-88787878D01*
X143400853Y-88723049D01*
X143234703Y-88690000D01*
X143065297Y-88690000D01*
X142899147Y-88723049D01*
X142742637Y-88787878D01*
X142601782Y-88881995D01*
X142481995Y-89001782D01*
X142387878Y-89142637D01*
X142323049Y-89299147D01*
X142313525Y-89347028D01*
X132982808Y-98677746D01*
X132954763Y-98700762D01*
X132862914Y-98812680D01*
X132809578Y-98912465D01*
X132794664Y-98940367D01*
X132752635Y-99078915D01*
X132738444Y-99223000D01*
X132742001Y-99259115D01*
X132742000Y-100009046D01*
X132714878Y-100049637D01*
X132650049Y-100206147D01*
X132617000Y-100372297D01*
X131407687Y-100372297D01*
X131276038Y-100175271D01*
X130964729Y-99863962D01*
X130598669Y-99619369D01*
X130191925Y-99450890D01*
X129760128Y-99365000D01*
X129319872Y-99365000D01*
X128888075Y-99450890D01*
X128481331Y-99619369D01*
X128115271Y-99863962D01*
X127803962Y-100175271D01*
X127710000Y-100315895D01*
X127710000Y-98840875D01*
X127713435Y-98806000D01*
X127709107Y-98762054D01*
X127699727Y-98666816D01*
X127659128Y-98532980D01*
X127593200Y-98409637D01*
X127504474Y-98301525D01*
X127477383Y-98279292D01*
X127359091Y-98161000D01*
X127622000Y-98161000D01*
X127840987Y-98114415D01*
X128046678Y-98026003D01*
X128231169Y-97899161D01*
X128387369Y-97738764D01*
X128509276Y-97550976D01*
X128589119Y-97327874D01*
X129730881Y-97327874D01*
X129810724Y-97550976D01*
X129932631Y-97738764D01*
X130088831Y-97899161D01*
X130273322Y-98026003D01*
X130479013Y-98114415D01*
X130698000Y-98161000D01*
X131248000Y-98161000D01*
X131248000Y-97153000D01*
X131502000Y-97153000D01*
X131502000Y-98161000D01*
X132052000Y-98161000D01*
X132270987Y-98114415D01*
X132476678Y-98026003D01*
X132661169Y-97899161D01*
X132817369Y-97738764D01*
X132939276Y-97550976D01*
X133019119Y-97327874D01*
X132892954Y-97153000D01*
X131502000Y-97153000D01*
X131248000Y-97153000D01*
X129857046Y-97153000D01*
X129730881Y-97327874D01*
X128589119Y-97327874D01*
X128462954Y-97153000D01*
X127322000Y-97153000D01*
X127322000Y-97173000D01*
X127068000Y-97173000D01*
X127068000Y-97153000D01*
X127048000Y-97153000D01*
X127048000Y-96899000D01*
X127068000Y-96899000D01*
X127068000Y-95891000D01*
X127322000Y-95891000D01*
X127322000Y-96899000D01*
X128462954Y-96899000D01*
X128589119Y-96724126D01*
X128509276Y-96501024D01*
X128387369Y-96313236D01*
X128231169Y-96152839D01*
X128046678Y-96025997D01*
X127840987Y-95937585D01*
X127622000Y-95891000D01*
X127322000Y-95891000D01*
X127068000Y-95891000D01*
X126768000Y-95891000D01*
X126549013Y-95937585D01*
X126343322Y-96025997D01*
X126158831Y-96152839D01*
X126059000Y-96255352D01*
X126059000Y-94148061D01*
X129394000Y-94148061D01*
X129394000Y-94351939D01*
X129433774Y-94551898D01*
X129511795Y-94740256D01*
X129625063Y-94909774D01*
X129769226Y-95053937D01*
X129938744Y-95167205D01*
X130002566Y-95193641D01*
X129951892Y-95315978D01*
X129915000Y-95501448D01*
X129915000Y-95690552D01*
X129951892Y-95876022D01*
X130024259Y-96050731D01*
X130091335Y-96151117D01*
X130088831Y-96152839D01*
X129932631Y-96313236D01*
X129810724Y-96501024D01*
X129730881Y-96724126D01*
X129857046Y-96899000D01*
X131248000Y-96899000D01*
X131248000Y-96879000D01*
X131502000Y-96879000D01*
X131502000Y-96899000D01*
X132892954Y-96899000D01*
X133019119Y-96724126D01*
X132939276Y-96501024D01*
X132817369Y-96313236D01*
X132661169Y-96152839D01*
X132476678Y-96025997D01*
X132270987Y-95937585D01*
X132052000Y-95891000D01*
X131791904Y-95891000D01*
X131798108Y-95876022D01*
X131835000Y-95690552D01*
X131835000Y-95501448D01*
X131798108Y-95315978D01*
X131725741Y-95141269D01*
X131630053Y-94998061D01*
X132065000Y-94998061D01*
X132065000Y-95201939D01*
X132104774Y-95401898D01*
X132182795Y-95590256D01*
X132296063Y-95759774D01*
X132440226Y-95903937D01*
X132609744Y-96017205D01*
X132798102Y-96095226D01*
X132998061Y-96135000D01*
X133201939Y-96135000D01*
X133401898Y-96095226D01*
X133590256Y-96017205D01*
X133759774Y-95903937D01*
X133903937Y-95759774D01*
X134017205Y-95590256D01*
X134095226Y-95401898D01*
X134135000Y-95201939D01*
X134135000Y-94998061D01*
X134095226Y-94798102D01*
X134017205Y-94609744D01*
X133903937Y-94440226D01*
X133759774Y-94296063D01*
X133590256Y-94182795D01*
X133401898Y-94104774D01*
X133201939Y-94065000D01*
X132998061Y-94065000D01*
X132798102Y-94104774D01*
X132609744Y-94182795D01*
X132440226Y-94296063D01*
X132296063Y-94440226D01*
X132182795Y-94609744D01*
X132104774Y-94798102D01*
X132065000Y-94998061D01*
X131630053Y-94998061D01*
X131620681Y-94984036D01*
X131486964Y-94850319D01*
X131338809Y-94751325D01*
X131346205Y-94740256D01*
X131424226Y-94551898D01*
X131464000Y-94351939D01*
X131464000Y-94148061D01*
X131424226Y-93948102D01*
X131346205Y-93759744D01*
X131232937Y-93590226D01*
X131088774Y-93446063D01*
X130919256Y-93332795D01*
X130730898Y-93254774D01*
X130530939Y-93215000D01*
X130327061Y-93215000D01*
X130127102Y-93254774D01*
X129938744Y-93332795D01*
X129769226Y-93446063D01*
X129625063Y-93590226D01*
X129511795Y-93759744D01*
X129433774Y-93948102D01*
X129394000Y-94148061D01*
X126059000Y-94148061D01*
X126059000Y-91148061D01*
X129394000Y-91148061D01*
X129394000Y-91351939D01*
X129433774Y-91551898D01*
X129511795Y-91740256D01*
X129625063Y-91909774D01*
X129769226Y-92053937D01*
X129938744Y-92167205D01*
X130127102Y-92245226D01*
X130327061Y-92285000D01*
X130530939Y-92285000D01*
X130730898Y-92245226D01*
X130919256Y-92167205D01*
X131088774Y-92053937D01*
X131232937Y-91909774D01*
X131346205Y-91740256D01*
X131424226Y-91551898D01*
X131464000Y-91351939D01*
X131464000Y-91148061D01*
X131424226Y-90948102D01*
X131346205Y-90759744D01*
X131293962Y-90681557D01*
X131329731Y-90666741D01*
X131486964Y-90561681D01*
X131620681Y-90427964D01*
X131725741Y-90270731D01*
X131755841Y-90198061D01*
X132065000Y-90198061D01*
X132065000Y-90401939D01*
X132104774Y-90601898D01*
X132182795Y-90790256D01*
X132296063Y-90959774D01*
X132440226Y-91103937D01*
X132609744Y-91217205D01*
X132798102Y-91295226D01*
X132998061Y-91335000D01*
X133201939Y-91335000D01*
X133401898Y-91295226D01*
X133590256Y-91217205D01*
X133759774Y-91103937D01*
X133903937Y-90959774D01*
X134017205Y-90790256D01*
X134095226Y-90601898D01*
X134135000Y-90401939D01*
X134135000Y-90198061D01*
X134095226Y-89998102D01*
X134017205Y-89809744D01*
X133903937Y-89640226D01*
X133759774Y-89496063D01*
X133590256Y-89382795D01*
X133401898Y-89304774D01*
X133201939Y-89265000D01*
X132998061Y-89265000D01*
X132798102Y-89304774D01*
X132609744Y-89382795D01*
X132440226Y-89496063D01*
X132296063Y-89640226D01*
X132182795Y-89809744D01*
X132104774Y-89998102D01*
X132065000Y-90198061D01*
X131755841Y-90198061D01*
X131798108Y-90096022D01*
X131835000Y-89910552D01*
X131835000Y-89721448D01*
X131798108Y-89535978D01*
X131791904Y-89521000D01*
X132052000Y-89521000D01*
X132270987Y-89474415D01*
X132476678Y-89386003D01*
X132661169Y-89259161D01*
X132817369Y-89098764D01*
X132939276Y-88910976D01*
X133019119Y-88687874D01*
X132892954Y-88513000D01*
X131502000Y-88513000D01*
X131502000Y-88533000D01*
X131248000Y-88533000D01*
X131248000Y-88513000D01*
X129857046Y-88513000D01*
X129730881Y-88687874D01*
X129810724Y-88910976D01*
X129932631Y-89098764D01*
X130088831Y-89259161D01*
X130091335Y-89260883D01*
X130024259Y-89361269D01*
X129951892Y-89535978D01*
X129915000Y-89721448D01*
X129915000Y-89910552D01*
X129951892Y-90096022D01*
X130024259Y-90270731D01*
X130038202Y-90291598D01*
X129938744Y-90332795D01*
X129769226Y-90446063D01*
X129625063Y-90590226D01*
X129511795Y-90759744D01*
X129433774Y-90948102D01*
X129394000Y-91148061D01*
X126059000Y-91148061D01*
X126059000Y-89156648D01*
X126158831Y-89259161D01*
X126343322Y-89386003D01*
X126549013Y-89474415D01*
X126768000Y-89521000D01*
X127068000Y-89521000D01*
X127068000Y-88513000D01*
X127322000Y-88513000D01*
X127322000Y-89521000D01*
X127622000Y-89521000D01*
X127840987Y-89474415D01*
X128046678Y-89386003D01*
X128231169Y-89259161D01*
X128387369Y-89098764D01*
X128509276Y-88910976D01*
X128589119Y-88687874D01*
X128462954Y-88513000D01*
X127322000Y-88513000D01*
X127068000Y-88513000D01*
X127048000Y-88513000D01*
X127048000Y-88348061D01*
X140315000Y-88348061D01*
X140315000Y-88551939D01*
X140354774Y-88751898D01*
X140432795Y-88940256D01*
X140546063Y-89109774D01*
X140690226Y-89253937D01*
X140859744Y-89367205D01*
X141048102Y-89445226D01*
X141248061Y-89485000D01*
X141451939Y-89485000D01*
X141651898Y-89445226D01*
X141840256Y-89367205D01*
X142009774Y-89253937D01*
X142153937Y-89109774D01*
X142267205Y-88940256D01*
X142345226Y-88751898D01*
X142385000Y-88551939D01*
X142385000Y-88348061D01*
X142345226Y-88148102D01*
X142267205Y-87959744D01*
X142153937Y-87790226D01*
X142009774Y-87646063D01*
X141840256Y-87532795D01*
X141651898Y-87454774D01*
X141451939Y-87415000D01*
X141248061Y-87415000D01*
X141048102Y-87454774D01*
X140859744Y-87532795D01*
X140690226Y-87646063D01*
X140546063Y-87790226D01*
X140432795Y-87959744D01*
X140354774Y-88148102D01*
X140315000Y-88348061D01*
X127048000Y-88348061D01*
X127048000Y-88259000D01*
X127068000Y-88259000D01*
X127068000Y-88239000D01*
X127322000Y-88239000D01*
X127322000Y-88259000D01*
X128462954Y-88259000D01*
X128589119Y-88084126D01*
X129730881Y-88084126D01*
X129857046Y-88259000D01*
X131248000Y-88259000D01*
X131248000Y-87251000D01*
X131502000Y-87251000D01*
X131502000Y-88259000D01*
X132892954Y-88259000D01*
X133019119Y-88084126D01*
X132939276Y-87861024D01*
X132817369Y-87673236D01*
X132661169Y-87512839D01*
X132476678Y-87385997D01*
X132270987Y-87297585D01*
X132052000Y-87251000D01*
X131502000Y-87251000D01*
X131248000Y-87251000D01*
X130698000Y-87251000D01*
X130479013Y-87297585D01*
X130273322Y-87385997D01*
X130088831Y-87512839D01*
X129932631Y-87673236D01*
X129810724Y-87861024D01*
X129730881Y-88084126D01*
X128589119Y-88084126D01*
X128509276Y-87861024D01*
X128387369Y-87673236D01*
X128231169Y-87512839D01*
X128046678Y-87385997D01*
X127840987Y-87297585D01*
X127622000Y-87251000D01*
X127367091Y-87251000D01*
X127477379Y-87140712D01*
X127504475Y-87118475D01*
X127593200Y-87010363D01*
X127659128Y-86887020D01*
X127699727Y-86753184D01*
X127710000Y-86648877D01*
X127710000Y-86648875D01*
X127710966Y-86639061D01*
X134982000Y-86639061D01*
X134982000Y-86842939D01*
X135021774Y-87042898D01*
X135099795Y-87231256D01*
X135213063Y-87400774D01*
X135357226Y-87544937D01*
X135526744Y-87658205D01*
X135715102Y-87736226D01*
X135915061Y-87776000D01*
X136118939Y-87776000D01*
X136318898Y-87736226D01*
X136507256Y-87658205D01*
X136676774Y-87544937D01*
X136779000Y-87442711D01*
X136881226Y-87544937D01*
X137050744Y-87658205D01*
X137239102Y-87736226D01*
X137439061Y-87776000D01*
X137642939Y-87776000D01*
X137842898Y-87736226D01*
X138031256Y-87658205D01*
X138200774Y-87544937D01*
X138344937Y-87400774D01*
X138458205Y-87231256D01*
X138536226Y-87042898D01*
X138576000Y-86842939D01*
X138576000Y-86639061D01*
X138536226Y-86439102D01*
X138458205Y-86250744D01*
X138344937Y-86081226D01*
X138200774Y-85937063D01*
X138031256Y-85823795D01*
X137842898Y-85745774D01*
X137642939Y-85706000D01*
X137439061Y-85706000D01*
X137239102Y-85745774D01*
X137050744Y-85823795D01*
X136881226Y-85937063D01*
X136779000Y-86039289D01*
X136676774Y-85937063D01*
X136507256Y-85823795D01*
X136318898Y-85745774D01*
X136118939Y-85706000D01*
X135915061Y-85706000D01*
X135715102Y-85745774D01*
X135526744Y-85823795D01*
X135357226Y-85937063D01*
X135213063Y-86081226D01*
X135099795Y-86250744D01*
X135021774Y-86439102D01*
X134982000Y-86639061D01*
X127710966Y-86639061D01*
X127713435Y-86614000D01*
X127710000Y-86579125D01*
X127710000Y-85104105D01*
X127803962Y-85244729D01*
X128115271Y-85556038D01*
X128481331Y-85800631D01*
X128888075Y-85969110D01*
X129319872Y-86055000D01*
X129760128Y-86055000D01*
X130191925Y-85969110D01*
X130598669Y-85800631D01*
X130964729Y-85556038D01*
X131276038Y-85244729D01*
X131520631Y-84878669D01*
X131689110Y-84471925D01*
X131775000Y-84040128D01*
X131775000Y-83599872D01*
X131689110Y-83168075D01*
X131520631Y-82761331D01*
X131276038Y-82395271D01*
X130964729Y-82083962D01*
X130824105Y-81990000D01*
X142021928Y-81990000D01*
X142021928Y-83085000D01*
G37*
G04 #@! TD.AperFunction*
D19*
X170986481Y-101454643D02*
X170746589Y-101554010D01*
X170656585Y-101614149D01*
X169687225Y-100644789D01*
X169664205Y-100616739D01*
X169552287Y-100524890D01*
X169424600Y-100456640D01*
X169286052Y-100414612D01*
X169178072Y-100403977D01*
X169141967Y-100400421D01*
X169105862Y-100403977D01*
X166314256Y-100403977D01*
X166418005Y-100300228D01*
X166512122Y-100159373D01*
X166550975Y-100065575D01*
X166699149Y-100126951D01*
X166865299Y-100160000D01*
X167034705Y-100160000D01*
X167200855Y-100126951D01*
X167357365Y-100062122D01*
X167498220Y-99968005D01*
X167618007Y-99848218D01*
X167712124Y-99707363D01*
X167776953Y-99550853D01*
X167810002Y-99384703D01*
X167810002Y-99215297D01*
X167776953Y-99049147D01*
X167712124Y-98892637D01*
X167618007Y-98751782D01*
X167498220Y-98631995D01*
X167475454Y-98616783D01*
X167515060Y-98616783D01*
X167681210Y-98583734D01*
X167837720Y-98518905D01*
X167978575Y-98424788D01*
X167993570Y-98409793D01*
X168051782Y-98468005D01*
X168192637Y-98562122D01*
X168349147Y-98626951D01*
X168515297Y-98660000D01*
X168684703Y-98660000D01*
X168850853Y-98626951D01*
X169007363Y-98562122D01*
X169148218Y-98468005D01*
X169268005Y-98348218D01*
X169362122Y-98207363D01*
X169426951Y-98050853D01*
X169460000Y-97884703D01*
X169460000Y-97837002D01*
X169638476Y-97837002D01*
X169674581Y-97840558D01*
X169710686Y-97837002D01*
X169818666Y-97826367D01*
X169957214Y-97784339D01*
X170084901Y-97716089D01*
X170196819Y-97624240D01*
X170219839Y-97596190D01*
X170894195Y-96921835D01*
X170922240Y-96898819D01*
X171006135Y-96796592D01*
X170986481Y-101454643D01*
G04 #@! TA.AperFunction,Conductor*
D20*
G36*
X170986481Y-101454643D02*
G01*
X170746589Y-101554010D01*
X170656585Y-101614149D01*
X169687225Y-100644789D01*
X169664205Y-100616739D01*
X169552287Y-100524890D01*
X169424600Y-100456640D01*
X169286052Y-100414612D01*
X169178072Y-100403977D01*
X169141967Y-100400421D01*
X169105862Y-100403977D01*
X166314256Y-100403977D01*
X166418005Y-100300228D01*
X166512122Y-100159373D01*
X166550975Y-100065575D01*
X166699149Y-100126951D01*
X166865299Y-100160000D01*
X167034705Y-100160000D01*
X167200855Y-100126951D01*
X167357365Y-100062122D01*
X167498220Y-99968005D01*
X167618007Y-99848218D01*
X167712124Y-99707363D01*
X167776953Y-99550853D01*
X167810002Y-99384703D01*
X167810002Y-99215297D01*
X167776953Y-99049147D01*
X167712124Y-98892637D01*
X167618007Y-98751782D01*
X167498220Y-98631995D01*
X167475454Y-98616783D01*
X167515060Y-98616783D01*
X167681210Y-98583734D01*
X167837720Y-98518905D01*
X167978575Y-98424788D01*
X167993570Y-98409793D01*
X168051782Y-98468005D01*
X168192637Y-98562122D01*
X168349147Y-98626951D01*
X168515297Y-98660000D01*
X168684703Y-98660000D01*
X168850853Y-98626951D01*
X169007363Y-98562122D01*
X169148218Y-98468005D01*
X169268005Y-98348218D01*
X169362122Y-98207363D01*
X169426951Y-98050853D01*
X169460000Y-97884703D01*
X169460000Y-97837002D01*
X169638476Y-97837002D01*
X169674581Y-97840558D01*
X169710686Y-97837002D01*
X169818666Y-97826367D01*
X169957214Y-97784339D01*
X170084901Y-97716089D01*
X170196819Y-97624240D01*
X170219839Y-97596190D01*
X170894195Y-96921835D01*
X170922240Y-96898819D01*
X171006135Y-96796592D01*
X170986481Y-101454643D01*
G37*
G04 #@! TD.AperFunction*
D19*
X169665001Y-85852048D02*
X169637880Y-85892637D01*
X169573051Y-86049147D01*
X169540002Y-86215297D01*
X169540002Y-86384703D01*
X169573051Y-86550853D01*
X169637880Y-86707363D01*
X169665002Y-86747954D01*
X169665002Y-88322118D01*
X169618005Y-88251782D01*
X169498218Y-88131995D01*
X169357363Y-88037878D01*
X169200853Y-87973049D01*
X169034703Y-87940000D01*
X168865297Y-87940000D01*
X168699147Y-87973049D01*
X168542637Y-88037878D01*
X168401782Y-88131995D01*
X168281995Y-88251782D01*
X168187878Y-88392637D01*
X168123049Y-88549147D01*
X168090000Y-88715297D01*
X168090000Y-88884703D01*
X168123049Y-89050853D01*
X168187878Y-89207363D01*
X168281995Y-89348218D01*
X168401782Y-89468005D01*
X168542637Y-89562122D01*
X168699147Y-89626951D01*
X168865297Y-89660000D01*
X169034703Y-89660000D01*
X169200853Y-89626951D01*
X169357363Y-89562122D01*
X169498218Y-89468005D01*
X169618005Y-89348218D01*
X169665002Y-89277882D01*
X169665003Y-94148784D01*
X169548214Y-94031995D01*
X169407359Y-93937878D01*
X169250849Y-93873049D01*
X169084699Y-93840000D01*
X168915293Y-93840000D01*
X168749143Y-93873049D01*
X168592633Y-93937878D01*
X168543355Y-93970805D01*
X167885000Y-93312450D01*
X167885000Y-87651223D01*
X167951782Y-87718005D01*
X168092637Y-87812122D01*
X168249147Y-87876951D01*
X168415297Y-87910000D01*
X168584703Y-87910000D01*
X168750853Y-87876951D01*
X168907363Y-87812122D01*
X169048218Y-87718005D01*
X169168005Y-87598218D01*
X169262122Y-87457363D01*
X169326951Y-87300853D01*
X169360000Y-87134703D01*
X169360000Y-86965297D01*
X169326951Y-86799147D01*
X169262122Y-86642637D01*
X169168005Y-86501782D01*
X169048218Y-86381995D01*
X168925505Y-86300000D01*
X169048218Y-86218005D01*
X169168005Y-86098218D01*
X169262122Y-85957363D01*
X169326951Y-85800853D01*
X169360000Y-85634703D01*
X169360000Y-85465297D01*
X169326951Y-85299147D01*
X169262122Y-85142637D01*
X169168005Y-85001782D01*
X169048218Y-84881995D01*
X168907363Y-84787878D01*
X168750853Y-84723049D01*
X168584703Y-84690000D01*
X168415297Y-84690000D01*
X168249147Y-84723049D01*
X168092637Y-84787878D01*
X167951782Y-84881995D01*
X167885000Y-84948777D01*
X167885000Y-84614446D01*
X168514103Y-83985344D01*
X168763740Y-84035000D01*
X169056260Y-84035000D01*
X169343158Y-83977932D01*
X169613411Y-83865990D01*
X169665000Y-83831519D01*
X169665001Y-85852048D01*
G04 #@! TA.AperFunction,Conductor*
D20*
G36*
X169665001Y-85852048D02*
G01*
X169637880Y-85892637D01*
X169573051Y-86049147D01*
X169540002Y-86215297D01*
X169540002Y-86384703D01*
X169573051Y-86550853D01*
X169637880Y-86707363D01*
X169665002Y-86747954D01*
X169665002Y-88322118D01*
X169618005Y-88251782D01*
X169498218Y-88131995D01*
X169357363Y-88037878D01*
X169200853Y-87973049D01*
X169034703Y-87940000D01*
X168865297Y-87940000D01*
X168699147Y-87973049D01*
X168542637Y-88037878D01*
X168401782Y-88131995D01*
X168281995Y-88251782D01*
X168187878Y-88392637D01*
X168123049Y-88549147D01*
X168090000Y-88715297D01*
X168090000Y-88884703D01*
X168123049Y-89050853D01*
X168187878Y-89207363D01*
X168281995Y-89348218D01*
X168401782Y-89468005D01*
X168542637Y-89562122D01*
X168699147Y-89626951D01*
X168865297Y-89660000D01*
X169034703Y-89660000D01*
X169200853Y-89626951D01*
X169357363Y-89562122D01*
X169498218Y-89468005D01*
X169618005Y-89348218D01*
X169665002Y-89277882D01*
X169665003Y-94148784D01*
X169548214Y-94031995D01*
X169407359Y-93937878D01*
X169250849Y-93873049D01*
X169084699Y-93840000D01*
X168915293Y-93840000D01*
X168749143Y-93873049D01*
X168592633Y-93937878D01*
X168543355Y-93970805D01*
X167885000Y-93312450D01*
X167885000Y-87651223D01*
X167951782Y-87718005D01*
X168092637Y-87812122D01*
X168249147Y-87876951D01*
X168415297Y-87910000D01*
X168584703Y-87910000D01*
X168750853Y-87876951D01*
X168907363Y-87812122D01*
X169048218Y-87718005D01*
X169168005Y-87598218D01*
X169262122Y-87457363D01*
X169326951Y-87300853D01*
X169360000Y-87134703D01*
X169360000Y-86965297D01*
X169326951Y-86799147D01*
X169262122Y-86642637D01*
X169168005Y-86501782D01*
X169048218Y-86381995D01*
X168925505Y-86300000D01*
X169048218Y-86218005D01*
X169168005Y-86098218D01*
X169262122Y-85957363D01*
X169326951Y-85800853D01*
X169360000Y-85634703D01*
X169360000Y-85465297D01*
X169326951Y-85299147D01*
X169262122Y-85142637D01*
X169168005Y-85001782D01*
X169048218Y-84881995D01*
X168907363Y-84787878D01*
X168750853Y-84723049D01*
X168584703Y-84690000D01*
X168415297Y-84690000D01*
X168249147Y-84723049D01*
X168092637Y-84787878D01*
X167951782Y-84881995D01*
X167885000Y-84948777D01*
X167885000Y-84614446D01*
X168514103Y-83985344D01*
X168763740Y-84035000D01*
X169056260Y-84035000D01*
X169343158Y-83977932D01*
X169613411Y-83865990D01*
X169665000Y-83831519D01*
X169665001Y-85852048D01*
G37*
G04 #@! TD.AperFunction*
D19*
X165216525Y-83496632D02*
X165423368Y-83703475D01*
X165666589Y-83865990D01*
X165936842Y-83977932D01*
X166223740Y-84035000D01*
X166465348Y-84035000D01*
X166460188Y-84052011D01*
X166425635Y-84165915D01*
X166411444Y-84310000D01*
X166415000Y-84346105D01*
X166415000Y-88289754D01*
X166410320Y-88285913D01*
X166282633Y-88217663D01*
X166144085Y-88175635D01*
X166036105Y-88165000D01*
X166000000Y-88161444D01*
X165963895Y-88165000D01*
X163804447Y-88165000D01*
X160334999Y-84695553D01*
X160334999Y-83695106D01*
X160343368Y-83703475D01*
X160586589Y-83865990D01*
X160856842Y-83977932D01*
X161143740Y-84035000D01*
X161436260Y-84035000D01*
X161723158Y-83977932D01*
X161993411Y-83865990D01*
X162236632Y-83703475D01*
X162443475Y-83496632D01*
X162560000Y-83322240D01*
X162676525Y-83496632D01*
X162883368Y-83703475D01*
X163126589Y-83865990D01*
X163396842Y-83977932D01*
X163683740Y-84035000D01*
X163976260Y-84035000D01*
X164263158Y-83977932D01*
X164533411Y-83865990D01*
X164776632Y-83703475D01*
X164983475Y-83496632D01*
X165100000Y-83322240D01*
X165216525Y-83496632D01*
G04 #@! TA.AperFunction,Conductor*
D20*
G36*
X165216525Y-83496632D02*
G01*
X165423368Y-83703475D01*
X165666589Y-83865990D01*
X165936842Y-83977932D01*
X166223740Y-84035000D01*
X166465348Y-84035000D01*
X166460188Y-84052011D01*
X166425635Y-84165915D01*
X166411444Y-84310000D01*
X166415000Y-84346105D01*
X166415000Y-88289754D01*
X166410320Y-88285913D01*
X166282633Y-88217663D01*
X166144085Y-88175635D01*
X166036105Y-88165000D01*
X166000000Y-88161444D01*
X165963895Y-88165000D01*
X163804447Y-88165000D01*
X160334999Y-84695553D01*
X160334999Y-83695106D01*
X160343368Y-83703475D01*
X160586589Y-83865990D01*
X160856842Y-83977932D01*
X161143740Y-84035000D01*
X161436260Y-84035000D01*
X161723158Y-83977932D01*
X161993411Y-83865990D01*
X162236632Y-83703475D01*
X162443475Y-83496632D01*
X162560000Y-83322240D01*
X162676525Y-83496632D01*
X162883368Y-83703475D01*
X163126589Y-83865990D01*
X163396842Y-83977932D01*
X163683740Y-84035000D01*
X163976260Y-84035000D01*
X164263158Y-83977932D01*
X164533411Y-83865990D01*
X164776632Y-83703475D01*
X164983475Y-83496632D01*
X165100000Y-83322240D01*
X165216525Y-83496632D01*
G37*
G04 #@! TD.AperFunction*
M02*
