%FSLAX45Y45*%
G04 Gerber Fmt 4.5, Leading zero omitted, Abs format (unit mm)*
G04 Created by KiCad (PCBNEW (5.1.7-0-10_14)) date 2020-10-24 15:10:07*
%MOMM*%
%LPD*%
G01*
G04 APERTURE LIST*
%TA.AperFunction,Profile*%
%ADD10C,0.150000*%
%TD*%
%ADD11C,0.200000*%
%ADD12C,0.300000*%
G04 APERTURE END LIST*
D10*
X12954000Y-10414000D02*
G75*
G02*
X12700000Y-10160000I0J254000D01*
G01*
X12700000Y-9880600D02*
X12700000Y-10160000D01*
X12534900Y-9715500D02*
X12700000Y-9880600D01*
X12534900Y-8826500D02*
X12534900Y-9715500D01*
X12534900Y-8826500D02*
X12700000Y-8661400D01*
X12700000Y-8382000D02*
X12700000Y-8661400D01*
X12700000Y-8382000D02*
G75*
G02*
X12954000Y-8128000I254000J0D01*
G01*
X17780000Y-10160000D02*
G75*
G02*
X17526000Y-10414000I-254000J0D01*
G01*
X17526000Y-8128000D02*
X12954000Y-8128000D01*
X17526000Y-8128000D02*
G75*
G02*
X17780000Y-8382000I0J-254000D01*
G01*
X12954000Y-10414000D02*
X17526000Y-10414000D01*
X17780000Y-10160000D02*
X17780000Y-8382000D01*
D11*
X13055000Y-8949100D02*
X13120000Y-9014100D01*
X13120000Y-8949100D02*
X13055000Y-9014100D01*
X13055000Y-9527100D02*
X13120000Y-9592100D01*
X13120000Y-9527100D02*
X13055000Y-9592100D01*
X17636000Y-10223500D02*
G75*
G03*
X17636000Y-10223500I-110000J0D01*
G01*
X17636000Y-8318500D02*
G75*
G03*
X17636000Y-8318500I-110000J0D01*
G01*
D12*
X12813828Y-10887214D02*
X12813828Y-10587214D01*
X12885257Y-10587214D01*
X12928114Y-10601500D01*
X12956686Y-10630072D01*
X12970971Y-10658643D01*
X12985257Y-10715786D01*
X12985257Y-10758643D01*
X12970971Y-10815786D01*
X12956686Y-10844357D01*
X12928114Y-10872929D01*
X12885257Y-10887214D01*
X12813828Y-10887214D01*
X13113828Y-10887214D02*
X13113828Y-10687214D01*
X13113828Y-10744357D02*
X13128114Y-10715786D01*
X13142400Y-10701500D01*
X13170971Y-10687214D01*
X13199543Y-10687214D01*
X13299543Y-10887214D02*
X13299543Y-10687214D01*
X13299543Y-10587214D02*
X13285257Y-10601500D01*
X13299543Y-10615786D01*
X13313828Y-10601500D01*
X13299543Y-10587214D01*
X13299543Y-10615786D01*
X13485257Y-10887214D02*
X13456686Y-10872929D01*
X13442400Y-10844357D01*
X13442400Y-10587214D01*
X13642400Y-10887214D02*
X13613828Y-10872929D01*
X13599543Y-10844357D01*
X13599543Y-10587214D01*
X13985257Y-10887214D02*
X13985257Y-10587214D01*
X14085257Y-10801500D01*
X14185257Y-10587214D01*
X14185257Y-10887214D01*
X14456686Y-10887214D02*
X14456686Y-10730072D01*
X14442400Y-10701500D01*
X14413828Y-10687214D01*
X14356686Y-10687214D01*
X14328114Y-10701500D01*
X14456686Y-10872929D02*
X14428114Y-10887214D01*
X14356686Y-10887214D01*
X14328114Y-10872929D01*
X14313828Y-10844357D01*
X14313828Y-10815786D01*
X14328114Y-10787214D01*
X14356686Y-10772929D01*
X14428114Y-10772929D01*
X14456686Y-10758643D01*
X14599543Y-10687214D02*
X14599543Y-10987214D01*
X14599543Y-10701500D02*
X14628114Y-10687214D01*
X14685257Y-10687214D01*
X14713828Y-10701500D01*
X14728114Y-10715786D01*
X14742400Y-10744357D01*
X14742400Y-10830072D01*
X14728114Y-10858643D01*
X14713828Y-10872929D01*
X14685257Y-10887214D01*
X14628114Y-10887214D01*
X14599543Y-10872929D01*
X14870971Y-10858643D02*
X14885257Y-10872929D01*
X14870971Y-10887214D01*
X14856686Y-10872929D01*
X14870971Y-10858643D01*
X14870971Y-10887214D01*
X14870971Y-10701500D02*
X14885257Y-10715786D01*
X14870971Y-10730072D01*
X14856686Y-10715786D01*
X14870971Y-10701500D01*
X14870971Y-10730072D01*
X12462400Y-11349000D02*
X12527400Y-11414000D01*
X12527400Y-11349000D02*
X12462400Y-11414000D01*
X12870971Y-11217214D02*
X12899543Y-11217214D01*
X12928114Y-11231500D01*
X12942400Y-11245786D01*
X12956686Y-11274357D01*
X12970971Y-11331500D01*
X12970971Y-11402929D01*
X12956686Y-11460071D01*
X12942400Y-11488643D01*
X12928114Y-11502929D01*
X12899543Y-11517214D01*
X12870971Y-11517214D01*
X12842400Y-11502929D01*
X12828114Y-11488643D01*
X12813828Y-11460071D01*
X12799543Y-11402929D01*
X12799543Y-11331500D01*
X12813828Y-11274357D01*
X12828114Y-11245786D01*
X12842400Y-11231500D01*
X12870971Y-11217214D01*
X13099543Y-11488643D02*
X13113828Y-11502929D01*
X13099543Y-11517214D01*
X13085257Y-11502929D01*
X13099543Y-11488643D01*
X13099543Y-11517214D01*
X13370971Y-11217214D02*
X13313828Y-11217214D01*
X13285257Y-11231500D01*
X13270971Y-11245786D01*
X13242400Y-11288643D01*
X13228114Y-11345786D01*
X13228114Y-11460071D01*
X13242400Y-11488643D01*
X13256686Y-11502929D01*
X13285257Y-11517214D01*
X13342400Y-11517214D01*
X13370971Y-11502929D01*
X13385257Y-11488643D01*
X13399543Y-11460071D01*
X13399543Y-11388643D01*
X13385257Y-11360071D01*
X13370971Y-11345786D01*
X13342400Y-11331500D01*
X13285257Y-11331500D01*
X13256686Y-11345786D01*
X13242400Y-11360071D01*
X13228114Y-11388643D01*
X13670971Y-11217214D02*
X13528114Y-11217214D01*
X13513828Y-11360071D01*
X13528114Y-11345786D01*
X13556686Y-11331500D01*
X13628114Y-11331500D01*
X13656686Y-11345786D01*
X13670971Y-11360071D01*
X13685257Y-11388643D01*
X13685257Y-11460071D01*
X13670971Y-11488643D01*
X13656686Y-11502929D01*
X13628114Y-11517214D01*
X13556686Y-11517214D01*
X13528114Y-11502929D01*
X13513828Y-11488643D01*
X13813828Y-11517214D02*
X13813828Y-11317214D01*
X13813828Y-11345786D02*
X13828114Y-11331500D01*
X13856686Y-11317214D01*
X13899543Y-11317214D01*
X13928114Y-11331500D01*
X13942400Y-11360071D01*
X13942400Y-11517214D01*
X13942400Y-11360071D02*
X13956686Y-11331500D01*
X13985257Y-11317214D01*
X14028114Y-11317214D01*
X14056686Y-11331500D01*
X14070971Y-11360071D01*
X14070971Y-11517214D01*
X14213828Y-11517214D02*
X14213828Y-11317214D01*
X14213828Y-11345786D02*
X14228114Y-11331500D01*
X14256686Y-11317214D01*
X14299543Y-11317214D01*
X14328114Y-11331500D01*
X14342400Y-11360071D01*
X14342400Y-11517214D01*
X14342400Y-11360071D02*
X14356686Y-11331500D01*
X14385257Y-11317214D01*
X14428114Y-11317214D01*
X14456686Y-11331500D01*
X14470971Y-11360071D01*
X14470971Y-11517214D01*
X15056686Y-11202929D02*
X14799543Y-11588643D01*
X15442400Y-11217214D02*
X15470971Y-11217214D01*
X15499543Y-11231500D01*
X15513828Y-11245786D01*
X15528114Y-11274357D01*
X15542400Y-11331500D01*
X15542400Y-11402929D01*
X15528114Y-11460071D01*
X15513828Y-11488643D01*
X15499543Y-11502929D01*
X15470971Y-11517214D01*
X15442400Y-11517214D01*
X15413828Y-11502929D01*
X15399543Y-11488643D01*
X15385257Y-11460071D01*
X15370971Y-11402929D01*
X15370971Y-11331500D01*
X15385257Y-11274357D01*
X15399543Y-11245786D01*
X15413828Y-11231500D01*
X15442400Y-11217214D01*
X15670971Y-11488643D02*
X15685257Y-11502929D01*
X15670971Y-11517214D01*
X15656686Y-11502929D01*
X15670971Y-11488643D01*
X15670971Y-11517214D01*
X15870971Y-11217214D02*
X15899543Y-11217214D01*
X15928114Y-11231500D01*
X15942400Y-11245786D01*
X15956686Y-11274357D01*
X15970971Y-11331500D01*
X15970971Y-11402929D01*
X15956686Y-11460071D01*
X15942400Y-11488643D01*
X15928114Y-11502929D01*
X15899543Y-11517214D01*
X15870971Y-11517214D01*
X15842400Y-11502929D01*
X15828114Y-11488643D01*
X15813828Y-11460071D01*
X15799543Y-11402929D01*
X15799543Y-11331500D01*
X15813828Y-11274357D01*
X15828114Y-11245786D01*
X15842400Y-11231500D01*
X15870971Y-11217214D01*
X16085257Y-11245786D02*
X16099543Y-11231500D01*
X16128114Y-11217214D01*
X16199543Y-11217214D01*
X16228114Y-11231500D01*
X16242400Y-11245786D01*
X16256686Y-11274357D01*
X16256686Y-11302929D01*
X16242400Y-11345786D01*
X16070971Y-11517214D01*
X16256686Y-11517214D01*
X16513828Y-11217214D02*
X16456686Y-11217214D01*
X16428114Y-11231500D01*
X16413828Y-11245786D01*
X16385257Y-11288643D01*
X16370971Y-11345786D01*
X16370971Y-11460071D01*
X16385257Y-11488643D01*
X16399543Y-11502929D01*
X16428114Y-11517214D01*
X16485257Y-11517214D01*
X16513828Y-11502929D01*
X16528114Y-11488643D01*
X16542400Y-11460071D01*
X16542400Y-11388643D01*
X16528114Y-11360071D01*
X16513828Y-11345786D01*
X16485257Y-11331500D01*
X16428114Y-11331500D01*
X16399543Y-11345786D01*
X16385257Y-11360071D01*
X16370971Y-11388643D01*
X16656686Y-11217214D02*
X16656686Y-11274357D01*
X16770971Y-11217214D02*
X16770971Y-11274357D01*
X17213828Y-11631500D02*
X17199543Y-11617214D01*
X17170971Y-11574357D01*
X17156686Y-11545786D01*
X17142400Y-11502929D01*
X17128114Y-11431500D01*
X17128114Y-11374357D01*
X17142400Y-11302929D01*
X17156686Y-11260071D01*
X17170971Y-11231500D01*
X17199543Y-11188643D01*
X17213828Y-11174357D01*
X17313828Y-11245786D02*
X17328114Y-11231500D01*
X17356686Y-11217214D01*
X17428114Y-11217214D01*
X17456686Y-11231500D01*
X17470971Y-11245786D01*
X17485257Y-11274357D01*
X17485257Y-11302929D01*
X17470971Y-11345786D01*
X17299543Y-11517214D01*
X17485257Y-11517214D01*
X17842400Y-11517214D02*
X17842400Y-11217214D01*
X17970971Y-11517214D02*
X17970971Y-11360071D01*
X17956686Y-11331500D01*
X17928114Y-11317214D01*
X17885257Y-11317214D01*
X17856686Y-11331500D01*
X17842400Y-11345786D01*
X18156686Y-11517214D02*
X18128114Y-11502929D01*
X18113828Y-11488643D01*
X18099543Y-11460071D01*
X18099543Y-11374357D01*
X18113828Y-11345786D01*
X18128114Y-11331500D01*
X18156686Y-11317214D01*
X18199543Y-11317214D01*
X18228114Y-11331500D01*
X18242400Y-11345786D01*
X18256686Y-11374357D01*
X18256686Y-11460071D01*
X18242400Y-11488643D01*
X18228114Y-11502929D01*
X18199543Y-11517214D01*
X18156686Y-11517214D01*
X18428114Y-11517214D02*
X18399543Y-11502929D01*
X18385257Y-11474357D01*
X18385257Y-11217214D01*
X18656686Y-11502929D02*
X18628114Y-11517214D01*
X18570971Y-11517214D01*
X18542400Y-11502929D01*
X18528114Y-11474357D01*
X18528114Y-11360071D01*
X18542400Y-11331500D01*
X18570971Y-11317214D01*
X18628114Y-11317214D01*
X18656686Y-11331500D01*
X18670971Y-11360071D01*
X18670971Y-11388643D01*
X18528114Y-11417214D01*
X18785257Y-11502929D02*
X18813828Y-11517214D01*
X18870971Y-11517214D01*
X18899543Y-11502929D01*
X18913828Y-11474357D01*
X18913828Y-11460071D01*
X18899543Y-11431500D01*
X18870971Y-11417214D01*
X18828114Y-11417214D01*
X18799543Y-11402929D01*
X18785257Y-11374357D01*
X18785257Y-11360071D01*
X18799543Y-11331500D01*
X18828114Y-11317214D01*
X18870971Y-11317214D01*
X18899543Y-11331500D01*
X19013828Y-11631500D02*
X19028114Y-11617214D01*
X19056686Y-11574357D01*
X19070971Y-11545786D01*
X19085257Y-11502929D01*
X19099543Y-11431500D01*
X19099543Y-11374357D01*
X19085257Y-11302929D01*
X19070971Y-11260071D01*
X19056686Y-11231500D01*
X19028114Y-11188643D01*
X19013828Y-11174357D01*
X19556686Y-11631500D02*
X19542400Y-11617214D01*
X19513828Y-11574357D01*
X19499543Y-11545786D01*
X19485257Y-11502929D01*
X19470971Y-11431500D01*
X19470971Y-11374357D01*
X19485257Y-11302929D01*
X19499543Y-11260071D01*
X19513828Y-11231500D01*
X19542400Y-11188643D01*
X19556686Y-11174357D01*
X19670971Y-11317214D02*
X19670971Y-11517214D01*
X19670971Y-11345786D02*
X19685257Y-11331500D01*
X19713828Y-11317214D01*
X19756686Y-11317214D01*
X19785257Y-11331500D01*
X19799543Y-11360071D01*
X19799543Y-11517214D01*
X19985257Y-11517214D02*
X19956686Y-11502929D01*
X19942400Y-11488643D01*
X19928114Y-11460071D01*
X19928114Y-11374357D01*
X19942400Y-11345786D01*
X19956686Y-11331500D01*
X19985257Y-11317214D01*
X20028114Y-11317214D01*
X20056686Y-11331500D01*
X20070971Y-11345786D01*
X20085257Y-11374357D01*
X20085257Y-11460071D01*
X20070971Y-11488643D01*
X20056686Y-11502929D01*
X20028114Y-11517214D01*
X19985257Y-11517214D01*
X20170971Y-11317214D02*
X20285257Y-11317214D01*
X20213828Y-11217214D02*
X20213828Y-11474357D01*
X20228114Y-11502929D01*
X20256686Y-11517214D01*
X20285257Y-11517214D01*
X20613828Y-11317214D02*
X20613828Y-11617214D01*
X20613828Y-11331500D02*
X20642400Y-11317214D01*
X20699543Y-11317214D01*
X20728114Y-11331500D01*
X20742400Y-11345786D01*
X20756686Y-11374357D01*
X20756686Y-11460071D01*
X20742400Y-11488643D01*
X20728114Y-11502929D01*
X20699543Y-11517214D01*
X20642400Y-11517214D01*
X20613828Y-11502929D01*
X20928114Y-11517214D02*
X20899543Y-11502929D01*
X20885257Y-11474357D01*
X20885257Y-11217214D01*
X21170971Y-11517214D02*
X21170971Y-11360071D01*
X21156686Y-11331500D01*
X21128114Y-11317214D01*
X21070971Y-11317214D01*
X21042400Y-11331500D01*
X21170971Y-11502929D02*
X21142400Y-11517214D01*
X21070971Y-11517214D01*
X21042400Y-11502929D01*
X21028114Y-11474357D01*
X21028114Y-11445786D01*
X21042400Y-11417214D01*
X21070971Y-11402929D01*
X21142400Y-11402929D01*
X21170971Y-11388643D01*
X21270971Y-11317214D02*
X21385257Y-11317214D01*
X21313828Y-11217214D02*
X21313828Y-11474357D01*
X21328114Y-11502929D01*
X21356686Y-11517214D01*
X21385257Y-11517214D01*
X21599543Y-11502929D02*
X21570971Y-11517214D01*
X21513828Y-11517214D01*
X21485257Y-11502929D01*
X21470971Y-11474357D01*
X21470971Y-11360071D01*
X21485257Y-11331500D01*
X21513828Y-11317214D01*
X21570971Y-11317214D01*
X21599543Y-11331500D01*
X21613828Y-11360071D01*
X21613828Y-11388643D01*
X21470971Y-11417214D01*
X21870971Y-11517214D02*
X21870971Y-11217214D01*
X21870971Y-11502929D02*
X21842400Y-11517214D01*
X21785257Y-11517214D01*
X21756686Y-11502929D01*
X21742400Y-11488643D01*
X21728114Y-11460071D01*
X21728114Y-11374357D01*
X21742400Y-11345786D01*
X21756686Y-11331500D01*
X21785257Y-11317214D01*
X21842400Y-11317214D01*
X21870971Y-11331500D01*
X21985257Y-11631500D02*
X21999543Y-11617214D01*
X22028114Y-11574357D01*
X22042400Y-11545786D01*
X22056686Y-11502929D01*
X22070971Y-11431500D01*
X22070971Y-11374357D01*
X22056686Y-11302929D01*
X22042400Y-11260071D01*
X22028114Y-11231500D01*
X21999543Y-11188643D01*
X21985257Y-11174357D01*
X12527400Y-11777500D02*
G75*
G03*
X12527400Y-11777500I-110000J0D01*
G01*
X12799543Y-11641786D02*
X12813828Y-11627500D01*
X12842400Y-11613214D01*
X12913828Y-11613214D01*
X12942400Y-11627500D01*
X12956686Y-11641786D01*
X12970971Y-11670357D01*
X12970971Y-11698929D01*
X12956686Y-11741786D01*
X12785257Y-11913214D01*
X12970971Y-11913214D01*
X13099543Y-11884643D02*
X13113828Y-11898929D01*
X13099543Y-11913214D01*
X13085257Y-11898929D01*
X13099543Y-11884643D01*
X13099543Y-11913214D01*
X13228114Y-11641786D02*
X13242400Y-11627500D01*
X13270971Y-11613214D01*
X13342400Y-11613214D01*
X13370971Y-11627500D01*
X13385257Y-11641786D01*
X13399543Y-11670357D01*
X13399543Y-11698929D01*
X13385257Y-11741786D01*
X13213828Y-11913214D01*
X13399543Y-11913214D01*
X13585257Y-11613214D02*
X13613828Y-11613214D01*
X13642400Y-11627500D01*
X13656686Y-11641786D01*
X13670971Y-11670357D01*
X13685257Y-11727500D01*
X13685257Y-11798929D01*
X13670971Y-11856071D01*
X13656686Y-11884643D01*
X13642400Y-11898929D01*
X13613828Y-11913214D01*
X13585257Y-11913214D01*
X13556686Y-11898929D01*
X13542400Y-11884643D01*
X13528114Y-11856071D01*
X13513828Y-11798929D01*
X13513828Y-11727500D01*
X13528114Y-11670357D01*
X13542400Y-11641786D01*
X13556686Y-11627500D01*
X13585257Y-11613214D01*
X13813828Y-11913214D02*
X13813828Y-11713214D01*
X13813828Y-11741786D02*
X13828114Y-11727500D01*
X13856686Y-11713214D01*
X13899543Y-11713214D01*
X13928114Y-11727500D01*
X13942400Y-11756071D01*
X13942400Y-11913214D01*
X13942400Y-11756071D02*
X13956686Y-11727500D01*
X13985257Y-11713214D01*
X14028114Y-11713214D01*
X14056686Y-11727500D01*
X14070971Y-11756071D01*
X14070971Y-11913214D01*
X14213828Y-11913214D02*
X14213828Y-11713214D01*
X14213828Y-11741786D02*
X14228114Y-11727500D01*
X14256686Y-11713214D01*
X14299543Y-11713214D01*
X14328114Y-11727500D01*
X14342400Y-11756071D01*
X14342400Y-11913214D01*
X14342400Y-11756071D02*
X14356686Y-11727500D01*
X14385257Y-11713214D01*
X14428114Y-11713214D01*
X14456686Y-11727500D01*
X14470971Y-11756071D01*
X14470971Y-11913214D01*
X15056686Y-11598929D02*
X14799543Y-11984643D01*
X15442400Y-11613214D02*
X15470971Y-11613214D01*
X15499543Y-11627500D01*
X15513828Y-11641786D01*
X15528114Y-11670357D01*
X15542400Y-11727500D01*
X15542400Y-11798929D01*
X15528114Y-11856071D01*
X15513828Y-11884643D01*
X15499543Y-11898929D01*
X15470971Y-11913214D01*
X15442400Y-11913214D01*
X15413828Y-11898929D01*
X15399543Y-11884643D01*
X15385257Y-11856071D01*
X15370971Y-11798929D01*
X15370971Y-11727500D01*
X15385257Y-11670357D01*
X15399543Y-11641786D01*
X15413828Y-11627500D01*
X15442400Y-11613214D01*
X15670971Y-11884643D02*
X15685257Y-11898929D01*
X15670971Y-11913214D01*
X15656686Y-11898929D01*
X15670971Y-11884643D01*
X15670971Y-11913214D01*
X15870971Y-11613214D02*
X15899543Y-11613214D01*
X15928114Y-11627500D01*
X15942400Y-11641786D01*
X15956686Y-11670357D01*
X15970971Y-11727500D01*
X15970971Y-11798929D01*
X15956686Y-11856071D01*
X15942400Y-11884643D01*
X15928114Y-11898929D01*
X15899543Y-11913214D01*
X15870971Y-11913214D01*
X15842400Y-11898929D01*
X15828114Y-11884643D01*
X15813828Y-11856071D01*
X15799543Y-11798929D01*
X15799543Y-11727500D01*
X15813828Y-11670357D01*
X15828114Y-11641786D01*
X15842400Y-11627500D01*
X15870971Y-11613214D01*
X16142400Y-11741786D02*
X16113828Y-11727500D01*
X16099543Y-11713214D01*
X16085257Y-11684643D01*
X16085257Y-11670357D01*
X16099543Y-11641786D01*
X16113828Y-11627500D01*
X16142400Y-11613214D01*
X16199543Y-11613214D01*
X16228114Y-11627500D01*
X16242400Y-11641786D01*
X16256686Y-11670357D01*
X16256686Y-11684643D01*
X16242400Y-11713214D01*
X16228114Y-11727500D01*
X16199543Y-11741786D01*
X16142400Y-11741786D01*
X16113828Y-11756071D01*
X16099543Y-11770357D01*
X16085257Y-11798929D01*
X16085257Y-11856071D01*
X16099543Y-11884643D01*
X16113828Y-11898929D01*
X16142400Y-11913214D01*
X16199543Y-11913214D01*
X16228114Y-11898929D01*
X16242400Y-11884643D01*
X16256686Y-11856071D01*
X16256686Y-11798929D01*
X16242400Y-11770357D01*
X16228114Y-11756071D01*
X16199543Y-11741786D01*
X16356686Y-11613214D02*
X16556686Y-11613214D01*
X16428114Y-11913214D01*
X16656686Y-11613214D02*
X16656686Y-11670357D01*
X16770971Y-11613214D02*
X16770971Y-11670357D01*
X17213828Y-12027500D02*
X17199543Y-12013214D01*
X17170971Y-11970357D01*
X17156686Y-11941786D01*
X17142400Y-11898929D01*
X17128114Y-11827500D01*
X17128114Y-11770357D01*
X17142400Y-11698929D01*
X17156686Y-11656071D01*
X17170971Y-11627500D01*
X17199543Y-11584643D01*
X17213828Y-11570357D01*
X17313828Y-11641786D02*
X17328114Y-11627500D01*
X17356686Y-11613214D01*
X17428114Y-11613214D01*
X17456686Y-11627500D01*
X17470971Y-11641786D01*
X17485257Y-11670357D01*
X17485257Y-11698929D01*
X17470971Y-11741786D01*
X17299543Y-11913214D01*
X17485257Y-11913214D01*
X17842400Y-11913214D02*
X17842400Y-11613214D01*
X17970971Y-11913214D02*
X17970971Y-11756071D01*
X17956686Y-11727500D01*
X17928114Y-11713214D01*
X17885257Y-11713214D01*
X17856686Y-11727500D01*
X17842400Y-11741786D01*
X18156686Y-11913214D02*
X18128114Y-11898929D01*
X18113828Y-11884643D01*
X18099543Y-11856071D01*
X18099543Y-11770357D01*
X18113828Y-11741786D01*
X18128114Y-11727500D01*
X18156686Y-11713214D01*
X18199543Y-11713214D01*
X18228114Y-11727500D01*
X18242400Y-11741786D01*
X18256686Y-11770357D01*
X18256686Y-11856071D01*
X18242400Y-11884643D01*
X18228114Y-11898929D01*
X18199543Y-11913214D01*
X18156686Y-11913214D01*
X18428114Y-11913214D02*
X18399543Y-11898929D01*
X18385257Y-11870357D01*
X18385257Y-11613214D01*
X18656686Y-11898929D02*
X18628114Y-11913214D01*
X18570971Y-11913214D01*
X18542400Y-11898929D01*
X18528114Y-11870357D01*
X18528114Y-11756071D01*
X18542400Y-11727500D01*
X18570971Y-11713214D01*
X18628114Y-11713214D01*
X18656686Y-11727500D01*
X18670971Y-11756071D01*
X18670971Y-11784643D01*
X18528114Y-11813214D01*
X18785257Y-11898929D02*
X18813828Y-11913214D01*
X18870971Y-11913214D01*
X18899543Y-11898929D01*
X18913828Y-11870357D01*
X18913828Y-11856071D01*
X18899543Y-11827500D01*
X18870971Y-11813214D01*
X18828114Y-11813214D01*
X18799543Y-11798929D01*
X18785257Y-11770357D01*
X18785257Y-11756071D01*
X18799543Y-11727500D01*
X18828114Y-11713214D01*
X18870971Y-11713214D01*
X18899543Y-11727500D01*
X19013828Y-12027500D02*
X19028114Y-12013214D01*
X19056686Y-11970357D01*
X19070971Y-11941786D01*
X19085257Y-11898929D01*
X19099543Y-11827500D01*
X19099543Y-11770357D01*
X19085257Y-11698929D01*
X19070971Y-11656071D01*
X19056686Y-11627500D01*
X19028114Y-11584643D01*
X19013828Y-11570357D01*
X19556686Y-12027500D02*
X19542400Y-12013214D01*
X19513828Y-11970357D01*
X19499543Y-11941786D01*
X19485257Y-11898929D01*
X19470971Y-11827500D01*
X19470971Y-11770357D01*
X19485257Y-11698929D01*
X19499543Y-11656071D01*
X19513828Y-11627500D01*
X19542400Y-11584643D01*
X19556686Y-11570357D01*
X19670971Y-11713214D02*
X19670971Y-11913214D01*
X19670971Y-11741786D02*
X19685257Y-11727500D01*
X19713828Y-11713214D01*
X19756686Y-11713214D01*
X19785257Y-11727500D01*
X19799543Y-11756071D01*
X19799543Y-11913214D01*
X19985257Y-11913214D02*
X19956686Y-11898929D01*
X19942400Y-11884643D01*
X19928114Y-11856071D01*
X19928114Y-11770357D01*
X19942400Y-11741786D01*
X19956686Y-11727500D01*
X19985257Y-11713214D01*
X20028114Y-11713214D01*
X20056686Y-11727500D01*
X20070971Y-11741786D01*
X20085257Y-11770357D01*
X20085257Y-11856071D01*
X20070971Y-11884643D01*
X20056686Y-11898929D01*
X20028114Y-11913214D01*
X19985257Y-11913214D01*
X20170971Y-11713214D02*
X20285257Y-11713214D01*
X20213828Y-11613214D02*
X20213828Y-11870357D01*
X20228114Y-11898929D01*
X20256686Y-11913214D01*
X20285257Y-11913214D01*
X20613828Y-11713214D02*
X20613828Y-12013214D01*
X20613828Y-11727500D02*
X20642400Y-11713214D01*
X20699543Y-11713214D01*
X20728114Y-11727500D01*
X20742400Y-11741786D01*
X20756686Y-11770357D01*
X20756686Y-11856071D01*
X20742400Y-11884643D01*
X20728114Y-11898929D01*
X20699543Y-11913214D01*
X20642400Y-11913214D01*
X20613828Y-11898929D01*
X20928114Y-11913214D02*
X20899543Y-11898929D01*
X20885257Y-11870357D01*
X20885257Y-11613214D01*
X21170971Y-11913214D02*
X21170971Y-11756071D01*
X21156686Y-11727500D01*
X21128114Y-11713214D01*
X21070971Y-11713214D01*
X21042400Y-11727500D01*
X21170971Y-11898929D02*
X21142400Y-11913214D01*
X21070971Y-11913214D01*
X21042400Y-11898929D01*
X21028114Y-11870357D01*
X21028114Y-11841786D01*
X21042400Y-11813214D01*
X21070971Y-11798929D01*
X21142400Y-11798929D01*
X21170971Y-11784643D01*
X21270971Y-11713214D02*
X21385257Y-11713214D01*
X21313828Y-11613214D02*
X21313828Y-11870357D01*
X21328114Y-11898929D01*
X21356686Y-11913214D01*
X21385257Y-11913214D01*
X21599543Y-11898929D02*
X21570971Y-11913214D01*
X21513828Y-11913214D01*
X21485257Y-11898929D01*
X21470971Y-11870357D01*
X21470971Y-11756071D01*
X21485257Y-11727500D01*
X21513828Y-11713214D01*
X21570971Y-11713214D01*
X21599543Y-11727500D01*
X21613828Y-11756071D01*
X21613828Y-11784643D01*
X21470971Y-11813214D01*
X21870971Y-11913214D02*
X21870971Y-11613214D01*
X21870971Y-11898929D02*
X21842400Y-11913214D01*
X21785257Y-11913214D01*
X21756686Y-11898929D01*
X21742400Y-11884643D01*
X21728114Y-11856071D01*
X21728114Y-11770357D01*
X21742400Y-11741786D01*
X21756686Y-11727500D01*
X21785257Y-11713214D01*
X21842400Y-11713214D01*
X21870971Y-11727500D01*
X21985257Y-12027500D02*
X21999543Y-12013214D01*
X22028114Y-11970357D01*
X22042400Y-11941786D01*
X22056686Y-11898929D01*
X22070971Y-11827500D01*
X22070971Y-11770357D01*
X22056686Y-11698929D01*
X22042400Y-11656071D01*
X22028114Y-11627500D01*
X21999543Y-11584643D01*
X21985257Y-11570357D01*
M02*
