M48
; DRILL file {KiCad (5.1.7-0-10_14)} date Wednesday, October 21, 2020 at 09:18:24 AM
; FORMAT={-:-/ absolute / inch / decimal}
; #@! TF.CreationDate,2020-10-21T09:18:24+08:00
; #@! TF.GenerationSoftware,Kicad,Pcbnew,(5.1.7-0-10_14)
; #@! TF.FileFunction,Plated,1,4,PTH
FMAT,2
INCH
T1C0.0079
T2C0.0118
T3C0.0157
T4C0.0236
T5C0.0394
T6C0.0984
%
G90
G05
T1
X6.3819Y-3.6496
X6.3819Y-3.689
X6.3819Y-3.7283
X6.4094Y-3.7598
X6.4213Y-3.6496
X6.4213Y-3.6496
X6.6587Y-3.611
X6.6587Y-3.6898
X6.7795Y-3.7323
X6.7913Y-3.9764
X6.7921Y-3.5547
T2
X5.235Y-3.3
X5.255Y-3.955
X5.605Y-3.54
X5.94Y-3.32
X5.955Y-3.525
X6.1202Y-3.7202
X6.13Y-3.68
X6.1592Y-3.8083
X6.16Y-3.765
X6.2043Y-3.8084
X6.2156Y-3.7261
X6.222Y-3.7757
X6.255Y-3.645
X6.29Y-3.555
X6.345Y-3.9262
X6.3976Y-3.8686
X6.3993Y-3.9262
X6.4179Y-3.8843
X6.4508Y-3.9244
X6.4911Y-3.9452
X6.5191Y-3.87
X6.5371Y-3.8519
X6.5483Y-3.9644
X6.5906Y-3.9646
X6.5909Y-3.8822
X6.6102Y-3.8622
X6.622Y-3.9173
X6.6416Y-3.8505
X6.6666Y-3.8183
X6.6861Y-3.7756
X6.6861Y-3.8067
X6.7294Y-3.41
X6.735Y-3.45
T3
X5.11Y-3.745
X5.115Y-3.555
X5.1325Y-3.7225
X5.135Y-3.58
X5.2402Y-3.5551
X5.2402Y-3.7441
X5.34Y-3.685
X5.355Y-3.415
X5.415Y-3.415
X5.4213Y-3.8543
X5.52Y-3.6861
X5.555Y-3.415
X5.565Y-3.495
X5.6496Y-3.8583
X5.6811Y-3.9291
X5.685Y-3.58
X5.865Y-3.57
X5.935Y-3.425
X6.095Y-3.85
X6.095Y-3.895
X6.11Y-3.56
X6.14Y-3.35
X6.14Y-3.395
X6.14Y-3.43
X6.27Y-3.85
X6.29Y-3.34
X6.5214Y-3.9024
X6.5394Y-3.4685
X6.66Y-3.48
X6.885Y-3.47
T5
X5.25Y-4.05
X5.35Y-4.05
X5.45Y-4.05
X5.55Y-4.05
X5.65Y-4.05
X5.75Y-4.05
X5.85Y-4.05
X5.95Y-4.05
X6.05Y-4.05
X6.15Y-4.05
X6.25Y-4.05
X6.35Y-4.05
X6.45Y-4.05
X6.55Y-4.05
X6.65Y-4.05
X6.75Y-4.05
X5.65Y-3.25
X5.75Y-3.25
X5.85Y-3.25
X5.95Y-3.25
X6.05Y-3.25
X6.15Y-3.25
X6.25Y-3.25
X6.35Y-3.25
X6.45Y-3.25
X6.55Y-3.25
X6.65Y-3.25
X6.75Y-3.25
T6
X5.1Y-3.3
X5.1Y-4.0
T4
G00X5.0195Y-3.4798
M15
G01X4.9959Y-3.4798
M16
G05
G00X5.0195Y-3.8199
M15
G01X4.9959Y-3.8199
M16
G05
G00X5.1939Y-3.4798
M15
G01X5.1506Y-3.4798
M16
G05
G00X5.1939Y-3.8199
M15
G01X5.1506Y-3.8199
M16
G05
T0
M30
