G04 #@! TF.GenerationSoftware,KiCad,Pcbnew,(5.1.7-0-10_14)*
G04 #@! TF.CreationDate,2020-10-21T09:18:26+08:00*
G04 #@! TF.ProjectId,Feather_STM32WB55,46656174-6865-4725-9f53-544d33325742,rev?*
G04 #@! TF.SameCoordinates,Original*
G04 #@! TF.FileFunction,Copper,L1,Top*
G04 #@! TF.FilePolarity,Positive*
%FSLAX46Y46*%
G04 Gerber Fmt 4.6, Leading zero omitted, Abs format (unit mm)*
G04 Created by KiCad (PCBNEW (5.1.7-0-10_14)) date 2020-10-21 09:18:26*
%MOMM*%
%LPD*%
G01*
G04 APERTURE LIST*
G04 #@! TA.AperFunction,SMDPad,CuDef*
%ADD10R,1.150000X0.300000*%
G04 #@! TD*
G04 #@! TA.AperFunction,ComponentPad*
%ADD11O,1.600000X1.000000*%
G04 #@! TD*
G04 #@! TA.AperFunction,ComponentPad*
%ADD12O,2.100000X1.000000*%
G04 #@! TD*
G04 #@! TA.AperFunction,SMDPad,CuDef*
%ADD13R,2.600000X1.500000*%
G04 #@! TD*
G04 #@! TA.AperFunction,SMDPad,CuDef*
%ADD14R,0.300000X0.300000*%
G04 #@! TD*
G04 #@! TA.AperFunction,SMDPad,CuDef*
%ADD15R,1.600000X0.850000*%
G04 #@! TD*
G04 #@! TA.AperFunction,SMDPad,CuDef*
%ADD16R,5.700000X5.700000*%
G04 #@! TD*
G04 #@! TA.AperFunction,SMDPad,CuDef*
%ADD17R,0.242474X0.909637*%
G04 #@! TD*
G04 #@! TA.AperFunction,SMDPad,CuDef*
%ADD18R,1.297940X1.148080*%
G04 #@! TD*
G04 #@! TA.AperFunction,SMDPad,CuDef*
%ADD19R,1.400000X1.200000*%
G04 #@! TD*
G04 #@! TA.AperFunction,ComponentPad*
%ADD20O,1.700000X1.700000*%
G04 #@! TD*
G04 #@! TA.AperFunction,ComponentPad*
%ADD21R,1.700000X1.700000*%
G04 #@! TD*
G04 #@! TA.AperFunction,ComponentPad*
%ADD22C,3.200000*%
G04 #@! TD*
G04 #@! TA.AperFunction,SMDPad,CuDef*
%ADD23R,1.200000X0.900000*%
G04 #@! TD*
G04 #@! TA.AperFunction,SMDPad,CuDef*
%ADD24R,0.900000X0.800000*%
G04 #@! TD*
G04 #@! TA.AperFunction,SMDPad,CuDef*
%ADD25R,0.650000X1.060000*%
G04 #@! TD*
G04 #@! TA.AperFunction,SMDPad,CuDef*
%ADD26R,1.060000X0.650000*%
G04 #@! TD*
G04 #@! TA.AperFunction,ViaPad*
%ADD27C,0.800000*%
G04 #@! TD*
G04 #@! TA.AperFunction,ViaPad*
%ADD28C,0.450000*%
G04 #@! TD*
G04 #@! TA.AperFunction,Conductor*
%ADD29C,0.500000*%
G04 #@! TD*
G04 #@! TA.AperFunction,Conductor*
%ADD30C,1.000000*%
G04 #@! TD*
G04 #@! TA.AperFunction,Conductor*
%ADD31C,0.750000*%
G04 #@! TD*
G04 #@! TA.AperFunction,Conductor*
%ADD32C,0.250000*%
G04 #@! TD*
G04 #@! TA.AperFunction,Conductor*
%ADD33C,0.300000*%
G04 #@! TD*
G04 #@! TA.AperFunction,Conductor*
%ADD34C,0.200000*%
G04 #@! TD*
G04 #@! TA.AperFunction,Conductor*
%ADD35C,0.293370*%
G04 #@! TD*
G04 #@! TA.AperFunction,Conductor*
%ADD36C,0.127000*%
G04 #@! TD*
G04 #@! TA.AperFunction,Conductor*
%ADD37C,0.100000*%
G04 #@! TD*
G04 APERTURE END LIST*
D10*
X131940000Y-96056000D03*
X131940000Y-95256000D03*
X131940000Y-90456000D03*
X131940000Y-89656000D03*
X131940000Y-89356000D03*
X131940000Y-90156000D03*
X131940000Y-90956000D03*
X131940000Y-91456000D03*
X131940000Y-91956000D03*
X131940000Y-92456000D03*
X131940000Y-92956000D03*
X131940000Y-93456000D03*
X131940000Y-93956000D03*
X131940000Y-94456000D03*
X131940000Y-94956000D03*
X131940000Y-95756000D03*
D11*
X127195000Y-97026000D03*
X127195000Y-88386000D03*
D12*
X131375000Y-97026000D03*
X131375000Y-88386000D03*
D13*
X175900000Y-94850000D03*
X175900000Y-99950000D03*
D14*
X169412000Y-92475000D03*
X168825000Y-92475000D03*
X168238000Y-92475000D03*
X168238000Y-92975000D03*
X168825000Y-92975000D03*
X169412000Y-92975000D03*
G04 #@! TA.AperFunction,SMDPad,CuDef*
G36*
G01*
X169656250Y-99250000D02*
X169143750Y-99250000D01*
G75*
G02*
X168925000Y-99031250I0J218750D01*
G01*
X168925000Y-98593750D01*
G75*
G02*
X169143750Y-98375000I218750J0D01*
G01*
X169656250Y-98375000D01*
G75*
G02*
X169875000Y-98593750I0J-218750D01*
G01*
X169875000Y-99031250D01*
G75*
G02*
X169656250Y-99250000I-218750J0D01*
G01*
G37*
G04 #@! TD.AperFunction*
G04 #@! TA.AperFunction,SMDPad,CuDef*
G36*
G01*
X169656250Y-100825000D02*
X169143750Y-100825000D01*
G75*
G02*
X168925000Y-100606250I0J218750D01*
G01*
X168925000Y-100168750D01*
G75*
G02*
X169143750Y-99950000I218750J0D01*
G01*
X169656250Y-99950000D01*
G75*
G02*
X169875000Y-100168750I0J-218750D01*
G01*
X169875000Y-100606250D01*
G75*
G02*
X169656250Y-100825000I-218750J0D01*
G01*
G37*
G04 #@! TD.AperFunction*
G04 #@! TA.AperFunction,SMDPad,CuDef*
G36*
G01*
X129890000Y-86743250D02*
X129890000Y-86230750D01*
G75*
G02*
X130108750Y-86012000I218750J0D01*
G01*
X130546250Y-86012000D01*
G75*
G02*
X130765000Y-86230750I0J-218750D01*
G01*
X130765000Y-86743250D01*
G75*
G02*
X130546250Y-86962000I-218750J0D01*
G01*
X130108750Y-86962000D01*
G75*
G02*
X129890000Y-86743250I0J218750D01*
G01*
G37*
G04 #@! TD.AperFunction*
G04 #@! TA.AperFunction,SMDPad,CuDef*
G36*
G01*
X128315000Y-86743250D02*
X128315000Y-86230750D01*
G75*
G02*
X128533750Y-86012000I218750J0D01*
G01*
X128971250Y-86012000D01*
G75*
G02*
X129190000Y-86230750I0J-218750D01*
G01*
X129190000Y-86743250D01*
G75*
G02*
X128971250Y-86962000I-218750J0D01*
G01*
X128533750Y-86962000D01*
G75*
G02*
X128315000Y-86743250I0J218750D01*
G01*
G37*
G04 #@! TD.AperFunction*
G04 #@! TA.AperFunction,SMDPad,CuDef*
G36*
G01*
X129190000Y-98676750D02*
X129190000Y-99189250D01*
G75*
G02*
X128971250Y-99408000I-218750J0D01*
G01*
X128533750Y-99408000D01*
G75*
G02*
X128315000Y-99189250I0J218750D01*
G01*
X128315000Y-98676750D01*
G75*
G02*
X128533750Y-98458000I218750J0D01*
G01*
X128971250Y-98458000D01*
G75*
G02*
X129190000Y-98676750I0J-218750D01*
G01*
G37*
G04 #@! TD.AperFunction*
G04 #@! TA.AperFunction,SMDPad,CuDef*
G36*
G01*
X130765000Y-98676750D02*
X130765000Y-99189250D01*
G75*
G02*
X130546250Y-99408000I-218750J0D01*
G01*
X130108750Y-99408000D01*
G75*
G02*
X129890000Y-99189250I0J218750D01*
G01*
X129890000Y-98676750D01*
G75*
G02*
X130108750Y-98458000I218750J0D01*
G01*
X130546250Y-98458000D01*
G75*
G02*
X130765000Y-98676750I0J-218750D01*
G01*
G37*
G04 #@! TD.AperFunction*
G04 #@! TA.AperFunction,SMDPad,CuDef*
G36*
G01*
X172025000Y-99050000D02*
X172025000Y-98550000D01*
G75*
G02*
X172250000Y-98325000I225000J0D01*
G01*
X172700000Y-98325000D01*
G75*
G02*
X172925000Y-98550000I0J-225000D01*
G01*
X172925000Y-99050000D01*
G75*
G02*
X172700000Y-99275000I-225000J0D01*
G01*
X172250000Y-99275000D01*
G75*
G02*
X172025000Y-99050000I0J225000D01*
G01*
G37*
G04 #@! TD.AperFunction*
G04 #@! TA.AperFunction,SMDPad,CuDef*
G36*
G01*
X170475000Y-99050000D02*
X170475000Y-98550000D01*
G75*
G02*
X170700000Y-98325000I225000J0D01*
G01*
X171150000Y-98325000D01*
G75*
G02*
X171375000Y-98550000I0J-225000D01*
G01*
X171375000Y-99050000D01*
G75*
G02*
X171150000Y-99275000I-225000J0D01*
G01*
X170700000Y-99275000D01*
G75*
G02*
X170475000Y-99050000I0J225000D01*
G01*
G37*
G04 #@! TD.AperFunction*
D15*
X142150000Y-98025000D03*
X142150000Y-99775000D03*
X145650000Y-98025000D03*
X145650000Y-99775000D03*
D16*
X163322000Y-93726000D03*
G04 #@! TA.AperFunction,SMDPad,CuDef*
G36*
G01*
X160254334Y-96597237D02*
X159587172Y-96597237D01*
G75*
G02*
X159465935Y-96476000I0J121237D01*
G01*
X159465935Y-96476000D01*
G75*
G02*
X159587172Y-96354763I121237J0D01*
G01*
X160254334Y-96354763D01*
G75*
G02*
X160375571Y-96476000I0J-121237D01*
G01*
X160375571Y-96476000D01*
G75*
G02*
X160254334Y-96597237I-121237J0D01*
G01*
G37*
G04 #@! TD.AperFunction*
G04 #@! TA.AperFunction,SMDPad,CuDef*
G36*
G01*
X160254334Y-96097237D02*
X159587172Y-96097237D01*
G75*
G02*
X159465935Y-95976000I0J121237D01*
G01*
X159465935Y-95976000D01*
G75*
G02*
X159587172Y-95854763I121237J0D01*
G01*
X160254334Y-95854763D01*
G75*
G02*
X160375571Y-95976000I0J-121237D01*
G01*
X160375571Y-95976000D01*
G75*
G02*
X160254334Y-96097237I-121237J0D01*
G01*
G37*
G04 #@! TD.AperFunction*
G04 #@! TA.AperFunction,SMDPad,CuDef*
G36*
G01*
X160254334Y-95597237D02*
X159587172Y-95597237D01*
G75*
G02*
X159465935Y-95476000I0J121237D01*
G01*
X159465935Y-95476000D01*
G75*
G02*
X159587172Y-95354763I121237J0D01*
G01*
X160254334Y-95354763D01*
G75*
G02*
X160375571Y-95476000I0J-121237D01*
G01*
X160375571Y-95476000D01*
G75*
G02*
X160254334Y-95597237I-121237J0D01*
G01*
G37*
G04 #@! TD.AperFunction*
G04 #@! TA.AperFunction,SMDPad,CuDef*
G36*
G01*
X160254334Y-95097237D02*
X159587172Y-95097237D01*
G75*
G02*
X159465935Y-94976000I0J121237D01*
G01*
X159465935Y-94976000D01*
G75*
G02*
X159587172Y-94854763I121237J0D01*
G01*
X160254334Y-94854763D01*
G75*
G02*
X160375571Y-94976000I0J-121237D01*
G01*
X160375571Y-94976000D01*
G75*
G02*
X160254334Y-95097237I-121237J0D01*
G01*
G37*
G04 #@! TD.AperFunction*
G04 #@! TA.AperFunction,SMDPad,CuDef*
G36*
G01*
X160254334Y-94597237D02*
X159587172Y-94597237D01*
G75*
G02*
X159465935Y-94476000I0J121237D01*
G01*
X159465935Y-94476000D01*
G75*
G02*
X159587172Y-94354763I121237J0D01*
G01*
X160254334Y-94354763D01*
G75*
G02*
X160375571Y-94476000I0J-121237D01*
G01*
X160375571Y-94476000D01*
G75*
G02*
X160254334Y-94597237I-121237J0D01*
G01*
G37*
G04 #@! TD.AperFunction*
G04 #@! TA.AperFunction,SMDPad,CuDef*
G36*
G01*
X160254334Y-94097237D02*
X159587172Y-94097237D01*
G75*
G02*
X159465935Y-93976000I0J121237D01*
G01*
X159465935Y-93976000D01*
G75*
G02*
X159587172Y-93854763I121237J0D01*
G01*
X160254334Y-93854763D01*
G75*
G02*
X160375571Y-93976000I0J-121237D01*
G01*
X160375571Y-93976000D01*
G75*
G02*
X160254334Y-94097237I-121237J0D01*
G01*
G37*
G04 #@! TD.AperFunction*
G04 #@! TA.AperFunction,SMDPad,CuDef*
G36*
G01*
X160254334Y-93597237D02*
X159587172Y-93597237D01*
G75*
G02*
X159465935Y-93476000I0J121237D01*
G01*
X159465935Y-93476000D01*
G75*
G02*
X159587172Y-93354763I121237J0D01*
G01*
X160254334Y-93354763D01*
G75*
G02*
X160375571Y-93476000I0J-121237D01*
G01*
X160375571Y-93476000D01*
G75*
G02*
X160254334Y-93597237I-121237J0D01*
G01*
G37*
G04 #@! TD.AperFunction*
G04 #@! TA.AperFunction,SMDPad,CuDef*
G36*
G01*
X160254334Y-93097237D02*
X159587172Y-93097237D01*
G75*
G02*
X159465935Y-92976000I0J121237D01*
G01*
X159465935Y-92976000D01*
G75*
G02*
X159587172Y-92854763I121237J0D01*
G01*
X160254334Y-92854763D01*
G75*
G02*
X160375571Y-92976000I0J-121237D01*
G01*
X160375571Y-92976000D01*
G75*
G02*
X160254334Y-93097237I-121237J0D01*
G01*
G37*
G04 #@! TD.AperFunction*
G04 #@! TA.AperFunction,SMDPad,CuDef*
G36*
G01*
X160254334Y-92597237D02*
X159587172Y-92597237D01*
G75*
G02*
X159465935Y-92476000I0J121237D01*
G01*
X159465935Y-92476000D01*
G75*
G02*
X159587172Y-92354763I121237J0D01*
G01*
X160254334Y-92354763D01*
G75*
G02*
X160375571Y-92476000I0J-121237D01*
G01*
X160375571Y-92476000D01*
G75*
G02*
X160254334Y-92597237I-121237J0D01*
G01*
G37*
G04 #@! TD.AperFunction*
G04 #@! TA.AperFunction,SMDPad,CuDef*
G36*
G01*
X160254334Y-92097237D02*
X159587172Y-92097237D01*
G75*
G02*
X159465935Y-91976000I0J121237D01*
G01*
X159465935Y-91976000D01*
G75*
G02*
X159587172Y-91854763I121237J0D01*
G01*
X160254334Y-91854763D01*
G75*
G02*
X160375571Y-91976000I0J-121237D01*
G01*
X160375571Y-91976000D01*
G75*
G02*
X160254334Y-92097237I-121237J0D01*
G01*
G37*
G04 #@! TD.AperFunction*
G04 #@! TA.AperFunction,SMDPad,CuDef*
G36*
G01*
X160254334Y-91597237D02*
X159587172Y-91597237D01*
G75*
G02*
X159465935Y-91476000I0J121237D01*
G01*
X159465935Y-91476000D01*
G75*
G02*
X159587172Y-91354763I121237J0D01*
G01*
X160254334Y-91354763D01*
G75*
G02*
X160375571Y-91476000I0J-121237D01*
G01*
X160375571Y-91476000D01*
G75*
G02*
X160254334Y-91597237I-121237J0D01*
G01*
G37*
G04 #@! TD.AperFunction*
G04 #@! TA.AperFunction,SMDPad,CuDef*
G36*
G01*
X160254334Y-91097237D02*
X159587172Y-91097237D01*
G75*
G02*
X159465935Y-90976000I0J121237D01*
G01*
X159465935Y-90976000D01*
G75*
G02*
X159587172Y-90854763I121237J0D01*
G01*
X160254334Y-90854763D01*
G75*
G02*
X160375571Y-90976000I0J-121237D01*
G01*
X160375571Y-90976000D01*
G75*
G02*
X160254334Y-91097237I-121237J0D01*
G01*
G37*
G04 #@! TD.AperFunction*
G04 #@! TA.AperFunction,SMDPad,CuDef*
G36*
G01*
X167056829Y-91097237D02*
X166389667Y-91097237D01*
G75*
G02*
X166268430Y-90976000I0J121237D01*
G01*
X166268430Y-90976000D01*
G75*
G02*
X166389667Y-90854763I121237J0D01*
G01*
X167056829Y-90854763D01*
G75*
G02*
X167178066Y-90976000I0J-121237D01*
G01*
X167178066Y-90976000D01*
G75*
G02*
X167056829Y-91097237I-121237J0D01*
G01*
G37*
G04 #@! TD.AperFunction*
G04 #@! TA.AperFunction,SMDPad,CuDef*
G36*
G01*
X167056829Y-91597237D02*
X166389667Y-91597237D01*
G75*
G02*
X166268430Y-91476000I0J121237D01*
G01*
X166268430Y-91476000D01*
G75*
G02*
X166389667Y-91354763I121237J0D01*
G01*
X167056829Y-91354763D01*
G75*
G02*
X167178066Y-91476000I0J-121237D01*
G01*
X167178066Y-91476000D01*
G75*
G02*
X167056829Y-91597237I-121237J0D01*
G01*
G37*
G04 #@! TD.AperFunction*
G04 #@! TA.AperFunction,SMDPad,CuDef*
G36*
G01*
X167056829Y-92097237D02*
X166389667Y-92097237D01*
G75*
G02*
X166268430Y-91976000I0J121237D01*
G01*
X166268430Y-91976000D01*
G75*
G02*
X166389667Y-91854763I121237J0D01*
G01*
X167056829Y-91854763D01*
G75*
G02*
X167178066Y-91976000I0J-121237D01*
G01*
X167178066Y-91976000D01*
G75*
G02*
X167056829Y-92097237I-121237J0D01*
G01*
G37*
G04 #@! TD.AperFunction*
G04 #@! TA.AperFunction,SMDPad,CuDef*
G36*
G01*
X167056829Y-92597237D02*
X166389667Y-92597237D01*
G75*
G02*
X166268430Y-92476000I0J121237D01*
G01*
X166268430Y-92476000D01*
G75*
G02*
X166389667Y-92354763I121237J0D01*
G01*
X167056829Y-92354763D01*
G75*
G02*
X167178066Y-92476000I0J-121237D01*
G01*
X167178066Y-92476000D01*
G75*
G02*
X167056829Y-92597237I-121237J0D01*
G01*
G37*
G04 #@! TD.AperFunction*
G04 #@! TA.AperFunction,SMDPad,CuDef*
G36*
G01*
X167056829Y-93097237D02*
X166389667Y-93097237D01*
G75*
G02*
X166268430Y-92976000I0J121237D01*
G01*
X166268430Y-92976000D01*
G75*
G02*
X166389667Y-92854763I121237J0D01*
G01*
X167056829Y-92854763D01*
G75*
G02*
X167178066Y-92976000I0J-121237D01*
G01*
X167178066Y-92976000D01*
G75*
G02*
X167056829Y-93097237I-121237J0D01*
G01*
G37*
G04 #@! TD.AperFunction*
G04 #@! TA.AperFunction,SMDPad,CuDef*
G36*
G01*
X167056829Y-93597237D02*
X166389667Y-93597237D01*
G75*
G02*
X166268430Y-93476000I0J121237D01*
G01*
X166268430Y-93476000D01*
G75*
G02*
X166389667Y-93354763I121237J0D01*
G01*
X167056829Y-93354763D01*
G75*
G02*
X167178066Y-93476000I0J-121237D01*
G01*
X167178066Y-93476000D01*
G75*
G02*
X167056829Y-93597237I-121237J0D01*
G01*
G37*
G04 #@! TD.AperFunction*
G04 #@! TA.AperFunction,SMDPad,CuDef*
G36*
G01*
X167056829Y-94097237D02*
X166389667Y-94097237D01*
G75*
G02*
X166268430Y-93976000I0J121237D01*
G01*
X166268430Y-93976000D01*
G75*
G02*
X166389667Y-93854763I121237J0D01*
G01*
X167056829Y-93854763D01*
G75*
G02*
X167178066Y-93976000I0J-121237D01*
G01*
X167178066Y-93976000D01*
G75*
G02*
X167056829Y-94097237I-121237J0D01*
G01*
G37*
G04 #@! TD.AperFunction*
G04 #@! TA.AperFunction,SMDPad,CuDef*
G36*
G01*
X167056829Y-94597237D02*
X166389667Y-94597237D01*
G75*
G02*
X166268430Y-94476000I0J121237D01*
G01*
X166268430Y-94476000D01*
G75*
G02*
X166389667Y-94354763I121237J0D01*
G01*
X167056829Y-94354763D01*
G75*
G02*
X167178066Y-94476000I0J-121237D01*
G01*
X167178066Y-94476000D01*
G75*
G02*
X167056829Y-94597237I-121237J0D01*
G01*
G37*
G04 #@! TD.AperFunction*
G04 #@! TA.AperFunction,SMDPad,CuDef*
G36*
G01*
X167056829Y-95097237D02*
X166389667Y-95097237D01*
G75*
G02*
X166268430Y-94976000I0J121237D01*
G01*
X166268430Y-94976000D01*
G75*
G02*
X166389667Y-94854763I121237J0D01*
G01*
X167056829Y-94854763D01*
G75*
G02*
X167178066Y-94976000I0J-121237D01*
G01*
X167178066Y-94976000D01*
G75*
G02*
X167056829Y-95097237I-121237J0D01*
G01*
G37*
G04 #@! TD.AperFunction*
G04 #@! TA.AperFunction,SMDPad,CuDef*
G36*
G01*
X167056829Y-95597237D02*
X166389667Y-95597237D01*
G75*
G02*
X166268430Y-95476000I0J121237D01*
G01*
X166268430Y-95476000D01*
G75*
G02*
X166389667Y-95354763I121237J0D01*
G01*
X167056829Y-95354763D01*
G75*
G02*
X167178066Y-95476000I0J-121237D01*
G01*
X167178066Y-95476000D01*
G75*
G02*
X167056829Y-95597237I-121237J0D01*
G01*
G37*
G04 #@! TD.AperFunction*
G04 #@! TA.AperFunction,SMDPad,CuDef*
G36*
G01*
X167056829Y-96097237D02*
X166389667Y-96097237D01*
G75*
G02*
X166268430Y-95976000I0J121237D01*
G01*
X166268430Y-95976000D01*
G75*
G02*
X166389667Y-95854763I121237J0D01*
G01*
X167056829Y-95854763D01*
G75*
G02*
X167178066Y-95976000I0J-121237D01*
G01*
X167178066Y-95976000D01*
G75*
G02*
X167056829Y-96097237I-121237J0D01*
G01*
G37*
G04 #@! TD.AperFunction*
G04 #@! TA.AperFunction,SMDPad,CuDef*
G36*
G01*
X167056829Y-96597237D02*
X166389667Y-96597237D01*
G75*
G02*
X166268430Y-96476000I0J121237D01*
G01*
X166268430Y-96476000D01*
G75*
G02*
X166389667Y-96354763I121237J0D01*
G01*
X167056829Y-96354763D01*
G75*
G02*
X167178066Y-96476000I0J-121237D01*
G01*
X167178066Y-96476000D01*
G75*
G02*
X167056829Y-96597237I-121237J0D01*
G01*
G37*
G04 #@! TD.AperFunction*
G04 #@! TA.AperFunction,SMDPad,CuDef*
G36*
G01*
X160572000Y-90779570D02*
X160572000Y-90779570D01*
G75*
G02*
X160450763Y-90658333I0J121237D01*
G01*
X160450763Y-89991171D01*
G75*
G02*
X160572000Y-89869934I121237J0D01*
G01*
X160572000Y-89869934D01*
G75*
G02*
X160693237Y-89991171I0J-121237D01*
G01*
X160693237Y-90658333D01*
G75*
G02*
X160572000Y-90779570I-121237J0D01*
G01*
G37*
G04 #@! TD.AperFunction*
G04 #@! TA.AperFunction,SMDPad,CuDef*
G36*
G01*
X161072000Y-90779570D02*
X161072000Y-90779570D01*
G75*
G02*
X160950763Y-90658333I0J121237D01*
G01*
X160950763Y-89991171D01*
G75*
G02*
X161072000Y-89869934I121237J0D01*
G01*
X161072000Y-89869934D01*
G75*
G02*
X161193237Y-89991171I0J-121237D01*
G01*
X161193237Y-90658333D01*
G75*
G02*
X161072000Y-90779570I-121237J0D01*
G01*
G37*
G04 #@! TD.AperFunction*
G04 #@! TA.AperFunction,SMDPad,CuDef*
G36*
G01*
X161572000Y-90779570D02*
X161572000Y-90779570D01*
G75*
G02*
X161450763Y-90658333I0J121237D01*
G01*
X161450763Y-89991171D01*
G75*
G02*
X161572000Y-89869934I121237J0D01*
G01*
X161572000Y-89869934D01*
G75*
G02*
X161693237Y-89991171I0J-121237D01*
G01*
X161693237Y-90658333D01*
G75*
G02*
X161572000Y-90779570I-121237J0D01*
G01*
G37*
G04 #@! TD.AperFunction*
G04 #@! TA.AperFunction,SMDPad,CuDef*
G36*
G01*
X162072000Y-90779570D02*
X162072000Y-90779570D01*
G75*
G02*
X161950763Y-90658333I0J121237D01*
G01*
X161950763Y-89991171D01*
G75*
G02*
X162072000Y-89869934I121237J0D01*
G01*
X162072000Y-89869934D01*
G75*
G02*
X162193237Y-89991171I0J-121237D01*
G01*
X162193237Y-90658333D01*
G75*
G02*
X162072000Y-90779570I-121237J0D01*
G01*
G37*
G04 #@! TD.AperFunction*
G04 #@! TA.AperFunction,SMDPad,CuDef*
G36*
G01*
X162572000Y-90779570D02*
X162572000Y-90779570D01*
G75*
G02*
X162450763Y-90658333I0J121237D01*
G01*
X162450763Y-89991171D01*
G75*
G02*
X162572000Y-89869934I121237J0D01*
G01*
X162572000Y-89869934D01*
G75*
G02*
X162693237Y-89991171I0J-121237D01*
G01*
X162693237Y-90658333D01*
G75*
G02*
X162572000Y-90779570I-121237J0D01*
G01*
G37*
G04 #@! TD.AperFunction*
G04 #@! TA.AperFunction,SMDPad,CuDef*
G36*
G01*
X163072000Y-90779570D02*
X163072000Y-90779570D01*
G75*
G02*
X162950763Y-90658333I0J121237D01*
G01*
X162950763Y-89991171D01*
G75*
G02*
X163072000Y-89869934I121237J0D01*
G01*
X163072000Y-89869934D01*
G75*
G02*
X163193237Y-89991171I0J-121237D01*
G01*
X163193237Y-90658333D01*
G75*
G02*
X163072000Y-90779570I-121237J0D01*
G01*
G37*
G04 #@! TD.AperFunction*
G04 #@! TA.AperFunction,SMDPad,CuDef*
G36*
G01*
X163572000Y-90779570D02*
X163572000Y-90779570D01*
G75*
G02*
X163450763Y-90658333I0J121237D01*
G01*
X163450763Y-89991171D01*
G75*
G02*
X163572000Y-89869934I121237J0D01*
G01*
X163572000Y-89869934D01*
G75*
G02*
X163693237Y-89991171I0J-121237D01*
G01*
X163693237Y-90658333D01*
G75*
G02*
X163572000Y-90779570I-121237J0D01*
G01*
G37*
G04 #@! TD.AperFunction*
G04 #@! TA.AperFunction,SMDPad,CuDef*
G36*
G01*
X164072000Y-90779570D02*
X164072000Y-90779570D01*
G75*
G02*
X163950763Y-90658333I0J121237D01*
G01*
X163950763Y-89991171D01*
G75*
G02*
X164072000Y-89869934I121237J0D01*
G01*
X164072000Y-89869934D01*
G75*
G02*
X164193237Y-89991171I0J-121237D01*
G01*
X164193237Y-90658333D01*
G75*
G02*
X164072000Y-90779570I-121237J0D01*
G01*
G37*
G04 #@! TD.AperFunction*
G04 #@! TA.AperFunction,SMDPad,CuDef*
G36*
G01*
X164572000Y-90779570D02*
X164572000Y-90779570D01*
G75*
G02*
X164450763Y-90658333I0J121237D01*
G01*
X164450763Y-89991171D01*
G75*
G02*
X164572000Y-89869934I121237J0D01*
G01*
X164572000Y-89869934D01*
G75*
G02*
X164693237Y-89991171I0J-121237D01*
G01*
X164693237Y-90658333D01*
G75*
G02*
X164572000Y-90779570I-121237J0D01*
G01*
G37*
G04 #@! TD.AperFunction*
G04 #@! TA.AperFunction,SMDPad,CuDef*
G36*
G01*
X165072000Y-90779570D02*
X165072000Y-90779570D01*
G75*
G02*
X164950763Y-90658333I0J121237D01*
G01*
X164950763Y-89991171D01*
G75*
G02*
X165072000Y-89869934I121237J0D01*
G01*
X165072000Y-89869934D01*
G75*
G02*
X165193237Y-89991171I0J-121237D01*
G01*
X165193237Y-90658333D01*
G75*
G02*
X165072000Y-90779570I-121237J0D01*
G01*
G37*
G04 #@! TD.AperFunction*
G04 #@! TA.AperFunction,SMDPad,CuDef*
G36*
G01*
X165572000Y-90779570D02*
X165572000Y-90779570D01*
G75*
G02*
X165450763Y-90658333I0J121237D01*
G01*
X165450763Y-89991171D01*
G75*
G02*
X165572000Y-89869934I121237J0D01*
G01*
X165572000Y-89869934D01*
G75*
G02*
X165693237Y-89991171I0J-121237D01*
G01*
X165693237Y-90658333D01*
G75*
G02*
X165572000Y-90779570I-121237J0D01*
G01*
G37*
G04 #@! TD.AperFunction*
G04 #@! TA.AperFunction,SMDPad,CuDef*
G36*
G01*
X166072000Y-90779570D02*
X166072000Y-90779570D01*
G75*
G02*
X165950763Y-90658333I0J121237D01*
G01*
X165950763Y-89991171D01*
G75*
G02*
X166072000Y-89869934I121237J0D01*
G01*
X166072000Y-89869934D01*
G75*
G02*
X166193237Y-89991171I0J-121237D01*
G01*
X166193237Y-90658333D01*
G75*
G02*
X166072000Y-90779570I-121237J0D01*
G01*
G37*
G04 #@! TD.AperFunction*
G04 #@! TA.AperFunction,SMDPad,CuDef*
G36*
G01*
X166072000Y-97582065D02*
X166072000Y-97582065D01*
G75*
G02*
X165950763Y-97460828I0J121237D01*
G01*
X165950763Y-96793666D01*
G75*
G02*
X166072000Y-96672429I121237J0D01*
G01*
X166072000Y-96672429D01*
G75*
G02*
X166193237Y-96793666I0J-121237D01*
G01*
X166193237Y-97460828D01*
G75*
G02*
X166072000Y-97582065I-121237J0D01*
G01*
G37*
G04 #@! TD.AperFunction*
G04 #@! TA.AperFunction,SMDPad,CuDef*
G36*
G01*
X165572000Y-97582065D02*
X165572000Y-97582065D01*
G75*
G02*
X165450763Y-97460828I0J121237D01*
G01*
X165450763Y-96793666D01*
G75*
G02*
X165572000Y-96672429I121237J0D01*
G01*
X165572000Y-96672429D01*
G75*
G02*
X165693237Y-96793666I0J-121237D01*
G01*
X165693237Y-97460828D01*
G75*
G02*
X165572000Y-97582065I-121237J0D01*
G01*
G37*
G04 #@! TD.AperFunction*
G04 #@! TA.AperFunction,SMDPad,CuDef*
G36*
G01*
X165072000Y-97582065D02*
X165072000Y-97582065D01*
G75*
G02*
X164950763Y-97460828I0J121237D01*
G01*
X164950763Y-96793666D01*
G75*
G02*
X165072000Y-96672429I121237J0D01*
G01*
X165072000Y-96672429D01*
G75*
G02*
X165193237Y-96793666I0J-121237D01*
G01*
X165193237Y-97460828D01*
G75*
G02*
X165072000Y-97582065I-121237J0D01*
G01*
G37*
G04 #@! TD.AperFunction*
G04 #@! TA.AperFunction,SMDPad,CuDef*
G36*
G01*
X164572000Y-97582065D02*
X164572000Y-97582065D01*
G75*
G02*
X164450763Y-97460828I0J121237D01*
G01*
X164450763Y-96793666D01*
G75*
G02*
X164572000Y-96672429I121237J0D01*
G01*
X164572000Y-96672429D01*
G75*
G02*
X164693237Y-96793666I0J-121237D01*
G01*
X164693237Y-97460828D01*
G75*
G02*
X164572000Y-97582065I-121237J0D01*
G01*
G37*
G04 #@! TD.AperFunction*
G04 #@! TA.AperFunction,SMDPad,CuDef*
G36*
G01*
X164072000Y-97582065D02*
X164072000Y-97582065D01*
G75*
G02*
X163950763Y-97460828I0J121237D01*
G01*
X163950763Y-96793666D01*
G75*
G02*
X164072000Y-96672429I121237J0D01*
G01*
X164072000Y-96672429D01*
G75*
G02*
X164193237Y-96793666I0J-121237D01*
G01*
X164193237Y-97460828D01*
G75*
G02*
X164072000Y-97582065I-121237J0D01*
G01*
G37*
G04 #@! TD.AperFunction*
G04 #@! TA.AperFunction,SMDPad,CuDef*
G36*
G01*
X163572000Y-97582065D02*
X163572000Y-97582065D01*
G75*
G02*
X163450763Y-97460828I0J121237D01*
G01*
X163450763Y-96793666D01*
G75*
G02*
X163572000Y-96672429I121237J0D01*
G01*
X163572000Y-96672429D01*
G75*
G02*
X163693237Y-96793666I0J-121237D01*
G01*
X163693237Y-97460828D01*
G75*
G02*
X163572000Y-97582065I-121237J0D01*
G01*
G37*
G04 #@! TD.AperFunction*
G04 #@! TA.AperFunction,SMDPad,CuDef*
G36*
G01*
X163072000Y-97582065D02*
X163072000Y-97582065D01*
G75*
G02*
X162950763Y-97460828I0J121237D01*
G01*
X162950763Y-96793666D01*
G75*
G02*
X163072000Y-96672429I121237J0D01*
G01*
X163072000Y-96672429D01*
G75*
G02*
X163193237Y-96793666I0J-121237D01*
G01*
X163193237Y-97460828D01*
G75*
G02*
X163072000Y-97582065I-121237J0D01*
G01*
G37*
G04 #@! TD.AperFunction*
G04 #@! TA.AperFunction,SMDPad,CuDef*
G36*
G01*
X162572000Y-97582065D02*
X162572000Y-97582065D01*
G75*
G02*
X162450763Y-97460828I0J121237D01*
G01*
X162450763Y-96793666D01*
G75*
G02*
X162572000Y-96672429I121237J0D01*
G01*
X162572000Y-96672429D01*
G75*
G02*
X162693237Y-96793666I0J-121237D01*
G01*
X162693237Y-97460828D01*
G75*
G02*
X162572000Y-97582065I-121237J0D01*
G01*
G37*
G04 #@! TD.AperFunction*
G04 #@! TA.AperFunction,SMDPad,CuDef*
G36*
G01*
X162072000Y-97582065D02*
X162072000Y-97582065D01*
G75*
G02*
X161950763Y-97460828I0J121237D01*
G01*
X161950763Y-96793666D01*
G75*
G02*
X162072000Y-96672429I121237J0D01*
G01*
X162072000Y-96672429D01*
G75*
G02*
X162193237Y-96793666I0J-121237D01*
G01*
X162193237Y-97460828D01*
G75*
G02*
X162072000Y-97582065I-121237J0D01*
G01*
G37*
G04 #@! TD.AperFunction*
G04 #@! TA.AperFunction,SMDPad,CuDef*
G36*
G01*
X161572000Y-97582065D02*
X161572000Y-97582065D01*
G75*
G02*
X161450763Y-97460828I0J121237D01*
G01*
X161450763Y-96793666D01*
G75*
G02*
X161572000Y-96672429I121237J0D01*
G01*
X161572000Y-96672429D01*
G75*
G02*
X161693237Y-96793666I0J-121237D01*
G01*
X161693237Y-97460828D01*
G75*
G02*
X161572000Y-97582065I-121237J0D01*
G01*
G37*
G04 #@! TD.AperFunction*
G04 #@! TA.AperFunction,SMDPad,CuDef*
G36*
G01*
X161072000Y-97582065D02*
X161072000Y-97582065D01*
G75*
G02*
X160950763Y-97460828I0J121237D01*
G01*
X160950763Y-96793666D01*
G75*
G02*
X161072000Y-96672429I121237J0D01*
G01*
X161072000Y-96672429D01*
G75*
G02*
X161193237Y-96793666I0J-121237D01*
G01*
X161193237Y-97460828D01*
G75*
G02*
X161072000Y-97582065I-121237J0D01*
G01*
G37*
G04 #@! TD.AperFunction*
D17*
X160572000Y-97127247D03*
G04 #@! TA.AperFunction,SMDPad,CuDef*
G36*
G01*
X135195000Y-82010000D02*
X135195000Y-84910000D01*
G75*
G02*
X134945000Y-85160000I-250000J0D01*
G01*
X133945000Y-85160000D01*
G75*
G02*
X133695000Y-84910000I0J250000D01*
G01*
X133695000Y-82010000D01*
G75*
G02*
X133945000Y-81760000I250000J0D01*
G01*
X134945000Y-81760000D01*
G75*
G02*
X135195000Y-82010000I0J-250000D01*
G01*
G37*
G04 #@! TD.AperFunction*
G04 #@! TA.AperFunction,SMDPad,CuDef*
G36*
G01*
X141895000Y-82010000D02*
X141895000Y-84910000D01*
G75*
G02*
X141645000Y-85160000I-250000J0D01*
G01*
X140645000Y-85160000D01*
G75*
G02*
X140395000Y-84910000I0J250000D01*
G01*
X140395000Y-82010000D01*
G75*
G02*
X140645000Y-81760000I250000J0D01*
G01*
X141645000Y-81760000D01*
G75*
G02*
X141895000Y-82010000I0J-250000D01*
G01*
G37*
G04 #@! TD.AperFunction*
G04 #@! TA.AperFunction,SMDPad,CuDef*
G36*
G01*
X137295000Y-87710000D02*
X137295000Y-90710000D01*
G75*
G02*
X137045000Y-90960000I-250000J0D01*
G01*
X136545000Y-90960000D01*
G75*
G02*
X136295000Y-90710000I0J250000D01*
G01*
X136295000Y-87710000D01*
G75*
G02*
X136545000Y-87460000I250000J0D01*
G01*
X137045000Y-87460000D01*
G75*
G02*
X137295000Y-87710000I0J-250000D01*
G01*
G37*
G04 #@! TD.AperFunction*
G04 #@! TA.AperFunction,SMDPad,CuDef*
G36*
G01*
X139295000Y-87710000D02*
X139295000Y-90710000D01*
G75*
G02*
X139045000Y-90960000I-250000J0D01*
G01*
X138545000Y-90960000D01*
G75*
G02*
X138295000Y-90710000I0J250000D01*
G01*
X138295000Y-87710000D01*
G75*
G02*
X138545000Y-87460000I250000J0D01*
G01*
X139045000Y-87460000D01*
G75*
G02*
X139295000Y-87710000I0J-250000D01*
G01*
G37*
G04 #@! TD.AperFunction*
D18*
X139648180Y-100074420D03*
X135751820Y-100074420D03*
X139648180Y-97925580D03*
X135751820Y-97925580D03*
D19*
X163916000Y-85129000D03*
X166116000Y-85129000D03*
X166116000Y-86829000D03*
X163916000Y-86829000D03*
D20*
X171450000Y-82550000D03*
X168910000Y-82550000D03*
X166370000Y-82550000D03*
X163830000Y-82550000D03*
X161290000Y-82550000D03*
X158750000Y-82550000D03*
X156210000Y-82550000D03*
X153670000Y-82550000D03*
X151130000Y-82550000D03*
X148590000Y-82550000D03*
X146050000Y-82550000D03*
D21*
X143510000Y-82550000D03*
D20*
X171450000Y-102870000D03*
X168910000Y-102870000D03*
X166370000Y-102870000D03*
X163830000Y-102870000D03*
X161290000Y-102870000D03*
X158750000Y-102870000D03*
X156210000Y-102870000D03*
X153670000Y-102870000D03*
X151130000Y-102870000D03*
X148590000Y-102870000D03*
X146050000Y-102870000D03*
X143510000Y-102870000D03*
X140970000Y-102870000D03*
X138430000Y-102870000D03*
X135890000Y-102870000D03*
D21*
X133350000Y-102870000D03*
D22*
X129540000Y-83820000D03*
X129540000Y-101600000D03*
D23*
X149860000Y-85472000D03*
X149860000Y-88772000D03*
G04 #@! TA.AperFunction,SMDPad,CuDef*
G36*
G01*
X173123000Y-89938000D02*
X171873000Y-89938000D01*
G75*
G02*
X171723000Y-89788000I0J150000D01*
G01*
X171723000Y-89488000D01*
G75*
G02*
X171873000Y-89338000I150000J0D01*
G01*
X173123000Y-89338000D01*
G75*
G02*
X173273000Y-89488000I0J-150000D01*
G01*
X173273000Y-89788000D01*
G75*
G02*
X173123000Y-89938000I-150000J0D01*
G01*
G37*
G04 #@! TD.AperFunction*
G04 #@! TA.AperFunction,SMDPad,CuDef*
G36*
G01*
X173123000Y-88938000D02*
X171873000Y-88938000D01*
G75*
G02*
X171723000Y-88788000I0J150000D01*
G01*
X171723000Y-88488000D01*
G75*
G02*
X171873000Y-88338000I150000J0D01*
G01*
X173123000Y-88338000D01*
G75*
G02*
X173273000Y-88488000I0J-150000D01*
G01*
X173273000Y-88788000D01*
G75*
G02*
X173123000Y-88938000I-150000J0D01*
G01*
G37*
G04 #@! TD.AperFunction*
G04 #@! TA.AperFunction,SMDPad,CuDef*
G36*
G01*
X173123000Y-87938000D02*
X171873000Y-87938000D01*
G75*
G02*
X171723000Y-87788000I0J150000D01*
G01*
X171723000Y-87488000D01*
G75*
G02*
X171873000Y-87338000I150000J0D01*
G01*
X173123000Y-87338000D01*
G75*
G02*
X173273000Y-87488000I0J-150000D01*
G01*
X173273000Y-87788000D01*
G75*
G02*
X173123000Y-87938000I-150000J0D01*
G01*
G37*
G04 #@! TD.AperFunction*
G04 #@! TA.AperFunction,SMDPad,CuDef*
G36*
G01*
X173123000Y-86938000D02*
X171873000Y-86938000D01*
G75*
G02*
X171723000Y-86788000I0J150000D01*
G01*
X171723000Y-86488000D01*
G75*
G02*
X171873000Y-86338000I150000J0D01*
G01*
X173123000Y-86338000D01*
G75*
G02*
X173273000Y-86488000I0J-150000D01*
G01*
X173273000Y-86788000D01*
G75*
G02*
X173123000Y-86938000I-150000J0D01*
G01*
G37*
G04 #@! TD.AperFunction*
G04 #@! TA.AperFunction,SMDPad,CuDef*
G36*
G01*
X177023001Y-91538000D02*
X175722999Y-91538000D01*
G75*
G02*
X175473000Y-91288001I0J249999D01*
G01*
X175473000Y-90587999D01*
G75*
G02*
X175722999Y-90338000I249999J0D01*
G01*
X177023001Y-90338000D01*
G75*
G02*
X177273000Y-90587999I0J-249999D01*
G01*
X177273000Y-91288001D01*
G75*
G02*
X177023001Y-91538000I-249999J0D01*
G01*
G37*
G04 #@! TD.AperFunction*
G04 #@! TA.AperFunction,SMDPad,CuDef*
G36*
G01*
X177023001Y-85938000D02*
X175722999Y-85938000D01*
G75*
G02*
X175473000Y-85688001I0J249999D01*
G01*
X175473000Y-84987999D01*
G75*
G02*
X175722999Y-84738000I249999J0D01*
G01*
X177023001Y-84738000D01*
G75*
G02*
X177273000Y-84987999I0J-249999D01*
G01*
X177273000Y-85688001D01*
G75*
G02*
X177023001Y-85938000I-249999J0D01*
G01*
G37*
G04 #@! TD.AperFunction*
D24*
X147304000Y-86802000D03*
X147304000Y-84902000D03*
X145304000Y-85852000D03*
D25*
X145349000Y-88816000D03*
X144399000Y-88816000D03*
X143449000Y-88816000D03*
X143449000Y-91016000D03*
X145349000Y-91016000D03*
D26*
X154516000Y-86680000D03*
X154516000Y-88580000D03*
X152316000Y-88580000D03*
X152316000Y-87630000D03*
X152316000Y-86680000D03*
X136822000Y-92649000D03*
X136822000Y-93599000D03*
X136822000Y-94549000D03*
X139022000Y-94549000D03*
X139022000Y-92649000D03*
X139022000Y-93599000D03*
G04 #@! TA.AperFunction,SMDPad,CuDef*
G36*
G01*
X143053750Y-84427000D02*
X143966250Y-84427000D01*
G75*
G02*
X144210000Y-84670750I0J-243750D01*
G01*
X144210000Y-85158250D01*
G75*
G02*
X143966250Y-85402000I-243750J0D01*
G01*
X143053750Y-85402000D01*
G75*
G02*
X142810000Y-85158250I0J243750D01*
G01*
X142810000Y-84670750D01*
G75*
G02*
X143053750Y-84427000I243750J0D01*
G01*
G37*
G04 #@! TD.AperFunction*
G04 #@! TA.AperFunction,SMDPad,CuDef*
G36*
G01*
X143053750Y-86302000D02*
X143966250Y-86302000D01*
G75*
G02*
X144210000Y-86545750I0J-243750D01*
G01*
X144210000Y-87033250D01*
G75*
G02*
X143966250Y-87277000I-243750J0D01*
G01*
X143053750Y-87277000D01*
G75*
G02*
X142810000Y-87033250I0J243750D01*
G01*
X142810000Y-86545750D01*
G75*
G02*
X143053750Y-86302000I243750J0D01*
G01*
G37*
G04 #@! TD.AperFunction*
G04 #@! TA.AperFunction,SMDPad,CuDef*
G36*
G01*
X153866000Y-85292250D02*
X153866000Y-84379750D01*
G75*
G02*
X154109750Y-84136000I243750J0D01*
G01*
X154597250Y-84136000D01*
G75*
G02*
X154841000Y-84379750I0J-243750D01*
G01*
X154841000Y-85292250D01*
G75*
G02*
X154597250Y-85536000I-243750J0D01*
G01*
X154109750Y-85536000D01*
G75*
G02*
X153866000Y-85292250I0J243750D01*
G01*
G37*
G04 #@! TD.AperFunction*
G04 #@! TA.AperFunction,SMDPad,CuDef*
G36*
G01*
X151991000Y-85292250D02*
X151991000Y-84379750D01*
G75*
G02*
X152234750Y-84136000I243750J0D01*
G01*
X152722250Y-84136000D01*
G75*
G02*
X152966000Y-84379750I0J-243750D01*
G01*
X152966000Y-85292250D01*
G75*
G02*
X152722250Y-85536000I-243750J0D01*
G01*
X152234750Y-85536000D01*
G75*
G02*
X151991000Y-85292250I0J243750D01*
G01*
G37*
G04 #@! TD.AperFunction*
G04 #@! TA.AperFunction,SMDPad,CuDef*
G36*
G01*
X158190250Y-87150000D02*
X157277750Y-87150000D01*
G75*
G02*
X157034000Y-86906250I0J243750D01*
G01*
X157034000Y-86418750D01*
G75*
G02*
X157277750Y-86175000I243750J0D01*
G01*
X158190250Y-86175000D01*
G75*
G02*
X158434000Y-86418750I0J-243750D01*
G01*
X158434000Y-86906250D01*
G75*
G02*
X158190250Y-87150000I-243750J0D01*
G01*
G37*
G04 #@! TD.AperFunction*
G04 #@! TA.AperFunction,SMDPad,CuDef*
G36*
G01*
X158190250Y-85275000D02*
X157277750Y-85275000D01*
G75*
G02*
X157034000Y-85031250I0J243750D01*
G01*
X157034000Y-84543750D01*
G75*
G02*
X157277750Y-84300000I243750J0D01*
G01*
X158190250Y-84300000D01*
G75*
G02*
X158434000Y-84543750I0J-243750D01*
G01*
X158434000Y-85031250D01*
G75*
G02*
X158190250Y-85275000I-243750J0D01*
G01*
G37*
G04 #@! TD.AperFunction*
G04 #@! TA.AperFunction,SMDPad,CuDef*
G36*
G01*
X156134750Y-89858000D02*
X157047250Y-89858000D01*
G75*
G02*
X157291000Y-90101750I0J-243750D01*
G01*
X157291000Y-90589250D01*
G75*
G02*
X157047250Y-90833000I-243750J0D01*
G01*
X156134750Y-90833000D01*
G75*
G02*
X155891000Y-90589250I0J243750D01*
G01*
X155891000Y-90101750D01*
G75*
G02*
X156134750Y-89858000I243750J0D01*
G01*
G37*
G04 #@! TD.AperFunction*
G04 #@! TA.AperFunction,SMDPad,CuDef*
G36*
G01*
X156134750Y-87983000D02*
X157047250Y-87983000D01*
G75*
G02*
X157291000Y-88226750I0J-243750D01*
G01*
X157291000Y-88714250D01*
G75*
G02*
X157047250Y-88958000I-243750J0D01*
G01*
X156134750Y-88958000D01*
G75*
G02*
X155891000Y-88714250I0J243750D01*
G01*
X155891000Y-88226750D01*
G75*
G02*
X156134750Y-87983000I243750J0D01*
G01*
G37*
G04 #@! TD.AperFunction*
G04 #@! TA.AperFunction,SMDPad,CuDef*
G36*
G01*
X170475000Y-97556250D02*
X170475000Y-97043750D01*
G75*
G02*
X170693750Y-96825000I218750J0D01*
G01*
X171131250Y-96825000D01*
G75*
G02*
X171350000Y-97043750I0J-218750D01*
G01*
X171350000Y-97556250D01*
G75*
G02*
X171131250Y-97775000I-218750J0D01*
G01*
X170693750Y-97775000D01*
G75*
G02*
X170475000Y-97556250I0J218750D01*
G01*
G37*
G04 #@! TD.AperFunction*
G04 #@! TA.AperFunction,SMDPad,CuDef*
G36*
G01*
X172050000Y-97556250D02*
X172050000Y-97043750D01*
G75*
G02*
X172268750Y-96825000I218750J0D01*
G01*
X172706250Y-96825000D01*
G75*
G02*
X172925000Y-97043750I0J-218750D01*
G01*
X172925000Y-97556250D01*
G75*
G02*
X172706250Y-97775000I-218750J0D01*
G01*
X172268750Y-97775000D01*
G75*
G02*
X172050000Y-97556250I0J218750D01*
G01*
G37*
G04 #@! TD.AperFunction*
G04 #@! TA.AperFunction,SMDPad,CuDef*
G36*
G01*
X158397000Y-97460750D02*
X158397000Y-98373250D01*
G75*
G02*
X158153250Y-98617000I-243750J0D01*
G01*
X157665750Y-98617000D01*
G75*
G02*
X157422000Y-98373250I0J243750D01*
G01*
X157422000Y-97460750D01*
G75*
G02*
X157665750Y-97217000I243750J0D01*
G01*
X158153250Y-97217000D01*
G75*
G02*
X158397000Y-97460750I0J-243750D01*
G01*
G37*
G04 #@! TD.AperFunction*
G04 #@! TA.AperFunction,SMDPad,CuDef*
G36*
G01*
X156522000Y-97460750D02*
X156522000Y-98373250D01*
G75*
G02*
X156278250Y-98617000I-243750J0D01*
G01*
X155790750Y-98617000D01*
G75*
G02*
X155547000Y-98373250I0J243750D01*
G01*
X155547000Y-97460750D01*
G75*
G02*
X155790750Y-97217000I243750J0D01*
G01*
X156278250Y-97217000D01*
G75*
G02*
X156522000Y-97460750I0J-243750D01*
G01*
G37*
G04 #@! TD.AperFunction*
G04 #@! TA.AperFunction,SMDPad,CuDef*
G36*
G01*
X152148250Y-99777000D02*
X151635750Y-99777000D01*
G75*
G02*
X151417000Y-99558250I0J218750D01*
G01*
X151417000Y-99120750D01*
G75*
G02*
X151635750Y-98902000I218750J0D01*
G01*
X152148250Y-98902000D01*
G75*
G02*
X152367000Y-99120750I0J-218750D01*
G01*
X152367000Y-99558250D01*
G75*
G02*
X152148250Y-99777000I-218750J0D01*
G01*
G37*
G04 #@! TD.AperFunction*
G04 #@! TA.AperFunction,SMDPad,CuDef*
G36*
G01*
X152148250Y-98202000D02*
X151635750Y-98202000D01*
G75*
G02*
X151417000Y-97983250I0J218750D01*
G01*
X151417000Y-97545750D01*
G75*
G02*
X151635750Y-97327000I218750J0D01*
G01*
X152148250Y-97327000D01*
G75*
G02*
X152367000Y-97545750I0J-218750D01*
G01*
X152367000Y-97983250D01*
G75*
G02*
X152148250Y-98202000I-218750J0D01*
G01*
G37*
G04 #@! TD.AperFunction*
G04 #@! TA.AperFunction,SMDPad,CuDef*
G36*
G01*
X153799250Y-98202000D02*
X153286750Y-98202000D01*
G75*
G02*
X153068000Y-97983250I0J218750D01*
G01*
X153068000Y-97545750D01*
G75*
G02*
X153286750Y-97327000I218750J0D01*
G01*
X153799250Y-97327000D01*
G75*
G02*
X154018000Y-97545750I0J-218750D01*
G01*
X154018000Y-97983250D01*
G75*
G02*
X153799250Y-98202000I-218750J0D01*
G01*
G37*
G04 #@! TD.AperFunction*
G04 #@! TA.AperFunction,SMDPad,CuDef*
G36*
G01*
X153799250Y-99777000D02*
X153286750Y-99777000D01*
G75*
G02*
X153068000Y-99558250I0J218750D01*
G01*
X153068000Y-99120750D01*
G75*
G02*
X153286750Y-98902000I218750J0D01*
G01*
X153799250Y-98902000D01*
G75*
G02*
X154018000Y-99120750I0J-218750D01*
G01*
X154018000Y-99558250D01*
G75*
G02*
X153799250Y-99777000I-218750J0D01*
G01*
G37*
G04 #@! TD.AperFunction*
G04 #@! TA.AperFunction,SMDPad,CuDef*
G36*
G01*
X172050000Y-96056250D02*
X172050000Y-95543750D01*
G75*
G02*
X172268750Y-95325000I218750J0D01*
G01*
X172706250Y-95325000D01*
G75*
G02*
X172925000Y-95543750I0J-218750D01*
G01*
X172925000Y-96056250D01*
G75*
G02*
X172706250Y-96275000I-218750J0D01*
G01*
X172268750Y-96275000D01*
G75*
G02*
X172050000Y-96056250I0J218750D01*
G01*
G37*
G04 #@! TD.AperFunction*
G04 #@! TA.AperFunction,SMDPad,CuDef*
G36*
G01*
X170475000Y-96056250D02*
X170475000Y-95543750D01*
G75*
G02*
X170693750Y-95325000I218750J0D01*
G01*
X171131250Y-95325000D01*
G75*
G02*
X171350000Y-95543750I0J-218750D01*
G01*
X171350000Y-96056250D01*
G75*
G02*
X171131250Y-96275000I-218750J0D01*
G01*
X170693750Y-96275000D01*
G75*
G02*
X170475000Y-96056250I0J218750D01*
G01*
G37*
G04 #@! TD.AperFunction*
G04 #@! TA.AperFunction,SMDPad,CuDef*
G36*
G01*
X160149250Y-87026000D02*
X159636750Y-87026000D01*
G75*
G02*
X159418000Y-86807250I0J218750D01*
G01*
X159418000Y-86369750D01*
G75*
G02*
X159636750Y-86151000I218750J0D01*
G01*
X160149250Y-86151000D01*
G75*
G02*
X160368000Y-86369750I0J-218750D01*
G01*
X160368000Y-86807250D01*
G75*
G02*
X160149250Y-87026000I-218750J0D01*
G01*
G37*
G04 #@! TD.AperFunction*
G04 #@! TA.AperFunction,SMDPad,CuDef*
G36*
G01*
X160149250Y-88601000D02*
X159636750Y-88601000D01*
G75*
G02*
X159418000Y-88382250I0J218750D01*
G01*
X159418000Y-87944750D01*
G75*
G02*
X159636750Y-87726000I218750J0D01*
G01*
X160149250Y-87726000D01*
G75*
G02*
X160368000Y-87944750I0J-218750D01*
G01*
X160368000Y-88382250D01*
G75*
G02*
X160149250Y-88601000I-218750J0D01*
G01*
G37*
G04 #@! TD.AperFunction*
G04 #@! TA.AperFunction,SMDPad,CuDef*
G36*
G01*
X158112750Y-88056000D02*
X158625250Y-88056000D01*
G75*
G02*
X158844000Y-88274750I0J-218750D01*
G01*
X158844000Y-88712250D01*
G75*
G02*
X158625250Y-88931000I-218750J0D01*
G01*
X158112750Y-88931000D01*
G75*
G02*
X157894000Y-88712250I0J218750D01*
G01*
X157894000Y-88274750D01*
G75*
G02*
X158112750Y-88056000I218750J0D01*
G01*
G37*
G04 #@! TD.AperFunction*
G04 #@! TA.AperFunction,SMDPad,CuDef*
G36*
G01*
X158112750Y-89631000D02*
X158625250Y-89631000D01*
G75*
G02*
X158844000Y-89849750I0J-218750D01*
G01*
X158844000Y-90287250D01*
G75*
G02*
X158625250Y-90506000I-218750J0D01*
G01*
X158112750Y-90506000D01*
G75*
G02*
X157894000Y-90287250I0J218750D01*
G01*
X157894000Y-89849750D01*
G75*
G02*
X158112750Y-89631000I218750J0D01*
G01*
G37*
G04 #@! TD.AperFunction*
G04 #@! TA.AperFunction,SMDPad,CuDef*
G36*
G01*
X168145750Y-90520000D02*
X168658250Y-90520000D01*
G75*
G02*
X168877000Y-90738750I0J-218750D01*
G01*
X168877000Y-91176250D01*
G75*
G02*
X168658250Y-91395000I-218750J0D01*
G01*
X168145750Y-91395000D01*
G75*
G02*
X167927000Y-91176250I0J218750D01*
G01*
X167927000Y-90738750D01*
G75*
G02*
X168145750Y-90520000I218750J0D01*
G01*
G37*
G04 #@! TD.AperFunction*
G04 #@! TA.AperFunction,SMDPad,CuDef*
G36*
G01*
X168145750Y-88945000D02*
X168658250Y-88945000D01*
G75*
G02*
X168877000Y-89163750I0J-218750D01*
G01*
X168877000Y-89601250D01*
G75*
G02*
X168658250Y-89820000I-218750J0D01*
G01*
X168145750Y-89820000D01*
G75*
G02*
X167927000Y-89601250I0J218750D01*
G01*
X167927000Y-89163750D01*
G75*
G02*
X168145750Y-88945000I218750J0D01*
G01*
G37*
G04 #@! TD.AperFunction*
G04 #@! TA.AperFunction,SMDPad,CuDef*
G36*
G01*
X169796750Y-90520000D02*
X170309250Y-90520000D01*
G75*
G02*
X170528000Y-90738750I0J-218750D01*
G01*
X170528000Y-91176250D01*
G75*
G02*
X170309250Y-91395000I-218750J0D01*
G01*
X169796750Y-91395000D01*
G75*
G02*
X169578000Y-91176250I0J218750D01*
G01*
X169578000Y-90738750D01*
G75*
G02*
X169796750Y-90520000I218750J0D01*
G01*
G37*
G04 #@! TD.AperFunction*
G04 #@! TA.AperFunction,SMDPad,CuDef*
G36*
G01*
X169796750Y-88945000D02*
X170309250Y-88945000D01*
G75*
G02*
X170528000Y-89163750I0J-218750D01*
G01*
X170528000Y-89601250D01*
G75*
G02*
X170309250Y-89820000I-218750J0D01*
G01*
X169796750Y-89820000D01*
G75*
G02*
X169578000Y-89601250I0J218750D01*
G01*
X169578000Y-89163750D01*
G75*
G02*
X169796750Y-88945000I218750J0D01*
G01*
G37*
G04 #@! TD.AperFunction*
G04 #@! TA.AperFunction,SMDPad,CuDef*
G36*
G01*
X132077750Y-99918000D02*
X132590250Y-99918000D01*
G75*
G02*
X132809000Y-100136750I0J-218750D01*
G01*
X132809000Y-100574250D01*
G75*
G02*
X132590250Y-100793000I-218750J0D01*
G01*
X132077750Y-100793000D01*
G75*
G02*
X131859000Y-100574250I0J218750D01*
G01*
X131859000Y-100136750D01*
G75*
G02*
X132077750Y-99918000I218750J0D01*
G01*
G37*
G04 #@! TD.AperFunction*
G04 #@! TA.AperFunction,SMDPad,CuDef*
G36*
G01*
X132077750Y-98343000D02*
X132590250Y-98343000D01*
G75*
G02*
X132809000Y-98561750I0J-218750D01*
G01*
X132809000Y-98999250D01*
G75*
G02*
X132590250Y-99218000I-218750J0D01*
G01*
X132077750Y-99218000D01*
G75*
G02*
X131859000Y-98999250I0J218750D01*
G01*
X131859000Y-98561750D01*
G75*
G02*
X132077750Y-98343000I218750J0D01*
G01*
G37*
G04 #@! TD.AperFunction*
G04 #@! TA.AperFunction,SMDPad,CuDef*
G36*
G01*
X169387000Y-85346250D02*
X169387000Y-84833750D01*
G75*
G02*
X169605750Y-84615000I218750J0D01*
G01*
X170043250Y-84615000D01*
G75*
G02*
X170262000Y-84833750I0J-218750D01*
G01*
X170262000Y-85346250D01*
G75*
G02*
X170043250Y-85565000I-218750J0D01*
G01*
X169605750Y-85565000D01*
G75*
G02*
X169387000Y-85346250I0J218750D01*
G01*
G37*
G04 #@! TD.AperFunction*
G04 #@! TA.AperFunction,SMDPad,CuDef*
G36*
G01*
X167812000Y-85346250D02*
X167812000Y-84833750D01*
G75*
G02*
X168030750Y-84615000I218750J0D01*
G01*
X168468250Y-84615000D01*
G75*
G02*
X168687000Y-84833750I0J-218750D01*
G01*
X168687000Y-85346250D01*
G75*
G02*
X168468250Y-85565000I-218750J0D01*
G01*
X168030750Y-85565000D01*
G75*
G02*
X167812000Y-85346250I0J218750D01*
G01*
G37*
G04 #@! TD.AperFunction*
G04 #@! TA.AperFunction,SMDPad,CuDef*
G36*
G01*
X167812000Y-86870250D02*
X167812000Y-86357750D01*
G75*
G02*
X168030750Y-86139000I218750J0D01*
G01*
X168468250Y-86139000D01*
G75*
G02*
X168687000Y-86357750I0J-218750D01*
G01*
X168687000Y-86870250D01*
G75*
G02*
X168468250Y-87089000I-218750J0D01*
G01*
X168030750Y-87089000D01*
G75*
G02*
X167812000Y-86870250I0J218750D01*
G01*
G37*
G04 #@! TD.AperFunction*
G04 #@! TA.AperFunction,SMDPad,CuDef*
G36*
G01*
X169387000Y-86870250D02*
X169387000Y-86357750D01*
G75*
G02*
X169605750Y-86139000I218750J0D01*
G01*
X170043250Y-86139000D01*
G75*
G02*
X170262000Y-86357750I0J-218750D01*
G01*
X170262000Y-86870250D01*
G75*
G02*
X170043250Y-87089000I-218750J0D01*
G01*
X169605750Y-87089000D01*
G75*
G02*
X169387000Y-86870250I0J218750D01*
G01*
G37*
G04 #@! TD.AperFunction*
G04 #@! TA.AperFunction,SMDPad,CuDef*
G36*
G01*
X132077750Y-84373000D02*
X132590250Y-84373000D01*
G75*
G02*
X132809000Y-84591750I0J-218750D01*
G01*
X132809000Y-85029250D01*
G75*
G02*
X132590250Y-85248000I-218750J0D01*
G01*
X132077750Y-85248000D01*
G75*
G02*
X131859000Y-85029250I0J218750D01*
G01*
X131859000Y-84591750D01*
G75*
G02*
X132077750Y-84373000I218750J0D01*
G01*
G37*
G04 #@! TD.AperFunction*
G04 #@! TA.AperFunction,SMDPad,CuDef*
G36*
G01*
X132077750Y-85948000D02*
X132590250Y-85948000D01*
G75*
G02*
X132809000Y-86166750I0J-218750D01*
G01*
X132809000Y-86604250D01*
G75*
G02*
X132590250Y-86823000I-218750J0D01*
G01*
X132077750Y-86823000D01*
G75*
G02*
X131859000Y-86604250I0J218750D01*
G01*
X131859000Y-86166750D01*
G75*
G02*
X132077750Y-85948000I218750J0D01*
G01*
G37*
G04 #@! TD.AperFunction*
G04 #@! TA.AperFunction,SMDPad,CuDef*
G36*
G01*
X152812000Y-90167750D02*
X152812000Y-90680250D01*
G75*
G02*
X152593250Y-90899000I-218750J0D01*
G01*
X152155750Y-90899000D01*
G75*
G02*
X151937000Y-90680250I0J218750D01*
G01*
X151937000Y-90167750D01*
G75*
G02*
X152155750Y-89949000I218750J0D01*
G01*
X152593250Y-89949000D01*
G75*
G02*
X152812000Y-90167750I0J-218750D01*
G01*
G37*
G04 #@! TD.AperFunction*
G04 #@! TA.AperFunction,SMDPad,CuDef*
G36*
G01*
X154387000Y-90167750D02*
X154387000Y-90680250D01*
G75*
G02*
X154168250Y-90899000I-218750J0D01*
G01*
X153730750Y-90899000D01*
G75*
G02*
X153512000Y-90680250I0J218750D01*
G01*
X153512000Y-90167750D01*
G75*
G02*
X153730750Y-89949000I218750J0D01*
G01*
X154168250Y-89949000D01*
G75*
G02*
X154387000Y-90167750I0J-218750D01*
G01*
G37*
G04 #@! TD.AperFunction*
G04 #@! TA.AperFunction,SMDPad,CuDef*
G36*
G01*
X142322000Y-90802750D02*
X142322000Y-91315250D01*
G75*
G02*
X142103250Y-91534000I-218750J0D01*
G01*
X141665750Y-91534000D01*
G75*
G02*
X141447000Y-91315250I0J218750D01*
G01*
X141447000Y-90802750D01*
G75*
G02*
X141665750Y-90584000I218750J0D01*
G01*
X142103250Y-90584000D01*
G75*
G02*
X142322000Y-90802750I0J-218750D01*
G01*
G37*
G04 #@! TD.AperFunction*
G04 #@! TA.AperFunction,SMDPad,CuDef*
G36*
G01*
X140747000Y-90802750D02*
X140747000Y-91315250D01*
G75*
G02*
X140528250Y-91534000I-218750J0D01*
G01*
X140090750Y-91534000D01*
G75*
G02*
X139872000Y-91315250I0J218750D01*
G01*
X139872000Y-90802750D01*
G75*
G02*
X140090750Y-90584000I218750J0D01*
G01*
X140528250Y-90584000D01*
G75*
G02*
X140747000Y-90802750I0J-218750D01*
G01*
G37*
G04 #@! TD.AperFunction*
G04 #@! TA.AperFunction,SMDPad,CuDef*
G36*
G01*
X147449250Y-91522000D02*
X146936750Y-91522000D01*
G75*
G02*
X146718000Y-91303250I0J218750D01*
G01*
X146718000Y-90865750D01*
G75*
G02*
X146936750Y-90647000I218750J0D01*
G01*
X147449250Y-90647000D01*
G75*
G02*
X147668000Y-90865750I0J-218750D01*
G01*
X147668000Y-91303250D01*
G75*
G02*
X147449250Y-91522000I-218750J0D01*
G01*
G37*
G04 #@! TD.AperFunction*
G04 #@! TA.AperFunction,SMDPad,CuDef*
G36*
G01*
X147449250Y-89947000D02*
X146936750Y-89947000D01*
G75*
G02*
X146718000Y-89728250I0J218750D01*
G01*
X146718000Y-89290750D01*
G75*
G02*
X146936750Y-89072000I218750J0D01*
G01*
X147449250Y-89072000D01*
G75*
G02*
X147668000Y-89290750I0J-218750D01*
G01*
X147668000Y-89728250D01*
G75*
G02*
X147449250Y-89947000I-218750J0D01*
G01*
G37*
G04 #@! TD.AperFunction*
G04 #@! TA.AperFunction,SMDPad,CuDef*
G36*
G01*
X133743750Y-96575000D02*
X134256250Y-96575000D01*
G75*
G02*
X134475000Y-96793750I0J-218750D01*
G01*
X134475000Y-97231250D01*
G75*
G02*
X134256250Y-97450000I-218750J0D01*
G01*
X133743750Y-97450000D01*
G75*
G02*
X133525000Y-97231250I0J218750D01*
G01*
X133525000Y-96793750D01*
G75*
G02*
X133743750Y-96575000I218750J0D01*
G01*
G37*
G04 #@! TD.AperFunction*
G04 #@! TA.AperFunction,SMDPad,CuDef*
G36*
G01*
X133743750Y-98150000D02*
X134256250Y-98150000D01*
G75*
G02*
X134475000Y-98368750I0J-218750D01*
G01*
X134475000Y-98806250D01*
G75*
G02*
X134256250Y-99025000I-218750J0D01*
G01*
X133743750Y-99025000D01*
G75*
G02*
X133525000Y-98806250I0J218750D01*
G01*
X133525000Y-98368750D01*
G75*
G02*
X133743750Y-98150000I218750J0D01*
G01*
G37*
G04 #@! TD.AperFunction*
G04 #@! TA.AperFunction,SMDPad,CuDef*
G36*
G01*
X134950000Y-91656250D02*
X134950000Y-91143750D01*
G75*
G02*
X135168750Y-90925000I218750J0D01*
G01*
X135606250Y-90925000D01*
G75*
G02*
X135825000Y-91143750I0J-218750D01*
G01*
X135825000Y-91656250D01*
G75*
G02*
X135606250Y-91875000I-218750J0D01*
G01*
X135168750Y-91875000D01*
G75*
G02*
X134950000Y-91656250I0J218750D01*
G01*
G37*
G04 #@! TD.AperFunction*
G04 #@! TA.AperFunction,SMDPad,CuDef*
G36*
G01*
X133375000Y-91656250D02*
X133375000Y-91143750D01*
G75*
G02*
X133593750Y-90925000I218750J0D01*
G01*
X134031250Y-90925000D01*
G75*
G02*
X134250000Y-91143750I0J-218750D01*
G01*
X134250000Y-91656250D01*
G75*
G02*
X134031250Y-91875000I-218750J0D01*
G01*
X133593750Y-91875000D01*
G75*
G02*
X133375000Y-91656250I0J218750D01*
G01*
G37*
G04 #@! TD.AperFunction*
G04 #@! TA.AperFunction,SMDPad,CuDef*
G36*
G01*
X172050000Y-100556250D02*
X172050000Y-100043750D01*
G75*
G02*
X172268750Y-99825000I218750J0D01*
G01*
X172706250Y-99825000D01*
G75*
G02*
X172925000Y-100043750I0J-218750D01*
G01*
X172925000Y-100556250D01*
G75*
G02*
X172706250Y-100775000I-218750J0D01*
G01*
X172268750Y-100775000D01*
G75*
G02*
X172050000Y-100556250I0J218750D01*
G01*
G37*
G04 #@! TD.AperFunction*
G04 #@! TA.AperFunction,SMDPad,CuDef*
G36*
G01*
X170475000Y-100556250D02*
X170475000Y-100043750D01*
G75*
G02*
X170693750Y-99825000I218750J0D01*
G01*
X171131250Y-99825000D01*
G75*
G02*
X171350000Y-100043750I0J-218750D01*
G01*
X171350000Y-100556250D01*
G75*
G02*
X171131250Y-100775000I-218750J0D01*
G01*
X170693750Y-100775000D01*
G75*
G02*
X170475000Y-100556250I0J218750D01*
G01*
G37*
G04 #@! TD.AperFunction*
D27*
X136017000Y-86741000D03*
X137541000Y-86741000D03*
X141351000Y-88773000D03*
X130429000Y-90932008D03*
X129921000Y-90297000D03*
X130365507Y-94551507D03*
X129794006Y-95123008D03*
X148971000Y-90678000D03*
X144399000Y-90932000D03*
X140208000Y-93627010D03*
X133100000Y-95100000D03*
X133100000Y-90300000D03*
D28*
X163849171Y-99679941D03*
X167400000Y-100700000D03*
X171069000Y-87630000D03*
X159766000Y-90296989D03*
X170928000Y-86614000D03*
X169330976Y-96985542D03*
X155702000Y-93472000D03*
X155453875Y-94493875D03*
X156463886Y-95630894D03*
X162543201Y-99724979D03*
X169825979Y-96689059D03*
X168696503Y-97803497D03*
X167900000Y-98100000D03*
X132969000Y-83820000D03*
X167408671Y-98608671D03*
X151257000Y-89535000D03*
X150876000Y-84328000D03*
X161163000Y-99724979D03*
X158038969Y-95903228D03*
X157588958Y-96734069D03*
X157876158Y-94643189D03*
X156442512Y-96731012D03*
X164874810Y-100207642D03*
X166327286Y-100694979D03*
X142367000Y-89916000D03*
X133477000Y-100457000D03*
X165585483Y-98298788D03*
X162499923Y-98262900D03*
X163013519Y-98661315D03*
X166043104Y-97837162D03*
D27*
X141097000Y-86741000D03*
X150749000Y-86995000D03*
X135636000Y-93599000D03*
X155194000Y-90424000D03*
X154813000Y-97790000D03*
X159766000Y-84836000D03*
X155956000Y-85090000D03*
D28*
X162100000Y-92700000D03*
X163100000Y-92700000D03*
X162100000Y-93700000D03*
X162100000Y-94700000D03*
X163100000Y-92700000D03*
X162800000Y-95500000D03*
X169130000Y-91720000D03*
X172200000Y-94800000D03*
X172520000Y-90290000D03*
D27*
X166099998Y-88100000D03*
D28*
X172500000Y-101000000D03*
X169130000Y-93720000D03*
D27*
X137700000Y-97900000D03*
X144300000Y-99800000D03*
X169164000Y-88392000D03*
X159258000Y-97790000D03*
X174879000Y-88138004D03*
X155956000Y-86233000D03*
X155956000Y-87122000D03*
X154813000Y-98933000D03*
D28*
X158877000Y-92583000D03*
D27*
X165643352Y-99121767D03*
D28*
X168200000Y-99499994D03*
X169825979Y-95900002D03*
D27*
X143500000Y-98000000D03*
D29*
X143207999Y-82852001D02*
X143510000Y-82550000D01*
D30*
X136795000Y-87519000D02*
X136017000Y-86741000D01*
X136795000Y-89210000D02*
X136795000Y-87519000D01*
X136795000Y-87487000D02*
X137541000Y-86741000D01*
X136795000Y-89210000D02*
X136795000Y-87487000D01*
X136017000Y-86741000D02*
X137541000Y-86741000D01*
D29*
X143406000Y-88773000D02*
X143449000Y-88816000D01*
X141351000Y-88773000D02*
X143406000Y-88773000D01*
D31*
X144366500Y-84914500D02*
X145304000Y-85852000D01*
X143510000Y-84914500D02*
X144366500Y-84914500D01*
X143510000Y-84914500D02*
X143510000Y-82550000D01*
D29*
X131899007Y-90297000D02*
X131940000Y-90256007D01*
D31*
X129921000Y-90424008D02*
X130429000Y-90932008D01*
X129921000Y-90297000D02*
X129921000Y-90424008D01*
D32*
X128665000Y-96252014D02*
X130365507Y-94551507D01*
X128665000Y-98933000D02*
X128665000Y-96252014D01*
D31*
X129794006Y-95123008D02*
X130365507Y-94551507D01*
X149274000Y-88772000D02*
X147304000Y-86802000D01*
X149860000Y-88772000D02*
X149274000Y-88772000D01*
X148971000Y-89661000D02*
X149860000Y-88772000D01*
X148971000Y-90678000D02*
X148971000Y-89661000D01*
D32*
X143406000Y-91059000D02*
X143449000Y-91016000D01*
X141884500Y-91059000D02*
X143406000Y-91059000D01*
D29*
X143449000Y-91016000D02*
X144315000Y-91016000D01*
X144315000Y-91016000D02*
X144399000Y-90932000D01*
D31*
X139022000Y-93599000D02*
X139050010Y-93627010D01*
X139050010Y-93627010D02*
X140208000Y-93627010D01*
D29*
X133100000Y-95100000D02*
X132500000Y-95100000D01*
D33*
X131635506Y-94951506D02*
X131940000Y-95256000D01*
X130765506Y-94951506D02*
X131635506Y-94951506D01*
X130365507Y-94551507D02*
X130765506Y-94951506D01*
X130905008Y-90456000D02*
X131940000Y-90456000D01*
X130429000Y-90932008D02*
X130905008Y-90456000D01*
D29*
X133100000Y-90300000D02*
X132500000Y-90300000D01*
D31*
X149861000Y-85471000D02*
X149860000Y-85472000D01*
X149290000Y-84902000D02*
X149860000Y-85472000D01*
X147304000Y-84902000D02*
X149290000Y-84902000D01*
X151842500Y-85472000D02*
X152478500Y-84836000D01*
X149860000Y-85472000D02*
X151842500Y-85472000D01*
X151108000Y-85472000D02*
X152316000Y-86680000D01*
X149860000Y-85472000D02*
X151108000Y-85472000D01*
D32*
X152316000Y-86680000D02*
X153101000Y-86680000D01*
X153101000Y-86680000D02*
X153416000Y-86995000D01*
X153416000Y-89890500D02*
X153949500Y-90424000D01*
X153416000Y-86995000D02*
X153416000Y-89890500D01*
X164072000Y-97127247D02*
X164072000Y-98289321D01*
X164072000Y-98289321D02*
X164013532Y-98347789D01*
X164013532Y-99515580D02*
X163849171Y-99679941D01*
X164013532Y-98347789D02*
X164013532Y-99515580D01*
D34*
X170912500Y-98787500D02*
X170925000Y-98800000D01*
X170912500Y-97300000D02*
X170912500Y-98787500D01*
X170925000Y-98862500D02*
X169400000Y-100387500D01*
X170925000Y-98800000D02*
X170925000Y-98862500D01*
X169400000Y-100387500D02*
X167712500Y-100387500D01*
X167712500Y-100387500D02*
X167400000Y-100700000D01*
D32*
X132221000Y-98933000D02*
X132334000Y-98820000D01*
X130415000Y-98933000D02*
X132221000Y-98933000D01*
X159327401Y-93583012D02*
X159434413Y-93476000D01*
X157495988Y-93583012D02*
X159327401Y-93583012D01*
X155321000Y-95758000D02*
X157495988Y-93583012D01*
X148875000Y-98025000D02*
X151142000Y-95758000D01*
X151142000Y-95758000D02*
X155321000Y-95758000D01*
X159434413Y-93476000D02*
X159920753Y-93476000D01*
X145650000Y-98025000D02*
X148875000Y-98025000D01*
X132320000Y-86487000D02*
X132334000Y-86473000D01*
X130415000Y-86487000D02*
X132320000Y-86487000D01*
X172498000Y-87638000D02*
X173220000Y-87638000D01*
X173220000Y-87638000D02*
X173990000Y-86868000D01*
X173990000Y-85090000D02*
X171450000Y-82550000D01*
X173990000Y-86868000D02*
X173990000Y-85090000D01*
X172490000Y-87630000D02*
X172498000Y-87638000D01*
X171069000Y-87630000D02*
X172490000Y-87630000D01*
X159793763Y-90324752D02*
X159766000Y-90296989D01*
X160572000Y-90324752D02*
X159793763Y-90324752D01*
X169824500Y-86614000D02*
X169824500Y-87020500D01*
X170434000Y-87630000D02*
X171069000Y-87630000D01*
X169824500Y-87020500D02*
X170434000Y-87630000D01*
X172498000Y-86638000D02*
X170952000Y-86638000D01*
X170928000Y-86193500D02*
X169824500Y-85090000D01*
X170928000Y-86614000D02*
X170928000Y-86193500D01*
X169824500Y-83464500D02*
X168910000Y-82550000D01*
X169824500Y-85090000D02*
X169824500Y-83464500D01*
D34*
X166723248Y-93976000D02*
X167178066Y-93976000D01*
X167178066Y-93976000D02*
X169020987Y-95818921D01*
X169020987Y-96675553D02*
X169330976Y-96985542D01*
X169020987Y-95818921D02*
X169020987Y-96675553D01*
D32*
X156845000Y-92329000D02*
X155702000Y-93472000D01*
X158326999Y-92329000D02*
X156845000Y-92329000D01*
X158326999Y-92318999D02*
X158326999Y-92329000D01*
X159555838Y-92029752D02*
X159402327Y-92029752D01*
X158612999Y-92032999D02*
X158326999Y-92318999D01*
X159559599Y-92025991D02*
X159555838Y-92029752D01*
X159141001Y-92032999D02*
X158612999Y-92032999D01*
X159183982Y-92075980D02*
X159141001Y-92032999D01*
X159356099Y-92075980D02*
X159183982Y-92075980D01*
X159870763Y-92025990D02*
X159559599Y-92025991D01*
X159402327Y-92029752D02*
X159356099Y-92075980D01*
X159920753Y-91976000D02*
X159870763Y-92025990D01*
X155823125Y-94493875D02*
X155453875Y-94493875D01*
X157183999Y-93133001D02*
X155823125Y-94493875D01*
X159920753Y-92976000D02*
X159298002Y-92976000D01*
X159141001Y-93133001D02*
X157183999Y-93133001D01*
X159298002Y-92976000D02*
X159141001Y-93133001D01*
X163563521Y-99022857D02*
X162861399Y-99724979D01*
X163572000Y-97127247D02*
X163563521Y-97135726D01*
X162861399Y-99724979D02*
X162543201Y-99724979D01*
X163563521Y-97135726D02*
X163563521Y-99022857D01*
X156145688Y-95630894D02*
X156463886Y-95630894D01*
X155568571Y-96208011D02*
X156145688Y-95630894D01*
X151225163Y-96208011D02*
X155568571Y-96208011D01*
X147493000Y-101300000D02*
X150241000Y-98552000D01*
X133730000Y-102870000D02*
X135300000Y-101300000D01*
X150241000Y-98552000D02*
X150241000Y-97192174D01*
X150241000Y-97192174D02*
X151225163Y-96208011D01*
X133350000Y-102870000D02*
X133730000Y-102870000D01*
D34*
X135751820Y-100351820D02*
X136700000Y-101300000D01*
D32*
X136700000Y-101300000D02*
X137800000Y-101300000D01*
D34*
X135751820Y-100074420D02*
X135751820Y-100351820D01*
D32*
X135300000Y-101300000D02*
X136700000Y-101300000D01*
D34*
X139648180Y-100074420D02*
X139648180Y-100548180D01*
X139648180Y-100548180D02*
X140400000Y-101300000D01*
D32*
X140400000Y-101300000D02*
X147493000Y-101300000D01*
X137800000Y-101300000D02*
X140400000Y-101300000D01*
X165100000Y-83820000D02*
X166370000Y-82550000D01*
X162814000Y-83820000D02*
X165100000Y-83820000D01*
X163640205Y-88075205D02*
X162243205Y-88075205D01*
X164572000Y-89007000D02*
X163640205Y-88075205D01*
X161682022Y-84951978D02*
X162814000Y-83820000D01*
X162243205Y-88075205D02*
X161682022Y-87514022D01*
X161682022Y-87514022D02*
X161682022Y-84951978D01*
X164572000Y-90324752D02*
X164572000Y-89007000D01*
X163830000Y-82931000D02*
X163830000Y-82550000D01*
X161232011Y-87700422D02*
X161232011Y-84765578D01*
X162056805Y-88525216D02*
X161232011Y-87700422D01*
X163447589Y-82550000D02*
X163830000Y-82550000D01*
X161232011Y-84765578D02*
X163447589Y-82550000D01*
X164072000Y-90324752D02*
X164072000Y-89143410D01*
X164072000Y-89143410D02*
X163453806Y-88525216D01*
X163453806Y-88525216D02*
X162056805Y-88525216D01*
X160782000Y-83058000D02*
X161290000Y-82550000D01*
X160782000Y-87886822D02*
X160782000Y-83058000D01*
X161870405Y-88975227D02*
X160782000Y-87886822D01*
X163144637Y-88975227D02*
X161870405Y-88975227D01*
X163572000Y-89402590D02*
X163144637Y-88975227D01*
X163572000Y-90324752D02*
X163572000Y-89402590D01*
X158750000Y-82894490D02*
X158750000Y-82550000D01*
X158750000Y-83312000D02*
X158750000Y-82550000D01*
D34*
X169347998Y-95645932D02*
X169347998Y-96211078D01*
X169347998Y-96211078D02*
X169825979Y-96689059D01*
X167178066Y-93476000D02*
X169347998Y-95645932D01*
X166723248Y-93476000D02*
X167178066Y-93476000D01*
X168605104Y-97105104D02*
X168696503Y-97196503D01*
X168605104Y-96005105D02*
X168605104Y-97105104D01*
X168696503Y-97196503D02*
X168696503Y-97803497D01*
X167075999Y-94476000D02*
X168605104Y-96005105D01*
X166723248Y-94476000D02*
X167075999Y-94476000D01*
X167900000Y-97781802D02*
X167900000Y-98100000D01*
X168278094Y-97403708D02*
X167900000Y-97781802D01*
X168278094Y-96140556D02*
X168278094Y-97403708D01*
X167113538Y-94976000D02*
X168278094Y-96140556D01*
X166723248Y-94976000D02*
X167113538Y-94976000D01*
D32*
X132334000Y-84455000D02*
X132969000Y-83820000D01*
X132334000Y-84723000D02*
X132334000Y-84455000D01*
D34*
X167151076Y-95476000D02*
X167878083Y-96203007D01*
X167878083Y-96203007D02*
X167878083Y-96844913D01*
X167878083Y-96844913D02*
X167408671Y-97314325D01*
X166723248Y-95476000D02*
X167151076Y-95476000D01*
X167408671Y-97314325D02*
X167408671Y-98608671D01*
D32*
X147225001Y-83725001D02*
X146050000Y-82550000D01*
X150273001Y-83725001D02*
X147225001Y-83725001D01*
X150876000Y-84328000D02*
X150273001Y-83725001D01*
X151257000Y-89535000D02*
X151257000Y-88900000D01*
X151577000Y-88580000D02*
X152316000Y-88580000D01*
X151257000Y-88900000D02*
X151577000Y-88580000D01*
X151257000Y-89535000D02*
X151257000Y-90043000D01*
X151638000Y-90424000D02*
X152374500Y-90424000D01*
X151257000Y-90043000D02*
X151638000Y-90424000D01*
D34*
X133756500Y-91456000D02*
X133812500Y-91400000D01*
X131940000Y-91456000D02*
X133756500Y-91456000D01*
D32*
X131129998Y-91956000D02*
X130810000Y-92275998D01*
X131940000Y-91956000D02*
X131129998Y-91956000D01*
X130810000Y-92636002D02*
X131129998Y-92956000D01*
X131129998Y-92956000D02*
X131940000Y-92956000D01*
X130810000Y-92275998D02*
X130810000Y-92636002D01*
D34*
X136026999Y-92649000D02*
X136822000Y-92649000D01*
X135777000Y-92898999D02*
X136026999Y-92649000D01*
X131940000Y-91956000D02*
X132365000Y-91956000D01*
X134332200Y-93374000D02*
X134824998Y-93374000D01*
X135299999Y-92898999D02*
X135777000Y-92898999D01*
X134824998Y-93374000D02*
X135299999Y-92898999D01*
X132390000Y-91981000D02*
X132939200Y-91981000D01*
X132365000Y-91956000D02*
X132390000Y-91981000D01*
X132939200Y-91981000D02*
X134332200Y-93374000D01*
D32*
X132840001Y-93366001D02*
X132750002Y-93456000D01*
X132840001Y-92545999D02*
X132840001Y-93366001D01*
X132750002Y-92456000D02*
X132840001Y-92545999D01*
X132750002Y-93456000D02*
X131940000Y-93456000D01*
X131940000Y-92456000D02*
X132750002Y-92456000D01*
D34*
X135777000Y-94299001D02*
X136026999Y-94549000D01*
X136026999Y-94549000D02*
X136822000Y-94549000D01*
X135299999Y-94299001D02*
X135777000Y-94299001D01*
X134824998Y-93824000D02*
X135299999Y-94299001D01*
X132752800Y-92431000D02*
X134145800Y-93824000D01*
X134145800Y-93824000D02*
X134824998Y-93824000D01*
X132390000Y-92431000D02*
X132752800Y-92431000D01*
X132365000Y-92456000D02*
X132390000Y-92431000D01*
X131940000Y-92456000D02*
X132365000Y-92456000D01*
X134000000Y-95072038D02*
X134000000Y-97012500D01*
X133383962Y-94456000D02*
X134000000Y-95072038D01*
X131940000Y-94456000D02*
X133383962Y-94456000D01*
D32*
X161949922Y-97998899D02*
X161949922Y-98938057D01*
X162072000Y-97876821D02*
X161949922Y-97998899D01*
X161949922Y-98938057D02*
X161163000Y-99724979D01*
X162072000Y-97127247D02*
X162072000Y-97876821D01*
D34*
X170912500Y-102332500D02*
X171450000Y-102870000D01*
X170912500Y-100300000D02*
X170912500Y-102332500D01*
D32*
X159920753Y-95476000D02*
X158466197Y-95476000D01*
X158466197Y-95476000D02*
X158038969Y-95903228D01*
X158780149Y-95976000D02*
X158022080Y-96734069D01*
X158022080Y-96734069D02*
X157588958Y-96734069D01*
X159920753Y-95976000D02*
X158780149Y-95976000D01*
X158036313Y-94483034D02*
X157876158Y-94643189D01*
X159913719Y-94483034D02*
X158036313Y-94483034D01*
X159920753Y-94476000D02*
X159913719Y-94483034D01*
X157464021Y-96045002D02*
X156778011Y-96731012D01*
X156778011Y-96731012D02*
X156442512Y-96731012D01*
X159920753Y-94976000D02*
X158321180Y-94976000D01*
X158004191Y-95292989D02*
X157835204Y-95292989D01*
X157464021Y-95664172D02*
X157464021Y-96045002D01*
X157835204Y-95292989D02*
X157464021Y-95664172D01*
X158321180Y-94976000D02*
X158004191Y-95292989D01*
X165072000Y-97127247D02*
X165122011Y-97177258D01*
X165072000Y-97310000D02*
X165022010Y-97359990D01*
X165072000Y-97127247D02*
X165072000Y-97310000D01*
X164913554Y-100168898D02*
X164874810Y-100207642D01*
X165072000Y-97127247D02*
X165035482Y-97163765D01*
X165035482Y-98598661D02*
X164913554Y-98720589D01*
X164913554Y-98720589D02*
X164913554Y-100168898D01*
X165035482Y-97163765D02*
X165035482Y-98598661D01*
X165638604Y-101721234D02*
X166327286Y-101032552D01*
X158750000Y-102870000D02*
X159925001Y-101694999D01*
X166327286Y-101032552D02*
X166327286Y-100694979D01*
X164520791Y-101694999D02*
X164547026Y-101721234D01*
X164547026Y-101721234D02*
X165638604Y-101721234D01*
X159925001Y-101694999D02*
X164520791Y-101694999D01*
D34*
X166196843Y-100169978D02*
X166068190Y-100169978D01*
X166743364Y-98679634D02*
X166743364Y-99623457D01*
X157059999Y-102020001D02*
X156210000Y-102870000D01*
X166974987Y-98448011D02*
X166743364Y-98679634D01*
X166974987Y-97182309D02*
X166974987Y-98448011D01*
X166068190Y-100169978D02*
X165795191Y-100442977D01*
X166743364Y-99623457D02*
X166196843Y-100169978D01*
X166723248Y-95976000D02*
X166802000Y-96054752D01*
X165795191Y-100957804D02*
X165456772Y-101296223D01*
X164723071Y-101296223D02*
X164538720Y-101111872D01*
X167231318Y-96054752D02*
X167478072Y-96301506D01*
X167478072Y-96301506D02*
X167478072Y-96679224D01*
X157968128Y-101111872D02*
X157059999Y-102020001D01*
X165456772Y-101296223D02*
X164723071Y-101296223D01*
X164538720Y-101111872D02*
X157968128Y-101111872D01*
X165795191Y-100442977D02*
X165795191Y-100957804D01*
X167478072Y-96679224D02*
X166974987Y-97182309D01*
X166802000Y-96054752D02*
X167231318Y-96054752D01*
X166343353Y-98313915D02*
X166343353Y-99457768D01*
X153894286Y-102870000D02*
X153670000Y-102870000D01*
X166723248Y-96476000D02*
X166574977Y-96624271D01*
X166574977Y-96624271D02*
X166574977Y-98082291D01*
X165909596Y-99769967D02*
X165857795Y-99821768D01*
X166031154Y-99769967D02*
X165909596Y-99769967D01*
X164888760Y-100896212D02*
X164692548Y-100700000D01*
X165850700Y-99821768D02*
X165395180Y-100277288D01*
X165395180Y-100277288D02*
X165395180Y-100792115D01*
X166574977Y-98082291D02*
X166343353Y-98313915D01*
X166343353Y-99457768D02*
X166031154Y-99769967D01*
X165291083Y-100896212D02*
X164888760Y-100896212D01*
X156064286Y-100700000D02*
X153894286Y-102870000D01*
X164692548Y-100700000D02*
X156064286Y-100700000D01*
X165857795Y-99821768D02*
X165850700Y-99821768D01*
X165395180Y-100792115D02*
X165291083Y-100896212D01*
D32*
X164572000Y-97127247D02*
X164572000Y-98425732D01*
X154563230Y-101600000D02*
X152400000Y-101600000D01*
X164463543Y-99812933D02*
X164330638Y-99945838D01*
X164330638Y-100083362D02*
X164139011Y-100274989D01*
X164330638Y-99945838D02*
X164330638Y-100083362D01*
X152400000Y-101600000D02*
X151130000Y-102870000D01*
X164463543Y-98534189D02*
X164463543Y-99812933D01*
X164572000Y-98425732D02*
X164463543Y-98534189D01*
X164139011Y-100274989D02*
X155888240Y-100274990D01*
X155888240Y-100274990D02*
X154563230Y-101600000D01*
X155704821Y-99822000D02*
X154434821Y-101092000D01*
X161508326Y-97816778D02*
X161508326Y-97897849D01*
X154434821Y-101092000D02*
X150368000Y-101092000D01*
X161572000Y-97753104D02*
X161508326Y-97816778D01*
X161572000Y-97127247D02*
X161572000Y-97753104D01*
X150368000Y-101092000D02*
X148590000Y-102870000D01*
X161508326Y-97897849D02*
X159584175Y-99822000D01*
X159584175Y-99822000D02*
X155704821Y-99822000D01*
X155576410Y-99314000D02*
X154306410Y-100584000D01*
X159691675Y-98445910D02*
X159569635Y-98445910D01*
X159696598Y-98440987D02*
X159691675Y-98445910D01*
X160328777Y-98440987D02*
X159696598Y-98440987D01*
X161072000Y-97697764D02*
X160328777Y-98440987D01*
X154306410Y-100584000D02*
X149275348Y-100584000D01*
X149275348Y-100584000D02*
X146989348Y-102870000D01*
X159569635Y-98445910D02*
X158701545Y-99314000D01*
X161072000Y-97127247D02*
X161072000Y-97697764D01*
X146989348Y-102870000D02*
X146050000Y-102870000D01*
X158701545Y-99314000D02*
X155576410Y-99314000D01*
X159920753Y-93976000D02*
X157739410Y-93976000D01*
X157739410Y-93976000D02*
X157014010Y-94701400D01*
X155693800Y-96658022D02*
X151308326Y-96658022D01*
X157014010Y-95858602D02*
X156691610Y-96181002D01*
X157014010Y-94701400D02*
X157014010Y-95858602D01*
X156691610Y-96181002D02*
X156170820Y-96181002D01*
X156170820Y-96181002D02*
X155693800Y-96658022D01*
X147649163Y-101677011D02*
X144702989Y-101677011D01*
X144702989Y-101677011D02*
X143510000Y-102870000D01*
X150749000Y-98577174D02*
X147649163Y-101677011D01*
X150749000Y-97217348D02*
X150749000Y-98577174D01*
X151308326Y-96658022D02*
X150749000Y-97217348D01*
X132359500Y-100457000D02*
X132334000Y-100482500D01*
X133477000Y-100457000D02*
X132359500Y-100457000D01*
X145029000Y-89916000D02*
X142367000Y-89916000D01*
X145349000Y-89596000D02*
X145029000Y-89916000D01*
X145349000Y-88816000D02*
X145349000Y-89596000D01*
X147124500Y-91016000D02*
X147193000Y-91084500D01*
X145349000Y-91016000D02*
X147124500Y-91016000D01*
D34*
X140279162Y-94549000D02*
X141201151Y-93627011D01*
X153808433Y-93627011D02*
X155959443Y-91476000D01*
X141201151Y-93627011D02*
X153808433Y-93627011D01*
X139022000Y-94549000D02*
X140279162Y-94549000D01*
X155959443Y-91476000D02*
X159465935Y-91476000D01*
X159465935Y-91476000D02*
X159920753Y-91476000D01*
X139073000Y-92700000D02*
X139022000Y-92649000D01*
X140500000Y-92700000D02*
X139073000Y-92700000D01*
X141100000Y-93300000D02*
X140500000Y-92700000D01*
X155845229Y-91127752D02*
X153672981Y-93300000D01*
X153672981Y-93300000D02*
X141100000Y-93300000D01*
X159769001Y-91127752D02*
X155845229Y-91127752D01*
X159920753Y-90976000D02*
X159769001Y-91127752D01*
D32*
X165572000Y-97127247D02*
X165621990Y-97177237D01*
X165490823Y-98204128D02*
X165585483Y-98298788D01*
X165518248Y-97645673D02*
X165490823Y-97673098D01*
X165621989Y-97177236D02*
X165621989Y-97444275D01*
X165490823Y-97673098D02*
X165490823Y-98204128D01*
X165621989Y-97444275D02*
X165518248Y-97548016D01*
X165518248Y-97548016D02*
X165518248Y-97645673D01*
X165572000Y-97127247D02*
X165621989Y-97177236D01*
X162572000Y-98190823D02*
X162499923Y-98262900D01*
X162572000Y-97127247D02*
X162572000Y-98190823D01*
X163072000Y-98602834D02*
X163013519Y-98661315D01*
X163072000Y-97127247D02*
X163072000Y-98602834D01*
X166072000Y-97808266D02*
X166043104Y-97837162D01*
X166072000Y-97127247D02*
X166072000Y-97808266D01*
X166072000Y-90324752D02*
X166193238Y-90203514D01*
X166072000Y-89618000D02*
X166072000Y-90324752D01*
X163916000Y-87462000D02*
X166072000Y-89618000D01*
X163916000Y-87083000D02*
X163916000Y-87462000D01*
X166204000Y-85514000D02*
X166204000Y-85614000D01*
X166723248Y-88927752D02*
X166723248Y-90976000D01*
X167259000Y-88392000D02*
X166723248Y-88927752D01*
X167259000Y-85322000D02*
X167259000Y-88392000D01*
X167066000Y-85129000D02*
X167259000Y-85322000D01*
X166116000Y-85129000D02*
X167066000Y-85129000D01*
D29*
X131919001Y-89535000D02*
X131940000Y-89555999D01*
X131769000Y-95885000D02*
X131940000Y-96056000D01*
X138811000Y-89194000D02*
X138795000Y-89210000D01*
D32*
X172522000Y-89662000D02*
X172498000Y-89638000D01*
X170067000Y-91059000D02*
X170053000Y-91045000D01*
X172498000Y-89638000D02*
X173204000Y-89638000D01*
X152374500Y-87495500D02*
X152316000Y-87437000D01*
X152316000Y-87437000D02*
X152316000Y-87460000D01*
X162572000Y-92976000D02*
X162572000Y-92976000D01*
X162572000Y-90324752D02*
X162572000Y-92976000D01*
X165072000Y-91976000D02*
X163322000Y-93726000D01*
X166723248Y-91976000D02*
X165072000Y-91976000D01*
X164123000Y-85129000D02*
X163916000Y-85129000D01*
X165823000Y-86829000D02*
X164123000Y-85129000D01*
X166116000Y-86829000D02*
X165823000Y-86829000D01*
D31*
X138795000Y-89210000D02*
X138795000Y-87392000D01*
X138795000Y-87392000D02*
X139446000Y-86741000D01*
X143461500Y-86741000D02*
X143510000Y-86789500D01*
X141097000Y-86741000D02*
X143461500Y-86741000D01*
D29*
X144399000Y-87678500D02*
X144399000Y-88816000D01*
X143510000Y-86789500D02*
X144399000Y-87678500D01*
D32*
X140309500Y-86842500D02*
X140208000Y-86741000D01*
D31*
X140208000Y-86741000D02*
X141097000Y-86741000D01*
D32*
X140309500Y-91059000D02*
X140309500Y-86842500D01*
D31*
X139446000Y-86741000D02*
X140208000Y-86741000D01*
X136822000Y-93599000D02*
X135636000Y-93599000D01*
X151384009Y-87630009D02*
X152316000Y-87630009D01*
X150749000Y-86995000D02*
X151384009Y-87630009D01*
D32*
X146733500Y-87678500D02*
X144399000Y-87678500D01*
X147193000Y-88138000D02*
X146733500Y-87678500D01*
X147193000Y-89509500D02*
X147193000Y-88138000D01*
D31*
X156639500Y-90424000D02*
X156718000Y-90345500D01*
X155194000Y-90424000D02*
X156639500Y-90424000D01*
D32*
X151892000Y-97764500D02*
X153543000Y-97764500D01*
X154787500Y-97764500D02*
X154813000Y-97790000D01*
X153543000Y-97764500D02*
X154787500Y-97764500D01*
X155907500Y-97790000D02*
X156034500Y-97917000D01*
X154813000Y-97790000D02*
X155907500Y-97790000D01*
X162572000Y-92976000D02*
X163322000Y-93726000D01*
X156995000Y-90068500D02*
X156718000Y-90345500D01*
X158369000Y-90068500D02*
X156995000Y-90068500D01*
X159717500Y-84787500D02*
X159766000Y-84836000D01*
X159766000Y-84836000D02*
X159766000Y-86588500D01*
X157734000Y-84787500D02*
X159717500Y-84787500D01*
X144910500Y-86789500D02*
X143510000Y-86789500D01*
X147193000Y-89072000D02*
X144910500Y-86789500D01*
X147193000Y-89509500D02*
X147193000Y-89072000D01*
D31*
X157734000Y-84787500D02*
X156258500Y-84787500D01*
X155702000Y-84836000D02*
X155956000Y-85090000D01*
X156258500Y-84787500D02*
X155956000Y-85090000D01*
X154353500Y-84836000D02*
X155702000Y-84836000D01*
D32*
X166116000Y-86829000D02*
X166116000Y-88083998D01*
X166116000Y-88083998D02*
X166099998Y-88100000D01*
D34*
X172520000Y-89660000D02*
X172498000Y-89638000D01*
D32*
X172520000Y-90290000D02*
X172520000Y-89660000D01*
D31*
X131375000Y-96621000D02*
X131375000Y-97026000D01*
X131940000Y-96056000D02*
X131375000Y-96621000D01*
X131375000Y-88791000D02*
X131940000Y-89356000D01*
X131375000Y-88386000D02*
X131375000Y-88791000D01*
D32*
X130289000Y-87300000D02*
X131375000Y-88386000D01*
X128665000Y-87136000D02*
X128829000Y-87300000D01*
X128829000Y-87300000D02*
X130289000Y-87300000D01*
X128665000Y-86487000D02*
X128665000Y-87136000D01*
D34*
X134000000Y-98587500D02*
X134101900Y-98587500D01*
X138795000Y-90960000D02*
X138795000Y-89210000D01*
X138355000Y-91400000D02*
X138795000Y-90960000D01*
X135387500Y-91400000D02*
X138355000Y-91400000D01*
X132438500Y-97026000D02*
X134000000Y-98587500D01*
X131375000Y-97026000D02*
X132438500Y-97026000D01*
X145625000Y-99800000D02*
X145650000Y-99775000D01*
X144300000Y-99800000D02*
X145625000Y-99800000D01*
X139622600Y-97900000D02*
X139648180Y-97925580D01*
X137700000Y-97900000D02*
X139622600Y-97900000D01*
X135777400Y-97900000D02*
X135751820Y-97925580D01*
X137700000Y-97900000D02*
X135777400Y-97900000D01*
D32*
X169164000Y-88392000D02*
X169164000Y-88251000D01*
X169164000Y-88392000D02*
X169164000Y-88378000D01*
X170053000Y-89281000D02*
X169164000Y-88392000D01*
X170053000Y-89295000D02*
X170053000Y-89281000D01*
X169164000Y-88533000D02*
X168402000Y-89295000D01*
X169164000Y-88392000D02*
X169164000Y-88533000D01*
X168402000Y-89295000D02*
X168402000Y-89281000D01*
X167503076Y-91160846D02*
X167187922Y-91476000D01*
X167503076Y-90193924D02*
X167503076Y-91160846D01*
X167187922Y-91476000D02*
X166723248Y-91476000D01*
X168402000Y-89295000D02*
X167503076Y-90193924D01*
X162072000Y-90324752D02*
X162072000Y-89809000D01*
X160572000Y-97127247D02*
X160572000Y-97478000D01*
X161072000Y-90324752D02*
X161072000Y-89809000D01*
X163072000Y-89539000D02*
X162958233Y-89425233D01*
X162958233Y-89425233D02*
X162464000Y-89425232D01*
X163072000Y-90324752D02*
X163072000Y-89539000D01*
X161072000Y-89499000D02*
X161145768Y-89425232D01*
X161072000Y-90324752D02*
X161072000Y-89499000D01*
X161572000Y-89507000D02*
X161653768Y-89425232D01*
X161572000Y-90324752D02*
X161572000Y-89507000D01*
X161653768Y-89425232D02*
X161145768Y-89425232D01*
X162072000Y-89555000D02*
X161942232Y-89425232D01*
X162072000Y-90324752D02*
X162072000Y-89555000D01*
X161942232Y-89425232D02*
X161653768Y-89425232D01*
X162464000Y-89425232D02*
X161942232Y-89425232D01*
X159920753Y-96476000D02*
X159920753Y-97127247D01*
X160572000Y-97127247D02*
X159920753Y-97127247D01*
X159920753Y-97127247D02*
X159258000Y-97790000D01*
X172498000Y-88638000D02*
X174379004Y-88638000D01*
X174379004Y-88638000D02*
X174879000Y-88138004D01*
X169164000Y-88392000D02*
X168275000Y-87503000D01*
X168275000Y-86639500D02*
X168249500Y-86614000D01*
X168275000Y-87503000D02*
X168275000Y-86639500D01*
X168249500Y-85090000D02*
X168249500Y-86614000D01*
D31*
X155509000Y-86680000D02*
X155956000Y-86233000D01*
X154516000Y-86680000D02*
X155509000Y-86680000D01*
X155514000Y-86680000D02*
X155956000Y-87122000D01*
X154516000Y-86680000D02*
X155514000Y-86680000D01*
X155956000Y-87122000D02*
X155956000Y-86233000D01*
D32*
X159766000Y-88163500D02*
X159766000Y-89281000D01*
X159910232Y-89425232D02*
X159766000Y-89281000D01*
X161145768Y-89425232D02*
X159910232Y-89425232D01*
D31*
X157304500Y-86233000D02*
X157734000Y-86662500D01*
X155956000Y-86233000D02*
X157304500Y-86233000D01*
X157274500Y-87122000D02*
X157734000Y-86662500D01*
X155956000Y-87122000D02*
X157274500Y-87122000D01*
X156718000Y-87884000D02*
X155956000Y-87122000D01*
X156718000Y-88470500D02*
X156718000Y-87884000D01*
D32*
X156997500Y-88163500D02*
X156718000Y-87884000D01*
X159235000Y-88163500D02*
X157734000Y-86662500D01*
X159766000Y-88163500D02*
X159235000Y-88163500D01*
X159131000Y-97917000D02*
X159258000Y-97790000D01*
X157909500Y-97917000D02*
X159131000Y-97917000D01*
X153543000Y-99339500D02*
X151892000Y-99339500D01*
X154406500Y-99339500D02*
X154813000Y-98933000D01*
X153543000Y-99339500D02*
X154406500Y-99339500D01*
X159696010Y-92525990D02*
X158877000Y-92525990D01*
X159746000Y-92476000D02*
X159696010Y-92525990D01*
X159920753Y-92476000D02*
X159746000Y-92476000D01*
X159436000Y-88493500D02*
X159766000Y-88163500D01*
X158369000Y-88493500D02*
X159436000Y-88493500D01*
D34*
X166723248Y-92976000D02*
X166723248Y-93023248D01*
X167152566Y-92976000D02*
X166723248Y-92976000D01*
X169400000Y-98812500D02*
X168887494Y-98812500D01*
X168887494Y-98812500D02*
X168200000Y-99499994D01*
X167178066Y-92976000D02*
X169825979Y-95623913D01*
X166723248Y-92976000D02*
X167178066Y-92976000D01*
X170912500Y-95800000D02*
X169925981Y-95800000D01*
X169925981Y-95800000D02*
X169825979Y-95900002D01*
X169825979Y-95623913D02*
X169825979Y-95900002D01*
X143475000Y-98025000D02*
X143500000Y-98000000D01*
X142150000Y-98025000D02*
X143475000Y-98025000D01*
D35*
X174813056Y-92475000D02*
X175900000Y-93561944D01*
X175900000Y-93561944D02*
X175900000Y-94850000D01*
X169412000Y-92475000D02*
X174813056Y-92475000D01*
D34*
X166724248Y-92475000D02*
X166723248Y-92476000D01*
D35*
X168237000Y-92476000D02*
X168238000Y-92475000D01*
X166723248Y-92476000D02*
X168237000Y-92476000D01*
D36*
X169061500Y-92761500D02*
X168588500Y-92761500D01*
X168588500Y-92188500D01*
X169061500Y-92188500D01*
X169061500Y-92761500D01*
G04 #@! TA.AperFunction,Conductor*
D37*
G36*
X169061500Y-92761500D02*
G01*
X168588500Y-92761500D01*
X168588500Y-92188500D01*
X169061500Y-92188500D01*
X169061500Y-92761500D01*
G37*
G04 #@! TD.AperFunction*
D36*
X170596207Y-91477451D02*
X169667870Y-92137815D01*
X169601184Y-92137815D01*
X169599344Y-92137257D01*
X169562000Y-92133579D01*
X169262000Y-92133579D01*
X169224656Y-92137257D01*
X169188746Y-92148150D01*
X169155652Y-92165839D01*
X169126645Y-92189645D01*
X169102839Y-92218652D01*
X169085150Y-92251746D01*
X169074257Y-92287656D01*
X169070579Y-92325000D01*
X169070579Y-92625000D01*
X169074257Y-92662344D01*
X169085150Y-92698254D01*
X169102839Y-92731348D01*
X169126645Y-92760355D01*
X169155652Y-92784161D01*
X169188746Y-92801850D01*
X169224656Y-92812743D01*
X169262000Y-92816421D01*
X169562000Y-92816421D01*
X169599344Y-92812743D01*
X169601184Y-92812185D01*
X169626500Y-92812185D01*
X169626500Y-93250000D01*
X169627720Y-93262388D01*
X169631334Y-93274300D01*
X169637202Y-93285279D01*
X169645099Y-93294901D01*
X169658178Y-93304951D01*
X172976560Y-95226641D01*
X172986396Y-101236500D01*
X171963604Y-101236500D01*
X171973500Y-95190104D01*
X171972300Y-95177714D01*
X171968706Y-95165796D01*
X171962856Y-95154808D01*
X171954975Y-95145172D01*
X171945365Y-95137259D01*
X171934396Y-95131373D01*
X171922490Y-95127740D01*
X171910268Y-95126501D01*
X169730197Y-95117302D01*
X167426079Y-92813185D01*
X168055144Y-92813185D01*
X168088000Y-92816421D01*
X168388000Y-92816421D01*
X168425344Y-92812743D01*
X168461254Y-92801850D01*
X168494348Y-92784161D01*
X168523355Y-92760355D01*
X168547161Y-92731348D01*
X168564850Y-92698254D01*
X168575743Y-92662344D01*
X168579421Y-92625000D01*
X168579421Y-92325000D01*
X168575743Y-92287656D01*
X168564850Y-92251746D01*
X168547161Y-92218652D01*
X168523355Y-92189645D01*
X168494348Y-92165839D01*
X168461254Y-92148150D01*
X168425344Y-92137257D01*
X168388000Y-92133579D01*
X168088000Y-92133579D01*
X168050656Y-92137257D01*
X168045520Y-92138815D01*
X166788500Y-92138815D01*
X166788500Y-91813048D01*
X166828785Y-91791500D01*
X167172440Y-91791500D01*
X167187922Y-91793025D01*
X167203404Y-91791500D01*
X167203415Y-91791500D01*
X167249771Y-91786934D01*
X167309243Y-91768894D01*
X167364052Y-91739597D01*
X167412093Y-91700171D01*
X167421973Y-91688132D01*
X167715218Y-91394889D01*
X167727247Y-91385017D01*
X167737118Y-91372989D01*
X167737123Y-91372984D01*
X167766673Y-91336976D01*
X167795970Y-91282167D01*
X167798866Y-91272619D01*
X167829950Y-91255993D01*
X167840298Y-91249074D01*
X167849098Y-91240270D01*
X167856011Y-91229917D01*
X167860771Y-91218415D01*
X167863500Y-91200000D01*
X167863500Y-90463278D01*
X170587067Y-90453722D01*
X170596207Y-91477451D01*
G04 #@! TA.AperFunction,Conductor*
D37*
G36*
X170596207Y-91477451D02*
G01*
X169667870Y-92137815D01*
X169601184Y-92137815D01*
X169599344Y-92137257D01*
X169562000Y-92133579D01*
X169262000Y-92133579D01*
X169224656Y-92137257D01*
X169188746Y-92148150D01*
X169155652Y-92165839D01*
X169126645Y-92189645D01*
X169102839Y-92218652D01*
X169085150Y-92251746D01*
X169074257Y-92287656D01*
X169070579Y-92325000D01*
X169070579Y-92625000D01*
X169074257Y-92662344D01*
X169085150Y-92698254D01*
X169102839Y-92731348D01*
X169126645Y-92760355D01*
X169155652Y-92784161D01*
X169188746Y-92801850D01*
X169224656Y-92812743D01*
X169262000Y-92816421D01*
X169562000Y-92816421D01*
X169599344Y-92812743D01*
X169601184Y-92812185D01*
X169626500Y-92812185D01*
X169626500Y-93250000D01*
X169627720Y-93262388D01*
X169631334Y-93274300D01*
X169637202Y-93285279D01*
X169645099Y-93294901D01*
X169658178Y-93304951D01*
X172976560Y-95226641D01*
X172986396Y-101236500D01*
X171963604Y-101236500D01*
X171973500Y-95190104D01*
X171972300Y-95177714D01*
X171968706Y-95165796D01*
X171962856Y-95154808D01*
X171954975Y-95145172D01*
X171945365Y-95137259D01*
X171934396Y-95131373D01*
X171922490Y-95127740D01*
X171910268Y-95126501D01*
X169730197Y-95117302D01*
X167426079Y-92813185D01*
X168055144Y-92813185D01*
X168088000Y-92816421D01*
X168388000Y-92816421D01*
X168425344Y-92812743D01*
X168461254Y-92801850D01*
X168494348Y-92784161D01*
X168523355Y-92760355D01*
X168547161Y-92731348D01*
X168564850Y-92698254D01*
X168575743Y-92662344D01*
X168579421Y-92625000D01*
X168579421Y-92325000D01*
X168575743Y-92287656D01*
X168564850Y-92251746D01*
X168547161Y-92218652D01*
X168523355Y-92189645D01*
X168494348Y-92165839D01*
X168461254Y-92148150D01*
X168425344Y-92137257D01*
X168388000Y-92133579D01*
X168088000Y-92133579D01*
X168050656Y-92137257D01*
X168045520Y-92138815D01*
X166788500Y-92138815D01*
X166788500Y-91813048D01*
X166828785Y-91791500D01*
X167172440Y-91791500D01*
X167187922Y-91793025D01*
X167203404Y-91791500D01*
X167203415Y-91791500D01*
X167249771Y-91786934D01*
X167309243Y-91768894D01*
X167364052Y-91739597D01*
X167412093Y-91700171D01*
X167421973Y-91688132D01*
X167715218Y-91394889D01*
X167727247Y-91385017D01*
X167737118Y-91372989D01*
X167737123Y-91372984D01*
X167766673Y-91336976D01*
X167795970Y-91282167D01*
X167798866Y-91272619D01*
X167829950Y-91255993D01*
X167840298Y-91249074D01*
X167849098Y-91240270D01*
X167856011Y-91229917D01*
X167860771Y-91218415D01*
X167863500Y-91200000D01*
X167863500Y-90463278D01*
X170587067Y-90453722D01*
X170596207Y-91477451D01*
G37*
G04 #@! TD.AperFunction*
M02*
