G04 #@! TF.GenerationSoftware,KiCad,Pcbnew,(5.1.7-0-10_14)*
G04 #@! TF.CreationDate,2020-10-21T09:18:26+08:00*
G04 #@! TF.ProjectId,Feather_STM32WB55,46656174-6865-4725-9f53-544d33325742,rev?*
G04 #@! TF.SameCoordinates,Original*
G04 #@! TF.FileFunction,Paste,Bot*
G04 #@! TF.FilePolarity,Positive*
%FSLAX46Y46*%
G04 Gerber Fmt 4.6, Leading zero omitted, Abs format (unit mm)*
G04 Created by KiCad (PCBNEW (5.1.7-0-10_14)) date 2020-10-21 09:18:26*
%MOMM*%
%LPD*%
G01*
G04 APERTURE LIST*
%ADD10R,2.000000X0.500000*%
G04 APERTURE END LIST*
D10*
X150750000Y-96107000D03*
X154050000Y-96107000D03*
X150750000Y-95107000D03*
X154050000Y-95107000D03*
X150750000Y-94107000D03*
X154050000Y-94107000D03*
X150750000Y-93107000D03*
X154050000Y-93107000D03*
X150750000Y-92107000D03*
X154050000Y-92107000D03*
G36*
G01*
X159364000Y-96543000D02*
X159364000Y-96243000D01*
G75*
G02*
X159514000Y-96093000I150000J0D01*
G01*
X161164000Y-96093000D01*
G75*
G02*
X161314000Y-96243000I0J-150000D01*
G01*
X161314000Y-96543000D01*
G75*
G02*
X161164000Y-96693000I-150000J0D01*
G01*
X159514000Y-96693000D01*
G75*
G02*
X159364000Y-96543000I0J150000D01*
G01*
G37*
G36*
G01*
X159364000Y-95273000D02*
X159364000Y-94973000D01*
G75*
G02*
X159514000Y-94823000I150000J0D01*
G01*
X161164000Y-94823000D01*
G75*
G02*
X161314000Y-94973000I0J-150000D01*
G01*
X161314000Y-95273000D01*
G75*
G02*
X161164000Y-95423000I-150000J0D01*
G01*
X159514000Y-95423000D01*
G75*
G02*
X159364000Y-95273000I0J150000D01*
G01*
G37*
G36*
G01*
X159364000Y-94003000D02*
X159364000Y-93703000D01*
G75*
G02*
X159514000Y-93553000I150000J0D01*
G01*
X161164000Y-93553000D01*
G75*
G02*
X161314000Y-93703000I0J-150000D01*
G01*
X161314000Y-94003000D01*
G75*
G02*
X161164000Y-94153000I-150000J0D01*
G01*
X159514000Y-94153000D01*
G75*
G02*
X159364000Y-94003000I0J150000D01*
G01*
G37*
G36*
G01*
X159364000Y-92733000D02*
X159364000Y-92433000D01*
G75*
G02*
X159514000Y-92283000I150000J0D01*
G01*
X161164000Y-92283000D01*
G75*
G02*
X161314000Y-92433000I0J-150000D01*
G01*
X161314000Y-92733000D01*
G75*
G02*
X161164000Y-92883000I-150000J0D01*
G01*
X159514000Y-92883000D01*
G75*
G02*
X159364000Y-92733000I0J150000D01*
G01*
G37*
G36*
G01*
X164314000Y-92733000D02*
X164314000Y-92433000D01*
G75*
G02*
X164464000Y-92283000I150000J0D01*
G01*
X166114000Y-92283000D01*
G75*
G02*
X166264000Y-92433000I0J-150000D01*
G01*
X166264000Y-92733000D01*
G75*
G02*
X166114000Y-92883000I-150000J0D01*
G01*
X164464000Y-92883000D01*
G75*
G02*
X164314000Y-92733000I0J150000D01*
G01*
G37*
G36*
G01*
X164314000Y-94003000D02*
X164314000Y-93703000D01*
G75*
G02*
X164464000Y-93553000I150000J0D01*
G01*
X166114000Y-93553000D01*
G75*
G02*
X166264000Y-93703000I0J-150000D01*
G01*
X166264000Y-94003000D01*
G75*
G02*
X166114000Y-94153000I-150000J0D01*
G01*
X164464000Y-94153000D01*
G75*
G02*
X164314000Y-94003000I0J150000D01*
G01*
G37*
G36*
G01*
X164314000Y-95273000D02*
X164314000Y-94973000D01*
G75*
G02*
X164464000Y-94823000I150000J0D01*
G01*
X166114000Y-94823000D01*
G75*
G02*
X166264000Y-94973000I0J-150000D01*
G01*
X166264000Y-95273000D01*
G75*
G02*
X166114000Y-95423000I-150000J0D01*
G01*
X164464000Y-95423000D01*
G75*
G02*
X164314000Y-95273000I0J150000D01*
G01*
G37*
G36*
G01*
X164314000Y-96543000D02*
X164314000Y-96243000D01*
G75*
G02*
X164464000Y-96093000I150000J0D01*
G01*
X166114000Y-96093000D01*
G75*
G02*
X166264000Y-96243000I0J-150000D01*
G01*
X166264000Y-96543000D01*
G75*
G02*
X166114000Y-96693000I-150000J0D01*
G01*
X164464000Y-96693000D01*
G75*
G02*
X164314000Y-96543000I0J150000D01*
G01*
G37*
M02*
