%FSLAX45Y45*%
G04 Gerber Fmt 4.5, Leading zero omitted, Abs format (unit mm)*
G04 Created by KiCad (PCBNEW (5.1.7-0-10_14)) date 2020-10-21 09:18:24*
%MOMM*%
%LPD*%
G01*
G04 APERTURE LIST*
%TA.AperFunction,Profile*%
%ADD10C,0.150000*%
%TD*%
%ADD11C,0.200000*%
%ADD12C,0.300000*%
G04 APERTURE END LIST*
D10*
X12954000Y-10414000D02*
G75*
G02*
X12700000Y-10160000I0J254000D01*
G01*
X12700000Y-9880600D02*
X12700000Y-10160000D01*
X12534900Y-9715500D02*
X12700000Y-9880600D01*
X12534900Y-8826500D02*
X12534900Y-9715500D01*
X12534900Y-8826500D02*
X12700000Y-8661400D01*
X12700000Y-8382000D02*
X12700000Y-8661400D01*
X12700000Y-8382000D02*
G75*
G02*
X12954000Y-8128000I254000J0D01*
G01*
X17780000Y-10160000D02*
G75*
G02*
X17526000Y-10414000I-254000J0D01*
G01*
X17526000Y-8128000D02*
X12954000Y-8128000D01*
X17526000Y-8128000D02*
G75*
G02*
X17780000Y-8382000I0J-254000D01*
G01*
X12954000Y-10414000D02*
X17526000Y-10414000D01*
X17780000Y-10160000D02*
X17780000Y-8382000D01*
D11*
X16200000Y-9260000D02*
X16220000Y-9280000D01*
X16220000Y-9260000D02*
X16200000Y-9280000D01*
X16200000Y-9360000D02*
X16220000Y-9380000D01*
X16220000Y-9360000D02*
X16200000Y-9380000D01*
X16200000Y-9460000D02*
X16220000Y-9480000D01*
X16220000Y-9460000D02*
X16200000Y-9480000D01*
X16270000Y-9540000D02*
X16290000Y-9560000D01*
X16290000Y-9540000D02*
X16270000Y-9560000D01*
X16300000Y-9260000D02*
X16320000Y-9280000D01*
X16320000Y-9260000D02*
X16300000Y-9280000D01*
X16300000Y-9260000D02*
X16320000Y-9280000D01*
X16320000Y-9260000D02*
X16300000Y-9280000D01*
X16903000Y-9162000D02*
X16923000Y-9182000D01*
X16923000Y-9162000D02*
X16903000Y-9182000D01*
X16903000Y-9362000D02*
X16923000Y-9382000D01*
X16923000Y-9362000D02*
X16903000Y-9382000D01*
X17210000Y-9470000D02*
X17230000Y-9490000D01*
X17230000Y-9470000D02*
X17210000Y-9490000D01*
X17240000Y-10090000D02*
X17260000Y-10110000D01*
X17260000Y-10090000D02*
X17240000Y-10110000D01*
X17242000Y-9019000D02*
X17262000Y-9039000D01*
X17262000Y-9019000D02*
X17242000Y-9039000D01*
X13311900Y-8382000D02*
G75*
G03*
X13311900Y-8382000I-15000J0D01*
G01*
X13362700Y-10045700D02*
G75*
G03*
X13362700Y-10045700I-15000J0D01*
G01*
X14251700Y-8991600D02*
G75*
G03*
X14251700Y-8991600I-15000J0D01*
G01*
X15102600Y-8432800D02*
G75*
G03*
X15102600Y-8432800I-15000J0D01*
G01*
X15140700Y-8953500D02*
G75*
G03*
X15140700Y-8953500I-15000J0D01*
G01*
X15560387Y-9449388D02*
G75*
G03*
X15560387Y-9449388I-15000J0D01*
G01*
X15585200Y-9347200D02*
G75*
G03*
X15585200Y-9347200I-15000J0D01*
G01*
X15659251Y-9673101D02*
G75*
G03*
X15659251Y-9673101I-15000J0D01*
G01*
X15661389Y-9563089D02*
G75*
G03*
X15661389Y-9563089I-15000J0D01*
G01*
X15773896Y-9673407D02*
G75*
G03*
X15773896Y-9673407I-15000J0D01*
G01*
X15802616Y-9464319D02*
G75*
G03*
X15802616Y-9464319I-15000J0D01*
G01*
X15818897Y-9590323D02*
G75*
G03*
X15818897Y-9590323I-15000J0D01*
G01*
X15902700Y-9258300D02*
G75*
G03*
X15902700Y-9258300I-15000J0D01*
G01*
X15991600Y-9029699D02*
G75*
G03*
X15991600Y-9029699I-15000J0D01*
G01*
X16131300Y-9972498D02*
G75*
G03*
X16131300Y-9972498I-15000J0D01*
G01*
X16264992Y-9826290D02*
G75*
G03*
X16264992Y-9826290I-15000J0D01*
G01*
X16269320Y-9972498D02*
G75*
G03*
X16269320Y-9972498I-15000J0D01*
G01*
X16316352Y-9866132D02*
G75*
G03*
X16316352Y-9866132I-15000J0D01*
G01*
X16399917Y-9967994D02*
G75*
G03*
X16399917Y-9967994I-15000J0D01*
G01*
X16502481Y-10020764D02*
G75*
G03*
X16502481Y-10020764I-15000J0D01*
G01*
X16573548Y-9829879D02*
G75*
G03*
X16573548Y-9829879I-15000J0D01*
G01*
X16619310Y-9783716D02*
G75*
G03*
X16619310Y-9783716I-15000J0D01*
G01*
X16647729Y-10069498D02*
G75*
G03*
X16647729Y-10069498I-15000J0D01*
G01*
X16755000Y-10070000D02*
G75*
G03*
X16755000Y-10070000I-15000J0D01*
G01*
X16755867Y-9860867D02*
G75*
G03*
X16755867Y-9860867I-15000J0D01*
G01*
X16805000Y-9810000D02*
G75*
G03*
X16805000Y-9810000I-15000J0D01*
G01*
X16835000Y-9949999D02*
G75*
G03*
X16835000Y-9949999I-15000J0D01*
G01*
X16884650Y-9780350D02*
G75*
G03*
X16884650Y-9780350I-15000J0D01*
G01*
X16948098Y-9698554D02*
G75*
G03*
X16948098Y-9698554I-15000J0D01*
G01*
X16997598Y-9590000D02*
G75*
G03*
X16997598Y-9590000I-15000J0D01*
G01*
X16997598Y-9668906D02*
G75*
G03*
X16997598Y-9668906I-15000J0D01*
G01*
X17107800Y-8661400D02*
G75*
G03*
X17107800Y-8661400I-15000J0D01*
G01*
X17121900Y-8763000D02*
G75*
G03*
X17121900Y-8763000I-15000J0D01*
G01*
X12979401Y-9492301D02*
X12979401Y-9532301D01*
X12959401Y-9512301D02*
X12999401Y-9512301D01*
X12992100Y-9009700D02*
X12992100Y-9049700D01*
X12972100Y-9029700D02*
X13012100Y-9029700D01*
X13036551Y-9435151D02*
X13036551Y-9475151D01*
X13016551Y-9455151D02*
X13056551Y-9455151D01*
X13042900Y-9073201D02*
X13042900Y-9113201D01*
X13022900Y-9093201D02*
X13062900Y-9093201D01*
X13310000Y-9010000D02*
X13310000Y-9050000D01*
X13290000Y-9030000D02*
X13330000Y-9030000D01*
X13310000Y-9490000D02*
X13310000Y-9530000D01*
X13290000Y-9510000D02*
X13330000Y-9510000D01*
X13563600Y-9339900D02*
X13563600Y-9379900D01*
X13543600Y-9359900D02*
X13583600Y-9359900D01*
X13601700Y-8654100D02*
X13601700Y-8694100D01*
X13581700Y-8674100D02*
X13621700Y-8674100D01*
X13754100Y-8654100D02*
X13754100Y-8694100D01*
X13734100Y-8674100D02*
X13774100Y-8674100D01*
X13770000Y-9770000D02*
X13770000Y-9810000D01*
X13750000Y-9790000D02*
X13790000Y-9790000D01*
X14020800Y-9342701D02*
X14020800Y-9382701D01*
X14000800Y-9362701D02*
X14040800Y-9362701D01*
X14109700Y-8654100D02*
X14109700Y-8694100D01*
X14089700Y-8674100D02*
X14129700Y-8674100D01*
X14135100Y-8857300D02*
X14135100Y-8897300D01*
X14115100Y-8877300D02*
X14155100Y-8877300D01*
X14350000Y-9780000D02*
X14350000Y-9820000D01*
X14330000Y-9800000D02*
X14370000Y-9800000D01*
X14430000Y-9960000D02*
X14430000Y-10000000D01*
X14410000Y-9980000D02*
X14450000Y-9980000D01*
X14439900Y-9073200D02*
X14439900Y-9113200D01*
X14419900Y-9093200D02*
X14459900Y-9093200D01*
X14897100Y-9047800D02*
X14897100Y-9087800D01*
X14877100Y-9067800D02*
X14917100Y-9067800D01*
X15074900Y-8679500D02*
X15074900Y-8719500D01*
X15054900Y-8699500D02*
X15094900Y-8699500D01*
X15481300Y-9759000D02*
X15481300Y-9799000D01*
X15461300Y-9779000D02*
X15501300Y-9779000D01*
X15481300Y-9873300D02*
X15481300Y-9913300D01*
X15461300Y-9893300D02*
X15501300Y-9893300D01*
X15519400Y-9022400D02*
X15519400Y-9062400D01*
X15499400Y-9042400D02*
X15539400Y-9042400D01*
X15595600Y-8489000D02*
X15595600Y-8529000D01*
X15575600Y-8509000D02*
X15615600Y-8509000D01*
X15595600Y-8603300D02*
X15595600Y-8643300D01*
X15575600Y-8623300D02*
X15615600Y-8623300D01*
X15595600Y-8692200D02*
X15595600Y-8732200D01*
X15575600Y-8712200D02*
X15615600Y-8712200D01*
X15925800Y-9759000D02*
X15925800Y-9799000D01*
X15905800Y-9779000D02*
X15945800Y-9779000D01*
X15976600Y-8463600D02*
X15976600Y-8503600D01*
X15956600Y-8483600D02*
X15996600Y-8483600D01*
X16564335Y-9892177D02*
X16564335Y-9932177D01*
X16544335Y-9912177D02*
X16584335Y-9912177D01*
X16610000Y-8790000D02*
X16610000Y-8830000D01*
X16590000Y-8810000D02*
X16630000Y-8810000D01*
X16916400Y-8819200D02*
X16916400Y-8859200D01*
X16896400Y-8839200D02*
X16936400Y-8839200D01*
X17487900Y-8793800D02*
X17487900Y-8833800D01*
X17467900Y-8813800D02*
X17507900Y-8813800D01*
X12740713Y-8859813D02*
X12740713Y-8817387D01*
X12698287Y-8817387D01*
X12698287Y-8859813D01*
X12740713Y-8859813D01*
X12749500Y-8818600D02*
X12689500Y-8818600D01*
X12749500Y-8858600D02*
X12689500Y-8858600D01*
X12689500Y-8818600D02*
G75*
G03*
X12689500Y-8858600I0J-20000D01*
G01*
X12749500Y-8858600D02*
G75*
G03*
X12749500Y-8818600I0J20000D01*
G01*
X12740713Y-9723813D02*
X12740713Y-9681387D01*
X12698287Y-9681387D01*
X12698287Y-9723813D01*
X12740713Y-9723813D01*
X12749500Y-9682600D02*
X12689500Y-9682600D01*
X12749500Y-9722600D02*
X12689500Y-9722600D01*
X12689500Y-9682600D02*
G75*
G03*
X12689500Y-9722600I0J-20000D01*
G01*
X12749500Y-9722600D02*
G75*
G03*
X12749500Y-9682600I0J20000D01*
G01*
X13158713Y-8859813D02*
X13158713Y-8817387D01*
X13116287Y-8817387D01*
X13116287Y-8859813D01*
X13158713Y-8859813D01*
X13192500Y-8818600D02*
X13082500Y-8818600D01*
X13192500Y-8858600D02*
X13082500Y-8858600D01*
X13082500Y-8818600D02*
G75*
G03*
X13082500Y-8858600I0J-20000D01*
G01*
X13192500Y-8858600D02*
G75*
G03*
X13192500Y-8818600I0J20000D01*
G01*
X13158713Y-9723813D02*
X13158713Y-9681387D01*
X13116287Y-9681387D01*
X13116287Y-9723813D01*
X13158713Y-9723813D01*
X13192500Y-9682600D02*
X13082500Y-9682600D01*
X13192500Y-9722600D02*
X13082500Y-9722600D01*
X13082500Y-9682600D02*
G75*
G03*
X13082500Y-9722600I0J-20000D01*
G01*
X13192500Y-9722600D02*
G75*
G03*
X13192500Y-9682600I0J20000D01*
G01*
X13335000Y-10337000D02*
X13385000Y-10287000D01*
X13335000Y-10237000D01*
X13285000Y-10287000D01*
X13335000Y-10337000D01*
X13589000Y-10337000D02*
X13639000Y-10287000D01*
X13589000Y-10237000D01*
X13539000Y-10287000D01*
X13589000Y-10337000D01*
X13843000Y-10337000D02*
X13893000Y-10287000D01*
X13843000Y-10237000D01*
X13793000Y-10287000D01*
X13843000Y-10337000D01*
X14097000Y-10337000D02*
X14147000Y-10287000D01*
X14097000Y-10237000D01*
X14047000Y-10287000D01*
X14097000Y-10337000D01*
X14351000Y-10337000D02*
X14401000Y-10287000D01*
X14351000Y-10237000D01*
X14301000Y-10287000D01*
X14351000Y-10337000D01*
X14605000Y-10337000D02*
X14655000Y-10287000D01*
X14605000Y-10237000D01*
X14555000Y-10287000D01*
X14605000Y-10337000D01*
X14859000Y-10337000D02*
X14909000Y-10287000D01*
X14859000Y-10237000D01*
X14809000Y-10287000D01*
X14859000Y-10337000D01*
X15113000Y-10337000D02*
X15163000Y-10287000D01*
X15113000Y-10237000D01*
X15063000Y-10287000D01*
X15113000Y-10337000D01*
X15367000Y-10337000D02*
X15417000Y-10287000D01*
X15367000Y-10237000D01*
X15317000Y-10287000D01*
X15367000Y-10337000D01*
X15621000Y-10337000D02*
X15671000Y-10287000D01*
X15621000Y-10237000D01*
X15571000Y-10287000D01*
X15621000Y-10337000D01*
X15875000Y-10337000D02*
X15925000Y-10287000D01*
X15875000Y-10237000D01*
X15825000Y-10287000D01*
X15875000Y-10337000D01*
X16129000Y-10337000D02*
X16179000Y-10287000D01*
X16129000Y-10237000D01*
X16079000Y-10287000D01*
X16129000Y-10337000D01*
X16383000Y-10337000D02*
X16433000Y-10287000D01*
X16383000Y-10237000D01*
X16333000Y-10287000D01*
X16383000Y-10337000D01*
X16637000Y-10337000D02*
X16687000Y-10287000D01*
X16637000Y-10237000D01*
X16587000Y-10287000D01*
X16637000Y-10337000D01*
X16891000Y-10337000D02*
X16941000Y-10287000D01*
X16891000Y-10237000D01*
X16841000Y-10287000D01*
X16891000Y-10337000D01*
X17145000Y-10337000D02*
X17195000Y-10287000D01*
X17145000Y-10237000D01*
X17095000Y-10287000D01*
X17145000Y-10337000D01*
X14351000Y-8305000D02*
X14401000Y-8255000D01*
X14351000Y-8205000D01*
X14301000Y-8255000D01*
X14351000Y-8305000D01*
X14605000Y-8305000D02*
X14655000Y-8255000D01*
X14605000Y-8205000D01*
X14555000Y-8255000D01*
X14605000Y-8305000D01*
X14859000Y-8305000D02*
X14909000Y-8255000D01*
X14859000Y-8205000D01*
X14809000Y-8255000D01*
X14859000Y-8305000D01*
X15113000Y-8305000D02*
X15163000Y-8255000D01*
X15113000Y-8205000D01*
X15063000Y-8255000D01*
X15113000Y-8305000D01*
X15367000Y-8305000D02*
X15417000Y-8255000D01*
X15367000Y-8205000D01*
X15317000Y-8255000D01*
X15367000Y-8305000D01*
X15621000Y-8305000D02*
X15671000Y-8255000D01*
X15621000Y-8205000D01*
X15571000Y-8255000D01*
X15621000Y-8305000D01*
X15875000Y-8305000D02*
X15925000Y-8255000D01*
X15875000Y-8205000D01*
X15825000Y-8255000D01*
X15875000Y-8305000D01*
X16129000Y-8305000D02*
X16179000Y-8255000D01*
X16129000Y-8205000D01*
X16079000Y-8255000D01*
X16129000Y-8305000D01*
X16383000Y-8305000D02*
X16433000Y-8255000D01*
X16383000Y-8205000D01*
X16333000Y-8255000D01*
X16383000Y-8305000D01*
X16637000Y-8305000D02*
X16687000Y-8255000D01*
X16637000Y-8205000D01*
X16587000Y-8255000D01*
X16637000Y-8305000D01*
X16891000Y-8305000D02*
X16941000Y-8255000D01*
X16891000Y-8205000D01*
X16841000Y-8255000D01*
X16891000Y-8305000D01*
X17145000Y-8305000D02*
X17195000Y-8255000D01*
X17145000Y-8205000D01*
X17095000Y-8255000D01*
X17145000Y-8305000D01*
X12829000Y-8257000D02*
X13079000Y-8507000D01*
X13079000Y-8257000D02*
X12829000Y-8507000D01*
X13079000Y-8382000D02*
G75*
G03*
X13079000Y-8382000I-125000J0D01*
G01*
X12829000Y-10035000D02*
X13079000Y-10285000D01*
X13079000Y-10035000D02*
X12829000Y-10285000D01*
X13079000Y-10160000D02*
G75*
G03*
X13079000Y-10160000I-125000J0D01*
G01*
D12*
X12813828Y-10887214D02*
X12813828Y-10587214D01*
X12885257Y-10587214D01*
X12928114Y-10601500D01*
X12956686Y-10630072D01*
X12970971Y-10658643D01*
X12985257Y-10715786D01*
X12985257Y-10758643D01*
X12970971Y-10815786D01*
X12956686Y-10844357D01*
X12928114Y-10872929D01*
X12885257Y-10887214D01*
X12813828Y-10887214D01*
X13113828Y-10887214D02*
X13113828Y-10687214D01*
X13113828Y-10744357D02*
X13128114Y-10715786D01*
X13142400Y-10701500D01*
X13170971Y-10687214D01*
X13199543Y-10687214D01*
X13299543Y-10887214D02*
X13299543Y-10687214D01*
X13299543Y-10587214D02*
X13285257Y-10601500D01*
X13299543Y-10615786D01*
X13313828Y-10601500D01*
X13299543Y-10587214D01*
X13299543Y-10615786D01*
X13485257Y-10887214D02*
X13456686Y-10872929D01*
X13442400Y-10844357D01*
X13442400Y-10587214D01*
X13642400Y-10887214D02*
X13613828Y-10872929D01*
X13599543Y-10844357D01*
X13599543Y-10587214D01*
X13985257Y-10887214D02*
X13985257Y-10587214D01*
X14085257Y-10801500D01*
X14185257Y-10587214D01*
X14185257Y-10887214D01*
X14456686Y-10887214D02*
X14456686Y-10730072D01*
X14442400Y-10701500D01*
X14413828Y-10687214D01*
X14356686Y-10687214D01*
X14328114Y-10701500D01*
X14456686Y-10872929D02*
X14428114Y-10887214D01*
X14356686Y-10887214D01*
X14328114Y-10872929D01*
X14313828Y-10844357D01*
X14313828Y-10815786D01*
X14328114Y-10787214D01*
X14356686Y-10772929D01*
X14428114Y-10772929D01*
X14456686Y-10758643D01*
X14599543Y-10687214D02*
X14599543Y-10987214D01*
X14599543Y-10701500D02*
X14628114Y-10687214D01*
X14685257Y-10687214D01*
X14713828Y-10701500D01*
X14728114Y-10715786D01*
X14742400Y-10744357D01*
X14742400Y-10830072D01*
X14728114Y-10858643D01*
X14713828Y-10872929D01*
X14685257Y-10887214D01*
X14628114Y-10887214D01*
X14599543Y-10872929D01*
X14870971Y-10858643D02*
X14885257Y-10872929D01*
X14870971Y-10887214D01*
X14856686Y-10872929D01*
X14870971Y-10858643D01*
X14870971Y-10887214D01*
X14870971Y-10701500D02*
X14885257Y-10715786D01*
X14870971Y-10730072D01*
X14856686Y-10715786D01*
X14870971Y-10701500D01*
X14870971Y-10730072D01*
X12507400Y-11371500D02*
X12527400Y-11391500D01*
X12527400Y-11371500D02*
X12507400Y-11391500D01*
X12870971Y-11217214D02*
X12899543Y-11217214D01*
X12928114Y-11231500D01*
X12942400Y-11245786D01*
X12956686Y-11274357D01*
X12970971Y-11331500D01*
X12970971Y-11402929D01*
X12956686Y-11460071D01*
X12942400Y-11488643D01*
X12928114Y-11502929D01*
X12899543Y-11517214D01*
X12870971Y-11517214D01*
X12842400Y-11502929D01*
X12828114Y-11488643D01*
X12813828Y-11460071D01*
X12799543Y-11402929D01*
X12799543Y-11331500D01*
X12813828Y-11274357D01*
X12828114Y-11245786D01*
X12842400Y-11231500D01*
X12870971Y-11217214D01*
X13099543Y-11488643D02*
X13113828Y-11502929D01*
X13099543Y-11517214D01*
X13085257Y-11502929D01*
X13099543Y-11488643D01*
X13099543Y-11517214D01*
X13228114Y-11245786D02*
X13242400Y-11231500D01*
X13270971Y-11217214D01*
X13342400Y-11217214D01*
X13370971Y-11231500D01*
X13385257Y-11245786D01*
X13399543Y-11274357D01*
X13399543Y-11302929D01*
X13385257Y-11345786D01*
X13213828Y-11517214D01*
X13399543Y-11517214D01*
X13585257Y-11217214D02*
X13613828Y-11217214D01*
X13642400Y-11231500D01*
X13656686Y-11245786D01*
X13670971Y-11274357D01*
X13685257Y-11331500D01*
X13685257Y-11402929D01*
X13670971Y-11460071D01*
X13656686Y-11488643D01*
X13642400Y-11502929D01*
X13613828Y-11517214D01*
X13585257Y-11517214D01*
X13556686Y-11502929D01*
X13542400Y-11488643D01*
X13528114Y-11460071D01*
X13513828Y-11402929D01*
X13513828Y-11331500D01*
X13528114Y-11274357D01*
X13542400Y-11245786D01*
X13556686Y-11231500D01*
X13585257Y-11217214D01*
X13813828Y-11517214D02*
X13813828Y-11317214D01*
X13813828Y-11345786D02*
X13828114Y-11331500D01*
X13856686Y-11317214D01*
X13899543Y-11317214D01*
X13928114Y-11331500D01*
X13942400Y-11360071D01*
X13942400Y-11517214D01*
X13942400Y-11360071D02*
X13956686Y-11331500D01*
X13985257Y-11317214D01*
X14028114Y-11317214D01*
X14056686Y-11331500D01*
X14070971Y-11360071D01*
X14070971Y-11517214D01*
X14213828Y-11517214D02*
X14213828Y-11317214D01*
X14213828Y-11345786D02*
X14228114Y-11331500D01*
X14256686Y-11317214D01*
X14299543Y-11317214D01*
X14328114Y-11331500D01*
X14342400Y-11360071D01*
X14342400Y-11517214D01*
X14342400Y-11360071D02*
X14356686Y-11331500D01*
X14385257Y-11317214D01*
X14428114Y-11317214D01*
X14456686Y-11331500D01*
X14470971Y-11360071D01*
X14470971Y-11517214D01*
X15056686Y-11202929D02*
X14799543Y-11588643D01*
X15442400Y-11217214D02*
X15470971Y-11217214D01*
X15499543Y-11231500D01*
X15513828Y-11245786D01*
X15528114Y-11274357D01*
X15542400Y-11331500D01*
X15542400Y-11402929D01*
X15528114Y-11460071D01*
X15513828Y-11488643D01*
X15499543Y-11502929D01*
X15470971Y-11517214D01*
X15442400Y-11517214D01*
X15413828Y-11502929D01*
X15399543Y-11488643D01*
X15385257Y-11460071D01*
X15370971Y-11402929D01*
X15370971Y-11331500D01*
X15385257Y-11274357D01*
X15399543Y-11245786D01*
X15413828Y-11231500D01*
X15442400Y-11217214D01*
X15670971Y-11488643D02*
X15685257Y-11502929D01*
X15670971Y-11517214D01*
X15656686Y-11502929D01*
X15670971Y-11488643D01*
X15670971Y-11517214D01*
X15870971Y-11217214D02*
X15899543Y-11217214D01*
X15928114Y-11231500D01*
X15942400Y-11245786D01*
X15956686Y-11274357D01*
X15970971Y-11331500D01*
X15970971Y-11402929D01*
X15956686Y-11460071D01*
X15942400Y-11488643D01*
X15928114Y-11502929D01*
X15899543Y-11517214D01*
X15870971Y-11517214D01*
X15842400Y-11502929D01*
X15828114Y-11488643D01*
X15813828Y-11460071D01*
X15799543Y-11402929D01*
X15799543Y-11331500D01*
X15813828Y-11274357D01*
X15828114Y-11245786D01*
X15842400Y-11231500D01*
X15870971Y-11217214D01*
X16156686Y-11217214D02*
X16185257Y-11217214D01*
X16213828Y-11231500D01*
X16228114Y-11245786D01*
X16242400Y-11274357D01*
X16256686Y-11331500D01*
X16256686Y-11402929D01*
X16242400Y-11460071D01*
X16228114Y-11488643D01*
X16213828Y-11502929D01*
X16185257Y-11517214D01*
X16156686Y-11517214D01*
X16128114Y-11502929D01*
X16113828Y-11488643D01*
X16099543Y-11460071D01*
X16085257Y-11402929D01*
X16085257Y-11331500D01*
X16099543Y-11274357D01*
X16113828Y-11245786D01*
X16128114Y-11231500D01*
X16156686Y-11217214D01*
X16428114Y-11345786D02*
X16399543Y-11331500D01*
X16385257Y-11317214D01*
X16370971Y-11288643D01*
X16370971Y-11274357D01*
X16385257Y-11245786D01*
X16399543Y-11231500D01*
X16428114Y-11217214D01*
X16485257Y-11217214D01*
X16513828Y-11231500D01*
X16528114Y-11245786D01*
X16542400Y-11274357D01*
X16542400Y-11288643D01*
X16528114Y-11317214D01*
X16513828Y-11331500D01*
X16485257Y-11345786D01*
X16428114Y-11345786D01*
X16399543Y-11360071D01*
X16385257Y-11374357D01*
X16370971Y-11402929D01*
X16370971Y-11460071D01*
X16385257Y-11488643D01*
X16399543Y-11502929D01*
X16428114Y-11517214D01*
X16485257Y-11517214D01*
X16513828Y-11502929D01*
X16528114Y-11488643D01*
X16542400Y-11460071D01*
X16542400Y-11402929D01*
X16528114Y-11374357D01*
X16513828Y-11360071D01*
X16485257Y-11345786D01*
X16656686Y-11217214D02*
X16656686Y-11274357D01*
X16770971Y-11217214D02*
X16770971Y-11274357D01*
X17213828Y-11631500D02*
X17199543Y-11617214D01*
X17170971Y-11574357D01*
X17156686Y-11545786D01*
X17142400Y-11502929D01*
X17128114Y-11431500D01*
X17128114Y-11374357D01*
X17142400Y-11302929D01*
X17156686Y-11260071D01*
X17170971Y-11231500D01*
X17199543Y-11188643D01*
X17213828Y-11174357D01*
X17485257Y-11517214D02*
X17313828Y-11517214D01*
X17399543Y-11517214D02*
X17399543Y-11217214D01*
X17370971Y-11260071D01*
X17342400Y-11288643D01*
X17313828Y-11302929D01*
X17770971Y-11517214D02*
X17599543Y-11517214D01*
X17685257Y-11517214D02*
X17685257Y-11217214D01*
X17656686Y-11260071D01*
X17628114Y-11288643D01*
X17599543Y-11302929D01*
X18128114Y-11517214D02*
X18128114Y-11217214D01*
X18256686Y-11517214D02*
X18256686Y-11360071D01*
X18242400Y-11331500D01*
X18213828Y-11317214D01*
X18170971Y-11317214D01*
X18142400Y-11331500D01*
X18128114Y-11345786D01*
X18442400Y-11517214D02*
X18413828Y-11502929D01*
X18399543Y-11488643D01*
X18385257Y-11460071D01*
X18385257Y-11374357D01*
X18399543Y-11345786D01*
X18413828Y-11331500D01*
X18442400Y-11317214D01*
X18485257Y-11317214D01*
X18513828Y-11331500D01*
X18528114Y-11345786D01*
X18542400Y-11374357D01*
X18542400Y-11460071D01*
X18528114Y-11488643D01*
X18513828Y-11502929D01*
X18485257Y-11517214D01*
X18442400Y-11517214D01*
X18713828Y-11517214D02*
X18685257Y-11502929D01*
X18670971Y-11474357D01*
X18670971Y-11217214D01*
X18942400Y-11502929D02*
X18913828Y-11517214D01*
X18856686Y-11517214D01*
X18828114Y-11502929D01*
X18813828Y-11474357D01*
X18813828Y-11360071D01*
X18828114Y-11331500D01*
X18856686Y-11317214D01*
X18913828Y-11317214D01*
X18942400Y-11331500D01*
X18956686Y-11360071D01*
X18956686Y-11388643D01*
X18813828Y-11417214D01*
X19070971Y-11502929D02*
X19099543Y-11517214D01*
X19156686Y-11517214D01*
X19185257Y-11502929D01*
X19199543Y-11474357D01*
X19199543Y-11460071D01*
X19185257Y-11431500D01*
X19156686Y-11417214D01*
X19113828Y-11417214D01*
X19085257Y-11402929D01*
X19070971Y-11374357D01*
X19070971Y-11360071D01*
X19085257Y-11331500D01*
X19113828Y-11317214D01*
X19156686Y-11317214D01*
X19185257Y-11331500D01*
X19299543Y-11631500D02*
X19313828Y-11617214D01*
X19342400Y-11574357D01*
X19356686Y-11545786D01*
X19370971Y-11502929D01*
X19385257Y-11431500D01*
X19385257Y-11374357D01*
X19370971Y-11302929D01*
X19356686Y-11260071D01*
X19342400Y-11231500D01*
X19313828Y-11188643D01*
X19299543Y-11174357D01*
X12527400Y-11777500D02*
G75*
G03*
X12527400Y-11777500I-15000J0D01*
G01*
X12870971Y-11613214D02*
X12899543Y-11613214D01*
X12928114Y-11627500D01*
X12942400Y-11641786D01*
X12956686Y-11670357D01*
X12970971Y-11727500D01*
X12970971Y-11798929D01*
X12956686Y-11856071D01*
X12942400Y-11884643D01*
X12928114Y-11898929D01*
X12899543Y-11913214D01*
X12870971Y-11913214D01*
X12842400Y-11898929D01*
X12828114Y-11884643D01*
X12813828Y-11856071D01*
X12799543Y-11798929D01*
X12799543Y-11727500D01*
X12813828Y-11670357D01*
X12828114Y-11641786D01*
X12842400Y-11627500D01*
X12870971Y-11613214D01*
X13099543Y-11884643D02*
X13113828Y-11898929D01*
X13099543Y-11913214D01*
X13085257Y-11898929D01*
X13099543Y-11884643D01*
X13099543Y-11913214D01*
X13213828Y-11613214D02*
X13399543Y-11613214D01*
X13299543Y-11727500D01*
X13342400Y-11727500D01*
X13370971Y-11741786D01*
X13385257Y-11756071D01*
X13399543Y-11784643D01*
X13399543Y-11856071D01*
X13385257Y-11884643D01*
X13370971Y-11898929D01*
X13342400Y-11913214D01*
X13256686Y-11913214D01*
X13228114Y-11898929D01*
X13213828Y-11884643D01*
X13585257Y-11613214D02*
X13613828Y-11613214D01*
X13642400Y-11627500D01*
X13656686Y-11641786D01*
X13670971Y-11670357D01*
X13685257Y-11727500D01*
X13685257Y-11798929D01*
X13670971Y-11856071D01*
X13656686Y-11884643D01*
X13642400Y-11898929D01*
X13613828Y-11913214D01*
X13585257Y-11913214D01*
X13556686Y-11898929D01*
X13542400Y-11884643D01*
X13528114Y-11856071D01*
X13513828Y-11798929D01*
X13513828Y-11727500D01*
X13528114Y-11670357D01*
X13542400Y-11641786D01*
X13556686Y-11627500D01*
X13585257Y-11613214D01*
X13813828Y-11913214D02*
X13813828Y-11713214D01*
X13813828Y-11741786D02*
X13828114Y-11727500D01*
X13856686Y-11713214D01*
X13899543Y-11713214D01*
X13928114Y-11727500D01*
X13942400Y-11756071D01*
X13942400Y-11913214D01*
X13942400Y-11756071D02*
X13956686Y-11727500D01*
X13985257Y-11713214D01*
X14028114Y-11713214D01*
X14056686Y-11727500D01*
X14070971Y-11756071D01*
X14070971Y-11913214D01*
X14213828Y-11913214D02*
X14213828Y-11713214D01*
X14213828Y-11741786D02*
X14228114Y-11727500D01*
X14256686Y-11713214D01*
X14299543Y-11713214D01*
X14328114Y-11727500D01*
X14342400Y-11756071D01*
X14342400Y-11913214D01*
X14342400Y-11756071D02*
X14356686Y-11727500D01*
X14385257Y-11713214D01*
X14428114Y-11713214D01*
X14456686Y-11727500D01*
X14470971Y-11756071D01*
X14470971Y-11913214D01*
X15056686Y-11598929D02*
X14799543Y-11984643D01*
X15442400Y-11613214D02*
X15470971Y-11613214D01*
X15499543Y-11627500D01*
X15513828Y-11641786D01*
X15528114Y-11670357D01*
X15542400Y-11727500D01*
X15542400Y-11798929D01*
X15528114Y-11856071D01*
X15513828Y-11884643D01*
X15499543Y-11898929D01*
X15470971Y-11913214D01*
X15442400Y-11913214D01*
X15413828Y-11898929D01*
X15399543Y-11884643D01*
X15385257Y-11856071D01*
X15370971Y-11798929D01*
X15370971Y-11727500D01*
X15385257Y-11670357D01*
X15399543Y-11641786D01*
X15413828Y-11627500D01*
X15442400Y-11613214D01*
X15670971Y-11884643D02*
X15685257Y-11898929D01*
X15670971Y-11913214D01*
X15656686Y-11898929D01*
X15670971Y-11884643D01*
X15670971Y-11913214D01*
X15870971Y-11613214D02*
X15899543Y-11613214D01*
X15928114Y-11627500D01*
X15942400Y-11641786D01*
X15956686Y-11670357D01*
X15970971Y-11727500D01*
X15970971Y-11798929D01*
X15956686Y-11856071D01*
X15942400Y-11884643D01*
X15928114Y-11898929D01*
X15899543Y-11913214D01*
X15870971Y-11913214D01*
X15842400Y-11898929D01*
X15828114Y-11884643D01*
X15813828Y-11856071D01*
X15799543Y-11798929D01*
X15799543Y-11727500D01*
X15813828Y-11670357D01*
X15828114Y-11641786D01*
X15842400Y-11627500D01*
X15870971Y-11613214D01*
X16256686Y-11913214D02*
X16085257Y-11913214D01*
X16170971Y-11913214D02*
X16170971Y-11613214D01*
X16142400Y-11656071D01*
X16113828Y-11684643D01*
X16085257Y-11698929D01*
X16370971Y-11641786D02*
X16385257Y-11627500D01*
X16413828Y-11613214D01*
X16485257Y-11613214D01*
X16513828Y-11627500D01*
X16528114Y-11641786D01*
X16542400Y-11670357D01*
X16542400Y-11698929D01*
X16528114Y-11741786D01*
X16356686Y-11913214D01*
X16542400Y-11913214D01*
X16656686Y-11613214D02*
X16656686Y-11670357D01*
X16770971Y-11613214D02*
X16770971Y-11670357D01*
X17213828Y-12027500D02*
X17199543Y-12013214D01*
X17170971Y-11970357D01*
X17156686Y-11941786D01*
X17142400Y-11898929D01*
X17128114Y-11827500D01*
X17128114Y-11770357D01*
X17142400Y-11698929D01*
X17156686Y-11656071D01*
X17170971Y-11627500D01*
X17199543Y-11584643D01*
X17213828Y-11570357D01*
X17299543Y-11613214D02*
X17485257Y-11613214D01*
X17385257Y-11727500D01*
X17428114Y-11727500D01*
X17456686Y-11741786D01*
X17470971Y-11756071D01*
X17485257Y-11784643D01*
X17485257Y-11856071D01*
X17470971Y-11884643D01*
X17456686Y-11898929D01*
X17428114Y-11913214D01*
X17342400Y-11913214D01*
X17313828Y-11898929D01*
X17299543Y-11884643D01*
X17585257Y-11613214D02*
X17770971Y-11613214D01*
X17670971Y-11727500D01*
X17713828Y-11727500D01*
X17742400Y-11741786D01*
X17756686Y-11756071D01*
X17770971Y-11784643D01*
X17770971Y-11856071D01*
X17756686Y-11884643D01*
X17742400Y-11898929D01*
X17713828Y-11913214D01*
X17628114Y-11913214D01*
X17599543Y-11898929D01*
X17585257Y-11884643D01*
X18128114Y-11913214D02*
X18128114Y-11613214D01*
X18256686Y-11913214D02*
X18256686Y-11756071D01*
X18242400Y-11727500D01*
X18213828Y-11713214D01*
X18170971Y-11713214D01*
X18142400Y-11727500D01*
X18128114Y-11741786D01*
X18442400Y-11913214D02*
X18413828Y-11898929D01*
X18399543Y-11884643D01*
X18385257Y-11856071D01*
X18385257Y-11770357D01*
X18399543Y-11741786D01*
X18413828Y-11727500D01*
X18442400Y-11713214D01*
X18485257Y-11713214D01*
X18513828Y-11727500D01*
X18528114Y-11741786D01*
X18542400Y-11770357D01*
X18542400Y-11856071D01*
X18528114Y-11884643D01*
X18513828Y-11898929D01*
X18485257Y-11913214D01*
X18442400Y-11913214D01*
X18713828Y-11913214D02*
X18685257Y-11898929D01*
X18670971Y-11870357D01*
X18670971Y-11613214D01*
X18942400Y-11898929D02*
X18913828Y-11913214D01*
X18856686Y-11913214D01*
X18828114Y-11898929D01*
X18813828Y-11870357D01*
X18813828Y-11756071D01*
X18828114Y-11727500D01*
X18856686Y-11713214D01*
X18913828Y-11713214D01*
X18942400Y-11727500D01*
X18956686Y-11756071D01*
X18956686Y-11784643D01*
X18813828Y-11813214D01*
X19070971Y-11898929D02*
X19099543Y-11913214D01*
X19156686Y-11913214D01*
X19185257Y-11898929D01*
X19199543Y-11870357D01*
X19199543Y-11856071D01*
X19185257Y-11827500D01*
X19156686Y-11813214D01*
X19113828Y-11813214D01*
X19085257Y-11798929D01*
X19070971Y-11770357D01*
X19070971Y-11756071D01*
X19085257Y-11727500D01*
X19113828Y-11713214D01*
X19156686Y-11713214D01*
X19185257Y-11727500D01*
X19299543Y-12027500D02*
X19313828Y-12013214D01*
X19342400Y-11970357D01*
X19356686Y-11941786D01*
X19370971Y-11898929D01*
X19385257Y-11827500D01*
X19385257Y-11770357D01*
X19370971Y-11698929D01*
X19356686Y-11656071D01*
X19342400Y-11627500D01*
X19313828Y-11584643D01*
X19299543Y-11570357D01*
X12507400Y-12153500D02*
X12507400Y-12193500D01*
X12487400Y-12173500D02*
X12527400Y-12173500D01*
X12870971Y-12009214D02*
X12899543Y-12009214D01*
X12928114Y-12023500D01*
X12942400Y-12037786D01*
X12956686Y-12066357D01*
X12970971Y-12123500D01*
X12970971Y-12194929D01*
X12956686Y-12252071D01*
X12942400Y-12280643D01*
X12928114Y-12294929D01*
X12899543Y-12309214D01*
X12870971Y-12309214D01*
X12842400Y-12294929D01*
X12828114Y-12280643D01*
X12813828Y-12252071D01*
X12799543Y-12194929D01*
X12799543Y-12123500D01*
X12813828Y-12066357D01*
X12828114Y-12037786D01*
X12842400Y-12023500D01*
X12870971Y-12009214D01*
X13099543Y-12280643D02*
X13113828Y-12294929D01*
X13099543Y-12309214D01*
X13085257Y-12294929D01*
X13099543Y-12280643D01*
X13099543Y-12309214D01*
X13370971Y-12109214D02*
X13370971Y-12309214D01*
X13299543Y-11994929D02*
X13228114Y-12209214D01*
X13413828Y-12209214D01*
X13585257Y-12009214D02*
X13613828Y-12009214D01*
X13642400Y-12023500D01*
X13656686Y-12037786D01*
X13670971Y-12066357D01*
X13685257Y-12123500D01*
X13685257Y-12194929D01*
X13670971Y-12252071D01*
X13656686Y-12280643D01*
X13642400Y-12294929D01*
X13613828Y-12309214D01*
X13585257Y-12309214D01*
X13556686Y-12294929D01*
X13542400Y-12280643D01*
X13528114Y-12252071D01*
X13513828Y-12194929D01*
X13513828Y-12123500D01*
X13528114Y-12066357D01*
X13542400Y-12037786D01*
X13556686Y-12023500D01*
X13585257Y-12009214D01*
X13813828Y-12309214D02*
X13813828Y-12109214D01*
X13813828Y-12137786D02*
X13828114Y-12123500D01*
X13856686Y-12109214D01*
X13899543Y-12109214D01*
X13928114Y-12123500D01*
X13942400Y-12152071D01*
X13942400Y-12309214D01*
X13942400Y-12152071D02*
X13956686Y-12123500D01*
X13985257Y-12109214D01*
X14028114Y-12109214D01*
X14056686Y-12123500D01*
X14070971Y-12152071D01*
X14070971Y-12309214D01*
X14213828Y-12309214D02*
X14213828Y-12109214D01*
X14213828Y-12137786D02*
X14228114Y-12123500D01*
X14256686Y-12109214D01*
X14299543Y-12109214D01*
X14328114Y-12123500D01*
X14342400Y-12152071D01*
X14342400Y-12309214D01*
X14342400Y-12152071D02*
X14356686Y-12123500D01*
X14385257Y-12109214D01*
X14428114Y-12109214D01*
X14456686Y-12123500D01*
X14470971Y-12152071D01*
X14470971Y-12309214D01*
X15056686Y-11994929D02*
X14799543Y-12380643D01*
X15442400Y-12009214D02*
X15470971Y-12009214D01*
X15499543Y-12023500D01*
X15513828Y-12037786D01*
X15528114Y-12066357D01*
X15542400Y-12123500D01*
X15542400Y-12194929D01*
X15528114Y-12252071D01*
X15513828Y-12280643D01*
X15499543Y-12294929D01*
X15470971Y-12309214D01*
X15442400Y-12309214D01*
X15413828Y-12294929D01*
X15399543Y-12280643D01*
X15385257Y-12252071D01*
X15370971Y-12194929D01*
X15370971Y-12123500D01*
X15385257Y-12066357D01*
X15399543Y-12037786D01*
X15413828Y-12023500D01*
X15442400Y-12009214D01*
X15670971Y-12280643D02*
X15685257Y-12294929D01*
X15670971Y-12309214D01*
X15656686Y-12294929D01*
X15670971Y-12280643D01*
X15670971Y-12309214D01*
X15870971Y-12009214D02*
X15899543Y-12009214D01*
X15928114Y-12023500D01*
X15942400Y-12037786D01*
X15956686Y-12066357D01*
X15970971Y-12123500D01*
X15970971Y-12194929D01*
X15956686Y-12252071D01*
X15942400Y-12280643D01*
X15928114Y-12294929D01*
X15899543Y-12309214D01*
X15870971Y-12309214D01*
X15842400Y-12294929D01*
X15828114Y-12280643D01*
X15813828Y-12252071D01*
X15799543Y-12194929D01*
X15799543Y-12123500D01*
X15813828Y-12066357D01*
X15828114Y-12037786D01*
X15842400Y-12023500D01*
X15870971Y-12009214D01*
X16256686Y-12309214D02*
X16085257Y-12309214D01*
X16170971Y-12309214D02*
X16170971Y-12009214D01*
X16142400Y-12052071D01*
X16113828Y-12080643D01*
X16085257Y-12094929D01*
X16513828Y-12009214D02*
X16456686Y-12009214D01*
X16428114Y-12023500D01*
X16413828Y-12037786D01*
X16385257Y-12080643D01*
X16370971Y-12137786D01*
X16370971Y-12252071D01*
X16385257Y-12280643D01*
X16399543Y-12294929D01*
X16428114Y-12309214D01*
X16485257Y-12309214D01*
X16513828Y-12294929D01*
X16528114Y-12280643D01*
X16542400Y-12252071D01*
X16542400Y-12180643D01*
X16528114Y-12152071D01*
X16513828Y-12137786D01*
X16485257Y-12123500D01*
X16428114Y-12123500D01*
X16399543Y-12137786D01*
X16385257Y-12152071D01*
X16370971Y-12180643D01*
X16656686Y-12009214D02*
X16656686Y-12066357D01*
X16770971Y-12009214D02*
X16770971Y-12066357D01*
X17213828Y-12423500D02*
X17199543Y-12409214D01*
X17170971Y-12366357D01*
X17156686Y-12337786D01*
X17142400Y-12294929D01*
X17128114Y-12223500D01*
X17128114Y-12166357D01*
X17142400Y-12094929D01*
X17156686Y-12052071D01*
X17170971Y-12023500D01*
X17199543Y-11980643D01*
X17213828Y-11966357D01*
X17299543Y-12009214D02*
X17485257Y-12009214D01*
X17385257Y-12123500D01*
X17428114Y-12123500D01*
X17456686Y-12137786D01*
X17470971Y-12152071D01*
X17485257Y-12180643D01*
X17485257Y-12252071D01*
X17470971Y-12280643D01*
X17456686Y-12294929D01*
X17428114Y-12309214D01*
X17342400Y-12309214D01*
X17313828Y-12294929D01*
X17299543Y-12280643D01*
X17670971Y-12009214D02*
X17699543Y-12009214D01*
X17728114Y-12023500D01*
X17742400Y-12037786D01*
X17756686Y-12066357D01*
X17770971Y-12123500D01*
X17770971Y-12194929D01*
X17756686Y-12252071D01*
X17742400Y-12280643D01*
X17728114Y-12294929D01*
X17699543Y-12309214D01*
X17670971Y-12309214D01*
X17642400Y-12294929D01*
X17628114Y-12280643D01*
X17613828Y-12252071D01*
X17599543Y-12194929D01*
X17599543Y-12123500D01*
X17613828Y-12066357D01*
X17628114Y-12037786D01*
X17642400Y-12023500D01*
X17670971Y-12009214D01*
X18128114Y-12309214D02*
X18128114Y-12009214D01*
X18256686Y-12309214D02*
X18256686Y-12152071D01*
X18242400Y-12123500D01*
X18213828Y-12109214D01*
X18170971Y-12109214D01*
X18142400Y-12123500D01*
X18128114Y-12137786D01*
X18442400Y-12309214D02*
X18413828Y-12294929D01*
X18399543Y-12280643D01*
X18385257Y-12252071D01*
X18385257Y-12166357D01*
X18399543Y-12137786D01*
X18413828Y-12123500D01*
X18442400Y-12109214D01*
X18485257Y-12109214D01*
X18513828Y-12123500D01*
X18528114Y-12137786D01*
X18542400Y-12166357D01*
X18542400Y-12252071D01*
X18528114Y-12280643D01*
X18513828Y-12294929D01*
X18485257Y-12309214D01*
X18442400Y-12309214D01*
X18713828Y-12309214D02*
X18685257Y-12294929D01*
X18670971Y-12266357D01*
X18670971Y-12009214D01*
X18942400Y-12294929D02*
X18913828Y-12309214D01*
X18856686Y-12309214D01*
X18828114Y-12294929D01*
X18813828Y-12266357D01*
X18813828Y-12152071D01*
X18828114Y-12123500D01*
X18856686Y-12109214D01*
X18913828Y-12109214D01*
X18942400Y-12123500D01*
X18956686Y-12152071D01*
X18956686Y-12180643D01*
X18813828Y-12209214D01*
X19070971Y-12294929D02*
X19099543Y-12309214D01*
X19156686Y-12309214D01*
X19185257Y-12294929D01*
X19199543Y-12266357D01*
X19199543Y-12252071D01*
X19185257Y-12223500D01*
X19156686Y-12209214D01*
X19113828Y-12209214D01*
X19085257Y-12194929D01*
X19070971Y-12166357D01*
X19070971Y-12152071D01*
X19085257Y-12123500D01*
X19113828Y-12109214D01*
X19156686Y-12109214D01*
X19185257Y-12123500D01*
X19299543Y-12423500D02*
X19313828Y-12409214D01*
X19342400Y-12366357D01*
X19356686Y-12337786D01*
X19370971Y-12294929D01*
X19385257Y-12223500D01*
X19385257Y-12166357D01*
X19370971Y-12094929D01*
X19356686Y-12052071D01*
X19342400Y-12023500D01*
X19313828Y-11980643D01*
X19299543Y-11966357D01*
X12518613Y-12590713D02*
X12518613Y-12548287D01*
X12476186Y-12548287D01*
X12476186Y-12590713D01*
X12518613Y-12590713D01*
X12870971Y-12405214D02*
X12899543Y-12405214D01*
X12928114Y-12419500D01*
X12942400Y-12433786D01*
X12956686Y-12462357D01*
X12970971Y-12519500D01*
X12970971Y-12590929D01*
X12956686Y-12648071D01*
X12942400Y-12676643D01*
X12928114Y-12690929D01*
X12899543Y-12705214D01*
X12870971Y-12705214D01*
X12842400Y-12690929D01*
X12828114Y-12676643D01*
X12813828Y-12648071D01*
X12799543Y-12590929D01*
X12799543Y-12519500D01*
X12813828Y-12462357D01*
X12828114Y-12433786D01*
X12842400Y-12419500D01*
X12870971Y-12405214D01*
X13099543Y-12676643D02*
X13113828Y-12690929D01*
X13099543Y-12705214D01*
X13085257Y-12690929D01*
X13099543Y-12676643D01*
X13099543Y-12705214D01*
X13370971Y-12405214D02*
X13313828Y-12405214D01*
X13285257Y-12419500D01*
X13270971Y-12433786D01*
X13242400Y-12476643D01*
X13228114Y-12533786D01*
X13228114Y-12648071D01*
X13242400Y-12676643D01*
X13256686Y-12690929D01*
X13285257Y-12705214D01*
X13342400Y-12705214D01*
X13370971Y-12690929D01*
X13385257Y-12676643D01*
X13399543Y-12648071D01*
X13399543Y-12576643D01*
X13385257Y-12548071D01*
X13370971Y-12533786D01*
X13342400Y-12519500D01*
X13285257Y-12519500D01*
X13256686Y-12533786D01*
X13242400Y-12548071D01*
X13228114Y-12576643D01*
X13585257Y-12405214D02*
X13613828Y-12405214D01*
X13642400Y-12419500D01*
X13656686Y-12433786D01*
X13670971Y-12462357D01*
X13685257Y-12519500D01*
X13685257Y-12590929D01*
X13670971Y-12648071D01*
X13656686Y-12676643D01*
X13642400Y-12690929D01*
X13613828Y-12705214D01*
X13585257Y-12705214D01*
X13556686Y-12690929D01*
X13542400Y-12676643D01*
X13528114Y-12648071D01*
X13513828Y-12590929D01*
X13513828Y-12519500D01*
X13528114Y-12462357D01*
X13542400Y-12433786D01*
X13556686Y-12419500D01*
X13585257Y-12405214D01*
X13813828Y-12705214D02*
X13813828Y-12505214D01*
X13813828Y-12533786D02*
X13828114Y-12519500D01*
X13856686Y-12505214D01*
X13899543Y-12505214D01*
X13928114Y-12519500D01*
X13942400Y-12548071D01*
X13942400Y-12705214D01*
X13942400Y-12548071D02*
X13956686Y-12519500D01*
X13985257Y-12505214D01*
X14028114Y-12505214D01*
X14056686Y-12519500D01*
X14070971Y-12548071D01*
X14070971Y-12705214D01*
X14213828Y-12705214D02*
X14213828Y-12505214D01*
X14213828Y-12533786D02*
X14228114Y-12519500D01*
X14256686Y-12505214D01*
X14299543Y-12505214D01*
X14328114Y-12519500D01*
X14342400Y-12548071D01*
X14342400Y-12705214D01*
X14342400Y-12548071D02*
X14356686Y-12519500D01*
X14385257Y-12505214D01*
X14428114Y-12505214D01*
X14456686Y-12519500D01*
X14470971Y-12548071D01*
X14470971Y-12705214D01*
X15056686Y-12390929D02*
X14799543Y-12776643D01*
X15442400Y-12405214D02*
X15470971Y-12405214D01*
X15499543Y-12419500D01*
X15513828Y-12433786D01*
X15528114Y-12462357D01*
X15542400Y-12519500D01*
X15542400Y-12590929D01*
X15528114Y-12648071D01*
X15513828Y-12676643D01*
X15499543Y-12690929D01*
X15470971Y-12705214D01*
X15442400Y-12705214D01*
X15413828Y-12690929D01*
X15399543Y-12676643D01*
X15385257Y-12648071D01*
X15370971Y-12590929D01*
X15370971Y-12519500D01*
X15385257Y-12462357D01*
X15399543Y-12433786D01*
X15413828Y-12419500D01*
X15442400Y-12405214D01*
X15670971Y-12676643D02*
X15685257Y-12690929D01*
X15670971Y-12705214D01*
X15656686Y-12690929D01*
X15670971Y-12676643D01*
X15670971Y-12705214D01*
X15870971Y-12405214D02*
X15899543Y-12405214D01*
X15928114Y-12419500D01*
X15942400Y-12433786D01*
X15956686Y-12462357D01*
X15970971Y-12519500D01*
X15970971Y-12590929D01*
X15956686Y-12648071D01*
X15942400Y-12676643D01*
X15928114Y-12690929D01*
X15899543Y-12705214D01*
X15870971Y-12705214D01*
X15842400Y-12690929D01*
X15828114Y-12676643D01*
X15813828Y-12648071D01*
X15799543Y-12590929D01*
X15799543Y-12519500D01*
X15813828Y-12462357D01*
X15828114Y-12433786D01*
X15842400Y-12419500D01*
X15870971Y-12405214D01*
X16085257Y-12433786D02*
X16099543Y-12419500D01*
X16128114Y-12405214D01*
X16199543Y-12405214D01*
X16228114Y-12419500D01*
X16242400Y-12433786D01*
X16256686Y-12462357D01*
X16256686Y-12490929D01*
X16242400Y-12533786D01*
X16070971Y-12705214D01*
X16256686Y-12705214D01*
X16513828Y-12505214D02*
X16513828Y-12705214D01*
X16442400Y-12390929D02*
X16370971Y-12605214D01*
X16556686Y-12605214D01*
X16656686Y-12405214D02*
X16656686Y-12462357D01*
X16770971Y-12405214D02*
X16770971Y-12462357D01*
X17213828Y-12819500D02*
X17199543Y-12805214D01*
X17170971Y-12762357D01*
X17156686Y-12733786D01*
X17142400Y-12690929D01*
X17128114Y-12619500D01*
X17128114Y-12562357D01*
X17142400Y-12490929D01*
X17156686Y-12448071D01*
X17170971Y-12419500D01*
X17199543Y-12376643D01*
X17213828Y-12362357D01*
X17385257Y-12405214D02*
X17413828Y-12405214D01*
X17442400Y-12419500D01*
X17456686Y-12433786D01*
X17470971Y-12462357D01*
X17485257Y-12519500D01*
X17485257Y-12590929D01*
X17470971Y-12648071D01*
X17456686Y-12676643D01*
X17442400Y-12690929D01*
X17413828Y-12705214D01*
X17385257Y-12705214D01*
X17356686Y-12690929D01*
X17342400Y-12676643D01*
X17328114Y-12648071D01*
X17313828Y-12590929D01*
X17313828Y-12519500D01*
X17328114Y-12462357D01*
X17342400Y-12433786D01*
X17356686Y-12419500D01*
X17385257Y-12405214D01*
X17842400Y-12705214D02*
X17842400Y-12405214D01*
X17970971Y-12705214D02*
X17970971Y-12548071D01*
X17956686Y-12519500D01*
X17928114Y-12505214D01*
X17885257Y-12505214D01*
X17856686Y-12519500D01*
X17842400Y-12533786D01*
X18156686Y-12705214D02*
X18128114Y-12690929D01*
X18113828Y-12676643D01*
X18099543Y-12648071D01*
X18099543Y-12562357D01*
X18113828Y-12533786D01*
X18128114Y-12519500D01*
X18156686Y-12505214D01*
X18199543Y-12505214D01*
X18228114Y-12519500D01*
X18242400Y-12533786D01*
X18256686Y-12562357D01*
X18256686Y-12648071D01*
X18242400Y-12676643D01*
X18228114Y-12690929D01*
X18199543Y-12705214D01*
X18156686Y-12705214D01*
X18428114Y-12705214D02*
X18399543Y-12690929D01*
X18385257Y-12662357D01*
X18385257Y-12405214D01*
X18656686Y-12690929D02*
X18628114Y-12705214D01*
X18570971Y-12705214D01*
X18542400Y-12690929D01*
X18528114Y-12662357D01*
X18528114Y-12548071D01*
X18542400Y-12519500D01*
X18570971Y-12505214D01*
X18628114Y-12505214D01*
X18656686Y-12519500D01*
X18670971Y-12548071D01*
X18670971Y-12576643D01*
X18528114Y-12605214D01*
X18785257Y-12690929D02*
X18813828Y-12705214D01*
X18870971Y-12705214D01*
X18899543Y-12690929D01*
X18913828Y-12662357D01*
X18913828Y-12648071D01*
X18899543Y-12619500D01*
X18870971Y-12605214D01*
X18828114Y-12605214D01*
X18799543Y-12590929D01*
X18785257Y-12562357D01*
X18785257Y-12548071D01*
X18799543Y-12519500D01*
X18828114Y-12505214D01*
X18870971Y-12505214D01*
X18899543Y-12519500D01*
X19270971Y-12590929D02*
X19499543Y-12590929D01*
X19385257Y-12705214D02*
X19385257Y-12476643D01*
X19999543Y-12505214D02*
X19999543Y-12705214D01*
X19928114Y-12390929D02*
X19856686Y-12605214D01*
X20042400Y-12605214D01*
X20370971Y-12690929D02*
X20399543Y-12705214D01*
X20456686Y-12705214D01*
X20485257Y-12690929D01*
X20499543Y-12662357D01*
X20499543Y-12648071D01*
X20485257Y-12619500D01*
X20456686Y-12605214D01*
X20413828Y-12605214D01*
X20385257Y-12590929D01*
X20370971Y-12562357D01*
X20370971Y-12548071D01*
X20385257Y-12519500D01*
X20413828Y-12505214D01*
X20456686Y-12505214D01*
X20485257Y-12519500D01*
X20670971Y-12705214D02*
X20642400Y-12690929D01*
X20628114Y-12662357D01*
X20628114Y-12405214D01*
X20828114Y-12705214D02*
X20799543Y-12690929D01*
X20785257Y-12676643D01*
X20770971Y-12648071D01*
X20770971Y-12562357D01*
X20785257Y-12533786D01*
X20799543Y-12519500D01*
X20828114Y-12505214D01*
X20870971Y-12505214D01*
X20899543Y-12519500D01*
X20913828Y-12533786D01*
X20928114Y-12562357D01*
X20928114Y-12648071D01*
X20913828Y-12676643D01*
X20899543Y-12690929D01*
X20870971Y-12705214D01*
X20828114Y-12705214D01*
X21013828Y-12505214D02*
X21128114Y-12505214D01*
X21056686Y-12405214D02*
X21056686Y-12662357D01*
X21070971Y-12690929D01*
X21099543Y-12705214D01*
X21128114Y-12705214D01*
X21213828Y-12690929D02*
X21242400Y-12705214D01*
X21299543Y-12705214D01*
X21328114Y-12690929D01*
X21342400Y-12662357D01*
X21342400Y-12648071D01*
X21328114Y-12619500D01*
X21299543Y-12605214D01*
X21256686Y-12605214D01*
X21228114Y-12590929D01*
X21213828Y-12562357D01*
X21213828Y-12548071D01*
X21228114Y-12519500D01*
X21256686Y-12505214D01*
X21299543Y-12505214D01*
X21328114Y-12519500D01*
X21442400Y-12819500D02*
X21456686Y-12805214D01*
X21485257Y-12762357D01*
X21499543Y-12733786D01*
X21513828Y-12690929D01*
X21528114Y-12619500D01*
X21528114Y-12562357D01*
X21513828Y-12490929D01*
X21499543Y-12448071D01*
X21485257Y-12419500D01*
X21456686Y-12376643D01*
X21442400Y-12362357D01*
X12477400Y-13015500D02*
X12527400Y-12965500D01*
X12477400Y-12915500D01*
X12427400Y-12965500D01*
X12477400Y-13015500D01*
X12970971Y-13101214D02*
X12799543Y-13101214D01*
X12885257Y-13101214D02*
X12885257Y-12801214D01*
X12856686Y-12844071D01*
X12828114Y-12872643D01*
X12799543Y-12886929D01*
X13099543Y-13072643D02*
X13113828Y-13086929D01*
X13099543Y-13101214D01*
X13085257Y-13086929D01*
X13099543Y-13072643D01*
X13099543Y-13101214D01*
X13299543Y-12801214D02*
X13328114Y-12801214D01*
X13356686Y-12815500D01*
X13370971Y-12829786D01*
X13385257Y-12858357D01*
X13399543Y-12915500D01*
X13399543Y-12986929D01*
X13385257Y-13044071D01*
X13370971Y-13072643D01*
X13356686Y-13086929D01*
X13328114Y-13101214D01*
X13299543Y-13101214D01*
X13270971Y-13086929D01*
X13256686Y-13072643D01*
X13242400Y-13044071D01*
X13228114Y-12986929D01*
X13228114Y-12915500D01*
X13242400Y-12858357D01*
X13256686Y-12829786D01*
X13270971Y-12815500D01*
X13299543Y-12801214D01*
X13585257Y-12801214D02*
X13613828Y-12801214D01*
X13642400Y-12815500D01*
X13656686Y-12829786D01*
X13670971Y-12858357D01*
X13685257Y-12915500D01*
X13685257Y-12986929D01*
X13670971Y-13044071D01*
X13656686Y-13072643D01*
X13642400Y-13086929D01*
X13613828Y-13101214D01*
X13585257Y-13101214D01*
X13556686Y-13086929D01*
X13542400Y-13072643D01*
X13528114Y-13044071D01*
X13513828Y-12986929D01*
X13513828Y-12915500D01*
X13528114Y-12858357D01*
X13542400Y-12829786D01*
X13556686Y-12815500D01*
X13585257Y-12801214D01*
X13813828Y-13101214D02*
X13813828Y-12901214D01*
X13813828Y-12929786D02*
X13828114Y-12915500D01*
X13856686Y-12901214D01*
X13899543Y-12901214D01*
X13928114Y-12915500D01*
X13942400Y-12944071D01*
X13942400Y-13101214D01*
X13942400Y-12944071D02*
X13956686Y-12915500D01*
X13985257Y-12901214D01*
X14028114Y-12901214D01*
X14056686Y-12915500D01*
X14070971Y-12944071D01*
X14070971Y-13101214D01*
X14213828Y-13101214D02*
X14213828Y-12901214D01*
X14213828Y-12929786D02*
X14228114Y-12915500D01*
X14256686Y-12901214D01*
X14299543Y-12901214D01*
X14328114Y-12915500D01*
X14342400Y-12944071D01*
X14342400Y-13101214D01*
X14342400Y-12944071D02*
X14356686Y-12915500D01*
X14385257Y-12901214D01*
X14428114Y-12901214D01*
X14456686Y-12915500D01*
X14470971Y-12944071D01*
X14470971Y-13101214D01*
X15056686Y-12786929D02*
X14799543Y-13172643D01*
X15442400Y-12801214D02*
X15470971Y-12801214D01*
X15499543Y-12815500D01*
X15513828Y-12829786D01*
X15528114Y-12858357D01*
X15542400Y-12915500D01*
X15542400Y-12986929D01*
X15528114Y-13044071D01*
X15513828Y-13072643D01*
X15499543Y-13086929D01*
X15470971Y-13101214D01*
X15442400Y-13101214D01*
X15413828Y-13086929D01*
X15399543Y-13072643D01*
X15385257Y-13044071D01*
X15370971Y-12986929D01*
X15370971Y-12915500D01*
X15385257Y-12858357D01*
X15399543Y-12829786D01*
X15413828Y-12815500D01*
X15442400Y-12801214D01*
X15670971Y-13072643D02*
X15685257Y-13086929D01*
X15670971Y-13101214D01*
X15656686Y-13086929D01*
X15670971Y-13072643D01*
X15670971Y-13101214D01*
X15870971Y-12801214D02*
X15899543Y-12801214D01*
X15928114Y-12815500D01*
X15942400Y-12829786D01*
X15956686Y-12858357D01*
X15970971Y-12915500D01*
X15970971Y-12986929D01*
X15956686Y-13044071D01*
X15942400Y-13072643D01*
X15928114Y-13086929D01*
X15899543Y-13101214D01*
X15870971Y-13101214D01*
X15842400Y-13086929D01*
X15828114Y-13072643D01*
X15813828Y-13044071D01*
X15799543Y-12986929D01*
X15799543Y-12915500D01*
X15813828Y-12858357D01*
X15828114Y-12829786D01*
X15842400Y-12815500D01*
X15870971Y-12801214D01*
X16070971Y-12801214D02*
X16256686Y-12801214D01*
X16156686Y-12915500D01*
X16199543Y-12915500D01*
X16228114Y-12929786D01*
X16242400Y-12944071D01*
X16256686Y-12972643D01*
X16256686Y-13044071D01*
X16242400Y-13072643D01*
X16228114Y-13086929D01*
X16199543Y-13101214D01*
X16113828Y-13101214D01*
X16085257Y-13086929D01*
X16070971Y-13072643D01*
X16399543Y-13101214D02*
X16456686Y-13101214D01*
X16485257Y-13086929D01*
X16499543Y-13072643D01*
X16528114Y-13029786D01*
X16542400Y-12972643D01*
X16542400Y-12858357D01*
X16528114Y-12829786D01*
X16513828Y-12815500D01*
X16485257Y-12801214D01*
X16428114Y-12801214D01*
X16399543Y-12815500D01*
X16385257Y-12829786D01*
X16370971Y-12858357D01*
X16370971Y-12929786D01*
X16385257Y-12958357D01*
X16399543Y-12972643D01*
X16428114Y-12986929D01*
X16485257Y-12986929D01*
X16513828Y-12972643D01*
X16528114Y-12958357D01*
X16542400Y-12929786D01*
X16656686Y-12801214D02*
X16656686Y-12858357D01*
X16770971Y-12801214D02*
X16770971Y-12858357D01*
X17213828Y-13215500D02*
X17199543Y-13201214D01*
X17170971Y-13158357D01*
X17156686Y-13129786D01*
X17142400Y-13086929D01*
X17128114Y-13015500D01*
X17128114Y-12958357D01*
X17142400Y-12886929D01*
X17156686Y-12844071D01*
X17170971Y-12815500D01*
X17199543Y-12772643D01*
X17213828Y-12758357D01*
X17313828Y-12829786D02*
X17328114Y-12815500D01*
X17356686Y-12801214D01*
X17428114Y-12801214D01*
X17456686Y-12815500D01*
X17470971Y-12829786D01*
X17485257Y-12858357D01*
X17485257Y-12886929D01*
X17470971Y-12929786D01*
X17299543Y-13101214D01*
X17485257Y-13101214D01*
X17656686Y-12929786D02*
X17628114Y-12915500D01*
X17613828Y-12901214D01*
X17599543Y-12872643D01*
X17599543Y-12858357D01*
X17613828Y-12829786D01*
X17628114Y-12815500D01*
X17656686Y-12801214D01*
X17713828Y-12801214D01*
X17742400Y-12815500D01*
X17756686Y-12829786D01*
X17770971Y-12858357D01*
X17770971Y-12872643D01*
X17756686Y-12901214D01*
X17742400Y-12915500D01*
X17713828Y-12929786D01*
X17656686Y-12929786D01*
X17628114Y-12944071D01*
X17613828Y-12958357D01*
X17599543Y-12986929D01*
X17599543Y-13044071D01*
X17613828Y-13072643D01*
X17628114Y-13086929D01*
X17656686Y-13101214D01*
X17713828Y-13101214D01*
X17742400Y-13086929D01*
X17756686Y-13072643D01*
X17770971Y-13044071D01*
X17770971Y-12986929D01*
X17756686Y-12958357D01*
X17742400Y-12944071D01*
X17713828Y-12929786D01*
X18128114Y-13101214D02*
X18128114Y-12801214D01*
X18256686Y-13101214D02*
X18256686Y-12944071D01*
X18242400Y-12915500D01*
X18213828Y-12901214D01*
X18170971Y-12901214D01*
X18142400Y-12915500D01*
X18128114Y-12929786D01*
X18442400Y-13101214D02*
X18413828Y-13086929D01*
X18399543Y-13072643D01*
X18385257Y-13044071D01*
X18385257Y-12958357D01*
X18399543Y-12929786D01*
X18413828Y-12915500D01*
X18442400Y-12901214D01*
X18485257Y-12901214D01*
X18513828Y-12915500D01*
X18528114Y-12929786D01*
X18542400Y-12958357D01*
X18542400Y-13044071D01*
X18528114Y-13072643D01*
X18513828Y-13086929D01*
X18485257Y-13101214D01*
X18442400Y-13101214D01*
X18713828Y-13101214D02*
X18685257Y-13086929D01*
X18670971Y-13058357D01*
X18670971Y-12801214D01*
X18942400Y-13086929D02*
X18913828Y-13101214D01*
X18856686Y-13101214D01*
X18828114Y-13086929D01*
X18813828Y-13058357D01*
X18813828Y-12944071D01*
X18828114Y-12915500D01*
X18856686Y-12901214D01*
X18913828Y-12901214D01*
X18942400Y-12915500D01*
X18956686Y-12944071D01*
X18956686Y-12972643D01*
X18813828Y-13001214D01*
X19070971Y-13086929D02*
X19099543Y-13101214D01*
X19156686Y-13101214D01*
X19185257Y-13086929D01*
X19199543Y-13058357D01*
X19199543Y-13044071D01*
X19185257Y-13015500D01*
X19156686Y-13001214D01*
X19113828Y-13001214D01*
X19085257Y-12986929D01*
X19070971Y-12958357D01*
X19070971Y-12944071D01*
X19085257Y-12915500D01*
X19113828Y-12901214D01*
X19156686Y-12901214D01*
X19185257Y-12915500D01*
X19299543Y-13215500D02*
X19313828Y-13201214D01*
X19342400Y-13158357D01*
X19356686Y-13129786D01*
X19370971Y-13086929D01*
X19385257Y-13015500D01*
X19385257Y-12958357D01*
X19370971Y-12886929D01*
X19356686Y-12844071D01*
X19342400Y-12815500D01*
X19313828Y-12772643D01*
X19299543Y-12758357D01*
X12277400Y-13236500D02*
X12527400Y-13486500D01*
X12527400Y-13236500D02*
X12277400Y-13486500D01*
X12527400Y-13361500D02*
G75*
G03*
X12527400Y-13361500I-125000J0D01*
G01*
X12799543Y-13225786D02*
X12813828Y-13211500D01*
X12842400Y-13197214D01*
X12913828Y-13197214D01*
X12942400Y-13211500D01*
X12956686Y-13225786D01*
X12970971Y-13254357D01*
X12970971Y-13282929D01*
X12956686Y-13325786D01*
X12785257Y-13497214D01*
X12970971Y-13497214D01*
X13099543Y-13468643D02*
X13113828Y-13482929D01*
X13099543Y-13497214D01*
X13085257Y-13482929D01*
X13099543Y-13468643D01*
X13099543Y-13497214D01*
X13385257Y-13197214D02*
X13242400Y-13197214D01*
X13228114Y-13340071D01*
X13242400Y-13325786D01*
X13270971Y-13311500D01*
X13342400Y-13311500D01*
X13370971Y-13325786D01*
X13385257Y-13340071D01*
X13399543Y-13368643D01*
X13399543Y-13440071D01*
X13385257Y-13468643D01*
X13370971Y-13482929D01*
X13342400Y-13497214D01*
X13270971Y-13497214D01*
X13242400Y-13482929D01*
X13228114Y-13468643D01*
X13585257Y-13197214D02*
X13613828Y-13197214D01*
X13642400Y-13211500D01*
X13656686Y-13225786D01*
X13670971Y-13254357D01*
X13685257Y-13311500D01*
X13685257Y-13382929D01*
X13670971Y-13440071D01*
X13656686Y-13468643D01*
X13642400Y-13482929D01*
X13613828Y-13497214D01*
X13585257Y-13497214D01*
X13556686Y-13482929D01*
X13542400Y-13468643D01*
X13528114Y-13440071D01*
X13513828Y-13382929D01*
X13513828Y-13311500D01*
X13528114Y-13254357D01*
X13542400Y-13225786D01*
X13556686Y-13211500D01*
X13585257Y-13197214D01*
X13813828Y-13497214D02*
X13813828Y-13297214D01*
X13813828Y-13325786D02*
X13828114Y-13311500D01*
X13856686Y-13297214D01*
X13899543Y-13297214D01*
X13928114Y-13311500D01*
X13942400Y-13340071D01*
X13942400Y-13497214D01*
X13942400Y-13340071D02*
X13956686Y-13311500D01*
X13985257Y-13297214D01*
X14028114Y-13297214D01*
X14056686Y-13311500D01*
X14070971Y-13340071D01*
X14070971Y-13497214D01*
X14213828Y-13497214D02*
X14213828Y-13297214D01*
X14213828Y-13325786D02*
X14228114Y-13311500D01*
X14256686Y-13297214D01*
X14299543Y-13297214D01*
X14328114Y-13311500D01*
X14342400Y-13340071D01*
X14342400Y-13497214D01*
X14342400Y-13340071D02*
X14356686Y-13311500D01*
X14385257Y-13297214D01*
X14428114Y-13297214D01*
X14456686Y-13311500D01*
X14470971Y-13340071D01*
X14470971Y-13497214D01*
X15056686Y-13182929D02*
X14799543Y-13568643D01*
X15442400Y-13197214D02*
X15470971Y-13197214D01*
X15499543Y-13211500D01*
X15513828Y-13225786D01*
X15528114Y-13254357D01*
X15542400Y-13311500D01*
X15542400Y-13382929D01*
X15528114Y-13440071D01*
X15513828Y-13468643D01*
X15499543Y-13482929D01*
X15470971Y-13497214D01*
X15442400Y-13497214D01*
X15413828Y-13482929D01*
X15399543Y-13468643D01*
X15385257Y-13440071D01*
X15370971Y-13382929D01*
X15370971Y-13311500D01*
X15385257Y-13254357D01*
X15399543Y-13225786D01*
X15413828Y-13211500D01*
X15442400Y-13197214D01*
X15670971Y-13468643D02*
X15685257Y-13482929D01*
X15670971Y-13497214D01*
X15656686Y-13482929D01*
X15670971Y-13468643D01*
X15670971Y-13497214D01*
X15870971Y-13197214D02*
X15899543Y-13197214D01*
X15928114Y-13211500D01*
X15942400Y-13225786D01*
X15956686Y-13254357D01*
X15970971Y-13311500D01*
X15970971Y-13382929D01*
X15956686Y-13440071D01*
X15942400Y-13468643D01*
X15928114Y-13482929D01*
X15899543Y-13497214D01*
X15870971Y-13497214D01*
X15842400Y-13482929D01*
X15828114Y-13468643D01*
X15813828Y-13440071D01*
X15799543Y-13382929D01*
X15799543Y-13311500D01*
X15813828Y-13254357D01*
X15828114Y-13225786D01*
X15842400Y-13211500D01*
X15870971Y-13197214D01*
X16113828Y-13497214D02*
X16170971Y-13497214D01*
X16199543Y-13482929D01*
X16213828Y-13468643D01*
X16242400Y-13425786D01*
X16256686Y-13368643D01*
X16256686Y-13254357D01*
X16242400Y-13225786D01*
X16228114Y-13211500D01*
X16199543Y-13197214D01*
X16142400Y-13197214D01*
X16113828Y-13211500D01*
X16099543Y-13225786D01*
X16085257Y-13254357D01*
X16085257Y-13325786D01*
X16099543Y-13354357D01*
X16113828Y-13368643D01*
X16142400Y-13382929D01*
X16199543Y-13382929D01*
X16228114Y-13368643D01*
X16242400Y-13354357D01*
X16256686Y-13325786D01*
X16428114Y-13325786D02*
X16399543Y-13311500D01*
X16385257Y-13297214D01*
X16370971Y-13268643D01*
X16370971Y-13254357D01*
X16385257Y-13225786D01*
X16399543Y-13211500D01*
X16428114Y-13197214D01*
X16485257Y-13197214D01*
X16513828Y-13211500D01*
X16528114Y-13225786D01*
X16542400Y-13254357D01*
X16542400Y-13268643D01*
X16528114Y-13297214D01*
X16513828Y-13311500D01*
X16485257Y-13325786D01*
X16428114Y-13325786D01*
X16399543Y-13340071D01*
X16385257Y-13354357D01*
X16370971Y-13382929D01*
X16370971Y-13440071D01*
X16385257Y-13468643D01*
X16399543Y-13482929D01*
X16428114Y-13497214D01*
X16485257Y-13497214D01*
X16513828Y-13482929D01*
X16528114Y-13468643D01*
X16542400Y-13440071D01*
X16542400Y-13382929D01*
X16528114Y-13354357D01*
X16513828Y-13340071D01*
X16485257Y-13325786D01*
X16656686Y-13197214D02*
X16656686Y-13254357D01*
X16770971Y-13197214D02*
X16770971Y-13254357D01*
X17213828Y-13611500D02*
X17199543Y-13597214D01*
X17170971Y-13554357D01*
X17156686Y-13525786D01*
X17142400Y-13482929D01*
X17128114Y-13411500D01*
X17128114Y-13354357D01*
X17142400Y-13282929D01*
X17156686Y-13240071D01*
X17170971Y-13211500D01*
X17199543Y-13168643D01*
X17213828Y-13154357D01*
X17313828Y-13225786D02*
X17328114Y-13211500D01*
X17356686Y-13197214D01*
X17428114Y-13197214D01*
X17456686Y-13211500D01*
X17470971Y-13225786D01*
X17485257Y-13254357D01*
X17485257Y-13282929D01*
X17470971Y-13325786D01*
X17299543Y-13497214D01*
X17485257Y-13497214D01*
X17842400Y-13497214D02*
X17842400Y-13197214D01*
X17970971Y-13497214D02*
X17970971Y-13340071D01*
X17956686Y-13311500D01*
X17928114Y-13297214D01*
X17885257Y-13297214D01*
X17856686Y-13311500D01*
X17842400Y-13325786D01*
X18156686Y-13497214D02*
X18128114Y-13482929D01*
X18113828Y-13468643D01*
X18099543Y-13440071D01*
X18099543Y-13354357D01*
X18113828Y-13325786D01*
X18128114Y-13311500D01*
X18156686Y-13297214D01*
X18199543Y-13297214D01*
X18228114Y-13311500D01*
X18242400Y-13325786D01*
X18256686Y-13354357D01*
X18256686Y-13440071D01*
X18242400Y-13468643D01*
X18228114Y-13482929D01*
X18199543Y-13497214D01*
X18156686Y-13497214D01*
X18428114Y-13497214D02*
X18399543Y-13482929D01*
X18385257Y-13454357D01*
X18385257Y-13197214D01*
X18656686Y-13482929D02*
X18628114Y-13497214D01*
X18570971Y-13497214D01*
X18542400Y-13482929D01*
X18528114Y-13454357D01*
X18528114Y-13340071D01*
X18542400Y-13311500D01*
X18570971Y-13297214D01*
X18628114Y-13297214D01*
X18656686Y-13311500D01*
X18670971Y-13340071D01*
X18670971Y-13368643D01*
X18528114Y-13397214D01*
X18785257Y-13482929D02*
X18813828Y-13497214D01*
X18870971Y-13497214D01*
X18899543Y-13482929D01*
X18913828Y-13454357D01*
X18913828Y-13440071D01*
X18899543Y-13411500D01*
X18870971Y-13397214D01*
X18828114Y-13397214D01*
X18799543Y-13382929D01*
X18785257Y-13354357D01*
X18785257Y-13340071D01*
X18799543Y-13311500D01*
X18828114Y-13297214D01*
X18870971Y-13297214D01*
X18899543Y-13311500D01*
X19013828Y-13611500D02*
X19028114Y-13597214D01*
X19056686Y-13554357D01*
X19070971Y-13525786D01*
X19085257Y-13482929D01*
X19099543Y-13411500D01*
X19099543Y-13354357D01*
X19085257Y-13282929D01*
X19070971Y-13240071D01*
X19056686Y-13211500D01*
X19028114Y-13168643D01*
X19013828Y-13154357D01*
M02*
