G04 #@! TF.GenerationSoftware,KiCad,Pcbnew,(5.1.7-0-10_14)*
G04 #@! TF.CreationDate,2020-10-21T09:18:26+08:00*
G04 #@! TF.ProjectId,Feather_STM32WB55,46656174-6865-4725-9f53-544d33325742,rev?*
G04 #@! TF.SameCoordinates,Original*
G04 #@! TF.FileFunction,Legend,Bot*
G04 #@! TF.FilePolarity,Positive*
%FSLAX46Y46*%
G04 Gerber Fmt 4.6, Leading zero omitted, Abs format (unit mm)*
G04 Created by KiCad (PCBNEW (5.1.7-0-10_14)) date 2020-10-21 09:18:26*
%MOMM*%
%LPD*%
G01*
G04 APERTURE LIST*
%ADD10C,0.120000*%
%ADD11C,0.300000*%
%ADD12C,0.010000*%
%ADD13C,0.150000*%
G04 APERTURE END LIST*
D10*
X158941421Y-96400000D02*
G75*
G03*
X158941421Y-96400000I-141421J0D01*
G01*
X149341421Y-96100000D02*
G75*
G03*
X149341421Y-96100000I-141421J0D01*
G01*
D11*
X162100000Y-86217857D02*
X162600000Y-86217857D01*
X162600000Y-87003571D02*
X162600000Y-85503571D01*
X161885714Y-85503571D01*
X160742857Y-86932142D02*
X160885714Y-87003571D01*
X161171428Y-87003571D01*
X161314285Y-86932142D01*
X161385714Y-86789285D01*
X161385714Y-86217857D01*
X161314285Y-86075000D01*
X161171428Y-86003571D01*
X160885714Y-86003571D01*
X160742857Y-86075000D01*
X160671428Y-86217857D01*
X160671428Y-86360714D01*
X161385714Y-86503571D01*
X159385714Y-87003571D02*
X159385714Y-86217857D01*
X159457142Y-86075000D01*
X159600000Y-86003571D01*
X159885714Y-86003571D01*
X160028571Y-86075000D01*
X159385714Y-86932142D02*
X159528571Y-87003571D01*
X159885714Y-87003571D01*
X160028571Y-86932142D01*
X160100000Y-86789285D01*
X160100000Y-86646428D01*
X160028571Y-86503571D01*
X159885714Y-86432142D01*
X159528571Y-86432142D01*
X159385714Y-86360714D01*
X158885714Y-86003571D02*
X158314285Y-86003571D01*
X158671428Y-85503571D02*
X158671428Y-86789285D01*
X158600000Y-86932142D01*
X158457142Y-87003571D01*
X158314285Y-87003571D01*
X157814285Y-87003571D02*
X157814285Y-85503571D01*
X157171428Y-87003571D02*
X157171428Y-86217857D01*
X157242857Y-86075000D01*
X157385714Y-86003571D01*
X157600000Y-86003571D01*
X157742857Y-86075000D01*
X157814285Y-86146428D01*
X155885714Y-86932142D02*
X156028571Y-87003571D01*
X156314285Y-87003571D01*
X156457142Y-86932142D01*
X156528571Y-86789285D01*
X156528571Y-86217857D01*
X156457142Y-86075000D01*
X156314285Y-86003571D01*
X156028571Y-86003571D01*
X155885714Y-86075000D01*
X155814285Y-86217857D01*
X155814285Y-86360714D01*
X156528571Y-86503571D01*
X155171428Y-87003571D02*
X155171428Y-86003571D01*
X155171428Y-86289285D02*
X155100000Y-86146428D01*
X155028571Y-86075000D01*
X154885714Y-86003571D01*
X154742857Y-86003571D01*
X153171428Y-86932142D02*
X152957142Y-87003571D01*
X152600000Y-87003571D01*
X152457142Y-86932142D01*
X152385714Y-86860714D01*
X152314285Y-86717857D01*
X152314285Y-86575000D01*
X152385714Y-86432142D01*
X152457142Y-86360714D01*
X152600000Y-86289285D01*
X152885714Y-86217857D01*
X153028571Y-86146428D01*
X153100000Y-86075000D01*
X153171428Y-85932142D01*
X153171428Y-85789285D01*
X153100000Y-85646428D01*
X153028571Y-85575000D01*
X152885714Y-85503571D01*
X152528571Y-85503571D01*
X152314285Y-85575000D01*
X151885714Y-85503571D02*
X151028571Y-85503571D01*
X151457142Y-87003571D02*
X151457142Y-85503571D01*
X150528571Y-87003571D02*
X150528571Y-85503571D01*
X150028571Y-86575000D01*
X149528571Y-85503571D01*
X149528571Y-87003571D01*
X148957142Y-85503571D02*
X148028571Y-85503571D01*
X148528571Y-86075000D01*
X148314285Y-86075000D01*
X148171428Y-86146428D01*
X148100000Y-86217857D01*
X148028571Y-86360714D01*
X148028571Y-86717857D01*
X148100000Y-86860714D01*
X148171428Y-86932142D01*
X148314285Y-87003571D01*
X148742857Y-87003571D01*
X148885714Y-86932142D01*
X148957142Y-86860714D01*
X147457142Y-85646428D02*
X147385714Y-85575000D01*
X147242857Y-85503571D01*
X146885714Y-85503571D01*
X146742857Y-85575000D01*
X146671428Y-85646428D01*
X146600000Y-85789285D01*
X146600000Y-85932142D01*
X146671428Y-86146428D01*
X147528571Y-87003571D01*
X146600000Y-87003571D01*
X146100000Y-85503571D02*
X145742857Y-87003571D01*
X145457142Y-85932142D01*
X145171428Y-87003571D01*
X144814285Y-85503571D01*
X143742857Y-86217857D02*
X143528571Y-86289285D01*
X143457142Y-86360714D01*
X143385714Y-86503571D01*
X143385714Y-86717857D01*
X143457142Y-86860714D01*
X143528571Y-86932142D01*
X143671428Y-87003571D01*
X144242857Y-87003571D01*
X144242857Y-85503571D01*
X143742857Y-85503571D01*
X143600000Y-85575000D01*
X143528571Y-85646428D01*
X143457142Y-85789285D01*
X143457142Y-85932142D01*
X143528571Y-86075000D01*
X143600000Y-86146428D01*
X143742857Y-86217857D01*
X144242857Y-86217857D01*
X142028571Y-85503571D02*
X142742857Y-85503571D01*
X142814285Y-86217857D01*
X142742857Y-86146428D01*
X142600000Y-86075000D01*
X142242857Y-86075000D01*
X142100000Y-86146428D01*
X142028571Y-86217857D01*
X141957142Y-86360714D01*
X141957142Y-86717857D01*
X142028571Y-86860714D01*
X142100000Y-86932142D01*
X142242857Y-87003571D01*
X142600000Y-87003571D01*
X142742857Y-86932142D01*
X142814285Y-86860714D01*
X140600000Y-85503571D02*
X141314285Y-85503571D01*
X141385714Y-86217857D01*
X141314285Y-86146428D01*
X141171428Y-86075000D01*
X140814285Y-86075000D01*
X140671428Y-86146428D01*
X140600000Y-86217857D01*
X140528571Y-86360714D01*
X140528571Y-86717857D01*
X140600000Y-86860714D01*
X140671428Y-86932142D01*
X140814285Y-87003571D01*
X141171428Y-87003571D01*
X141314285Y-86932142D01*
X141385714Y-86860714D01*
X159707142Y-89553571D02*
X159707142Y-88553571D01*
X159707142Y-88696428D02*
X159635714Y-88625000D01*
X159492857Y-88553571D01*
X159278571Y-88553571D01*
X159135714Y-88625000D01*
X159064285Y-88767857D01*
X159064285Y-89553571D01*
X159064285Y-88767857D02*
X158992857Y-88625000D01*
X158850000Y-88553571D01*
X158635714Y-88553571D01*
X158492857Y-88625000D01*
X158421428Y-88767857D01*
X158421428Y-89553571D01*
X157064285Y-89553571D02*
X157064285Y-88767857D01*
X157135714Y-88625000D01*
X157278571Y-88553571D01*
X157564285Y-88553571D01*
X157707142Y-88625000D01*
X157064285Y-89482142D02*
X157207142Y-89553571D01*
X157564285Y-89553571D01*
X157707142Y-89482142D01*
X157778571Y-89339285D01*
X157778571Y-89196428D01*
X157707142Y-89053571D01*
X157564285Y-88982142D01*
X157207142Y-88982142D01*
X157064285Y-88910714D01*
X156350000Y-89553571D02*
X156350000Y-88053571D01*
X156207142Y-88982142D02*
X155778571Y-89553571D01*
X155778571Y-88553571D02*
X156350000Y-89125000D01*
X154564285Y-89482142D02*
X154707142Y-89553571D01*
X154992857Y-89553571D01*
X155135714Y-89482142D01*
X155207142Y-89339285D01*
X155207142Y-88767857D01*
X155135714Y-88625000D01*
X154992857Y-88553571D01*
X154707142Y-88553571D01*
X154564285Y-88625000D01*
X154492857Y-88767857D01*
X154492857Y-88910714D01*
X155207142Y-89053571D01*
X153850000Y-89553571D02*
X153850000Y-88553571D01*
X153850000Y-88839285D02*
X153778571Y-88696428D01*
X153707142Y-88625000D01*
X153564285Y-88553571D01*
X153421428Y-88553571D01*
X152921428Y-89553571D02*
X152921428Y-88553571D01*
X152921428Y-88053571D02*
X152992857Y-88125000D01*
X152921428Y-88196428D01*
X152850000Y-88125000D01*
X152921428Y-88053571D01*
X152921428Y-88196428D01*
X152278571Y-89482142D02*
X152135714Y-89553571D01*
X151850000Y-89553571D01*
X151707142Y-89482142D01*
X151635714Y-89339285D01*
X151635714Y-89267857D01*
X151707142Y-89125000D01*
X151850000Y-89053571D01*
X152064285Y-89053571D01*
X152207142Y-88982142D01*
X152278571Y-88839285D01*
X152278571Y-88767857D01*
X152207142Y-88625000D01*
X152064285Y-88553571D01*
X151850000Y-88553571D01*
X151707142Y-88625000D01*
X151207142Y-88553571D02*
X150635714Y-88553571D01*
X150992857Y-88053571D02*
X150992857Y-89339285D01*
X150921428Y-89482142D01*
X150778571Y-89553571D01*
X150635714Y-89553571D01*
X150135714Y-89553571D02*
X150135714Y-88553571D01*
X150135714Y-88053571D02*
X150207142Y-88125000D01*
X150135714Y-88196428D01*
X150064285Y-88125000D01*
X150135714Y-88053571D01*
X150135714Y-88196428D01*
X148778571Y-89482142D02*
X148921428Y-89553571D01*
X149207142Y-89553571D01*
X149350000Y-89482142D01*
X149421428Y-89410714D01*
X149492857Y-89267857D01*
X149492857Y-88839285D01*
X149421428Y-88696428D01*
X149350000Y-88625000D01*
X149207142Y-88553571D01*
X148921428Y-88553571D01*
X148778571Y-88625000D01*
X148135714Y-89410714D02*
X148064285Y-89482142D01*
X148135714Y-89553571D01*
X148207142Y-89482142D01*
X148135714Y-89410714D01*
X148135714Y-89553571D01*
X146778571Y-89482142D02*
X146921428Y-89553571D01*
X147207142Y-89553571D01*
X147350000Y-89482142D01*
X147421428Y-89410714D01*
X147492857Y-89267857D01*
X147492857Y-88839285D01*
X147421428Y-88696428D01*
X147350000Y-88625000D01*
X147207142Y-88553571D01*
X146921428Y-88553571D01*
X146778571Y-88625000D01*
X145921428Y-89553571D02*
X146064285Y-89482142D01*
X146135714Y-89410714D01*
X146207142Y-89267857D01*
X146207142Y-88839285D01*
X146135714Y-88696428D01*
X146064285Y-88625000D01*
X145921428Y-88553571D01*
X145707142Y-88553571D01*
X145564285Y-88625000D01*
X145492857Y-88696428D01*
X145421428Y-88839285D01*
X145421428Y-89267857D01*
X145492857Y-89410714D01*
X145564285Y-89482142D01*
X145707142Y-89553571D01*
X145921428Y-89553571D01*
X144778571Y-89553571D02*
X144778571Y-88553571D01*
X144778571Y-88696428D02*
X144707142Y-88625000D01*
X144564285Y-88553571D01*
X144350000Y-88553571D01*
X144207142Y-88625000D01*
X144135714Y-88767857D01*
X144135714Y-89553571D01*
X144135714Y-88767857D02*
X144064285Y-88625000D01*
X143921428Y-88553571D01*
X143707142Y-88553571D01*
X143564285Y-88625000D01*
X143492857Y-88767857D01*
X143492857Y-89553571D01*
D12*
G36*
X176669827Y-91068191D02*
G01*
X176665128Y-91031558D01*
X176656334Y-91001951D01*
X176642710Y-90976670D01*
X176628634Y-90958646D01*
X176613963Y-90943065D01*
X176598981Y-90930127D01*
X176582387Y-90919588D01*
X176562876Y-90911206D01*
X176539148Y-90904737D01*
X176509900Y-90899939D01*
X176473830Y-90896567D01*
X176429635Y-90894380D01*
X176376013Y-90893134D01*
X176311663Y-90892586D01*
X176274277Y-90892497D01*
X176218110Y-90892546D01*
X176173354Y-90892863D01*
X176138720Y-90893502D01*
X176112920Y-90894520D01*
X176094667Y-90895973D01*
X176082671Y-90897917D01*
X176075646Y-90900407D01*
X176074442Y-90901175D01*
X176071101Y-90904249D01*
X176068406Y-90908959D01*
X176066265Y-90916643D01*
X176064588Y-90928636D01*
X176063284Y-90946274D01*
X176062263Y-90970895D01*
X176061434Y-91003834D01*
X176060705Y-91046427D01*
X176059986Y-91100012D01*
X176059775Y-91117075D01*
X176057244Y-91324100D01*
X176288763Y-91324100D01*
X176354446Y-91324014D01*
X176408780Y-91323662D01*
X176453116Y-91322906D01*
X176488803Y-91321608D01*
X176517192Y-91319629D01*
X176539633Y-91316831D01*
X176557477Y-91313074D01*
X176572074Y-91308222D01*
X176584775Y-91302135D01*
X176596928Y-91294674D01*
X176600727Y-91292109D01*
X176628867Y-91267599D01*
X176649362Y-91237144D01*
X176662807Y-91199243D01*
X176669797Y-91152396D01*
X176671168Y-91114550D01*
X176669827Y-91068191D01*
G37*
X176669827Y-91068191D02*
X176665128Y-91031558D01*
X176656334Y-91001951D01*
X176642710Y-90976670D01*
X176628634Y-90958646D01*
X176613963Y-90943065D01*
X176598981Y-90930127D01*
X176582387Y-90919588D01*
X176562876Y-90911206D01*
X176539148Y-90904737D01*
X176509900Y-90899939D01*
X176473830Y-90896567D01*
X176429635Y-90894380D01*
X176376013Y-90893134D01*
X176311663Y-90892586D01*
X176274277Y-90892497D01*
X176218110Y-90892546D01*
X176173354Y-90892863D01*
X176138720Y-90893502D01*
X176112920Y-90894520D01*
X176094667Y-90895973D01*
X176082671Y-90897917D01*
X176075646Y-90900407D01*
X176074442Y-90901175D01*
X176071101Y-90904249D01*
X176068406Y-90908959D01*
X176066265Y-90916643D01*
X176064588Y-90928636D01*
X176063284Y-90946274D01*
X176062263Y-90970895D01*
X176061434Y-91003834D01*
X176060705Y-91046427D01*
X176059986Y-91100012D01*
X176059775Y-91117075D01*
X176057244Y-91324100D01*
X176288763Y-91324100D01*
X176354446Y-91324014D01*
X176408780Y-91323662D01*
X176453116Y-91322906D01*
X176488803Y-91321608D01*
X176517192Y-91319629D01*
X176539633Y-91316831D01*
X176557477Y-91313074D01*
X176572074Y-91308222D01*
X176584775Y-91302135D01*
X176596928Y-91294674D01*
X176600727Y-91292109D01*
X176628867Y-91267599D01*
X176649362Y-91237144D01*
X176662807Y-91199243D01*
X176669797Y-91152396D01*
X176671168Y-91114550D01*
X176669827Y-91068191D01*
G36*
X175986105Y-87045639D02*
G01*
X175979055Y-87044756D01*
X175960529Y-87043928D01*
X175931753Y-87043173D01*
X175893950Y-87042508D01*
X175848345Y-87041949D01*
X175796163Y-87041515D01*
X175738629Y-87041223D01*
X175676966Y-87041089D01*
X175663831Y-87041083D01*
X175346054Y-87041025D01*
X175320618Y-87085475D01*
X175296748Y-87128795D01*
X175279341Y-87164884D01*
X175267394Y-87196787D01*
X175259900Y-87227544D01*
X175255856Y-87260199D01*
X175254549Y-87285500D01*
X175254344Y-87324712D01*
X175256390Y-87353934D01*
X175260327Y-87371225D01*
X175272330Y-87396870D01*
X175285189Y-87414586D01*
X175302604Y-87428822D01*
X175314330Y-87436114D01*
X175344375Y-87453775D01*
X175533634Y-87455713D01*
X175594973Y-87456186D01*
X175645141Y-87456087D01*
X175685661Y-87455209D01*
X175718057Y-87453346D01*
X175743852Y-87450291D01*
X175764571Y-87445839D01*
X175781736Y-87439783D01*
X175796871Y-87431916D01*
X175811500Y-87422032D01*
X175817888Y-87417208D01*
X175835505Y-87400468D01*
X175854267Y-87377810D01*
X175867522Y-87358256D01*
X175875911Y-87342147D01*
X175886951Y-87317896D01*
X175899920Y-87287409D01*
X175914096Y-87252590D01*
X175928756Y-87215342D01*
X175943178Y-87177570D01*
X175956640Y-87141177D01*
X175968419Y-87108069D01*
X175977794Y-87080149D01*
X175984042Y-87059321D01*
X175986441Y-87047490D01*
X175986105Y-87045639D01*
G37*
X175986105Y-87045639D02*
X175979055Y-87044756D01*
X175960529Y-87043928D01*
X175931753Y-87043173D01*
X175893950Y-87042508D01*
X175848345Y-87041949D01*
X175796163Y-87041515D01*
X175738629Y-87041223D01*
X175676966Y-87041089D01*
X175663831Y-87041083D01*
X175346054Y-87041025D01*
X175320618Y-87085475D01*
X175296748Y-87128795D01*
X175279341Y-87164884D01*
X175267394Y-87196787D01*
X175259900Y-87227544D01*
X175255856Y-87260199D01*
X175254549Y-87285500D01*
X175254344Y-87324712D01*
X175256390Y-87353934D01*
X175260327Y-87371225D01*
X175272330Y-87396870D01*
X175285189Y-87414586D01*
X175302604Y-87428822D01*
X175314330Y-87436114D01*
X175344375Y-87453775D01*
X175533634Y-87455713D01*
X175594973Y-87456186D01*
X175645141Y-87456087D01*
X175685661Y-87455209D01*
X175718057Y-87453346D01*
X175743852Y-87450291D01*
X175764571Y-87445839D01*
X175781736Y-87439783D01*
X175796871Y-87431916D01*
X175811500Y-87422032D01*
X175817888Y-87417208D01*
X175835505Y-87400468D01*
X175854267Y-87377810D01*
X175867522Y-87358256D01*
X175875911Y-87342147D01*
X175886951Y-87317896D01*
X175899920Y-87287409D01*
X175914096Y-87252590D01*
X175928756Y-87215342D01*
X175943178Y-87177570D01*
X175956640Y-87141177D01*
X175968419Y-87108069D01*
X175977794Y-87080149D01*
X175984042Y-87059321D01*
X175986441Y-87047490D01*
X175986105Y-87045639D01*
G36*
X176954322Y-84574050D02*
G01*
X176952624Y-84731213D01*
X176950925Y-84888375D01*
X176022238Y-84886058D01*
X175093550Y-84883740D01*
X175093550Y-85069270D01*
X176022238Y-85067723D01*
X176950925Y-85066175D01*
X176952624Y-85223338D01*
X176954322Y-85380500D01*
X177110784Y-85380500D01*
X177114984Y-85118563D01*
X177115944Y-85054957D01*
X177116827Y-84989242D01*
X177117608Y-84923885D01*
X177118261Y-84861355D01*
X177118759Y-84804116D01*
X177119079Y-84754638D01*
X177119192Y-84715387D01*
X177119192Y-84715338D01*
X177119200Y-84574050D01*
X176954322Y-84574050D01*
G37*
X176954322Y-84574050D02*
X176952624Y-84731213D01*
X176950925Y-84888375D01*
X176022238Y-84886058D01*
X175093550Y-84883740D01*
X175093550Y-85069270D01*
X176022238Y-85067723D01*
X176950925Y-85066175D01*
X176952624Y-85223338D01*
X176954322Y-85380500D01*
X177110784Y-85380500D01*
X177114984Y-85118563D01*
X177115944Y-85054957D01*
X177116827Y-84989242D01*
X177117608Y-84923885D01*
X177118261Y-84861355D01*
X177118759Y-84804116D01*
X177119079Y-84754638D01*
X177119192Y-84715387D01*
X177119192Y-84715338D01*
X177119200Y-84574050D01*
X176954322Y-84574050D01*
G36*
X175167958Y-87041840D02*
G01*
X175143878Y-87039640D01*
X175122221Y-87038191D01*
X175111669Y-87037850D01*
X175093550Y-87037850D01*
X175093779Y-87134688D01*
X175094007Y-87231525D01*
X175115082Y-87187075D01*
X175129198Y-87160330D01*
X175147665Y-87129399D01*
X175166984Y-87100082D01*
X175171143Y-87094228D01*
X175206128Y-87045830D01*
X175167958Y-87041840D01*
G37*
X175167958Y-87041840D02*
X175143878Y-87039640D01*
X175122221Y-87038191D01*
X175111669Y-87037850D01*
X175093550Y-87037850D01*
X175093779Y-87134688D01*
X175094007Y-87231525D01*
X175115082Y-87187075D01*
X175129198Y-87160330D01*
X175147665Y-87129399D01*
X175166984Y-87100082D01*
X175171143Y-87094228D01*
X175206128Y-87045830D01*
X175167958Y-87041840D01*
G36*
X176667266Y-88180121D02*
G01*
X176658881Y-88145578D01*
X176643376Y-88118342D01*
X176619785Y-88096271D01*
X176608526Y-88088809D01*
X176577276Y-88069725D01*
X175093550Y-88066345D01*
X175093550Y-88485650D01*
X176560321Y-88485650D01*
X176579933Y-88458663D01*
X176619008Y-88398497D01*
X176646583Y-88340899D01*
X176663210Y-88284426D01*
X176669440Y-88227635D01*
X176669496Y-88224113D01*
X176667266Y-88180121D01*
G37*
X176667266Y-88180121D02*
X176658881Y-88145578D01*
X176643376Y-88118342D01*
X176619785Y-88096271D01*
X176608526Y-88088809D01*
X176577276Y-88069725D01*
X175093550Y-88066345D01*
X175093550Y-88485650D01*
X176560321Y-88485650D01*
X176579933Y-88458663D01*
X176619008Y-88398497D01*
X176646583Y-88340899D01*
X176663210Y-88284426D01*
X176669440Y-88227635D01*
X176669496Y-88224113D01*
X176667266Y-88180121D01*
G36*
X176666831Y-88774153D02*
G01*
X176654364Y-88735937D01*
X176633652Y-88705514D01*
X176622843Y-88695654D01*
X176616702Y-88690839D01*
X176610695Y-88686529D01*
X176604120Y-88682697D01*
X176596273Y-88679314D01*
X176586453Y-88676353D01*
X176573957Y-88673785D01*
X176558083Y-88671583D01*
X176538128Y-88669718D01*
X176513391Y-88668162D01*
X176483168Y-88666887D01*
X176446758Y-88665866D01*
X176403457Y-88665070D01*
X176352564Y-88664472D01*
X176293376Y-88664042D01*
X176225191Y-88663754D01*
X176147307Y-88663578D01*
X176059020Y-88663488D01*
X175959630Y-88663455D01*
X175848432Y-88663450D01*
X175093550Y-88663450D01*
X175093550Y-89082808D01*
X175829878Y-89081092D01*
X175942097Y-89080827D01*
X176042305Y-89080576D01*
X176131194Y-89080325D01*
X176209453Y-89080061D01*
X176277773Y-89079771D01*
X176336843Y-89079441D01*
X176387353Y-89079058D01*
X176429995Y-89078609D01*
X176465457Y-89078080D01*
X176494430Y-89077459D01*
X176517604Y-89076731D01*
X176535669Y-89075883D01*
X176549315Y-89074902D01*
X176559233Y-89073775D01*
X176566112Y-89072488D01*
X176570643Y-89071029D01*
X176573515Y-89069383D01*
X176575419Y-89067537D01*
X176576114Y-89066675D01*
X176597577Y-89035264D01*
X176619426Y-88996678D01*
X176638960Y-88956065D01*
X176652785Y-88920667D01*
X176666240Y-88868007D01*
X176670856Y-88818673D01*
X176666831Y-88774153D01*
G37*
X176666831Y-88774153D02*
X176654364Y-88735937D01*
X176633652Y-88705514D01*
X176622843Y-88695654D01*
X176616702Y-88690839D01*
X176610695Y-88686529D01*
X176604120Y-88682697D01*
X176596273Y-88679314D01*
X176586453Y-88676353D01*
X176573957Y-88673785D01*
X176558083Y-88671583D01*
X176538128Y-88669718D01*
X176513391Y-88668162D01*
X176483168Y-88666887D01*
X176446758Y-88665866D01*
X176403457Y-88665070D01*
X176352564Y-88664472D01*
X176293376Y-88664042D01*
X176225191Y-88663754D01*
X176147307Y-88663578D01*
X176059020Y-88663488D01*
X175959630Y-88663455D01*
X175848432Y-88663450D01*
X175093550Y-88663450D01*
X175093550Y-89082808D01*
X175829878Y-89081092D01*
X175942097Y-89080827D01*
X176042305Y-89080576D01*
X176131194Y-89080325D01*
X176209453Y-89080061D01*
X176277773Y-89079771D01*
X176336843Y-89079441D01*
X176387353Y-89079058D01*
X176429995Y-89078609D01*
X176465457Y-89078080D01*
X176494430Y-89077459D01*
X176517604Y-89076731D01*
X176535669Y-89075883D01*
X176549315Y-89074902D01*
X176559233Y-89073775D01*
X176566112Y-89072488D01*
X176570643Y-89071029D01*
X176573515Y-89069383D01*
X176575419Y-89067537D01*
X176576114Y-89066675D01*
X176597577Y-89035264D01*
X176619426Y-88996678D01*
X176638960Y-88956065D01*
X176652785Y-88920667D01*
X176666240Y-88868007D01*
X176670856Y-88818673D01*
X176666831Y-88774153D01*
G36*
X176665706Y-89371502D02*
G01*
X176652605Y-89333028D01*
X176630492Y-89303202D01*
X176599137Y-89281655D01*
X176580090Y-89273927D01*
X176572446Y-89272719D01*
X176556832Y-89271634D01*
X176532831Y-89270669D01*
X176500027Y-89269819D01*
X176458004Y-89269081D01*
X176406344Y-89268451D01*
X176344630Y-89267924D01*
X176272447Y-89267497D01*
X176189378Y-89267166D01*
X176095006Y-89266926D01*
X175988914Y-89266774D01*
X175870686Y-89266705D01*
X175826028Y-89266700D01*
X175093550Y-89266700D01*
X175093550Y-89679450D01*
X175813482Y-89679450D01*
X175908386Y-89679418D01*
X175999957Y-89679323D01*
X176087368Y-89679171D01*
X176169794Y-89678965D01*
X176246407Y-89678709D01*
X176316382Y-89678407D01*
X176378892Y-89678065D01*
X176433111Y-89677685D01*
X176478212Y-89677273D01*
X176513370Y-89676832D01*
X176537759Y-89676366D01*
X176550551Y-89675880D01*
X176552101Y-89675713D01*
X176565184Y-89670137D01*
X176578778Y-89657417D01*
X176595108Y-89635422D01*
X176596830Y-89632850D01*
X176629171Y-89579050D01*
X176651507Y-89528979D01*
X176664770Y-89479916D01*
X176669892Y-89429135D01*
X176670022Y-89418993D01*
X176665706Y-89371502D01*
G37*
X176665706Y-89371502D02*
X176652605Y-89333028D01*
X176630492Y-89303202D01*
X176599137Y-89281655D01*
X176580090Y-89273927D01*
X176572446Y-89272719D01*
X176556832Y-89271634D01*
X176532831Y-89270669D01*
X176500027Y-89269819D01*
X176458004Y-89269081D01*
X176406344Y-89268451D01*
X176344630Y-89267924D01*
X176272447Y-89267497D01*
X176189378Y-89267166D01*
X176095006Y-89266926D01*
X175988914Y-89266774D01*
X175870686Y-89266705D01*
X175826028Y-89266700D01*
X175093550Y-89266700D01*
X175093550Y-89679450D01*
X175813482Y-89679450D01*
X175908386Y-89679418D01*
X175999957Y-89679323D01*
X176087368Y-89679171D01*
X176169794Y-89678965D01*
X176246407Y-89678709D01*
X176316382Y-89678407D01*
X176378892Y-89678065D01*
X176433111Y-89677685D01*
X176478212Y-89677273D01*
X176513370Y-89676832D01*
X176537759Y-89676366D01*
X176550551Y-89675880D01*
X176552101Y-89675713D01*
X176565184Y-89670137D01*
X176578778Y-89657417D01*
X176595108Y-89635422D01*
X176596830Y-89632850D01*
X176629171Y-89579050D01*
X176651507Y-89528979D01*
X176664770Y-89479916D01*
X176669892Y-89429135D01*
X176670022Y-89418993D01*
X176665706Y-89371502D01*
G36*
X176665725Y-89969181D02*
G01*
X176654042Y-89932987D01*
X176633660Y-89903941D01*
X176612242Y-89885868D01*
X176584709Y-89866775D01*
X175839130Y-89865111D01*
X175093550Y-89863446D01*
X175093550Y-90276350D01*
X176566389Y-90276350D01*
X176604889Y-90211263D01*
X176632026Y-90161966D01*
X176651058Y-90118666D01*
X176662938Y-90078455D01*
X176668617Y-90038425D01*
X176669445Y-90014168D01*
X176665725Y-89969181D01*
G37*
X176665725Y-89969181D02*
X176654042Y-89932987D01*
X176633660Y-89903941D01*
X176612242Y-89885868D01*
X176584709Y-89866775D01*
X175839130Y-89865111D01*
X175093550Y-89863446D01*
X175093550Y-90276350D01*
X176566389Y-90276350D01*
X176604889Y-90211263D01*
X176632026Y-90161966D01*
X176651058Y-90118666D01*
X176662938Y-90078455D01*
X176668617Y-90038425D01*
X176669445Y-90014168D01*
X176665725Y-89969181D01*
G36*
X177118213Y-88275374D02*
G01*
X177118169Y-88094887D01*
X177118083Y-87926753D01*
X177117956Y-87770915D01*
X177117788Y-87627314D01*
X177117577Y-87495892D01*
X177117326Y-87376592D01*
X177117032Y-87269356D01*
X177116696Y-87174126D01*
X177116319Y-87090845D01*
X177115899Y-87019453D01*
X177115437Y-86959895D01*
X177114932Y-86912111D01*
X177114385Y-86876044D01*
X177113796Y-86851636D01*
X177113164Y-86838829D01*
X177113055Y-86837825D01*
X177099438Y-86778619D01*
X177074870Y-86725695D01*
X177039683Y-86679511D01*
X176994212Y-86640523D01*
X176950084Y-86614539D01*
X176900793Y-86590175D01*
X176151159Y-86587000D01*
X176053591Y-86586624D01*
X175958881Y-86586332D01*
X175867883Y-86586121D01*
X175781449Y-86585992D01*
X175700434Y-86585943D01*
X175625691Y-86585972D01*
X175558074Y-86586080D01*
X175498436Y-86586264D01*
X175447631Y-86586524D01*
X175406512Y-86586858D01*
X175375933Y-86587266D01*
X175356748Y-86587746D01*
X175351489Y-86588030D01*
X175295479Y-86598882D01*
X175243307Y-86620929D01*
X175196495Y-86652878D01*
X175156566Y-86693436D01*
X175125042Y-86741310D01*
X175103444Y-86795209D01*
X175102195Y-86799725D01*
X175097171Y-86821613D01*
X175094083Y-86841037D01*
X175093626Y-86847792D01*
X175093550Y-86864109D01*
X175831738Y-86864925D01*
X175945640Y-86865066D01*
X176047543Y-86865229D01*
X176138147Y-86865425D01*
X176218151Y-86865662D01*
X176288256Y-86865952D01*
X176349162Y-86866303D01*
X176401570Y-86866726D01*
X176446180Y-86867230D01*
X176483691Y-86867825D01*
X176514805Y-86868522D01*
X176540222Y-86869328D01*
X176560642Y-86870256D01*
X176576764Y-86871313D01*
X176589290Y-86872511D01*
X176598919Y-86873859D01*
X176606353Y-86875366D01*
X176608025Y-86875789D01*
X176667945Y-86896766D01*
X176718670Y-86925818D01*
X176760380Y-86963219D01*
X176793256Y-87009246D01*
X176817478Y-87064171D01*
X176833227Y-87128272D01*
X176840683Y-87201821D01*
X176841376Y-87231525D01*
X176837696Y-87310831D01*
X176825765Y-87380617D01*
X176805403Y-87441167D01*
X176776431Y-87492766D01*
X176738669Y-87535699D01*
X176691937Y-87570251D01*
X176636056Y-87596707D01*
X176604563Y-87607007D01*
X176586973Y-87610758D01*
X176562174Y-87613838D01*
X176528860Y-87616338D01*
X176485723Y-87618354D01*
X176431457Y-87619978D01*
X176419113Y-87620265D01*
X176268300Y-87623630D01*
X176268300Y-87445307D01*
X176409588Y-87443145D01*
X176460400Y-87442185D01*
X176500382Y-87440748D01*
X176531401Y-87438386D01*
X176555327Y-87434653D01*
X176574028Y-87429104D01*
X176589373Y-87421291D01*
X176603231Y-87410769D01*
X176617471Y-87397091D01*
X176621988Y-87392419D01*
X176643216Y-87366052D01*
X176657656Y-87337075D01*
X176666203Y-87302668D01*
X176669752Y-87260012D01*
X176669978Y-87241285D01*
X176666633Y-87185740D01*
X176656512Y-87140473D01*
X176639032Y-87104674D01*
X176613613Y-87077536D01*
X176579674Y-87058250D01*
X176536634Y-87046007D01*
X176528650Y-87044614D01*
X176511540Y-87042825D01*
X176485327Y-87041304D01*
X176452041Y-87040062D01*
X176413712Y-87039109D01*
X176372370Y-87038457D01*
X176330043Y-87038116D01*
X176288763Y-87038096D01*
X176250558Y-87038410D01*
X176217458Y-87039066D01*
X176191492Y-87040077D01*
X176174691Y-87041453D01*
X176169353Y-87042710D01*
X176165378Y-87049728D01*
X176157768Y-87067048D01*
X176147185Y-87093022D01*
X176134286Y-87125999D01*
X176119731Y-87164329D01*
X176106591Y-87199775D01*
X176079787Y-87272088D01*
X176056337Y-87333468D01*
X176035685Y-87385067D01*
X176017276Y-87428035D01*
X176000554Y-87463523D01*
X175984965Y-87492683D01*
X175969953Y-87516665D01*
X175954962Y-87536620D01*
X175939438Y-87553700D01*
X175932719Y-87560205D01*
X175901505Y-87586030D01*
X175868495Y-87605592D01*
X175828836Y-87621634D01*
X175817450Y-87625373D01*
X175806003Y-87628480D01*
X175792216Y-87631036D01*
X175774654Y-87633119D01*
X175751876Y-87634812D01*
X175722447Y-87636194D01*
X175684926Y-87637348D01*
X175637878Y-87638353D01*
X175579862Y-87639291D01*
X175566456Y-87639482D01*
X175497823Y-87640272D01*
X175440396Y-87640471D01*
X175392691Y-87639975D01*
X175353224Y-87638679D01*
X175320511Y-87636480D01*
X175293068Y-87633273D01*
X175269410Y-87628953D01*
X175248053Y-87623417D01*
X175227513Y-87616560D01*
X175224523Y-87615454D01*
X175185474Y-87595024D01*
X175149149Y-87565219D01*
X175119324Y-87529318D01*
X175112299Y-87518005D01*
X175093670Y-87485525D01*
X175093610Y-87683963D01*
X175093550Y-87882400D01*
X175841263Y-87882511D01*
X175957855Y-87882531D01*
X176062460Y-87882572D01*
X176155791Y-87882659D01*
X176238561Y-87882818D01*
X176311482Y-87883073D01*
X176375269Y-87883451D01*
X176430633Y-87883976D01*
X176478288Y-87884674D01*
X176518947Y-87885569D01*
X176553323Y-87886689D01*
X176582128Y-87888056D01*
X176606076Y-87889698D01*
X176625880Y-87891639D01*
X176642252Y-87893904D01*
X176655906Y-87896520D01*
X176667554Y-87899510D01*
X176677910Y-87902901D01*
X176687687Y-87906718D01*
X176697597Y-87910986D01*
X176702317Y-87913072D01*
X176745541Y-87938772D01*
X176781088Y-87973402D01*
X176808743Y-88015612D01*
X176828289Y-88064054D01*
X176839509Y-88117379D01*
X176842186Y-88174238D01*
X176836105Y-88233281D01*
X176821048Y-88293161D01*
X176796799Y-88352528D01*
X176778316Y-88386396D01*
X176761135Y-88413439D01*
X176741150Y-88442681D01*
X176727517Y-88461356D01*
X176713990Y-88479821D01*
X176704199Y-88494503D01*
X176700131Y-88502406D01*
X176700112Y-88502631D01*
X176705055Y-88508660D01*
X176717761Y-88518589D01*
X176729313Y-88526317D01*
X176768001Y-88558042D01*
X176799140Y-88598662D01*
X176822285Y-88646544D01*
X176836991Y-88700057D01*
X176842813Y-88757566D01*
X176839305Y-88817439D01*
X176826021Y-88878044D01*
X176825623Y-88879350D01*
X176813630Y-88913697D01*
X176798445Y-88947769D01*
X176778835Y-88983758D01*
X176753567Y-89023856D01*
X176721406Y-89070254D01*
X176706827Y-89090394D01*
X176701210Y-89100498D01*
X176705165Y-89106849D01*
X176710002Y-89109786D01*
X176726858Y-89121912D01*
X176747957Y-89140835D01*
X176769967Y-89163160D01*
X176789555Y-89185491D01*
X176803386Y-89204433D01*
X176804117Y-89205655D01*
X176826097Y-89255467D01*
X176838464Y-89313384D01*
X176841397Y-89364967D01*
X176837661Y-89420857D01*
X176826215Y-89474976D01*
X176806291Y-89529400D01*
X176777118Y-89586204D01*
X176737931Y-89647465D01*
X176735560Y-89650875D01*
X176700115Y-89701675D01*
X176720745Y-89717344D01*
X176767566Y-89760166D01*
X176803621Y-89808873D01*
X176828488Y-89862452D01*
X176841742Y-89919891D01*
X176842962Y-89980179D01*
X176840247Y-90003204D01*
X176832449Y-90044648D01*
X176822041Y-90081533D01*
X176807669Y-90116972D01*
X176787979Y-90154079D01*
X176761616Y-90195969D01*
X176747106Y-90217368D01*
X176706785Y-90275861D01*
X176817575Y-90279525D01*
X176817575Y-90457325D01*
X175955563Y-90458936D01*
X175093550Y-90460546D01*
X175093980Y-90700236D01*
X175094194Y-90764843D01*
X175094597Y-90817459D01*
X175095212Y-90858794D01*
X175096062Y-90889555D01*
X175097170Y-90910452D01*
X175098559Y-90922192D01*
X175100254Y-90925485D01*
X175101281Y-90924050D01*
X175116369Y-90890655D01*
X175129651Y-90865435D01*
X175143482Y-90844567D01*
X175160220Y-90824228D01*
X175168230Y-90815414D01*
X175202215Y-90783954D01*
X175240563Y-90759845D01*
X175249550Y-90755367D01*
X175277949Y-90742654D01*
X175305328Y-90732810D01*
X175333914Y-90725491D01*
X175365931Y-90720356D01*
X175403606Y-90717062D01*
X175449163Y-90715267D01*
X175504828Y-90714628D01*
X175514471Y-90714611D01*
X175646467Y-90714500D01*
X175642194Y-90798638D01*
X175640566Y-90829758D01*
X175639111Y-90855840D01*
X175637968Y-90874511D01*
X175637277Y-90883404D01*
X175637198Y-90883816D01*
X175630941Y-90884337D01*
X175613904Y-90885187D01*
X175588002Y-90886284D01*
X175555148Y-90887550D01*
X175517256Y-90888903D01*
X175509475Y-90889169D01*
X175465806Y-90890733D01*
X175432648Y-90892246D01*
X175407818Y-90893997D01*
X175389132Y-90896277D01*
X175374405Y-90899376D01*
X175361455Y-90903584D01*
X175348096Y-90909191D01*
X175343686Y-90911187D01*
X175312547Y-90928973D01*
X175288699Y-90951380D01*
X175271449Y-90979933D01*
X175260099Y-91016157D01*
X175253955Y-91061576D01*
X175252300Y-91111519D01*
X175254364Y-91164859D01*
X175261053Y-91207804D01*
X175273115Y-91242051D01*
X175291298Y-91269298D01*
X175316348Y-91291243D01*
X175336832Y-91303556D01*
X175369775Y-91320925D01*
X175628538Y-91322781D01*
X175887300Y-91324636D01*
X175887300Y-90714500D01*
X176212738Y-90714611D01*
X176291383Y-90714683D01*
X176358501Y-90714909D01*
X176415264Y-90715386D01*
X176462844Y-90716212D01*
X176502415Y-90717486D01*
X176535148Y-90719305D01*
X176562217Y-90721768D01*
X176584794Y-90724972D01*
X176604050Y-90729016D01*
X176621160Y-90733998D01*
X176637295Y-90740016D01*
X176653628Y-90747168D01*
X176664820Y-90752431D01*
X176716365Y-90783803D01*
X176759516Y-90824676D01*
X176794205Y-90874959D01*
X176820363Y-90934564D01*
X176831186Y-90971675D01*
X176837392Y-91007488D01*
X176841152Y-91051994D01*
X176842508Y-91101431D01*
X176841501Y-91152039D01*
X176838173Y-91200056D01*
X176832564Y-91241721D01*
X176827992Y-91262594D01*
X176806411Y-91324850D01*
X176777323Y-91377100D01*
X176740017Y-91420062D01*
X176693781Y-91454451D01*
X176637905Y-91480984D01*
X176598500Y-91493694D01*
X176590897Y-91495610D01*
X176582306Y-91497300D01*
X176571926Y-91498776D01*
X176558952Y-91500055D01*
X176542583Y-91501149D01*
X176522016Y-91502072D01*
X176496449Y-91502840D01*
X176465077Y-91503467D01*
X176427099Y-91503965D01*
X176381713Y-91504350D01*
X176328114Y-91504636D01*
X176265501Y-91504837D01*
X176193071Y-91504967D01*
X176110021Y-91505041D01*
X176015549Y-91505072D01*
X175953975Y-91505075D01*
X175350725Y-91505075D01*
X175298926Y-91487523D01*
X175245279Y-91464699D01*
X175198096Y-91435337D01*
X175158952Y-91400806D01*
X175129427Y-91362480D01*
X175112114Y-91325046D01*
X175105882Y-91308354D01*
X175100018Y-91296958D01*
X175099133Y-91295843D01*
X175097893Y-91300623D01*
X175096765Y-91317049D01*
X175095772Y-91344066D01*
X175094935Y-91380620D01*
X175094276Y-91425657D01*
X175093817Y-91478123D01*
X175093580Y-91536963D01*
X175093550Y-91567305D01*
X175093550Y-91844800D01*
X176655650Y-91844800D01*
X176655650Y-91647950D01*
X176820750Y-91647950D01*
X176820750Y-91845035D01*
X176968388Y-91843330D01*
X177116025Y-91841625D01*
X177117820Y-89365125D01*
X177117980Y-89122007D01*
X177118100Y-88891530D01*
X177118179Y-88673637D01*
X177118216Y-88468271D01*
X177118213Y-88275374D01*
G37*
X177118213Y-88275374D02*
X177118169Y-88094887D01*
X177118083Y-87926753D01*
X177117956Y-87770915D01*
X177117788Y-87627314D01*
X177117577Y-87495892D01*
X177117326Y-87376592D01*
X177117032Y-87269356D01*
X177116696Y-87174126D01*
X177116319Y-87090845D01*
X177115899Y-87019453D01*
X177115437Y-86959895D01*
X177114932Y-86912111D01*
X177114385Y-86876044D01*
X177113796Y-86851636D01*
X177113164Y-86838829D01*
X177113055Y-86837825D01*
X177099438Y-86778619D01*
X177074870Y-86725695D01*
X177039683Y-86679511D01*
X176994212Y-86640523D01*
X176950084Y-86614539D01*
X176900793Y-86590175D01*
X176151159Y-86587000D01*
X176053591Y-86586624D01*
X175958881Y-86586332D01*
X175867883Y-86586121D01*
X175781449Y-86585992D01*
X175700434Y-86585943D01*
X175625691Y-86585972D01*
X175558074Y-86586080D01*
X175498436Y-86586264D01*
X175447631Y-86586524D01*
X175406512Y-86586858D01*
X175375933Y-86587266D01*
X175356748Y-86587746D01*
X175351489Y-86588030D01*
X175295479Y-86598882D01*
X175243307Y-86620929D01*
X175196495Y-86652878D01*
X175156566Y-86693436D01*
X175125042Y-86741310D01*
X175103444Y-86795209D01*
X175102195Y-86799725D01*
X175097171Y-86821613D01*
X175094083Y-86841037D01*
X175093626Y-86847792D01*
X175093550Y-86864109D01*
X175831738Y-86864925D01*
X175945640Y-86865066D01*
X176047543Y-86865229D01*
X176138147Y-86865425D01*
X176218151Y-86865662D01*
X176288256Y-86865952D01*
X176349162Y-86866303D01*
X176401570Y-86866726D01*
X176446180Y-86867230D01*
X176483691Y-86867825D01*
X176514805Y-86868522D01*
X176540222Y-86869328D01*
X176560642Y-86870256D01*
X176576764Y-86871313D01*
X176589290Y-86872511D01*
X176598919Y-86873859D01*
X176606353Y-86875366D01*
X176608025Y-86875789D01*
X176667945Y-86896766D01*
X176718670Y-86925818D01*
X176760380Y-86963219D01*
X176793256Y-87009246D01*
X176817478Y-87064171D01*
X176833227Y-87128272D01*
X176840683Y-87201821D01*
X176841376Y-87231525D01*
X176837696Y-87310831D01*
X176825765Y-87380617D01*
X176805403Y-87441167D01*
X176776431Y-87492766D01*
X176738669Y-87535699D01*
X176691937Y-87570251D01*
X176636056Y-87596707D01*
X176604563Y-87607007D01*
X176586973Y-87610758D01*
X176562174Y-87613838D01*
X176528860Y-87616338D01*
X176485723Y-87618354D01*
X176431457Y-87619978D01*
X176419113Y-87620265D01*
X176268300Y-87623630D01*
X176268300Y-87445307D01*
X176409588Y-87443145D01*
X176460400Y-87442185D01*
X176500382Y-87440748D01*
X176531401Y-87438386D01*
X176555327Y-87434653D01*
X176574028Y-87429104D01*
X176589373Y-87421291D01*
X176603231Y-87410769D01*
X176617471Y-87397091D01*
X176621988Y-87392419D01*
X176643216Y-87366052D01*
X176657656Y-87337075D01*
X176666203Y-87302668D01*
X176669752Y-87260012D01*
X176669978Y-87241285D01*
X176666633Y-87185740D01*
X176656512Y-87140473D01*
X176639032Y-87104674D01*
X176613613Y-87077536D01*
X176579674Y-87058250D01*
X176536634Y-87046007D01*
X176528650Y-87044614D01*
X176511540Y-87042825D01*
X176485327Y-87041304D01*
X176452041Y-87040062D01*
X176413712Y-87039109D01*
X176372370Y-87038457D01*
X176330043Y-87038116D01*
X176288763Y-87038096D01*
X176250558Y-87038410D01*
X176217458Y-87039066D01*
X176191492Y-87040077D01*
X176174691Y-87041453D01*
X176169353Y-87042710D01*
X176165378Y-87049728D01*
X176157768Y-87067048D01*
X176147185Y-87093022D01*
X176134286Y-87125999D01*
X176119731Y-87164329D01*
X176106591Y-87199775D01*
X176079787Y-87272088D01*
X176056337Y-87333468D01*
X176035685Y-87385067D01*
X176017276Y-87428035D01*
X176000554Y-87463523D01*
X175984965Y-87492683D01*
X175969953Y-87516665D01*
X175954962Y-87536620D01*
X175939438Y-87553700D01*
X175932719Y-87560205D01*
X175901505Y-87586030D01*
X175868495Y-87605592D01*
X175828836Y-87621634D01*
X175817450Y-87625373D01*
X175806003Y-87628480D01*
X175792216Y-87631036D01*
X175774654Y-87633119D01*
X175751876Y-87634812D01*
X175722447Y-87636194D01*
X175684926Y-87637348D01*
X175637878Y-87638353D01*
X175579862Y-87639291D01*
X175566456Y-87639482D01*
X175497823Y-87640272D01*
X175440396Y-87640471D01*
X175392691Y-87639975D01*
X175353224Y-87638679D01*
X175320511Y-87636480D01*
X175293068Y-87633273D01*
X175269410Y-87628953D01*
X175248053Y-87623417D01*
X175227513Y-87616560D01*
X175224523Y-87615454D01*
X175185474Y-87595024D01*
X175149149Y-87565219D01*
X175119324Y-87529318D01*
X175112299Y-87518005D01*
X175093670Y-87485525D01*
X175093610Y-87683963D01*
X175093550Y-87882400D01*
X175841263Y-87882511D01*
X175957855Y-87882531D01*
X176062460Y-87882572D01*
X176155791Y-87882659D01*
X176238561Y-87882818D01*
X176311482Y-87883073D01*
X176375269Y-87883451D01*
X176430633Y-87883976D01*
X176478288Y-87884674D01*
X176518947Y-87885569D01*
X176553323Y-87886689D01*
X176582128Y-87888056D01*
X176606076Y-87889698D01*
X176625880Y-87891639D01*
X176642252Y-87893904D01*
X176655906Y-87896520D01*
X176667554Y-87899510D01*
X176677910Y-87902901D01*
X176687687Y-87906718D01*
X176697597Y-87910986D01*
X176702317Y-87913072D01*
X176745541Y-87938772D01*
X176781088Y-87973402D01*
X176808743Y-88015612D01*
X176828289Y-88064054D01*
X176839509Y-88117379D01*
X176842186Y-88174238D01*
X176836105Y-88233281D01*
X176821048Y-88293161D01*
X176796799Y-88352528D01*
X176778316Y-88386396D01*
X176761135Y-88413439D01*
X176741150Y-88442681D01*
X176727517Y-88461356D01*
X176713990Y-88479821D01*
X176704199Y-88494503D01*
X176700131Y-88502406D01*
X176700112Y-88502631D01*
X176705055Y-88508660D01*
X176717761Y-88518589D01*
X176729313Y-88526317D01*
X176768001Y-88558042D01*
X176799140Y-88598662D01*
X176822285Y-88646544D01*
X176836991Y-88700057D01*
X176842813Y-88757566D01*
X176839305Y-88817439D01*
X176826021Y-88878044D01*
X176825623Y-88879350D01*
X176813630Y-88913697D01*
X176798445Y-88947769D01*
X176778835Y-88983758D01*
X176753567Y-89023856D01*
X176721406Y-89070254D01*
X176706827Y-89090394D01*
X176701210Y-89100498D01*
X176705165Y-89106849D01*
X176710002Y-89109786D01*
X176726858Y-89121912D01*
X176747957Y-89140835D01*
X176769967Y-89163160D01*
X176789555Y-89185491D01*
X176803386Y-89204433D01*
X176804117Y-89205655D01*
X176826097Y-89255467D01*
X176838464Y-89313384D01*
X176841397Y-89364967D01*
X176837661Y-89420857D01*
X176826215Y-89474976D01*
X176806291Y-89529400D01*
X176777118Y-89586204D01*
X176737931Y-89647465D01*
X176735560Y-89650875D01*
X176700115Y-89701675D01*
X176720745Y-89717344D01*
X176767566Y-89760166D01*
X176803621Y-89808873D01*
X176828488Y-89862452D01*
X176841742Y-89919891D01*
X176842962Y-89980179D01*
X176840247Y-90003204D01*
X176832449Y-90044648D01*
X176822041Y-90081533D01*
X176807669Y-90116972D01*
X176787979Y-90154079D01*
X176761616Y-90195969D01*
X176747106Y-90217368D01*
X176706785Y-90275861D01*
X176817575Y-90279525D01*
X176817575Y-90457325D01*
X175955563Y-90458936D01*
X175093550Y-90460546D01*
X175093980Y-90700236D01*
X175094194Y-90764843D01*
X175094597Y-90817459D01*
X175095212Y-90858794D01*
X175096062Y-90889555D01*
X175097170Y-90910452D01*
X175098559Y-90922192D01*
X175100254Y-90925485D01*
X175101281Y-90924050D01*
X175116369Y-90890655D01*
X175129651Y-90865435D01*
X175143482Y-90844567D01*
X175160220Y-90824228D01*
X175168230Y-90815414D01*
X175202215Y-90783954D01*
X175240563Y-90759845D01*
X175249550Y-90755367D01*
X175277949Y-90742654D01*
X175305328Y-90732810D01*
X175333914Y-90725491D01*
X175365931Y-90720356D01*
X175403606Y-90717062D01*
X175449163Y-90715267D01*
X175504828Y-90714628D01*
X175514471Y-90714611D01*
X175646467Y-90714500D01*
X175642194Y-90798638D01*
X175640566Y-90829758D01*
X175639111Y-90855840D01*
X175637968Y-90874511D01*
X175637277Y-90883404D01*
X175637198Y-90883816D01*
X175630941Y-90884337D01*
X175613904Y-90885187D01*
X175588002Y-90886284D01*
X175555148Y-90887550D01*
X175517256Y-90888903D01*
X175509475Y-90889169D01*
X175465806Y-90890733D01*
X175432648Y-90892246D01*
X175407818Y-90893997D01*
X175389132Y-90896277D01*
X175374405Y-90899376D01*
X175361455Y-90903584D01*
X175348096Y-90909191D01*
X175343686Y-90911187D01*
X175312547Y-90928973D01*
X175288699Y-90951380D01*
X175271449Y-90979933D01*
X175260099Y-91016157D01*
X175253955Y-91061576D01*
X175252300Y-91111519D01*
X175254364Y-91164859D01*
X175261053Y-91207804D01*
X175273115Y-91242051D01*
X175291298Y-91269298D01*
X175316348Y-91291243D01*
X175336832Y-91303556D01*
X175369775Y-91320925D01*
X175628538Y-91322781D01*
X175887300Y-91324636D01*
X175887300Y-90714500D01*
X176212738Y-90714611D01*
X176291383Y-90714683D01*
X176358501Y-90714909D01*
X176415264Y-90715386D01*
X176462844Y-90716212D01*
X176502415Y-90717486D01*
X176535148Y-90719305D01*
X176562217Y-90721768D01*
X176584794Y-90724972D01*
X176604050Y-90729016D01*
X176621160Y-90733998D01*
X176637295Y-90740016D01*
X176653628Y-90747168D01*
X176664820Y-90752431D01*
X176716365Y-90783803D01*
X176759516Y-90824676D01*
X176794205Y-90874959D01*
X176820363Y-90934564D01*
X176831186Y-90971675D01*
X176837392Y-91007488D01*
X176841152Y-91051994D01*
X176842508Y-91101431D01*
X176841501Y-91152039D01*
X176838173Y-91200056D01*
X176832564Y-91241721D01*
X176827992Y-91262594D01*
X176806411Y-91324850D01*
X176777323Y-91377100D01*
X176740017Y-91420062D01*
X176693781Y-91454451D01*
X176637905Y-91480984D01*
X176598500Y-91493694D01*
X176590897Y-91495610D01*
X176582306Y-91497300D01*
X176571926Y-91498776D01*
X176558952Y-91500055D01*
X176542583Y-91501149D01*
X176522016Y-91502072D01*
X176496449Y-91502840D01*
X176465077Y-91503467D01*
X176427099Y-91503965D01*
X176381713Y-91504350D01*
X176328114Y-91504636D01*
X176265501Y-91504837D01*
X176193071Y-91504967D01*
X176110021Y-91505041D01*
X176015549Y-91505072D01*
X175953975Y-91505075D01*
X175350725Y-91505075D01*
X175298926Y-91487523D01*
X175245279Y-91464699D01*
X175198096Y-91435337D01*
X175158952Y-91400806D01*
X175129427Y-91362480D01*
X175112114Y-91325046D01*
X175105882Y-91308354D01*
X175100018Y-91296958D01*
X175099133Y-91295843D01*
X175097893Y-91300623D01*
X175096765Y-91317049D01*
X175095772Y-91344066D01*
X175094935Y-91380620D01*
X175094276Y-91425657D01*
X175093817Y-91478123D01*
X175093580Y-91536963D01*
X175093550Y-91567305D01*
X175093550Y-91844800D01*
X176655650Y-91844800D01*
X176655650Y-91647950D01*
X176820750Y-91647950D01*
X176820750Y-91845035D01*
X176968388Y-91843330D01*
X177116025Y-91841625D01*
X177117820Y-89365125D01*
X177117980Y-89122007D01*
X177118100Y-88891530D01*
X177118179Y-88673637D01*
X177118216Y-88468271D01*
X177118213Y-88275374D01*
G36*
X177118147Y-92702697D02*
G01*
X177117931Y-92599677D01*
X177117834Y-92568700D01*
X177116025Y-92032125D01*
X177052525Y-92030073D01*
X177019934Y-92029612D01*
X176980062Y-92029928D01*
X176938304Y-92030940D01*
X176905050Y-92032303D01*
X176821074Y-92036584D01*
X176819325Y-92132780D01*
X176817575Y-92228975D01*
X176736775Y-92230752D01*
X176655975Y-92232528D01*
X176654225Y-92132327D01*
X176652475Y-92032125D01*
X175873013Y-92030513D01*
X175093550Y-92028900D01*
X175093796Y-92300388D01*
X175094042Y-92571875D01*
X175118854Y-92520612D01*
X175144639Y-92476061D01*
X175175376Y-92440744D01*
X175213867Y-92411909D01*
X175248128Y-92393531D01*
X175275669Y-92381306D01*
X175302172Y-92371744D01*
X175329737Y-92364536D01*
X175360464Y-92359377D01*
X175396454Y-92355960D01*
X175439806Y-92353977D01*
X175492623Y-92353122D01*
X175525350Y-92353021D01*
X175584358Y-92353415D01*
X175632735Y-92354786D01*
X175672533Y-92357417D01*
X175705803Y-92361591D01*
X175734595Y-92367590D01*
X175760962Y-92375698D01*
X175786952Y-92386198D01*
X175796088Y-92390372D01*
X175838004Y-92415355D01*
X175879452Y-92450020D01*
X175917274Y-92491638D01*
X175925217Y-92502025D01*
X175934762Y-92515863D01*
X175949781Y-92538770D01*
X175969145Y-92568969D01*
X175991723Y-92604685D01*
X176016383Y-92644139D01*
X176041995Y-92685555D01*
X176042377Y-92686175D01*
X176068075Y-92727704D01*
X176092925Y-92767376D01*
X176115779Y-92803396D01*
X176135488Y-92833968D01*
X176150903Y-92857295D01*
X176160877Y-92871580D01*
X176160929Y-92871649D01*
X176183344Y-92897559D01*
X176208372Y-92917927D01*
X176237705Y-92933303D01*
X176273038Y-92944239D01*
X176316063Y-92951283D01*
X176368473Y-92954987D01*
X176420284Y-92955918D01*
X176472378Y-92955198D01*
X176513956Y-92952562D01*
X176547123Y-92947535D01*
X176573980Y-92939640D01*
X176596632Y-92928402D01*
X176617181Y-92913344D01*
X176620328Y-92910624D01*
X176638959Y-92892102D01*
X176652613Y-92872565D01*
X176661994Y-92849671D01*
X176667805Y-92821079D01*
X176670747Y-92784446D01*
X176671525Y-92739981D01*
X176671355Y-92704637D01*
X176670583Y-92679163D01*
X176668820Y-92660732D01*
X176665674Y-92646515D01*
X176660754Y-92633683D01*
X176655304Y-92622564D01*
X176634152Y-92592176D01*
X176605732Y-92566137D01*
X176574076Y-92547854D01*
X176561828Y-92543590D01*
X176548592Y-92541671D01*
X176524705Y-92539981D01*
X176492215Y-92538597D01*
X176453168Y-92537597D01*
X176409613Y-92537058D01*
X176387363Y-92536986D01*
X176236550Y-92536950D01*
X176236550Y-92447441D01*
X176236551Y-92357932D01*
X176406413Y-92360869D01*
X176461653Y-92361982D01*
X176505852Y-92363276D01*
X176540670Y-92364861D01*
X176567766Y-92366848D01*
X176588799Y-92369347D01*
X176605429Y-92372469D01*
X176614030Y-92374700D01*
X176668080Y-92394727D01*
X176716865Y-92421410D01*
X176731117Y-92431394D01*
X176764834Y-92464127D01*
X176793265Y-92507082D01*
X176815918Y-92558720D01*
X176832301Y-92617503D01*
X176841924Y-92681891D01*
X176844293Y-92750347D01*
X176842923Y-92781186D01*
X176833545Y-92857530D01*
X176816447Y-92923887D01*
X176791457Y-92980481D01*
X176758407Y-93027539D01*
X176717126Y-93065283D01*
X176667445Y-93093940D01*
X176609192Y-93113733D01*
X176587694Y-93118428D01*
X176552891Y-93123527D01*
X176509032Y-93127601D01*
X176459557Y-93130546D01*
X176407907Y-93132263D01*
X176357521Y-93132649D01*
X176311840Y-93131601D01*
X176274305Y-93129020D01*
X176265375Y-93127962D01*
X176200770Y-93115667D01*
X176145728Y-93096947D01*
X176098349Y-93070837D01*
X176056730Y-93036375D01*
X176032860Y-93010240D01*
X176020199Y-92993614D01*
X176002106Y-92967917D01*
X175979759Y-92934923D01*
X175954339Y-92896404D01*
X175927023Y-92854134D01*
X175898991Y-92809886D01*
X175889323Y-92794410D01*
X175854844Y-92739701D01*
X175823737Y-92691730D01*
X175796645Y-92651440D01*
X175774208Y-92619773D01*
X175757070Y-92597675D01*
X175750127Y-92589933D01*
X175734052Y-92574527D01*
X175718506Y-92562413D01*
X175701718Y-92553202D01*
X175681920Y-92546503D01*
X175657340Y-92541926D01*
X175626208Y-92539082D01*
X175586755Y-92537579D01*
X175537211Y-92537027D01*
X175509910Y-92536986D01*
X175465020Y-92537309D01*
X175424225Y-92538198D01*
X175389585Y-92539568D01*
X175363154Y-92541333D01*
X175346992Y-92543409D01*
X175345320Y-92543812D01*
X175321401Y-92555391D01*
X175296914Y-92575229D01*
X175275576Y-92599627D01*
X175261108Y-92624891D01*
X175259593Y-92629025D01*
X175255701Y-92646222D01*
X175252012Y-92672042D01*
X175249042Y-92702413D01*
X175247765Y-92722228D01*
X175247643Y-92782198D01*
X175254089Y-92832033D01*
X175267467Y-92872679D01*
X175288141Y-92905082D01*
X175316474Y-92930189D01*
X175331074Y-92938962D01*
X175339521Y-92943153D01*
X175348437Y-92946436D01*
X175359469Y-92948946D01*
X175374267Y-92950816D01*
X175394480Y-92952180D01*
X175421756Y-92953171D01*
X175457746Y-92953923D01*
X175504096Y-92954570D01*
X175526938Y-92954842D01*
X175696800Y-92956808D01*
X175696800Y-93133850D01*
X175540958Y-93133850D01*
X175478649Y-93133478D01*
X175427118Y-93132183D01*
X175384457Y-93129701D01*
X175348760Y-93125766D01*
X175318121Y-93120112D01*
X175290633Y-93112474D01*
X175264391Y-93102587D01*
X175241493Y-93092144D01*
X175194463Y-93063959D01*
X175156721Y-93028805D01*
X175126132Y-92984543D01*
X175117367Y-92967825D01*
X175094408Y-92921125D01*
X175094617Y-93044950D01*
X175094968Y-93085045D01*
X175095819Y-93122294D01*
X175097074Y-93154246D01*
X175098636Y-93178450D01*
X175100408Y-93192455D01*
X175100445Y-93192614D01*
X175115075Y-93232999D01*
X175138970Y-93274467D01*
X175169507Y-93313628D01*
X175204063Y-93347092D01*
X175238021Y-93370410D01*
X175247716Y-93375757D01*
X175256462Y-93380561D01*
X175264956Y-93384849D01*
X175273892Y-93388649D01*
X175283968Y-93391988D01*
X175295878Y-93394895D01*
X175310318Y-93397396D01*
X175327983Y-93399519D01*
X175349569Y-93401293D01*
X175375772Y-93402744D01*
X175407288Y-93403900D01*
X175444811Y-93404789D01*
X175489038Y-93405439D01*
X175540664Y-93405877D01*
X175600385Y-93406130D01*
X175668896Y-93406227D01*
X175746893Y-93406196D01*
X175835071Y-93406063D01*
X175934127Y-93405856D01*
X176044755Y-93405603D01*
X176119535Y-93405436D01*
X176900125Y-93403725D01*
X176947750Y-93380418D01*
X177001241Y-93347782D01*
X177045178Y-93307219D01*
X177079020Y-93259469D01*
X177102224Y-93205269D01*
X177113133Y-93155038D01*
X177114384Y-93138549D01*
X177115463Y-93109780D01*
X177116367Y-93069148D01*
X177117093Y-93017072D01*
X177117638Y-92953971D01*
X177117997Y-92880262D01*
X177118168Y-92796365D01*
X177118147Y-92702697D01*
G37*
X177118147Y-92702697D02*
X177117931Y-92599677D01*
X177117834Y-92568700D01*
X177116025Y-92032125D01*
X177052525Y-92030073D01*
X177019934Y-92029612D01*
X176980062Y-92029928D01*
X176938304Y-92030940D01*
X176905050Y-92032303D01*
X176821074Y-92036584D01*
X176819325Y-92132780D01*
X176817575Y-92228975D01*
X176736775Y-92230752D01*
X176655975Y-92232528D01*
X176654225Y-92132327D01*
X176652475Y-92032125D01*
X175873013Y-92030513D01*
X175093550Y-92028900D01*
X175093796Y-92300388D01*
X175094042Y-92571875D01*
X175118854Y-92520612D01*
X175144639Y-92476061D01*
X175175376Y-92440744D01*
X175213867Y-92411909D01*
X175248128Y-92393531D01*
X175275669Y-92381306D01*
X175302172Y-92371744D01*
X175329737Y-92364536D01*
X175360464Y-92359377D01*
X175396454Y-92355960D01*
X175439806Y-92353977D01*
X175492623Y-92353122D01*
X175525350Y-92353021D01*
X175584358Y-92353415D01*
X175632735Y-92354786D01*
X175672533Y-92357417D01*
X175705803Y-92361591D01*
X175734595Y-92367590D01*
X175760962Y-92375698D01*
X175786952Y-92386198D01*
X175796088Y-92390372D01*
X175838004Y-92415355D01*
X175879452Y-92450020D01*
X175917274Y-92491638D01*
X175925217Y-92502025D01*
X175934762Y-92515863D01*
X175949781Y-92538770D01*
X175969145Y-92568969D01*
X175991723Y-92604685D01*
X176016383Y-92644139D01*
X176041995Y-92685555D01*
X176042377Y-92686175D01*
X176068075Y-92727704D01*
X176092925Y-92767376D01*
X176115779Y-92803396D01*
X176135488Y-92833968D01*
X176150903Y-92857295D01*
X176160877Y-92871580D01*
X176160929Y-92871649D01*
X176183344Y-92897559D01*
X176208372Y-92917927D01*
X176237705Y-92933303D01*
X176273038Y-92944239D01*
X176316063Y-92951283D01*
X176368473Y-92954987D01*
X176420284Y-92955918D01*
X176472378Y-92955198D01*
X176513956Y-92952562D01*
X176547123Y-92947535D01*
X176573980Y-92939640D01*
X176596632Y-92928402D01*
X176617181Y-92913344D01*
X176620328Y-92910624D01*
X176638959Y-92892102D01*
X176652613Y-92872565D01*
X176661994Y-92849671D01*
X176667805Y-92821079D01*
X176670747Y-92784446D01*
X176671525Y-92739981D01*
X176671355Y-92704637D01*
X176670583Y-92679163D01*
X176668820Y-92660732D01*
X176665674Y-92646515D01*
X176660754Y-92633683D01*
X176655304Y-92622564D01*
X176634152Y-92592176D01*
X176605732Y-92566137D01*
X176574076Y-92547854D01*
X176561828Y-92543590D01*
X176548592Y-92541671D01*
X176524705Y-92539981D01*
X176492215Y-92538597D01*
X176453168Y-92537597D01*
X176409613Y-92537058D01*
X176387363Y-92536986D01*
X176236550Y-92536950D01*
X176236550Y-92447441D01*
X176236551Y-92357932D01*
X176406413Y-92360869D01*
X176461653Y-92361982D01*
X176505852Y-92363276D01*
X176540670Y-92364861D01*
X176567766Y-92366848D01*
X176588799Y-92369347D01*
X176605429Y-92372469D01*
X176614030Y-92374700D01*
X176668080Y-92394727D01*
X176716865Y-92421410D01*
X176731117Y-92431394D01*
X176764834Y-92464127D01*
X176793265Y-92507082D01*
X176815918Y-92558720D01*
X176832301Y-92617503D01*
X176841924Y-92681891D01*
X176844293Y-92750347D01*
X176842923Y-92781186D01*
X176833545Y-92857530D01*
X176816447Y-92923887D01*
X176791457Y-92980481D01*
X176758407Y-93027539D01*
X176717126Y-93065283D01*
X176667445Y-93093940D01*
X176609192Y-93113733D01*
X176587694Y-93118428D01*
X176552891Y-93123527D01*
X176509032Y-93127601D01*
X176459557Y-93130546D01*
X176407907Y-93132263D01*
X176357521Y-93132649D01*
X176311840Y-93131601D01*
X176274305Y-93129020D01*
X176265375Y-93127962D01*
X176200770Y-93115667D01*
X176145728Y-93096947D01*
X176098349Y-93070837D01*
X176056730Y-93036375D01*
X176032860Y-93010240D01*
X176020199Y-92993614D01*
X176002106Y-92967917D01*
X175979759Y-92934923D01*
X175954339Y-92896404D01*
X175927023Y-92854134D01*
X175898991Y-92809886D01*
X175889323Y-92794410D01*
X175854844Y-92739701D01*
X175823737Y-92691730D01*
X175796645Y-92651440D01*
X175774208Y-92619773D01*
X175757070Y-92597675D01*
X175750127Y-92589933D01*
X175734052Y-92574527D01*
X175718506Y-92562413D01*
X175701718Y-92553202D01*
X175681920Y-92546503D01*
X175657340Y-92541926D01*
X175626208Y-92539082D01*
X175586755Y-92537579D01*
X175537211Y-92537027D01*
X175509910Y-92536986D01*
X175465020Y-92537309D01*
X175424225Y-92538198D01*
X175389585Y-92539568D01*
X175363154Y-92541333D01*
X175346992Y-92543409D01*
X175345320Y-92543812D01*
X175321401Y-92555391D01*
X175296914Y-92575229D01*
X175275576Y-92599627D01*
X175261108Y-92624891D01*
X175259593Y-92629025D01*
X175255701Y-92646222D01*
X175252012Y-92672042D01*
X175249042Y-92702413D01*
X175247765Y-92722228D01*
X175247643Y-92782198D01*
X175254089Y-92832033D01*
X175267467Y-92872679D01*
X175288141Y-92905082D01*
X175316474Y-92930189D01*
X175331074Y-92938962D01*
X175339521Y-92943153D01*
X175348437Y-92946436D01*
X175359469Y-92948946D01*
X175374267Y-92950816D01*
X175394480Y-92952180D01*
X175421756Y-92953171D01*
X175457746Y-92953923D01*
X175504096Y-92954570D01*
X175526938Y-92954842D01*
X175696800Y-92956808D01*
X175696800Y-93133850D01*
X175540958Y-93133850D01*
X175478649Y-93133478D01*
X175427118Y-93132183D01*
X175384457Y-93129701D01*
X175348760Y-93125766D01*
X175318121Y-93120112D01*
X175290633Y-93112474D01*
X175264391Y-93102587D01*
X175241493Y-93092144D01*
X175194463Y-93063959D01*
X175156721Y-93028805D01*
X175126132Y-92984543D01*
X175117367Y-92967825D01*
X175094408Y-92921125D01*
X175094617Y-93044950D01*
X175094968Y-93085045D01*
X175095819Y-93122294D01*
X175097074Y-93154246D01*
X175098636Y-93178450D01*
X175100408Y-93192455D01*
X175100445Y-93192614D01*
X175115075Y-93232999D01*
X175138970Y-93274467D01*
X175169507Y-93313628D01*
X175204063Y-93347092D01*
X175238021Y-93370410D01*
X175247716Y-93375757D01*
X175256462Y-93380561D01*
X175264956Y-93384849D01*
X175273892Y-93388649D01*
X175283968Y-93391988D01*
X175295878Y-93394895D01*
X175310318Y-93397396D01*
X175327983Y-93399519D01*
X175349569Y-93401293D01*
X175375772Y-93402744D01*
X175407288Y-93403900D01*
X175444811Y-93404789D01*
X175489038Y-93405439D01*
X175540664Y-93405877D01*
X175600385Y-93406130D01*
X175668896Y-93406227D01*
X175746893Y-93406196D01*
X175835071Y-93406063D01*
X175934127Y-93405856D01*
X176044755Y-93405603D01*
X176119535Y-93405436D01*
X176900125Y-93403725D01*
X176947750Y-93380418D01*
X177001241Y-93347782D01*
X177045178Y-93307219D01*
X177079020Y-93259469D01*
X177102224Y-93205269D01*
X177113133Y-93155038D01*
X177114384Y-93138549D01*
X177115463Y-93109780D01*
X177116367Y-93069148D01*
X177117093Y-93017072D01*
X177117638Y-92953971D01*
X177117997Y-92880262D01*
X177118168Y-92796365D01*
X177118147Y-92702697D01*
G36*
X177131389Y-85866264D02*
G01*
X177129752Y-85822190D01*
X177126957Y-85784246D01*
X177123002Y-85755549D01*
X177122587Y-85753517D01*
X177104264Y-85694891D01*
X177075955Y-85642571D01*
X177038650Y-85597857D01*
X176993339Y-85562046D01*
X176964518Y-85546214D01*
X176953419Y-85540938D01*
X176943181Y-85536211D01*
X176933081Y-85532004D01*
X176922394Y-85528285D01*
X176910398Y-85525026D01*
X176896369Y-85522195D01*
X176879584Y-85519763D01*
X176859319Y-85517699D01*
X176834851Y-85515973D01*
X176805456Y-85514555D01*
X176770412Y-85513415D01*
X176728994Y-85512522D01*
X176680479Y-85511847D01*
X176624145Y-85511360D01*
X176559267Y-85511029D01*
X176485121Y-85510825D01*
X176400986Y-85510718D01*
X176306137Y-85510677D01*
X176199850Y-85510673D01*
X176112725Y-85510675D01*
X175997613Y-85510661D01*
X175894474Y-85510644D01*
X175802579Y-85510663D01*
X175721202Y-85510755D01*
X175649615Y-85510960D01*
X175587091Y-85511316D01*
X175532902Y-85511861D01*
X175486321Y-85512633D01*
X175446620Y-85513671D01*
X175413072Y-85515013D01*
X175384950Y-85516698D01*
X175361526Y-85518764D01*
X175342072Y-85521250D01*
X175325862Y-85524193D01*
X175312168Y-85527632D01*
X175300261Y-85531606D01*
X175289416Y-85536153D01*
X175278904Y-85541312D01*
X175267998Y-85547120D01*
X175255971Y-85553616D01*
X175251219Y-85556134D01*
X175203725Y-85588007D01*
X175164875Y-85628811D01*
X175140407Y-85667838D01*
X175130918Y-85684702D01*
X175122988Y-85695650D01*
X175119724Y-85698000D01*
X175115009Y-85692545D01*
X175107102Y-85678008D01*
X175097445Y-85657133D01*
X175093897Y-85648788D01*
X175073207Y-85599751D01*
X175054538Y-85556912D01*
X175038402Y-85521368D01*
X175025313Y-85494217D01*
X175015784Y-85476557D01*
X175010330Y-85469485D01*
X175009974Y-85469400D01*
X175003351Y-85472635D01*
X174988920Y-85481280D01*
X174969100Y-85493749D01*
X174946311Y-85508455D01*
X174922973Y-85523810D01*
X174901504Y-85538229D01*
X174884325Y-85550123D01*
X174873855Y-85557906D01*
X174871798Y-85560030D01*
X174875113Y-85565605D01*
X174884189Y-85580558D01*
X174898145Y-85603442D01*
X174916098Y-85632812D01*
X174937164Y-85667223D01*
X174957976Y-85701175D01*
X174988317Y-85750618D01*
X175012771Y-85790716D01*
X175031999Y-85823011D01*
X175046658Y-85849042D01*
X175057407Y-85870350D01*
X175064905Y-85888475D01*
X175069811Y-85904956D01*
X175072784Y-85921334D01*
X175074482Y-85939149D01*
X175075565Y-85959940D01*
X175076345Y-85977871D01*
X175083643Y-86051038D01*
X175098713Y-86114391D01*
X175121966Y-86168463D01*
X175153811Y-86213788D01*
X175194659Y-86250901D01*
X175244919Y-86280334D01*
X175305003Y-86302622D01*
X175331066Y-86309465D01*
X175339658Y-86310716D01*
X175354651Y-86311838D01*
X175376564Y-86312836D01*
X175405920Y-86313715D01*
X175443238Y-86314480D01*
X175489040Y-86315136D01*
X175543846Y-86315689D01*
X175608176Y-86316144D01*
X175682553Y-86316506D01*
X175767495Y-86316780D01*
X175863525Y-86316971D01*
X175878684Y-86316986D01*
X175878684Y-86141457D01*
X175772754Y-86141414D01*
X175678849Y-86141221D01*
X175597056Y-86140880D01*
X175527466Y-86140391D01*
X175470168Y-86139754D01*
X175425252Y-86138971D01*
X175392808Y-86138041D01*
X175372925Y-86136965D01*
X175367430Y-86136322D01*
X175326595Y-86123134D01*
X175292538Y-86100376D01*
X175267119Y-86069325D01*
X175265370Y-86066260D01*
X175256214Y-86048209D01*
X175249593Y-86030553D01*
X175245172Y-86010858D01*
X175242614Y-85986691D01*
X175241583Y-85955620D01*
X175241745Y-85915212D01*
X175242042Y-85897235D01*
X175242923Y-85859277D01*
X175244160Y-85831428D01*
X175246103Y-85811098D01*
X175249101Y-85795695D01*
X175253506Y-85782628D01*
X175259180Y-85770282D01*
X175282673Y-85736666D01*
X175314918Y-85710563D01*
X175353188Y-85694054D01*
X175361757Y-85691997D01*
X175372558Y-85690802D01*
X175392933Y-85689754D01*
X175423178Y-85688852D01*
X175463591Y-85688092D01*
X175514470Y-85687474D01*
X175576112Y-85686995D01*
X175648814Y-85686653D01*
X175732874Y-85686445D01*
X175828589Y-85686371D01*
X175936256Y-85686428D01*
X176056173Y-85686613D01*
X176122302Y-85686757D01*
X176233760Y-85687022D01*
X176333230Y-85687273D01*
X176421425Y-85687522D01*
X176499057Y-85687785D01*
X176566838Y-85688076D01*
X176625480Y-85688408D01*
X176675695Y-85688797D01*
X176718197Y-85689256D01*
X176753696Y-85689800D01*
X176782906Y-85690443D01*
X176806539Y-85691200D01*
X176825306Y-85692084D01*
X176839921Y-85693111D01*
X176851095Y-85694294D01*
X176859541Y-85695648D01*
X176865971Y-85697187D01*
X176871097Y-85698925D01*
X176875632Y-85700877D01*
X176877900Y-85701937D01*
X176910632Y-85722670D01*
X176937699Y-85752164D01*
X176953726Y-85777827D01*
X176958780Y-85787762D01*
X176962407Y-85797684D01*
X176964793Y-85809749D01*
X176966122Y-85826114D01*
X176966580Y-85848934D01*
X176966351Y-85880366D01*
X176965716Y-85917527D01*
X176964400Y-85965336D01*
X176962109Y-86002492D01*
X176958284Y-86031034D01*
X176952366Y-86053003D01*
X176943795Y-86070437D01*
X176932012Y-86085377D01*
X176916458Y-86099863D01*
X176915512Y-86100662D01*
X176908833Y-86106522D01*
X176903020Y-86111759D01*
X176897361Y-86116410D01*
X176891145Y-86120511D01*
X176883662Y-86124099D01*
X176874200Y-86127210D01*
X176862049Y-86129880D01*
X176846499Y-86132146D01*
X176826837Y-86134044D01*
X176802353Y-86135611D01*
X176772336Y-86136883D01*
X176736076Y-86137897D01*
X176692861Y-86138689D01*
X176641980Y-86139294D01*
X176582723Y-86139751D01*
X176514378Y-86140095D01*
X176436236Y-86140363D01*
X176347584Y-86140590D01*
X176247712Y-86140814D01*
X176135909Y-86141071D01*
X176126255Y-86141095D01*
X175996547Y-86141351D01*
X175878684Y-86141457D01*
X175878684Y-86316986D01*
X175971163Y-86317084D01*
X176090929Y-86317125D01*
X176103200Y-86317125D01*
X176218734Y-86317132D01*
X176322293Y-86317131D01*
X176414604Y-86317087D01*
X176496392Y-86316969D01*
X176568383Y-86316743D01*
X176631302Y-86316375D01*
X176685876Y-86315833D01*
X176732829Y-86315083D01*
X176772889Y-86314092D01*
X176806780Y-86312828D01*
X176835228Y-86311255D01*
X176858959Y-86309343D01*
X176878698Y-86307057D01*
X176895172Y-86304363D01*
X176909107Y-86301230D01*
X176921226Y-86297623D01*
X176932258Y-86293510D01*
X176942926Y-86288858D01*
X176953958Y-86283632D01*
X176966078Y-86277800D01*
X176966426Y-86277634D01*
X177016758Y-86247008D01*
X177058262Y-86207325D01*
X177090751Y-86158836D01*
X177114034Y-86101795D01*
X177122306Y-86069475D01*
X177126416Y-86041512D01*
X177129382Y-86004092D01*
X177131201Y-85960332D01*
X177131871Y-85913350D01*
X177131389Y-85866264D01*
G37*
X177131389Y-85866264D02*
X177129752Y-85822190D01*
X177126957Y-85784246D01*
X177123002Y-85755549D01*
X177122587Y-85753517D01*
X177104264Y-85694891D01*
X177075955Y-85642571D01*
X177038650Y-85597857D01*
X176993339Y-85562046D01*
X176964518Y-85546214D01*
X176953419Y-85540938D01*
X176943181Y-85536211D01*
X176933081Y-85532004D01*
X176922394Y-85528285D01*
X176910398Y-85525026D01*
X176896369Y-85522195D01*
X176879584Y-85519763D01*
X176859319Y-85517699D01*
X176834851Y-85515973D01*
X176805456Y-85514555D01*
X176770412Y-85513415D01*
X176728994Y-85512522D01*
X176680479Y-85511847D01*
X176624145Y-85511360D01*
X176559267Y-85511029D01*
X176485121Y-85510825D01*
X176400986Y-85510718D01*
X176306137Y-85510677D01*
X176199850Y-85510673D01*
X176112725Y-85510675D01*
X175997613Y-85510661D01*
X175894474Y-85510644D01*
X175802579Y-85510663D01*
X175721202Y-85510755D01*
X175649615Y-85510960D01*
X175587091Y-85511316D01*
X175532902Y-85511861D01*
X175486321Y-85512633D01*
X175446620Y-85513671D01*
X175413072Y-85515013D01*
X175384950Y-85516698D01*
X175361526Y-85518764D01*
X175342072Y-85521250D01*
X175325862Y-85524193D01*
X175312168Y-85527632D01*
X175300261Y-85531606D01*
X175289416Y-85536153D01*
X175278904Y-85541312D01*
X175267998Y-85547120D01*
X175255971Y-85553616D01*
X175251219Y-85556134D01*
X175203725Y-85588007D01*
X175164875Y-85628811D01*
X175140407Y-85667838D01*
X175130918Y-85684702D01*
X175122988Y-85695650D01*
X175119724Y-85698000D01*
X175115009Y-85692545D01*
X175107102Y-85678008D01*
X175097445Y-85657133D01*
X175093897Y-85648788D01*
X175073207Y-85599751D01*
X175054538Y-85556912D01*
X175038402Y-85521368D01*
X175025313Y-85494217D01*
X175015784Y-85476557D01*
X175010330Y-85469485D01*
X175009974Y-85469400D01*
X175003351Y-85472635D01*
X174988920Y-85481280D01*
X174969100Y-85493749D01*
X174946311Y-85508455D01*
X174922973Y-85523810D01*
X174901504Y-85538229D01*
X174884325Y-85550123D01*
X174873855Y-85557906D01*
X174871798Y-85560030D01*
X174875113Y-85565605D01*
X174884189Y-85580558D01*
X174898145Y-85603442D01*
X174916098Y-85632812D01*
X174937164Y-85667223D01*
X174957976Y-85701175D01*
X174988317Y-85750618D01*
X175012771Y-85790716D01*
X175031999Y-85823011D01*
X175046658Y-85849042D01*
X175057407Y-85870350D01*
X175064905Y-85888475D01*
X175069811Y-85904956D01*
X175072784Y-85921334D01*
X175074482Y-85939149D01*
X175075565Y-85959940D01*
X175076345Y-85977871D01*
X175083643Y-86051038D01*
X175098713Y-86114391D01*
X175121966Y-86168463D01*
X175153811Y-86213788D01*
X175194659Y-86250901D01*
X175244919Y-86280334D01*
X175305003Y-86302622D01*
X175331066Y-86309465D01*
X175339658Y-86310716D01*
X175354651Y-86311838D01*
X175376564Y-86312836D01*
X175405920Y-86313715D01*
X175443238Y-86314480D01*
X175489040Y-86315136D01*
X175543846Y-86315689D01*
X175608176Y-86316144D01*
X175682553Y-86316506D01*
X175767495Y-86316780D01*
X175863525Y-86316971D01*
X175878684Y-86316986D01*
X175878684Y-86141457D01*
X175772754Y-86141414D01*
X175678849Y-86141221D01*
X175597056Y-86140880D01*
X175527466Y-86140391D01*
X175470168Y-86139754D01*
X175425252Y-86138971D01*
X175392808Y-86138041D01*
X175372925Y-86136965D01*
X175367430Y-86136322D01*
X175326595Y-86123134D01*
X175292538Y-86100376D01*
X175267119Y-86069325D01*
X175265370Y-86066260D01*
X175256214Y-86048209D01*
X175249593Y-86030553D01*
X175245172Y-86010858D01*
X175242614Y-85986691D01*
X175241583Y-85955620D01*
X175241745Y-85915212D01*
X175242042Y-85897235D01*
X175242923Y-85859277D01*
X175244160Y-85831428D01*
X175246103Y-85811098D01*
X175249101Y-85795695D01*
X175253506Y-85782628D01*
X175259180Y-85770282D01*
X175282673Y-85736666D01*
X175314918Y-85710563D01*
X175353188Y-85694054D01*
X175361757Y-85691997D01*
X175372558Y-85690802D01*
X175392933Y-85689754D01*
X175423178Y-85688852D01*
X175463591Y-85688092D01*
X175514470Y-85687474D01*
X175576112Y-85686995D01*
X175648814Y-85686653D01*
X175732874Y-85686445D01*
X175828589Y-85686371D01*
X175936256Y-85686428D01*
X176056173Y-85686613D01*
X176122302Y-85686757D01*
X176233760Y-85687022D01*
X176333230Y-85687273D01*
X176421425Y-85687522D01*
X176499057Y-85687785D01*
X176566838Y-85688076D01*
X176625480Y-85688408D01*
X176675695Y-85688797D01*
X176718197Y-85689256D01*
X176753696Y-85689800D01*
X176782906Y-85690443D01*
X176806539Y-85691200D01*
X176825306Y-85692084D01*
X176839921Y-85693111D01*
X176851095Y-85694294D01*
X176859541Y-85695648D01*
X176865971Y-85697187D01*
X176871097Y-85698925D01*
X176875632Y-85700877D01*
X176877900Y-85701937D01*
X176910632Y-85722670D01*
X176937699Y-85752164D01*
X176953726Y-85777827D01*
X176958780Y-85787762D01*
X176962407Y-85797684D01*
X176964793Y-85809749D01*
X176966122Y-85826114D01*
X176966580Y-85848934D01*
X176966351Y-85880366D01*
X176965716Y-85917527D01*
X176964400Y-85965336D01*
X176962109Y-86002492D01*
X176958284Y-86031034D01*
X176952366Y-86053003D01*
X176943795Y-86070437D01*
X176932012Y-86085377D01*
X176916458Y-86099863D01*
X176915512Y-86100662D01*
X176908833Y-86106522D01*
X176903020Y-86111759D01*
X176897361Y-86116410D01*
X176891145Y-86120511D01*
X176883662Y-86124099D01*
X176874200Y-86127210D01*
X176862049Y-86129880D01*
X176846499Y-86132146D01*
X176826837Y-86134044D01*
X176802353Y-86135611D01*
X176772336Y-86136883D01*
X176736076Y-86137897D01*
X176692861Y-86138689D01*
X176641980Y-86139294D01*
X176582723Y-86139751D01*
X176514378Y-86140095D01*
X176436236Y-86140363D01*
X176347584Y-86140590D01*
X176247712Y-86140814D01*
X176135909Y-86141071D01*
X176126255Y-86141095D01*
X175996547Y-86141351D01*
X175878684Y-86141457D01*
X175878684Y-86316986D01*
X175971163Y-86317084D01*
X176090929Y-86317125D01*
X176103200Y-86317125D01*
X176218734Y-86317132D01*
X176322293Y-86317131D01*
X176414604Y-86317087D01*
X176496392Y-86316969D01*
X176568383Y-86316743D01*
X176631302Y-86316375D01*
X176685876Y-86315833D01*
X176732829Y-86315083D01*
X176772889Y-86314092D01*
X176806780Y-86312828D01*
X176835228Y-86311255D01*
X176858959Y-86309343D01*
X176878698Y-86307057D01*
X176895172Y-86304363D01*
X176909107Y-86301230D01*
X176921226Y-86297623D01*
X176932258Y-86293510D01*
X176942926Y-86288858D01*
X176953958Y-86283632D01*
X176966078Y-86277800D01*
X176966426Y-86277634D01*
X177016758Y-86247008D01*
X177058262Y-86207325D01*
X177090751Y-86158836D01*
X177114034Y-86101795D01*
X177122306Y-86069475D01*
X177126416Y-86041512D01*
X177129382Y-86004092D01*
X177131201Y-85960332D01*
X177131871Y-85913350D01*
X177131389Y-85866264D01*
G36*
X174598250Y-88066550D02*
G01*
X174598250Y-88273125D01*
X174598358Y-88332682D01*
X174598707Y-88380592D01*
X174599337Y-88417906D01*
X174600289Y-88445674D01*
X174601603Y-88464947D01*
X174603319Y-88476777D01*
X174605477Y-88482214D01*
X174606246Y-88482767D01*
X174614362Y-88483470D01*
X174633581Y-88484010D01*
X174662305Y-88484378D01*
X174698938Y-88484563D01*
X174741885Y-88484553D01*
X174789547Y-88484339D01*
X174814209Y-88484156D01*
X175014175Y-88482475D01*
X175015850Y-88274513D01*
X175017524Y-88066550D01*
X174598250Y-88066550D01*
G37*
X174598250Y-88066550D02*
X174598250Y-88273125D01*
X174598358Y-88332682D01*
X174598707Y-88380592D01*
X174599337Y-88417906D01*
X174600289Y-88445674D01*
X174601603Y-88464947D01*
X174603319Y-88476777D01*
X174605477Y-88482214D01*
X174606246Y-88482767D01*
X174614362Y-88483470D01*
X174633581Y-88484010D01*
X174662305Y-88484378D01*
X174698938Y-88484563D01*
X174741885Y-88484553D01*
X174789547Y-88484339D01*
X174814209Y-88484156D01*
X175014175Y-88482475D01*
X175015850Y-88274513D01*
X175017524Y-88066550D01*
X174598250Y-88066550D01*
G36*
X175015992Y-88887023D02*
G01*
X175015854Y-88869395D01*
X175014175Y-88666625D01*
X174806213Y-88664951D01*
X174598250Y-88663277D01*
X174598250Y-89082550D01*
X174799863Y-89082453D01*
X174849467Y-89082274D01*
X174895144Y-89081812D01*
X174935304Y-89081105D01*
X174968357Y-89080195D01*
X174992714Y-89079119D01*
X175006784Y-89077918D01*
X175009504Y-89077260D01*
X175011813Y-89073067D01*
X175013606Y-89063032D01*
X175014915Y-89046064D01*
X175015776Y-89021071D01*
X175016219Y-88986961D01*
X175016280Y-88942643D01*
X175015992Y-88887023D01*
G37*
X175015992Y-88887023D02*
X175015854Y-88869395D01*
X175014175Y-88666625D01*
X174806213Y-88664951D01*
X174598250Y-88663277D01*
X174598250Y-89082550D01*
X174799863Y-89082453D01*
X174849467Y-89082274D01*
X174895144Y-89081812D01*
X174935304Y-89081105D01*
X174968357Y-89080195D01*
X174992714Y-89079119D01*
X175006784Y-89077918D01*
X175009504Y-89077260D01*
X175011813Y-89073067D01*
X175013606Y-89063032D01*
X175014915Y-89046064D01*
X175015776Y-89021071D01*
X175016219Y-88986961D01*
X175016280Y-88942643D01*
X175015992Y-88887023D01*
G36*
X174598250Y-89266700D02*
G01*
X174598250Y-89679624D01*
X174806213Y-89677950D01*
X175014175Y-89676275D01*
X175015851Y-89471488D01*
X175017526Y-89266700D01*
X174598250Y-89266700D01*
G37*
X174598250Y-89266700D02*
X174598250Y-89679624D01*
X174806213Y-89677950D01*
X175014175Y-89676275D01*
X175015851Y-89471488D01*
X175017526Y-89266700D01*
X174598250Y-89266700D01*
G36*
X174598250Y-89863600D02*
G01*
X174598250Y-90276350D01*
X175017350Y-90276350D01*
X175017350Y-89863600D01*
X174598250Y-89863600D01*
G37*
X174598250Y-89863600D02*
X174598250Y-90276350D01*
X175017350Y-90276350D01*
X175017350Y-89863600D01*
X174598250Y-89863600D01*
D10*
X153610000Y-91597000D02*
X153610000Y-91547000D01*
X151190000Y-91597000D02*
X151190000Y-91547000D01*
X153610000Y-96667000D02*
X153610000Y-96617000D01*
X151190000Y-96667000D02*
X151190000Y-96617000D01*
X149810000Y-96617000D02*
X151190000Y-96617000D01*
X151190000Y-91547000D02*
X153610000Y-91547000D01*
X151190000Y-96667000D02*
X153610000Y-96667000D01*
X162814000Y-97048000D02*
X159364000Y-97048000D01*
X162814000Y-97048000D02*
X164764000Y-97048000D01*
X162814000Y-91928000D02*
X160864000Y-91928000D01*
X162814000Y-91928000D02*
X164764000Y-91928000D01*
D13*
X153757142Y-98071761D02*
X153614285Y-98119380D01*
X153376190Y-98119380D01*
X153280952Y-98071761D01*
X153233333Y-98024142D01*
X153185714Y-97928904D01*
X153185714Y-97833666D01*
X153233333Y-97738428D01*
X153280952Y-97690809D01*
X153376190Y-97643190D01*
X153566666Y-97595571D01*
X153661904Y-97547952D01*
X153709523Y-97500333D01*
X153757142Y-97405095D01*
X153757142Y-97309857D01*
X153709523Y-97214619D01*
X153661904Y-97167000D01*
X153566666Y-97119380D01*
X153328571Y-97119380D01*
X153185714Y-97167000D01*
X152852380Y-97119380D02*
X152614285Y-98119380D01*
X152423809Y-97405095D01*
X152233333Y-98119380D01*
X151995238Y-97119380D01*
X151614285Y-98119380D02*
X151614285Y-97119380D01*
X151376190Y-97119380D01*
X151233333Y-97167000D01*
X151138095Y-97262238D01*
X151090476Y-97357476D01*
X151042857Y-97547952D01*
X151042857Y-97690809D01*
X151090476Y-97881285D01*
X151138095Y-97976523D01*
X151233333Y-98071761D01*
X151376190Y-98119380D01*
X151614285Y-98119380D01*
X166480666Y-98292761D02*
X166337809Y-98340380D01*
X166099714Y-98340380D01*
X166004476Y-98292761D01*
X165956857Y-98245142D01*
X165909238Y-98149904D01*
X165909238Y-98054666D01*
X165956857Y-97959428D01*
X166004476Y-97911809D01*
X166099714Y-97864190D01*
X166290190Y-97816571D01*
X166385428Y-97768952D01*
X166433047Y-97721333D01*
X166480666Y-97626095D01*
X166480666Y-97530857D01*
X166433047Y-97435619D01*
X166385428Y-97388000D01*
X166290190Y-97340380D01*
X166052095Y-97340380D01*
X165909238Y-97388000D01*
X165480666Y-98340380D02*
X165480666Y-97340380D01*
X165099714Y-97340380D01*
X165004476Y-97388000D01*
X164956857Y-97435619D01*
X164909238Y-97530857D01*
X164909238Y-97673714D01*
X164956857Y-97768952D01*
X165004476Y-97816571D01*
X165099714Y-97864190D01*
X165480666Y-97864190D01*
X164480666Y-98340380D02*
X164480666Y-97340380D01*
X162909238Y-97816571D02*
X163242571Y-97816571D01*
X163242571Y-98340380D02*
X163242571Y-97340380D01*
X162766380Y-97340380D01*
X161909238Y-98340380D02*
X162385428Y-98340380D01*
X162385428Y-97340380D01*
X161623523Y-98054666D02*
X161147333Y-98054666D01*
X161718761Y-98340380D02*
X161385428Y-97340380D01*
X161052095Y-98340380D01*
X160766380Y-98292761D02*
X160623523Y-98340380D01*
X160385428Y-98340380D01*
X160290190Y-98292761D01*
X160242571Y-98245142D01*
X160194952Y-98149904D01*
X160194952Y-98054666D01*
X160242571Y-97959428D01*
X160290190Y-97911809D01*
X160385428Y-97864190D01*
X160575904Y-97816571D01*
X160671142Y-97768952D01*
X160718761Y-97721333D01*
X160766380Y-97626095D01*
X160766380Y-97530857D01*
X160718761Y-97435619D01*
X160671142Y-97388000D01*
X160575904Y-97340380D01*
X160337809Y-97340380D01*
X160194952Y-97388000D01*
X159766380Y-98340380D02*
X159766380Y-97340380D01*
X159766380Y-97816571D02*
X159194952Y-97816571D01*
X159194952Y-98340380D02*
X159194952Y-97340380D01*
M02*
