G04 #@! TF.GenerationSoftware,KiCad,Pcbnew,(5.1.7-0-10_14)*
G04 #@! TF.CreationDate,2020-10-21T09:18:26+08:00*
G04 #@! TF.ProjectId,Feather_STM32WB55,46656174-6865-4725-9f53-544d33325742,rev?*
G04 #@! TF.SameCoordinates,Original*
G04 #@! TF.FileFunction,Copper,L2,Inr*
G04 #@! TF.FilePolarity,Positive*
%FSLAX46Y46*%
G04 Gerber Fmt 4.6, Leading zero omitted, Abs format (unit mm)*
G04 Created by KiCad (PCBNEW (5.1.7-0-10_14)) date 2020-10-21 09:18:26*
%MOMM*%
%LPD*%
G01*
G04 APERTURE LIST*
G04 #@! TA.AperFunction,ComponentPad*
%ADD10O,1.600000X1.000000*%
G04 #@! TD*
G04 #@! TA.AperFunction,ComponentPad*
%ADD11O,2.100000X1.000000*%
G04 #@! TD*
G04 #@! TA.AperFunction,ComponentPad*
%ADD12O,1.700000X1.700000*%
G04 #@! TD*
G04 #@! TA.AperFunction,ComponentPad*
%ADD13R,1.700000X1.700000*%
G04 #@! TD*
G04 #@! TA.AperFunction,ComponentPad*
%ADD14C,3.200000*%
G04 #@! TD*
G04 #@! TA.AperFunction,ViaPad*
%ADD15C,0.800000*%
G04 #@! TD*
G04 #@! TA.AperFunction,ViaPad*
%ADD16C,0.450000*%
G04 #@! TD*
G04 #@! TA.AperFunction,Conductor*
%ADD17C,0.254000*%
G04 #@! TD*
G04 #@! TA.AperFunction,Conductor*
%ADD18C,0.100000*%
G04 #@! TD*
G04 APERTURE END LIST*
D10*
X127195000Y-97026000D03*
X127195000Y-88386000D03*
D11*
X131375000Y-97026000D03*
X131375000Y-88386000D03*
D12*
X171450000Y-82550000D03*
X168910000Y-82550000D03*
X166370000Y-82550000D03*
X163830000Y-82550000D03*
X161290000Y-82550000D03*
X158750000Y-82550000D03*
X156210000Y-82550000D03*
X153670000Y-82550000D03*
X151130000Y-82550000D03*
X148590000Y-82550000D03*
X146050000Y-82550000D03*
D13*
X143510000Y-82550000D03*
D12*
X171450000Y-102870000D03*
X168910000Y-102870000D03*
X166370000Y-102870000D03*
X163830000Y-102870000D03*
X161290000Y-102870000D03*
X158750000Y-102870000D03*
X156210000Y-102870000D03*
X153670000Y-102870000D03*
X151130000Y-102870000D03*
X148590000Y-102870000D03*
X146050000Y-102870000D03*
X143510000Y-102870000D03*
X140970000Y-102870000D03*
X138430000Y-102870000D03*
X135890000Y-102870000D03*
D13*
X133350000Y-102870000D03*
D14*
X129540000Y-83820000D03*
X129540000Y-101600000D03*
D15*
X136017000Y-86741000D03*
X137541000Y-86741000D03*
X141351000Y-88773000D03*
X130429000Y-90932008D03*
X129921000Y-90297000D03*
X130365507Y-94551507D03*
X129794006Y-95123008D03*
X148971000Y-90678000D03*
X144399000Y-90932000D03*
X140208000Y-93627010D03*
X133100000Y-95100000D03*
X133100000Y-90300000D03*
D16*
X163849171Y-99679941D03*
X167400000Y-100700000D03*
X171069000Y-87630000D03*
X159766000Y-90296989D03*
X170928000Y-86614000D03*
X169330976Y-96985542D03*
X155702000Y-93472000D03*
X155453875Y-94493875D03*
X156463886Y-95630894D03*
X162543201Y-99724979D03*
X169825979Y-96689059D03*
X168696503Y-97803497D03*
X167900000Y-98100000D03*
X132969000Y-83820000D03*
X167408671Y-98608671D03*
X151257000Y-89535000D03*
X150876000Y-84328000D03*
X161163000Y-99724979D03*
X158038969Y-95903228D03*
X157588958Y-96734069D03*
X157876158Y-94643189D03*
X156442512Y-96731012D03*
X164874810Y-100207642D03*
X166327286Y-100694979D03*
X142367000Y-89916000D03*
X133477000Y-100457000D03*
X165585483Y-98298788D03*
X162499923Y-98262900D03*
X163013519Y-98661315D03*
X166043104Y-97837162D03*
D15*
X141097000Y-86741000D03*
X150749000Y-86995000D03*
X135636000Y-93599000D03*
X155194000Y-90424000D03*
X154813000Y-97790000D03*
X159766000Y-84836000D03*
X155956000Y-85090000D03*
D16*
X162100000Y-92700000D03*
X163100000Y-92700000D03*
X162100000Y-93700000D03*
X162100000Y-94700000D03*
X163100000Y-92700000D03*
X162800000Y-95500000D03*
X169130000Y-91720000D03*
X172200000Y-94800000D03*
X172520000Y-90290000D03*
D15*
X166099998Y-88100000D03*
D16*
X172500000Y-101000000D03*
X169130000Y-93720000D03*
D15*
X137700000Y-97900000D03*
X144300000Y-99800000D03*
X169164000Y-88392000D03*
X159258000Y-97790000D03*
X174879000Y-88138004D03*
X155956000Y-86233000D03*
X155956000Y-87122000D03*
X154813000Y-98933000D03*
D16*
X158877000Y-92583000D03*
D15*
X165643352Y-99121767D03*
D16*
X168200000Y-99499994D03*
X169825979Y-95900002D03*
D15*
X143500000Y-98000000D03*
D17*
X142021928Y-83400000D02*
X142034188Y-83524482D01*
X142070498Y-83644180D01*
X142129463Y-83754494D01*
X142208815Y-83851185D01*
X142305506Y-83930537D01*
X142415820Y-83989502D01*
X142535518Y-84025812D01*
X142660000Y-84038072D01*
X144360000Y-84038072D01*
X144484482Y-84025812D01*
X144604180Y-83989502D01*
X144714494Y-83930537D01*
X144811185Y-83851185D01*
X144890537Y-83754494D01*
X144949502Y-83644180D01*
X144971513Y-83571620D01*
X145103368Y-83703475D01*
X145346589Y-83865990D01*
X145616842Y-83977932D01*
X145903740Y-84035000D01*
X146196260Y-84035000D01*
X146483158Y-83977932D01*
X146753411Y-83865990D01*
X146996632Y-83703475D01*
X147203475Y-83496632D01*
X147320000Y-83322240D01*
X147436525Y-83496632D01*
X147643368Y-83703475D01*
X147886589Y-83865990D01*
X148156842Y-83977932D01*
X148443740Y-84035000D01*
X148736260Y-84035000D01*
X149023158Y-83977932D01*
X149293411Y-83865990D01*
X149536632Y-83703475D01*
X149743475Y-83496632D01*
X149860000Y-83322240D01*
X149976525Y-83496632D01*
X150183368Y-83703475D01*
X150243874Y-83743903D01*
X150207995Y-83779782D01*
X150113878Y-83920637D01*
X150049049Y-84077147D01*
X150016000Y-84243297D01*
X150016000Y-84412703D01*
X150049049Y-84578853D01*
X150113878Y-84735363D01*
X150207995Y-84876218D01*
X150327782Y-84996005D01*
X150468637Y-85090122D01*
X150625147Y-85154951D01*
X150791297Y-85188000D01*
X150960703Y-85188000D01*
X151126853Y-85154951D01*
X151283363Y-85090122D01*
X151424218Y-84996005D01*
X151544005Y-84876218D01*
X151638122Y-84735363D01*
X151702951Y-84578853D01*
X151736000Y-84412703D01*
X151736000Y-84243297D01*
X151702951Y-84077147D01*
X151647401Y-83943038D01*
X151833411Y-83865990D01*
X152076632Y-83703475D01*
X152283475Y-83496632D01*
X152400000Y-83322240D01*
X152516525Y-83496632D01*
X152723368Y-83703475D01*
X152966589Y-83865990D01*
X153236842Y-83977932D01*
X153523740Y-84035000D01*
X153816260Y-84035000D01*
X154103158Y-83977932D01*
X154373411Y-83865990D01*
X154616632Y-83703475D01*
X154823475Y-83496632D01*
X154940000Y-83322240D01*
X155056525Y-83496632D01*
X155263368Y-83703475D01*
X155506589Y-83865990D01*
X155776842Y-83977932D01*
X156063740Y-84035000D01*
X156356260Y-84035000D01*
X156643158Y-83977932D01*
X156913411Y-83865990D01*
X157156632Y-83703475D01*
X157363475Y-83496632D01*
X157480000Y-83322240D01*
X157596525Y-83496632D01*
X157803368Y-83703475D01*
X158046589Y-83865990D01*
X158316842Y-83977932D01*
X158603740Y-84035000D01*
X158896260Y-84035000D01*
X159183158Y-83977932D01*
X159453411Y-83865990D01*
X159696632Y-83703475D01*
X159903475Y-83496632D01*
X160020000Y-83322240D01*
X160136525Y-83496632D01*
X160343368Y-83703475D01*
X160586589Y-83865990D01*
X160856842Y-83977932D01*
X161143740Y-84035000D01*
X161436260Y-84035000D01*
X161723158Y-83977932D01*
X161993411Y-83865990D01*
X162236632Y-83703475D01*
X162443475Y-83496632D01*
X162560000Y-83322240D01*
X162676525Y-83496632D01*
X162883368Y-83703475D01*
X163126589Y-83865990D01*
X163396842Y-83977932D01*
X163683740Y-84035000D01*
X163976260Y-84035000D01*
X164263158Y-83977932D01*
X164533411Y-83865990D01*
X164776632Y-83703475D01*
X164983475Y-83496632D01*
X165100000Y-83322240D01*
X165216525Y-83496632D01*
X165423368Y-83703475D01*
X165666589Y-83865990D01*
X165936842Y-83977932D01*
X166223740Y-84035000D01*
X166516260Y-84035000D01*
X166803158Y-83977932D01*
X167073411Y-83865990D01*
X167316632Y-83703475D01*
X167523475Y-83496632D01*
X167640000Y-83322240D01*
X167756525Y-83496632D01*
X167963368Y-83703475D01*
X168206589Y-83865990D01*
X168476842Y-83977932D01*
X168763740Y-84035000D01*
X169056260Y-84035000D01*
X169343158Y-83977932D01*
X169613411Y-83865990D01*
X169856632Y-83703475D01*
X170063475Y-83496632D01*
X170180000Y-83322240D01*
X170296525Y-83496632D01*
X170503368Y-83703475D01*
X170746589Y-83865990D01*
X171016842Y-83977932D01*
X171303740Y-84035000D01*
X171596260Y-84035000D01*
X171883158Y-83977932D01*
X172153411Y-83865990D01*
X172396632Y-83703475D01*
X172603475Y-83496632D01*
X172765990Y-83253411D01*
X172877932Y-82983158D01*
X172935000Y-82696260D01*
X172935000Y-82403740D01*
X172877932Y-82116842D01*
X172825393Y-81990000D01*
X174001339Y-81990000D01*
X173912337Y-82079002D01*
X173722463Y-82363169D01*
X173591675Y-82678919D01*
X173525000Y-83014117D01*
X173525000Y-83355883D01*
X173591675Y-83691081D01*
X173722463Y-84006831D01*
X173912337Y-84290998D01*
X174154002Y-84532663D01*
X174438169Y-84722537D01*
X174753919Y-84853325D01*
X175089117Y-84920000D01*
X175430883Y-84920000D01*
X175766081Y-84853325D01*
X176081831Y-84722537D01*
X176365998Y-84532663D01*
X176607663Y-84290998D01*
X176797537Y-84006831D01*
X176928325Y-83691081D01*
X176995000Y-83355883D01*
X176995000Y-83277338D01*
X177049286Y-83452708D01*
X177090001Y-83840082D01*
X177090000Y-93273000D01*
X174000000Y-93273000D01*
X173975224Y-93275440D01*
X173951399Y-93282667D01*
X173929443Y-93294403D01*
X173910197Y-93310197D01*
X173894403Y-93329443D01*
X173882667Y-93351399D01*
X173875440Y-93375224D01*
X173873000Y-93400000D01*
X173873000Y-101187874D01*
X173722463Y-101413169D01*
X173591675Y-101728919D01*
X173525000Y-102064117D01*
X173525000Y-102405883D01*
X173591675Y-102741081D01*
X173722463Y-103056831D01*
X173912337Y-103340998D01*
X174001339Y-103430000D01*
X172825393Y-103430000D01*
X172877932Y-103303158D01*
X172935000Y-103016260D01*
X172935000Y-102723740D01*
X172877932Y-102436842D01*
X172765990Y-102166589D01*
X172603475Y-101923368D01*
X172396632Y-101716525D01*
X172153411Y-101554010D01*
X171883158Y-101442068D01*
X171596260Y-101385000D01*
X171303740Y-101385000D01*
X171016842Y-101442068D01*
X170746589Y-101554010D01*
X170503368Y-101716525D01*
X170296525Y-101923368D01*
X170180000Y-102097760D01*
X170063475Y-101923368D01*
X169856632Y-101716525D01*
X169613411Y-101554010D01*
X169343158Y-101442068D01*
X169056260Y-101385000D01*
X168763740Y-101385000D01*
X168476842Y-101442068D01*
X168206589Y-101554010D01*
X167963368Y-101716525D01*
X167756525Y-101923368D01*
X167640000Y-102097760D01*
X167523475Y-101923368D01*
X167316632Y-101716525D01*
X167073411Y-101554010D01*
X166803158Y-101442068D01*
X166767702Y-101435015D01*
X166859886Y-101373420D01*
X166992637Y-101462122D01*
X167149147Y-101526951D01*
X167315297Y-101560000D01*
X167484703Y-101560000D01*
X167650853Y-101526951D01*
X167807363Y-101462122D01*
X167948218Y-101368005D01*
X168068005Y-101248218D01*
X168162122Y-101107363D01*
X168226951Y-100950853D01*
X168260000Y-100784703D01*
X168260000Y-100615297D01*
X168226951Y-100449147D01*
X168190022Y-100359994D01*
X168284703Y-100359994D01*
X168450853Y-100326945D01*
X168607363Y-100262116D01*
X168748218Y-100167999D01*
X168868005Y-100048212D01*
X168962122Y-99907357D01*
X169026951Y-99750847D01*
X169060000Y-99584697D01*
X169060000Y-99415291D01*
X169026951Y-99249141D01*
X168962122Y-99092631D01*
X168868005Y-98951776D01*
X168748218Y-98831989D01*
X168607363Y-98737872D01*
X168516138Y-98700085D01*
X168562527Y-98653696D01*
X168611800Y-98663497D01*
X168781206Y-98663497D01*
X168947356Y-98630448D01*
X169103866Y-98565619D01*
X169244721Y-98471502D01*
X169364508Y-98351715D01*
X169458625Y-98210860D01*
X169523454Y-98054350D01*
X169556503Y-97888200D01*
X169556503Y-97817531D01*
X169581829Y-97812493D01*
X169738339Y-97747664D01*
X169879194Y-97653547D01*
X169998981Y-97533760D01*
X170000726Y-97531148D01*
X170076832Y-97516010D01*
X170233342Y-97451181D01*
X170374197Y-97357064D01*
X170493984Y-97237277D01*
X170588101Y-97096422D01*
X170652930Y-96939912D01*
X170685979Y-96773762D01*
X170685979Y-96604356D01*
X170652930Y-96438206D01*
X170593417Y-96294530D01*
X170652930Y-96150855D01*
X170685979Y-95984705D01*
X170685979Y-95815299D01*
X170652930Y-95649149D01*
X170588101Y-95492639D01*
X170493984Y-95351784D01*
X170374197Y-95231997D01*
X170233342Y-95137880D01*
X170076832Y-95073051D01*
X169910682Y-95040002D01*
X169741276Y-95040002D01*
X169575126Y-95073051D01*
X169418616Y-95137880D01*
X169277761Y-95231997D01*
X169157974Y-95351784D01*
X169063857Y-95492639D01*
X168999028Y-95649149D01*
X168965979Y-95815299D01*
X168965979Y-95984705D01*
X168999028Y-96150855D01*
X169013639Y-96186130D01*
X168923613Y-96223420D01*
X168782758Y-96317537D01*
X168662971Y-96437324D01*
X168568854Y-96578179D01*
X168504025Y-96734689D01*
X168470976Y-96900839D01*
X168470976Y-96971508D01*
X168445650Y-96976546D01*
X168289140Y-97041375D01*
X168148285Y-97135492D01*
X168033976Y-97249801D01*
X167984703Y-97240000D01*
X167815297Y-97240000D01*
X167649147Y-97273049D01*
X167492637Y-97337878D01*
X167351782Y-97431995D01*
X167231995Y-97551782D01*
X167137878Y-97692637D01*
X167089206Y-97810140D01*
X167001308Y-97846549D01*
X166903104Y-97912167D01*
X166903104Y-97752459D01*
X166870055Y-97586309D01*
X166805226Y-97429799D01*
X166711109Y-97288944D01*
X166591322Y-97169157D01*
X166450467Y-97075040D01*
X166293957Y-97010211D01*
X166127807Y-96977162D01*
X165958401Y-96977162D01*
X165792251Y-97010211D01*
X165635741Y-97075040D01*
X165494886Y-97169157D01*
X165375099Y-97288944D01*
X165280982Y-97429799D01*
X165248852Y-97507368D01*
X165178120Y-97536666D01*
X165037265Y-97630783D01*
X164917478Y-97750570D01*
X164823361Y-97891425D01*
X164758532Y-98047935D01*
X164725483Y-98214085D01*
X164725483Y-98383491D01*
X164758532Y-98549641D01*
X164767073Y-98570261D01*
X164726147Y-98631511D01*
X164648126Y-98819869D01*
X164608352Y-99019828D01*
X164608352Y-99223706D01*
X164624337Y-99304069D01*
X164611293Y-99272578D01*
X164517176Y-99131723D01*
X164397389Y-99011936D01*
X164256534Y-98917819D01*
X164100024Y-98852990D01*
X163933874Y-98819941D01*
X163858815Y-98819941D01*
X163873519Y-98746018D01*
X163873519Y-98576612D01*
X163840470Y-98410462D01*
X163775641Y-98253952D01*
X163681524Y-98113097D01*
X163561737Y-97993310D01*
X163420882Y-97899193D01*
X163264372Y-97834364D01*
X163245372Y-97830585D01*
X163167928Y-97714682D01*
X163048141Y-97594895D01*
X162907286Y-97500778D01*
X162750776Y-97435949D01*
X162584626Y-97402900D01*
X162415220Y-97402900D01*
X162249070Y-97435949D01*
X162092560Y-97500778D01*
X161951705Y-97594895D01*
X161831918Y-97714682D01*
X161737801Y-97855537D01*
X161672972Y-98012047D01*
X161639923Y-98178197D01*
X161639923Y-98347603D01*
X161672972Y-98513753D01*
X161737801Y-98670263D01*
X161831918Y-98811118D01*
X161951705Y-98930905D01*
X162067681Y-99008398D01*
X161994983Y-99056974D01*
X161875196Y-99176761D01*
X161853101Y-99209829D01*
X161831005Y-99176761D01*
X161711218Y-99056974D01*
X161570363Y-98962857D01*
X161413853Y-98898028D01*
X161247703Y-98864979D01*
X161078297Y-98864979D01*
X160912147Y-98898028D01*
X160755637Y-98962857D01*
X160614782Y-99056974D01*
X160494995Y-99176761D01*
X160400878Y-99317616D01*
X160336049Y-99474126D01*
X160303000Y-99640276D01*
X160303000Y-99809682D01*
X160336049Y-99975832D01*
X160400878Y-100132342D01*
X160494995Y-100273197D01*
X160614782Y-100392984D01*
X160755637Y-100487101D01*
X160912147Y-100551930D01*
X161078297Y-100584979D01*
X161247703Y-100584979D01*
X161413853Y-100551930D01*
X161570363Y-100487101D01*
X161711218Y-100392984D01*
X161831005Y-100273197D01*
X161853101Y-100240129D01*
X161875196Y-100273197D01*
X161994983Y-100392984D01*
X162135838Y-100487101D01*
X162292348Y-100551930D01*
X162458498Y-100584979D01*
X162627904Y-100584979D01*
X162794054Y-100551930D01*
X162950564Y-100487101D01*
X163091419Y-100392984D01*
X163211206Y-100273197D01*
X163217213Y-100264206D01*
X163300953Y-100347946D01*
X163441808Y-100442063D01*
X163598318Y-100506892D01*
X163764468Y-100539941D01*
X163933874Y-100539941D01*
X164070351Y-100512794D01*
X164112688Y-100615005D01*
X164206805Y-100755860D01*
X164326592Y-100875647D01*
X164467447Y-100969764D01*
X164623957Y-101034593D01*
X164790107Y-101067642D01*
X164959513Y-101067642D01*
X165125663Y-101034593D01*
X165282173Y-100969764D01*
X165423028Y-100875647D01*
X165475865Y-100822810D01*
X165500335Y-100945832D01*
X165565164Y-101102342D01*
X165659281Y-101243197D01*
X165779068Y-101362984D01*
X165912509Y-101452147D01*
X165666589Y-101554010D01*
X165423368Y-101716525D01*
X165216525Y-101923368D01*
X165100000Y-102097760D01*
X164983475Y-101923368D01*
X164776632Y-101716525D01*
X164533411Y-101554010D01*
X164263158Y-101442068D01*
X163976260Y-101385000D01*
X163683740Y-101385000D01*
X163396842Y-101442068D01*
X163126589Y-101554010D01*
X162883368Y-101716525D01*
X162676525Y-101923368D01*
X162560000Y-102097760D01*
X162443475Y-101923368D01*
X162236632Y-101716525D01*
X161993411Y-101554010D01*
X161723158Y-101442068D01*
X161436260Y-101385000D01*
X161143740Y-101385000D01*
X160856842Y-101442068D01*
X160586589Y-101554010D01*
X160343368Y-101716525D01*
X160136525Y-101923368D01*
X160020000Y-102097760D01*
X159903475Y-101923368D01*
X159696632Y-101716525D01*
X159453411Y-101554010D01*
X159183158Y-101442068D01*
X158896260Y-101385000D01*
X158603740Y-101385000D01*
X158316842Y-101442068D01*
X158046589Y-101554010D01*
X157803368Y-101716525D01*
X157596525Y-101923368D01*
X157480000Y-102097760D01*
X157363475Y-101923368D01*
X157156632Y-101716525D01*
X156913411Y-101554010D01*
X156643158Y-101442068D01*
X156356260Y-101385000D01*
X156063740Y-101385000D01*
X155776842Y-101442068D01*
X155506589Y-101554010D01*
X155263368Y-101716525D01*
X155056525Y-101923368D01*
X154940000Y-102097760D01*
X154823475Y-101923368D01*
X154616632Y-101716525D01*
X154373411Y-101554010D01*
X154103158Y-101442068D01*
X153816260Y-101385000D01*
X153523740Y-101385000D01*
X153236842Y-101442068D01*
X152966589Y-101554010D01*
X152723368Y-101716525D01*
X152516525Y-101923368D01*
X152400000Y-102097760D01*
X152283475Y-101923368D01*
X152076632Y-101716525D01*
X151833411Y-101554010D01*
X151563158Y-101442068D01*
X151276260Y-101385000D01*
X150983740Y-101385000D01*
X150696842Y-101442068D01*
X150426589Y-101554010D01*
X150183368Y-101716525D01*
X149976525Y-101923368D01*
X149860000Y-102097760D01*
X149743475Y-101923368D01*
X149536632Y-101716525D01*
X149293411Y-101554010D01*
X149023158Y-101442068D01*
X148736260Y-101385000D01*
X148443740Y-101385000D01*
X148156842Y-101442068D01*
X147886589Y-101554010D01*
X147643368Y-101716525D01*
X147436525Y-101923368D01*
X147320000Y-102097760D01*
X147203475Y-101923368D01*
X146996632Y-101716525D01*
X146753411Y-101554010D01*
X146483158Y-101442068D01*
X146196260Y-101385000D01*
X145903740Y-101385000D01*
X145616842Y-101442068D01*
X145346589Y-101554010D01*
X145103368Y-101716525D01*
X144896525Y-101923368D01*
X144780000Y-102097760D01*
X144663475Y-101923368D01*
X144456632Y-101716525D01*
X144213411Y-101554010D01*
X143943158Y-101442068D01*
X143656260Y-101385000D01*
X143363740Y-101385000D01*
X143076842Y-101442068D01*
X142806589Y-101554010D01*
X142563368Y-101716525D01*
X142356525Y-101923368D01*
X142194010Y-102166589D01*
X142160704Y-102246998D01*
X142159273Y-102246998D01*
X142203968Y-102043793D01*
X142019073Y-101818933D01*
X141796203Y-101636058D01*
X141593000Y-101699184D01*
X141593000Y-102247000D01*
X141613000Y-102247000D01*
X141613000Y-103430000D01*
X140327000Y-103430000D01*
X140327000Y-102247000D01*
X140347000Y-102247000D01*
X140347000Y-101699184D01*
X140143797Y-101636058D01*
X139920927Y-101818933D01*
X139736032Y-102043793D01*
X139780727Y-102246998D01*
X139779296Y-102246998D01*
X139745990Y-102166589D01*
X139583475Y-101923368D01*
X139376632Y-101716525D01*
X139133411Y-101554010D01*
X138863158Y-101442068D01*
X138576260Y-101385000D01*
X138283740Y-101385000D01*
X137996842Y-101442068D01*
X137726589Y-101554010D01*
X137483368Y-101716525D01*
X137276525Y-101923368D01*
X137160000Y-102097760D01*
X137043475Y-101923368D01*
X136836632Y-101716525D01*
X136593411Y-101554010D01*
X136323158Y-101442068D01*
X136036260Y-101385000D01*
X135743740Y-101385000D01*
X135456842Y-101442068D01*
X135186589Y-101554010D01*
X134943368Y-101716525D01*
X134811513Y-101848380D01*
X134789502Y-101775820D01*
X134730537Y-101665506D01*
X134651185Y-101568815D01*
X134554494Y-101489463D01*
X134444180Y-101430498D01*
X134324482Y-101394188D01*
X134200000Y-101381928D01*
X132500000Y-101381928D01*
X132375518Y-101394188D01*
X132255820Y-101430498D01*
X132145506Y-101489463D01*
X132048815Y-101568815D01*
X131969463Y-101665506D01*
X131910498Y-101775820D01*
X131874188Y-101895518D01*
X131861928Y-102020000D01*
X131861928Y-103430000D01*
X130824105Y-103430000D01*
X130964729Y-103336038D01*
X131276038Y-103024729D01*
X131520631Y-102658669D01*
X131689110Y-102251925D01*
X131775000Y-101820128D01*
X131775000Y-101379872D01*
X131689110Y-100948075D01*
X131520631Y-100541331D01*
X131407687Y-100372297D01*
X132617000Y-100372297D01*
X132617000Y-100541703D01*
X132650049Y-100707853D01*
X132714878Y-100864363D01*
X132808995Y-101005218D01*
X132928782Y-101125005D01*
X133069637Y-101219122D01*
X133226147Y-101283951D01*
X133392297Y-101317000D01*
X133561703Y-101317000D01*
X133727853Y-101283951D01*
X133884363Y-101219122D01*
X134025218Y-101125005D01*
X134145005Y-101005218D01*
X134239122Y-100864363D01*
X134303951Y-100707853D01*
X134337000Y-100541703D01*
X134337000Y-100372297D01*
X134303951Y-100206147D01*
X134239122Y-100049637D01*
X134145005Y-99908782D01*
X134025218Y-99788995D01*
X133884363Y-99694878D01*
X133727853Y-99630049D01*
X133561703Y-99597000D01*
X133392297Y-99597000D01*
X133226147Y-99630049D01*
X133069637Y-99694878D01*
X132928782Y-99788995D01*
X132808995Y-99908782D01*
X132714878Y-100049637D01*
X132650049Y-100206147D01*
X132617000Y-100372297D01*
X131407687Y-100372297D01*
X131276038Y-100175271D01*
X130964729Y-99863962D01*
X130598669Y-99619369D01*
X130191925Y-99450890D01*
X129760128Y-99365000D01*
X129319872Y-99365000D01*
X128888075Y-99450890D01*
X128481331Y-99619369D01*
X128115271Y-99863962D01*
X127803962Y-100175271D01*
X127710000Y-100315895D01*
X127710000Y-98840875D01*
X127713435Y-98806000D01*
X127706725Y-98737872D01*
X127699727Y-98666816D01*
X127659128Y-98532980D01*
X127593200Y-98409637D01*
X127504474Y-98301525D01*
X127477383Y-98279292D01*
X127359091Y-98161000D01*
X127818002Y-98161000D01*
X127818002Y-97909859D01*
X127977123Y-98005243D01*
X128158900Y-97892370D01*
X128315164Y-97746202D01*
X128439909Y-97572357D01*
X128495411Y-97562099D01*
X129824589Y-97562099D01*
X129880208Y-97622198D01*
X130014674Y-97795062D01*
X130180281Y-97938371D01*
X130370664Y-98046618D01*
X130578507Y-98115644D01*
X130752000Y-97982039D01*
X130752000Y-97399000D01*
X131998000Y-97399000D01*
X131998000Y-97982039D01*
X132171493Y-98115644D01*
X132379336Y-98046618D01*
X132569719Y-97938371D01*
X132616300Y-97898061D01*
X142465000Y-97898061D01*
X142465000Y-98101939D01*
X142504774Y-98301898D01*
X142582795Y-98490256D01*
X142696063Y-98659774D01*
X142840226Y-98803937D01*
X143009744Y-98917205D01*
X143198102Y-98995226D01*
X143398061Y-99035000D01*
X143601939Y-99035000D01*
X143801898Y-98995226D01*
X143990256Y-98917205D01*
X144119179Y-98831061D01*
X153778000Y-98831061D01*
X153778000Y-99034939D01*
X153817774Y-99234898D01*
X153895795Y-99423256D01*
X154009063Y-99592774D01*
X154153226Y-99736937D01*
X154322744Y-99850205D01*
X154511102Y-99928226D01*
X154711061Y-99968000D01*
X154914939Y-99968000D01*
X155114898Y-99928226D01*
X155303256Y-99850205D01*
X155472774Y-99736937D01*
X155616937Y-99592774D01*
X155730205Y-99423256D01*
X155808226Y-99234898D01*
X155848000Y-99034939D01*
X155848000Y-98831061D01*
X155808226Y-98631102D01*
X155730205Y-98442744D01*
X155616937Y-98273226D01*
X155472774Y-98129063D01*
X155303256Y-98015795D01*
X155114898Y-97937774D01*
X154914939Y-97898000D01*
X154711061Y-97898000D01*
X154511102Y-97937774D01*
X154322744Y-98015795D01*
X154153226Y-98129063D01*
X154009063Y-98273226D01*
X153895795Y-98442744D01*
X153817774Y-98631102D01*
X153778000Y-98831061D01*
X144119179Y-98831061D01*
X144159774Y-98803937D01*
X144303937Y-98659774D01*
X144417205Y-98490256D01*
X144495226Y-98301898D01*
X144535000Y-98101939D01*
X144535000Y-97898061D01*
X144495226Y-97698102D01*
X144491067Y-97688061D01*
X158223000Y-97688061D01*
X158223000Y-97891939D01*
X158262774Y-98091898D01*
X158340795Y-98280256D01*
X158454063Y-98449774D01*
X158598226Y-98593937D01*
X158767744Y-98707205D01*
X158956102Y-98785226D01*
X159156061Y-98825000D01*
X159359939Y-98825000D01*
X159559898Y-98785226D01*
X159748256Y-98707205D01*
X159917774Y-98593937D01*
X160061937Y-98449774D01*
X160175205Y-98280256D01*
X160253226Y-98091898D01*
X160293000Y-97891939D01*
X160293000Y-97688061D01*
X160253226Y-97488102D01*
X160175205Y-97299744D01*
X160061937Y-97130226D01*
X159917774Y-96986063D01*
X159748256Y-96872795D01*
X159559898Y-96794774D01*
X159359939Y-96755000D01*
X159156061Y-96755000D01*
X158956102Y-96794774D01*
X158767744Y-96872795D01*
X158598226Y-96986063D01*
X158454063Y-97130226D01*
X158340795Y-97299744D01*
X158262774Y-97488102D01*
X158223000Y-97688061D01*
X144491067Y-97688061D01*
X144417205Y-97509744D01*
X144303937Y-97340226D01*
X144159774Y-97196063D01*
X143990256Y-97082795D01*
X143801898Y-97004774D01*
X143601939Y-96965000D01*
X143398061Y-96965000D01*
X143198102Y-97004774D01*
X143009744Y-97082795D01*
X142840226Y-97196063D01*
X142696063Y-97340226D01*
X142582795Y-97509744D01*
X142504774Y-97698102D01*
X142465000Y-97898061D01*
X132616300Y-97898061D01*
X132735326Y-97795062D01*
X132869792Y-97622198D01*
X132925411Y-97562099D01*
X132827183Y-97399000D01*
X131998000Y-97399000D01*
X130752000Y-97399000D01*
X129922817Y-97399000D01*
X129824589Y-97562099D01*
X128495411Y-97562099D01*
X128397183Y-97399000D01*
X127818000Y-97399000D01*
X127818000Y-97526000D01*
X126724091Y-97526000D01*
X126552000Y-97353909D01*
X126552000Y-96653000D01*
X126572000Y-96653000D01*
X126572000Y-96142142D01*
X127818000Y-96142142D01*
X127818000Y-96653000D01*
X128397183Y-96653000D01*
X128495411Y-96489901D01*
X128439909Y-96479643D01*
X128315164Y-96305798D01*
X128158900Y-96159630D01*
X127977123Y-96046757D01*
X127818000Y-96142142D01*
X126572000Y-96142142D01*
X126412877Y-96046757D01*
X126231100Y-96159630D01*
X126074836Y-96305798D01*
X126059000Y-96327867D01*
X126059000Y-95021069D01*
X128759006Y-95021069D01*
X128759006Y-95224947D01*
X128798780Y-95424906D01*
X128876801Y-95613264D01*
X128990069Y-95782782D01*
X129134232Y-95926945D01*
X129303750Y-96040213D01*
X129492108Y-96118234D01*
X129692067Y-96158008D01*
X129895945Y-96158008D01*
X130072477Y-96122894D01*
X130108051Y-96176134D01*
X130014674Y-96256938D01*
X129880208Y-96429802D01*
X129824589Y-96489901D01*
X129922817Y-96653000D01*
X130752000Y-96653000D01*
X130752000Y-96550341D01*
X130780448Y-96556000D01*
X130969552Y-96556000D01*
X131120373Y-96526000D01*
X131998000Y-96526000D01*
X131998000Y-96653000D01*
X132827183Y-96653000D01*
X132925411Y-96489901D01*
X132869792Y-96429802D01*
X132735326Y-96256938D01*
X132569719Y-96113629D01*
X132379336Y-96005382D01*
X132171493Y-95936356D01*
X131998002Y-96069959D01*
X131998002Y-95891000D01*
X131791904Y-95891000D01*
X131798108Y-95876022D01*
X131835000Y-95690552D01*
X131835000Y-95501448D01*
X131798108Y-95315978D01*
X131725741Y-95141269D01*
X131630053Y-94998061D01*
X132065000Y-94998061D01*
X132065000Y-95201939D01*
X132104774Y-95401898D01*
X132182795Y-95590256D01*
X132296063Y-95759774D01*
X132440226Y-95903937D01*
X132609744Y-96017205D01*
X132798102Y-96095226D01*
X132998061Y-96135000D01*
X133201939Y-96135000D01*
X133401898Y-96095226D01*
X133590256Y-96017205D01*
X133759774Y-95903937D01*
X133903937Y-95759774D01*
X134017205Y-95590256D01*
X134095226Y-95401898D01*
X134135000Y-95201939D01*
X134135000Y-94998061D01*
X134095226Y-94798102D01*
X134017205Y-94609744D01*
X133903937Y-94440226D01*
X133759774Y-94296063D01*
X133590256Y-94182795D01*
X133401898Y-94104774D01*
X133201939Y-94065000D01*
X132998061Y-94065000D01*
X132798102Y-94104774D01*
X132609744Y-94182795D01*
X132440226Y-94296063D01*
X132296063Y-94440226D01*
X132182795Y-94609744D01*
X132104774Y-94798102D01*
X132065000Y-94998061D01*
X131630053Y-94998061D01*
X131620681Y-94984036D01*
X131486964Y-94850319D01*
X131376084Y-94776231D01*
X131400507Y-94653446D01*
X131400507Y-94449568D01*
X131360733Y-94249609D01*
X131282712Y-94061251D01*
X131169444Y-93891733D01*
X131025281Y-93747570D01*
X130855763Y-93634302D01*
X130667405Y-93556281D01*
X130510501Y-93525071D01*
X139173000Y-93525071D01*
X139173000Y-93728949D01*
X139212774Y-93928908D01*
X139290795Y-94117266D01*
X139404063Y-94286784D01*
X139548226Y-94430947D01*
X139717744Y-94544215D01*
X139906102Y-94622236D01*
X140106061Y-94662010D01*
X140309939Y-94662010D01*
X140509898Y-94622236D01*
X140698256Y-94544215D01*
X140867774Y-94430947D01*
X140889549Y-94409172D01*
X154593875Y-94409172D01*
X154593875Y-94578578D01*
X154626924Y-94744728D01*
X154691753Y-94901238D01*
X154785870Y-95042093D01*
X154905657Y-95161880D01*
X155046512Y-95255997D01*
X155203022Y-95320826D01*
X155369172Y-95353875D01*
X155538578Y-95353875D01*
X155657578Y-95330205D01*
X155636935Y-95380041D01*
X155603886Y-95546191D01*
X155603886Y-95715597D01*
X155636935Y-95881747D01*
X155701764Y-96038257D01*
X155788795Y-96168506D01*
X155774507Y-96182794D01*
X155680390Y-96323649D01*
X155615561Y-96480159D01*
X155582512Y-96646309D01*
X155582512Y-96815715D01*
X155615561Y-96981865D01*
X155680390Y-97138375D01*
X155774507Y-97279230D01*
X155894294Y-97399017D01*
X156035149Y-97493134D01*
X156191659Y-97557963D01*
X156357809Y-97591012D01*
X156527215Y-97591012D01*
X156693365Y-97557963D01*
X156849875Y-97493134D01*
X156990730Y-97399017D01*
X157014207Y-97375541D01*
X157040740Y-97402074D01*
X157181595Y-97496191D01*
X157338105Y-97561020D01*
X157504255Y-97594069D01*
X157673661Y-97594069D01*
X157839811Y-97561020D01*
X157996321Y-97496191D01*
X158137176Y-97402074D01*
X158256963Y-97282287D01*
X158351080Y-97141432D01*
X158415909Y-96984922D01*
X158448958Y-96818772D01*
X158448958Y-96663595D01*
X158587187Y-96571233D01*
X158706974Y-96451446D01*
X158801091Y-96310591D01*
X158865920Y-96154081D01*
X158898969Y-95987931D01*
X158898969Y-95818525D01*
X158865920Y-95652375D01*
X158801091Y-95495865D01*
X158706974Y-95355010D01*
X158587187Y-95235223D01*
X158535130Y-95200440D01*
X158544163Y-95191407D01*
X158638280Y-95050552D01*
X158703109Y-94894042D01*
X158736158Y-94727892D01*
X158736158Y-94558486D01*
X158703109Y-94392336D01*
X158638280Y-94235826D01*
X158544163Y-94094971D01*
X158424376Y-93975184D01*
X158283521Y-93881067D01*
X158127011Y-93816238D01*
X157960861Y-93783189D01*
X157791455Y-93783189D01*
X157625305Y-93816238D01*
X157468795Y-93881067D01*
X157327940Y-93975184D01*
X157208153Y-94094971D01*
X157114036Y-94235826D01*
X157049207Y-94392336D01*
X157016158Y-94558486D01*
X157016158Y-94727892D01*
X157049207Y-94894042D01*
X157114036Y-95050552D01*
X157208153Y-95191407D01*
X157327940Y-95311194D01*
X157379997Y-95345977D01*
X157370964Y-95355010D01*
X157305381Y-95453161D01*
X157290837Y-95380041D01*
X157226008Y-95223531D01*
X157131891Y-95082676D01*
X157012104Y-94962889D01*
X156871249Y-94868772D01*
X156714739Y-94803943D01*
X156548589Y-94770894D01*
X156379183Y-94770894D01*
X156260183Y-94794564D01*
X156280826Y-94744728D01*
X156313875Y-94578578D01*
X156313875Y-94409172D01*
X156280826Y-94243022D01*
X156240770Y-94146318D01*
X156250218Y-94140005D01*
X156370005Y-94020218D01*
X156464122Y-93879363D01*
X156528951Y-93722853D01*
X156562000Y-93556703D01*
X156562000Y-93387297D01*
X156528951Y-93221147D01*
X156464122Y-93064637D01*
X156370005Y-92923782D01*
X156250218Y-92803995D01*
X156109363Y-92709878D01*
X155952853Y-92645049D01*
X155786703Y-92612000D01*
X155617297Y-92612000D01*
X155451147Y-92645049D01*
X155294637Y-92709878D01*
X155153782Y-92803995D01*
X155033995Y-92923782D01*
X154939878Y-93064637D01*
X154875049Y-93221147D01*
X154842000Y-93387297D01*
X154842000Y-93556703D01*
X154875049Y-93722853D01*
X154915105Y-93819557D01*
X154905657Y-93825870D01*
X154785870Y-93945657D01*
X154691753Y-94086512D01*
X154626924Y-94243022D01*
X154593875Y-94409172D01*
X140889549Y-94409172D01*
X141011937Y-94286784D01*
X141125205Y-94117266D01*
X141203226Y-93928908D01*
X141243000Y-93728949D01*
X141243000Y-93525071D01*
X141203226Y-93325112D01*
X141125205Y-93136754D01*
X141011937Y-92967236D01*
X140867774Y-92823073D01*
X140698256Y-92709805D01*
X140509898Y-92631784D01*
X140309939Y-92592010D01*
X140106061Y-92592010D01*
X139906102Y-92631784D01*
X139717744Y-92709805D01*
X139548226Y-92823073D01*
X139404063Y-92967236D01*
X139290795Y-93136754D01*
X139212774Y-93325112D01*
X139173000Y-93525071D01*
X130510501Y-93525071D01*
X130467446Y-93516507D01*
X130263568Y-93516507D01*
X130063609Y-93556281D01*
X129875251Y-93634302D01*
X129705733Y-93747570D01*
X129561570Y-93891733D01*
X129448302Y-94061251D01*
X129405963Y-94163464D01*
X129303750Y-94205803D01*
X129134232Y-94319071D01*
X128990069Y-94463234D01*
X128876801Y-94632752D01*
X128798780Y-94821110D01*
X128759006Y-95021069D01*
X126059000Y-95021069D01*
X126059000Y-92498297D01*
X158017000Y-92498297D01*
X158017000Y-92667703D01*
X158050049Y-92833853D01*
X158114878Y-92990363D01*
X158208995Y-93131218D01*
X158328782Y-93251005D01*
X158469637Y-93345122D01*
X158626147Y-93409951D01*
X158792297Y-93443000D01*
X158961703Y-93443000D01*
X159127853Y-93409951D01*
X159284363Y-93345122D01*
X159425218Y-93251005D01*
X159545005Y-93131218D01*
X159639122Y-92990363D01*
X159703951Y-92833853D01*
X159737000Y-92667703D01*
X159737000Y-92498297D01*
X159703951Y-92332147D01*
X159639122Y-92175637D01*
X159545005Y-92034782D01*
X159425218Y-91914995D01*
X159284363Y-91820878D01*
X159127853Y-91756049D01*
X158961703Y-91723000D01*
X158792297Y-91723000D01*
X158626147Y-91756049D01*
X158469637Y-91820878D01*
X158328782Y-91914995D01*
X158208995Y-92034782D01*
X158114878Y-92175637D01*
X158050049Y-92332147D01*
X158017000Y-92498297D01*
X126059000Y-92498297D01*
X126059000Y-90195061D01*
X128886000Y-90195061D01*
X128886000Y-90398939D01*
X128925774Y-90598898D01*
X129003795Y-90787256D01*
X129117063Y-90956774D01*
X129261226Y-91100937D01*
X129429719Y-91213520D01*
X129433774Y-91233906D01*
X129511795Y-91422264D01*
X129625063Y-91591782D01*
X129769226Y-91735945D01*
X129938744Y-91849213D01*
X130127102Y-91927234D01*
X130327061Y-91967008D01*
X130530939Y-91967008D01*
X130730898Y-91927234D01*
X130919256Y-91849213D01*
X131088774Y-91735945D01*
X131232937Y-91591782D01*
X131346205Y-91422264D01*
X131424226Y-91233906D01*
X131464000Y-91033947D01*
X131464000Y-90830069D01*
X131424226Y-90630110D01*
X131415626Y-90609348D01*
X131486964Y-90561681D01*
X131620681Y-90427964D01*
X131725741Y-90270731D01*
X131755841Y-90198061D01*
X132065000Y-90198061D01*
X132065000Y-90401939D01*
X132104774Y-90601898D01*
X132182795Y-90790256D01*
X132296063Y-90959774D01*
X132440226Y-91103937D01*
X132609744Y-91217205D01*
X132798102Y-91295226D01*
X132998061Y-91335000D01*
X133201939Y-91335000D01*
X133401898Y-91295226D01*
X133590256Y-91217205D01*
X133759774Y-91103937D01*
X133903937Y-90959774D01*
X133990608Y-90830061D01*
X143364000Y-90830061D01*
X143364000Y-91033939D01*
X143403774Y-91233898D01*
X143481795Y-91422256D01*
X143595063Y-91591774D01*
X143739226Y-91735937D01*
X143908744Y-91849205D01*
X144097102Y-91927226D01*
X144297061Y-91967000D01*
X144500939Y-91967000D01*
X144700898Y-91927226D01*
X144889256Y-91849205D01*
X145058774Y-91735937D01*
X145202937Y-91591774D01*
X145316205Y-91422256D01*
X145394226Y-91233898D01*
X145434000Y-91033939D01*
X145434000Y-90830061D01*
X145394226Y-90630102D01*
X145371842Y-90576061D01*
X147936000Y-90576061D01*
X147936000Y-90779939D01*
X147975774Y-90979898D01*
X148053795Y-91168256D01*
X148167063Y-91337774D01*
X148311226Y-91481937D01*
X148480744Y-91595205D01*
X148669102Y-91673226D01*
X148869061Y-91713000D01*
X149072939Y-91713000D01*
X149272898Y-91673226D01*
X149461256Y-91595205D01*
X149630774Y-91481937D01*
X149774937Y-91337774D01*
X149888205Y-91168256D01*
X149966226Y-90979898D01*
X150006000Y-90779939D01*
X150006000Y-90576061D01*
X149966226Y-90376102D01*
X149888205Y-90187744D01*
X149774937Y-90018226D01*
X149630774Y-89874063D01*
X149461256Y-89760795D01*
X149272898Y-89682774D01*
X149072939Y-89643000D01*
X148869061Y-89643000D01*
X148669102Y-89682774D01*
X148480744Y-89760795D01*
X148311226Y-89874063D01*
X148167063Y-90018226D01*
X148053795Y-90187744D01*
X147975774Y-90376102D01*
X147936000Y-90576061D01*
X145371842Y-90576061D01*
X145316205Y-90441744D01*
X145202937Y-90272226D01*
X145058774Y-90128063D01*
X144889256Y-90014795D01*
X144700898Y-89936774D01*
X144500939Y-89897000D01*
X144297061Y-89897000D01*
X144097102Y-89936774D01*
X143908744Y-90014795D01*
X143739226Y-90128063D01*
X143595063Y-90272226D01*
X143481795Y-90441744D01*
X143403774Y-90630102D01*
X143364000Y-90830061D01*
X133990608Y-90830061D01*
X134017205Y-90790256D01*
X134095226Y-90601898D01*
X134135000Y-90401939D01*
X134135000Y-90198061D01*
X134095226Y-89998102D01*
X134017205Y-89809744D01*
X133903937Y-89640226D01*
X133759774Y-89496063D01*
X133590256Y-89382795D01*
X133401898Y-89304774D01*
X133201939Y-89265000D01*
X132998061Y-89265000D01*
X132798102Y-89304774D01*
X132609744Y-89382795D01*
X132440226Y-89496063D01*
X132296063Y-89640226D01*
X132182795Y-89809744D01*
X132104774Y-89998102D01*
X132065000Y-90198061D01*
X131755841Y-90198061D01*
X131798108Y-90096022D01*
X131835000Y-89910552D01*
X131835000Y-89721448D01*
X131798108Y-89535978D01*
X131791904Y-89521000D01*
X131998002Y-89521000D01*
X131998002Y-89342041D01*
X132171493Y-89475644D01*
X132379336Y-89406618D01*
X132569719Y-89298371D01*
X132735326Y-89155062D01*
X132869792Y-88982198D01*
X132925411Y-88922099D01*
X132827183Y-88759000D01*
X131998000Y-88759000D01*
X131998000Y-88886000D01*
X131120373Y-88886000D01*
X130969552Y-88856000D01*
X130780448Y-88856000D01*
X130752000Y-88861659D01*
X130752000Y-88759000D01*
X129922817Y-88759000D01*
X129824589Y-88922099D01*
X129880208Y-88982198D01*
X130014674Y-89155062D01*
X130108051Y-89235866D01*
X130082652Y-89273878D01*
X130022939Y-89262000D01*
X129819061Y-89262000D01*
X129619102Y-89301774D01*
X129430744Y-89379795D01*
X129261226Y-89493063D01*
X129117063Y-89637226D01*
X129003795Y-89806744D01*
X128925774Y-89995102D01*
X128886000Y-90195061D01*
X126059000Y-90195061D01*
X126059000Y-89084133D01*
X126074836Y-89106202D01*
X126231100Y-89252370D01*
X126412877Y-89365243D01*
X126572000Y-89269858D01*
X126572000Y-88759000D01*
X127818000Y-88759000D01*
X127818000Y-89269858D01*
X127977123Y-89365243D01*
X128158900Y-89252370D01*
X128315164Y-89106202D01*
X128439909Y-88932357D01*
X128495411Y-88922099D01*
X128397183Y-88759000D01*
X127818000Y-88759000D01*
X126572000Y-88759000D01*
X126552000Y-88759000D01*
X126552000Y-88671061D01*
X140316000Y-88671061D01*
X140316000Y-88874939D01*
X140355774Y-89074898D01*
X140433795Y-89263256D01*
X140547063Y-89432774D01*
X140691226Y-89576937D01*
X140860744Y-89690205D01*
X141049102Y-89768226D01*
X141249061Y-89808000D01*
X141452939Y-89808000D01*
X141514052Y-89795844D01*
X141507000Y-89831297D01*
X141507000Y-90000703D01*
X141540049Y-90166853D01*
X141604878Y-90323363D01*
X141698995Y-90464218D01*
X141818782Y-90584005D01*
X141959637Y-90678122D01*
X142116147Y-90742951D01*
X142282297Y-90776000D01*
X142451703Y-90776000D01*
X142617853Y-90742951D01*
X142774363Y-90678122D01*
X142915218Y-90584005D01*
X143035005Y-90464218D01*
X143129122Y-90323363D01*
X143193951Y-90166853D01*
X143227000Y-90000703D01*
X143227000Y-89831297D01*
X143193951Y-89665147D01*
X143129122Y-89508637D01*
X143090141Y-89450297D01*
X150397000Y-89450297D01*
X150397000Y-89619703D01*
X150430049Y-89785853D01*
X150494878Y-89942363D01*
X150588995Y-90083218D01*
X150708782Y-90203005D01*
X150849637Y-90297122D01*
X151006147Y-90361951D01*
X151172297Y-90395000D01*
X151341703Y-90395000D01*
X151507853Y-90361951D01*
X151664363Y-90297122D01*
X151791328Y-90212286D01*
X158906000Y-90212286D01*
X158906000Y-90381692D01*
X158939049Y-90547842D01*
X159003878Y-90704352D01*
X159097995Y-90845207D01*
X159217782Y-90964994D01*
X159358637Y-91059111D01*
X159515147Y-91123940D01*
X159681297Y-91156989D01*
X159850703Y-91156989D01*
X160016853Y-91123940D01*
X160173363Y-91059111D01*
X160314218Y-90964994D01*
X160434005Y-90845207D01*
X160528122Y-90704352D01*
X160592951Y-90547842D01*
X160626000Y-90381692D01*
X160626000Y-90212286D01*
X160592951Y-90046136D01*
X160528122Y-89889626D01*
X160434005Y-89748771D01*
X160314218Y-89628984D01*
X160173363Y-89534867D01*
X160016853Y-89470038D01*
X159850703Y-89436989D01*
X159681297Y-89436989D01*
X159515147Y-89470038D01*
X159358637Y-89534867D01*
X159217782Y-89628984D01*
X159097995Y-89748771D01*
X159003878Y-89889626D01*
X158939049Y-90046136D01*
X158906000Y-90212286D01*
X151791328Y-90212286D01*
X151805218Y-90203005D01*
X151925005Y-90083218D01*
X152019122Y-89942363D01*
X152083951Y-89785853D01*
X152117000Y-89619703D01*
X152117000Y-89450297D01*
X152083951Y-89284147D01*
X152019122Y-89127637D01*
X151925005Y-88986782D01*
X151805218Y-88866995D01*
X151664363Y-88772878D01*
X151507853Y-88708049D01*
X151341703Y-88675000D01*
X151172297Y-88675000D01*
X151006147Y-88708049D01*
X150849637Y-88772878D01*
X150708782Y-88866995D01*
X150588995Y-88986782D01*
X150494878Y-89127637D01*
X150430049Y-89284147D01*
X150397000Y-89450297D01*
X143090141Y-89450297D01*
X143035005Y-89367782D01*
X142915218Y-89247995D01*
X142774363Y-89153878D01*
X142617853Y-89089049D01*
X142451703Y-89056000D01*
X142349985Y-89056000D01*
X142386000Y-88874939D01*
X142386000Y-88671061D01*
X142346226Y-88471102D01*
X142271236Y-88290061D01*
X168129000Y-88290061D01*
X168129000Y-88493939D01*
X168168774Y-88693898D01*
X168246795Y-88882256D01*
X168360063Y-89051774D01*
X168504226Y-89195937D01*
X168673744Y-89309205D01*
X168862102Y-89387226D01*
X169062061Y-89427000D01*
X169265939Y-89427000D01*
X169465898Y-89387226D01*
X169654256Y-89309205D01*
X169823774Y-89195937D01*
X169967937Y-89051774D01*
X170081205Y-88882256D01*
X170159226Y-88693898D01*
X170199000Y-88493939D01*
X170199000Y-88290061D01*
X170159226Y-88090102D01*
X170081205Y-87901744D01*
X169967937Y-87732226D01*
X169823774Y-87588063D01*
X169654256Y-87474795D01*
X169465898Y-87396774D01*
X169265939Y-87357000D01*
X169062061Y-87357000D01*
X168862102Y-87396774D01*
X168673744Y-87474795D01*
X168504226Y-87588063D01*
X168360063Y-87732226D01*
X168246795Y-87901744D01*
X168168774Y-88090102D01*
X168129000Y-88290061D01*
X142271236Y-88290061D01*
X142268205Y-88282744D01*
X142154937Y-88113226D01*
X142010774Y-87969063D01*
X141841256Y-87855795D01*
X141652898Y-87777774D01*
X141452939Y-87738000D01*
X141249061Y-87738000D01*
X141049102Y-87777774D01*
X140860744Y-87855795D01*
X140691226Y-87969063D01*
X140547063Y-88113226D01*
X140433795Y-88282744D01*
X140355774Y-88471102D01*
X140316000Y-88671061D01*
X126552000Y-88671061D01*
X126552000Y-88066091D01*
X126732091Y-87886000D01*
X127818000Y-87886000D01*
X127818000Y-88013000D01*
X128397183Y-88013000D01*
X128495411Y-87849901D01*
X129824589Y-87849901D01*
X129922817Y-88013000D01*
X130752000Y-88013000D01*
X130752000Y-87429961D01*
X131998000Y-87429961D01*
X131998000Y-88013000D01*
X132827183Y-88013000D01*
X132925411Y-87849901D01*
X132869792Y-87789802D01*
X132735326Y-87616938D01*
X132569719Y-87473629D01*
X132379336Y-87365382D01*
X132171493Y-87296356D01*
X131998000Y-87429961D01*
X130752000Y-87429961D01*
X130578507Y-87296356D01*
X130370664Y-87365382D01*
X130180281Y-87473629D01*
X130014674Y-87616938D01*
X129880208Y-87789802D01*
X129824589Y-87849901D01*
X128495411Y-87849901D01*
X128439909Y-87839643D01*
X128315164Y-87665798D01*
X128158900Y-87519630D01*
X127977123Y-87406757D01*
X127818002Y-87502141D01*
X127818002Y-87251000D01*
X127367091Y-87251000D01*
X127477379Y-87140712D01*
X127504475Y-87118475D01*
X127593200Y-87010363D01*
X127659128Y-86887020D01*
X127699727Y-86753184D01*
X127710000Y-86648877D01*
X127710000Y-86648875D01*
X127710966Y-86639061D01*
X134982000Y-86639061D01*
X134982000Y-86842939D01*
X135021774Y-87042898D01*
X135099795Y-87231256D01*
X135213063Y-87400774D01*
X135357226Y-87544937D01*
X135526744Y-87658205D01*
X135715102Y-87736226D01*
X135915061Y-87776000D01*
X136118939Y-87776000D01*
X136318898Y-87736226D01*
X136507256Y-87658205D01*
X136676774Y-87544937D01*
X136779000Y-87442711D01*
X136881226Y-87544937D01*
X137050744Y-87658205D01*
X137239102Y-87736226D01*
X137439061Y-87776000D01*
X137642939Y-87776000D01*
X137842898Y-87736226D01*
X138031256Y-87658205D01*
X138200774Y-87544937D01*
X138344937Y-87400774D01*
X138458205Y-87231256D01*
X138536226Y-87042898D01*
X138576000Y-86842939D01*
X138576000Y-86639061D01*
X138536226Y-86439102D01*
X138458205Y-86250744D01*
X138378236Y-86131061D01*
X154921000Y-86131061D01*
X154921000Y-86334939D01*
X154960774Y-86534898D01*
X155019842Y-86677500D01*
X154960774Y-86820102D01*
X154921000Y-87020061D01*
X154921000Y-87223939D01*
X154960774Y-87423898D01*
X155038795Y-87612256D01*
X155152063Y-87781774D01*
X155296226Y-87925937D01*
X155465744Y-88039205D01*
X155654102Y-88117226D01*
X155854061Y-88157000D01*
X156057939Y-88157000D01*
X156257898Y-88117226D01*
X156446256Y-88039205D01*
X156615774Y-87925937D01*
X156759937Y-87781774D01*
X156873205Y-87612256D01*
X156951226Y-87423898D01*
X156991000Y-87223939D01*
X156991000Y-87020061D01*
X156951226Y-86820102D01*
X156892158Y-86677500D01*
X156951226Y-86534898D01*
X156952340Y-86529297D01*
X170068000Y-86529297D01*
X170068000Y-86698703D01*
X170101049Y-86864853D01*
X170165878Y-87021363D01*
X170259995Y-87162218D01*
X170312300Y-87214523D01*
X170306878Y-87222637D01*
X170242049Y-87379147D01*
X170209000Y-87545297D01*
X170209000Y-87714703D01*
X170242049Y-87880853D01*
X170306878Y-88037363D01*
X170400995Y-88178218D01*
X170520782Y-88298005D01*
X170661637Y-88392122D01*
X170818147Y-88456951D01*
X170984297Y-88490000D01*
X171153703Y-88490000D01*
X171319853Y-88456951D01*
X171476363Y-88392122D01*
X171617218Y-88298005D01*
X171737005Y-88178218D01*
X171831122Y-88037363D01*
X171831659Y-88036065D01*
X173844000Y-88036065D01*
X173844000Y-88239943D01*
X173883774Y-88439902D01*
X173961795Y-88628260D01*
X174075063Y-88797778D01*
X174219226Y-88941941D01*
X174388744Y-89055209D01*
X174577102Y-89133230D01*
X174777061Y-89173004D01*
X174980939Y-89173004D01*
X175180898Y-89133230D01*
X175369256Y-89055209D01*
X175538774Y-88941941D01*
X175682937Y-88797778D01*
X175796205Y-88628260D01*
X175874226Y-88439902D01*
X175914000Y-88239943D01*
X175914000Y-88036065D01*
X175874226Y-87836106D01*
X175796205Y-87647748D01*
X175682937Y-87478230D01*
X175538774Y-87334067D01*
X175369256Y-87220799D01*
X175180898Y-87142778D01*
X174980939Y-87103004D01*
X174777061Y-87103004D01*
X174577102Y-87142778D01*
X174388744Y-87220799D01*
X174219226Y-87334067D01*
X174075063Y-87478230D01*
X173961795Y-87647748D01*
X173883774Y-87836106D01*
X173844000Y-88036065D01*
X171831659Y-88036065D01*
X171895951Y-87880853D01*
X171929000Y-87714703D01*
X171929000Y-87545297D01*
X171895951Y-87379147D01*
X171831122Y-87222637D01*
X171737005Y-87081782D01*
X171684700Y-87029477D01*
X171690122Y-87021363D01*
X171754951Y-86864853D01*
X171788000Y-86698703D01*
X171788000Y-86529297D01*
X171754951Y-86363147D01*
X171690122Y-86206637D01*
X171596005Y-86065782D01*
X171476218Y-85945995D01*
X171335363Y-85851878D01*
X171178853Y-85787049D01*
X171012703Y-85754000D01*
X170843297Y-85754000D01*
X170677147Y-85787049D01*
X170520637Y-85851878D01*
X170379782Y-85945995D01*
X170259995Y-86065782D01*
X170165878Y-86206637D01*
X170101049Y-86363147D01*
X170068000Y-86529297D01*
X156952340Y-86529297D01*
X156991000Y-86334939D01*
X156991000Y-86131061D01*
X156951226Y-85931102D01*
X156873205Y-85742744D01*
X156759937Y-85573226D01*
X156615774Y-85429063D01*
X156446256Y-85315795D01*
X156257898Y-85237774D01*
X156057939Y-85198000D01*
X155854061Y-85198000D01*
X155654102Y-85237774D01*
X155465744Y-85315795D01*
X155296226Y-85429063D01*
X155152063Y-85573226D01*
X155038795Y-85742744D01*
X154960774Y-85931102D01*
X154921000Y-86131061D01*
X138378236Y-86131061D01*
X138344937Y-86081226D01*
X138200774Y-85937063D01*
X138031256Y-85823795D01*
X137842898Y-85745774D01*
X137642939Y-85706000D01*
X137439061Y-85706000D01*
X137239102Y-85745774D01*
X137050744Y-85823795D01*
X136881226Y-85937063D01*
X136779000Y-86039289D01*
X136676774Y-85937063D01*
X136507256Y-85823795D01*
X136318898Y-85745774D01*
X136118939Y-85706000D01*
X135915061Y-85706000D01*
X135715102Y-85745774D01*
X135526744Y-85823795D01*
X135357226Y-85937063D01*
X135213063Y-86081226D01*
X135099795Y-86250744D01*
X135021774Y-86439102D01*
X134982000Y-86639061D01*
X127710966Y-86639061D01*
X127713435Y-86614000D01*
X127710000Y-86579125D01*
X127710000Y-85104105D01*
X127803962Y-85244729D01*
X128115271Y-85556038D01*
X128481331Y-85800631D01*
X128888075Y-85969110D01*
X129319872Y-86055000D01*
X129760128Y-86055000D01*
X130191925Y-85969110D01*
X130598669Y-85800631D01*
X130964729Y-85556038D01*
X131276038Y-85244729D01*
X131520631Y-84878669D01*
X131689110Y-84471925D01*
X131775000Y-84040128D01*
X131775000Y-83735297D01*
X132109000Y-83735297D01*
X132109000Y-83904703D01*
X132142049Y-84070853D01*
X132206878Y-84227363D01*
X132300995Y-84368218D01*
X132420782Y-84488005D01*
X132561637Y-84582122D01*
X132718147Y-84646951D01*
X132884297Y-84680000D01*
X133053703Y-84680000D01*
X133219853Y-84646951D01*
X133376363Y-84582122D01*
X133517218Y-84488005D01*
X133637005Y-84368218D01*
X133731122Y-84227363D01*
X133795951Y-84070853D01*
X133829000Y-83904703D01*
X133829000Y-83735297D01*
X133795951Y-83569147D01*
X133731122Y-83412637D01*
X133637005Y-83271782D01*
X133517218Y-83151995D01*
X133376363Y-83057878D01*
X133219853Y-82993049D01*
X133053703Y-82960000D01*
X132884297Y-82960000D01*
X132718147Y-82993049D01*
X132561637Y-83057878D01*
X132420782Y-83151995D01*
X132300995Y-83271782D01*
X132206878Y-83412637D01*
X132142049Y-83569147D01*
X132109000Y-83735297D01*
X131775000Y-83735297D01*
X131775000Y-83599872D01*
X131689110Y-83168075D01*
X131520631Y-82761331D01*
X131276038Y-82395271D01*
X130964729Y-82083962D01*
X130824105Y-81990000D01*
X142021928Y-81990000D01*
X142021928Y-83400000D01*
G04 #@! TA.AperFunction,Conductor*
D18*
G36*
X142021928Y-83400000D02*
G01*
X142034188Y-83524482D01*
X142070498Y-83644180D01*
X142129463Y-83754494D01*
X142208815Y-83851185D01*
X142305506Y-83930537D01*
X142415820Y-83989502D01*
X142535518Y-84025812D01*
X142660000Y-84038072D01*
X144360000Y-84038072D01*
X144484482Y-84025812D01*
X144604180Y-83989502D01*
X144714494Y-83930537D01*
X144811185Y-83851185D01*
X144890537Y-83754494D01*
X144949502Y-83644180D01*
X144971513Y-83571620D01*
X145103368Y-83703475D01*
X145346589Y-83865990D01*
X145616842Y-83977932D01*
X145903740Y-84035000D01*
X146196260Y-84035000D01*
X146483158Y-83977932D01*
X146753411Y-83865990D01*
X146996632Y-83703475D01*
X147203475Y-83496632D01*
X147320000Y-83322240D01*
X147436525Y-83496632D01*
X147643368Y-83703475D01*
X147886589Y-83865990D01*
X148156842Y-83977932D01*
X148443740Y-84035000D01*
X148736260Y-84035000D01*
X149023158Y-83977932D01*
X149293411Y-83865990D01*
X149536632Y-83703475D01*
X149743475Y-83496632D01*
X149860000Y-83322240D01*
X149976525Y-83496632D01*
X150183368Y-83703475D01*
X150243874Y-83743903D01*
X150207995Y-83779782D01*
X150113878Y-83920637D01*
X150049049Y-84077147D01*
X150016000Y-84243297D01*
X150016000Y-84412703D01*
X150049049Y-84578853D01*
X150113878Y-84735363D01*
X150207995Y-84876218D01*
X150327782Y-84996005D01*
X150468637Y-85090122D01*
X150625147Y-85154951D01*
X150791297Y-85188000D01*
X150960703Y-85188000D01*
X151126853Y-85154951D01*
X151283363Y-85090122D01*
X151424218Y-84996005D01*
X151544005Y-84876218D01*
X151638122Y-84735363D01*
X151702951Y-84578853D01*
X151736000Y-84412703D01*
X151736000Y-84243297D01*
X151702951Y-84077147D01*
X151647401Y-83943038D01*
X151833411Y-83865990D01*
X152076632Y-83703475D01*
X152283475Y-83496632D01*
X152400000Y-83322240D01*
X152516525Y-83496632D01*
X152723368Y-83703475D01*
X152966589Y-83865990D01*
X153236842Y-83977932D01*
X153523740Y-84035000D01*
X153816260Y-84035000D01*
X154103158Y-83977932D01*
X154373411Y-83865990D01*
X154616632Y-83703475D01*
X154823475Y-83496632D01*
X154940000Y-83322240D01*
X155056525Y-83496632D01*
X155263368Y-83703475D01*
X155506589Y-83865990D01*
X155776842Y-83977932D01*
X156063740Y-84035000D01*
X156356260Y-84035000D01*
X156643158Y-83977932D01*
X156913411Y-83865990D01*
X157156632Y-83703475D01*
X157363475Y-83496632D01*
X157480000Y-83322240D01*
X157596525Y-83496632D01*
X157803368Y-83703475D01*
X158046589Y-83865990D01*
X158316842Y-83977932D01*
X158603740Y-84035000D01*
X158896260Y-84035000D01*
X159183158Y-83977932D01*
X159453411Y-83865990D01*
X159696632Y-83703475D01*
X159903475Y-83496632D01*
X160020000Y-83322240D01*
X160136525Y-83496632D01*
X160343368Y-83703475D01*
X160586589Y-83865990D01*
X160856842Y-83977932D01*
X161143740Y-84035000D01*
X161436260Y-84035000D01*
X161723158Y-83977932D01*
X161993411Y-83865990D01*
X162236632Y-83703475D01*
X162443475Y-83496632D01*
X162560000Y-83322240D01*
X162676525Y-83496632D01*
X162883368Y-83703475D01*
X163126589Y-83865990D01*
X163396842Y-83977932D01*
X163683740Y-84035000D01*
X163976260Y-84035000D01*
X164263158Y-83977932D01*
X164533411Y-83865990D01*
X164776632Y-83703475D01*
X164983475Y-83496632D01*
X165100000Y-83322240D01*
X165216525Y-83496632D01*
X165423368Y-83703475D01*
X165666589Y-83865990D01*
X165936842Y-83977932D01*
X166223740Y-84035000D01*
X166516260Y-84035000D01*
X166803158Y-83977932D01*
X167073411Y-83865990D01*
X167316632Y-83703475D01*
X167523475Y-83496632D01*
X167640000Y-83322240D01*
X167756525Y-83496632D01*
X167963368Y-83703475D01*
X168206589Y-83865990D01*
X168476842Y-83977932D01*
X168763740Y-84035000D01*
X169056260Y-84035000D01*
X169343158Y-83977932D01*
X169613411Y-83865990D01*
X169856632Y-83703475D01*
X170063475Y-83496632D01*
X170180000Y-83322240D01*
X170296525Y-83496632D01*
X170503368Y-83703475D01*
X170746589Y-83865990D01*
X171016842Y-83977932D01*
X171303740Y-84035000D01*
X171596260Y-84035000D01*
X171883158Y-83977932D01*
X172153411Y-83865990D01*
X172396632Y-83703475D01*
X172603475Y-83496632D01*
X172765990Y-83253411D01*
X172877932Y-82983158D01*
X172935000Y-82696260D01*
X172935000Y-82403740D01*
X172877932Y-82116842D01*
X172825393Y-81990000D01*
X174001339Y-81990000D01*
X173912337Y-82079002D01*
X173722463Y-82363169D01*
X173591675Y-82678919D01*
X173525000Y-83014117D01*
X173525000Y-83355883D01*
X173591675Y-83691081D01*
X173722463Y-84006831D01*
X173912337Y-84290998D01*
X174154002Y-84532663D01*
X174438169Y-84722537D01*
X174753919Y-84853325D01*
X175089117Y-84920000D01*
X175430883Y-84920000D01*
X175766081Y-84853325D01*
X176081831Y-84722537D01*
X176365998Y-84532663D01*
X176607663Y-84290998D01*
X176797537Y-84006831D01*
X176928325Y-83691081D01*
X176995000Y-83355883D01*
X176995000Y-83277338D01*
X177049286Y-83452708D01*
X177090001Y-83840082D01*
X177090000Y-93273000D01*
X174000000Y-93273000D01*
X173975224Y-93275440D01*
X173951399Y-93282667D01*
X173929443Y-93294403D01*
X173910197Y-93310197D01*
X173894403Y-93329443D01*
X173882667Y-93351399D01*
X173875440Y-93375224D01*
X173873000Y-93400000D01*
X173873000Y-101187874D01*
X173722463Y-101413169D01*
X173591675Y-101728919D01*
X173525000Y-102064117D01*
X173525000Y-102405883D01*
X173591675Y-102741081D01*
X173722463Y-103056831D01*
X173912337Y-103340998D01*
X174001339Y-103430000D01*
X172825393Y-103430000D01*
X172877932Y-103303158D01*
X172935000Y-103016260D01*
X172935000Y-102723740D01*
X172877932Y-102436842D01*
X172765990Y-102166589D01*
X172603475Y-101923368D01*
X172396632Y-101716525D01*
X172153411Y-101554010D01*
X171883158Y-101442068D01*
X171596260Y-101385000D01*
X171303740Y-101385000D01*
X171016842Y-101442068D01*
X170746589Y-101554010D01*
X170503368Y-101716525D01*
X170296525Y-101923368D01*
X170180000Y-102097760D01*
X170063475Y-101923368D01*
X169856632Y-101716525D01*
X169613411Y-101554010D01*
X169343158Y-101442068D01*
X169056260Y-101385000D01*
X168763740Y-101385000D01*
X168476842Y-101442068D01*
X168206589Y-101554010D01*
X167963368Y-101716525D01*
X167756525Y-101923368D01*
X167640000Y-102097760D01*
X167523475Y-101923368D01*
X167316632Y-101716525D01*
X167073411Y-101554010D01*
X166803158Y-101442068D01*
X166767702Y-101435015D01*
X166859886Y-101373420D01*
X166992637Y-101462122D01*
X167149147Y-101526951D01*
X167315297Y-101560000D01*
X167484703Y-101560000D01*
X167650853Y-101526951D01*
X167807363Y-101462122D01*
X167948218Y-101368005D01*
X168068005Y-101248218D01*
X168162122Y-101107363D01*
X168226951Y-100950853D01*
X168260000Y-100784703D01*
X168260000Y-100615297D01*
X168226951Y-100449147D01*
X168190022Y-100359994D01*
X168284703Y-100359994D01*
X168450853Y-100326945D01*
X168607363Y-100262116D01*
X168748218Y-100167999D01*
X168868005Y-100048212D01*
X168962122Y-99907357D01*
X169026951Y-99750847D01*
X169060000Y-99584697D01*
X169060000Y-99415291D01*
X169026951Y-99249141D01*
X168962122Y-99092631D01*
X168868005Y-98951776D01*
X168748218Y-98831989D01*
X168607363Y-98737872D01*
X168516138Y-98700085D01*
X168562527Y-98653696D01*
X168611800Y-98663497D01*
X168781206Y-98663497D01*
X168947356Y-98630448D01*
X169103866Y-98565619D01*
X169244721Y-98471502D01*
X169364508Y-98351715D01*
X169458625Y-98210860D01*
X169523454Y-98054350D01*
X169556503Y-97888200D01*
X169556503Y-97817531D01*
X169581829Y-97812493D01*
X169738339Y-97747664D01*
X169879194Y-97653547D01*
X169998981Y-97533760D01*
X170000726Y-97531148D01*
X170076832Y-97516010D01*
X170233342Y-97451181D01*
X170374197Y-97357064D01*
X170493984Y-97237277D01*
X170588101Y-97096422D01*
X170652930Y-96939912D01*
X170685979Y-96773762D01*
X170685979Y-96604356D01*
X170652930Y-96438206D01*
X170593417Y-96294530D01*
X170652930Y-96150855D01*
X170685979Y-95984705D01*
X170685979Y-95815299D01*
X170652930Y-95649149D01*
X170588101Y-95492639D01*
X170493984Y-95351784D01*
X170374197Y-95231997D01*
X170233342Y-95137880D01*
X170076832Y-95073051D01*
X169910682Y-95040002D01*
X169741276Y-95040002D01*
X169575126Y-95073051D01*
X169418616Y-95137880D01*
X169277761Y-95231997D01*
X169157974Y-95351784D01*
X169063857Y-95492639D01*
X168999028Y-95649149D01*
X168965979Y-95815299D01*
X168965979Y-95984705D01*
X168999028Y-96150855D01*
X169013639Y-96186130D01*
X168923613Y-96223420D01*
X168782758Y-96317537D01*
X168662971Y-96437324D01*
X168568854Y-96578179D01*
X168504025Y-96734689D01*
X168470976Y-96900839D01*
X168470976Y-96971508D01*
X168445650Y-96976546D01*
X168289140Y-97041375D01*
X168148285Y-97135492D01*
X168033976Y-97249801D01*
X167984703Y-97240000D01*
X167815297Y-97240000D01*
X167649147Y-97273049D01*
X167492637Y-97337878D01*
X167351782Y-97431995D01*
X167231995Y-97551782D01*
X167137878Y-97692637D01*
X167089206Y-97810140D01*
X167001308Y-97846549D01*
X166903104Y-97912167D01*
X166903104Y-97752459D01*
X166870055Y-97586309D01*
X166805226Y-97429799D01*
X166711109Y-97288944D01*
X166591322Y-97169157D01*
X166450467Y-97075040D01*
X166293957Y-97010211D01*
X166127807Y-96977162D01*
X165958401Y-96977162D01*
X165792251Y-97010211D01*
X165635741Y-97075040D01*
X165494886Y-97169157D01*
X165375099Y-97288944D01*
X165280982Y-97429799D01*
X165248852Y-97507368D01*
X165178120Y-97536666D01*
X165037265Y-97630783D01*
X164917478Y-97750570D01*
X164823361Y-97891425D01*
X164758532Y-98047935D01*
X164725483Y-98214085D01*
X164725483Y-98383491D01*
X164758532Y-98549641D01*
X164767073Y-98570261D01*
X164726147Y-98631511D01*
X164648126Y-98819869D01*
X164608352Y-99019828D01*
X164608352Y-99223706D01*
X164624337Y-99304069D01*
X164611293Y-99272578D01*
X164517176Y-99131723D01*
X164397389Y-99011936D01*
X164256534Y-98917819D01*
X164100024Y-98852990D01*
X163933874Y-98819941D01*
X163858815Y-98819941D01*
X163873519Y-98746018D01*
X163873519Y-98576612D01*
X163840470Y-98410462D01*
X163775641Y-98253952D01*
X163681524Y-98113097D01*
X163561737Y-97993310D01*
X163420882Y-97899193D01*
X163264372Y-97834364D01*
X163245372Y-97830585D01*
X163167928Y-97714682D01*
X163048141Y-97594895D01*
X162907286Y-97500778D01*
X162750776Y-97435949D01*
X162584626Y-97402900D01*
X162415220Y-97402900D01*
X162249070Y-97435949D01*
X162092560Y-97500778D01*
X161951705Y-97594895D01*
X161831918Y-97714682D01*
X161737801Y-97855537D01*
X161672972Y-98012047D01*
X161639923Y-98178197D01*
X161639923Y-98347603D01*
X161672972Y-98513753D01*
X161737801Y-98670263D01*
X161831918Y-98811118D01*
X161951705Y-98930905D01*
X162067681Y-99008398D01*
X161994983Y-99056974D01*
X161875196Y-99176761D01*
X161853101Y-99209829D01*
X161831005Y-99176761D01*
X161711218Y-99056974D01*
X161570363Y-98962857D01*
X161413853Y-98898028D01*
X161247703Y-98864979D01*
X161078297Y-98864979D01*
X160912147Y-98898028D01*
X160755637Y-98962857D01*
X160614782Y-99056974D01*
X160494995Y-99176761D01*
X160400878Y-99317616D01*
X160336049Y-99474126D01*
X160303000Y-99640276D01*
X160303000Y-99809682D01*
X160336049Y-99975832D01*
X160400878Y-100132342D01*
X160494995Y-100273197D01*
X160614782Y-100392984D01*
X160755637Y-100487101D01*
X160912147Y-100551930D01*
X161078297Y-100584979D01*
X161247703Y-100584979D01*
X161413853Y-100551930D01*
X161570363Y-100487101D01*
X161711218Y-100392984D01*
X161831005Y-100273197D01*
X161853101Y-100240129D01*
X161875196Y-100273197D01*
X161994983Y-100392984D01*
X162135838Y-100487101D01*
X162292348Y-100551930D01*
X162458498Y-100584979D01*
X162627904Y-100584979D01*
X162794054Y-100551930D01*
X162950564Y-100487101D01*
X163091419Y-100392984D01*
X163211206Y-100273197D01*
X163217213Y-100264206D01*
X163300953Y-100347946D01*
X163441808Y-100442063D01*
X163598318Y-100506892D01*
X163764468Y-100539941D01*
X163933874Y-100539941D01*
X164070351Y-100512794D01*
X164112688Y-100615005D01*
X164206805Y-100755860D01*
X164326592Y-100875647D01*
X164467447Y-100969764D01*
X164623957Y-101034593D01*
X164790107Y-101067642D01*
X164959513Y-101067642D01*
X165125663Y-101034593D01*
X165282173Y-100969764D01*
X165423028Y-100875647D01*
X165475865Y-100822810D01*
X165500335Y-100945832D01*
X165565164Y-101102342D01*
X165659281Y-101243197D01*
X165779068Y-101362984D01*
X165912509Y-101452147D01*
X165666589Y-101554010D01*
X165423368Y-101716525D01*
X165216525Y-101923368D01*
X165100000Y-102097760D01*
X164983475Y-101923368D01*
X164776632Y-101716525D01*
X164533411Y-101554010D01*
X164263158Y-101442068D01*
X163976260Y-101385000D01*
X163683740Y-101385000D01*
X163396842Y-101442068D01*
X163126589Y-101554010D01*
X162883368Y-101716525D01*
X162676525Y-101923368D01*
X162560000Y-102097760D01*
X162443475Y-101923368D01*
X162236632Y-101716525D01*
X161993411Y-101554010D01*
X161723158Y-101442068D01*
X161436260Y-101385000D01*
X161143740Y-101385000D01*
X160856842Y-101442068D01*
X160586589Y-101554010D01*
X160343368Y-101716525D01*
X160136525Y-101923368D01*
X160020000Y-102097760D01*
X159903475Y-101923368D01*
X159696632Y-101716525D01*
X159453411Y-101554010D01*
X159183158Y-101442068D01*
X158896260Y-101385000D01*
X158603740Y-101385000D01*
X158316842Y-101442068D01*
X158046589Y-101554010D01*
X157803368Y-101716525D01*
X157596525Y-101923368D01*
X157480000Y-102097760D01*
X157363475Y-101923368D01*
X157156632Y-101716525D01*
X156913411Y-101554010D01*
X156643158Y-101442068D01*
X156356260Y-101385000D01*
X156063740Y-101385000D01*
X155776842Y-101442068D01*
X155506589Y-101554010D01*
X155263368Y-101716525D01*
X155056525Y-101923368D01*
X154940000Y-102097760D01*
X154823475Y-101923368D01*
X154616632Y-101716525D01*
X154373411Y-101554010D01*
X154103158Y-101442068D01*
X153816260Y-101385000D01*
X153523740Y-101385000D01*
X153236842Y-101442068D01*
X152966589Y-101554010D01*
X152723368Y-101716525D01*
X152516525Y-101923368D01*
X152400000Y-102097760D01*
X152283475Y-101923368D01*
X152076632Y-101716525D01*
X151833411Y-101554010D01*
X151563158Y-101442068D01*
X151276260Y-101385000D01*
X150983740Y-101385000D01*
X150696842Y-101442068D01*
X150426589Y-101554010D01*
X150183368Y-101716525D01*
X149976525Y-101923368D01*
X149860000Y-102097760D01*
X149743475Y-101923368D01*
X149536632Y-101716525D01*
X149293411Y-101554010D01*
X149023158Y-101442068D01*
X148736260Y-101385000D01*
X148443740Y-101385000D01*
X148156842Y-101442068D01*
X147886589Y-101554010D01*
X147643368Y-101716525D01*
X147436525Y-101923368D01*
X147320000Y-102097760D01*
X147203475Y-101923368D01*
X146996632Y-101716525D01*
X146753411Y-101554010D01*
X146483158Y-101442068D01*
X146196260Y-101385000D01*
X145903740Y-101385000D01*
X145616842Y-101442068D01*
X145346589Y-101554010D01*
X145103368Y-101716525D01*
X144896525Y-101923368D01*
X144780000Y-102097760D01*
X144663475Y-101923368D01*
X144456632Y-101716525D01*
X144213411Y-101554010D01*
X143943158Y-101442068D01*
X143656260Y-101385000D01*
X143363740Y-101385000D01*
X143076842Y-101442068D01*
X142806589Y-101554010D01*
X142563368Y-101716525D01*
X142356525Y-101923368D01*
X142194010Y-102166589D01*
X142160704Y-102246998D01*
X142159273Y-102246998D01*
X142203968Y-102043793D01*
X142019073Y-101818933D01*
X141796203Y-101636058D01*
X141593000Y-101699184D01*
X141593000Y-102247000D01*
X141613000Y-102247000D01*
X141613000Y-103430000D01*
X140327000Y-103430000D01*
X140327000Y-102247000D01*
X140347000Y-102247000D01*
X140347000Y-101699184D01*
X140143797Y-101636058D01*
X139920927Y-101818933D01*
X139736032Y-102043793D01*
X139780727Y-102246998D01*
X139779296Y-102246998D01*
X139745990Y-102166589D01*
X139583475Y-101923368D01*
X139376632Y-101716525D01*
X139133411Y-101554010D01*
X138863158Y-101442068D01*
X138576260Y-101385000D01*
X138283740Y-101385000D01*
X137996842Y-101442068D01*
X137726589Y-101554010D01*
X137483368Y-101716525D01*
X137276525Y-101923368D01*
X137160000Y-102097760D01*
X137043475Y-101923368D01*
X136836632Y-101716525D01*
X136593411Y-101554010D01*
X136323158Y-101442068D01*
X136036260Y-101385000D01*
X135743740Y-101385000D01*
X135456842Y-101442068D01*
X135186589Y-101554010D01*
X134943368Y-101716525D01*
X134811513Y-101848380D01*
X134789502Y-101775820D01*
X134730537Y-101665506D01*
X134651185Y-101568815D01*
X134554494Y-101489463D01*
X134444180Y-101430498D01*
X134324482Y-101394188D01*
X134200000Y-101381928D01*
X132500000Y-101381928D01*
X132375518Y-101394188D01*
X132255820Y-101430498D01*
X132145506Y-101489463D01*
X132048815Y-101568815D01*
X131969463Y-101665506D01*
X131910498Y-101775820D01*
X131874188Y-101895518D01*
X131861928Y-102020000D01*
X131861928Y-103430000D01*
X130824105Y-103430000D01*
X130964729Y-103336038D01*
X131276038Y-103024729D01*
X131520631Y-102658669D01*
X131689110Y-102251925D01*
X131775000Y-101820128D01*
X131775000Y-101379872D01*
X131689110Y-100948075D01*
X131520631Y-100541331D01*
X131407687Y-100372297D01*
X132617000Y-100372297D01*
X132617000Y-100541703D01*
X132650049Y-100707853D01*
X132714878Y-100864363D01*
X132808995Y-101005218D01*
X132928782Y-101125005D01*
X133069637Y-101219122D01*
X133226147Y-101283951D01*
X133392297Y-101317000D01*
X133561703Y-101317000D01*
X133727853Y-101283951D01*
X133884363Y-101219122D01*
X134025218Y-101125005D01*
X134145005Y-101005218D01*
X134239122Y-100864363D01*
X134303951Y-100707853D01*
X134337000Y-100541703D01*
X134337000Y-100372297D01*
X134303951Y-100206147D01*
X134239122Y-100049637D01*
X134145005Y-99908782D01*
X134025218Y-99788995D01*
X133884363Y-99694878D01*
X133727853Y-99630049D01*
X133561703Y-99597000D01*
X133392297Y-99597000D01*
X133226147Y-99630049D01*
X133069637Y-99694878D01*
X132928782Y-99788995D01*
X132808995Y-99908782D01*
X132714878Y-100049637D01*
X132650049Y-100206147D01*
X132617000Y-100372297D01*
X131407687Y-100372297D01*
X131276038Y-100175271D01*
X130964729Y-99863962D01*
X130598669Y-99619369D01*
X130191925Y-99450890D01*
X129760128Y-99365000D01*
X129319872Y-99365000D01*
X128888075Y-99450890D01*
X128481331Y-99619369D01*
X128115271Y-99863962D01*
X127803962Y-100175271D01*
X127710000Y-100315895D01*
X127710000Y-98840875D01*
X127713435Y-98806000D01*
X127706725Y-98737872D01*
X127699727Y-98666816D01*
X127659128Y-98532980D01*
X127593200Y-98409637D01*
X127504474Y-98301525D01*
X127477383Y-98279292D01*
X127359091Y-98161000D01*
X127818002Y-98161000D01*
X127818002Y-97909859D01*
X127977123Y-98005243D01*
X128158900Y-97892370D01*
X128315164Y-97746202D01*
X128439909Y-97572357D01*
X128495411Y-97562099D01*
X129824589Y-97562099D01*
X129880208Y-97622198D01*
X130014674Y-97795062D01*
X130180281Y-97938371D01*
X130370664Y-98046618D01*
X130578507Y-98115644D01*
X130752000Y-97982039D01*
X130752000Y-97399000D01*
X131998000Y-97399000D01*
X131998000Y-97982039D01*
X132171493Y-98115644D01*
X132379336Y-98046618D01*
X132569719Y-97938371D01*
X132616300Y-97898061D01*
X142465000Y-97898061D01*
X142465000Y-98101939D01*
X142504774Y-98301898D01*
X142582795Y-98490256D01*
X142696063Y-98659774D01*
X142840226Y-98803937D01*
X143009744Y-98917205D01*
X143198102Y-98995226D01*
X143398061Y-99035000D01*
X143601939Y-99035000D01*
X143801898Y-98995226D01*
X143990256Y-98917205D01*
X144119179Y-98831061D01*
X153778000Y-98831061D01*
X153778000Y-99034939D01*
X153817774Y-99234898D01*
X153895795Y-99423256D01*
X154009063Y-99592774D01*
X154153226Y-99736937D01*
X154322744Y-99850205D01*
X154511102Y-99928226D01*
X154711061Y-99968000D01*
X154914939Y-99968000D01*
X155114898Y-99928226D01*
X155303256Y-99850205D01*
X155472774Y-99736937D01*
X155616937Y-99592774D01*
X155730205Y-99423256D01*
X155808226Y-99234898D01*
X155848000Y-99034939D01*
X155848000Y-98831061D01*
X155808226Y-98631102D01*
X155730205Y-98442744D01*
X155616937Y-98273226D01*
X155472774Y-98129063D01*
X155303256Y-98015795D01*
X155114898Y-97937774D01*
X154914939Y-97898000D01*
X154711061Y-97898000D01*
X154511102Y-97937774D01*
X154322744Y-98015795D01*
X154153226Y-98129063D01*
X154009063Y-98273226D01*
X153895795Y-98442744D01*
X153817774Y-98631102D01*
X153778000Y-98831061D01*
X144119179Y-98831061D01*
X144159774Y-98803937D01*
X144303937Y-98659774D01*
X144417205Y-98490256D01*
X144495226Y-98301898D01*
X144535000Y-98101939D01*
X144535000Y-97898061D01*
X144495226Y-97698102D01*
X144491067Y-97688061D01*
X158223000Y-97688061D01*
X158223000Y-97891939D01*
X158262774Y-98091898D01*
X158340795Y-98280256D01*
X158454063Y-98449774D01*
X158598226Y-98593937D01*
X158767744Y-98707205D01*
X158956102Y-98785226D01*
X159156061Y-98825000D01*
X159359939Y-98825000D01*
X159559898Y-98785226D01*
X159748256Y-98707205D01*
X159917774Y-98593937D01*
X160061937Y-98449774D01*
X160175205Y-98280256D01*
X160253226Y-98091898D01*
X160293000Y-97891939D01*
X160293000Y-97688061D01*
X160253226Y-97488102D01*
X160175205Y-97299744D01*
X160061937Y-97130226D01*
X159917774Y-96986063D01*
X159748256Y-96872795D01*
X159559898Y-96794774D01*
X159359939Y-96755000D01*
X159156061Y-96755000D01*
X158956102Y-96794774D01*
X158767744Y-96872795D01*
X158598226Y-96986063D01*
X158454063Y-97130226D01*
X158340795Y-97299744D01*
X158262774Y-97488102D01*
X158223000Y-97688061D01*
X144491067Y-97688061D01*
X144417205Y-97509744D01*
X144303937Y-97340226D01*
X144159774Y-97196063D01*
X143990256Y-97082795D01*
X143801898Y-97004774D01*
X143601939Y-96965000D01*
X143398061Y-96965000D01*
X143198102Y-97004774D01*
X143009744Y-97082795D01*
X142840226Y-97196063D01*
X142696063Y-97340226D01*
X142582795Y-97509744D01*
X142504774Y-97698102D01*
X142465000Y-97898061D01*
X132616300Y-97898061D01*
X132735326Y-97795062D01*
X132869792Y-97622198D01*
X132925411Y-97562099D01*
X132827183Y-97399000D01*
X131998000Y-97399000D01*
X130752000Y-97399000D01*
X129922817Y-97399000D01*
X129824589Y-97562099D01*
X128495411Y-97562099D01*
X128397183Y-97399000D01*
X127818000Y-97399000D01*
X127818000Y-97526000D01*
X126724091Y-97526000D01*
X126552000Y-97353909D01*
X126552000Y-96653000D01*
X126572000Y-96653000D01*
X126572000Y-96142142D01*
X127818000Y-96142142D01*
X127818000Y-96653000D01*
X128397183Y-96653000D01*
X128495411Y-96489901D01*
X128439909Y-96479643D01*
X128315164Y-96305798D01*
X128158900Y-96159630D01*
X127977123Y-96046757D01*
X127818000Y-96142142D01*
X126572000Y-96142142D01*
X126412877Y-96046757D01*
X126231100Y-96159630D01*
X126074836Y-96305798D01*
X126059000Y-96327867D01*
X126059000Y-95021069D01*
X128759006Y-95021069D01*
X128759006Y-95224947D01*
X128798780Y-95424906D01*
X128876801Y-95613264D01*
X128990069Y-95782782D01*
X129134232Y-95926945D01*
X129303750Y-96040213D01*
X129492108Y-96118234D01*
X129692067Y-96158008D01*
X129895945Y-96158008D01*
X130072477Y-96122894D01*
X130108051Y-96176134D01*
X130014674Y-96256938D01*
X129880208Y-96429802D01*
X129824589Y-96489901D01*
X129922817Y-96653000D01*
X130752000Y-96653000D01*
X130752000Y-96550341D01*
X130780448Y-96556000D01*
X130969552Y-96556000D01*
X131120373Y-96526000D01*
X131998000Y-96526000D01*
X131998000Y-96653000D01*
X132827183Y-96653000D01*
X132925411Y-96489901D01*
X132869792Y-96429802D01*
X132735326Y-96256938D01*
X132569719Y-96113629D01*
X132379336Y-96005382D01*
X132171493Y-95936356D01*
X131998002Y-96069959D01*
X131998002Y-95891000D01*
X131791904Y-95891000D01*
X131798108Y-95876022D01*
X131835000Y-95690552D01*
X131835000Y-95501448D01*
X131798108Y-95315978D01*
X131725741Y-95141269D01*
X131630053Y-94998061D01*
X132065000Y-94998061D01*
X132065000Y-95201939D01*
X132104774Y-95401898D01*
X132182795Y-95590256D01*
X132296063Y-95759774D01*
X132440226Y-95903937D01*
X132609744Y-96017205D01*
X132798102Y-96095226D01*
X132998061Y-96135000D01*
X133201939Y-96135000D01*
X133401898Y-96095226D01*
X133590256Y-96017205D01*
X133759774Y-95903937D01*
X133903937Y-95759774D01*
X134017205Y-95590256D01*
X134095226Y-95401898D01*
X134135000Y-95201939D01*
X134135000Y-94998061D01*
X134095226Y-94798102D01*
X134017205Y-94609744D01*
X133903937Y-94440226D01*
X133759774Y-94296063D01*
X133590256Y-94182795D01*
X133401898Y-94104774D01*
X133201939Y-94065000D01*
X132998061Y-94065000D01*
X132798102Y-94104774D01*
X132609744Y-94182795D01*
X132440226Y-94296063D01*
X132296063Y-94440226D01*
X132182795Y-94609744D01*
X132104774Y-94798102D01*
X132065000Y-94998061D01*
X131630053Y-94998061D01*
X131620681Y-94984036D01*
X131486964Y-94850319D01*
X131376084Y-94776231D01*
X131400507Y-94653446D01*
X131400507Y-94449568D01*
X131360733Y-94249609D01*
X131282712Y-94061251D01*
X131169444Y-93891733D01*
X131025281Y-93747570D01*
X130855763Y-93634302D01*
X130667405Y-93556281D01*
X130510501Y-93525071D01*
X139173000Y-93525071D01*
X139173000Y-93728949D01*
X139212774Y-93928908D01*
X139290795Y-94117266D01*
X139404063Y-94286784D01*
X139548226Y-94430947D01*
X139717744Y-94544215D01*
X139906102Y-94622236D01*
X140106061Y-94662010D01*
X140309939Y-94662010D01*
X140509898Y-94622236D01*
X140698256Y-94544215D01*
X140867774Y-94430947D01*
X140889549Y-94409172D01*
X154593875Y-94409172D01*
X154593875Y-94578578D01*
X154626924Y-94744728D01*
X154691753Y-94901238D01*
X154785870Y-95042093D01*
X154905657Y-95161880D01*
X155046512Y-95255997D01*
X155203022Y-95320826D01*
X155369172Y-95353875D01*
X155538578Y-95353875D01*
X155657578Y-95330205D01*
X155636935Y-95380041D01*
X155603886Y-95546191D01*
X155603886Y-95715597D01*
X155636935Y-95881747D01*
X155701764Y-96038257D01*
X155788795Y-96168506D01*
X155774507Y-96182794D01*
X155680390Y-96323649D01*
X155615561Y-96480159D01*
X155582512Y-96646309D01*
X155582512Y-96815715D01*
X155615561Y-96981865D01*
X155680390Y-97138375D01*
X155774507Y-97279230D01*
X155894294Y-97399017D01*
X156035149Y-97493134D01*
X156191659Y-97557963D01*
X156357809Y-97591012D01*
X156527215Y-97591012D01*
X156693365Y-97557963D01*
X156849875Y-97493134D01*
X156990730Y-97399017D01*
X157014207Y-97375541D01*
X157040740Y-97402074D01*
X157181595Y-97496191D01*
X157338105Y-97561020D01*
X157504255Y-97594069D01*
X157673661Y-97594069D01*
X157839811Y-97561020D01*
X157996321Y-97496191D01*
X158137176Y-97402074D01*
X158256963Y-97282287D01*
X158351080Y-97141432D01*
X158415909Y-96984922D01*
X158448958Y-96818772D01*
X158448958Y-96663595D01*
X158587187Y-96571233D01*
X158706974Y-96451446D01*
X158801091Y-96310591D01*
X158865920Y-96154081D01*
X158898969Y-95987931D01*
X158898969Y-95818525D01*
X158865920Y-95652375D01*
X158801091Y-95495865D01*
X158706974Y-95355010D01*
X158587187Y-95235223D01*
X158535130Y-95200440D01*
X158544163Y-95191407D01*
X158638280Y-95050552D01*
X158703109Y-94894042D01*
X158736158Y-94727892D01*
X158736158Y-94558486D01*
X158703109Y-94392336D01*
X158638280Y-94235826D01*
X158544163Y-94094971D01*
X158424376Y-93975184D01*
X158283521Y-93881067D01*
X158127011Y-93816238D01*
X157960861Y-93783189D01*
X157791455Y-93783189D01*
X157625305Y-93816238D01*
X157468795Y-93881067D01*
X157327940Y-93975184D01*
X157208153Y-94094971D01*
X157114036Y-94235826D01*
X157049207Y-94392336D01*
X157016158Y-94558486D01*
X157016158Y-94727892D01*
X157049207Y-94894042D01*
X157114036Y-95050552D01*
X157208153Y-95191407D01*
X157327940Y-95311194D01*
X157379997Y-95345977D01*
X157370964Y-95355010D01*
X157305381Y-95453161D01*
X157290837Y-95380041D01*
X157226008Y-95223531D01*
X157131891Y-95082676D01*
X157012104Y-94962889D01*
X156871249Y-94868772D01*
X156714739Y-94803943D01*
X156548589Y-94770894D01*
X156379183Y-94770894D01*
X156260183Y-94794564D01*
X156280826Y-94744728D01*
X156313875Y-94578578D01*
X156313875Y-94409172D01*
X156280826Y-94243022D01*
X156240770Y-94146318D01*
X156250218Y-94140005D01*
X156370005Y-94020218D01*
X156464122Y-93879363D01*
X156528951Y-93722853D01*
X156562000Y-93556703D01*
X156562000Y-93387297D01*
X156528951Y-93221147D01*
X156464122Y-93064637D01*
X156370005Y-92923782D01*
X156250218Y-92803995D01*
X156109363Y-92709878D01*
X155952853Y-92645049D01*
X155786703Y-92612000D01*
X155617297Y-92612000D01*
X155451147Y-92645049D01*
X155294637Y-92709878D01*
X155153782Y-92803995D01*
X155033995Y-92923782D01*
X154939878Y-93064637D01*
X154875049Y-93221147D01*
X154842000Y-93387297D01*
X154842000Y-93556703D01*
X154875049Y-93722853D01*
X154915105Y-93819557D01*
X154905657Y-93825870D01*
X154785870Y-93945657D01*
X154691753Y-94086512D01*
X154626924Y-94243022D01*
X154593875Y-94409172D01*
X140889549Y-94409172D01*
X141011937Y-94286784D01*
X141125205Y-94117266D01*
X141203226Y-93928908D01*
X141243000Y-93728949D01*
X141243000Y-93525071D01*
X141203226Y-93325112D01*
X141125205Y-93136754D01*
X141011937Y-92967236D01*
X140867774Y-92823073D01*
X140698256Y-92709805D01*
X140509898Y-92631784D01*
X140309939Y-92592010D01*
X140106061Y-92592010D01*
X139906102Y-92631784D01*
X139717744Y-92709805D01*
X139548226Y-92823073D01*
X139404063Y-92967236D01*
X139290795Y-93136754D01*
X139212774Y-93325112D01*
X139173000Y-93525071D01*
X130510501Y-93525071D01*
X130467446Y-93516507D01*
X130263568Y-93516507D01*
X130063609Y-93556281D01*
X129875251Y-93634302D01*
X129705733Y-93747570D01*
X129561570Y-93891733D01*
X129448302Y-94061251D01*
X129405963Y-94163464D01*
X129303750Y-94205803D01*
X129134232Y-94319071D01*
X128990069Y-94463234D01*
X128876801Y-94632752D01*
X128798780Y-94821110D01*
X128759006Y-95021069D01*
X126059000Y-95021069D01*
X126059000Y-92498297D01*
X158017000Y-92498297D01*
X158017000Y-92667703D01*
X158050049Y-92833853D01*
X158114878Y-92990363D01*
X158208995Y-93131218D01*
X158328782Y-93251005D01*
X158469637Y-93345122D01*
X158626147Y-93409951D01*
X158792297Y-93443000D01*
X158961703Y-93443000D01*
X159127853Y-93409951D01*
X159284363Y-93345122D01*
X159425218Y-93251005D01*
X159545005Y-93131218D01*
X159639122Y-92990363D01*
X159703951Y-92833853D01*
X159737000Y-92667703D01*
X159737000Y-92498297D01*
X159703951Y-92332147D01*
X159639122Y-92175637D01*
X159545005Y-92034782D01*
X159425218Y-91914995D01*
X159284363Y-91820878D01*
X159127853Y-91756049D01*
X158961703Y-91723000D01*
X158792297Y-91723000D01*
X158626147Y-91756049D01*
X158469637Y-91820878D01*
X158328782Y-91914995D01*
X158208995Y-92034782D01*
X158114878Y-92175637D01*
X158050049Y-92332147D01*
X158017000Y-92498297D01*
X126059000Y-92498297D01*
X126059000Y-90195061D01*
X128886000Y-90195061D01*
X128886000Y-90398939D01*
X128925774Y-90598898D01*
X129003795Y-90787256D01*
X129117063Y-90956774D01*
X129261226Y-91100937D01*
X129429719Y-91213520D01*
X129433774Y-91233906D01*
X129511795Y-91422264D01*
X129625063Y-91591782D01*
X129769226Y-91735945D01*
X129938744Y-91849213D01*
X130127102Y-91927234D01*
X130327061Y-91967008D01*
X130530939Y-91967008D01*
X130730898Y-91927234D01*
X130919256Y-91849213D01*
X131088774Y-91735945D01*
X131232937Y-91591782D01*
X131346205Y-91422264D01*
X131424226Y-91233906D01*
X131464000Y-91033947D01*
X131464000Y-90830069D01*
X131424226Y-90630110D01*
X131415626Y-90609348D01*
X131486964Y-90561681D01*
X131620681Y-90427964D01*
X131725741Y-90270731D01*
X131755841Y-90198061D01*
X132065000Y-90198061D01*
X132065000Y-90401939D01*
X132104774Y-90601898D01*
X132182795Y-90790256D01*
X132296063Y-90959774D01*
X132440226Y-91103937D01*
X132609744Y-91217205D01*
X132798102Y-91295226D01*
X132998061Y-91335000D01*
X133201939Y-91335000D01*
X133401898Y-91295226D01*
X133590256Y-91217205D01*
X133759774Y-91103937D01*
X133903937Y-90959774D01*
X133990608Y-90830061D01*
X143364000Y-90830061D01*
X143364000Y-91033939D01*
X143403774Y-91233898D01*
X143481795Y-91422256D01*
X143595063Y-91591774D01*
X143739226Y-91735937D01*
X143908744Y-91849205D01*
X144097102Y-91927226D01*
X144297061Y-91967000D01*
X144500939Y-91967000D01*
X144700898Y-91927226D01*
X144889256Y-91849205D01*
X145058774Y-91735937D01*
X145202937Y-91591774D01*
X145316205Y-91422256D01*
X145394226Y-91233898D01*
X145434000Y-91033939D01*
X145434000Y-90830061D01*
X145394226Y-90630102D01*
X145371842Y-90576061D01*
X147936000Y-90576061D01*
X147936000Y-90779939D01*
X147975774Y-90979898D01*
X148053795Y-91168256D01*
X148167063Y-91337774D01*
X148311226Y-91481937D01*
X148480744Y-91595205D01*
X148669102Y-91673226D01*
X148869061Y-91713000D01*
X149072939Y-91713000D01*
X149272898Y-91673226D01*
X149461256Y-91595205D01*
X149630774Y-91481937D01*
X149774937Y-91337774D01*
X149888205Y-91168256D01*
X149966226Y-90979898D01*
X150006000Y-90779939D01*
X150006000Y-90576061D01*
X149966226Y-90376102D01*
X149888205Y-90187744D01*
X149774937Y-90018226D01*
X149630774Y-89874063D01*
X149461256Y-89760795D01*
X149272898Y-89682774D01*
X149072939Y-89643000D01*
X148869061Y-89643000D01*
X148669102Y-89682774D01*
X148480744Y-89760795D01*
X148311226Y-89874063D01*
X148167063Y-90018226D01*
X148053795Y-90187744D01*
X147975774Y-90376102D01*
X147936000Y-90576061D01*
X145371842Y-90576061D01*
X145316205Y-90441744D01*
X145202937Y-90272226D01*
X145058774Y-90128063D01*
X144889256Y-90014795D01*
X144700898Y-89936774D01*
X144500939Y-89897000D01*
X144297061Y-89897000D01*
X144097102Y-89936774D01*
X143908744Y-90014795D01*
X143739226Y-90128063D01*
X143595063Y-90272226D01*
X143481795Y-90441744D01*
X143403774Y-90630102D01*
X143364000Y-90830061D01*
X133990608Y-90830061D01*
X134017205Y-90790256D01*
X134095226Y-90601898D01*
X134135000Y-90401939D01*
X134135000Y-90198061D01*
X134095226Y-89998102D01*
X134017205Y-89809744D01*
X133903937Y-89640226D01*
X133759774Y-89496063D01*
X133590256Y-89382795D01*
X133401898Y-89304774D01*
X133201939Y-89265000D01*
X132998061Y-89265000D01*
X132798102Y-89304774D01*
X132609744Y-89382795D01*
X132440226Y-89496063D01*
X132296063Y-89640226D01*
X132182795Y-89809744D01*
X132104774Y-89998102D01*
X132065000Y-90198061D01*
X131755841Y-90198061D01*
X131798108Y-90096022D01*
X131835000Y-89910552D01*
X131835000Y-89721448D01*
X131798108Y-89535978D01*
X131791904Y-89521000D01*
X131998002Y-89521000D01*
X131998002Y-89342041D01*
X132171493Y-89475644D01*
X132379336Y-89406618D01*
X132569719Y-89298371D01*
X132735326Y-89155062D01*
X132869792Y-88982198D01*
X132925411Y-88922099D01*
X132827183Y-88759000D01*
X131998000Y-88759000D01*
X131998000Y-88886000D01*
X131120373Y-88886000D01*
X130969552Y-88856000D01*
X130780448Y-88856000D01*
X130752000Y-88861659D01*
X130752000Y-88759000D01*
X129922817Y-88759000D01*
X129824589Y-88922099D01*
X129880208Y-88982198D01*
X130014674Y-89155062D01*
X130108051Y-89235866D01*
X130082652Y-89273878D01*
X130022939Y-89262000D01*
X129819061Y-89262000D01*
X129619102Y-89301774D01*
X129430744Y-89379795D01*
X129261226Y-89493063D01*
X129117063Y-89637226D01*
X129003795Y-89806744D01*
X128925774Y-89995102D01*
X128886000Y-90195061D01*
X126059000Y-90195061D01*
X126059000Y-89084133D01*
X126074836Y-89106202D01*
X126231100Y-89252370D01*
X126412877Y-89365243D01*
X126572000Y-89269858D01*
X126572000Y-88759000D01*
X127818000Y-88759000D01*
X127818000Y-89269858D01*
X127977123Y-89365243D01*
X128158900Y-89252370D01*
X128315164Y-89106202D01*
X128439909Y-88932357D01*
X128495411Y-88922099D01*
X128397183Y-88759000D01*
X127818000Y-88759000D01*
X126572000Y-88759000D01*
X126552000Y-88759000D01*
X126552000Y-88671061D01*
X140316000Y-88671061D01*
X140316000Y-88874939D01*
X140355774Y-89074898D01*
X140433795Y-89263256D01*
X140547063Y-89432774D01*
X140691226Y-89576937D01*
X140860744Y-89690205D01*
X141049102Y-89768226D01*
X141249061Y-89808000D01*
X141452939Y-89808000D01*
X141514052Y-89795844D01*
X141507000Y-89831297D01*
X141507000Y-90000703D01*
X141540049Y-90166853D01*
X141604878Y-90323363D01*
X141698995Y-90464218D01*
X141818782Y-90584005D01*
X141959637Y-90678122D01*
X142116147Y-90742951D01*
X142282297Y-90776000D01*
X142451703Y-90776000D01*
X142617853Y-90742951D01*
X142774363Y-90678122D01*
X142915218Y-90584005D01*
X143035005Y-90464218D01*
X143129122Y-90323363D01*
X143193951Y-90166853D01*
X143227000Y-90000703D01*
X143227000Y-89831297D01*
X143193951Y-89665147D01*
X143129122Y-89508637D01*
X143090141Y-89450297D01*
X150397000Y-89450297D01*
X150397000Y-89619703D01*
X150430049Y-89785853D01*
X150494878Y-89942363D01*
X150588995Y-90083218D01*
X150708782Y-90203005D01*
X150849637Y-90297122D01*
X151006147Y-90361951D01*
X151172297Y-90395000D01*
X151341703Y-90395000D01*
X151507853Y-90361951D01*
X151664363Y-90297122D01*
X151791328Y-90212286D01*
X158906000Y-90212286D01*
X158906000Y-90381692D01*
X158939049Y-90547842D01*
X159003878Y-90704352D01*
X159097995Y-90845207D01*
X159217782Y-90964994D01*
X159358637Y-91059111D01*
X159515147Y-91123940D01*
X159681297Y-91156989D01*
X159850703Y-91156989D01*
X160016853Y-91123940D01*
X160173363Y-91059111D01*
X160314218Y-90964994D01*
X160434005Y-90845207D01*
X160528122Y-90704352D01*
X160592951Y-90547842D01*
X160626000Y-90381692D01*
X160626000Y-90212286D01*
X160592951Y-90046136D01*
X160528122Y-89889626D01*
X160434005Y-89748771D01*
X160314218Y-89628984D01*
X160173363Y-89534867D01*
X160016853Y-89470038D01*
X159850703Y-89436989D01*
X159681297Y-89436989D01*
X159515147Y-89470038D01*
X159358637Y-89534867D01*
X159217782Y-89628984D01*
X159097995Y-89748771D01*
X159003878Y-89889626D01*
X158939049Y-90046136D01*
X158906000Y-90212286D01*
X151791328Y-90212286D01*
X151805218Y-90203005D01*
X151925005Y-90083218D01*
X152019122Y-89942363D01*
X152083951Y-89785853D01*
X152117000Y-89619703D01*
X152117000Y-89450297D01*
X152083951Y-89284147D01*
X152019122Y-89127637D01*
X151925005Y-88986782D01*
X151805218Y-88866995D01*
X151664363Y-88772878D01*
X151507853Y-88708049D01*
X151341703Y-88675000D01*
X151172297Y-88675000D01*
X151006147Y-88708049D01*
X150849637Y-88772878D01*
X150708782Y-88866995D01*
X150588995Y-88986782D01*
X150494878Y-89127637D01*
X150430049Y-89284147D01*
X150397000Y-89450297D01*
X143090141Y-89450297D01*
X143035005Y-89367782D01*
X142915218Y-89247995D01*
X142774363Y-89153878D01*
X142617853Y-89089049D01*
X142451703Y-89056000D01*
X142349985Y-89056000D01*
X142386000Y-88874939D01*
X142386000Y-88671061D01*
X142346226Y-88471102D01*
X142271236Y-88290061D01*
X168129000Y-88290061D01*
X168129000Y-88493939D01*
X168168774Y-88693898D01*
X168246795Y-88882256D01*
X168360063Y-89051774D01*
X168504226Y-89195937D01*
X168673744Y-89309205D01*
X168862102Y-89387226D01*
X169062061Y-89427000D01*
X169265939Y-89427000D01*
X169465898Y-89387226D01*
X169654256Y-89309205D01*
X169823774Y-89195937D01*
X169967937Y-89051774D01*
X170081205Y-88882256D01*
X170159226Y-88693898D01*
X170199000Y-88493939D01*
X170199000Y-88290061D01*
X170159226Y-88090102D01*
X170081205Y-87901744D01*
X169967937Y-87732226D01*
X169823774Y-87588063D01*
X169654256Y-87474795D01*
X169465898Y-87396774D01*
X169265939Y-87357000D01*
X169062061Y-87357000D01*
X168862102Y-87396774D01*
X168673744Y-87474795D01*
X168504226Y-87588063D01*
X168360063Y-87732226D01*
X168246795Y-87901744D01*
X168168774Y-88090102D01*
X168129000Y-88290061D01*
X142271236Y-88290061D01*
X142268205Y-88282744D01*
X142154937Y-88113226D01*
X142010774Y-87969063D01*
X141841256Y-87855795D01*
X141652898Y-87777774D01*
X141452939Y-87738000D01*
X141249061Y-87738000D01*
X141049102Y-87777774D01*
X140860744Y-87855795D01*
X140691226Y-87969063D01*
X140547063Y-88113226D01*
X140433795Y-88282744D01*
X140355774Y-88471102D01*
X140316000Y-88671061D01*
X126552000Y-88671061D01*
X126552000Y-88066091D01*
X126732091Y-87886000D01*
X127818000Y-87886000D01*
X127818000Y-88013000D01*
X128397183Y-88013000D01*
X128495411Y-87849901D01*
X129824589Y-87849901D01*
X129922817Y-88013000D01*
X130752000Y-88013000D01*
X130752000Y-87429961D01*
X131998000Y-87429961D01*
X131998000Y-88013000D01*
X132827183Y-88013000D01*
X132925411Y-87849901D01*
X132869792Y-87789802D01*
X132735326Y-87616938D01*
X132569719Y-87473629D01*
X132379336Y-87365382D01*
X132171493Y-87296356D01*
X131998000Y-87429961D01*
X130752000Y-87429961D01*
X130578507Y-87296356D01*
X130370664Y-87365382D01*
X130180281Y-87473629D01*
X130014674Y-87616938D01*
X129880208Y-87789802D01*
X129824589Y-87849901D01*
X128495411Y-87849901D01*
X128439909Y-87839643D01*
X128315164Y-87665798D01*
X128158900Y-87519630D01*
X127977123Y-87406757D01*
X127818002Y-87502141D01*
X127818002Y-87251000D01*
X127367091Y-87251000D01*
X127477379Y-87140712D01*
X127504475Y-87118475D01*
X127593200Y-87010363D01*
X127659128Y-86887020D01*
X127699727Y-86753184D01*
X127710000Y-86648877D01*
X127710000Y-86648875D01*
X127710966Y-86639061D01*
X134982000Y-86639061D01*
X134982000Y-86842939D01*
X135021774Y-87042898D01*
X135099795Y-87231256D01*
X135213063Y-87400774D01*
X135357226Y-87544937D01*
X135526744Y-87658205D01*
X135715102Y-87736226D01*
X135915061Y-87776000D01*
X136118939Y-87776000D01*
X136318898Y-87736226D01*
X136507256Y-87658205D01*
X136676774Y-87544937D01*
X136779000Y-87442711D01*
X136881226Y-87544937D01*
X137050744Y-87658205D01*
X137239102Y-87736226D01*
X137439061Y-87776000D01*
X137642939Y-87776000D01*
X137842898Y-87736226D01*
X138031256Y-87658205D01*
X138200774Y-87544937D01*
X138344937Y-87400774D01*
X138458205Y-87231256D01*
X138536226Y-87042898D01*
X138576000Y-86842939D01*
X138576000Y-86639061D01*
X138536226Y-86439102D01*
X138458205Y-86250744D01*
X138378236Y-86131061D01*
X154921000Y-86131061D01*
X154921000Y-86334939D01*
X154960774Y-86534898D01*
X155019842Y-86677500D01*
X154960774Y-86820102D01*
X154921000Y-87020061D01*
X154921000Y-87223939D01*
X154960774Y-87423898D01*
X155038795Y-87612256D01*
X155152063Y-87781774D01*
X155296226Y-87925937D01*
X155465744Y-88039205D01*
X155654102Y-88117226D01*
X155854061Y-88157000D01*
X156057939Y-88157000D01*
X156257898Y-88117226D01*
X156446256Y-88039205D01*
X156615774Y-87925937D01*
X156759937Y-87781774D01*
X156873205Y-87612256D01*
X156951226Y-87423898D01*
X156991000Y-87223939D01*
X156991000Y-87020061D01*
X156951226Y-86820102D01*
X156892158Y-86677500D01*
X156951226Y-86534898D01*
X156952340Y-86529297D01*
X170068000Y-86529297D01*
X170068000Y-86698703D01*
X170101049Y-86864853D01*
X170165878Y-87021363D01*
X170259995Y-87162218D01*
X170312300Y-87214523D01*
X170306878Y-87222637D01*
X170242049Y-87379147D01*
X170209000Y-87545297D01*
X170209000Y-87714703D01*
X170242049Y-87880853D01*
X170306878Y-88037363D01*
X170400995Y-88178218D01*
X170520782Y-88298005D01*
X170661637Y-88392122D01*
X170818147Y-88456951D01*
X170984297Y-88490000D01*
X171153703Y-88490000D01*
X171319853Y-88456951D01*
X171476363Y-88392122D01*
X171617218Y-88298005D01*
X171737005Y-88178218D01*
X171831122Y-88037363D01*
X171831659Y-88036065D01*
X173844000Y-88036065D01*
X173844000Y-88239943D01*
X173883774Y-88439902D01*
X173961795Y-88628260D01*
X174075063Y-88797778D01*
X174219226Y-88941941D01*
X174388744Y-89055209D01*
X174577102Y-89133230D01*
X174777061Y-89173004D01*
X174980939Y-89173004D01*
X175180898Y-89133230D01*
X175369256Y-89055209D01*
X175538774Y-88941941D01*
X175682937Y-88797778D01*
X175796205Y-88628260D01*
X175874226Y-88439902D01*
X175914000Y-88239943D01*
X175914000Y-88036065D01*
X175874226Y-87836106D01*
X175796205Y-87647748D01*
X175682937Y-87478230D01*
X175538774Y-87334067D01*
X175369256Y-87220799D01*
X175180898Y-87142778D01*
X174980939Y-87103004D01*
X174777061Y-87103004D01*
X174577102Y-87142778D01*
X174388744Y-87220799D01*
X174219226Y-87334067D01*
X174075063Y-87478230D01*
X173961795Y-87647748D01*
X173883774Y-87836106D01*
X173844000Y-88036065D01*
X171831659Y-88036065D01*
X171895951Y-87880853D01*
X171929000Y-87714703D01*
X171929000Y-87545297D01*
X171895951Y-87379147D01*
X171831122Y-87222637D01*
X171737005Y-87081782D01*
X171684700Y-87029477D01*
X171690122Y-87021363D01*
X171754951Y-86864853D01*
X171788000Y-86698703D01*
X171788000Y-86529297D01*
X171754951Y-86363147D01*
X171690122Y-86206637D01*
X171596005Y-86065782D01*
X171476218Y-85945995D01*
X171335363Y-85851878D01*
X171178853Y-85787049D01*
X171012703Y-85754000D01*
X170843297Y-85754000D01*
X170677147Y-85787049D01*
X170520637Y-85851878D01*
X170379782Y-85945995D01*
X170259995Y-86065782D01*
X170165878Y-86206637D01*
X170101049Y-86363147D01*
X170068000Y-86529297D01*
X156952340Y-86529297D01*
X156991000Y-86334939D01*
X156991000Y-86131061D01*
X156951226Y-85931102D01*
X156873205Y-85742744D01*
X156759937Y-85573226D01*
X156615774Y-85429063D01*
X156446256Y-85315795D01*
X156257898Y-85237774D01*
X156057939Y-85198000D01*
X155854061Y-85198000D01*
X155654102Y-85237774D01*
X155465744Y-85315795D01*
X155296226Y-85429063D01*
X155152063Y-85573226D01*
X155038795Y-85742744D01*
X154960774Y-85931102D01*
X154921000Y-86131061D01*
X138378236Y-86131061D01*
X138344937Y-86081226D01*
X138200774Y-85937063D01*
X138031256Y-85823795D01*
X137842898Y-85745774D01*
X137642939Y-85706000D01*
X137439061Y-85706000D01*
X137239102Y-85745774D01*
X137050744Y-85823795D01*
X136881226Y-85937063D01*
X136779000Y-86039289D01*
X136676774Y-85937063D01*
X136507256Y-85823795D01*
X136318898Y-85745774D01*
X136118939Y-85706000D01*
X135915061Y-85706000D01*
X135715102Y-85745774D01*
X135526744Y-85823795D01*
X135357226Y-85937063D01*
X135213063Y-86081226D01*
X135099795Y-86250744D01*
X135021774Y-86439102D01*
X134982000Y-86639061D01*
X127710966Y-86639061D01*
X127713435Y-86614000D01*
X127710000Y-86579125D01*
X127710000Y-85104105D01*
X127803962Y-85244729D01*
X128115271Y-85556038D01*
X128481331Y-85800631D01*
X128888075Y-85969110D01*
X129319872Y-86055000D01*
X129760128Y-86055000D01*
X130191925Y-85969110D01*
X130598669Y-85800631D01*
X130964729Y-85556038D01*
X131276038Y-85244729D01*
X131520631Y-84878669D01*
X131689110Y-84471925D01*
X131775000Y-84040128D01*
X131775000Y-83735297D01*
X132109000Y-83735297D01*
X132109000Y-83904703D01*
X132142049Y-84070853D01*
X132206878Y-84227363D01*
X132300995Y-84368218D01*
X132420782Y-84488005D01*
X132561637Y-84582122D01*
X132718147Y-84646951D01*
X132884297Y-84680000D01*
X133053703Y-84680000D01*
X133219853Y-84646951D01*
X133376363Y-84582122D01*
X133517218Y-84488005D01*
X133637005Y-84368218D01*
X133731122Y-84227363D01*
X133795951Y-84070853D01*
X133829000Y-83904703D01*
X133829000Y-83735297D01*
X133795951Y-83569147D01*
X133731122Y-83412637D01*
X133637005Y-83271782D01*
X133517218Y-83151995D01*
X133376363Y-83057878D01*
X133219853Y-82993049D01*
X133053703Y-82960000D01*
X132884297Y-82960000D01*
X132718147Y-82993049D01*
X132561637Y-83057878D01*
X132420782Y-83151995D01*
X132300995Y-83271782D01*
X132206878Y-83412637D01*
X132142049Y-83569147D01*
X132109000Y-83735297D01*
X131775000Y-83735297D01*
X131775000Y-83599872D01*
X131689110Y-83168075D01*
X131520631Y-82761331D01*
X131276038Y-82395271D01*
X130964729Y-82083962D01*
X130824105Y-81990000D01*
X142021928Y-81990000D01*
X142021928Y-83400000D01*
G37*
G04 #@! TD.AperFunction*
M02*
