M48
; DRILL file {KiCad (5.1.7-0-10_14)} date Saturday, October 24, 2020 at 03:10:06 PM
; FORMAT={-:-/ absolute / inch / decimal}
; #@! TF.CreationDate,2020-10-24T15:10:06+08:00
; #@! TF.GenerationSoftware,Kicad,Pcbnew,(5.1.7-0-10_14)
; #@! TF.FileFunction,Plated,1,4,PTH
FMAT,2
INCH
T1C0.0079
T2C0.0157
T3C0.0236
T4C0.0394
T5C0.0984
%
G90
G05
T1
X5.235Y-3.3
X5.255Y-3.955
X5.3307Y-3.5669
X5.5236Y-3.5413
X5.6358Y-3.5256
X5.7047Y-3.752
X5.809Y-3.7913
X5.8447Y-3.7305
X5.8823Y-3.8712
X5.9016Y-3.2874
X5.9843Y-3.5177
X5.998Y-3.8858
X5.998Y-3.9469
X6.0605Y-3.378
X6.1102Y-3.8957
X6.1339Y-3.815
X6.1752Y-3.7571
X6.1779Y-3.8
X6.1988Y-3.4921
X6.2028Y-3.3563
X6.2143Y-3.7446
X6.2145Y-3.808
X6.231Y-3.7782
X6.2441Y-3.8622
X6.252Y-3.9409
X6.2638Y-3.6417
X6.2869Y-3.9385
X6.2923Y-3.9029
X6.2926Y-3.5105
X6.3282Y-3.9072
X6.3484Y-3.4902
X6.3712Y-3.9331
X6.4148Y-3.9345
X6.4549Y-3.9641
X6.4744Y-3.4902
X6.4939Y-3.8741
X6.5236Y-3.8602
X6.5256Y-3.9272
X6.5413Y-3.3189
X6.5728Y-3.9094
X6.5917Y-3.8487
X6.6166Y-3.8232
X6.6339Y-3.3681
X6.6339Y-3.4272
X6.6378Y-3.8504
X6.6496Y-3.6201
X6.6516Y-3.4961
X6.6535Y-3.7283
X6.6563Y-3.7945
X6.6601Y-3.7651
X6.689Y-3.6201
X6.689Y-3.6614
X6.7087Y-3.3976
X6.7283Y-3.3228
X6.7283Y-3.3622
X6.7283Y-3.4528
X6.7283Y-3.502
X6.7283Y-3.5413
X6.7283Y-3.5807
X6.7283Y-3.6201
X6.7283Y-3.6614
X6.7283Y-3.7008
X6.7283Y-3.7402
X6.7283Y-3.7795
X6.7283Y-3.8189
X6.7283Y-3.8583
X6.7283Y-3.8976
X6.7283Y-3.937
X6.7283Y-3.9764
T2
X5.135Y-3.5925
X5.135Y-3.7106
X5.2402Y-3.5551
X5.2402Y-3.7441
X5.34Y-3.685
X5.355Y-3.415
X5.415Y-3.415
X5.4213Y-3.8543
X5.4902Y-3.3957
X5.52Y-3.6861
X5.555Y-3.415
X5.565Y-3.4823
X5.6496Y-3.8583
X5.6811Y-3.9291
X5.685Y-3.5571
X5.6988Y-3.4311
X5.876Y-3.5059
X6.0571Y-3.4606
X6.1024Y-3.4567
X6.2598Y-3.8287
X6.3976Y-3.6614
X6.3976Y-3.7205
X6.4567Y-3.6614
X6.4567Y-3.7205
T4
X5.25Y-4.05
X5.35Y-4.05
X5.45Y-4.05
X5.55Y-4.05
X5.65Y-4.05
X5.75Y-4.05
X5.85Y-4.05
X5.95Y-4.05
X6.05Y-4.05
X6.15Y-4.05
X6.25Y-4.05
X6.35Y-4.05
X6.45Y-4.05
X6.55Y-4.05
X6.65Y-4.05
X6.75Y-4.05
X5.65Y-3.25
X5.75Y-3.25
X5.85Y-3.25
X5.95Y-3.25
X6.05Y-3.25
X6.15Y-3.25
X6.25Y-3.25
X6.35Y-3.25
X6.45Y-3.25
X6.55Y-3.25
X6.65Y-3.25
X6.75Y-3.25
T5
X5.1Y-3.3
X5.1Y-4.0
T3
G00X5.0195Y-3.4798
M15
G01X4.9959Y-3.4798
M16
G05
G00X5.0195Y-3.8199
M15
G01X4.9959Y-3.8199
M16
G05
G00X5.1939Y-3.4798
M15
G01X5.1506Y-3.4798
M16
G05
G00X5.1939Y-3.8199
M15
G01X5.1506Y-3.8199
M16
G05
T0
M30
