G04 #@! TF.GenerationSoftware,KiCad,Pcbnew,(5.1.7-0-10_14)*
G04 #@! TF.CreationDate,2020-10-21T09:18:26+08:00*
G04 #@! TF.ProjectId,Feather_STM32WB55,46656174-6865-4725-9f53-544d33325742,rev?*
G04 #@! TF.SameCoordinates,Original*
G04 #@! TF.FileFunction,Legend,Top*
G04 #@! TF.FilePolarity,Positive*
%FSLAX46Y46*%
G04 Gerber Fmt 4.6, Leading zero omitted, Abs format (unit mm)*
G04 Created by KiCad (PCBNEW (5.1.7-0-10_14)) date 2020-10-21 09:18:26*
%MOMM*%
%LPD*%
G01*
G04 APERTURE LIST*
%ADD10C,0.120000*%
%ADD11C,0.200000*%
%ADD12C,0.100000*%
%ADD13C,0.150000*%
%ADD14C,0.250000*%
%ADD15C,0.127000*%
G04 APERTURE END LIST*
D10*
X141182842Y-98000000D02*
G75*
G03*
X141182842Y-98000000I-141421J0D01*
G01*
X151641421Y-86700000D02*
G75*
G03*
X151641421Y-86700000I-141421J0D01*
G01*
X145441421Y-88000000D02*
G75*
G03*
X145441421Y-88000000I-141421J0D01*
G01*
X135941421Y-92600000D02*
G75*
G03*
X135941421Y-92600000I-141421J0D01*
G01*
D11*
X137152380Y-97052380D02*
X136819047Y-96576190D01*
X136580952Y-97052380D02*
X136580952Y-96052380D01*
X136961904Y-96052380D01*
X137057142Y-96100000D01*
X137104761Y-96147619D01*
X137152380Y-96242857D01*
X137152380Y-96385714D01*
X137104761Y-96480952D01*
X137057142Y-96528571D01*
X136961904Y-96576190D01*
X136580952Y-96576190D01*
X137533333Y-97004761D02*
X137676190Y-97052380D01*
X137914285Y-97052380D01*
X138009523Y-97004761D01*
X138057142Y-96957142D01*
X138104761Y-96861904D01*
X138104761Y-96766666D01*
X138057142Y-96671428D01*
X138009523Y-96623809D01*
X137914285Y-96576190D01*
X137723809Y-96528571D01*
X137628571Y-96480952D01*
X137580952Y-96433333D01*
X137533333Y-96338095D01*
X137533333Y-96242857D01*
X137580952Y-96147619D01*
X137628571Y-96100000D01*
X137723809Y-96052380D01*
X137961904Y-96052380D01*
X138104761Y-96100000D01*
X138390476Y-96052380D02*
X138961904Y-96052380D01*
X138676190Y-97052380D02*
X138676190Y-96052380D01*
D10*
X130120000Y-88126000D02*
X128200000Y-88126000D01*
X128200000Y-97286000D02*
X130120000Y-97286000D01*
X126190000Y-97286000D02*
X124485000Y-97286000D01*
X124485000Y-88126000D02*
X126190000Y-88126000D01*
X124485000Y-97286000D02*
X124485000Y-88126000D01*
D12*
X174400000Y-93900000D02*
X177400000Y-93900000D01*
X174400000Y-100900000D02*
X174400000Y-93900000D01*
X177400000Y-100900000D02*
X174400000Y-100900000D01*
X177400000Y-93900000D02*
X177400000Y-100900000D01*
X169375000Y-91925000D02*
X169375000Y-91925000D01*
X169475000Y-91925000D02*
X169475000Y-91925000D01*
X169375000Y-91925000D02*
G75*
G02*
X169475000Y-91925000I50000J0D01*
G01*
X169475000Y-91925000D02*
G75*
G02*
X169375000Y-91925000I-50000J0D01*
G01*
D10*
X168890000Y-99762779D02*
X168890000Y-99437221D01*
X169910000Y-99762779D02*
X169910000Y-99437221D01*
X130340000Y-85752000D02*
X128055000Y-85752000D01*
X128055000Y-85752000D02*
X128055000Y-87222000D01*
X128055000Y-87222000D02*
X130340000Y-87222000D01*
X128740000Y-99668000D02*
X131025000Y-99668000D01*
X131025000Y-99668000D02*
X131025000Y-98198000D01*
X131025000Y-98198000D02*
X128740000Y-98198000D01*
X171559420Y-98290000D02*
X171840580Y-98290000D01*
X171559420Y-99310000D02*
X171840580Y-99310000D01*
X140950000Y-96950000D02*
X146850000Y-96950000D01*
X140950000Y-100850000D02*
X146850000Y-100850000D01*
X146850000Y-100850000D02*
X146850000Y-99775000D01*
D13*
X166822000Y-90476000D02*
X166822000Y-90226000D01*
X166822000Y-90226000D02*
X166572000Y-90226000D01*
X159822000Y-90476000D02*
X159822000Y-90226000D01*
X159822000Y-90226000D02*
X160072000Y-90226000D01*
X166822000Y-96976000D02*
X166822000Y-97226000D01*
X166822000Y-97226000D02*
X166572000Y-97226000D01*
X159822000Y-96976000D02*
X159822000Y-97226000D01*
X159822000Y-97226000D02*
X160072000Y-97226000D01*
D14*
X160697000Y-98507066D02*
G75*
G03*
X160697000Y-98507066I-125000J0D01*
G01*
D10*
X141855000Y-85420000D02*
X141855000Y-89670000D01*
X141855000Y-89670000D02*
X140835000Y-89670000D01*
X140835000Y-89670000D02*
X140835000Y-88070000D01*
X140835000Y-88070000D02*
X139555000Y-88070000D01*
X139555000Y-88070000D02*
X139555000Y-90960000D01*
X133735000Y-85420000D02*
X133735000Y-89670000D01*
X133735000Y-89670000D02*
X134755000Y-89670000D01*
X134755000Y-89670000D02*
X134755000Y-88070000D01*
X134755000Y-88070000D02*
X136035000Y-88070000D01*
X140135000Y-81850000D02*
X135455000Y-81850000D01*
D15*
X137301220Y-97900180D02*
X138098780Y-97900180D01*
X138098780Y-100099820D02*
X137301220Y-100099820D01*
X135601960Y-98601220D02*
X135601960Y-99398780D01*
X139798040Y-99398780D02*
X139798040Y-98601220D01*
X138898880Y-100597660D02*
X136501120Y-100597660D01*
X136501120Y-97402340D02*
X138898880Y-97402340D01*
X138098780Y-100097280D02*
G75*
G03*
X138997940Y-99000000I-99060J998220D01*
G01*
X136399520Y-99000000D02*
G75*
G03*
X137301220Y-100099820I1000760J-99060D01*
G01*
X137301220Y-97902720D02*
G75*
G03*
X136402060Y-99000000I99060J-998220D01*
G01*
X139000480Y-99000000D02*
G75*
G03*
X138098780Y-97900180I-1000760J99060D01*
G01*
D10*
X163016000Y-84329000D02*
X163016000Y-87629000D01*
X163016000Y-87629000D02*
X167016000Y-87629000D01*
X172780000Y-83880000D02*
X172780000Y-81220000D01*
X144780000Y-83880000D02*
X172780000Y-83880000D01*
X144780000Y-81220000D02*
X172780000Y-81220000D01*
X144780000Y-83880000D02*
X144780000Y-81220000D01*
X143510000Y-83880000D02*
X142180000Y-83880000D01*
X142180000Y-83880000D02*
X142180000Y-82550000D01*
X172780000Y-104200000D02*
X172780000Y-101540000D01*
X134620000Y-104200000D02*
X172780000Y-104200000D01*
X134620000Y-101540000D02*
X172780000Y-101540000D01*
X134620000Y-104200000D02*
X134620000Y-101540000D01*
X133350000Y-104200000D02*
X132020000Y-104200000D01*
X132020000Y-104200000D02*
X132020000Y-102870000D01*
X150860000Y-84872000D02*
X150860000Y-88772000D01*
X148860000Y-84872000D02*
X148860000Y-88772000D01*
X150860000Y-84872000D02*
X148860000Y-84872000D01*
X177183000Y-90078000D02*
X177183000Y-86198000D01*
X172713000Y-85028000D02*
X172713000Y-86078000D01*
X175213000Y-85028000D02*
X172713000Y-85028000D01*
X172713000Y-90198000D02*
X171723000Y-90198000D01*
X172713000Y-91248000D02*
X172713000Y-90198000D01*
X175213000Y-91248000D02*
X172713000Y-91248000D01*
X145544000Y-84272000D02*
X147004000Y-84272000D01*
X145544000Y-87432000D02*
X147704000Y-87432000D01*
X145544000Y-87432000D02*
X145544000Y-86502000D01*
X145544000Y-84272000D02*
X145544000Y-85202000D01*
X146009000Y-90816000D02*
X146009000Y-88366000D01*
X142789000Y-89016000D02*
X142789000Y-90816000D01*
X152516000Y-89240000D02*
X154316000Y-89240000D01*
X154316000Y-86020000D02*
X151866000Y-86020000D01*
X138822000Y-91989000D02*
X136372000Y-91989000D01*
X137022000Y-95209000D02*
X138822000Y-95209000D01*
X142800000Y-85593422D02*
X142800000Y-86110578D01*
X144220000Y-85593422D02*
X144220000Y-86110578D01*
X153157422Y-84126000D02*
X153674578Y-84126000D01*
X153157422Y-85546000D02*
X153674578Y-85546000D01*
X158444000Y-85983578D02*
X158444000Y-85466422D01*
X157024000Y-85983578D02*
X157024000Y-85466422D01*
X157301000Y-89149422D02*
X157301000Y-89666578D01*
X155881000Y-89149422D02*
X155881000Y-89666578D01*
X171537221Y-97810000D02*
X171862779Y-97810000D01*
X171537221Y-96790000D02*
X171862779Y-96790000D01*
X157230578Y-97207000D02*
X156713422Y-97207000D01*
X157230578Y-98627000D02*
X156713422Y-98627000D01*
X152402000Y-98714779D02*
X152402000Y-98389221D01*
X151382000Y-98714779D02*
X151382000Y-98389221D01*
X153033000Y-98714779D02*
X153033000Y-98389221D01*
X154053000Y-98714779D02*
X154053000Y-98389221D01*
X171537221Y-95290000D02*
X171862779Y-95290000D01*
X171537221Y-96310000D02*
X171862779Y-96310000D01*
X159383000Y-87538779D02*
X159383000Y-87213221D01*
X160403000Y-87538779D02*
X160403000Y-87213221D01*
X157859000Y-89118221D02*
X157859000Y-89443779D01*
X158879000Y-89118221D02*
X158879000Y-89443779D01*
X168912000Y-90007221D02*
X168912000Y-90332779D01*
X167892000Y-90007221D02*
X167892000Y-90332779D01*
X170563000Y-90007221D02*
X170563000Y-90332779D01*
X169543000Y-90007221D02*
X169543000Y-90332779D01*
X132844000Y-99405221D02*
X132844000Y-99730779D01*
X131824000Y-99405221D02*
X131824000Y-99730779D01*
X168874221Y-84580000D02*
X169199779Y-84580000D01*
X168874221Y-85600000D02*
X169199779Y-85600000D01*
X168874221Y-87124000D02*
X169199779Y-87124000D01*
X168874221Y-86104000D02*
X169199779Y-86104000D01*
X131824000Y-85435221D02*
X131824000Y-85760779D01*
X132844000Y-85435221D02*
X132844000Y-85760779D01*
X153324779Y-90934000D02*
X152999221Y-90934000D01*
X153324779Y-89914000D02*
X152999221Y-89914000D01*
X141259779Y-90549000D02*
X140934221Y-90549000D01*
X141259779Y-91569000D02*
X140934221Y-91569000D01*
X147703000Y-90459779D02*
X147703000Y-90134221D01*
X146683000Y-90459779D02*
X146683000Y-90134221D01*
X133490000Y-97637221D02*
X133490000Y-97962779D01*
X134510000Y-97637221D02*
X134510000Y-97962779D01*
X134437221Y-90890000D02*
X134762779Y-90890000D01*
X134437221Y-91910000D02*
X134762779Y-91910000D01*
X171537221Y-99790000D02*
X171862779Y-99790000D01*
X171537221Y-100810000D02*
X171862779Y-100810000D01*
M02*
