G04 #@! TF.GenerationSoftware,KiCad,Pcbnew,(5.1.7-0-10_14)*
G04 #@! TF.CreationDate,2020-10-24T15:10:09+08:00*
G04 #@! TF.ProjectId,Feather_STM32WB55,46656174-6865-4725-9f53-544d33325742,rev?*
G04 #@! TF.SameCoordinates,Original*
G04 #@! TF.FileFunction,Soldermask,Top*
G04 #@! TF.FilePolarity,Negative*
%FSLAX46Y46*%
G04 Gerber Fmt 4.6, Leading zero omitted, Abs format (unit mm)*
G04 Created by KiCad (PCBNEW (5.1.7-0-10_14)) date 2020-10-24 15:10:09*
%MOMM*%
%LPD*%
G01*
G04 APERTURE LIST*
%ADD10C,0.752000*%
%ADD11O,1.702000X1.102000*%
%ADD12O,2.202000X1.102000*%
%ADD13O,1.802000X1.802000*%
%ADD14C,3.302000*%
%ADD15C,2.302000*%
%ADD16C,0.100000*%
G04 APERTURE END LIST*
G36*
G01*
X167524000Y-86581750D02*
X167524000Y-86018250D01*
G75*
G02*
X167768250Y-85774000I244250J0D01*
G01*
X168256750Y-85774000D01*
G75*
G02*
X168501000Y-86018250I0J-244250D01*
G01*
X168501000Y-86581750D01*
G75*
G02*
X168256750Y-86826000I-244250J0D01*
G01*
X167768250Y-86826000D01*
G75*
G02*
X167524000Y-86581750I0J244250D01*
G01*
G37*
G36*
G01*
X169099000Y-86581750D02*
X169099000Y-86018250D01*
G75*
G02*
X169343250Y-85774000I244250J0D01*
G01*
X169831750Y-85774000D01*
G75*
G02*
X170076000Y-86018250I0J-244250D01*
G01*
X170076000Y-86581750D01*
G75*
G02*
X169831750Y-86826000I-244250J0D01*
G01*
X169343250Y-86826000D01*
G75*
G02*
X169099000Y-86581750I0J244250D01*
G01*
G37*
G36*
G01*
X174800000Y-93649000D02*
X177400000Y-93649000D01*
G75*
G02*
X177451000Y-93700000I0J-51000D01*
G01*
X177451000Y-95200000D01*
G75*
G02*
X177400000Y-95251000I-51000J0D01*
G01*
X174800000Y-95251000D01*
G75*
G02*
X174749000Y-95200000I0J51000D01*
G01*
X174749000Y-93700000D01*
G75*
G02*
X174800000Y-93649000I51000J0D01*
G01*
G37*
G36*
G01*
X174800000Y-98749000D02*
X177400000Y-98749000D01*
G75*
G02*
X177451000Y-98800000I0J-51000D01*
G01*
X177451000Y-100300000D01*
G75*
G02*
X177400000Y-100351000I-51000J0D01*
G01*
X174800000Y-100351000D01*
G75*
G02*
X174749000Y-100300000I0J51000D01*
G01*
X174749000Y-98800000D01*
G75*
G02*
X174800000Y-98749000I51000J0D01*
G01*
G37*
G36*
G01*
X131365000Y-95855000D02*
X132515000Y-95855000D01*
G75*
G02*
X132566000Y-95906000I0J-51000D01*
G01*
X132566000Y-96206000D01*
G75*
G02*
X132515000Y-96257000I-51000J0D01*
G01*
X131365000Y-96257000D01*
G75*
G02*
X131314000Y-96206000I0J51000D01*
G01*
X131314000Y-95906000D01*
G75*
G02*
X131365000Y-95855000I51000J0D01*
G01*
G37*
G36*
G01*
X131365000Y-95055000D02*
X132515000Y-95055000D01*
G75*
G02*
X132566000Y-95106000I0J-51000D01*
G01*
X132566000Y-95406000D01*
G75*
G02*
X132515000Y-95457000I-51000J0D01*
G01*
X131365000Y-95457000D01*
G75*
G02*
X131314000Y-95406000I0J51000D01*
G01*
X131314000Y-95106000D01*
G75*
G02*
X131365000Y-95055000I51000J0D01*
G01*
G37*
G36*
G01*
X131365000Y-90255000D02*
X132515000Y-90255000D01*
G75*
G02*
X132566000Y-90306000I0J-51000D01*
G01*
X132566000Y-90606000D01*
G75*
G02*
X132515000Y-90657000I-51000J0D01*
G01*
X131365000Y-90657000D01*
G75*
G02*
X131314000Y-90606000I0J51000D01*
G01*
X131314000Y-90306000D01*
G75*
G02*
X131365000Y-90255000I51000J0D01*
G01*
G37*
G36*
G01*
X131365000Y-89455000D02*
X132515000Y-89455000D01*
G75*
G02*
X132566000Y-89506000I0J-51000D01*
G01*
X132566000Y-89806000D01*
G75*
G02*
X132515000Y-89857000I-51000J0D01*
G01*
X131365000Y-89857000D01*
G75*
G02*
X131314000Y-89806000I0J51000D01*
G01*
X131314000Y-89506000D01*
G75*
G02*
X131365000Y-89455000I51000J0D01*
G01*
G37*
G36*
G01*
X131365000Y-89155000D02*
X132515000Y-89155000D01*
G75*
G02*
X132566000Y-89206000I0J-51000D01*
G01*
X132566000Y-89506000D01*
G75*
G02*
X132515000Y-89557000I-51000J0D01*
G01*
X131365000Y-89557000D01*
G75*
G02*
X131314000Y-89506000I0J51000D01*
G01*
X131314000Y-89206000D01*
G75*
G02*
X131365000Y-89155000I51000J0D01*
G01*
G37*
G36*
G01*
X131365000Y-89955000D02*
X132515000Y-89955000D01*
G75*
G02*
X132566000Y-90006000I0J-51000D01*
G01*
X132566000Y-90306000D01*
G75*
G02*
X132515000Y-90357000I-51000J0D01*
G01*
X131365000Y-90357000D01*
G75*
G02*
X131314000Y-90306000I0J51000D01*
G01*
X131314000Y-90006000D01*
G75*
G02*
X131365000Y-89955000I51000J0D01*
G01*
G37*
G36*
G01*
X131365000Y-90755000D02*
X132515000Y-90755000D01*
G75*
G02*
X132566000Y-90806000I0J-51000D01*
G01*
X132566000Y-91106000D01*
G75*
G02*
X132515000Y-91157000I-51000J0D01*
G01*
X131365000Y-91157000D01*
G75*
G02*
X131314000Y-91106000I0J51000D01*
G01*
X131314000Y-90806000D01*
G75*
G02*
X131365000Y-90755000I51000J0D01*
G01*
G37*
G36*
G01*
X131365000Y-91255000D02*
X132515000Y-91255000D01*
G75*
G02*
X132566000Y-91306000I0J-51000D01*
G01*
X132566000Y-91606000D01*
G75*
G02*
X132515000Y-91657000I-51000J0D01*
G01*
X131365000Y-91657000D01*
G75*
G02*
X131314000Y-91606000I0J51000D01*
G01*
X131314000Y-91306000D01*
G75*
G02*
X131365000Y-91255000I51000J0D01*
G01*
G37*
G36*
G01*
X131365000Y-91755000D02*
X132515000Y-91755000D01*
G75*
G02*
X132566000Y-91806000I0J-51000D01*
G01*
X132566000Y-92106000D01*
G75*
G02*
X132515000Y-92157000I-51000J0D01*
G01*
X131365000Y-92157000D01*
G75*
G02*
X131314000Y-92106000I0J51000D01*
G01*
X131314000Y-91806000D01*
G75*
G02*
X131365000Y-91755000I51000J0D01*
G01*
G37*
G36*
G01*
X131365000Y-92255000D02*
X132515000Y-92255000D01*
G75*
G02*
X132566000Y-92306000I0J-51000D01*
G01*
X132566000Y-92606000D01*
G75*
G02*
X132515000Y-92657000I-51000J0D01*
G01*
X131365000Y-92657000D01*
G75*
G02*
X131314000Y-92606000I0J51000D01*
G01*
X131314000Y-92306000D01*
G75*
G02*
X131365000Y-92255000I51000J0D01*
G01*
G37*
G36*
G01*
X131365000Y-92755000D02*
X132515000Y-92755000D01*
G75*
G02*
X132566000Y-92806000I0J-51000D01*
G01*
X132566000Y-93106000D01*
G75*
G02*
X132515000Y-93157000I-51000J0D01*
G01*
X131365000Y-93157000D01*
G75*
G02*
X131314000Y-93106000I0J51000D01*
G01*
X131314000Y-92806000D01*
G75*
G02*
X131365000Y-92755000I51000J0D01*
G01*
G37*
G36*
G01*
X131365000Y-93255000D02*
X132515000Y-93255000D01*
G75*
G02*
X132566000Y-93306000I0J-51000D01*
G01*
X132566000Y-93606000D01*
G75*
G02*
X132515000Y-93657000I-51000J0D01*
G01*
X131365000Y-93657000D01*
G75*
G02*
X131314000Y-93606000I0J51000D01*
G01*
X131314000Y-93306000D01*
G75*
G02*
X131365000Y-93255000I51000J0D01*
G01*
G37*
G36*
G01*
X131365000Y-93755000D02*
X132515000Y-93755000D01*
G75*
G02*
X132566000Y-93806000I0J-51000D01*
G01*
X132566000Y-94106000D01*
G75*
G02*
X132515000Y-94157000I-51000J0D01*
G01*
X131365000Y-94157000D01*
G75*
G02*
X131314000Y-94106000I0J51000D01*
G01*
X131314000Y-93806000D01*
G75*
G02*
X131365000Y-93755000I51000J0D01*
G01*
G37*
G36*
G01*
X131365000Y-94255000D02*
X132515000Y-94255000D01*
G75*
G02*
X132566000Y-94306000I0J-51000D01*
G01*
X132566000Y-94606000D01*
G75*
G02*
X132515000Y-94657000I-51000J0D01*
G01*
X131365000Y-94657000D01*
G75*
G02*
X131314000Y-94606000I0J51000D01*
G01*
X131314000Y-94306000D01*
G75*
G02*
X131365000Y-94255000I51000J0D01*
G01*
G37*
G36*
G01*
X131365000Y-94755000D02*
X132515000Y-94755000D01*
G75*
G02*
X132566000Y-94806000I0J-51000D01*
G01*
X132566000Y-95106000D01*
G75*
G02*
X132515000Y-95157000I-51000J0D01*
G01*
X131365000Y-95157000D01*
G75*
G02*
X131314000Y-95106000I0J51000D01*
G01*
X131314000Y-94806000D01*
G75*
G02*
X131365000Y-94755000I51000J0D01*
G01*
G37*
G36*
G01*
X131365000Y-95555000D02*
X132515000Y-95555000D01*
G75*
G02*
X132566000Y-95606000I0J-51000D01*
G01*
X132566000Y-95906000D01*
G75*
G02*
X132515000Y-95957000I-51000J0D01*
G01*
X131365000Y-95957000D01*
G75*
G02*
X131314000Y-95906000I0J51000D01*
G01*
X131314000Y-95606000D01*
G75*
G02*
X131365000Y-95555000I51000J0D01*
G01*
G37*
D10*
X130875000Y-89816000D03*
X130875000Y-95596000D03*
D11*
X127195000Y-97026000D03*
X127195000Y-88386000D03*
D12*
X131375000Y-97026000D03*
X131375000Y-88386000D03*
G36*
G01*
X169211000Y-92625000D02*
X169211000Y-92325000D01*
G75*
G02*
X169262000Y-92274000I51000J0D01*
G01*
X169562000Y-92274000D01*
G75*
G02*
X169613000Y-92325000I0J-51000D01*
G01*
X169613000Y-92625000D01*
G75*
G02*
X169562000Y-92676000I-51000J0D01*
G01*
X169262000Y-92676000D01*
G75*
G02*
X169211000Y-92625000I0J51000D01*
G01*
G37*
G36*
G01*
X168624000Y-92625000D02*
X168624000Y-92325000D01*
G75*
G02*
X168675000Y-92274000I51000J0D01*
G01*
X168975000Y-92274000D01*
G75*
G02*
X169026000Y-92325000I0J-51000D01*
G01*
X169026000Y-92625000D01*
G75*
G02*
X168975000Y-92676000I-51000J0D01*
G01*
X168675000Y-92676000D01*
G75*
G02*
X168624000Y-92625000I0J51000D01*
G01*
G37*
G36*
G01*
X168037000Y-92625000D02*
X168037000Y-92325000D01*
G75*
G02*
X168088000Y-92274000I51000J0D01*
G01*
X168388000Y-92274000D01*
G75*
G02*
X168439000Y-92325000I0J-51000D01*
G01*
X168439000Y-92625000D01*
G75*
G02*
X168388000Y-92676000I-51000J0D01*
G01*
X168088000Y-92676000D01*
G75*
G02*
X168037000Y-92625000I0J51000D01*
G01*
G37*
G36*
G01*
X168037000Y-93125000D02*
X168037000Y-92825000D01*
G75*
G02*
X168088000Y-92774000I51000J0D01*
G01*
X168388000Y-92774000D01*
G75*
G02*
X168439000Y-92825000I0J-51000D01*
G01*
X168439000Y-93125000D01*
G75*
G02*
X168388000Y-93176000I-51000J0D01*
G01*
X168088000Y-93176000D01*
G75*
G02*
X168037000Y-93125000I0J51000D01*
G01*
G37*
G36*
G01*
X168624000Y-93125000D02*
X168624000Y-92825000D01*
G75*
G02*
X168675000Y-92774000I51000J0D01*
G01*
X168975000Y-92774000D01*
G75*
G02*
X169026000Y-92825000I0J-51000D01*
G01*
X169026000Y-93125000D01*
G75*
G02*
X168975000Y-93176000I-51000J0D01*
G01*
X168675000Y-93176000D01*
G75*
G02*
X168624000Y-93125000I0J51000D01*
G01*
G37*
G36*
G01*
X169211000Y-93125000D02*
X169211000Y-92825000D01*
G75*
G02*
X169262000Y-92774000I51000J0D01*
G01*
X169562000Y-92774000D01*
G75*
G02*
X169613000Y-92825000I0J-51000D01*
G01*
X169613000Y-93125000D01*
G75*
G02*
X169562000Y-93176000I-51000J0D01*
G01*
X169262000Y-93176000D01*
G75*
G02*
X169211000Y-93125000I0J51000D01*
G01*
G37*
G36*
G01*
X165451000Y-100018250D02*
X165451000Y-100581750D01*
G75*
G02*
X165206750Y-100826000I-244250J0D01*
G01*
X164718250Y-100826000D01*
G75*
G02*
X164474000Y-100581750I0J244250D01*
G01*
X164474000Y-100018250D01*
G75*
G02*
X164718250Y-99774000I244250J0D01*
G01*
X165206750Y-99774000D01*
G75*
G02*
X165451000Y-100018250I0J-244250D01*
G01*
G37*
G36*
G01*
X167026000Y-100018250D02*
X167026000Y-100581750D01*
G75*
G02*
X166781750Y-100826000I-244250J0D01*
G01*
X166293250Y-100826000D01*
G75*
G02*
X166049000Y-100581750I0J244250D01*
G01*
X166049000Y-100018250D01*
G75*
G02*
X166293250Y-99774000I244250J0D01*
G01*
X166781750Y-99774000D01*
G75*
G02*
X167026000Y-100018250I0J-244250D01*
G01*
G37*
G36*
G01*
X129839000Y-86768750D02*
X129839000Y-86205250D01*
G75*
G02*
X130083250Y-85961000I244250J0D01*
G01*
X130571750Y-85961000D01*
G75*
G02*
X130816000Y-86205250I0J-244250D01*
G01*
X130816000Y-86768750D01*
G75*
G02*
X130571750Y-87013000I-244250J0D01*
G01*
X130083250Y-87013000D01*
G75*
G02*
X129839000Y-86768750I0J244250D01*
G01*
G37*
G36*
G01*
X128264000Y-86768750D02*
X128264000Y-86205250D01*
G75*
G02*
X128508250Y-85961000I244250J0D01*
G01*
X128996750Y-85961000D01*
G75*
G02*
X129241000Y-86205250I0J-244250D01*
G01*
X129241000Y-86768750D01*
G75*
G02*
X128996750Y-87013000I-244250J0D01*
G01*
X128508250Y-87013000D01*
G75*
G02*
X128264000Y-86768750I0J244250D01*
G01*
G37*
G36*
G01*
X129241000Y-98651250D02*
X129241000Y-99214750D01*
G75*
G02*
X128996750Y-99459000I-244250J0D01*
G01*
X128508250Y-99459000D01*
G75*
G02*
X128264000Y-99214750I0J244250D01*
G01*
X128264000Y-98651250D01*
G75*
G02*
X128508250Y-98407000I244250J0D01*
G01*
X128996750Y-98407000D01*
G75*
G02*
X129241000Y-98651250I0J-244250D01*
G01*
G37*
G36*
G01*
X130816000Y-98651250D02*
X130816000Y-99214750D01*
G75*
G02*
X130571750Y-99459000I-244250J0D01*
G01*
X130083250Y-99459000D01*
G75*
G02*
X129839000Y-99214750I0J244250D01*
G01*
X129839000Y-98651250D01*
G75*
G02*
X130083250Y-98407000I244250J0D01*
G01*
X130571750Y-98407000D01*
G75*
G02*
X130816000Y-98651250I0J-244250D01*
G01*
G37*
G36*
G01*
X168974000Y-99125500D02*
X168974000Y-98574500D01*
G75*
G02*
X169224500Y-98324000I250500J0D01*
G01*
X169725500Y-98324000D01*
G75*
G02*
X169976000Y-98574500I0J-250500D01*
G01*
X169976000Y-99125500D01*
G75*
G02*
X169725500Y-99376000I-250500J0D01*
G01*
X169224500Y-99376000D01*
G75*
G02*
X168974000Y-99125500I0J250500D01*
G01*
G37*
G36*
G01*
X167424000Y-99125500D02*
X167424000Y-98574500D01*
G75*
G02*
X167674500Y-98324000I250500J0D01*
G01*
X168175500Y-98324000D01*
G75*
G02*
X168426000Y-98574500I0J-250500D01*
G01*
X168426000Y-99125500D01*
G75*
G02*
X168175500Y-99376000I-250500J0D01*
G01*
X167674500Y-99376000D01*
G75*
G02*
X167424000Y-99125500I0J250500D01*
G01*
G37*
G36*
G01*
X141299000Y-98450000D02*
X141299000Y-97600000D01*
G75*
G02*
X141350000Y-97549000I51000J0D01*
G01*
X142950000Y-97549000D01*
G75*
G02*
X143001000Y-97600000I0J-51000D01*
G01*
X143001000Y-98450000D01*
G75*
G02*
X142950000Y-98501000I-51000J0D01*
G01*
X141350000Y-98501000D01*
G75*
G02*
X141299000Y-98450000I0J51000D01*
G01*
G37*
G36*
G01*
X141299000Y-100200000D02*
X141299000Y-99350000D01*
G75*
G02*
X141350000Y-99299000I51000J0D01*
G01*
X142950000Y-99299000D01*
G75*
G02*
X143001000Y-99350000I0J-51000D01*
G01*
X143001000Y-100200000D01*
G75*
G02*
X142950000Y-100251000I-51000J0D01*
G01*
X141350000Y-100251000D01*
G75*
G02*
X141299000Y-100200000I0J51000D01*
G01*
G37*
G36*
G01*
X144799000Y-98450000D02*
X144799000Y-97600000D01*
G75*
G02*
X144850000Y-97549000I51000J0D01*
G01*
X146450000Y-97549000D01*
G75*
G02*
X146501000Y-97600000I0J-51000D01*
G01*
X146501000Y-98450000D01*
G75*
G02*
X146450000Y-98501000I-51000J0D01*
G01*
X144850000Y-98501000D01*
G75*
G02*
X144799000Y-98450000I0J51000D01*
G01*
G37*
G36*
G01*
X144799000Y-100200000D02*
X144799000Y-99350000D01*
G75*
G02*
X144850000Y-99299000I51000J0D01*
G01*
X146450000Y-99299000D01*
G75*
G02*
X146501000Y-99350000I0J-51000D01*
G01*
X146501000Y-100200000D01*
G75*
G02*
X146450000Y-100251000I-51000J0D01*
G01*
X144850000Y-100251000D01*
G75*
G02*
X144799000Y-100200000I0J51000D01*
G01*
G37*
G36*
G01*
X166172000Y-96627000D02*
X160472000Y-96627000D01*
G75*
G02*
X160421000Y-96576000I0J51000D01*
G01*
X160421000Y-90876000D01*
G75*
G02*
X160472000Y-90825000I51000J0D01*
G01*
X166172000Y-90825000D01*
G75*
G02*
X166223000Y-90876000I0J-51000D01*
G01*
X166223000Y-96576000D01*
G75*
G02*
X166172000Y-96627000I-51000J0D01*
G01*
G37*
G36*
G01*
X160254334Y-96648237D02*
X159587172Y-96648237D01*
G75*
G02*
X159414935Y-96476000I0J172237D01*
G01*
X159414935Y-96476000D01*
G75*
G02*
X159587172Y-96303763I172237J0D01*
G01*
X160254334Y-96303763D01*
G75*
G02*
X160426571Y-96476000I0J-172237D01*
G01*
X160426571Y-96476000D01*
G75*
G02*
X160254334Y-96648237I-172237J0D01*
G01*
G37*
G36*
G01*
X160254334Y-96148237D02*
X159587172Y-96148237D01*
G75*
G02*
X159414935Y-95976000I0J172237D01*
G01*
X159414935Y-95976000D01*
G75*
G02*
X159587172Y-95803763I172237J0D01*
G01*
X160254334Y-95803763D01*
G75*
G02*
X160426571Y-95976000I0J-172237D01*
G01*
X160426571Y-95976000D01*
G75*
G02*
X160254334Y-96148237I-172237J0D01*
G01*
G37*
G36*
G01*
X160254334Y-95648237D02*
X159587172Y-95648237D01*
G75*
G02*
X159414935Y-95476000I0J172237D01*
G01*
X159414935Y-95476000D01*
G75*
G02*
X159587172Y-95303763I172237J0D01*
G01*
X160254334Y-95303763D01*
G75*
G02*
X160426571Y-95476000I0J-172237D01*
G01*
X160426571Y-95476000D01*
G75*
G02*
X160254334Y-95648237I-172237J0D01*
G01*
G37*
G36*
G01*
X160254334Y-95148237D02*
X159587172Y-95148237D01*
G75*
G02*
X159414935Y-94976000I0J172237D01*
G01*
X159414935Y-94976000D01*
G75*
G02*
X159587172Y-94803763I172237J0D01*
G01*
X160254334Y-94803763D01*
G75*
G02*
X160426571Y-94976000I0J-172237D01*
G01*
X160426571Y-94976000D01*
G75*
G02*
X160254334Y-95148237I-172237J0D01*
G01*
G37*
G36*
G01*
X160254334Y-94648237D02*
X159587172Y-94648237D01*
G75*
G02*
X159414935Y-94476000I0J172237D01*
G01*
X159414935Y-94476000D01*
G75*
G02*
X159587172Y-94303763I172237J0D01*
G01*
X160254334Y-94303763D01*
G75*
G02*
X160426571Y-94476000I0J-172237D01*
G01*
X160426571Y-94476000D01*
G75*
G02*
X160254334Y-94648237I-172237J0D01*
G01*
G37*
G36*
G01*
X160254334Y-94148237D02*
X159587172Y-94148237D01*
G75*
G02*
X159414935Y-93976000I0J172237D01*
G01*
X159414935Y-93976000D01*
G75*
G02*
X159587172Y-93803763I172237J0D01*
G01*
X160254334Y-93803763D01*
G75*
G02*
X160426571Y-93976000I0J-172237D01*
G01*
X160426571Y-93976000D01*
G75*
G02*
X160254334Y-94148237I-172237J0D01*
G01*
G37*
G36*
G01*
X160254334Y-93648237D02*
X159587172Y-93648237D01*
G75*
G02*
X159414935Y-93476000I0J172237D01*
G01*
X159414935Y-93476000D01*
G75*
G02*
X159587172Y-93303763I172237J0D01*
G01*
X160254334Y-93303763D01*
G75*
G02*
X160426571Y-93476000I0J-172237D01*
G01*
X160426571Y-93476000D01*
G75*
G02*
X160254334Y-93648237I-172237J0D01*
G01*
G37*
G36*
G01*
X160254334Y-93148237D02*
X159587172Y-93148237D01*
G75*
G02*
X159414935Y-92976000I0J172237D01*
G01*
X159414935Y-92976000D01*
G75*
G02*
X159587172Y-92803763I172237J0D01*
G01*
X160254334Y-92803763D01*
G75*
G02*
X160426571Y-92976000I0J-172237D01*
G01*
X160426571Y-92976000D01*
G75*
G02*
X160254334Y-93148237I-172237J0D01*
G01*
G37*
G36*
G01*
X160254334Y-92648237D02*
X159587172Y-92648237D01*
G75*
G02*
X159414935Y-92476000I0J172237D01*
G01*
X159414935Y-92476000D01*
G75*
G02*
X159587172Y-92303763I172237J0D01*
G01*
X160254334Y-92303763D01*
G75*
G02*
X160426571Y-92476000I0J-172237D01*
G01*
X160426571Y-92476000D01*
G75*
G02*
X160254334Y-92648237I-172237J0D01*
G01*
G37*
G36*
G01*
X160254334Y-92148237D02*
X159587172Y-92148237D01*
G75*
G02*
X159414935Y-91976000I0J172237D01*
G01*
X159414935Y-91976000D01*
G75*
G02*
X159587172Y-91803763I172237J0D01*
G01*
X160254334Y-91803763D01*
G75*
G02*
X160426571Y-91976000I0J-172237D01*
G01*
X160426571Y-91976000D01*
G75*
G02*
X160254334Y-92148237I-172237J0D01*
G01*
G37*
G36*
G01*
X160254334Y-91648237D02*
X159587172Y-91648237D01*
G75*
G02*
X159414935Y-91476000I0J172237D01*
G01*
X159414935Y-91476000D01*
G75*
G02*
X159587172Y-91303763I172237J0D01*
G01*
X160254334Y-91303763D01*
G75*
G02*
X160426571Y-91476000I0J-172237D01*
G01*
X160426571Y-91476000D01*
G75*
G02*
X160254334Y-91648237I-172237J0D01*
G01*
G37*
G36*
G01*
X160254334Y-91148237D02*
X159587172Y-91148237D01*
G75*
G02*
X159414935Y-90976000I0J172237D01*
G01*
X159414935Y-90976000D01*
G75*
G02*
X159587172Y-90803763I172237J0D01*
G01*
X160254334Y-90803763D01*
G75*
G02*
X160426571Y-90976000I0J-172237D01*
G01*
X160426571Y-90976000D01*
G75*
G02*
X160254334Y-91148237I-172237J0D01*
G01*
G37*
G36*
G01*
X167056829Y-91148237D02*
X166389667Y-91148237D01*
G75*
G02*
X166217430Y-90976000I0J172237D01*
G01*
X166217430Y-90976000D01*
G75*
G02*
X166389667Y-90803763I172237J0D01*
G01*
X167056829Y-90803763D01*
G75*
G02*
X167229066Y-90976000I0J-172237D01*
G01*
X167229066Y-90976000D01*
G75*
G02*
X167056829Y-91148237I-172237J0D01*
G01*
G37*
G36*
G01*
X167056829Y-91648237D02*
X166389667Y-91648237D01*
G75*
G02*
X166217430Y-91476000I0J172237D01*
G01*
X166217430Y-91476000D01*
G75*
G02*
X166389667Y-91303763I172237J0D01*
G01*
X167056829Y-91303763D01*
G75*
G02*
X167229066Y-91476000I0J-172237D01*
G01*
X167229066Y-91476000D01*
G75*
G02*
X167056829Y-91648237I-172237J0D01*
G01*
G37*
G36*
G01*
X167056829Y-92148237D02*
X166389667Y-92148237D01*
G75*
G02*
X166217430Y-91976000I0J172237D01*
G01*
X166217430Y-91976000D01*
G75*
G02*
X166389667Y-91803763I172237J0D01*
G01*
X167056829Y-91803763D01*
G75*
G02*
X167229066Y-91976000I0J-172237D01*
G01*
X167229066Y-91976000D01*
G75*
G02*
X167056829Y-92148237I-172237J0D01*
G01*
G37*
G36*
G01*
X167056829Y-92648237D02*
X166389667Y-92648237D01*
G75*
G02*
X166217430Y-92476000I0J172237D01*
G01*
X166217430Y-92476000D01*
G75*
G02*
X166389667Y-92303763I172237J0D01*
G01*
X167056829Y-92303763D01*
G75*
G02*
X167229066Y-92476000I0J-172237D01*
G01*
X167229066Y-92476000D01*
G75*
G02*
X167056829Y-92648237I-172237J0D01*
G01*
G37*
G36*
G01*
X167056829Y-93148237D02*
X166389667Y-93148237D01*
G75*
G02*
X166217430Y-92976000I0J172237D01*
G01*
X166217430Y-92976000D01*
G75*
G02*
X166389667Y-92803763I172237J0D01*
G01*
X167056829Y-92803763D01*
G75*
G02*
X167229066Y-92976000I0J-172237D01*
G01*
X167229066Y-92976000D01*
G75*
G02*
X167056829Y-93148237I-172237J0D01*
G01*
G37*
G36*
G01*
X167056829Y-93648237D02*
X166389667Y-93648237D01*
G75*
G02*
X166217430Y-93476000I0J172237D01*
G01*
X166217430Y-93476000D01*
G75*
G02*
X166389667Y-93303763I172237J0D01*
G01*
X167056829Y-93303763D01*
G75*
G02*
X167229066Y-93476000I0J-172237D01*
G01*
X167229066Y-93476000D01*
G75*
G02*
X167056829Y-93648237I-172237J0D01*
G01*
G37*
G36*
G01*
X167056829Y-94148237D02*
X166389667Y-94148237D01*
G75*
G02*
X166217430Y-93976000I0J172237D01*
G01*
X166217430Y-93976000D01*
G75*
G02*
X166389667Y-93803763I172237J0D01*
G01*
X167056829Y-93803763D01*
G75*
G02*
X167229066Y-93976000I0J-172237D01*
G01*
X167229066Y-93976000D01*
G75*
G02*
X167056829Y-94148237I-172237J0D01*
G01*
G37*
G36*
G01*
X167056829Y-94648237D02*
X166389667Y-94648237D01*
G75*
G02*
X166217430Y-94476000I0J172237D01*
G01*
X166217430Y-94476000D01*
G75*
G02*
X166389667Y-94303763I172237J0D01*
G01*
X167056829Y-94303763D01*
G75*
G02*
X167229066Y-94476000I0J-172237D01*
G01*
X167229066Y-94476000D01*
G75*
G02*
X167056829Y-94648237I-172237J0D01*
G01*
G37*
G36*
G01*
X167056829Y-95148237D02*
X166389667Y-95148237D01*
G75*
G02*
X166217430Y-94976000I0J172237D01*
G01*
X166217430Y-94976000D01*
G75*
G02*
X166389667Y-94803763I172237J0D01*
G01*
X167056829Y-94803763D01*
G75*
G02*
X167229066Y-94976000I0J-172237D01*
G01*
X167229066Y-94976000D01*
G75*
G02*
X167056829Y-95148237I-172237J0D01*
G01*
G37*
G36*
G01*
X167056829Y-95648237D02*
X166389667Y-95648237D01*
G75*
G02*
X166217430Y-95476000I0J172237D01*
G01*
X166217430Y-95476000D01*
G75*
G02*
X166389667Y-95303763I172237J0D01*
G01*
X167056829Y-95303763D01*
G75*
G02*
X167229066Y-95476000I0J-172237D01*
G01*
X167229066Y-95476000D01*
G75*
G02*
X167056829Y-95648237I-172237J0D01*
G01*
G37*
G36*
G01*
X167056829Y-96148237D02*
X166389667Y-96148237D01*
G75*
G02*
X166217430Y-95976000I0J172237D01*
G01*
X166217430Y-95976000D01*
G75*
G02*
X166389667Y-95803763I172237J0D01*
G01*
X167056829Y-95803763D01*
G75*
G02*
X167229066Y-95976000I0J-172237D01*
G01*
X167229066Y-95976000D01*
G75*
G02*
X167056829Y-96148237I-172237J0D01*
G01*
G37*
G36*
G01*
X167056829Y-96648237D02*
X166389667Y-96648237D01*
G75*
G02*
X166217430Y-96476000I0J172237D01*
G01*
X166217430Y-96476000D01*
G75*
G02*
X166389667Y-96303763I172237J0D01*
G01*
X167056829Y-96303763D01*
G75*
G02*
X167229066Y-96476000I0J-172237D01*
G01*
X167229066Y-96476000D01*
G75*
G02*
X167056829Y-96648237I-172237J0D01*
G01*
G37*
G36*
G01*
X160572000Y-90830570D02*
X160572000Y-90830570D01*
G75*
G02*
X160399763Y-90658333I0J172237D01*
G01*
X160399763Y-89991171D01*
G75*
G02*
X160572000Y-89818934I172237J0D01*
G01*
X160572000Y-89818934D01*
G75*
G02*
X160744237Y-89991171I0J-172237D01*
G01*
X160744237Y-90658333D01*
G75*
G02*
X160572000Y-90830570I-172237J0D01*
G01*
G37*
G36*
G01*
X161072000Y-90830570D02*
X161072000Y-90830570D01*
G75*
G02*
X160899763Y-90658333I0J172237D01*
G01*
X160899763Y-89991171D01*
G75*
G02*
X161072000Y-89818934I172237J0D01*
G01*
X161072000Y-89818934D01*
G75*
G02*
X161244237Y-89991171I0J-172237D01*
G01*
X161244237Y-90658333D01*
G75*
G02*
X161072000Y-90830570I-172237J0D01*
G01*
G37*
G36*
G01*
X161572000Y-90830570D02*
X161572000Y-90830570D01*
G75*
G02*
X161399763Y-90658333I0J172237D01*
G01*
X161399763Y-89991171D01*
G75*
G02*
X161572000Y-89818934I172237J0D01*
G01*
X161572000Y-89818934D01*
G75*
G02*
X161744237Y-89991171I0J-172237D01*
G01*
X161744237Y-90658333D01*
G75*
G02*
X161572000Y-90830570I-172237J0D01*
G01*
G37*
G36*
G01*
X162072000Y-90830570D02*
X162072000Y-90830570D01*
G75*
G02*
X161899763Y-90658333I0J172237D01*
G01*
X161899763Y-89991171D01*
G75*
G02*
X162072000Y-89818934I172237J0D01*
G01*
X162072000Y-89818934D01*
G75*
G02*
X162244237Y-89991171I0J-172237D01*
G01*
X162244237Y-90658333D01*
G75*
G02*
X162072000Y-90830570I-172237J0D01*
G01*
G37*
G36*
G01*
X162572000Y-90830570D02*
X162572000Y-90830570D01*
G75*
G02*
X162399763Y-90658333I0J172237D01*
G01*
X162399763Y-89991171D01*
G75*
G02*
X162572000Y-89818934I172237J0D01*
G01*
X162572000Y-89818934D01*
G75*
G02*
X162744237Y-89991171I0J-172237D01*
G01*
X162744237Y-90658333D01*
G75*
G02*
X162572000Y-90830570I-172237J0D01*
G01*
G37*
G36*
G01*
X163072000Y-90830570D02*
X163072000Y-90830570D01*
G75*
G02*
X162899763Y-90658333I0J172237D01*
G01*
X162899763Y-89991171D01*
G75*
G02*
X163072000Y-89818934I172237J0D01*
G01*
X163072000Y-89818934D01*
G75*
G02*
X163244237Y-89991171I0J-172237D01*
G01*
X163244237Y-90658333D01*
G75*
G02*
X163072000Y-90830570I-172237J0D01*
G01*
G37*
G36*
G01*
X163572000Y-90830570D02*
X163572000Y-90830570D01*
G75*
G02*
X163399763Y-90658333I0J172237D01*
G01*
X163399763Y-89991171D01*
G75*
G02*
X163572000Y-89818934I172237J0D01*
G01*
X163572000Y-89818934D01*
G75*
G02*
X163744237Y-89991171I0J-172237D01*
G01*
X163744237Y-90658333D01*
G75*
G02*
X163572000Y-90830570I-172237J0D01*
G01*
G37*
G36*
G01*
X164072000Y-90830570D02*
X164072000Y-90830570D01*
G75*
G02*
X163899763Y-90658333I0J172237D01*
G01*
X163899763Y-89991171D01*
G75*
G02*
X164072000Y-89818934I172237J0D01*
G01*
X164072000Y-89818934D01*
G75*
G02*
X164244237Y-89991171I0J-172237D01*
G01*
X164244237Y-90658333D01*
G75*
G02*
X164072000Y-90830570I-172237J0D01*
G01*
G37*
G36*
G01*
X164572000Y-90830570D02*
X164572000Y-90830570D01*
G75*
G02*
X164399763Y-90658333I0J172237D01*
G01*
X164399763Y-89991171D01*
G75*
G02*
X164572000Y-89818934I172237J0D01*
G01*
X164572000Y-89818934D01*
G75*
G02*
X164744237Y-89991171I0J-172237D01*
G01*
X164744237Y-90658333D01*
G75*
G02*
X164572000Y-90830570I-172237J0D01*
G01*
G37*
G36*
G01*
X165072000Y-90830570D02*
X165072000Y-90830570D01*
G75*
G02*
X164899763Y-90658333I0J172237D01*
G01*
X164899763Y-89991171D01*
G75*
G02*
X165072000Y-89818934I172237J0D01*
G01*
X165072000Y-89818934D01*
G75*
G02*
X165244237Y-89991171I0J-172237D01*
G01*
X165244237Y-90658333D01*
G75*
G02*
X165072000Y-90830570I-172237J0D01*
G01*
G37*
G36*
G01*
X165572000Y-90830570D02*
X165572000Y-90830570D01*
G75*
G02*
X165399763Y-90658333I0J172237D01*
G01*
X165399763Y-89991171D01*
G75*
G02*
X165572000Y-89818934I172237J0D01*
G01*
X165572000Y-89818934D01*
G75*
G02*
X165744237Y-89991171I0J-172237D01*
G01*
X165744237Y-90658333D01*
G75*
G02*
X165572000Y-90830570I-172237J0D01*
G01*
G37*
G36*
G01*
X166072000Y-90830570D02*
X166072000Y-90830570D01*
G75*
G02*
X165899763Y-90658333I0J172237D01*
G01*
X165899763Y-89991171D01*
G75*
G02*
X166072000Y-89818934I172237J0D01*
G01*
X166072000Y-89818934D01*
G75*
G02*
X166244237Y-89991171I0J-172237D01*
G01*
X166244237Y-90658333D01*
G75*
G02*
X166072000Y-90830570I-172237J0D01*
G01*
G37*
G36*
G01*
X166072000Y-97633065D02*
X166072000Y-97633065D01*
G75*
G02*
X165899763Y-97460828I0J172237D01*
G01*
X165899763Y-96793666D01*
G75*
G02*
X166072000Y-96621429I172237J0D01*
G01*
X166072000Y-96621429D01*
G75*
G02*
X166244237Y-96793666I0J-172237D01*
G01*
X166244237Y-97460828D01*
G75*
G02*
X166072000Y-97633065I-172237J0D01*
G01*
G37*
G36*
G01*
X165572000Y-97633065D02*
X165572000Y-97633065D01*
G75*
G02*
X165399763Y-97460828I0J172237D01*
G01*
X165399763Y-96793666D01*
G75*
G02*
X165572000Y-96621429I172237J0D01*
G01*
X165572000Y-96621429D01*
G75*
G02*
X165744237Y-96793666I0J-172237D01*
G01*
X165744237Y-97460828D01*
G75*
G02*
X165572000Y-97633065I-172237J0D01*
G01*
G37*
G36*
G01*
X165072000Y-97633065D02*
X165072000Y-97633065D01*
G75*
G02*
X164899763Y-97460828I0J172237D01*
G01*
X164899763Y-96793666D01*
G75*
G02*
X165072000Y-96621429I172237J0D01*
G01*
X165072000Y-96621429D01*
G75*
G02*
X165244237Y-96793666I0J-172237D01*
G01*
X165244237Y-97460828D01*
G75*
G02*
X165072000Y-97633065I-172237J0D01*
G01*
G37*
G36*
G01*
X164572000Y-97633065D02*
X164572000Y-97633065D01*
G75*
G02*
X164399763Y-97460828I0J172237D01*
G01*
X164399763Y-96793666D01*
G75*
G02*
X164572000Y-96621429I172237J0D01*
G01*
X164572000Y-96621429D01*
G75*
G02*
X164744237Y-96793666I0J-172237D01*
G01*
X164744237Y-97460828D01*
G75*
G02*
X164572000Y-97633065I-172237J0D01*
G01*
G37*
G36*
G01*
X164072000Y-97633065D02*
X164072000Y-97633065D01*
G75*
G02*
X163899763Y-97460828I0J172237D01*
G01*
X163899763Y-96793666D01*
G75*
G02*
X164072000Y-96621429I172237J0D01*
G01*
X164072000Y-96621429D01*
G75*
G02*
X164244237Y-96793666I0J-172237D01*
G01*
X164244237Y-97460828D01*
G75*
G02*
X164072000Y-97633065I-172237J0D01*
G01*
G37*
G36*
G01*
X163572000Y-97633065D02*
X163572000Y-97633065D01*
G75*
G02*
X163399763Y-97460828I0J172237D01*
G01*
X163399763Y-96793666D01*
G75*
G02*
X163572000Y-96621429I172237J0D01*
G01*
X163572000Y-96621429D01*
G75*
G02*
X163744237Y-96793666I0J-172237D01*
G01*
X163744237Y-97460828D01*
G75*
G02*
X163572000Y-97633065I-172237J0D01*
G01*
G37*
G36*
G01*
X163072000Y-97633065D02*
X163072000Y-97633065D01*
G75*
G02*
X162899763Y-97460828I0J172237D01*
G01*
X162899763Y-96793666D01*
G75*
G02*
X163072000Y-96621429I172237J0D01*
G01*
X163072000Y-96621429D01*
G75*
G02*
X163244237Y-96793666I0J-172237D01*
G01*
X163244237Y-97460828D01*
G75*
G02*
X163072000Y-97633065I-172237J0D01*
G01*
G37*
G36*
G01*
X162572000Y-97633065D02*
X162572000Y-97633065D01*
G75*
G02*
X162399763Y-97460828I0J172237D01*
G01*
X162399763Y-96793666D01*
G75*
G02*
X162572000Y-96621429I172237J0D01*
G01*
X162572000Y-96621429D01*
G75*
G02*
X162744237Y-96793666I0J-172237D01*
G01*
X162744237Y-97460828D01*
G75*
G02*
X162572000Y-97633065I-172237J0D01*
G01*
G37*
G36*
G01*
X162072000Y-97633065D02*
X162072000Y-97633065D01*
G75*
G02*
X161899763Y-97460828I0J172237D01*
G01*
X161899763Y-96793666D01*
G75*
G02*
X162072000Y-96621429I172237J0D01*
G01*
X162072000Y-96621429D01*
G75*
G02*
X162244237Y-96793666I0J-172237D01*
G01*
X162244237Y-97460828D01*
G75*
G02*
X162072000Y-97633065I-172237J0D01*
G01*
G37*
G36*
G01*
X161572000Y-97633065D02*
X161572000Y-97633065D01*
G75*
G02*
X161399763Y-97460828I0J172237D01*
G01*
X161399763Y-96793666D01*
G75*
G02*
X161572000Y-96621429I172237J0D01*
G01*
X161572000Y-96621429D01*
G75*
G02*
X161744237Y-96793666I0J-172237D01*
G01*
X161744237Y-97460828D01*
G75*
G02*
X161572000Y-97633065I-172237J0D01*
G01*
G37*
G36*
G01*
X161072000Y-97633065D02*
X161072000Y-97633065D01*
G75*
G02*
X160899763Y-97460828I0J172237D01*
G01*
X160899763Y-96793666D01*
G75*
G02*
X161072000Y-96621429I172237J0D01*
G01*
X161072000Y-96621429D01*
G75*
G02*
X161244237Y-96793666I0J-172237D01*
G01*
X161244237Y-97460828D01*
G75*
G02*
X161072000Y-97633065I-172237J0D01*
G01*
G37*
G36*
G01*
X160693237Y-97633065D02*
X160450763Y-97633065D01*
G75*
G02*
X160399763Y-97582065I0J51000D01*
G01*
X160399763Y-96672429D01*
G75*
G02*
X160450763Y-96621429I51000J0D01*
G01*
X160693237Y-96621429D01*
G75*
G02*
X160744237Y-96672429I0J-51000D01*
G01*
X160744237Y-97582065D01*
G75*
G02*
X160693237Y-97633065I-51000J0D01*
G01*
G37*
G36*
G01*
X135246000Y-81976000D02*
X135246000Y-84944000D01*
G75*
G02*
X134979000Y-85211000I-267000J0D01*
G01*
X133911000Y-85211000D01*
G75*
G02*
X133644000Y-84944000I0J267000D01*
G01*
X133644000Y-81976000D01*
G75*
G02*
X133911000Y-81709000I267000J0D01*
G01*
X134979000Y-81709000D01*
G75*
G02*
X135246000Y-81976000I0J-267000D01*
G01*
G37*
G36*
G01*
X141946000Y-81976000D02*
X141946000Y-84944000D01*
G75*
G02*
X141679000Y-85211000I-267000J0D01*
G01*
X140611000Y-85211000D01*
G75*
G02*
X140344000Y-84944000I0J267000D01*
G01*
X140344000Y-81976000D01*
G75*
G02*
X140611000Y-81709000I267000J0D01*
G01*
X141679000Y-81709000D01*
G75*
G02*
X141946000Y-81976000I0J-267000D01*
G01*
G37*
G36*
G01*
X137346000Y-87684500D02*
X137346000Y-90735500D01*
G75*
G02*
X137070500Y-91011000I-275500J0D01*
G01*
X136519500Y-91011000D01*
G75*
G02*
X136244000Y-90735500I0J275500D01*
G01*
X136244000Y-87684500D01*
G75*
G02*
X136519500Y-87409000I275500J0D01*
G01*
X137070500Y-87409000D01*
G75*
G02*
X137346000Y-87684500I0J-275500D01*
G01*
G37*
G36*
G01*
X139346000Y-87684500D02*
X139346000Y-90735500D01*
G75*
G02*
X139070500Y-91011000I-275500J0D01*
G01*
X138519500Y-91011000D01*
G75*
G02*
X138244000Y-90735500I0J275500D01*
G01*
X138244000Y-87684500D01*
G75*
G02*
X138519500Y-87409000I275500J0D01*
G01*
X139070500Y-87409000D01*
G75*
G02*
X139346000Y-87684500I0J-275500D01*
G01*
G37*
G36*
G01*
X140348150Y-99500380D02*
X140348150Y-100648460D01*
G75*
G02*
X140297150Y-100699460I-51000J0D01*
G01*
X138999210Y-100699460D01*
G75*
G02*
X138948210Y-100648460I0J51000D01*
G01*
X138948210Y-99500380D01*
G75*
G02*
X138999210Y-99449380I51000J0D01*
G01*
X140297150Y-99449380D01*
G75*
G02*
X140348150Y-99500380I0J-51000D01*
G01*
G37*
G36*
G01*
X136451790Y-99500380D02*
X136451790Y-100648460D01*
G75*
G02*
X136400790Y-100699460I-51000J0D01*
G01*
X135102850Y-100699460D01*
G75*
G02*
X135051850Y-100648460I0J51000D01*
G01*
X135051850Y-99500380D01*
G75*
G02*
X135102850Y-99449380I51000J0D01*
G01*
X136400790Y-99449380D01*
G75*
G02*
X136451790Y-99500380I0J-51000D01*
G01*
G37*
G36*
G01*
X140348150Y-97351540D02*
X140348150Y-98499620D01*
G75*
G02*
X140297150Y-98550620I-51000J0D01*
G01*
X138999210Y-98550620D01*
G75*
G02*
X138948210Y-98499620I0J51000D01*
G01*
X138948210Y-97351540D01*
G75*
G02*
X138999210Y-97300540I51000J0D01*
G01*
X140297150Y-97300540D01*
G75*
G02*
X140348150Y-97351540I0J-51000D01*
G01*
G37*
G36*
G01*
X136451790Y-97351540D02*
X136451790Y-98499620D01*
G75*
G02*
X136400790Y-98550620I-51000J0D01*
G01*
X135102850Y-98550620D01*
G75*
G02*
X135051850Y-98499620I0J51000D01*
G01*
X135051850Y-97351540D01*
G75*
G02*
X135102850Y-97300540I51000J0D01*
G01*
X136400790Y-97300540D01*
G75*
G02*
X136451790Y-97351540I0J-51000D01*
G01*
G37*
G36*
G01*
X165549999Y-84649000D02*
X166750001Y-84649000D01*
G75*
G02*
X166801000Y-84699999I0J-50999D01*
G01*
X166801000Y-86100001D01*
G75*
G02*
X166750001Y-86151000I-50999J0D01*
G01*
X165549999Y-86151000D01*
G75*
G02*
X165499000Y-86100001I0J50999D01*
G01*
X165499000Y-84699999D01*
G75*
G02*
X165549999Y-84649000I50999J0D01*
G01*
G37*
G36*
G01*
X165549999Y-86849000D02*
X166750001Y-86849000D01*
G75*
G02*
X166801000Y-86899999I0J-50999D01*
G01*
X166801000Y-88300001D01*
G75*
G02*
X166750001Y-88351000I-50999J0D01*
G01*
X165549999Y-88351000D01*
G75*
G02*
X165499000Y-88300001I0J50999D01*
G01*
X165499000Y-86899999D01*
G75*
G02*
X165549999Y-86849000I50999J0D01*
G01*
G37*
G36*
G01*
X163849999Y-86849000D02*
X165050001Y-86849000D01*
G75*
G02*
X165101000Y-86899999I0J-50999D01*
G01*
X165101000Y-88300001D01*
G75*
G02*
X165050001Y-88351000I-50999J0D01*
G01*
X163849999Y-88351000D01*
G75*
G02*
X163799000Y-88300001I0J50999D01*
G01*
X163799000Y-86899999D01*
G75*
G02*
X163849999Y-86849000I50999J0D01*
G01*
G37*
G36*
G01*
X163849999Y-84649000D02*
X165050001Y-84649000D01*
G75*
G02*
X165101000Y-84699999I0J-50999D01*
G01*
X165101000Y-86100001D01*
G75*
G02*
X165050001Y-86151000I-50999J0D01*
G01*
X163849999Y-86151000D01*
G75*
G02*
X163799000Y-86100001I0J50999D01*
G01*
X163799000Y-84699999D01*
G75*
G02*
X163849999Y-84649000I50999J0D01*
G01*
G37*
D13*
X171450000Y-82550000D03*
X168910000Y-82550000D03*
X166370000Y-82550000D03*
X163830000Y-82550000D03*
X161290000Y-82550000D03*
X158750000Y-82550000D03*
X156210000Y-82550000D03*
X153670000Y-82550000D03*
X151130000Y-82550000D03*
X148590000Y-82550000D03*
X146050000Y-82550000D03*
G36*
G01*
X144360000Y-83451000D02*
X142660000Y-83451000D01*
G75*
G02*
X142609000Y-83400000I0J51000D01*
G01*
X142609000Y-81700000D01*
G75*
G02*
X142660000Y-81649000I51000J0D01*
G01*
X144360000Y-81649000D01*
G75*
G02*
X144411000Y-81700000I0J-51000D01*
G01*
X144411000Y-83400000D01*
G75*
G02*
X144360000Y-83451000I-51000J0D01*
G01*
G37*
X171450000Y-102870000D03*
X168910000Y-102870000D03*
X166370000Y-102870000D03*
X163830000Y-102870000D03*
X161290000Y-102870000D03*
X158750000Y-102870000D03*
X156210000Y-102870000D03*
X153670000Y-102870000D03*
X151130000Y-102870000D03*
X148590000Y-102870000D03*
X146050000Y-102870000D03*
X143510000Y-102870000D03*
X140970000Y-102870000D03*
X138430000Y-102870000D03*
X135890000Y-102870000D03*
G36*
G01*
X134200000Y-103771000D02*
X132500000Y-103771000D01*
G75*
G02*
X132449000Y-103720000I0J51000D01*
G01*
X132449000Y-102020000D01*
G75*
G02*
X132500000Y-101969000I51000J0D01*
G01*
X134200000Y-101969000D01*
G75*
G02*
X134251000Y-102020000I0J-51000D01*
G01*
X134251000Y-103720000D01*
G75*
G02*
X134200000Y-103771000I-51000J0D01*
G01*
G37*
D14*
X129540000Y-83820000D03*
X129540000Y-101600000D03*
D15*
X175260000Y-102235000D03*
X175260000Y-83185000D03*
G36*
G01*
X148650000Y-84249000D02*
X149850000Y-84249000D01*
G75*
G02*
X149901000Y-84300000I0J-51000D01*
G01*
X149901000Y-85200000D01*
G75*
G02*
X149850000Y-85251000I-51000J0D01*
G01*
X148650000Y-85251000D01*
G75*
G02*
X148599000Y-85200000I0J51000D01*
G01*
X148599000Y-84300000D01*
G75*
G02*
X148650000Y-84249000I51000J0D01*
G01*
G37*
G36*
G01*
X148650000Y-87549000D02*
X149850000Y-87549000D01*
G75*
G02*
X149901000Y-87600000I0J-51000D01*
G01*
X149901000Y-88500000D01*
G75*
G02*
X149850000Y-88551000I-51000J0D01*
G01*
X148650000Y-88551000D01*
G75*
G02*
X148599000Y-88500000I0J51000D01*
G01*
X148599000Y-87600000D01*
G75*
G02*
X148650000Y-87549000I51000J0D01*
G01*
G37*
G36*
G01*
X173100500Y-89701000D02*
X171799500Y-89701000D01*
G75*
G02*
X171624000Y-89525500I0J175500D01*
G01*
X171624000Y-89174500D01*
G75*
G02*
X171799500Y-88999000I175500J0D01*
G01*
X173100500Y-88999000D01*
G75*
G02*
X173276000Y-89174500I0J-175500D01*
G01*
X173276000Y-89525500D01*
G75*
G02*
X173100500Y-89701000I-175500J0D01*
G01*
G37*
G36*
G01*
X173100500Y-88701000D02*
X171799500Y-88701000D01*
G75*
G02*
X171624000Y-88525500I0J175500D01*
G01*
X171624000Y-88174500D01*
G75*
G02*
X171799500Y-87999000I175500J0D01*
G01*
X173100500Y-87999000D01*
G75*
G02*
X173276000Y-88174500I0J-175500D01*
G01*
X173276000Y-88525500D01*
G75*
G02*
X173100500Y-88701000I-175500J0D01*
G01*
G37*
G36*
G01*
X173100500Y-87701000D02*
X171799500Y-87701000D01*
G75*
G02*
X171624000Y-87525500I0J175500D01*
G01*
X171624000Y-87174500D01*
G75*
G02*
X171799500Y-86999000I175500J0D01*
G01*
X173100500Y-86999000D01*
G75*
G02*
X173276000Y-87174500I0J-175500D01*
G01*
X173276000Y-87525500D01*
G75*
G02*
X173100500Y-87701000I-175500J0D01*
G01*
G37*
G36*
G01*
X173100500Y-86701000D02*
X171799500Y-86701000D01*
G75*
G02*
X171624000Y-86525500I0J175500D01*
G01*
X171624000Y-86174500D01*
G75*
G02*
X171799500Y-85999000I175500J0D01*
G01*
X173100500Y-85999000D01*
G75*
G02*
X173276000Y-86174500I0J-175500D01*
G01*
X173276000Y-86525500D01*
G75*
G02*
X173100500Y-86701000I-175500J0D01*
G01*
G37*
G36*
G01*
X177004752Y-91301000D02*
X175645248Y-91301000D01*
G75*
G02*
X175374000Y-91029752I0J271248D01*
G01*
X175374000Y-90270248D01*
G75*
G02*
X175645248Y-89999000I271248J0D01*
G01*
X177004752Y-89999000D01*
G75*
G02*
X177276000Y-90270248I0J-271248D01*
G01*
X177276000Y-91029752D01*
G75*
G02*
X177004752Y-91301000I-271248J0D01*
G01*
G37*
G36*
G01*
X177004752Y-85701000D02*
X175645248Y-85701000D01*
G75*
G02*
X175374000Y-85429752I0J271248D01*
G01*
X175374000Y-84670248D01*
G75*
G02*
X175645248Y-84399000I271248J0D01*
G01*
X177004752Y-84399000D01*
G75*
G02*
X177276000Y-84670248I0J-271248D01*
G01*
X177276000Y-85429752D01*
G75*
G02*
X177004752Y-85701000I-271248J0D01*
G01*
G37*
G36*
G01*
X147801000Y-86350000D02*
X147801000Y-87150000D01*
G75*
G02*
X147750000Y-87201000I-51000J0D01*
G01*
X146850000Y-87201000D01*
G75*
G02*
X146799000Y-87150000I0J51000D01*
G01*
X146799000Y-86350000D01*
G75*
G02*
X146850000Y-86299000I51000J0D01*
G01*
X147750000Y-86299000D01*
G75*
G02*
X147801000Y-86350000I0J-51000D01*
G01*
G37*
G36*
G01*
X147801000Y-84450000D02*
X147801000Y-85250000D01*
G75*
G02*
X147750000Y-85301000I-51000J0D01*
G01*
X146850000Y-85301000D01*
G75*
G02*
X146799000Y-85250000I0J51000D01*
G01*
X146799000Y-84450000D01*
G75*
G02*
X146850000Y-84399000I51000J0D01*
G01*
X147750000Y-84399000D01*
G75*
G02*
X147801000Y-84450000I0J-51000D01*
G01*
G37*
G36*
G01*
X145801000Y-85400000D02*
X145801000Y-86200000D01*
G75*
G02*
X145750000Y-86251000I-51000J0D01*
G01*
X144850000Y-86251000D01*
G75*
G02*
X144799000Y-86200000I0J51000D01*
G01*
X144799000Y-85400000D01*
G75*
G02*
X144850000Y-85349000I51000J0D01*
G01*
X145750000Y-85349000D01*
G75*
G02*
X145801000Y-85400000I0J-51000D01*
G01*
G37*
G36*
G01*
X144973999Y-87885000D02*
X145624001Y-87885000D01*
G75*
G02*
X145675000Y-87935999I0J-50999D01*
G01*
X145675000Y-88996001D01*
G75*
G02*
X145624001Y-89047000I-50999J0D01*
G01*
X144973999Y-89047000D01*
G75*
G02*
X144923000Y-88996001I0J50999D01*
G01*
X144923000Y-87935999D01*
G75*
G02*
X144973999Y-87885000I50999J0D01*
G01*
G37*
G36*
G01*
X144023999Y-87885000D02*
X144674001Y-87885000D01*
G75*
G02*
X144725000Y-87935999I0J-50999D01*
G01*
X144725000Y-88996001D01*
G75*
G02*
X144674001Y-89047000I-50999J0D01*
G01*
X144023999Y-89047000D01*
G75*
G02*
X143973000Y-88996001I0J50999D01*
G01*
X143973000Y-87935999D01*
G75*
G02*
X144023999Y-87885000I50999J0D01*
G01*
G37*
G36*
G01*
X143073999Y-87885000D02*
X143724001Y-87885000D01*
G75*
G02*
X143775000Y-87935999I0J-50999D01*
G01*
X143775000Y-88996001D01*
G75*
G02*
X143724001Y-89047000I-50999J0D01*
G01*
X143073999Y-89047000D01*
G75*
G02*
X143023000Y-88996001I0J50999D01*
G01*
X143023000Y-87935999D01*
G75*
G02*
X143073999Y-87885000I50999J0D01*
G01*
G37*
G36*
G01*
X143073999Y-90085000D02*
X143724001Y-90085000D01*
G75*
G02*
X143775000Y-90135999I0J-50999D01*
G01*
X143775000Y-91196001D01*
G75*
G02*
X143724001Y-91247000I-50999J0D01*
G01*
X143073999Y-91247000D01*
G75*
G02*
X143023000Y-91196001I0J50999D01*
G01*
X143023000Y-90135999D01*
G75*
G02*
X143073999Y-90085000I50999J0D01*
G01*
G37*
G36*
G01*
X144973999Y-90085000D02*
X145624001Y-90085000D01*
G75*
G02*
X145675000Y-90135999I0J-50999D01*
G01*
X145675000Y-91196001D01*
G75*
G02*
X145624001Y-91247000I-50999J0D01*
G01*
X144973999Y-91247000D01*
G75*
G02*
X144923000Y-91196001I0J50999D01*
G01*
X144923000Y-90135999D01*
G75*
G02*
X144973999Y-90085000I50999J0D01*
G01*
G37*
G36*
G01*
X154435000Y-87255001D02*
X154435000Y-86604999D01*
G75*
G02*
X154485999Y-86554000I50999J0D01*
G01*
X155546001Y-86554000D01*
G75*
G02*
X155597000Y-86604999I0J-50999D01*
G01*
X155597000Y-87255001D01*
G75*
G02*
X155546001Y-87306000I-50999J0D01*
G01*
X154485999Y-87306000D01*
G75*
G02*
X154435000Y-87255001I0J50999D01*
G01*
G37*
G36*
G01*
X154435000Y-89155001D02*
X154435000Y-88504999D01*
G75*
G02*
X154485999Y-88454000I50999J0D01*
G01*
X155546001Y-88454000D01*
G75*
G02*
X155597000Y-88504999I0J-50999D01*
G01*
X155597000Y-89155001D01*
G75*
G02*
X155546001Y-89206000I-50999J0D01*
G01*
X154485999Y-89206000D01*
G75*
G02*
X154435000Y-89155001I0J50999D01*
G01*
G37*
G36*
G01*
X152235000Y-89155001D02*
X152235000Y-88504999D01*
G75*
G02*
X152285999Y-88454000I50999J0D01*
G01*
X153346001Y-88454000D01*
G75*
G02*
X153397000Y-88504999I0J-50999D01*
G01*
X153397000Y-89155001D01*
G75*
G02*
X153346001Y-89206000I-50999J0D01*
G01*
X152285999Y-89206000D01*
G75*
G02*
X152235000Y-89155001I0J50999D01*
G01*
G37*
G36*
G01*
X152235000Y-88205001D02*
X152235000Y-87554999D01*
G75*
G02*
X152285999Y-87504000I50999J0D01*
G01*
X153346001Y-87504000D01*
G75*
G02*
X153397000Y-87554999I0J-50999D01*
G01*
X153397000Y-88205001D01*
G75*
G02*
X153346001Y-88256000I-50999J0D01*
G01*
X152285999Y-88256000D01*
G75*
G02*
X152235000Y-88205001I0J50999D01*
G01*
G37*
G36*
G01*
X152235000Y-87255001D02*
X152235000Y-86604999D01*
G75*
G02*
X152285999Y-86554000I50999J0D01*
G01*
X153346001Y-86554000D01*
G75*
G02*
X153397000Y-86604999I0J-50999D01*
G01*
X153397000Y-87255001D01*
G75*
G02*
X153346001Y-87306000I-50999J0D01*
G01*
X152285999Y-87306000D01*
G75*
G02*
X152235000Y-87255001I0J50999D01*
G01*
G37*
G36*
G01*
X136241000Y-92974001D02*
X136241000Y-92323999D01*
G75*
G02*
X136291999Y-92273000I50999J0D01*
G01*
X137352001Y-92273000D01*
G75*
G02*
X137403000Y-92323999I0J-50999D01*
G01*
X137403000Y-92974001D01*
G75*
G02*
X137352001Y-93025000I-50999J0D01*
G01*
X136291999Y-93025000D01*
G75*
G02*
X136241000Y-92974001I0J50999D01*
G01*
G37*
G36*
G01*
X136241000Y-93924001D02*
X136241000Y-93273999D01*
G75*
G02*
X136291999Y-93223000I50999J0D01*
G01*
X137352001Y-93223000D01*
G75*
G02*
X137403000Y-93273999I0J-50999D01*
G01*
X137403000Y-93924001D01*
G75*
G02*
X137352001Y-93975000I-50999J0D01*
G01*
X136291999Y-93975000D01*
G75*
G02*
X136241000Y-93924001I0J50999D01*
G01*
G37*
G36*
G01*
X136241000Y-94874001D02*
X136241000Y-94223999D01*
G75*
G02*
X136291999Y-94173000I50999J0D01*
G01*
X137352001Y-94173000D01*
G75*
G02*
X137403000Y-94223999I0J-50999D01*
G01*
X137403000Y-94874001D01*
G75*
G02*
X137352001Y-94925000I-50999J0D01*
G01*
X136291999Y-94925000D01*
G75*
G02*
X136241000Y-94874001I0J50999D01*
G01*
G37*
G36*
G01*
X138441000Y-94874001D02*
X138441000Y-94223999D01*
G75*
G02*
X138491999Y-94173000I50999J0D01*
G01*
X139552001Y-94173000D01*
G75*
G02*
X139603000Y-94223999I0J-50999D01*
G01*
X139603000Y-94874001D01*
G75*
G02*
X139552001Y-94925000I-50999J0D01*
G01*
X138491999Y-94925000D01*
G75*
G02*
X138441000Y-94874001I0J50999D01*
G01*
G37*
G36*
G01*
X138441000Y-92974001D02*
X138441000Y-92323999D01*
G75*
G02*
X138491999Y-92273000I50999J0D01*
G01*
X139552001Y-92273000D01*
G75*
G02*
X139603000Y-92323999I0J-50999D01*
G01*
X139603000Y-92974001D01*
G75*
G02*
X139552001Y-93025000I-50999J0D01*
G01*
X138491999Y-93025000D01*
G75*
G02*
X138441000Y-92974001I0J50999D01*
G01*
G37*
G36*
G01*
X138441000Y-93924001D02*
X138441000Y-93273999D01*
G75*
G02*
X138491999Y-93223000I50999J0D01*
G01*
X139552001Y-93223000D01*
G75*
G02*
X139603000Y-93273999I0J-50999D01*
G01*
X139603000Y-93924001D01*
G75*
G02*
X139552001Y-93975000I-50999J0D01*
G01*
X138491999Y-93975000D01*
G75*
G02*
X138441000Y-93924001I0J50999D01*
G01*
G37*
G36*
G01*
X143028250Y-84274000D02*
X143991750Y-84274000D01*
G75*
G02*
X144261000Y-84543250I0J-269250D01*
G01*
X144261000Y-85081750D01*
G75*
G02*
X143991750Y-85351000I-269250J0D01*
G01*
X143028250Y-85351000D01*
G75*
G02*
X142759000Y-85081750I0J269250D01*
G01*
X142759000Y-84543250D01*
G75*
G02*
X143028250Y-84274000I269250J0D01*
G01*
G37*
G36*
G01*
X143028250Y-86149000D02*
X143991750Y-86149000D01*
G75*
G02*
X144261000Y-86418250I0J-269250D01*
G01*
X144261000Y-86956750D01*
G75*
G02*
X143991750Y-87226000I-269250J0D01*
G01*
X143028250Y-87226000D01*
G75*
G02*
X142759000Y-86956750I0J269250D01*
G01*
X142759000Y-86418250D01*
G75*
G02*
X143028250Y-86149000I269250J0D01*
G01*
G37*
G36*
G01*
X152599000Y-85481750D02*
X152599000Y-84518250D01*
G75*
G02*
X152868250Y-84249000I269250J0D01*
G01*
X153406750Y-84249000D01*
G75*
G02*
X153676000Y-84518250I0J-269250D01*
G01*
X153676000Y-85481750D01*
G75*
G02*
X153406750Y-85751000I-269250J0D01*
G01*
X152868250Y-85751000D01*
G75*
G02*
X152599000Y-85481750I0J269250D01*
G01*
G37*
G36*
G01*
X150724000Y-85481750D02*
X150724000Y-84518250D01*
G75*
G02*
X150993250Y-84249000I269250J0D01*
G01*
X151531750Y-84249000D01*
G75*
G02*
X151801000Y-84518250I0J-269250D01*
G01*
X151801000Y-85481750D01*
G75*
G02*
X151531750Y-85751000I-269250J0D01*
G01*
X150993250Y-85751000D01*
G75*
G02*
X150724000Y-85481750I0J269250D01*
G01*
G37*
G36*
G01*
X154324000Y-85481750D02*
X154324000Y-84518250D01*
G75*
G02*
X154593250Y-84249000I269250J0D01*
G01*
X155131750Y-84249000D01*
G75*
G02*
X155401000Y-84518250I0J-269250D01*
G01*
X155401000Y-85481750D01*
G75*
G02*
X155131750Y-85751000I-269250J0D01*
G01*
X154593250Y-85751000D01*
G75*
G02*
X154324000Y-85481750I0J269250D01*
G01*
G37*
G36*
G01*
X156199000Y-85481750D02*
X156199000Y-84518250D01*
G75*
G02*
X156468250Y-84249000I269250J0D01*
G01*
X157006750Y-84249000D01*
G75*
G02*
X157276000Y-84518250I0J-269250D01*
G01*
X157276000Y-85481750D01*
G75*
G02*
X157006750Y-85751000I-269250J0D01*
G01*
X156468250Y-85751000D01*
G75*
G02*
X156199000Y-85481750I0J269250D01*
G01*
G37*
G36*
G01*
X158801000Y-87618250D02*
X158801000Y-88581750D01*
G75*
G02*
X158531750Y-88851000I-269250J0D01*
G01*
X157993250Y-88851000D01*
G75*
G02*
X157724000Y-88581750I0J269250D01*
G01*
X157724000Y-87618250D01*
G75*
G02*
X157993250Y-87349000I269250J0D01*
G01*
X158531750Y-87349000D01*
G75*
G02*
X158801000Y-87618250I0J-269250D01*
G01*
G37*
G36*
G01*
X160676000Y-87618250D02*
X160676000Y-88581750D01*
G75*
G02*
X160406750Y-88851000I-269250J0D01*
G01*
X159868250Y-88851000D01*
G75*
G02*
X159599000Y-88581750I0J269250D01*
G01*
X159599000Y-87618250D01*
G75*
G02*
X159868250Y-87349000I269250J0D01*
G01*
X160406750Y-87349000D01*
G75*
G02*
X160676000Y-87618250I0J-269250D01*
G01*
G37*
G36*
G01*
X167424000Y-100581750D02*
X167424000Y-100018250D01*
G75*
G02*
X167668250Y-99774000I244250J0D01*
G01*
X168156750Y-99774000D01*
G75*
G02*
X168401000Y-100018250I0J-244250D01*
G01*
X168401000Y-100581750D01*
G75*
G02*
X168156750Y-100826000I-244250J0D01*
G01*
X167668250Y-100826000D01*
G75*
G02*
X167424000Y-100581750I0J244250D01*
G01*
G37*
G36*
G01*
X168999000Y-100581750D02*
X168999000Y-100018250D01*
G75*
G02*
X169243250Y-99774000I244250J0D01*
G01*
X169731750Y-99774000D01*
G75*
G02*
X169976000Y-100018250I0J-244250D01*
G01*
X169976000Y-100581750D01*
G75*
G02*
X169731750Y-100826000I-244250J0D01*
G01*
X169243250Y-100826000D01*
G75*
G02*
X168999000Y-100581750I0J244250D01*
G01*
G37*
G36*
G01*
X157013500Y-97468250D02*
X157013500Y-98431750D01*
G75*
G02*
X156744250Y-98701000I-269250J0D01*
G01*
X156205750Y-98701000D01*
G75*
G02*
X155936500Y-98431750I0J269250D01*
G01*
X155936500Y-97468250D01*
G75*
G02*
X156205750Y-97199000I269250J0D01*
G01*
X156744250Y-97199000D01*
G75*
G02*
X157013500Y-97468250I0J-269250D01*
G01*
G37*
G36*
G01*
X155138500Y-97468250D02*
X155138500Y-98431750D01*
G75*
G02*
X154869250Y-98701000I-269250J0D01*
G01*
X154330750Y-98701000D01*
G75*
G02*
X154061500Y-98431750I0J269250D01*
G01*
X154061500Y-97468250D01*
G75*
G02*
X154330750Y-97199000I269250J0D01*
G01*
X154869250Y-97199000D01*
G75*
G02*
X155138500Y-97468250I0J-269250D01*
G01*
G37*
G36*
G01*
X152818250Y-97622000D02*
X153381750Y-97622000D01*
G75*
G02*
X153626000Y-97866250I0J-244250D01*
G01*
X153626000Y-98354750D01*
G75*
G02*
X153381750Y-98599000I-244250J0D01*
G01*
X152818250Y-98599000D01*
G75*
G02*
X152574000Y-98354750I0J244250D01*
G01*
X152574000Y-97866250D01*
G75*
G02*
X152818250Y-97622000I244250J0D01*
G01*
G37*
G36*
G01*
X152818250Y-99197000D02*
X153381750Y-99197000D01*
G75*
G02*
X153626000Y-99441250I0J-244250D01*
G01*
X153626000Y-99929750D01*
G75*
G02*
X153381750Y-100174000I-244250J0D01*
G01*
X152818250Y-100174000D01*
G75*
G02*
X152574000Y-99929750I0J244250D01*
G01*
X152574000Y-99441250D01*
G75*
G02*
X152818250Y-99197000I244250J0D01*
G01*
G37*
G36*
G01*
X151325250Y-99197000D02*
X151888750Y-99197000D01*
G75*
G02*
X152133000Y-99441250I0J-244250D01*
G01*
X152133000Y-99929750D01*
G75*
G02*
X151888750Y-100174000I-244250J0D01*
G01*
X151325250Y-100174000D01*
G75*
G02*
X151081000Y-99929750I0J244250D01*
G01*
X151081000Y-99441250D01*
G75*
G02*
X151325250Y-99197000I244250J0D01*
G01*
G37*
G36*
G01*
X151325250Y-97622000D02*
X151888750Y-97622000D01*
G75*
G02*
X152133000Y-97866250I0J-244250D01*
G01*
X152133000Y-98354750D01*
G75*
G02*
X151888750Y-98599000I-244250J0D01*
G01*
X151325250Y-98599000D01*
G75*
G02*
X151081000Y-98354750I0J244250D01*
G01*
X151081000Y-97866250D01*
G75*
G02*
X151325250Y-97622000I244250J0D01*
G01*
G37*
G36*
G01*
X169099000Y-88081750D02*
X169099000Y-87518250D01*
G75*
G02*
X169343250Y-87274000I244250J0D01*
G01*
X169831750Y-87274000D01*
G75*
G02*
X170076000Y-87518250I0J-244250D01*
G01*
X170076000Y-88081750D01*
G75*
G02*
X169831750Y-88326000I-244250J0D01*
G01*
X169343250Y-88326000D01*
G75*
G02*
X169099000Y-88081750I0J244250D01*
G01*
G37*
G36*
G01*
X167524000Y-88081750D02*
X167524000Y-87518250D01*
G75*
G02*
X167768250Y-87274000I244250J0D01*
G01*
X168256750Y-87274000D01*
G75*
G02*
X168501000Y-87518250I0J-244250D01*
G01*
X168501000Y-88081750D01*
G75*
G02*
X168256750Y-88326000I-244250J0D01*
G01*
X167768250Y-88326000D01*
G75*
G02*
X167524000Y-88081750I0J244250D01*
G01*
G37*
G36*
G01*
X158631750Y-85251000D02*
X158068250Y-85251000D01*
G75*
G02*
X157824000Y-85006750I0J244250D01*
G01*
X157824000Y-84518250D01*
G75*
G02*
X158068250Y-84274000I244250J0D01*
G01*
X158631750Y-84274000D01*
G75*
G02*
X158876000Y-84518250I0J-244250D01*
G01*
X158876000Y-85006750D01*
G75*
G02*
X158631750Y-85251000I-244250J0D01*
G01*
G37*
G36*
G01*
X158631750Y-86826000D02*
X158068250Y-86826000D01*
G75*
G02*
X157824000Y-86581750I0J244250D01*
G01*
X157824000Y-86093250D01*
G75*
G02*
X158068250Y-85849000I244250J0D01*
G01*
X158631750Y-85849000D01*
G75*
G02*
X158876000Y-86093250I0J-244250D01*
G01*
X158876000Y-86581750D01*
G75*
G02*
X158631750Y-86826000I-244250J0D01*
G01*
G37*
G36*
G01*
X156418250Y-86274000D02*
X156981750Y-86274000D01*
G75*
G02*
X157226000Y-86518250I0J-244250D01*
G01*
X157226000Y-87006750D01*
G75*
G02*
X156981750Y-87251000I-244250J0D01*
G01*
X156418250Y-87251000D01*
G75*
G02*
X156174000Y-87006750I0J244250D01*
G01*
X156174000Y-86518250D01*
G75*
G02*
X156418250Y-86274000I244250J0D01*
G01*
G37*
G36*
G01*
X156418250Y-87849000D02*
X156981750Y-87849000D01*
G75*
G02*
X157226000Y-88093250I0J-244250D01*
G01*
X157226000Y-88581750D01*
G75*
G02*
X156981750Y-88826000I-244250J0D01*
G01*
X156418250Y-88826000D01*
G75*
G02*
X156174000Y-88581750I0J244250D01*
G01*
X156174000Y-88093250D01*
G75*
G02*
X156418250Y-87849000I244250J0D01*
G01*
G37*
G36*
G01*
X167918250Y-90399000D02*
X168481750Y-90399000D01*
G75*
G02*
X168726000Y-90643250I0J-244250D01*
G01*
X168726000Y-91131750D01*
G75*
G02*
X168481750Y-91376000I-244250J0D01*
G01*
X167918250Y-91376000D01*
G75*
G02*
X167674000Y-91131750I0J244250D01*
G01*
X167674000Y-90643250D01*
G75*
G02*
X167918250Y-90399000I244250J0D01*
G01*
G37*
G36*
G01*
X167918250Y-88824000D02*
X168481750Y-88824000D01*
G75*
G02*
X168726000Y-89068250I0J-244250D01*
G01*
X168726000Y-89556750D01*
G75*
G02*
X168481750Y-89801000I-244250J0D01*
G01*
X167918250Y-89801000D01*
G75*
G02*
X167674000Y-89556750I0J244250D01*
G01*
X167674000Y-89068250D01*
G75*
G02*
X167918250Y-88824000I244250J0D01*
G01*
G37*
G36*
G01*
X169418250Y-90399000D02*
X169981750Y-90399000D01*
G75*
G02*
X170226000Y-90643250I0J-244250D01*
G01*
X170226000Y-91131750D01*
G75*
G02*
X169981750Y-91376000I-244250J0D01*
G01*
X169418250Y-91376000D01*
G75*
G02*
X169174000Y-91131750I0J244250D01*
G01*
X169174000Y-90643250D01*
G75*
G02*
X169418250Y-90399000I244250J0D01*
G01*
G37*
G36*
G01*
X169418250Y-88824000D02*
X169981750Y-88824000D01*
G75*
G02*
X170226000Y-89068250I0J-244250D01*
G01*
X170226000Y-89556750D01*
G75*
G02*
X169981750Y-89801000I-244250J0D01*
G01*
X169418250Y-89801000D01*
G75*
G02*
X169174000Y-89556750I0J244250D01*
G01*
X169174000Y-89068250D01*
G75*
G02*
X169418250Y-88824000I244250J0D01*
G01*
G37*
G36*
G01*
X132052250Y-99867000D02*
X132615750Y-99867000D01*
G75*
G02*
X132860000Y-100111250I0J-244250D01*
G01*
X132860000Y-100599750D01*
G75*
G02*
X132615750Y-100844000I-244250J0D01*
G01*
X132052250Y-100844000D01*
G75*
G02*
X131808000Y-100599750I0J244250D01*
G01*
X131808000Y-100111250D01*
G75*
G02*
X132052250Y-99867000I244250J0D01*
G01*
G37*
G36*
G01*
X132052250Y-98292000D02*
X132615750Y-98292000D01*
G75*
G02*
X132860000Y-98536250I0J-244250D01*
G01*
X132860000Y-99024750D01*
G75*
G02*
X132615750Y-99269000I-244250J0D01*
G01*
X132052250Y-99269000D01*
G75*
G02*
X131808000Y-99024750I0J244250D01*
G01*
X131808000Y-98536250D01*
G75*
G02*
X132052250Y-98292000I244250J0D01*
G01*
G37*
G36*
G01*
X169099000Y-85081750D02*
X169099000Y-84518250D01*
G75*
G02*
X169343250Y-84274000I244250J0D01*
G01*
X169831750Y-84274000D01*
G75*
G02*
X170076000Y-84518250I0J-244250D01*
G01*
X170076000Y-85081750D01*
G75*
G02*
X169831750Y-85326000I-244250J0D01*
G01*
X169343250Y-85326000D01*
G75*
G02*
X169099000Y-85081750I0J244250D01*
G01*
G37*
G36*
G01*
X167524000Y-85081750D02*
X167524000Y-84518250D01*
G75*
G02*
X167768250Y-84274000I244250J0D01*
G01*
X168256750Y-84274000D01*
G75*
G02*
X168501000Y-84518250I0J-244250D01*
G01*
X168501000Y-85081750D01*
G75*
G02*
X168256750Y-85326000I-244250J0D01*
G01*
X167768250Y-85326000D01*
G75*
G02*
X167524000Y-85081750I0J244250D01*
G01*
G37*
G36*
G01*
X132052250Y-84322000D02*
X132615750Y-84322000D01*
G75*
G02*
X132860000Y-84566250I0J-244250D01*
G01*
X132860000Y-85054750D01*
G75*
G02*
X132615750Y-85299000I-244250J0D01*
G01*
X132052250Y-85299000D01*
G75*
G02*
X131808000Y-85054750I0J244250D01*
G01*
X131808000Y-84566250D01*
G75*
G02*
X132052250Y-84322000I244250J0D01*
G01*
G37*
G36*
G01*
X132052250Y-85897000D02*
X132615750Y-85897000D01*
G75*
G02*
X132860000Y-86141250I0J-244250D01*
G01*
X132860000Y-86629750D01*
G75*
G02*
X132615750Y-86874000I-244250J0D01*
G01*
X132052250Y-86874000D01*
G75*
G02*
X131808000Y-86629750I0J244250D01*
G01*
X131808000Y-86141250D01*
G75*
G02*
X132052250Y-85897000I244250J0D01*
G01*
G37*
G36*
G01*
X150918250Y-88499000D02*
X151481750Y-88499000D01*
G75*
G02*
X151726000Y-88743250I0J-244250D01*
G01*
X151726000Y-89231750D01*
G75*
G02*
X151481750Y-89476000I-244250J0D01*
G01*
X150918250Y-89476000D01*
G75*
G02*
X150674000Y-89231750I0J244250D01*
G01*
X150674000Y-88743250D01*
G75*
G02*
X150918250Y-88499000I244250J0D01*
G01*
G37*
G36*
G01*
X150918250Y-86924000D02*
X151481750Y-86924000D01*
G75*
G02*
X151726000Y-87168250I0J-244250D01*
G01*
X151726000Y-87656750D01*
G75*
G02*
X151481750Y-87901000I-244250J0D01*
G01*
X150918250Y-87901000D01*
G75*
G02*
X150674000Y-87656750I0J244250D01*
G01*
X150674000Y-87168250D01*
G75*
G02*
X150918250Y-86924000I244250J0D01*
G01*
G37*
G36*
G01*
X142373000Y-90468250D02*
X142373000Y-91031750D01*
G75*
G02*
X142128750Y-91276000I-244250J0D01*
G01*
X141640250Y-91276000D01*
G75*
G02*
X141396000Y-91031750I0J244250D01*
G01*
X141396000Y-90468250D01*
G75*
G02*
X141640250Y-90224000I244250J0D01*
G01*
X142128750Y-90224000D01*
G75*
G02*
X142373000Y-90468250I0J-244250D01*
G01*
G37*
G36*
G01*
X140798000Y-90468250D02*
X140798000Y-91031750D01*
G75*
G02*
X140553750Y-91276000I-244250J0D01*
G01*
X140065250Y-91276000D01*
G75*
G02*
X139821000Y-91031750I0J244250D01*
G01*
X139821000Y-90468250D01*
G75*
G02*
X140065250Y-90224000I244250J0D01*
G01*
X140553750Y-90224000D01*
G75*
G02*
X140798000Y-90468250I0J-244250D01*
G01*
G37*
G36*
G01*
X147381750Y-90526000D02*
X146818250Y-90526000D01*
G75*
G02*
X146574000Y-90281750I0J244250D01*
G01*
X146574000Y-89793250D01*
G75*
G02*
X146818250Y-89549000I244250J0D01*
G01*
X147381750Y-89549000D01*
G75*
G02*
X147626000Y-89793250I0J-244250D01*
G01*
X147626000Y-90281750D01*
G75*
G02*
X147381750Y-90526000I-244250J0D01*
G01*
G37*
G36*
G01*
X147381750Y-88951000D02*
X146818250Y-88951000D01*
G75*
G02*
X146574000Y-88706750I0J244250D01*
G01*
X146574000Y-88218250D01*
G75*
G02*
X146818250Y-87974000I244250J0D01*
G01*
X147381750Y-87974000D01*
G75*
G02*
X147626000Y-88218250I0J-244250D01*
G01*
X147626000Y-88706750D01*
G75*
G02*
X147381750Y-88951000I-244250J0D01*
G01*
G37*
G36*
G01*
X133718250Y-96524000D02*
X134281750Y-96524000D01*
G75*
G02*
X134526000Y-96768250I0J-244250D01*
G01*
X134526000Y-97256750D01*
G75*
G02*
X134281750Y-97501000I-244250J0D01*
G01*
X133718250Y-97501000D01*
G75*
G02*
X133474000Y-97256750I0J244250D01*
G01*
X133474000Y-96768250D01*
G75*
G02*
X133718250Y-96524000I244250J0D01*
G01*
G37*
G36*
G01*
X133718250Y-98099000D02*
X134281750Y-98099000D01*
G75*
G02*
X134526000Y-98343250I0J-244250D01*
G01*
X134526000Y-98831750D01*
G75*
G02*
X134281750Y-99076000I-244250J0D01*
G01*
X133718250Y-99076000D01*
G75*
G02*
X133474000Y-98831750I0J244250D01*
G01*
X133474000Y-98343250D01*
G75*
G02*
X133718250Y-98099000I244250J0D01*
G01*
G37*
G36*
G01*
X134899000Y-91681750D02*
X134899000Y-91118250D01*
G75*
G02*
X135143250Y-90874000I244250J0D01*
G01*
X135631750Y-90874000D01*
G75*
G02*
X135876000Y-91118250I0J-244250D01*
G01*
X135876000Y-91681750D01*
G75*
G02*
X135631750Y-91926000I-244250J0D01*
G01*
X135143250Y-91926000D01*
G75*
G02*
X134899000Y-91681750I0J244250D01*
G01*
G37*
G36*
G01*
X133324000Y-91681750D02*
X133324000Y-91118250D01*
G75*
G02*
X133568250Y-90874000I244250J0D01*
G01*
X134056750Y-90874000D01*
G75*
G02*
X134301000Y-91118250I0J-244250D01*
G01*
X134301000Y-91681750D01*
G75*
G02*
X134056750Y-91926000I-244250J0D01*
G01*
X133568250Y-91926000D01*
G75*
G02*
X133324000Y-91681750I0J244250D01*
G01*
G37*
G36*
G01*
X155051000Y-99368250D02*
X155051000Y-99931750D01*
G75*
G02*
X154806750Y-100176000I-244250J0D01*
G01*
X154318250Y-100176000D01*
G75*
G02*
X154074000Y-99931750I0J244250D01*
G01*
X154074000Y-99368250D01*
G75*
G02*
X154318250Y-99124000I244250J0D01*
G01*
X154806750Y-99124000D01*
G75*
G02*
X155051000Y-99368250I0J-244250D01*
G01*
G37*
G36*
G01*
X156626000Y-99368250D02*
X156626000Y-99931750D01*
G75*
G02*
X156381750Y-100176000I-244250J0D01*
G01*
X155893250Y-100176000D01*
G75*
G02*
X155649000Y-99931750I0J244250D01*
G01*
X155649000Y-99368250D01*
G75*
G02*
X155893250Y-99124000I244250J0D01*
G01*
X156381750Y-99124000D01*
G75*
G02*
X156626000Y-99368250I0J-244250D01*
G01*
G37*
D16*
G36*
X161032673Y-96626000D02*
G01*
X161032673Y-96628000D01*
X161031522Y-96628914D01*
X161006856Y-96636397D01*
X160977425Y-96652127D01*
X160951630Y-96673297D01*
X160930460Y-96699092D01*
X160914730Y-96728523D01*
X160905041Y-96760459D01*
X160901762Y-96793760D01*
X160901762Y-97460734D01*
X160905041Y-97494035D01*
X160914730Y-97525971D01*
X160930460Y-97555402D01*
X160949876Y-97579060D01*
X160950202Y-97581034D01*
X160948656Y-97582302D01*
X160947219Y-97581992D01*
X160927212Y-97568624D01*
X160904938Y-97559398D01*
X160881288Y-97554694D01*
X160857182Y-97554694D01*
X160833532Y-97559399D01*
X160811258Y-97568625D01*
X160791211Y-97582020D01*
X160774164Y-97599067D01*
X160760769Y-97619115D01*
X160754674Y-97633830D01*
X160752826Y-97635065D01*
X160744237Y-97635065D01*
X160742505Y-97634065D01*
X160742237Y-97633065D01*
X160742237Y-96627000D01*
X160743237Y-96625268D01*
X160744237Y-96625000D01*
X161030941Y-96625000D01*
X161032673Y-96626000D01*
G37*
G36*
X164032673Y-96626000D02*
G01*
X164032673Y-96628000D01*
X164031522Y-96628914D01*
X164006856Y-96636397D01*
X163977425Y-96652127D01*
X163951630Y-96673297D01*
X163930460Y-96699092D01*
X163914730Y-96728523D01*
X163905041Y-96760459D01*
X163901762Y-96793760D01*
X163901762Y-97460734D01*
X163905041Y-97494035D01*
X163914730Y-97525971D01*
X163929099Y-97552855D01*
X163929033Y-97554854D01*
X163927270Y-97555797D01*
X163925789Y-97555067D01*
X163923781Y-97552620D01*
X163923664Y-97552462D01*
X163917070Y-97542594D01*
X163900023Y-97525547D01*
X163879975Y-97512153D01*
X163857701Y-97502927D01*
X163834051Y-97498223D01*
X163809945Y-97498223D01*
X163786295Y-97502928D01*
X163764021Y-97512155D01*
X163743974Y-97525550D01*
X163726927Y-97542597D01*
X163720334Y-97552465D01*
X163720217Y-97552623D01*
X163718210Y-97555069D01*
X163716338Y-97555773D01*
X163714792Y-97554505D01*
X163714900Y-97552857D01*
X163729270Y-97525971D01*
X163738959Y-97494035D01*
X163742238Y-97460734D01*
X163742238Y-96793760D01*
X163738959Y-96760459D01*
X163729270Y-96728523D01*
X163713540Y-96699092D01*
X163692370Y-96673297D01*
X163666575Y-96652127D01*
X163637144Y-96636397D01*
X163612478Y-96628914D01*
X163611111Y-96627454D01*
X163611692Y-96625540D01*
X163613059Y-96625000D01*
X164030941Y-96625000D01*
X164032673Y-96626000D01*
G37*
G36*
X162532673Y-96626000D02*
G01*
X162532673Y-96628000D01*
X162531522Y-96628914D01*
X162506856Y-96636397D01*
X162477425Y-96652127D01*
X162451630Y-96673297D01*
X162430460Y-96699092D01*
X162414730Y-96728523D01*
X162405041Y-96760459D01*
X162401762Y-96793760D01*
X162401762Y-97460734D01*
X162405041Y-97494035D01*
X162414730Y-97525971D01*
X162429099Y-97552855D01*
X162429033Y-97554854D01*
X162427270Y-97555797D01*
X162425789Y-97555067D01*
X162423781Y-97552620D01*
X162423664Y-97552462D01*
X162417070Y-97542594D01*
X162400023Y-97525547D01*
X162379975Y-97512153D01*
X162357701Y-97502927D01*
X162334051Y-97498223D01*
X162309945Y-97498223D01*
X162286295Y-97502928D01*
X162264021Y-97512155D01*
X162243974Y-97525550D01*
X162226927Y-97542597D01*
X162220334Y-97552465D01*
X162220217Y-97552623D01*
X162218210Y-97555069D01*
X162216338Y-97555773D01*
X162214792Y-97554505D01*
X162214900Y-97552857D01*
X162229270Y-97525971D01*
X162238959Y-97494035D01*
X162242238Y-97460734D01*
X162242238Y-96793760D01*
X162238959Y-96760459D01*
X162229270Y-96728523D01*
X162213540Y-96699092D01*
X162192370Y-96673297D01*
X162166575Y-96652127D01*
X162137144Y-96636397D01*
X162112478Y-96628914D01*
X162111111Y-96627454D01*
X162111692Y-96625540D01*
X162113059Y-96625000D01*
X162530941Y-96625000D01*
X162532673Y-96626000D01*
G37*
G36*
X163032673Y-96626000D02*
G01*
X163032673Y-96628000D01*
X163031522Y-96628914D01*
X163006856Y-96636397D01*
X162977425Y-96652127D01*
X162951630Y-96673297D01*
X162930460Y-96699092D01*
X162914730Y-96728523D01*
X162905041Y-96760459D01*
X162901762Y-96793760D01*
X162901762Y-97460734D01*
X162905041Y-97494035D01*
X162914730Y-97525971D01*
X162929099Y-97552855D01*
X162929033Y-97554854D01*
X162927270Y-97555797D01*
X162925789Y-97555067D01*
X162923781Y-97552620D01*
X162923664Y-97552462D01*
X162917070Y-97542594D01*
X162900023Y-97525547D01*
X162879975Y-97512153D01*
X162857701Y-97502927D01*
X162834051Y-97498223D01*
X162809945Y-97498223D01*
X162786295Y-97502928D01*
X162764021Y-97512155D01*
X162743974Y-97525550D01*
X162726927Y-97542597D01*
X162720334Y-97552465D01*
X162720217Y-97552623D01*
X162718210Y-97555069D01*
X162716338Y-97555773D01*
X162714792Y-97554505D01*
X162714900Y-97552857D01*
X162729270Y-97525971D01*
X162738959Y-97494035D01*
X162742238Y-97460734D01*
X162742238Y-96793760D01*
X162738959Y-96760459D01*
X162729270Y-96728523D01*
X162713540Y-96699092D01*
X162692370Y-96673297D01*
X162666575Y-96652127D01*
X162637144Y-96636397D01*
X162612478Y-96628914D01*
X162611111Y-96627454D01*
X162611692Y-96625540D01*
X162613059Y-96625000D01*
X163030941Y-96625000D01*
X163032673Y-96626000D01*
G37*
G36*
X162032673Y-96626000D02*
G01*
X162032673Y-96628000D01*
X162031522Y-96628914D01*
X162006856Y-96636397D01*
X161977425Y-96652127D01*
X161951630Y-96673297D01*
X161930460Y-96699092D01*
X161914730Y-96728523D01*
X161905041Y-96760459D01*
X161901762Y-96793760D01*
X161901762Y-97460734D01*
X161905041Y-97494035D01*
X161914730Y-97525971D01*
X161929099Y-97552855D01*
X161929033Y-97554854D01*
X161927270Y-97555797D01*
X161925789Y-97555067D01*
X161923781Y-97552620D01*
X161923664Y-97552462D01*
X161917070Y-97542594D01*
X161900023Y-97525547D01*
X161879975Y-97512153D01*
X161857701Y-97502927D01*
X161834051Y-97498223D01*
X161809945Y-97498223D01*
X161786295Y-97502928D01*
X161764021Y-97512155D01*
X161743974Y-97525550D01*
X161726927Y-97542597D01*
X161720334Y-97552465D01*
X161720217Y-97552623D01*
X161718210Y-97555069D01*
X161716338Y-97555773D01*
X161714792Y-97554505D01*
X161714900Y-97552857D01*
X161729270Y-97525971D01*
X161738959Y-97494035D01*
X161742238Y-97460734D01*
X161742238Y-96793760D01*
X161738959Y-96760459D01*
X161729270Y-96728523D01*
X161713540Y-96699092D01*
X161692370Y-96673297D01*
X161666575Y-96652127D01*
X161637144Y-96636397D01*
X161612478Y-96628914D01*
X161611111Y-96627454D01*
X161611692Y-96625540D01*
X161613059Y-96625000D01*
X162030941Y-96625000D01*
X162032673Y-96626000D01*
G37*
G36*
X163532673Y-96626000D02*
G01*
X163532673Y-96628000D01*
X163531522Y-96628914D01*
X163506856Y-96636397D01*
X163477425Y-96652127D01*
X163451630Y-96673297D01*
X163430460Y-96699092D01*
X163414730Y-96728523D01*
X163405041Y-96760459D01*
X163401762Y-96793760D01*
X163401762Y-97460734D01*
X163405041Y-97494035D01*
X163414730Y-97525971D01*
X163429099Y-97552855D01*
X163429033Y-97554854D01*
X163427270Y-97555797D01*
X163425789Y-97555067D01*
X163423781Y-97552620D01*
X163423664Y-97552462D01*
X163417070Y-97542594D01*
X163400023Y-97525547D01*
X163379975Y-97512153D01*
X163357701Y-97502927D01*
X163334051Y-97498223D01*
X163309945Y-97498223D01*
X163286295Y-97502928D01*
X163264021Y-97512155D01*
X163243974Y-97525550D01*
X163226927Y-97542597D01*
X163220334Y-97552465D01*
X163220217Y-97552623D01*
X163218210Y-97555069D01*
X163216338Y-97555773D01*
X163214792Y-97554505D01*
X163214900Y-97552857D01*
X163229270Y-97525971D01*
X163238959Y-97494035D01*
X163242238Y-97460734D01*
X163242238Y-96793760D01*
X163238959Y-96760459D01*
X163229270Y-96728523D01*
X163213540Y-96699092D01*
X163192370Y-96673297D01*
X163166575Y-96652127D01*
X163137144Y-96636397D01*
X163112478Y-96628914D01*
X163111111Y-96627454D01*
X163111692Y-96625540D01*
X163113059Y-96625000D01*
X163530941Y-96625000D01*
X163532673Y-96626000D01*
G37*
G36*
X164532673Y-96626000D02*
G01*
X164532673Y-96628000D01*
X164531522Y-96628914D01*
X164506856Y-96636397D01*
X164477425Y-96652127D01*
X164451630Y-96673297D01*
X164430460Y-96699092D01*
X164414730Y-96728523D01*
X164405041Y-96760459D01*
X164401762Y-96793760D01*
X164401762Y-97460734D01*
X164405041Y-97494035D01*
X164414730Y-97525971D01*
X164429099Y-97552855D01*
X164429033Y-97554854D01*
X164427270Y-97555797D01*
X164425789Y-97555067D01*
X164423781Y-97552620D01*
X164423664Y-97552462D01*
X164417070Y-97542594D01*
X164400023Y-97525547D01*
X164379975Y-97512153D01*
X164357701Y-97502927D01*
X164334051Y-97498223D01*
X164309945Y-97498223D01*
X164286295Y-97502928D01*
X164264021Y-97512155D01*
X164243974Y-97525550D01*
X164226927Y-97542597D01*
X164220334Y-97552465D01*
X164220217Y-97552623D01*
X164218210Y-97555069D01*
X164216338Y-97555773D01*
X164214792Y-97554505D01*
X164214900Y-97552857D01*
X164229270Y-97525971D01*
X164238959Y-97494035D01*
X164242238Y-97460734D01*
X164242238Y-96793760D01*
X164238959Y-96760459D01*
X164229270Y-96728523D01*
X164213540Y-96699092D01*
X164192370Y-96673297D01*
X164166575Y-96652127D01*
X164137144Y-96636397D01*
X164112478Y-96628914D01*
X164111111Y-96627454D01*
X164111692Y-96625540D01*
X164113059Y-96625000D01*
X164530941Y-96625000D01*
X164532673Y-96626000D01*
G37*
G36*
X161532673Y-96626000D02*
G01*
X161532673Y-96628000D01*
X161531522Y-96628914D01*
X161506856Y-96636397D01*
X161477425Y-96652127D01*
X161451630Y-96673297D01*
X161430460Y-96699092D01*
X161414730Y-96728523D01*
X161405041Y-96760459D01*
X161401762Y-96793760D01*
X161401762Y-97460734D01*
X161405041Y-97494035D01*
X161414730Y-97525971D01*
X161429099Y-97552855D01*
X161429033Y-97554854D01*
X161427270Y-97555797D01*
X161425789Y-97555067D01*
X161423781Y-97552620D01*
X161423664Y-97552462D01*
X161417070Y-97542594D01*
X161400023Y-97525547D01*
X161379975Y-97512153D01*
X161357701Y-97502927D01*
X161334051Y-97498223D01*
X161309945Y-97498223D01*
X161286295Y-97502928D01*
X161264021Y-97512155D01*
X161243974Y-97525550D01*
X161226927Y-97542597D01*
X161220334Y-97552465D01*
X161220217Y-97552623D01*
X161218210Y-97555069D01*
X161216338Y-97555773D01*
X161214792Y-97554505D01*
X161214900Y-97552857D01*
X161229270Y-97525971D01*
X161238959Y-97494035D01*
X161242238Y-97460734D01*
X161242238Y-96793760D01*
X161238959Y-96760459D01*
X161229270Y-96728523D01*
X161213540Y-96699092D01*
X161192370Y-96673297D01*
X161166575Y-96652127D01*
X161137144Y-96636397D01*
X161112478Y-96628914D01*
X161111111Y-96627454D01*
X161111692Y-96625540D01*
X161113059Y-96625000D01*
X161530941Y-96625000D01*
X161532673Y-96626000D01*
G37*
G36*
X165032673Y-96626000D02*
G01*
X165032673Y-96628000D01*
X165031522Y-96628914D01*
X165006856Y-96636397D01*
X164977425Y-96652127D01*
X164951630Y-96673297D01*
X164930460Y-96699092D01*
X164914730Y-96728523D01*
X164905041Y-96760459D01*
X164901762Y-96793760D01*
X164901762Y-97460734D01*
X164905041Y-97494035D01*
X164914730Y-97525971D01*
X164929099Y-97552855D01*
X164929033Y-97554854D01*
X164927270Y-97555797D01*
X164925789Y-97555067D01*
X164923781Y-97552620D01*
X164923664Y-97552462D01*
X164917070Y-97542594D01*
X164900023Y-97525547D01*
X164879975Y-97512153D01*
X164857701Y-97502927D01*
X164834051Y-97498223D01*
X164809945Y-97498223D01*
X164786295Y-97502928D01*
X164764021Y-97512155D01*
X164743974Y-97525550D01*
X164726927Y-97542597D01*
X164720334Y-97552465D01*
X164720217Y-97552623D01*
X164718210Y-97555069D01*
X164716338Y-97555773D01*
X164714792Y-97554505D01*
X164714900Y-97552857D01*
X164729270Y-97525971D01*
X164738959Y-97494035D01*
X164742238Y-97460734D01*
X164742238Y-96793760D01*
X164738959Y-96760459D01*
X164729270Y-96728523D01*
X164713540Y-96699092D01*
X164692370Y-96673297D01*
X164666575Y-96652127D01*
X164637144Y-96636397D01*
X164612478Y-96628914D01*
X164611111Y-96627454D01*
X164611692Y-96625540D01*
X164613059Y-96625000D01*
X165030941Y-96625000D01*
X165032673Y-96626000D01*
G37*
G36*
X166032673Y-96626000D02*
G01*
X166032673Y-96628000D01*
X166031522Y-96628914D01*
X166006856Y-96636397D01*
X165977425Y-96652127D01*
X165951630Y-96673297D01*
X165930460Y-96699092D01*
X165914730Y-96728523D01*
X165905041Y-96760459D01*
X165901762Y-96793760D01*
X165901762Y-97460734D01*
X165905041Y-97494035D01*
X165914730Y-97525971D01*
X165929099Y-97552855D01*
X165929033Y-97554854D01*
X165927270Y-97555797D01*
X165925789Y-97555067D01*
X165923781Y-97552620D01*
X165923664Y-97552462D01*
X165917070Y-97542594D01*
X165900023Y-97525547D01*
X165879975Y-97512153D01*
X165857701Y-97502927D01*
X165834051Y-97498223D01*
X165809945Y-97498223D01*
X165786295Y-97502928D01*
X165764021Y-97512155D01*
X165743974Y-97525550D01*
X165726927Y-97542597D01*
X165720334Y-97552465D01*
X165720217Y-97552623D01*
X165718210Y-97555069D01*
X165716338Y-97555773D01*
X165714792Y-97554505D01*
X165714900Y-97552857D01*
X165729270Y-97525971D01*
X165738959Y-97494035D01*
X165742238Y-97460734D01*
X165742238Y-96793760D01*
X165738959Y-96760459D01*
X165729270Y-96728523D01*
X165713540Y-96699092D01*
X165692370Y-96673297D01*
X165666575Y-96652127D01*
X165637144Y-96636397D01*
X165612478Y-96628914D01*
X165611111Y-96627454D01*
X165611692Y-96625540D01*
X165613059Y-96625000D01*
X166030941Y-96625000D01*
X166032673Y-96626000D01*
G37*
G36*
X165532673Y-96626000D02*
G01*
X165532673Y-96628000D01*
X165531522Y-96628914D01*
X165506856Y-96636397D01*
X165477425Y-96652127D01*
X165451630Y-96673297D01*
X165430460Y-96699092D01*
X165414730Y-96728523D01*
X165405041Y-96760459D01*
X165401762Y-96793760D01*
X165401762Y-97460734D01*
X165405041Y-97494035D01*
X165414730Y-97525971D01*
X165429099Y-97552855D01*
X165429033Y-97554854D01*
X165427270Y-97555797D01*
X165425789Y-97555067D01*
X165423781Y-97552620D01*
X165423664Y-97552462D01*
X165417070Y-97542594D01*
X165400023Y-97525547D01*
X165379975Y-97512153D01*
X165357701Y-97502927D01*
X165334051Y-97498223D01*
X165309945Y-97498223D01*
X165286295Y-97502928D01*
X165264021Y-97512155D01*
X165243974Y-97525550D01*
X165226927Y-97542597D01*
X165220334Y-97552465D01*
X165220217Y-97552623D01*
X165218210Y-97555069D01*
X165216338Y-97555773D01*
X165214792Y-97554505D01*
X165214900Y-97552857D01*
X165229270Y-97525971D01*
X165238959Y-97494035D01*
X165242238Y-97460734D01*
X165242238Y-96793760D01*
X165238959Y-96760459D01*
X165229270Y-96728523D01*
X165213540Y-96699092D01*
X165192370Y-96673297D01*
X165166575Y-96652127D01*
X165137144Y-96636397D01*
X165112478Y-96628914D01*
X165111111Y-96627454D01*
X165111692Y-96625540D01*
X165113059Y-96625000D01*
X165530941Y-96625000D01*
X165532673Y-96626000D01*
G37*
G36*
X166224914Y-96516475D02*
G01*
X166232398Y-96541144D01*
X166248128Y-96570575D01*
X166269298Y-96596370D01*
X166295093Y-96617540D01*
X166324524Y-96633270D01*
X166356460Y-96642959D01*
X166373311Y-96644618D01*
X166374937Y-96645783D01*
X166374741Y-96647773D01*
X166373115Y-96648608D01*
X166354952Y-96648608D01*
X166331302Y-96653312D01*
X166309028Y-96662539D01*
X166288980Y-96675934D01*
X166271933Y-96692981D01*
X166258539Y-96713028D01*
X166249312Y-96735302D01*
X166244608Y-96758952D01*
X166244608Y-96777114D01*
X166243608Y-96778846D01*
X166241608Y-96778846D01*
X166240618Y-96777310D01*
X166238959Y-96760459D01*
X166229270Y-96728523D01*
X166213540Y-96699092D01*
X166192370Y-96673297D01*
X166166575Y-96652127D01*
X166137144Y-96636397D01*
X166112478Y-96628914D01*
X166111111Y-96627454D01*
X166111692Y-96625540D01*
X166113059Y-96625000D01*
X166221000Y-96625000D01*
X166221000Y-96517056D01*
X166222000Y-96515324D01*
X166224000Y-96515324D01*
X166224914Y-96516475D01*
G37*
G36*
X132121278Y-96256000D02*
G01*
X132121278Y-96258000D01*
X132119742Y-96258990D01*
X132095555Y-96261372D01*
X132072480Y-96268372D01*
X132051216Y-96279737D01*
X132032579Y-96295032D01*
X132017284Y-96313669D01*
X132005919Y-96334933D01*
X131998919Y-96358008D01*
X131996556Y-96381999D01*
X131998919Y-96405990D01*
X132005919Y-96429065D01*
X132017284Y-96450329D01*
X132032579Y-96468966D01*
X132051216Y-96484261D01*
X132072654Y-96495719D01*
X132073710Y-96497418D01*
X132072767Y-96499181D01*
X132071130Y-96499397D01*
X132032100Y-96487557D01*
X131924906Y-96477000D01*
X131189001Y-96477000D01*
X131187269Y-96476000D01*
X131187269Y-96474000D01*
X131188805Y-96473010D01*
X131212992Y-96470628D01*
X131236067Y-96463628D01*
X131257331Y-96452263D01*
X131275968Y-96436968D01*
X131291263Y-96418331D01*
X131302628Y-96397067D01*
X131309628Y-96373992D01*
X131312000Y-96349907D01*
X131312000Y-96257000D01*
X131313000Y-96255268D01*
X131314000Y-96255000D01*
X132119546Y-96255000D01*
X132121278Y-96256000D01*
G37*
G36*
X166224914Y-96016475D02*
G01*
X166232398Y-96041144D01*
X166248128Y-96070575D01*
X166269298Y-96096370D01*
X166295093Y-96117540D01*
X166324524Y-96133270D01*
X166356460Y-96142959D01*
X166389761Y-96146238D01*
X167056735Y-96146238D01*
X167090036Y-96142959D01*
X167121972Y-96133270D01*
X167148856Y-96118901D01*
X167150855Y-96118967D01*
X167151798Y-96120730D01*
X167151068Y-96122211D01*
X167148621Y-96124219D01*
X167148463Y-96124336D01*
X167138595Y-96130930D01*
X167121548Y-96147977D01*
X167108154Y-96168025D01*
X167098928Y-96190299D01*
X167094224Y-96213949D01*
X167094224Y-96238055D01*
X167098929Y-96261705D01*
X167108156Y-96283979D01*
X167121551Y-96304026D01*
X167138598Y-96321073D01*
X167148466Y-96327666D01*
X167148624Y-96327783D01*
X167151070Y-96329790D01*
X167151774Y-96331662D01*
X167150506Y-96333208D01*
X167148858Y-96333100D01*
X167121972Y-96318730D01*
X167090036Y-96309041D01*
X167056735Y-96305762D01*
X166389761Y-96305762D01*
X166356460Y-96309041D01*
X166324524Y-96318730D01*
X166295093Y-96334460D01*
X166269298Y-96355630D01*
X166248128Y-96381425D01*
X166232398Y-96410856D01*
X166224914Y-96435525D01*
X166223454Y-96436892D01*
X166221540Y-96436311D01*
X166221000Y-96434944D01*
X166221000Y-96017056D01*
X166222000Y-96015324D01*
X166224000Y-96015324D01*
X166224914Y-96016475D01*
G37*
G36*
X160422460Y-96015692D02*
G01*
X160423000Y-96017059D01*
X160423000Y-96434941D01*
X160422000Y-96436673D01*
X160420000Y-96436673D01*
X160419086Y-96435522D01*
X160411603Y-96410856D01*
X160395873Y-96381425D01*
X160374703Y-96355630D01*
X160348908Y-96334460D01*
X160319477Y-96318730D01*
X160287541Y-96309041D01*
X160254240Y-96305762D01*
X159587266Y-96305762D01*
X159553965Y-96309041D01*
X159522029Y-96318730D01*
X159495145Y-96333099D01*
X159493146Y-96333033D01*
X159492203Y-96331270D01*
X159492933Y-96329789D01*
X159495380Y-96327781D01*
X159495538Y-96327664D01*
X159505406Y-96321070D01*
X159522453Y-96304023D01*
X159535847Y-96283975D01*
X159545073Y-96261701D01*
X159549777Y-96238051D01*
X159549777Y-96213945D01*
X159545072Y-96190295D01*
X159535845Y-96168021D01*
X159522450Y-96147974D01*
X159505403Y-96130927D01*
X159495535Y-96124334D01*
X159495377Y-96124217D01*
X159492931Y-96122210D01*
X159492227Y-96120338D01*
X159493495Y-96118792D01*
X159495143Y-96118900D01*
X159522029Y-96133270D01*
X159553965Y-96142959D01*
X159587266Y-96146238D01*
X160254240Y-96146238D01*
X160287541Y-96142959D01*
X160319477Y-96133270D01*
X160348908Y-96117540D01*
X160374703Y-96096370D01*
X160395873Y-96070575D01*
X160411603Y-96041144D01*
X160419086Y-96016478D01*
X160420546Y-96015111D01*
X160422460Y-96015692D01*
G37*
G36*
X131315165Y-95204539D02*
G01*
X131316000Y-95206165D01*
X131316000Y-95455000D01*
X132566000Y-95455000D01*
X132567732Y-95456000D01*
X132568000Y-95457000D01*
X132568000Y-95555000D01*
X132567000Y-95556732D01*
X132566000Y-95557000D01*
X131316000Y-95557000D01*
X131316000Y-95985835D01*
X131315000Y-95987567D01*
X131313000Y-95987567D01*
X131312010Y-95986031D01*
X131309628Y-95961844D01*
X131302628Y-95938769D01*
X131291263Y-95917505D01*
X131275968Y-95898868D01*
X131257331Y-95883573D01*
X131236067Y-95872208D01*
X131212992Y-95865208D01*
X131189001Y-95862845D01*
X131165010Y-95865208D01*
X131141935Y-95872208D01*
X131120581Y-95883622D01*
X131116828Y-95886130D01*
X131114832Y-95886261D01*
X131113721Y-95884598D01*
X131114303Y-95883053D01*
X131164098Y-95833258D01*
X131204829Y-95772298D01*
X131232886Y-95704565D01*
X131247189Y-95632655D01*
X131247189Y-95559345D01*
X131232886Y-95487435D01*
X131204829Y-95419702D01*
X131164098Y-95358742D01*
X131114303Y-95308947D01*
X131113785Y-95307015D01*
X131115199Y-95305601D01*
X131116828Y-95305870D01*
X131120581Y-95308378D01*
X131141934Y-95319791D01*
X131165008Y-95326792D01*
X131189000Y-95329155D01*
X131212992Y-95326791D01*
X131236065Y-95319794D01*
X131257330Y-95308428D01*
X131275967Y-95293133D01*
X131291262Y-95274496D01*
X131302627Y-95253232D01*
X131309628Y-95230158D01*
X131312010Y-95205969D01*
X131313175Y-95204343D01*
X131315165Y-95204539D01*
G37*
G36*
X166224914Y-95516475D02*
G01*
X166232398Y-95541144D01*
X166248128Y-95570575D01*
X166269298Y-95596370D01*
X166295093Y-95617540D01*
X166324524Y-95633270D01*
X166356460Y-95642959D01*
X166389761Y-95646238D01*
X167056735Y-95646238D01*
X167090036Y-95642959D01*
X167121972Y-95633270D01*
X167148856Y-95618901D01*
X167150855Y-95618967D01*
X167151798Y-95620730D01*
X167151068Y-95622211D01*
X167148621Y-95624219D01*
X167148463Y-95624336D01*
X167138595Y-95630930D01*
X167121548Y-95647977D01*
X167108154Y-95668025D01*
X167098928Y-95690299D01*
X167094224Y-95713949D01*
X167094224Y-95738055D01*
X167098929Y-95761705D01*
X167108156Y-95783979D01*
X167121551Y-95804026D01*
X167138598Y-95821073D01*
X167148466Y-95827666D01*
X167148624Y-95827783D01*
X167151070Y-95829790D01*
X167151774Y-95831662D01*
X167150506Y-95833208D01*
X167148858Y-95833100D01*
X167121972Y-95818730D01*
X167090036Y-95809041D01*
X167056735Y-95805762D01*
X166389761Y-95805762D01*
X166356460Y-95809041D01*
X166324524Y-95818730D01*
X166295093Y-95834460D01*
X166269298Y-95855630D01*
X166248128Y-95881425D01*
X166232398Y-95910856D01*
X166224914Y-95935525D01*
X166223454Y-95936892D01*
X166221540Y-95936311D01*
X166221000Y-95934944D01*
X166221000Y-95517056D01*
X166222000Y-95515324D01*
X166224000Y-95515324D01*
X166224914Y-95516475D01*
G37*
G36*
X160422460Y-95515692D02*
G01*
X160423000Y-95517059D01*
X160423000Y-95934941D01*
X160422000Y-95936673D01*
X160420000Y-95936673D01*
X160419086Y-95935522D01*
X160411603Y-95910856D01*
X160395873Y-95881425D01*
X160374703Y-95855630D01*
X160348908Y-95834460D01*
X160319477Y-95818730D01*
X160287541Y-95809041D01*
X160254240Y-95805762D01*
X159587266Y-95805762D01*
X159553965Y-95809041D01*
X159522029Y-95818730D01*
X159495145Y-95833099D01*
X159493146Y-95833033D01*
X159492203Y-95831270D01*
X159492933Y-95829789D01*
X159495380Y-95827781D01*
X159495538Y-95827664D01*
X159505406Y-95821070D01*
X159522453Y-95804023D01*
X159535847Y-95783975D01*
X159545073Y-95761701D01*
X159549777Y-95738051D01*
X159549777Y-95713945D01*
X159545072Y-95690295D01*
X159535845Y-95668021D01*
X159522450Y-95647974D01*
X159505403Y-95630927D01*
X159495535Y-95624334D01*
X159495377Y-95624217D01*
X159492931Y-95622210D01*
X159492227Y-95620338D01*
X159493495Y-95618792D01*
X159495143Y-95618900D01*
X159522029Y-95633270D01*
X159553965Y-95642959D01*
X159587266Y-95646238D01*
X160254240Y-95646238D01*
X160287541Y-95642959D01*
X160319477Y-95633270D01*
X160348908Y-95617540D01*
X160374703Y-95596370D01*
X160395873Y-95570575D01*
X160411603Y-95541144D01*
X160419086Y-95516478D01*
X160420546Y-95515111D01*
X160422460Y-95515692D01*
G37*
G36*
X166224914Y-95016475D02*
G01*
X166232398Y-95041144D01*
X166248128Y-95070575D01*
X166269298Y-95096370D01*
X166295093Y-95117540D01*
X166324524Y-95133270D01*
X166356460Y-95142959D01*
X166389761Y-95146238D01*
X167056735Y-95146238D01*
X167090036Y-95142959D01*
X167121972Y-95133270D01*
X167148856Y-95118901D01*
X167150855Y-95118967D01*
X167151798Y-95120730D01*
X167151068Y-95122211D01*
X167148621Y-95124219D01*
X167148463Y-95124336D01*
X167138595Y-95130930D01*
X167121548Y-95147977D01*
X167108154Y-95168025D01*
X167098928Y-95190299D01*
X167094224Y-95213949D01*
X167094224Y-95238055D01*
X167098929Y-95261705D01*
X167108156Y-95283979D01*
X167121551Y-95304026D01*
X167138598Y-95321073D01*
X167148466Y-95327666D01*
X167148624Y-95327783D01*
X167151070Y-95329790D01*
X167151774Y-95331662D01*
X167150506Y-95333208D01*
X167148858Y-95333100D01*
X167121972Y-95318730D01*
X167090036Y-95309041D01*
X167056735Y-95305762D01*
X166389761Y-95305762D01*
X166356460Y-95309041D01*
X166324524Y-95318730D01*
X166295093Y-95334460D01*
X166269298Y-95355630D01*
X166248128Y-95381425D01*
X166232398Y-95410856D01*
X166224914Y-95435525D01*
X166223454Y-95436892D01*
X166221540Y-95436311D01*
X166221000Y-95434944D01*
X166221000Y-95017056D01*
X166222000Y-95015324D01*
X166224000Y-95015324D01*
X166224914Y-95016475D01*
G37*
G36*
X160422460Y-95015692D02*
G01*
X160423000Y-95017059D01*
X160423000Y-95434941D01*
X160422000Y-95436673D01*
X160420000Y-95436673D01*
X160419086Y-95435522D01*
X160411603Y-95410856D01*
X160395873Y-95381425D01*
X160374703Y-95355630D01*
X160348908Y-95334460D01*
X160319477Y-95318730D01*
X160287541Y-95309041D01*
X160254240Y-95305762D01*
X159587266Y-95305762D01*
X159553965Y-95309041D01*
X159522029Y-95318730D01*
X159495145Y-95333099D01*
X159493146Y-95333033D01*
X159492203Y-95331270D01*
X159492933Y-95329789D01*
X159495380Y-95327781D01*
X159495538Y-95327664D01*
X159505406Y-95321070D01*
X159522453Y-95304023D01*
X159535847Y-95283975D01*
X159545073Y-95261701D01*
X159549777Y-95238051D01*
X159549777Y-95213945D01*
X159545072Y-95190295D01*
X159535845Y-95168021D01*
X159522450Y-95147974D01*
X159505403Y-95130927D01*
X159495535Y-95124334D01*
X159495377Y-95124217D01*
X159492931Y-95122210D01*
X159492227Y-95120338D01*
X159493495Y-95118792D01*
X159495143Y-95118900D01*
X159522029Y-95133270D01*
X159553965Y-95142959D01*
X159587266Y-95146238D01*
X160254240Y-95146238D01*
X160287541Y-95142959D01*
X160319477Y-95133270D01*
X160348908Y-95117540D01*
X160374703Y-95096370D01*
X160395873Y-95070575D01*
X160411603Y-95041144D01*
X160419086Y-95016478D01*
X160420546Y-95015111D01*
X160422460Y-95015692D01*
G37*
G36*
X166224914Y-94516475D02*
G01*
X166232398Y-94541144D01*
X166248128Y-94570575D01*
X166269298Y-94596370D01*
X166295093Y-94617540D01*
X166324524Y-94633270D01*
X166356460Y-94642959D01*
X166389761Y-94646238D01*
X167056735Y-94646238D01*
X167090036Y-94642959D01*
X167121972Y-94633270D01*
X167148856Y-94618901D01*
X167150855Y-94618967D01*
X167151798Y-94620730D01*
X167151068Y-94622211D01*
X167148621Y-94624219D01*
X167148463Y-94624336D01*
X167138595Y-94630930D01*
X167121548Y-94647977D01*
X167108154Y-94668025D01*
X167098928Y-94690299D01*
X167094224Y-94713949D01*
X167094224Y-94738055D01*
X167098929Y-94761705D01*
X167108156Y-94783979D01*
X167121551Y-94804026D01*
X167138598Y-94821073D01*
X167148466Y-94827666D01*
X167148624Y-94827783D01*
X167151070Y-94829790D01*
X167151774Y-94831662D01*
X167150506Y-94833208D01*
X167148858Y-94833100D01*
X167121972Y-94818730D01*
X167090036Y-94809041D01*
X167056735Y-94805762D01*
X166389761Y-94805762D01*
X166356460Y-94809041D01*
X166324524Y-94818730D01*
X166295093Y-94834460D01*
X166269298Y-94855630D01*
X166248128Y-94881425D01*
X166232398Y-94910856D01*
X166224914Y-94935525D01*
X166223454Y-94936892D01*
X166221540Y-94936311D01*
X166221000Y-94934944D01*
X166221000Y-94517056D01*
X166222000Y-94515324D01*
X166224000Y-94515324D01*
X166224914Y-94516475D01*
G37*
G36*
X160422460Y-94515692D02*
G01*
X160423000Y-94517059D01*
X160423000Y-94934941D01*
X160422000Y-94936673D01*
X160420000Y-94936673D01*
X160419086Y-94935522D01*
X160411603Y-94910856D01*
X160395873Y-94881425D01*
X160374703Y-94855630D01*
X160348908Y-94834460D01*
X160319477Y-94818730D01*
X160287541Y-94809041D01*
X160254240Y-94805762D01*
X159587266Y-94805762D01*
X159553965Y-94809041D01*
X159522029Y-94818730D01*
X159495145Y-94833099D01*
X159493146Y-94833033D01*
X159492203Y-94831270D01*
X159492933Y-94829789D01*
X159495380Y-94827781D01*
X159495538Y-94827664D01*
X159505406Y-94821070D01*
X159522453Y-94804023D01*
X159535847Y-94783975D01*
X159545073Y-94761701D01*
X159549777Y-94738051D01*
X159549777Y-94713945D01*
X159545072Y-94690295D01*
X159535845Y-94668021D01*
X159522450Y-94647974D01*
X159505403Y-94630927D01*
X159495535Y-94624334D01*
X159495377Y-94624217D01*
X159492931Y-94622210D01*
X159492227Y-94620338D01*
X159493495Y-94618792D01*
X159495143Y-94618900D01*
X159522029Y-94633270D01*
X159553965Y-94642959D01*
X159587266Y-94646238D01*
X160254240Y-94646238D01*
X160287541Y-94642959D01*
X160319477Y-94633270D01*
X160348908Y-94617540D01*
X160374703Y-94596370D01*
X160395873Y-94570575D01*
X160411603Y-94541144D01*
X160419086Y-94516478D01*
X160420546Y-94515111D01*
X160422460Y-94515692D01*
G37*
G36*
X132567732Y-94656000D02*
G01*
X132568000Y-94657000D01*
X132568000Y-94755000D01*
X132567000Y-94756732D01*
X132566000Y-94757000D01*
X131314000Y-94757000D01*
X131312268Y-94756000D01*
X131312000Y-94755000D01*
X131312000Y-94657000D01*
X131313000Y-94655268D01*
X131314000Y-94655000D01*
X132566000Y-94655000D01*
X132567732Y-94656000D01*
G37*
G36*
X166224914Y-94016475D02*
G01*
X166232398Y-94041144D01*
X166248128Y-94070575D01*
X166269298Y-94096370D01*
X166295093Y-94117540D01*
X166324524Y-94133270D01*
X166356460Y-94142959D01*
X166389761Y-94146238D01*
X167056735Y-94146238D01*
X167090036Y-94142959D01*
X167121972Y-94133270D01*
X167148856Y-94118901D01*
X167150855Y-94118967D01*
X167151798Y-94120730D01*
X167151068Y-94122211D01*
X167148621Y-94124219D01*
X167148463Y-94124336D01*
X167138595Y-94130930D01*
X167121548Y-94147977D01*
X167108154Y-94168025D01*
X167098928Y-94190299D01*
X167094224Y-94213949D01*
X167094224Y-94238055D01*
X167098929Y-94261705D01*
X167108156Y-94283979D01*
X167121551Y-94304026D01*
X167138598Y-94321073D01*
X167148466Y-94327666D01*
X167148624Y-94327783D01*
X167151070Y-94329790D01*
X167151774Y-94331662D01*
X167150506Y-94333208D01*
X167148858Y-94333100D01*
X167121972Y-94318730D01*
X167090036Y-94309041D01*
X167056735Y-94305762D01*
X166389761Y-94305762D01*
X166356460Y-94309041D01*
X166324524Y-94318730D01*
X166295093Y-94334460D01*
X166269298Y-94355630D01*
X166248128Y-94381425D01*
X166232398Y-94410856D01*
X166224914Y-94435525D01*
X166223454Y-94436892D01*
X166221540Y-94436311D01*
X166221000Y-94434944D01*
X166221000Y-94017056D01*
X166222000Y-94015324D01*
X166224000Y-94015324D01*
X166224914Y-94016475D01*
G37*
G36*
X160422460Y-94015692D02*
G01*
X160423000Y-94017059D01*
X160423000Y-94434941D01*
X160422000Y-94436673D01*
X160420000Y-94436673D01*
X160419086Y-94435522D01*
X160411603Y-94410856D01*
X160395873Y-94381425D01*
X160374703Y-94355630D01*
X160348908Y-94334460D01*
X160319477Y-94318730D01*
X160287541Y-94309041D01*
X160254240Y-94305762D01*
X159587266Y-94305762D01*
X159553965Y-94309041D01*
X159522029Y-94318730D01*
X159495145Y-94333099D01*
X159493146Y-94333033D01*
X159492203Y-94331270D01*
X159492933Y-94329789D01*
X159495380Y-94327781D01*
X159495538Y-94327664D01*
X159505406Y-94321070D01*
X159522453Y-94304023D01*
X159535847Y-94283975D01*
X159545073Y-94261701D01*
X159549777Y-94238051D01*
X159549777Y-94213945D01*
X159545072Y-94190295D01*
X159535845Y-94168021D01*
X159522450Y-94147974D01*
X159505403Y-94130927D01*
X159495535Y-94124334D01*
X159495377Y-94124217D01*
X159492931Y-94122210D01*
X159492227Y-94120338D01*
X159493495Y-94118792D01*
X159495143Y-94118900D01*
X159522029Y-94133270D01*
X159553965Y-94142959D01*
X159587266Y-94146238D01*
X160254240Y-94146238D01*
X160287541Y-94142959D01*
X160319477Y-94133270D01*
X160348908Y-94117540D01*
X160374703Y-94096370D01*
X160395873Y-94070575D01*
X160411603Y-94041144D01*
X160419086Y-94016478D01*
X160420546Y-94015111D01*
X160422460Y-94015692D01*
G37*
G36*
X132567732Y-94156000D02*
G01*
X132568000Y-94157000D01*
X132568000Y-94255000D01*
X132567000Y-94256732D01*
X132566000Y-94257000D01*
X131314000Y-94257000D01*
X131312268Y-94256000D01*
X131312000Y-94255000D01*
X131312000Y-94157000D01*
X131313000Y-94155268D01*
X131314000Y-94155000D01*
X132566000Y-94155000D01*
X132567732Y-94156000D01*
G37*
G36*
X137404732Y-93974000D02*
G01*
X137405000Y-93975000D01*
X137405000Y-94173000D01*
X137404000Y-94174732D01*
X137403000Y-94175000D01*
X136241000Y-94175000D01*
X136239268Y-94174000D01*
X136239000Y-94173000D01*
X136239000Y-93975000D01*
X136240000Y-93973268D01*
X136241000Y-93973000D01*
X137403000Y-93973000D01*
X137404732Y-93974000D01*
G37*
G36*
X139604732Y-93974000D02*
G01*
X139605000Y-93975000D01*
X139605000Y-94173000D01*
X139604000Y-94174732D01*
X139603000Y-94175000D01*
X138441000Y-94175000D01*
X138439268Y-94174000D01*
X138439000Y-94173000D01*
X138439000Y-93975000D01*
X138440000Y-93973268D01*
X138441000Y-93973000D01*
X139603000Y-93973000D01*
X139604732Y-93974000D01*
G37*
G36*
X166224914Y-93516475D02*
G01*
X166232398Y-93541144D01*
X166248128Y-93570575D01*
X166269298Y-93596370D01*
X166295093Y-93617540D01*
X166324524Y-93633270D01*
X166356460Y-93642959D01*
X166389761Y-93646238D01*
X167056735Y-93646238D01*
X167090036Y-93642959D01*
X167121972Y-93633270D01*
X167148856Y-93618901D01*
X167150855Y-93618967D01*
X167151798Y-93620730D01*
X167151068Y-93622211D01*
X167148621Y-93624219D01*
X167148463Y-93624336D01*
X167138595Y-93630930D01*
X167121548Y-93647977D01*
X167108154Y-93668025D01*
X167098928Y-93690299D01*
X167094224Y-93713949D01*
X167094224Y-93738055D01*
X167098929Y-93761705D01*
X167108156Y-93783979D01*
X167121551Y-93804026D01*
X167138598Y-93821073D01*
X167148466Y-93827666D01*
X167148624Y-93827783D01*
X167151070Y-93829790D01*
X167151774Y-93831662D01*
X167150506Y-93833208D01*
X167148858Y-93833100D01*
X167121972Y-93818730D01*
X167090036Y-93809041D01*
X167056735Y-93805762D01*
X166389761Y-93805762D01*
X166356460Y-93809041D01*
X166324524Y-93818730D01*
X166295093Y-93834460D01*
X166269298Y-93855630D01*
X166248128Y-93881425D01*
X166232398Y-93910856D01*
X166224914Y-93935525D01*
X166223454Y-93936892D01*
X166221540Y-93936311D01*
X166221000Y-93934944D01*
X166221000Y-93517056D01*
X166222000Y-93515324D01*
X166224000Y-93515324D01*
X166224914Y-93516475D01*
G37*
G36*
X160422460Y-93515692D02*
G01*
X160423000Y-93517059D01*
X160423000Y-93934941D01*
X160422000Y-93936673D01*
X160420000Y-93936673D01*
X160419086Y-93935522D01*
X160411603Y-93910856D01*
X160395873Y-93881425D01*
X160374703Y-93855630D01*
X160348908Y-93834460D01*
X160319477Y-93818730D01*
X160287541Y-93809041D01*
X160254240Y-93805762D01*
X159587266Y-93805762D01*
X159553965Y-93809041D01*
X159522029Y-93818730D01*
X159495145Y-93833099D01*
X159493146Y-93833033D01*
X159492203Y-93831270D01*
X159492933Y-93829789D01*
X159495380Y-93827781D01*
X159495538Y-93827664D01*
X159505406Y-93821070D01*
X159522453Y-93804023D01*
X159535847Y-93783975D01*
X159545073Y-93761701D01*
X159549777Y-93738051D01*
X159549777Y-93713945D01*
X159545072Y-93690295D01*
X159535845Y-93668021D01*
X159522450Y-93647974D01*
X159505403Y-93630927D01*
X159495535Y-93624334D01*
X159495377Y-93624217D01*
X159492931Y-93622210D01*
X159492227Y-93620338D01*
X159493495Y-93618792D01*
X159495143Y-93618900D01*
X159522029Y-93633270D01*
X159553965Y-93642959D01*
X159587266Y-93646238D01*
X160254240Y-93646238D01*
X160287541Y-93642959D01*
X160319477Y-93633270D01*
X160348908Y-93617540D01*
X160374703Y-93596370D01*
X160395873Y-93570575D01*
X160411603Y-93541144D01*
X160419086Y-93516478D01*
X160420546Y-93515111D01*
X160422460Y-93515692D01*
G37*
G36*
X132567732Y-93656000D02*
G01*
X132568000Y-93657000D01*
X132568000Y-93755000D01*
X132567000Y-93756732D01*
X132566000Y-93757000D01*
X131314000Y-93757000D01*
X131312268Y-93756000D01*
X131312000Y-93755000D01*
X131312000Y-93657000D01*
X131313000Y-93655268D01*
X131314000Y-93655000D01*
X132566000Y-93655000D01*
X132567732Y-93656000D01*
G37*
G36*
X166224914Y-93016475D02*
G01*
X166232398Y-93041144D01*
X166248128Y-93070575D01*
X166269298Y-93096370D01*
X166295093Y-93117540D01*
X166324524Y-93133270D01*
X166356460Y-93142959D01*
X166389761Y-93146238D01*
X167056735Y-93146238D01*
X167090036Y-93142959D01*
X167121972Y-93133270D01*
X167148856Y-93118901D01*
X167150855Y-93118967D01*
X167151798Y-93120730D01*
X167151068Y-93122211D01*
X167148621Y-93124219D01*
X167148463Y-93124336D01*
X167138595Y-93130930D01*
X167121548Y-93147977D01*
X167108154Y-93168025D01*
X167098928Y-93190299D01*
X167094224Y-93213949D01*
X167094224Y-93238055D01*
X167098929Y-93261705D01*
X167108156Y-93283979D01*
X167121551Y-93304026D01*
X167138598Y-93321073D01*
X167148466Y-93327666D01*
X167148624Y-93327783D01*
X167151070Y-93329790D01*
X167151774Y-93331662D01*
X167150506Y-93333208D01*
X167148858Y-93333100D01*
X167121972Y-93318730D01*
X167090036Y-93309041D01*
X167056735Y-93305762D01*
X166389761Y-93305762D01*
X166356460Y-93309041D01*
X166324524Y-93318730D01*
X166295093Y-93334460D01*
X166269298Y-93355630D01*
X166248128Y-93381425D01*
X166232398Y-93410856D01*
X166224914Y-93435525D01*
X166223454Y-93436892D01*
X166221540Y-93436311D01*
X166221000Y-93434944D01*
X166221000Y-93017056D01*
X166222000Y-93015324D01*
X166224000Y-93015324D01*
X166224914Y-93016475D01*
G37*
G36*
X160422460Y-93015692D02*
G01*
X160423000Y-93017059D01*
X160423000Y-93434941D01*
X160422000Y-93436673D01*
X160420000Y-93436673D01*
X160419086Y-93435522D01*
X160411603Y-93410856D01*
X160395873Y-93381425D01*
X160374703Y-93355630D01*
X160348908Y-93334460D01*
X160319477Y-93318730D01*
X160287541Y-93309041D01*
X160254240Y-93305762D01*
X159587266Y-93305762D01*
X159553965Y-93309041D01*
X159522029Y-93318730D01*
X159495145Y-93333099D01*
X159493146Y-93333033D01*
X159492203Y-93331270D01*
X159492933Y-93329789D01*
X159495380Y-93327781D01*
X159495538Y-93327664D01*
X159505406Y-93321070D01*
X159522453Y-93304023D01*
X159535847Y-93283975D01*
X159545073Y-93261701D01*
X159549777Y-93238051D01*
X159549777Y-93213945D01*
X159545072Y-93190295D01*
X159535845Y-93168021D01*
X159522450Y-93147974D01*
X159505403Y-93130927D01*
X159495535Y-93124334D01*
X159495377Y-93124217D01*
X159492931Y-93122210D01*
X159492227Y-93120338D01*
X159493495Y-93118792D01*
X159495143Y-93118900D01*
X159522029Y-93133270D01*
X159553965Y-93142959D01*
X159587266Y-93146238D01*
X160254240Y-93146238D01*
X160287541Y-93142959D01*
X160319477Y-93133270D01*
X160348908Y-93117540D01*
X160374703Y-93096370D01*
X160395873Y-93070575D01*
X160411603Y-93041144D01*
X160419086Y-93016478D01*
X160420546Y-93015111D01*
X160422460Y-93015692D01*
G37*
G36*
X132567732Y-93156000D02*
G01*
X132568000Y-93157000D01*
X132568000Y-93255000D01*
X132567000Y-93256732D01*
X132566000Y-93257000D01*
X131314000Y-93257000D01*
X131312268Y-93256000D01*
X131312000Y-93255000D01*
X131312000Y-93157000D01*
X131313000Y-93155268D01*
X131314000Y-93155000D01*
X132566000Y-93155000D01*
X132567732Y-93156000D01*
G37*
G36*
X137404732Y-93024000D02*
G01*
X137405000Y-93025000D01*
X137405000Y-93223000D01*
X137404000Y-93224732D01*
X137403000Y-93225000D01*
X136241000Y-93225000D01*
X136239268Y-93224000D01*
X136239000Y-93223000D01*
X136239000Y-93025000D01*
X136240000Y-93023268D01*
X136241000Y-93023000D01*
X137403000Y-93023000D01*
X137404732Y-93024000D01*
G37*
G36*
X139604732Y-93024000D02*
G01*
X139605000Y-93025000D01*
X139605000Y-93223000D01*
X139604000Y-93224732D01*
X139603000Y-93225000D01*
X138441000Y-93225000D01*
X138439268Y-93224000D01*
X138439000Y-93223000D01*
X138439000Y-93025000D01*
X138440000Y-93023268D01*
X138441000Y-93023000D01*
X139603000Y-93023000D01*
X139604732Y-93024000D01*
G37*
G36*
X169212732Y-92273000D02*
G01*
X169213000Y-92274000D01*
X169213000Y-92674000D01*
X169613000Y-92674000D01*
X169614732Y-92675000D01*
X169615000Y-92676000D01*
X169615000Y-92774000D01*
X169614000Y-92775732D01*
X169613000Y-92776000D01*
X169213000Y-92776000D01*
X169213000Y-93176000D01*
X169212000Y-93177732D01*
X169211000Y-93178000D01*
X169026000Y-93178000D01*
X169024268Y-93177000D01*
X169024000Y-93176000D01*
X169024000Y-92776000D01*
X168626000Y-92776000D01*
X168626000Y-93176000D01*
X168625000Y-93177732D01*
X168624000Y-93178000D01*
X168439000Y-93178000D01*
X168437268Y-93177000D01*
X168437000Y-93176000D01*
X168437000Y-92776000D01*
X168037000Y-92776000D01*
X168035268Y-92775000D01*
X168035000Y-92774000D01*
X168035000Y-92676000D01*
X168036000Y-92674268D01*
X168037000Y-92674000D01*
X168437000Y-92674000D01*
X168437000Y-92276000D01*
X168626000Y-92276000D01*
X168626000Y-92674000D01*
X169024000Y-92674000D01*
X169024000Y-92276000D01*
X168626000Y-92276000D01*
X168437000Y-92276000D01*
X168437000Y-92274000D01*
X168438000Y-92272268D01*
X168439000Y-92272000D01*
X169211000Y-92272000D01*
X169212732Y-92273000D01*
G37*
G36*
X166224914Y-92516475D02*
G01*
X166232398Y-92541144D01*
X166248128Y-92570575D01*
X166269298Y-92596370D01*
X166295093Y-92617540D01*
X166324524Y-92633270D01*
X166356460Y-92642959D01*
X166389761Y-92646238D01*
X167056735Y-92646238D01*
X167090036Y-92642959D01*
X167121972Y-92633270D01*
X167148856Y-92618901D01*
X167150855Y-92618967D01*
X167151798Y-92620730D01*
X167151068Y-92622211D01*
X167148621Y-92624219D01*
X167148463Y-92624336D01*
X167138595Y-92630930D01*
X167121548Y-92647977D01*
X167108154Y-92668025D01*
X167098928Y-92690299D01*
X167094224Y-92713949D01*
X167094224Y-92738055D01*
X167098929Y-92761705D01*
X167108156Y-92783979D01*
X167121551Y-92804026D01*
X167138598Y-92821073D01*
X167148466Y-92827666D01*
X167148624Y-92827783D01*
X167151070Y-92829790D01*
X167151774Y-92831662D01*
X167150506Y-92833208D01*
X167148858Y-92833100D01*
X167121972Y-92818730D01*
X167090036Y-92809041D01*
X167056735Y-92805762D01*
X166389761Y-92805762D01*
X166356460Y-92809041D01*
X166324524Y-92818730D01*
X166295093Y-92834460D01*
X166269298Y-92855630D01*
X166248128Y-92881425D01*
X166232398Y-92910856D01*
X166224914Y-92935525D01*
X166223454Y-92936892D01*
X166221540Y-92936311D01*
X166221000Y-92934944D01*
X166221000Y-92517056D01*
X166222000Y-92515324D01*
X166224000Y-92515324D01*
X166224914Y-92516475D01*
G37*
G36*
X160422460Y-92515692D02*
G01*
X160423000Y-92517059D01*
X160423000Y-92934941D01*
X160422000Y-92936673D01*
X160420000Y-92936673D01*
X160419086Y-92935522D01*
X160411603Y-92910856D01*
X160395873Y-92881425D01*
X160374703Y-92855630D01*
X160348908Y-92834460D01*
X160319477Y-92818730D01*
X160287541Y-92809041D01*
X160254240Y-92805762D01*
X159587266Y-92805762D01*
X159553965Y-92809041D01*
X159522029Y-92818730D01*
X159495145Y-92833099D01*
X159493146Y-92833033D01*
X159492203Y-92831270D01*
X159492933Y-92829789D01*
X159495380Y-92827781D01*
X159495538Y-92827664D01*
X159505406Y-92821070D01*
X159522453Y-92804023D01*
X159535847Y-92783975D01*
X159545073Y-92761701D01*
X159549777Y-92738051D01*
X159549777Y-92713945D01*
X159545072Y-92690295D01*
X159535845Y-92668021D01*
X159522450Y-92647974D01*
X159505403Y-92630927D01*
X159495535Y-92624334D01*
X159495377Y-92624217D01*
X159492931Y-92622210D01*
X159492227Y-92620338D01*
X159493495Y-92618792D01*
X159495143Y-92618900D01*
X159522029Y-92633270D01*
X159553965Y-92642959D01*
X159587266Y-92646238D01*
X160254240Y-92646238D01*
X160287541Y-92642959D01*
X160319477Y-92633270D01*
X160348908Y-92617540D01*
X160374703Y-92596370D01*
X160395873Y-92570575D01*
X160411603Y-92541144D01*
X160419086Y-92516478D01*
X160420546Y-92515111D01*
X160422460Y-92515692D01*
G37*
G36*
X132567732Y-92656000D02*
G01*
X132568000Y-92657000D01*
X132568000Y-92755000D01*
X132567000Y-92756732D01*
X132566000Y-92757000D01*
X131314000Y-92757000D01*
X131312268Y-92756000D01*
X131312000Y-92755000D01*
X131312000Y-92657000D01*
X131313000Y-92655268D01*
X131314000Y-92655000D01*
X132566000Y-92655000D01*
X132567732Y-92656000D01*
G37*
G36*
X166224914Y-92016475D02*
G01*
X166232398Y-92041144D01*
X166248128Y-92070575D01*
X166269298Y-92096370D01*
X166295093Y-92117540D01*
X166324524Y-92133270D01*
X166356460Y-92142959D01*
X166389761Y-92146238D01*
X167056735Y-92146238D01*
X167090036Y-92142959D01*
X167121972Y-92133270D01*
X167148856Y-92118901D01*
X167150855Y-92118967D01*
X167151798Y-92120730D01*
X167151068Y-92122211D01*
X167148621Y-92124219D01*
X167148463Y-92124336D01*
X167138595Y-92130930D01*
X167121548Y-92147977D01*
X167108154Y-92168025D01*
X167098928Y-92190299D01*
X167094224Y-92213949D01*
X167094224Y-92238055D01*
X167098929Y-92261705D01*
X167108156Y-92283979D01*
X167121551Y-92304026D01*
X167138598Y-92321073D01*
X167148466Y-92327666D01*
X167148624Y-92327783D01*
X167151070Y-92329790D01*
X167151774Y-92331662D01*
X167150506Y-92333208D01*
X167148858Y-92333100D01*
X167121972Y-92318730D01*
X167090036Y-92309041D01*
X167056735Y-92305762D01*
X166389761Y-92305762D01*
X166356460Y-92309041D01*
X166324524Y-92318730D01*
X166295093Y-92334460D01*
X166269298Y-92355630D01*
X166248128Y-92381425D01*
X166232398Y-92410856D01*
X166224914Y-92435525D01*
X166223454Y-92436892D01*
X166221540Y-92436311D01*
X166221000Y-92434944D01*
X166221000Y-92017056D01*
X166222000Y-92015324D01*
X166224000Y-92015324D01*
X166224914Y-92016475D01*
G37*
G36*
X160422460Y-92015692D02*
G01*
X160423000Y-92017059D01*
X160423000Y-92434941D01*
X160422000Y-92436673D01*
X160420000Y-92436673D01*
X160419086Y-92435522D01*
X160411603Y-92410856D01*
X160395873Y-92381425D01*
X160374703Y-92355630D01*
X160348908Y-92334460D01*
X160319477Y-92318730D01*
X160287541Y-92309041D01*
X160254240Y-92305762D01*
X159587266Y-92305762D01*
X159553965Y-92309041D01*
X159522029Y-92318730D01*
X159495145Y-92333099D01*
X159493146Y-92333033D01*
X159492203Y-92331270D01*
X159492933Y-92329789D01*
X159495380Y-92327781D01*
X159495538Y-92327664D01*
X159505406Y-92321070D01*
X159522453Y-92304023D01*
X159535847Y-92283975D01*
X159545073Y-92261701D01*
X159549777Y-92238051D01*
X159549777Y-92213945D01*
X159545072Y-92190295D01*
X159535845Y-92168021D01*
X159522450Y-92147974D01*
X159505403Y-92130927D01*
X159495535Y-92124334D01*
X159495377Y-92124217D01*
X159492931Y-92122210D01*
X159492227Y-92120338D01*
X159493495Y-92118792D01*
X159495143Y-92118900D01*
X159522029Y-92133270D01*
X159553965Y-92142959D01*
X159587266Y-92146238D01*
X160254240Y-92146238D01*
X160287541Y-92142959D01*
X160319477Y-92133270D01*
X160348908Y-92117540D01*
X160374703Y-92096370D01*
X160395873Y-92070575D01*
X160411603Y-92041144D01*
X160419086Y-92016478D01*
X160420546Y-92015111D01*
X160422460Y-92015692D01*
G37*
G36*
X132567732Y-92156000D02*
G01*
X132568000Y-92157000D01*
X132568000Y-92255000D01*
X132567000Y-92256732D01*
X132566000Y-92257000D01*
X131314000Y-92257000D01*
X131312268Y-92256000D01*
X131312000Y-92255000D01*
X131312000Y-92157000D01*
X131313000Y-92155268D01*
X131314000Y-92155000D01*
X132566000Y-92155000D01*
X132567732Y-92156000D01*
G37*
G36*
X166224914Y-91516475D02*
G01*
X166232398Y-91541144D01*
X166248128Y-91570575D01*
X166269298Y-91596370D01*
X166295093Y-91617540D01*
X166324524Y-91633270D01*
X166356460Y-91642959D01*
X166389761Y-91646238D01*
X167056735Y-91646238D01*
X167090036Y-91642959D01*
X167121972Y-91633270D01*
X167148856Y-91618901D01*
X167150855Y-91618967D01*
X167151798Y-91620730D01*
X167151068Y-91622211D01*
X167148621Y-91624219D01*
X167148463Y-91624336D01*
X167138595Y-91630930D01*
X167121548Y-91647977D01*
X167108154Y-91668025D01*
X167098928Y-91690299D01*
X167094224Y-91713949D01*
X167094224Y-91738055D01*
X167098929Y-91761705D01*
X167108156Y-91783979D01*
X167121551Y-91804026D01*
X167138598Y-91821073D01*
X167148466Y-91827666D01*
X167148624Y-91827783D01*
X167151070Y-91829790D01*
X167151774Y-91831662D01*
X167150506Y-91833208D01*
X167148858Y-91833100D01*
X167121972Y-91818730D01*
X167090036Y-91809041D01*
X167056735Y-91805762D01*
X166389761Y-91805762D01*
X166356460Y-91809041D01*
X166324524Y-91818730D01*
X166295093Y-91834460D01*
X166269298Y-91855630D01*
X166248128Y-91881425D01*
X166232398Y-91910856D01*
X166224914Y-91935525D01*
X166223454Y-91936892D01*
X166221540Y-91936311D01*
X166221000Y-91934944D01*
X166221000Y-91517056D01*
X166222000Y-91515324D01*
X166224000Y-91515324D01*
X166224914Y-91516475D01*
G37*
G36*
X160422460Y-91515692D02*
G01*
X160423000Y-91517059D01*
X160423000Y-91934941D01*
X160422000Y-91936673D01*
X160420000Y-91936673D01*
X160419086Y-91935522D01*
X160411603Y-91910856D01*
X160395873Y-91881425D01*
X160374703Y-91855630D01*
X160348908Y-91834460D01*
X160319477Y-91818730D01*
X160287541Y-91809041D01*
X160254240Y-91805762D01*
X159587266Y-91805762D01*
X159553965Y-91809041D01*
X159522029Y-91818730D01*
X159495145Y-91833099D01*
X159493146Y-91833033D01*
X159492203Y-91831270D01*
X159492933Y-91829789D01*
X159495380Y-91827781D01*
X159495538Y-91827664D01*
X159505406Y-91821070D01*
X159522453Y-91804023D01*
X159535847Y-91783975D01*
X159545073Y-91761701D01*
X159549777Y-91738051D01*
X159549777Y-91713945D01*
X159545072Y-91690295D01*
X159535845Y-91668021D01*
X159522450Y-91647974D01*
X159505403Y-91630927D01*
X159495535Y-91624334D01*
X159495377Y-91624217D01*
X159492931Y-91622210D01*
X159492227Y-91620338D01*
X159493495Y-91618792D01*
X159495143Y-91618900D01*
X159522029Y-91633270D01*
X159553965Y-91642959D01*
X159587266Y-91646238D01*
X160254240Y-91646238D01*
X160287541Y-91642959D01*
X160319477Y-91633270D01*
X160348908Y-91617540D01*
X160374703Y-91596370D01*
X160395873Y-91570575D01*
X160411603Y-91541144D01*
X160419086Y-91516478D01*
X160420546Y-91515111D01*
X160422460Y-91515692D01*
G37*
G36*
X132567732Y-91656000D02*
G01*
X132568000Y-91657000D01*
X132568000Y-91755000D01*
X132567000Y-91756732D01*
X132566000Y-91757000D01*
X131314000Y-91757000D01*
X131312268Y-91756000D01*
X131312000Y-91755000D01*
X131312000Y-91657000D01*
X131313000Y-91655268D01*
X131314000Y-91655000D01*
X132566000Y-91655000D01*
X132567732Y-91656000D01*
G37*
G36*
X166224914Y-91016475D02*
G01*
X166232398Y-91041144D01*
X166248128Y-91070575D01*
X166269298Y-91096370D01*
X166295093Y-91117540D01*
X166324524Y-91133270D01*
X166356460Y-91142959D01*
X166389761Y-91146238D01*
X167056735Y-91146238D01*
X167090036Y-91142959D01*
X167121972Y-91133270D01*
X167148856Y-91118901D01*
X167150855Y-91118967D01*
X167151798Y-91120730D01*
X167151068Y-91122211D01*
X167148621Y-91124219D01*
X167148463Y-91124336D01*
X167138595Y-91130930D01*
X167121548Y-91147977D01*
X167108154Y-91168025D01*
X167098928Y-91190299D01*
X167094224Y-91213949D01*
X167094224Y-91238055D01*
X167098929Y-91261705D01*
X167108156Y-91283979D01*
X167121551Y-91304026D01*
X167138598Y-91321073D01*
X167148466Y-91327666D01*
X167148624Y-91327783D01*
X167151070Y-91329790D01*
X167151774Y-91331662D01*
X167150506Y-91333208D01*
X167148858Y-91333100D01*
X167121972Y-91318730D01*
X167090036Y-91309041D01*
X167056735Y-91305762D01*
X166389761Y-91305762D01*
X166356460Y-91309041D01*
X166324524Y-91318730D01*
X166295093Y-91334460D01*
X166269298Y-91355630D01*
X166248128Y-91381425D01*
X166232398Y-91410856D01*
X166224914Y-91435525D01*
X166223454Y-91436892D01*
X166221540Y-91436311D01*
X166221000Y-91434944D01*
X166221000Y-91017056D01*
X166222000Y-91015324D01*
X166224000Y-91015324D01*
X166224914Y-91016475D01*
G37*
G36*
X160422460Y-91015692D02*
G01*
X160423000Y-91017059D01*
X160423000Y-91434941D01*
X160422000Y-91436673D01*
X160420000Y-91436673D01*
X160419086Y-91435522D01*
X160411603Y-91410856D01*
X160395873Y-91381425D01*
X160374703Y-91355630D01*
X160348908Y-91334460D01*
X160319477Y-91318730D01*
X160287541Y-91309041D01*
X160254240Y-91305762D01*
X159587266Y-91305762D01*
X159553965Y-91309041D01*
X159522029Y-91318730D01*
X159495145Y-91333099D01*
X159493146Y-91333033D01*
X159492203Y-91331270D01*
X159492933Y-91329789D01*
X159495380Y-91327781D01*
X159495538Y-91327664D01*
X159505406Y-91321070D01*
X159522453Y-91304023D01*
X159535847Y-91283975D01*
X159545073Y-91261701D01*
X159549777Y-91238051D01*
X159549777Y-91213945D01*
X159545072Y-91190295D01*
X159535845Y-91168021D01*
X159522450Y-91147974D01*
X159505403Y-91130927D01*
X159495535Y-91124334D01*
X159495377Y-91124217D01*
X159492931Y-91122210D01*
X159492227Y-91120338D01*
X159493495Y-91118792D01*
X159495143Y-91118900D01*
X159522029Y-91133270D01*
X159553965Y-91142959D01*
X159587266Y-91146238D01*
X160254240Y-91146238D01*
X160287541Y-91142959D01*
X160319477Y-91133270D01*
X160348908Y-91117540D01*
X160374703Y-91096370D01*
X160395873Y-91070575D01*
X160411603Y-91041144D01*
X160419086Y-91016478D01*
X160420546Y-91015111D01*
X160422460Y-91015692D01*
G37*
G36*
X132567732Y-91156000D02*
G01*
X132568000Y-91157000D01*
X132568000Y-91255000D01*
X132567000Y-91256732D01*
X132566000Y-91257000D01*
X131314000Y-91257000D01*
X131312268Y-91256000D01*
X131312000Y-91255000D01*
X131312000Y-91157000D01*
X131313000Y-91155268D01*
X131314000Y-91155000D01*
X132566000Y-91155000D01*
X132567732Y-91156000D01*
G37*
G36*
X166243773Y-90673259D02*
G01*
X166244608Y-90674885D01*
X166244608Y-90693048D01*
X166249312Y-90716698D01*
X166258539Y-90738972D01*
X166271934Y-90759020D01*
X166288981Y-90776067D01*
X166309028Y-90789461D01*
X166331302Y-90798688D01*
X166354952Y-90803392D01*
X166373115Y-90803392D01*
X166374847Y-90804392D01*
X166374847Y-90806392D01*
X166373311Y-90807382D01*
X166356460Y-90809041D01*
X166324524Y-90818730D01*
X166295093Y-90834460D01*
X166269298Y-90855630D01*
X166248128Y-90881425D01*
X166232398Y-90910856D01*
X166224914Y-90935525D01*
X166223454Y-90936892D01*
X166221540Y-90936311D01*
X166221000Y-90934944D01*
X166221000Y-90827000D01*
X166113056Y-90827000D01*
X166111324Y-90826000D01*
X166111324Y-90824000D01*
X166112475Y-90823086D01*
X166137144Y-90815602D01*
X166166575Y-90799872D01*
X166192370Y-90778702D01*
X166213540Y-90752907D01*
X166229270Y-90723476D01*
X166238959Y-90691540D01*
X166240618Y-90674689D01*
X166241783Y-90673063D01*
X166243773Y-90673259D01*
G37*
G36*
X160403382Y-90674689D02*
G01*
X160405041Y-90691540D01*
X160414730Y-90723476D01*
X160430460Y-90752907D01*
X160451630Y-90778702D01*
X160477425Y-90799872D01*
X160506856Y-90815602D01*
X160531525Y-90823086D01*
X160532892Y-90824546D01*
X160532311Y-90826460D01*
X160530944Y-90827000D01*
X160423000Y-90827000D01*
X160423000Y-90934941D01*
X160422000Y-90936673D01*
X160420000Y-90936673D01*
X160419086Y-90935522D01*
X160411603Y-90910856D01*
X160395873Y-90881425D01*
X160374703Y-90855630D01*
X160348908Y-90834460D01*
X160319477Y-90818730D01*
X160287541Y-90809041D01*
X160270690Y-90807382D01*
X160269064Y-90806217D01*
X160269260Y-90804227D01*
X160270886Y-90803392D01*
X160289048Y-90803392D01*
X160312698Y-90798688D01*
X160334972Y-90789461D01*
X160355019Y-90776067D01*
X160372066Y-90759020D01*
X160385461Y-90738973D01*
X160394687Y-90716699D01*
X160399392Y-90693049D01*
X160399392Y-90674885D01*
X160400392Y-90673153D01*
X160402392Y-90673153D01*
X160403382Y-90674689D01*
G37*
G36*
X164718211Y-89896932D02*
G01*
X164720219Y-89899379D01*
X164720336Y-89899537D01*
X164726930Y-89909405D01*
X164743977Y-89926452D01*
X164764025Y-89939846D01*
X164786299Y-89949072D01*
X164809949Y-89953776D01*
X164834055Y-89953776D01*
X164857705Y-89949071D01*
X164879979Y-89939844D01*
X164900026Y-89926449D01*
X164917073Y-89909402D01*
X164923666Y-89899534D01*
X164923783Y-89899376D01*
X164925790Y-89896930D01*
X164927662Y-89896226D01*
X164929208Y-89897494D01*
X164929100Y-89899142D01*
X164914730Y-89926028D01*
X164905041Y-89957964D01*
X164901762Y-89991265D01*
X164901762Y-90658239D01*
X164905041Y-90691540D01*
X164914730Y-90723476D01*
X164930460Y-90752907D01*
X164951630Y-90778702D01*
X164977425Y-90799872D01*
X165006856Y-90815602D01*
X165031525Y-90823086D01*
X165032892Y-90824546D01*
X165032311Y-90826460D01*
X165030944Y-90827000D01*
X164613056Y-90827000D01*
X164611324Y-90826000D01*
X164611324Y-90824000D01*
X164612475Y-90823086D01*
X164637144Y-90815602D01*
X164666575Y-90799872D01*
X164692370Y-90778702D01*
X164713540Y-90752907D01*
X164729270Y-90723476D01*
X164738959Y-90691540D01*
X164742238Y-90658239D01*
X164742238Y-89991265D01*
X164738959Y-89957964D01*
X164729270Y-89926028D01*
X164714901Y-89899144D01*
X164714967Y-89897145D01*
X164716730Y-89896202D01*
X164718211Y-89896932D01*
G37*
G36*
X163718211Y-89896932D02*
G01*
X163720219Y-89899379D01*
X163720336Y-89899537D01*
X163726930Y-89909405D01*
X163743977Y-89926452D01*
X163764025Y-89939846D01*
X163786299Y-89949072D01*
X163809949Y-89953776D01*
X163834055Y-89953776D01*
X163857705Y-89949071D01*
X163879979Y-89939844D01*
X163900026Y-89926449D01*
X163917073Y-89909402D01*
X163923666Y-89899534D01*
X163923783Y-89899376D01*
X163925790Y-89896930D01*
X163927662Y-89896226D01*
X163929208Y-89897494D01*
X163929100Y-89899142D01*
X163914730Y-89926028D01*
X163905041Y-89957964D01*
X163901762Y-89991265D01*
X163901762Y-90658239D01*
X163905041Y-90691540D01*
X163914730Y-90723476D01*
X163930460Y-90752907D01*
X163951630Y-90778702D01*
X163977425Y-90799872D01*
X164006856Y-90815602D01*
X164031525Y-90823086D01*
X164032892Y-90824546D01*
X164032311Y-90826460D01*
X164030944Y-90827000D01*
X163613056Y-90827000D01*
X163611324Y-90826000D01*
X163611324Y-90824000D01*
X163612475Y-90823086D01*
X163637144Y-90815602D01*
X163666575Y-90799872D01*
X163692370Y-90778702D01*
X163713540Y-90752907D01*
X163729270Y-90723476D01*
X163738959Y-90691540D01*
X163742238Y-90658239D01*
X163742238Y-89991265D01*
X163738959Y-89957964D01*
X163729270Y-89926028D01*
X163714901Y-89899144D01*
X163714967Y-89897145D01*
X163716730Y-89896202D01*
X163718211Y-89896932D01*
G37*
G36*
X162718211Y-89896932D02*
G01*
X162720219Y-89899379D01*
X162720336Y-89899537D01*
X162726930Y-89909405D01*
X162743977Y-89926452D01*
X162764025Y-89939846D01*
X162786299Y-89949072D01*
X162809949Y-89953776D01*
X162834055Y-89953776D01*
X162857705Y-89949071D01*
X162879979Y-89939844D01*
X162900026Y-89926449D01*
X162917073Y-89909402D01*
X162923666Y-89899534D01*
X162923783Y-89899376D01*
X162925790Y-89896930D01*
X162927662Y-89896226D01*
X162929208Y-89897494D01*
X162929100Y-89899142D01*
X162914730Y-89926028D01*
X162905041Y-89957964D01*
X162901762Y-89991265D01*
X162901762Y-90658239D01*
X162905041Y-90691540D01*
X162914730Y-90723476D01*
X162930460Y-90752907D01*
X162951630Y-90778702D01*
X162977425Y-90799872D01*
X163006856Y-90815602D01*
X163031525Y-90823086D01*
X163032892Y-90824546D01*
X163032311Y-90826460D01*
X163030944Y-90827000D01*
X162613056Y-90827000D01*
X162611324Y-90826000D01*
X162611324Y-90824000D01*
X162612475Y-90823086D01*
X162637144Y-90815602D01*
X162666575Y-90799872D01*
X162692370Y-90778702D01*
X162713540Y-90752907D01*
X162729270Y-90723476D01*
X162738959Y-90691540D01*
X162742238Y-90658239D01*
X162742238Y-89991265D01*
X162738959Y-89957964D01*
X162729270Y-89926028D01*
X162714901Y-89899144D01*
X162714967Y-89897145D01*
X162716730Y-89896202D01*
X162718211Y-89896932D01*
G37*
G36*
X165718211Y-89896932D02*
G01*
X165720219Y-89899379D01*
X165720336Y-89899537D01*
X165726930Y-89909405D01*
X165743977Y-89926452D01*
X165764025Y-89939846D01*
X165786299Y-89949072D01*
X165809949Y-89953776D01*
X165834055Y-89953776D01*
X165857705Y-89949071D01*
X165879979Y-89939844D01*
X165900026Y-89926449D01*
X165917073Y-89909402D01*
X165923666Y-89899534D01*
X165923783Y-89899376D01*
X165925790Y-89896930D01*
X165927662Y-89896226D01*
X165929208Y-89897494D01*
X165929100Y-89899142D01*
X165914730Y-89926028D01*
X165905041Y-89957964D01*
X165901762Y-89991265D01*
X165901762Y-90658239D01*
X165905041Y-90691540D01*
X165914730Y-90723476D01*
X165930460Y-90752907D01*
X165951630Y-90778702D01*
X165977425Y-90799872D01*
X166006856Y-90815602D01*
X166031525Y-90823086D01*
X166032892Y-90824546D01*
X166032311Y-90826460D01*
X166030944Y-90827000D01*
X165613056Y-90827000D01*
X165611324Y-90826000D01*
X165611324Y-90824000D01*
X165612475Y-90823086D01*
X165637144Y-90815602D01*
X165666575Y-90799872D01*
X165692370Y-90778702D01*
X165713540Y-90752907D01*
X165729270Y-90723476D01*
X165738959Y-90691540D01*
X165742238Y-90658239D01*
X165742238Y-89991265D01*
X165738959Y-89957964D01*
X165729270Y-89926028D01*
X165714901Y-89899144D01*
X165714967Y-89897145D01*
X165716730Y-89896202D01*
X165718211Y-89896932D01*
G37*
G36*
X161718211Y-89896932D02*
G01*
X161720219Y-89899379D01*
X161720336Y-89899537D01*
X161726930Y-89909405D01*
X161743977Y-89926452D01*
X161764025Y-89939846D01*
X161786299Y-89949072D01*
X161809949Y-89953776D01*
X161834055Y-89953776D01*
X161857705Y-89949071D01*
X161879979Y-89939844D01*
X161900026Y-89926449D01*
X161917073Y-89909402D01*
X161923666Y-89899534D01*
X161923783Y-89899376D01*
X161925790Y-89896930D01*
X161927662Y-89896226D01*
X161929208Y-89897494D01*
X161929100Y-89899142D01*
X161914730Y-89926028D01*
X161905041Y-89957964D01*
X161901762Y-89991265D01*
X161901762Y-90658239D01*
X161905041Y-90691540D01*
X161914730Y-90723476D01*
X161930460Y-90752907D01*
X161951630Y-90778702D01*
X161977425Y-90799872D01*
X162006856Y-90815602D01*
X162031525Y-90823086D01*
X162032892Y-90824546D01*
X162032311Y-90826460D01*
X162030944Y-90827000D01*
X161613056Y-90827000D01*
X161611324Y-90826000D01*
X161611324Y-90824000D01*
X161612475Y-90823086D01*
X161637144Y-90815602D01*
X161666575Y-90799872D01*
X161692370Y-90778702D01*
X161713540Y-90752907D01*
X161729270Y-90723476D01*
X161738959Y-90691540D01*
X161742238Y-90658239D01*
X161742238Y-89991265D01*
X161738959Y-89957964D01*
X161729270Y-89926028D01*
X161714901Y-89899144D01*
X161714967Y-89897145D01*
X161716730Y-89896202D01*
X161718211Y-89896932D01*
G37*
G36*
X161218211Y-89896932D02*
G01*
X161220219Y-89899379D01*
X161220336Y-89899537D01*
X161226930Y-89909405D01*
X161243977Y-89926452D01*
X161264025Y-89939846D01*
X161286299Y-89949072D01*
X161309949Y-89953776D01*
X161334055Y-89953776D01*
X161357705Y-89949071D01*
X161379979Y-89939844D01*
X161400026Y-89926449D01*
X161417073Y-89909402D01*
X161423666Y-89899534D01*
X161423783Y-89899376D01*
X161425790Y-89896930D01*
X161427662Y-89896226D01*
X161429208Y-89897494D01*
X161429100Y-89899142D01*
X161414730Y-89926028D01*
X161405041Y-89957964D01*
X161401762Y-89991265D01*
X161401762Y-90658239D01*
X161405041Y-90691540D01*
X161414730Y-90723476D01*
X161430460Y-90752907D01*
X161451630Y-90778702D01*
X161477425Y-90799872D01*
X161506856Y-90815602D01*
X161531525Y-90823086D01*
X161532892Y-90824546D01*
X161532311Y-90826460D01*
X161530944Y-90827000D01*
X161113056Y-90827000D01*
X161111324Y-90826000D01*
X161111324Y-90824000D01*
X161112475Y-90823086D01*
X161137144Y-90815602D01*
X161166575Y-90799872D01*
X161192370Y-90778702D01*
X161213540Y-90752907D01*
X161229270Y-90723476D01*
X161238959Y-90691540D01*
X161242238Y-90658239D01*
X161242238Y-89991265D01*
X161238959Y-89957964D01*
X161229270Y-89926028D01*
X161214901Y-89899144D01*
X161214967Y-89897145D01*
X161216730Y-89896202D01*
X161218211Y-89896932D01*
G37*
G36*
X165218211Y-89896932D02*
G01*
X165220219Y-89899379D01*
X165220336Y-89899537D01*
X165226930Y-89909405D01*
X165243977Y-89926452D01*
X165264025Y-89939846D01*
X165286299Y-89949072D01*
X165309949Y-89953776D01*
X165334055Y-89953776D01*
X165357705Y-89949071D01*
X165379979Y-89939844D01*
X165400026Y-89926449D01*
X165417073Y-89909402D01*
X165423666Y-89899534D01*
X165423783Y-89899376D01*
X165425790Y-89896930D01*
X165427662Y-89896226D01*
X165429208Y-89897494D01*
X165429100Y-89899142D01*
X165414730Y-89926028D01*
X165405041Y-89957964D01*
X165401762Y-89991265D01*
X165401762Y-90658239D01*
X165405041Y-90691540D01*
X165414730Y-90723476D01*
X165430460Y-90752907D01*
X165451630Y-90778702D01*
X165477425Y-90799872D01*
X165506856Y-90815602D01*
X165531525Y-90823086D01*
X165532892Y-90824546D01*
X165532311Y-90826460D01*
X165530944Y-90827000D01*
X165113056Y-90827000D01*
X165111324Y-90826000D01*
X165111324Y-90824000D01*
X165112475Y-90823086D01*
X165137144Y-90815602D01*
X165166575Y-90799872D01*
X165192370Y-90778702D01*
X165213540Y-90752907D01*
X165229270Y-90723476D01*
X165238959Y-90691540D01*
X165242238Y-90658239D01*
X165242238Y-89991265D01*
X165238959Y-89957964D01*
X165229270Y-89926028D01*
X165214901Y-89899144D01*
X165214967Y-89897145D01*
X165216730Y-89896202D01*
X165218211Y-89896932D01*
G37*
G36*
X162218211Y-89896932D02*
G01*
X162220219Y-89899379D01*
X162220336Y-89899537D01*
X162226930Y-89909405D01*
X162243977Y-89926452D01*
X162264025Y-89939846D01*
X162286299Y-89949072D01*
X162309949Y-89953776D01*
X162334055Y-89953776D01*
X162357705Y-89949071D01*
X162379979Y-89939844D01*
X162400026Y-89926449D01*
X162417073Y-89909402D01*
X162423666Y-89899534D01*
X162423783Y-89899376D01*
X162425790Y-89896930D01*
X162427662Y-89896226D01*
X162429208Y-89897494D01*
X162429100Y-89899142D01*
X162414730Y-89926028D01*
X162405041Y-89957964D01*
X162401762Y-89991265D01*
X162401762Y-90658239D01*
X162405041Y-90691540D01*
X162414730Y-90723476D01*
X162430460Y-90752907D01*
X162451630Y-90778702D01*
X162477425Y-90799872D01*
X162506856Y-90815602D01*
X162531525Y-90823086D01*
X162532892Y-90824546D01*
X162532311Y-90826460D01*
X162530944Y-90827000D01*
X162113056Y-90827000D01*
X162111324Y-90826000D01*
X162111324Y-90824000D01*
X162112475Y-90823086D01*
X162137144Y-90815602D01*
X162166575Y-90799872D01*
X162192370Y-90778702D01*
X162213540Y-90752907D01*
X162229270Y-90723476D01*
X162238959Y-90691540D01*
X162242238Y-90658239D01*
X162242238Y-89991265D01*
X162238959Y-89957964D01*
X162229270Y-89926028D01*
X162214901Y-89899144D01*
X162214967Y-89897145D01*
X162216730Y-89896202D01*
X162218211Y-89896932D01*
G37*
G36*
X164218211Y-89896932D02*
G01*
X164220219Y-89899379D01*
X164220336Y-89899537D01*
X164226930Y-89909405D01*
X164243977Y-89926452D01*
X164264025Y-89939846D01*
X164286299Y-89949072D01*
X164309949Y-89953776D01*
X164334055Y-89953776D01*
X164357705Y-89949071D01*
X164379979Y-89939844D01*
X164400026Y-89926449D01*
X164417073Y-89909402D01*
X164423666Y-89899534D01*
X164423783Y-89899376D01*
X164425790Y-89896930D01*
X164427662Y-89896226D01*
X164429208Y-89897494D01*
X164429100Y-89899142D01*
X164414730Y-89926028D01*
X164405041Y-89957964D01*
X164401762Y-89991265D01*
X164401762Y-90658239D01*
X164405041Y-90691540D01*
X164414730Y-90723476D01*
X164430460Y-90752907D01*
X164451630Y-90778702D01*
X164477425Y-90799872D01*
X164506856Y-90815602D01*
X164531525Y-90823086D01*
X164532892Y-90824546D01*
X164532311Y-90826460D01*
X164530944Y-90827000D01*
X164113056Y-90827000D01*
X164111324Y-90826000D01*
X164111324Y-90824000D01*
X164112475Y-90823086D01*
X164137144Y-90815602D01*
X164166575Y-90799872D01*
X164192370Y-90778702D01*
X164213540Y-90752907D01*
X164229270Y-90723476D01*
X164238959Y-90691540D01*
X164242238Y-90658239D01*
X164242238Y-89991265D01*
X164238959Y-89957964D01*
X164229270Y-89926028D01*
X164214901Y-89899144D01*
X164214967Y-89897145D01*
X164216730Y-89896202D01*
X164218211Y-89896932D01*
G37*
G36*
X163218211Y-89896932D02*
G01*
X163220219Y-89899379D01*
X163220336Y-89899537D01*
X163226930Y-89909405D01*
X163243977Y-89926452D01*
X163264025Y-89939846D01*
X163286299Y-89949072D01*
X163309949Y-89953776D01*
X163334055Y-89953776D01*
X163357705Y-89949071D01*
X163379979Y-89939844D01*
X163400026Y-89926449D01*
X163417073Y-89909402D01*
X163423666Y-89899534D01*
X163423783Y-89899376D01*
X163425790Y-89896930D01*
X163427662Y-89896226D01*
X163429208Y-89897494D01*
X163429100Y-89899142D01*
X163414730Y-89926028D01*
X163405041Y-89957964D01*
X163401762Y-89991265D01*
X163401762Y-90658239D01*
X163405041Y-90691540D01*
X163414730Y-90723476D01*
X163430460Y-90752907D01*
X163451630Y-90778702D01*
X163477425Y-90799872D01*
X163506856Y-90815602D01*
X163531525Y-90823086D01*
X163532892Y-90824546D01*
X163532311Y-90826460D01*
X163530944Y-90827000D01*
X163113056Y-90827000D01*
X163111324Y-90826000D01*
X163111324Y-90824000D01*
X163112475Y-90823086D01*
X163137144Y-90815602D01*
X163166575Y-90799872D01*
X163192370Y-90778702D01*
X163213540Y-90752907D01*
X163229270Y-90723476D01*
X163238959Y-90691540D01*
X163242238Y-90658239D01*
X163242238Y-89991265D01*
X163238959Y-89957964D01*
X163229270Y-89926028D01*
X163214901Y-89899144D01*
X163214967Y-89897145D01*
X163216730Y-89896202D01*
X163218211Y-89896932D01*
G37*
G36*
X160718211Y-89896932D02*
G01*
X160720219Y-89899379D01*
X160720336Y-89899537D01*
X160726930Y-89909405D01*
X160743977Y-89926452D01*
X160764025Y-89939846D01*
X160786299Y-89949072D01*
X160809949Y-89953776D01*
X160834055Y-89953776D01*
X160857705Y-89949071D01*
X160879979Y-89939844D01*
X160900026Y-89926449D01*
X160917073Y-89909402D01*
X160923666Y-89899534D01*
X160923783Y-89899376D01*
X160925790Y-89896930D01*
X160927662Y-89896226D01*
X160929208Y-89897494D01*
X160929100Y-89899142D01*
X160914730Y-89926028D01*
X160905041Y-89957964D01*
X160901762Y-89991265D01*
X160901762Y-90658239D01*
X160905041Y-90691540D01*
X160914730Y-90723476D01*
X160930460Y-90752907D01*
X160951630Y-90778702D01*
X160977425Y-90799872D01*
X161006856Y-90815602D01*
X161031525Y-90823086D01*
X161032892Y-90824546D01*
X161032311Y-90826460D01*
X161030944Y-90827000D01*
X160613056Y-90827000D01*
X160611324Y-90826000D01*
X160611324Y-90824000D01*
X160612475Y-90823086D01*
X160637144Y-90815602D01*
X160666575Y-90799872D01*
X160692370Y-90778702D01*
X160713540Y-90752907D01*
X160729270Y-90723476D01*
X160738959Y-90691540D01*
X160742238Y-90658239D01*
X160742238Y-89991265D01*
X160738959Y-89957964D01*
X160729270Y-89926028D01*
X160714901Y-89899144D01*
X160714967Y-89897145D01*
X160716730Y-89896202D01*
X160718211Y-89896932D01*
G37*
G36*
X132567732Y-90656000D02*
G01*
X132568000Y-90657000D01*
X132568000Y-90755000D01*
X132567000Y-90756732D01*
X132566000Y-90757000D01*
X131314000Y-90757000D01*
X131312268Y-90756000D01*
X131312000Y-90755000D01*
X131312000Y-90657000D01*
X131313000Y-90655268D01*
X131314000Y-90655000D01*
X132566000Y-90655000D01*
X132567732Y-90656000D01*
G37*
G36*
X131315165Y-89424539D02*
G01*
X131316000Y-89426165D01*
X131316000Y-89855000D01*
X132566000Y-89855000D01*
X132567732Y-89856000D01*
X132568000Y-89857000D01*
X132568000Y-89955000D01*
X132567000Y-89956732D01*
X132566000Y-89957000D01*
X131316000Y-89957000D01*
X131316000Y-90205835D01*
X131315000Y-90207567D01*
X131313000Y-90207567D01*
X131312010Y-90206031D01*
X131309628Y-90181844D01*
X131302628Y-90158769D01*
X131291263Y-90137505D01*
X131275968Y-90118868D01*
X131257331Y-90103573D01*
X131236067Y-90092208D01*
X131212992Y-90085208D01*
X131189001Y-90082845D01*
X131165010Y-90085208D01*
X131141935Y-90092208D01*
X131120581Y-90103622D01*
X131116828Y-90106130D01*
X131114832Y-90106261D01*
X131113721Y-90104598D01*
X131114303Y-90103053D01*
X131164098Y-90053258D01*
X131204829Y-89992298D01*
X131232886Y-89924565D01*
X131247189Y-89852655D01*
X131247189Y-89779345D01*
X131232886Y-89707435D01*
X131204829Y-89639702D01*
X131164098Y-89578742D01*
X131114303Y-89528947D01*
X131113785Y-89527015D01*
X131115199Y-89525601D01*
X131116828Y-89525870D01*
X131120581Y-89528378D01*
X131141934Y-89539791D01*
X131165008Y-89546792D01*
X131189000Y-89549155D01*
X131212992Y-89546791D01*
X131236065Y-89539794D01*
X131257330Y-89528428D01*
X131275967Y-89513133D01*
X131291262Y-89494496D01*
X131302627Y-89473232D01*
X131309628Y-89450158D01*
X131312010Y-89425969D01*
X131313175Y-89424343D01*
X131315165Y-89424539D01*
G37*
G36*
X132078953Y-88911275D02*
G01*
X132079534Y-88913189D01*
X132078351Y-88914583D01*
X132061569Y-88921535D01*
X132041522Y-88934929D01*
X132024475Y-88951976D01*
X132011080Y-88972024D01*
X132001853Y-88994298D01*
X131997149Y-89017948D01*
X131997149Y-89042054D01*
X132001853Y-89065704D01*
X132011080Y-89087978D01*
X132024474Y-89108025D01*
X132041521Y-89125072D01*
X132061569Y-89138467D01*
X132083843Y-89147694D01*
X132107539Y-89152407D01*
X132119644Y-89153002D01*
X132121325Y-89154086D01*
X132121227Y-89156084D01*
X132119546Y-89157000D01*
X131314000Y-89157000D01*
X131312268Y-89156000D01*
X131312000Y-89155000D01*
X131312000Y-89062093D01*
X131309628Y-89038008D01*
X131302628Y-89014933D01*
X131291263Y-88993669D01*
X131275968Y-88975032D01*
X131257331Y-88959737D01*
X131236067Y-88948372D01*
X131212992Y-88941372D01*
X131188805Y-88938990D01*
X131187179Y-88937825D01*
X131187375Y-88935835D01*
X131189001Y-88935000D01*
X131924906Y-88935000D01*
X132032100Y-88924443D01*
X132077005Y-88910821D01*
X132078953Y-88911275D01*
G37*
G36*
X144924732Y-87884000D02*
G01*
X144925000Y-87885000D01*
X144925000Y-89047000D01*
X144924000Y-89048732D01*
X144923000Y-89049000D01*
X144725000Y-89049000D01*
X144723268Y-89048000D01*
X144723000Y-89047000D01*
X144723000Y-87887000D01*
X143975000Y-87887000D01*
X143975000Y-89047000D01*
X143974000Y-89048732D01*
X143973000Y-89049000D01*
X143775000Y-89049000D01*
X143773268Y-89048000D01*
X143773000Y-89047000D01*
X143773000Y-87885000D01*
X143774000Y-87883268D01*
X143775000Y-87883000D01*
X144923000Y-87883000D01*
X144924732Y-87884000D01*
G37*
G36*
X153398732Y-88255000D02*
G01*
X153399000Y-88256000D01*
X153399000Y-88454000D01*
X153398000Y-88455732D01*
X153397000Y-88456000D01*
X152235000Y-88456000D01*
X152233268Y-88455000D01*
X152233000Y-88454000D01*
X152233000Y-88256000D01*
X152234000Y-88254268D01*
X152235000Y-88254000D01*
X153397000Y-88254000D01*
X153398732Y-88255000D01*
G37*
G36*
X153398732Y-87305000D02*
G01*
X153399000Y-87306000D01*
X153399000Y-87504000D01*
X153398000Y-87505732D01*
X153397000Y-87506000D01*
X152235000Y-87506000D01*
X152233268Y-87505000D01*
X152233000Y-87504000D01*
X152233000Y-87306000D01*
X152234000Y-87304268D01*
X152235000Y-87304000D01*
X153397000Y-87304000D01*
X153398732Y-87305000D01*
G37*
G36*
X175843681Y-84173829D02*
G01*
X175842954Y-84175506D01*
X175828907Y-84187035D01*
X175813612Y-84205671D01*
X175802247Y-84226935D01*
X175795247Y-84250010D01*
X175792884Y-84274001D01*
X175795247Y-84297992D01*
X175802247Y-84321067D01*
X175813612Y-84342331D01*
X175828908Y-84360968D01*
X175847544Y-84376263D01*
X175868808Y-84387628D01*
X175891883Y-84394628D01*
X175916070Y-84397010D01*
X175917696Y-84398175D01*
X175917500Y-84400165D01*
X175915874Y-84401000D01*
X175645342Y-84401000D01*
X175592725Y-84406182D01*
X175542215Y-84421505D01*
X175495667Y-84446385D01*
X175454868Y-84479868D01*
X175421385Y-84520667D01*
X175396505Y-84567215D01*
X175381182Y-84617725D01*
X175375990Y-84670444D01*
X175374825Y-84672070D01*
X175372835Y-84671874D01*
X175372000Y-84670248D01*
X175372000Y-84603473D01*
X175372010Y-84603277D01*
X175376414Y-84558563D01*
X175376490Y-84558178D01*
X175387742Y-84521084D01*
X175387892Y-84520722D01*
X175392061Y-84512922D01*
X175401324Y-84490559D01*
X175406029Y-84466909D01*
X175406029Y-84442803D01*
X175401325Y-84419152D01*
X175392099Y-84396878D01*
X175378704Y-84376831D01*
X175361657Y-84359784D01*
X175341610Y-84346389D01*
X175319336Y-84337163D01*
X175295495Y-84332420D01*
X175293991Y-84331101D01*
X175294381Y-84329139D01*
X175295885Y-84328458D01*
X175372619Y-84328458D01*
X175593536Y-84284514D01*
X175801631Y-84198318D01*
X175840574Y-84172297D01*
X175842570Y-84172166D01*
X175843681Y-84173829D01*
G37*
M02*
