G04 #@! TF.GenerationSoftware,KiCad,Pcbnew,(5.1.7-0-10_14)*
G04 #@! TF.CreationDate,2020-10-24T15:10:09+08:00*
G04 #@! TF.ProjectId,Feather_STM32WB55,46656174-6865-4725-9f53-544d33325742,rev?*
G04 #@! TF.SameCoordinates,Original*
G04 #@! TF.FileFunction,Soldermask,Bot*
G04 #@! TF.FilePolarity,Negative*
%FSLAX46Y46*%
G04 Gerber Fmt 4.6, Leading zero omitted, Abs format (unit mm)*
G04 Created by KiCad (PCBNEW (5.1.7-0-10_14)) date 2020-10-24 15:10:09*
%MOMM*%
%LPD*%
G01*
G04 APERTURE LIST*
%ADD10C,0.752000*%
%ADD11O,1.702000X1.102000*%
%ADD12O,2.202000X1.102000*%
%ADD13O,1.802000X1.802000*%
%ADD14C,3.302000*%
%ADD15C,2.302000*%
G04 APERTURE END LIST*
D10*
X130875000Y-89816000D03*
X130875000Y-95596000D03*
D11*
X127195000Y-97026000D03*
X127195000Y-88386000D03*
D12*
X131375000Y-97026000D03*
X131375000Y-88386000D03*
D13*
X171450000Y-82550000D03*
X168910000Y-82550000D03*
X166370000Y-82550000D03*
X163830000Y-82550000D03*
X161290000Y-82550000D03*
X158750000Y-82550000D03*
X156210000Y-82550000D03*
X153670000Y-82550000D03*
X151130000Y-82550000D03*
X148590000Y-82550000D03*
X146050000Y-82550000D03*
G36*
G01*
X144360000Y-83451000D02*
X142660000Y-83451000D01*
G75*
G02*
X142609000Y-83400000I0J51000D01*
G01*
X142609000Y-81700000D01*
G75*
G02*
X142660000Y-81649000I51000J0D01*
G01*
X144360000Y-81649000D01*
G75*
G02*
X144411000Y-81700000I0J-51000D01*
G01*
X144411000Y-83400000D01*
G75*
G02*
X144360000Y-83451000I-51000J0D01*
G01*
G37*
X171450000Y-102870000D03*
X168910000Y-102870000D03*
X166370000Y-102870000D03*
X163830000Y-102870000D03*
X161290000Y-102870000D03*
X158750000Y-102870000D03*
X156210000Y-102870000D03*
X153670000Y-102870000D03*
X151130000Y-102870000D03*
X148590000Y-102870000D03*
X146050000Y-102870000D03*
X143510000Y-102870000D03*
X140970000Y-102870000D03*
X138430000Y-102870000D03*
X135890000Y-102870000D03*
G36*
G01*
X134200000Y-103771000D02*
X132500000Y-103771000D01*
G75*
G02*
X132449000Y-103720000I0J51000D01*
G01*
X132449000Y-102020000D01*
G75*
G02*
X132500000Y-101969000I51000J0D01*
G01*
X134200000Y-101969000D01*
G75*
G02*
X134251000Y-102020000I0J-51000D01*
G01*
X134251000Y-103720000D01*
G75*
G02*
X134200000Y-103771000I-51000J0D01*
G01*
G37*
D14*
X129540000Y-83820000D03*
X129540000Y-101600000D03*
D15*
X175260000Y-102235000D03*
X175260000Y-83185000D03*
G36*
G01*
X141899000Y-96550000D02*
X141899000Y-96050000D01*
G75*
G02*
X141950000Y-95999000I51000J0D01*
G01*
X143950000Y-95999000D01*
G75*
G02*
X144001000Y-96050000I0J-51000D01*
G01*
X144001000Y-96550000D01*
G75*
G02*
X143950000Y-96601000I-51000J0D01*
G01*
X141950000Y-96601000D01*
G75*
G02*
X141899000Y-96550000I0J51000D01*
G01*
G37*
G36*
G01*
X145199000Y-96550000D02*
X145199000Y-96050000D01*
G75*
G02*
X145250000Y-95999000I51000J0D01*
G01*
X147250000Y-95999000D01*
G75*
G02*
X147301000Y-96050000I0J-51000D01*
G01*
X147301000Y-96550000D01*
G75*
G02*
X147250000Y-96601000I-51000J0D01*
G01*
X145250000Y-96601000D01*
G75*
G02*
X145199000Y-96550000I0J51000D01*
G01*
G37*
G36*
G01*
X141899000Y-95550000D02*
X141899000Y-95050000D01*
G75*
G02*
X141950000Y-94999000I51000J0D01*
G01*
X143950000Y-94999000D01*
G75*
G02*
X144001000Y-95050000I0J-51000D01*
G01*
X144001000Y-95550000D01*
G75*
G02*
X143950000Y-95601000I-51000J0D01*
G01*
X141950000Y-95601000D01*
G75*
G02*
X141899000Y-95550000I0J51000D01*
G01*
G37*
G36*
G01*
X145199000Y-95550000D02*
X145199000Y-95050000D01*
G75*
G02*
X145250000Y-94999000I51000J0D01*
G01*
X147250000Y-94999000D01*
G75*
G02*
X147301000Y-95050000I0J-51000D01*
G01*
X147301000Y-95550000D01*
G75*
G02*
X147250000Y-95601000I-51000J0D01*
G01*
X145250000Y-95601000D01*
G75*
G02*
X145199000Y-95550000I0J51000D01*
G01*
G37*
G36*
G01*
X141899000Y-94550000D02*
X141899000Y-94050000D01*
G75*
G02*
X141950000Y-93999000I51000J0D01*
G01*
X143950000Y-93999000D01*
G75*
G02*
X144001000Y-94050000I0J-51000D01*
G01*
X144001000Y-94550000D01*
G75*
G02*
X143950000Y-94601000I-51000J0D01*
G01*
X141950000Y-94601000D01*
G75*
G02*
X141899000Y-94550000I0J51000D01*
G01*
G37*
G36*
G01*
X145199000Y-94550000D02*
X145199000Y-94050000D01*
G75*
G02*
X145250000Y-93999000I51000J0D01*
G01*
X147250000Y-93999000D01*
G75*
G02*
X147301000Y-94050000I0J-51000D01*
G01*
X147301000Y-94550000D01*
G75*
G02*
X147250000Y-94601000I-51000J0D01*
G01*
X145250000Y-94601000D01*
G75*
G02*
X145199000Y-94550000I0J51000D01*
G01*
G37*
G36*
G01*
X141899000Y-93550000D02*
X141899000Y-93050000D01*
G75*
G02*
X141950000Y-92999000I51000J0D01*
G01*
X143950000Y-92999000D01*
G75*
G02*
X144001000Y-93050000I0J-51000D01*
G01*
X144001000Y-93550000D01*
G75*
G02*
X143950000Y-93601000I-51000J0D01*
G01*
X141950000Y-93601000D01*
G75*
G02*
X141899000Y-93550000I0J51000D01*
G01*
G37*
G36*
G01*
X145199000Y-93550000D02*
X145199000Y-93050000D01*
G75*
G02*
X145250000Y-92999000I51000J0D01*
G01*
X147250000Y-92999000D01*
G75*
G02*
X147301000Y-93050000I0J-51000D01*
G01*
X147301000Y-93550000D01*
G75*
G02*
X147250000Y-93601000I-51000J0D01*
G01*
X145250000Y-93601000D01*
G75*
G02*
X145199000Y-93550000I0J51000D01*
G01*
G37*
G36*
G01*
X141899000Y-92550000D02*
X141899000Y-92050000D01*
G75*
G02*
X141950000Y-91999000I51000J0D01*
G01*
X143950000Y-91999000D01*
G75*
G02*
X144001000Y-92050000I0J-51000D01*
G01*
X144001000Y-92550000D01*
G75*
G02*
X143950000Y-92601000I-51000J0D01*
G01*
X141950000Y-92601000D01*
G75*
G02*
X141899000Y-92550000I0J51000D01*
G01*
G37*
G36*
G01*
X145199000Y-92550000D02*
X145199000Y-92050000D01*
G75*
G02*
X145250000Y-91999000I51000J0D01*
G01*
X147250000Y-91999000D01*
G75*
G02*
X147301000Y-92050000I0J-51000D01*
G01*
X147301000Y-92550000D01*
G75*
G02*
X147250000Y-92601000I-51000J0D01*
G01*
X145250000Y-92601000D01*
G75*
G02*
X145199000Y-92550000I0J51000D01*
G01*
G37*
G36*
G01*
X148899000Y-96430500D02*
X148899000Y-96079500D01*
G75*
G02*
X149074500Y-95904000I175500J0D01*
G01*
X150775500Y-95904000D01*
G75*
G02*
X150951000Y-96079500I0J-175500D01*
G01*
X150951000Y-96430500D01*
G75*
G02*
X150775500Y-96606000I-175500J0D01*
G01*
X149074500Y-96606000D01*
G75*
G02*
X148899000Y-96430500I0J175500D01*
G01*
G37*
G36*
G01*
X148899000Y-95160500D02*
X148899000Y-94809500D01*
G75*
G02*
X149074500Y-94634000I175500J0D01*
G01*
X150775500Y-94634000D01*
G75*
G02*
X150951000Y-94809500I0J-175500D01*
G01*
X150951000Y-95160500D01*
G75*
G02*
X150775500Y-95336000I-175500J0D01*
G01*
X149074500Y-95336000D01*
G75*
G02*
X148899000Y-95160500I0J175500D01*
G01*
G37*
G36*
G01*
X148899000Y-93890500D02*
X148899000Y-93539500D01*
G75*
G02*
X149074500Y-93364000I175500J0D01*
G01*
X150775500Y-93364000D01*
G75*
G02*
X150951000Y-93539500I0J-175500D01*
G01*
X150951000Y-93890500D01*
G75*
G02*
X150775500Y-94066000I-175500J0D01*
G01*
X149074500Y-94066000D01*
G75*
G02*
X148899000Y-93890500I0J175500D01*
G01*
G37*
G36*
G01*
X148899000Y-92620500D02*
X148899000Y-92269500D01*
G75*
G02*
X149074500Y-92094000I175500J0D01*
G01*
X150775500Y-92094000D01*
G75*
G02*
X150951000Y-92269500I0J-175500D01*
G01*
X150951000Y-92620500D01*
G75*
G02*
X150775500Y-92796000I-175500J0D01*
G01*
X149074500Y-92796000D01*
G75*
G02*
X148899000Y-92620500I0J175500D01*
G01*
G37*
G36*
G01*
X153849000Y-92620500D02*
X153849000Y-92269500D01*
G75*
G02*
X154024500Y-92094000I175500J0D01*
G01*
X155725500Y-92094000D01*
G75*
G02*
X155901000Y-92269500I0J-175500D01*
G01*
X155901000Y-92620500D01*
G75*
G02*
X155725500Y-92796000I-175500J0D01*
G01*
X154024500Y-92796000D01*
G75*
G02*
X153849000Y-92620500I0J175500D01*
G01*
G37*
G36*
G01*
X153849000Y-93890500D02*
X153849000Y-93539500D01*
G75*
G02*
X154024500Y-93364000I175500J0D01*
G01*
X155725500Y-93364000D01*
G75*
G02*
X155901000Y-93539500I0J-175500D01*
G01*
X155901000Y-93890500D01*
G75*
G02*
X155725500Y-94066000I-175500J0D01*
G01*
X154024500Y-94066000D01*
G75*
G02*
X153849000Y-93890500I0J175500D01*
G01*
G37*
G36*
G01*
X153849000Y-95160500D02*
X153849000Y-94809500D01*
G75*
G02*
X154024500Y-94634000I175500J0D01*
G01*
X155725500Y-94634000D01*
G75*
G02*
X155901000Y-94809500I0J-175500D01*
G01*
X155901000Y-95160500D01*
G75*
G02*
X155725500Y-95336000I-175500J0D01*
G01*
X154024500Y-95336000D01*
G75*
G02*
X153849000Y-95160500I0J175500D01*
G01*
G37*
G36*
G01*
X153849000Y-96430500D02*
X153849000Y-96079500D01*
G75*
G02*
X154024500Y-95904000I175500J0D01*
G01*
X155725500Y-95904000D01*
G75*
G02*
X155901000Y-96079500I0J-175500D01*
G01*
X155901000Y-96430500D01*
G75*
G02*
X155725500Y-96606000I-175500J0D01*
G01*
X154024500Y-96606000D01*
G75*
G02*
X153849000Y-96430500I0J175500D01*
G01*
G37*
M02*
