G04 #@! TF.GenerationSoftware,KiCad,Pcbnew,(5.1.7-0-10_14)*
G04 #@! TF.CreationDate,2020-10-21T09:18:26+08:00*
G04 #@! TF.ProjectId,Feather_STM32WB55,46656174-6865-4725-9f53-544d33325742,rev?*
G04 #@! TF.SameCoordinates,Original*
G04 #@! TF.FileFunction,Copper,L4,Bot*
G04 #@! TF.FilePolarity,Positive*
%FSLAX46Y46*%
G04 Gerber Fmt 4.6, Leading zero omitted, Abs format (unit mm)*
G04 Created by KiCad (PCBNEW (5.1.7-0-10_14)) date 2020-10-21 09:18:26*
%MOMM*%
%LPD*%
G01*
G04 APERTURE LIST*
G04 #@! TA.AperFunction,ComponentPad*
%ADD10O,1.600000X1.000000*%
G04 #@! TD*
G04 #@! TA.AperFunction,ComponentPad*
%ADD11O,2.100000X1.000000*%
G04 #@! TD*
G04 #@! TA.AperFunction,ComponentPad*
%ADD12O,1.700000X1.700000*%
G04 #@! TD*
G04 #@! TA.AperFunction,ComponentPad*
%ADD13R,1.700000X1.700000*%
G04 #@! TD*
G04 #@! TA.AperFunction,ComponentPad*
%ADD14C,3.200000*%
G04 #@! TD*
G04 #@! TA.AperFunction,SMDPad,CuDef*
%ADD15R,2.000000X0.500000*%
G04 #@! TD*
G04 #@! TA.AperFunction,ViaPad*
%ADD16C,0.800000*%
G04 #@! TD*
G04 #@! TA.AperFunction,ViaPad*
%ADD17C,0.450000*%
G04 #@! TD*
G04 #@! TA.AperFunction,Conductor*
%ADD18C,0.250000*%
G04 #@! TD*
G04 #@! TA.AperFunction,Conductor*
%ADD19C,0.300000*%
G04 #@! TD*
G04 #@! TA.AperFunction,Conductor*
%ADD20C,0.200000*%
G04 #@! TD*
G04 #@! TA.AperFunction,Conductor*
%ADD21C,0.254000*%
G04 #@! TD*
G04 #@! TA.AperFunction,Conductor*
%ADD22C,0.100000*%
G04 #@! TD*
G04 APERTURE END LIST*
D10*
X127195000Y-97026000D03*
X127195000Y-88386000D03*
D11*
X131375000Y-97026000D03*
X131375000Y-88386000D03*
D12*
X171450000Y-82550000D03*
X168910000Y-82550000D03*
X166370000Y-82550000D03*
X163830000Y-82550000D03*
X161290000Y-82550000D03*
X158750000Y-82550000D03*
X156210000Y-82550000D03*
X153670000Y-82550000D03*
X151130000Y-82550000D03*
X148590000Y-82550000D03*
X146050000Y-82550000D03*
D13*
X143510000Y-82550000D03*
D12*
X171450000Y-102870000D03*
X168910000Y-102870000D03*
X166370000Y-102870000D03*
X163830000Y-102870000D03*
X161290000Y-102870000D03*
X158750000Y-102870000D03*
X156210000Y-102870000D03*
X153670000Y-102870000D03*
X151130000Y-102870000D03*
X148590000Y-102870000D03*
X146050000Y-102870000D03*
X143510000Y-102870000D03*
X140970000Y-102870000D03*
X138430000Y-102870000D03*
X135890000Y-102870000D03*
D13*
X133350000Y-102870000D03*
D14*
X129540000Y-83820000D03*
X129540000Y-101600000D03*
D15*
X150750000Y-96107000D03*
X154050000Y-96107000D03*
X150750000Y-95107000D03*
X154050000Y-95107000D03*
X150750000Y-94107000D03*
X154050000Y-94107000D03*
X150750000Y-93107000D03*
X154050000Y-93107000D03*
X150750000Y-92107000D03*
X154050000Y-92107000D03*
G04 #@! TA.AperFunction,SMDPad,CuDef*
G36*
G01*
X159364000Y-96543000D02*
X159364000Y-96243000D01*
G75*
G02*
X159514000Y-96093000I150000J0D01*
G01*
X161164000Y-96093000D01*
G75*
G02*
X161314000Y-96243000I0J-150000D01*
G01*
X161314000Y-96543000D01*
G75*
G02*
X161164000Y-96693000I-150000J0D01*
G01*
X159514000Y-96693000D01*
G75*
G02*
X159364000Y-96543000I0J150000D01*
G01*
G37*
G04 #@! TD.AperFunction*
G04 #@! TA.AperFunction,SMDPad,CuDef*
G36*
G01*
X159364000Y-95273000D02*
X159364000Y-94973000D01*
G75*
G02*
X159514000Y-94823000I150000J0D01*
G01*
X161164000Y-94823000D01*
G75*
G02*
X161314000Y-94973000I0J-150000D01*
G01*
X161314000Y-95273000D01*
G75*
G02*
X161164000Y-95423000I-150000J0D01*
G01*
X159514000Y-95423000D01*
G75*
G02*
X159364000Y-95273000I0J150000D01*
G01*
G37*
G04 #@! TD.AperFunction*
G04 #@! TA.AperFunction,SMDPad,CuDef*
G36*
G01*
X159364000Y-94003000D02*
X159364000Y-93703000D01*
G75*
G02*
X159514000Y-93553000I150000J0D01*
G01*
X161164000Y-93553000D01*
G75*
G02*
X161314000Y-93703000I0J-150000D01*
G01*
X161314000Y-94003000D01*
G75*
G02*
X161164000Y-94153000I-150000J0D01*
G01*
X159514000Y-94153000D01*
G75*
G02*
X159364000Y-94003000I0J150000D01*
G01*
G37*
G04 #@! TD.AperFunction*
G04 #@! TA.AperFunction,SMDPad,CuDef*
G36*
G01*
X159364000Y-92733000D02*
X159364000Y-92433000D01*
G75*
G02*
X159514000Y-92283000I150000J0D01*
G01*
X161164000Y-92283000D01*
G75*
G02*
X161314000Y-92433000I0J-150000D01*
G01*
X161314000Y-92733000D01*
G75*
G02*
X161164000Y-92883000I-150000J0D01*
G01*
X159514000Y-92883000D01*
G75*
G02*
X159364000Y-92733000I0J150000D01*
G01*
G37*
G04 #@! TD.AperFunction*
G04 #@! TA.AperFunction,SMDPad,CuDef*
G36*
G01*
X164314000Y-92733000D02*
X164314000Y-92433000D01*
G75*
G02*
X164464000Y-92283000I150000J0D01*
G01*
X166114000Y-92283000D01*
G75*
G02*
X166264000Y-92433000I0J-150000D01*
G01*
X166264000Y-92733000D01*
G75*
G02*
X166114000Y-92883000I-150000J0D01*
G01*
X164464000Y-92883000D01*
G75*
G02*
X164314000Y-92733000I0J150000D01*
G01*
G37*
G04 #@! TD.AperFunction*
G04 #@! TA.AperFunction,SMDPad,CuDef*
G36*
G01*
X164314000Y-94003000D02*
X164314000Y-93703000D01*
G75*
G02*
X164464000Y-93553000I150000J0D01*
G01*
X166114000Y-93553000D01*
G75*
G02*
X166264000Y-93703000I0J-150000D01*
G01*
X166264000Y-94003000D01*
G75*
G02*
X166114000Y-94153000I-150000J0D01*
G01*
X164464000Y-94153000D01*
G75*
G02*
X164314000Y-94003000I0J150000D01*
G01*
G37*
G04 #@! TD.AperFunction*
G04 #@! TA.AperFunction,SMDPad,CuDef*
G36*
G01*
X164314000Y-95273000D02*
X164314000Y-94973000D01*
G75*
G02*
X164464000Y-94823000I150000J0D01*
G01*
X166114000Y-94823000D01*
G75*
G02*
X166264000Y-94973000I0J-150000D01*
G01*
X166264000Y-95273000D01*
G75*
G02*
X166114000Y-95423000I-150000J0D01*
G01*
X164464000Y-95423000D01*
G75*
G02*
X164314000Y-95273000I0J150000D01*
G01*
G37*
G04 #@! TD.AperFunction*
G04 #@! TA.AperFunction,SMDPad,CuDef*
G36*
G01*
X164314000Y-96543000D02*
X164314000Y-96243000D01*
G75*
G02*
X164464000Y-96093000I150000J0D01*
G01*
X166114000Y-96093000D01*
G75*
G02*
X166264000Y-96243000I0J-150000D01*
G01*
X166264000Y-96543000D01*
G75*
G02*
X166114000Y-96693000I-150000J0D01*
G01*
X164464000Y-96693000D01*
G75*
G02*
X164314000Y-96543000I0J150000D01*
G01*
G37*
G04 #@! TD.AperFunction*
D16*
X136017000Y-86741000D03*
X137541000Y-86741000D03*
X141351000Y-88773000D03*
X130429000Y-90932008D03*
X129921000Y-90297000D03*
X130365507Y-94551507D03*
X129794006Y-95123008D03*
X148971000Y-90678000D03*
X144399000Y-90932000D03*
X140208000Y-93627010D03*
X133100000Y-95100000D03*
X133100000Y-90300000D03*
D17*
X163849171Y-99679941D03*
X167400000Y-100700000D03*
X171069000Y-87630000D03*
X159766000Y-90296989D03*
X170928000Y-86614000D03*
X169330976Y-96985542D03*
X155702000Y-93472000D03*
X155453875Y-94493875D03*
X156463886Y-95630894D03*
X162543201Y-99724979D03*
X169825979Y-96689059D03*
X168696503Y-97803497D03*
X167900000Y-98100000D03*
X132969000Y-83820000D03*
X167408671Y-98608671D03*
X151257000Y-89535000D03*
X150876000Y-84328000D03*
X161163000Y-99724979D03*
X158038969Y-95903228D03*
X157588958Y-96734069D03*
X157876158Y-94643189D03*
X156442512Y-96731012D03*
X164874810Y-100207642D03*
X166327286Y-100694979D03*
X142367000Y-89916000D03*
X133477000Y-100457000D03*
X165585483Y-98298788D03*
X162499923Y-98262900D03*
X163013519Y-98661315D03*
X166043104Y-97837162D03*
D16*
X141097000Y-86741000D03*
X150749000Y-86995000D03*
X135636000Y-93599000D03*
X155194000Y-90424000D03*
X154813000Y-97790000D03*
X159766000Y-84836000D03*
X155956000Y-85090000D03*
D17*
X162100000Y-92700000D03*
X163100000Y-92700000D03*
X162100000Y-93700000D03*
X162100000Y-94700000D03*
X163100000Y-92700000D03*
X162800000Y-95500000D03*
X169130000Y-91720000D03*
X172200000Y-94800000D03*
X172520000Y-90290000D03*
D16*
X166099998Y-88100000D03*
D17*
X172500000Y-101000000D03*
X169130000Y-93720000D03*
D16*
X137700000Y-97900000D03*
X144300000Y-99800000D03*
X169164000Y-88392000D03*
X159258000Y-97790000D03*
X174879000Y-88138004D03*
X155956000Y-86233000D03*
X155956000Y-87122000D03*
X154813000Y-98933000D03*
D17*
X158877000Y-92583000D03*
D16*
X165643352Y-99121767D03*
D17*
X168200000Y-99499994D03*
X169825979Y-95900002D03*
D16*
X143500000Y-98000000D03*
D18*
X166875001Y-100175001D02*
X167400000Y-100700000D01*
X165638409Y-100175001D02*
X166875001Y-100175001D01*
X163849171Y-99679941D02*
X165143349Y-99679941D01*
X165143349Y-99679941D02*
X165638409Y-100175001D01*
X167742989Y-96072150D02*
X167742989Y-91488341D01*
X170950400Y-98100015D02*
X169770854Y-98100015D01*
X167742989Y-91488341D02*
X166551637Y-90296989D01*
X169770854Y-98100015D02*
X167742989Y-96072150D01*
X166551637Y-90296989D02*
X159766000Y-90296989D01*
X170680000Y-97829615D02*
X170950400Y-98100015D01*
X171069000Y-87630000D02*
X170680000Y-88019000D01*
X170680000Y-88019000D02*
X170680000Y-97829615D01*
X169995438Y-97650004D02*
X169330976Y-96985542D01*
X170302989Y-97650004D02*
X169995438Y-97650004D01*
X170302989Y-87239011D02*
X170302989Y-97650004D01*
X170928000Y-86614000D02*
X170302989Y-87239011D01*
X156017675Y-94889325D02*
X156017675Y-93787675D01*
X156017675Y-93787675D02*
X155702000Y-93472000D01*
X154800000Y-96107000D02*
X156017675Y-94889325D01*
X154050000Y-96107000D02*
X154800000Y-96107000D01*
X154840750Y-95107000D02*
X155453875Y-94493875D01*
X154050000Y-95107000D02*
X154840750Y-95107000D01*
X152789999Y-96682001D02*
X155412779Y-96682001D01*
X154050000Y-92107000D02*
X152800000Y-92107000D01*
X152800000Y-92107000D02*
X152527000Y-92380000D01*
X155412779Y-96682001D02*
X156463886Y-95630894D01*
X152527000Y-92380000D02*
X152527000Y-96419002D01*
X152527000Y-96419002D02*
X152789999Y-96682001D01*
X156463886Y-95252919D02*
X157623618Y-94093187D01*
X158530092Y-97243585D02*
X158530092Y-99094092D01*
X157623618Y-94093187D02*
X158153485Y-94093187D01*
X161912314Y-99094092D02*
X162543201Y-99724979D01*
X156463886Y-95630894D02*
X156463886Y-95252919D01*
X158588979Y-97184698D02*
X158530092Y-97243585D01*
X158588979Y-94528681D02*
X158588979Y-97184698D01*
X158153485Y-94093187D02*
X158588979Y-94528681D01*
X158530092Y-99094092D02*
X161912314Y-99094092D01*
X168120000Y-94983080D02*
X169825979Y-96689059D01*
X158750000Y-82550000D02*
X159599999Y-83399999D01*
X160187821Y-83399999D02*
X168120000Y-91332178D01*
X159599999Y-83399999D02*
X160187821Y-83399999D01*
X168120000Y-91332178D02*
X168120000Y-94983080D01*
X159131002Y-90476004D02*
X159501995Y-90846997D01*
X159131001Y-85471001D02*
X159131002Y-90476004D01*
X159501995Y-90846997D02*
X166568471Y-90846997D01*
X166568471Y-90846997D02*
X167365978Y-91644504D01*
X167365978Y-91644504D02*
X167365978Y-96472972D01*
X156210000Y-82550000D02*
X159131001Y-85471001D01*
X167365978Y-96472972D02*
X168696503Y-97803497D01*
X156623002Y-83725001D02*
X158680991Y-85782990D01*
X166988968Y-96732373D02*
X167900000Y-97643405D01*
X166988968Y-91800668D02*
X166988968Y-96732373D01*
X167900000Y-97643405D02*
X167900000Y-98100000D01*
X153670000Y-82550000D02*
X154845001Y-83725001D01*
X158680991Y-85782990D02*
X158680991Y-90662403D01*
X158680991Y-90662403D02*
X159315595Y-91297008D01*
X154845001Y-83725001D02*
X156623002Y-83725001D01*
X159315595Y-91297008D02*
X166485308Y-91297008D01*
X166485308Y-91297008D02*
X166988968Y-91800668D01*
X151130000Y-82550000D02*
X149860000Y-83820000D01*
X149860000Y-83820000D02*
X132969000Y-83820000D01*
X151130000Y-82550000D02*
X151130000Y-83752081D01*
X151130000Y-83752081D02*
X159124938Y-91747019D01*
X167408671Y-97788487D02*
X167408671Y-98608671D01*
X165997665Y-91747019D02*
X166611958Y-92361312D01*
X166611958Y-92361312D02*
X166611958Y-96991774D01*
X159124938Y-91747019D02*
X165997665Y-91747019D01*
X166611958Y-96991774D02*
X167408671Y-97788487D01*
X151481999Y-89310001D02*
X151257000Y-89535000D01*
X151481999Y-84933999D02*
X151481999Y-89310001D01*
X150876000Y-84328000D02*
X151481999Y-84933999D01*
X164638901Y-100768975D02*
X164214895Y-100344969D01*
X169824989Y-101244989D02*
X165156557Y-101244989D01*
X164680543Y-100768975D02*
X164638901Y-100768975D01*
X161782990Y-100344969D02*
X161163000Y-99724979D01*
X171450000Y-102870000D02*
X169824989Y-101244989D01*
X164214895Y-100344969D02*
X161782990Y-100344969D01*
X165156557Y-101244989D02*
X164680543Y-100768975D01*
X158583558Y-99995968D02*
X158048093Y-99460503D01*
X164970157Y-101695000D02*
X164494143Y-101218986D01*
X158048093Y-97089173D02*
X158138968Y-96998298D01*
X168910000Y-102870000D02*
X167735000Y-101695000D01*
X158138968Y-96998298D02*
X158138968Y-96003227D01*
X164494143Y-101218986D02*
X164452501Y-101218986D01*
X158048093Y-99460503D02*
X158048093Y-97089173D01*
X160325199Y-99995968D02*
X158583558Y-99995968D01*
X164452501Y-101218986D02*
X164028495Y-100794980D01*
X164028495Y-100794980D02*
X161124212Y-100794980D01*
X167735000Y-101695000D02*
X164970157Y-101695000D01*
X158138968Y-96003227D02*
X158038969Y-95903228D01*
X161124212Y-100794980D02*
X160325199Y-99995968D01*
X164307744Y-101668997D02*
X164266101Y-101668997D01*
X157588958Y-100438958D02*
X157588958Y-96734069D01*
X160138799Y-100445979D02*
X157595979Y-100445979D01*
X163842096Y-101244991D02*
X160937812Y-101244991D01*
X164266101Y-101668997D02*
X163842096Y-101244991D01*
X165508747Y-102870000D02*
X164307744Y-101668997D01*
X166370000Y-102870000D02*
X165508747Y-102870000D01*
X157595979Y-100445979D02*
X157588958Y-100438958D01*
X160937812Y-101244991D02*
X160138799Y-100445979D01*
X160751409Y-101694999D02*
X159952400Y-100895989D01*
X157038951Y-96948577D02*
X157038951Y-95480396D01*
X163830000Y-102870000D02*
X162654999Y-101694999D01*
X162654999Y-101694999D02*
X160751409Y-101694999D01*
X156904399Y-97083129D02*
X157038951Y-96948577D01*
X159952400Y-100895989D02*
X156904399Y-100895989D01*
X156904399Y-100895989D02*
X156904399Y-97083129D01*
X157038951Y-95480396D02*
X157876158Y-94643189D01*
X161290000Y-102870000D02*
X159766000Y-101346000D01*
X156442512Y-101070512D02*
X156442512Y-96731012D01*
X159766000Y-101346000D02*
X156718000Y-101346000D01*
X156718000Y-101346000D02*
X156442512Y-101070512D01*
X164874810Y-100207642D02*
X165362147Y-100694979D01*
X165362147Y-100694979D02*
X166327286Y-100694979D01*
X134700000Y-99234000D02*
X133477000Y-100457000D01*
X134700000Y-92503000D02*
X134700000Y-99234000D01*
X137287000Y-89916000D02*
X134700000Y-92503000D01*
X142367000Y-89916000D02*
X137287000Y-89916000D01*
X160339000Y-96393000D02*
X160339000Y-96884368D01*
X163424684Y-99211316D02*
X163449000Y-99187000D01*
X162713179Y-99174977D02*
X162749518Y-99211316D01*
X162749518Y-99211316D02*
X163424684Y-99211316D01*
X162629609Y-99174977D02*
X162713179Y-99174977D01*
X160339000Y-96884368D02*
X162629609Y-99174977D01*
X163467816Y-99205816D02*
X164374844Y-98298788D01*
X164374844Y-98298788D02*
X165585483Y-98298788D01*
X160623000Y-95123000D02*
X162499923Y-96999923D01*
X162499923Y-96999923D02*
X162499923Y-98262900D01*
X160339000Y-95123000D02*
X160623000Y-95123000D01*
X163600000Y-98074834D02*
X163013519Y-98661315D01*
X163600000Y-93850000D02*
X163600000Y-98074834D01*
X164867000Y-92583000D02*
X163600000Y-93850000D01*
X165289000Y-92583000D02*
X164867000Y-92583000D01*
X165818105Y-97612163D02*
X166043104Y-97837162D01*
X164826039Y-97612163D02*
X165818105Y-97612163D01*
X164000000Y-96786124D02*
X164826039Y-97612163D01*
X164000000Y-94167000D02*
X164000000Y-96786124D01*
X164314000Y-93853000D02*
X164000000Y-94167000D01*
X165289000Y-93853000D02*
X164314000Y-93853000D01*
X152433000Y-90424000D02*
X150750000Y-92107000D01*
X155194000Y-90424000D02*
X152433000Y-90424000D01*
X149500000Y-92107000D02*
X148971000Y-92636000D01*
X150750000Y-92107000D02*
X149500000Y-92107000D01*
X149500000Y-94107000D02*
X150750000Y-94107000D01*
X148971000Y-93578000D02*
X149500000Y-94107000D01*
X148971000Y-92636000D02*
X148971000Y-93578000D01*
X150750000Y-94107000D02*
X149606000Y-94107000D01*
X150750000Y-95107000D02*
X149209000Y-95107000D01*
X148971000Y-94869000D02*
X148971000Y-93578000D01*
X149209000Y-95107000D02*
X148971000Y-94869000D01*
X162179000Y-92583000D02*
X162572000Y-92976000D01*
X160339000Y-92583000D02*
X162179000Y-92583000D01*
X159258000Y-97790000D02*
X159038990Y-97570990D01*
X159038990Y-97570990D02*
X159038990Y-94178010D01*
X159038990Y-94178010D02*
X159364000Y-93853000D01*
X159364000Y-93853000D02*
X160339000Y-93853000D01*
D19*
X166858395Y-97962395D02*
X165699023Y-99121767D01*
D18*
X165289000Y-96305226D02*
X166641752Y-97657978D01*
X166641752Y-97657978D02*
X166641752Y-98123367D01*
X165289000Y-95123000D02*
X165289000Y-96305226D01*
X165376774Y-96393000D02*
X166858395Y-97874621D01*
X166858395Y-97874621D02*
X166858395Y-97962395D01*
X165289000Y-96393000D02*
X165376774Y-96393000D01*
X166641752Y-98123367D02*
X165643352Y-99121767D01*
D19*
X165699023Y-99121767D02*
X165643352Y-99121767D01*
D20*
X143700000Y-97800000D02*
X143500000Y-98000000D01*
D18*
X145393000Y-96107000D02*
X143500000Y-98000000D01*
X150750000Y-96107000D02*
X145393000Y-96107000D01*
D21*
X173912337Y-82079002D02*
X173722463Y-82363169D01*
X173591675Y-82678919D01*
X173525000Y-83014117D01*
X173525000Y-83355883D01*
X173591675Y-83691081D01*
X173722463Y-84006831D01*
X173912337Y-84290998D01*
X174154002Y-84532663D01*
X174438169Y-84722537D01*
X174753919Y-84853325D01*
X175089117Y-84920000D01*
X175430883Y-84920000D01*
X175766081Y-84853325D01*
X176081831Y-84722537D01*
X176365998Y-84532663D01*
X176607663Y-84290998D01*
X176797537Y-84006831D01*
X176928325Y-83691081D01*
X176995000Y-83355883D01*
X176995000Y-83277338D01*
X177049286Y-83452708D01*
X177090001Y-83840082D01*
X177090000Y-93273000D01*
X174000000Y-93273000D01*
X173975224Y-93275440D01*
X173951399Y-93282667D01*
X173929443Y-93294403D01*
X173910197Y-93310197D01*
X173894403Y-93329443D01*
X173882667Y-93351399D01*
X173875440Y-93375224D01*
X173873000Y-93400000D01*
X173873000Y-101187874D01*
X173722463Y-101413169D01*
X173591675Y-101728919D01*
X173525000Y-102064117D01*
X173525000Y-102405883D01*
X173591675Y-102741081D01*
X173722463Y-103056831D01*
X173912337Y-103340998D01*
X174001339Y-103430000D01*
X172825393Y-103430000D01*
X172877932Y-103303158D01*
X172935000Y-103016260D01*
X172935000Y-102723740D01*
X172877932Y-102436842D01*
X172765990Y-102166589D01*
X172603475Y-101923368D01*
X172396632Y-101716525D01*
X172153411Y-101554010D01*
X171883158Y-101442068D01*
X171596260Y-101385000D01*
X171303740Y-101385000D01*
X171083592Y-101428791D01*
X170388793Y-100733992D01*
X170364990Y-100704988D01*
X170249265Y-100610015D01*
X170117236Y-100539443D01*
X169973975Y-100495986D01*
X169862322Y-100484989D01*
X169862311Y-100484989D01*
X169824989Y-100481313D01*
X169787667Y-100484989D01*
X168234080Y-100484989D01*
X168226951Y-100449147D01*
X168190022Y-100359994D01*
X168284703Y-100359994D01*
X168450853Y-100326945D01*
X168607363Y-100262116D01*
X168748218Y-100167999D01*
X168868005Y-100048212D01*
X168962122Y-99907357D01*
X169026951Y-99750847D01*
X169060000Y-99584697D01*
X169060000Y-99415291D01*
X169026951Y-99249141D01*
X168962122Y-99092631D01*
X168868005Y-98951776D01*
X168748218Y-98831989D01*
X168607363Y-98737872D01*
X168516138Y-98700085D01*
X168562527Y-98653696D01*
X168611800Y-98663497D01*
X168781206Y-98663497D01*
X168947356Y-98630448D01*
X169103866Y-98565619D01*
X169138509Y-98542471D01*
X169207055Y-98611018D01*
X169230853Y-98640016D01*
X169346578Y-98734989D01*
X169478607Y-98805561D01*
X169621868Y-98849018D01*
X169733521Y-98860015D01*
X169733530Y-98860015D01*
X169770853Y-98863691D01*
X169808176Y-98860015D01*
X170913076Y-98860015D01*
X170950399Y-98863691D01*
X170987722Y-98860015D01*
X170987733Y-98860015D01*
X171099386Y-98849018D01*
X171242647Y-98805561D01*
X171374676Y-98734989D01*
X171490401Y-98640016D01*
X171585374Y-98524291D01*
X171655946Y-98392262D01*
X171699403Y-98249001D01*
X171714077Y-98100015D01*
X171699403Y-97951029D01*
X171655946Y-97807768D01*
X171585374Y-97675739D01*
X171490401Y-97560014D01*
X171461397Y-97536211D01*
X171440000Y-97514814D01*
X171440000Y-88407184D01*
X171476363Y-88392122D01*
X171617218Y-88298005D01*
X171737005Y-88178218D01*
X171831122Y-88037363D01*
X171831659Y-88036065D01*
X173844000Y-88036065D01*
X173844000Y-88239943D01*
X173883774Y-88439902D01*
X173961795Y-88628260D01*
X174075063Y-88797778D01*
X174219226Y-88941941D01*
X174388744Y-89055209D01*
X174577102Y-89133230D01*
X174777061Y-89173004D01*
X174980939Y-89173004D01*
X175180898Y-89133230D01*
X175369256Y-89055209D01*
X175538774Y-88941941D01*
X175682937Y-88797778D01*
X175796205Y-88628260D01*
X175874226Y-88439902D01*
X175914000Y-88239943D01*
X175914000Y-88036065D01*
X175874226Y-87836106D01*
X175796205Y-87647748D01*
X175682937Y-87478230D01*
X175538774Y-87334067D01*
X175369256Y-87220799D01*
X175180898Y-87142778D01*
X174980939Y-87103004D01*
X174777061Y-87103004D01*
X174577102Y-87142778D01*
X174388744Y-87220799D01*
X174219226Y-87334067D01*
X174075063Y-87478230D01*
X173961795Y-87647748D01*
X173883774Y-87836106D01*
X173844000Y-88036065D01*
X171831659Y-88036065D01*
X171895951Y-87880853D01*
X171929000Y-87714703D01*
X171929000Y-87545297D01*
X171895951Y-87379147D01*
X171831122Y-87222637D01*
X171737005Y-87081782D01*
X171684700Y-87029477D01*
X171690122Y-87021363D01*
X171754951Y-86864853D01*
X171788000Y-86698703D01*
X171788000Y-86529297D01*
X171754951Y-86363147D01*
X171690122Y-86206637D01*
X171596005Y-86065782D01*
X171476218Y-85945995D01*
X171335363Y-85851878D01*
X171178853Y-85787049D01*
X171012703Y-85754000D01*
X170843297Y-85754000D01*
X170677147Y-85787049D01*
X170520637Y-85851878D01*
X170379782Y-85945995D01*
X170259995Y-86065782D01*
X170165878Y-86206637D01*
X170101049Y-86363147D01*
X170100303Y-86366895D01*
X169791991Y-86675208D01*
X169762988Y-86699010D01*
X169718529Y-86753184D01*
X169668015Y-86814735D01*
X169609369Y-86924454D01*
X169597443Y-86946765D01*
X169553986Y-87090026D01*
X169542989Y-87201679D01*
X169542989Y-87201689D01*
X169539313Y-87239011D01*
X169542989Y-87276333D01*
X169542989Y-87428706D01*
X169465898Y-87396774D01*
X169265939Y-87357000D01*
X169062061Y-87357000D01*
X168862102Y-87396774D01*
X168673744Y-87474795D01*
X168504226Y-87588063D01*
X168360063Y-87732226D01*
X168246795Y-87901744D01*
X168168774Y-88090102D01*
X168129000Y-88290061D01*
X168129000Y-88493939D01*
X168168774Y-88693898D01*
X168246795Y-88882256D01*
X168360063Y-89051774D01*
X168504226Y-89195937D01*
X168673744Y-89309205D01*
X168862102Y-89387226D01*
X169062061Y-89427000D01*
X169265939Y-89427000D01*
X169465898Y-89387226D01*
X169542989Y-89355294D01*
X169542990Y-95086362D01*
X169418616Y-95137880D01*
X169377245Y-95165523D01*
X168880000Y-94668279D01*
X168880000Y-91369500D01*
X168883676Y-91332177D01*
X168880000Y-91294854D01*
X168880000Y-91294845D01*
X168869003Y-91183192D01*
X168825546Y-91039931D01*
X168802055Y-90995983D01*
X168754974Y-90907901D01*
X168683799Y-90821175D01*
X168660001Y-90792177D01*
X168631004Y-90768380D01*
X161806170Y-83943547D01*
X161993411Y-83865990D01*
X162236632Y-83703475D01*
X162443475Y-83496632D01*
X162560000Y-83322240D01*
X162676525Y-83496632D01*
X162883368Y-83703475D01*
X163126589Y-83865990D01*
X163396842Y-83977932D01*
X163683740Y-84035000D01*
X163976260Y-84035000D01*
X164263158Y-83977932D01*
X164533411Y-83865990D01*
X164776632Y-83703475D01*
X164983475Y-83496632D01*
X165100000Y-83322240D01*
X165216525Y-83496632D01*
X165423368Y-83703475D01*
X165666589Y-83865990D01*
X165936842Y-83977932D01*
X166223740Y-84035000D01*
X166516260Y-84035000D01*
X166803158Y-83977932D01*
X167073411Y-83865990D01*
X167316632Y-83703475D01*
X167523475Y-83496632D01*
X167640000Y-83322240D01*
X167756525Y-83496632D01*
X167963368Y-83703475D01*
X168206589Y-83865990D01*
X168476842Y-83977932D01*
X168763740Y-84035000D01*
X169056260Y-84035000D01*
X169343158Y-83977932D01*
X169613411Y-83865990D01*
X169856632Y-83703475D01*
X170063475Y-83496632D01*
X170180000Y-83322240D01*
X170296525Y-83496632D01*
X170503368Y-83703475D01*
X170746589Y-83865990D01*
X171016842Y-83977932D01*
X171303740Y-84035000D01*
X171596260Y-84035000D01*
X171883158Y-83977932D01*
X172153411Y-83865990D01*
X172396632Y-83703475D01*
X172603475Y-83496632D01*
X172765990Y-83253411D01*
X172877932Y-82983158D01*
X172935000Y-82696260D01*
X172935000Y-82403740D01*
X172877932Y-82116842D01*
X172825393Y-81990000D01*
X174001339Y-81990000D01*
X173912337Y-82079002D01*
G04 #@! TA.AperFunction,Conductor*
D22*
G36*
X173912337Y-82079002D02*
G01*
X173722463Y-82363169D01*
X173591675Y-82678919D01*
X173525000Y-83014117D01*
X173525000Y-83355883D01*
X173591675Y-83691081D01*
X173722463Y-84006831D01*
X173912337Y-84290998D01*
X174154002Y-84532663D01*
X174438169Y-84722537D01*
X174753919Y-84853325D01*
X175089117Y-84920000D01*
X175430883Y-84920000D01*
X175766081Y-84853325D01*
X176081831Y-84722537D01*
X176365998Y-84532663D01*
X176607663Y-84290998D01*
X176797537Y-84006831D01*
X176928325Y-83691081D01*
X176995000Y-83355883D01*
X176995000Y-83277338D01*
X177049286Y-83452708D01*
X177090001Y-83840082D01*
X177090000Y-93273000D01*
X174000000Y-93273000D01*
X173975224Y-93275440D01*
X173951399Y-93282667D01*
X173929443Y-93294403D01*
X173910197Y-93310197D01*
X173894403Y-93329443D01*
X173882667Y-93351399D01*
X173875440Y-93375224D01*
X173873000Y-93400000D01*
X173873000Y-101187874D01*
X173722463Y-101413169D01*
X173591675Y-101728919D01*
X173525000Y-102064117D01*
X173525000Y-102405883D01*
X173591675Y-102741081D01*
X173722463Y-103056831D01*
X173912337Y-103340998D01*
X174001339Y-103430000D01*
X172825393Y-103430000D01*
X172877932Y-103303158D01*
X172935000Y-103016260D01*
X172935000Y-102723740D01*
X172877932Y-102436842D01*
X172765990Y-102166589D01*
X172603475Y-101923368D01*
X172396632Y-101716525D01*
X172153411Y-101554010D01*
X171883158Y-101442068D01*
X171596260Y-101385000D01*
X171303740Y-101385000D01*
X171083592Y-101428791D01*
X170388793Y-100733992D01*
X170364990Y-100704988D01*
X170249265Y-100610015D01*
X170117236Y-100539443D01*
X169973975Y-100495986D01*
X169862322Y-100484989D01*
X169862311Y-100484989D01*
X169824989Y-100481313D01*
X169787667Y-100484989D01*
X168234080Y-100484989D01*
X168226951Y-100449147D01*
X168190022Y-100359994D01*
X168284703Y-100359994D01*
X168450853Y-100326945D01*
X168607363Y-100262116D01*
X168748218Y-100167999D01*
X168868005Y-100048212D01*
X168962122Y-99907357D01*
X169026951Y-99750847D01*
X169060000Y-99584697D01*
X169060000Y-99415291D01*
X169026951Y-99249141D01*
X168962122Y-99092631D01*
X168868005Y-98951776D01*
X168748218Y-98831989D01*
X168607363Y-98737872D01*
X168516138Y-98700085D01*
X168562527Y-98653696D01*
X168611800Y-98663497D01*
X168781206Y-98663497D01*
X168947356Y-98630448D01*
X169103866Y-98565619D01*
X169138509Y-98542471D01*
X169207055Y-98611018D01*
X169230853Y-98640016D01*
X169346578Y-98734989D01*
X169478607Y-98805561D01*
X169621868Y-98849018D01*
X169733521Y-98860015D01*
X169733530Y-98860015D01*
X169770853Y-98863691D01*
X169808176Y-98860015D01*
X170913076Y-98860015D01*
X170950399Y-98863691D01*
X170987722Y-98860015D01*
X170987733Y-98860015D01*
X171099386Y-98849018D01*
X171242647Y-98805561D01*
X171374676Y-98734989D01*
X171490401Y-98640016D01*
X171585374Y-98524291D01*
X171655946Y-98392262D01*
X171699403Y-98249001D01*
X171714077Y-98100015D01*
X171699403Y-97951029D01*
X171655946Y-97807768D01*
X171585374Y-97675739D01*
X171490401Y-97560014D01*
X171461397Y-97536211D01*
X171440000Y-97514814D01*
X171440000Y-88407184D01*
X171476363Y-88392122D01*
X171617218Y-88298005D01*
X171737005Y-88178218D01*
X171831122Y-88037363D01*
X171831659Y-88036065D01*
X173844000Y-88036065D01*
X173844000Y-88239943D01*
X173883774Y-88439902D01*
X173961795Y-88628260D01*
X174075063Y-88797778D01*
X174219226Y-88941941D01*
X174388744Y-89055209D01*
X174577102Y-89133230D01*
X174777061Y-89173004D01*
X174980939Y-89173004D01*
X175180898Y-89133230D01*
X175369256Y-89055209D01*
X175538774Y-88941941D01*
X175682937Y-88797778D01*
X175796205Y-88628260D01*
X175874226Y-88439902D01*
X175914000Y-88239943D01*
X175914000Y-88036065D01*
X175874226Y-87836106D01*
X175796205Y-87647748D01*
X175682937Y-87478230D01*
X175538774Y-87334067D01*
X175369256Y-87220799D01*
X175180898Y-87142778D01*
X174980939Y-87103004D01*
X174777061Y-87103004D01*
X174577102Y-87142778D01*
X174388744Y-87220799D01*
X174219226Y-87334067D01*
X174075063Y-87478230D01*
X173961795Y-87647748D01*
X173883774Y-87836106D01*
X173844000Y-88036065D01*
X171831659Y-88036065D01*
X171895951Y-87880853D01*
X171929000Y-87714703D01*
X171929000Y-87545297D01*
X171895951Y-87379147D01*
X171831122Y-87222637D01*
X171737005Y-87081782D01*
X171684700Y-87029477D01*
X171690122Y-87021363D01*
X171754951Y-86864853D01*
X171788000Y-86698703D01*
X171788000Y-86529297D01*
X171754951Y-86363147D01*
X171690122Y-86206637D01*
X171596005Y-86065782D01*
X171476218Y-85945995D01*
X171335363Y-85851878D01*
X171178853Y-85787049D01*
X171012703Y-85754000D01*
X170843297Y-85754000D01*
X170677147Y-85787049D01*
X170520637Y-85851878D01*
X170379782Y-85945995D01*
X170259995Y-86065782D01*
X170165878Y-86206637D01*
X170101049Y-86363147D01*
X170100303Y-86366895D01*
X169791991Y-86675208D01*
X169762988Y-86699010D01*
X169718529Y-86753184D01*
X169668015Y-86814735D01*
X169609369Y-86924454D01*
X169597443Y-86946765D01*
X169553986Y-87090026D01*
X169542989Y-87201679D01*
X169542989Y-87201689D01*
X169539313Y-87239011D01*
X169542989Y-87276333D01*
X169542989Y-87428706D01*
X169465898Y-87396774D01*
X169265939Y-87357000D01*
X169062061Y-87357000D01*
X168862102Y-87396774D01*
X168673744Y-87474795D01*
X168504226Y-87588063D01*
X168360063Y-87732226D01*
X168246795Y-87901744D01*
X168168774Y-88090102D01*
X168129000Y-88290061D01*
X168129000Y-88493939D01*
X168168774Y-88693898D01*
X168246795Y-88882256D01*
X168360063Y-89051774D01*
X168504226Y-89195937D01*
X168673744Y-89309205D01*
X168862102Y-89387226D01*
X169062061Y-89427000D01*
X169265939Y-89427000D01*
X169465898Y-89387226D01*
X169542989Y-89355294D01*
X169542990Y-95086362D01*
X169418616Y-95137880D01*
X169377245Y-95165523D01*
X168880000Y-94668279D01*
X168880000Y-91369500D01*
X168883676Y-91332177D01*
X168880000Y-91294854D01*
X168880000Y-91294845D01*
X168869003Y-91183192D01*
X168825546Y-91039931D01*
X168802055Y-90995983D01*
X168754974Y-90907901D01*
X168683799Y-90821175D01*
X168660001Y-90792177D01*
X168631004Y-90768380D01*
X161806170Y-83943547D01*
X161993411Y-83865990D01*
X162236632Y-83703475D01*
X162443475Y-83496632D01*
X162560000Y-83322240D01*
X162676525Y-83496632D01*
X162883368Y-83703475D01*
X163126589Y-83865990D01*
X163396842Y-83977932D01*
X163683740Y-84035000D01*
X163976260Y-84035000D01*
X164263158Y-83977932D01*
X164533411Y-83865990D01*
X164776632Y-83703475D01*
X164983475Y-83496632D01*
X165100000Y-83322240D01*
X165216525Y-83496632D01*
X165423368Y-83703475D01*
X165666589Y-83865990D01*
X165936842Y-83977932D01*
X166223740Y-84035000D01*
X166516260Y-84035000D01*
X166803158Y-83977932D01*
X167073411Y-83865990D01*
X167316632Y-83703475D01*
X167523475Y-83496632D01*
X167640000Y-83322240D01*
X167756525Y-83496632D01*
X167963368Y-83703475D01*
X168206589Y-83865990D01*
X168476842Y-83977932D01*
X168763740Y-84035000D01*
X169056260Y-84035000D01*
X169343158Y-83977932D01*
X169613411Y-83865990D01*
X169856632Y-83703475D01*
X170063475Y-83496632D01*
X170180000Y-83322240D01*
X170296525Y-83496632D01*
X170503368Y-83703475D01*
X170746589Y-83865990D01*
X171016842Y-83977932D01*
X171303740Y-84035000D01*
X171596260Y-84035000D01*
X171883158Y-83977932D01*
X172153411Y-83865990D01*
X172396632Y-83703475D01*
X172603475Y-83496632D01*
X172765990Y-83253411D01*
X172877932Y-82983158D01*
X172935000Y-82696260D01*
X172935000Y-82403740D01*
X172877932Y-82116842D01*
X172825393Y-81990000D01*
X174001339Y-81990000D01*
X173912337Y-82079002D01*
G37*
G04 #@! TD.AperFunction*
D21*
X142021928Y-83060000D02*
X133379539Y-83060000D01*
X133376363Y-83057878D01*
X133219853Y-82993049D01*
X133053703Y-82960000D01*
X132884297Y-82960000D01*
X132718147Y-82993049D01*
X132561637Y-83057878D01*
X132420782Y-83151995D01*
X132300995Y-83271782D01*
X132206878Y-83412637D01*
X132142049Y-83569147D01*
X132109000Y-83735297D01*
X132109000Y-83904703D01*
X132142049Y-84070853D01*
X132206878Y-84227363D01*
X132300995Y-84368218D01*
X132420782Y-84488005D01*
X132561637Y-84582122D01*
X132718147Y-84646951D01*
X132884297Y-84680000D01*
X133053703Y-84680000D01*
X133219853Y-84646951D01*
X133376363Y-84582122D01*
X133379539Y-84580000D01*
X149822678Y-84580000D01*
X149860000Y-84583676D01*
X149897322Y-84580000D01*
X149897333Y-84580000D01*
X150008986Y-84569003D01*
X150044921Y-84558102D01*
X150049049Y-84578853D01*
X150113878Y-84735363D01*
X150207995Y-84876218D01*
X150327782Y-84996005D01*
X150468637Y-85090122D01*
X150625147Y-85154951D01*
X150628895Y-85155697D01*
X150721999Y-85248801D01*
X150722000Y-88858163D01*
X150708782Y-88866995D01*
X150588995Y-88986782D01*
X150494878Y-89127637D01*
X150430049Y-89284147D01*
X150397000Y-89450297D01*
X150397000Y-89619703D01*
X150430049Y-89785853D01*
X150494878Y-89942363D01*
X150588995Y-90083218D01*
X150708782Y-90203005D01*
X150849637Y-90297122D01*
X151006147Y-90361951D01*
X151172297Y-90395000D01*
X151341703Y-90395000D01*
X151507853Y-90361951D01*
X151664363Y-90297122D01*
X151805218Y-90203005D01*
X151925005Y-90083218D01*
X152019122Y-89942363D01*
X152083951Y-89785853D01*
X152086928Y-89770887D01*
X152116973Y-89734277D01*
X152187545Y-89602248D01*
X152231002Y-89458987D01*
X152241999Y-89347334D01*
X152241999Y-89347326D01*
X152245675Y-89310001D01*
X152241999Y-89272676D01*
X152241999Y-85938881D01*
X158273447Y-91970330D01*
X158208995Y-92034782D01*
X158114878Y-92175637D01*
X158050049Y-92332147D01*
X158017000Y-92498297D01*
X158017000Y-92667703D01*
X158050049Y-92833853D01*
X158114878Y-92990363D01*
X158208995Y-93131218D01*
X158328782Y-93251005D01*
X158469637Y-93345122D01*
X158626147Y-93409951D01*
X158714645Y-93427554D01*
X158636105Y-93506094D01*
X158577761Y-93458213D01*
X158445732Y-93387641D01*
X158302471Y-93344184D01*
X158190818Y-93333187D01*
X158190807Y-93333187D01*
X158153485Y-93329511D01*
X158116163Y-93333187D01*
X157660943Y-93333187D01*
X157623618Y-93329511D01*
X157586293Y-93333187D01*
X157586285Y-93333187D01*
X157474632Y-93344184D01*
X157331371Y-93387641D01*
X157199342Y-93458213D01*
X157083617Y-93553186D01*
X157059819Y-93582184D01*
X156777675Y-93864328D01*
X156777675Y-93824998D01*
X156781351Y-93787675D01*
X156777675Y-93750352D01*
X156777675Y-93750342D01*
X156766678Y-93638689D01*
X156723221Y-93495428D01*
X156652649Y-93363399D01*
X156557676Y-93247674D01*
X156529653Y-93224676D01*
X156528951Y-93221147D01*
X156464122Y-93064637D01*
X156370005Y-92923782D01*
X156250218Y-92803995D01*
X156109363Y-92709878D01*
X155952853Y-92645049D01*
X155786703Y-92612000D01*
X155639064Y-92612000D01*
X155636391Y-92607000D01*
X155639502Y-92601180D01*
X155675812Y-92481482D01*
X155688072Y-92357000D01*
X155688072Y-91857000D01*
X155675812Y-91732518D01*
X155639502Y-91612820D01*
X155580537Y-91502506D01*
X155501185Y-91405815D01*
X155404494Y-91326463D01*
X155294180Y-91267498D01*
X155174482Y-91231188D01*
X155050000Y-91218928D01*
X153050000Y-91218928D01*
X152925518Y-91231188D01*
X152805820Y-91267498D01*
X152695506Y-91326463D01*
X152657909Y-91357318D01*
X152651014Y-91357997D01*
X152507753Y-91401454D01*
X152375724Y-91472026D01*
X152298036Y-91535783D01*
X152276228Y-91496140D01*
X152195716Y-91400412D01*
X152098076Y-91322230D01*
X151987059Y-91264599D01*
X151866933Y-91229734D01*
X151742312Y-91218974D01*
X151035750Y-91222000D01*
X150877000Y-91380750D01*
X150877000Y-91984000D01*
X150897000Y-91984000D01*
X150897000Y-92218928D01*
X149750000Y-92218928D01*
X149637580Y-92230000D01*
X149273750Y-92230000D01*
X149115000Y-92388750D01*
X149125734Y-92489013D01*
X149163279Y-92607618D01*
X149160498Y-92612820D01*
X149124188Y-92732518D01*
X149111928Y-92857000D01*
X149111928Y-93357000D01*
X149124188Y-93481482D01*
X149160498Y-93601180D01*
X149163279Y-93606382D01*
X149125734Y-93724987D01*
X149115000Y-93825250D01*
X149273750Y-93984000D01*
X149637580Y-93984000D01*
X149750000Y-93995072D01*
X150897000Y-93995072D01*
X150897000Y-94230000D01*
X150877000Y-94230000D01*
X150877000Y-94984000D01*
X150897000Y-94984000D01*
X150897000Y-95218928D01*
X149750000Y-95218928D01*
X149637580Y-95230000D01*
X149273750Y-95230000D01*
X149156750Y-95347000D01*
X145430322Y-95347000D01*
X145392999Y-95343324D01*
X145355676Y-95347000D01*
X145355667Y-95347000D01*
X145244014Y-95357997D01*
X145100753Y-95401454D01*
X144968724Y-95472026D01*
X144852999Y-95566999D01*
X144829201Y-95595997D01*
X143460199Y-96965000D01*
X143398061Y-96965000D01*
X143198102Y-97004774D01*
X143009744Y-97082795D01*
X142840226Y-97196063D01*
X142696063Y-97340226D01*
X142582795Y-97509744D01*
X142504774Y-97698102D01*
X142465000Y-97898061D01*
X142465000Y-98101939D01*
X142504774Y-98301898D01*
X142582795Y-98490256D01*
X142696063Y-98659774D01*
X142840226Y-98803937D01*
X143009744Y-98917205D01*
X143198102Y-98995226D01*
X143398061Y-99035000D01*
X143601939Y-99035000D01*
X143801898Y-98995226D01*
X143990256Y-98917205D01*
X144159774Y-98803937D01*
X144303937Y-98659774D01*
X144417205Y-98490256D01*
X144495226Y-98301898D01*
X144535000Y-98101939D01*
X144535000Y-98039801D01*
X145707802Y-96867000D01*
X149370482Y-96867000D01*
X149395506Y-96887537D01*
X149505820Y-96946502D01*
X149625518Y-96982812D01*
X149750000Y-96995072D01*
X151750000Y-96995072D01*
X151874482Y-96982812D01*
X151980217Y-96950738D01*
X151987000Y-96959003D01*
X152015998Y-96982801D01*
X152226195Y-97192998D01*
X152249998Y-97222002D01*
X152365723Y-97316975D01*
X152497752Y-97387547D01*
X152641013Y-97431004D01*
X152752666Y-97442001D01*
X152752674Y-97442001D01*
X152789999Y-97445677D01*
X152827324Y-97442001D01*
X155375457Y-97442001D01*
X155412779Y-97445677D01*
X155450101Y-97442001D01*
X155450112Y-97442001D01*
X155561765Y-97431004D01*
X155682513Y-97394376D01*
X155682513Y-98371367D01*
X155616937Y-98273226D01*
X155472774Y-98129063D01*
X155303256Y-98015795D01*
X155114898Y-97937774D01*
X154914939Y-97898000D01*
X154711061Y-97898000D01*
X154511102Y-97937774D01*
X154322744Y-98015795D01*
X154153226Y-98129063D01*
X154009063Y-98273226D01*
X153895795Y-98442744D01*
X153817774Y-98631102D01*
X153778000Y-98831061D01*
X153778000Y-99034939D01*
X153817774Y-99234898D01*
X153895795Y-99423256D01*
X154009063Y-99592774D01*
X154153226Y-99736937D01*
X154322744Y-99850205D01*
X154511102Y-99928226D01*
X154711061Y-99968000D01*
X154914939Y-99968000D01*
X155114898Y-99928226D01*
X155303256Y-99850205D01*
X155472774Y-99736937D01*
X155616937Y-99592774D01*
X155682512Y-99494633D01*
X155682512Y-101033189D01*
X155678836Y-101070512D01*
X155682512Y-101107834D01*
X155682512Y-101107844D01*
X155693509Y-101219497D01*
X155727015Y-101329953D01*
X155736966Y-101362758D01*
X155779117Y-101441616D01*
X155776842Y-101442068D01*
X155506589Y-101554010D01*
X155263368Y-101716525D01*
X155056525Y-101923368D01*
X154940000Y-102097760D01*
X154823475Y-101923368D01*
X154616632Y-101716525D01*
X154373411Y-101554010D01*
X154103158Y-101442068D01*
X153816260Y-101385000D01*
X153523740Y-101385000D01*
X153236842Y-101442068D01*
X152966589Y-101554010D01*
X152723368Y-101716525D01*
X152516525Y-101923368D01*
X152400000Y-102097760D01*
X152283475Y-101923368D01*
X152076632Y-101716525D01*
X151833411Y-101554010D01*
X151563158Y-101442068D01*
X151276260Y-101385000D01*
X150983740Y-101385000D01*
X150696842Y-101442068D01*
X150426589Y-101554010D01*
X150183368Y-101716525D01*
X149976525Y-101923368D01*
X149860000Y-102097760D01*
X149743475Y-101923368D01*
X149536632Y-101716525D01*
X149293411Y-101554010D01*
X149023158Y-101442068D01*
X148736260Y-101385000D01*
X148443740Y-101385000D01*
X148156842Y-101442068D01*
X147886589Y-101554010D01*
X147643368Y-101716525D01*
X147436525Y-101923368D01*
X147320000Y-102097760D01*
X147203475Y-101923368D01*
X146996632Y-101716525D01*
X146753411Y-101554010D01*
X146483158Y-101442068D01*
X146196260Y-101385000D01*
X145903740Y-101385000D01*
X145616842Y-101442068D01*
X145346589Y-101554010D01*
X145103368Y-101716525D01*
X144896525Y-101923368D01*
X144780000Y-102097760D01*
X144663475Y-101923368D01*
X144456632Y-101716525D01*
X144213411Y-101554010D01*
X143943158Y-101442068D01*
X143656260Y-101385000D01*
X143363740Y-101385000D01*
X143076842Y-101442068D01*
X142806589Y-101554010D01*
X142563368Y-101716525D01*
X142356525Y-101923368D01*
X142234805Y-102105534D01*
X142165178Y-101988645D01*
X141970269Y-101772412D01*
X141736920Y-101598359D01*
X141474099Y-101473175D01*
X141326890Y-101428524D01*
X141097000Y-101549845D01*
X141097000Y-102743000D01*
X141117000Y-102743000D01*
X141117000Y-102997000D01*
X141097000Y-102997000D01*
X141097000Y-103017000D01*
X140843000Y-103017000D01*
X140843000Y-102997000D01*
X140823000Y-102997000D01*
X140823000Y-102743000D01*
X140843000Y-102743000D01*
X140843000Y-101549845D01*
X140613110Y-101428524D01*
X140465901Y-101473175D01*
X140203080Y-101598359D01*
X139969731Y-101772412D01*
X139774822Y-101988645D01*
X139705195Y-102105534D01*
X139583475Y-101923368D01*
X139376632Y-101716525D01*
X139133411Y-101554010D01*
X138863158Y-101442068D01*
X138576260Y-101385000D01*
X138283740Y-101385000D01*
X137996842Y-101442068D01*
X137726589Y-101554010D01*
X137483368Y-101716525D01*
X137276525Y-101923368D01*
X137160000Y-102097760D01*
X137043475Y-101923368D01*
X136836632Y-101716525D01*
X136593411Y-101554010D01*
X136323158Y-101442068D01*
X136036260Y-101385000D01*
X135743740Y-101385000D01*
X135456842Y-101442068D01*
X135186589Y-101554010D01*
X134943368Y-101716525D01*
X134811513Y-101848380D01*
X134789502Y-101775820D01*
X134730537Y-101665506D01*
X134651185Y-101568815D01*
X134554494Y-101489463D01*
X134444180Y-101430498D01*
X134324482Y-101394188D01*
X134200000Y-101381928D01*
X132500000Y-101381928D01*
X132375518Y-101394188D01*
X132255820Y-101430498D01*
X132145506Y-101489463D01*
X132048815Y-101568815D01*
X131969463Y-101665506D01*
X131910498Y-101775820D01*
X131874188Y-101895518D01*
X131861928Y-102020000D01*
X131861928Y-103430000D01*
X130824105Y-103430000D01*
X130964729Y-103336038D01*
X131276038Y-103024729D01*
X131520631Y-102658669D01*
X131689110Y-102251925D01*
X131775000Y-101820128D01*
X131775000Y-101379872D01*
X131689110Y-100948075D01*
X131520631Y-100541331D01*
X131276038Y-100175271D01*
X130964729Y-99863962D01*
X130598669Y-99619369D01*
X130191925Y-99450890D01*
X129760128Y-99365000D01*
X129319872Y-99365000D01*
X128888075Y-99450890D01*
X128481331Y-99619369D01*
X128115271Y-99863962D01*
X127803962Y-100175271D01*
X127710000Y-100315895D01*
X127710000Y-98840875D01*
X127713435Y-98806000D01*
X127709693Y-98768005D01*
X127699727Y-98666816D01*
X127659128Y-98532980D01*
X127593200Y-98409637D01*
X127504474Y-98301525D01*
X127477383Y-98279292D01*
X127359091Y-98161000D01*
X127622000Y-98161000D01*
X127840987Y-98114415D01*
X128046678Y-98026003D01*
X128231169Y-97899161D01*
X128387369Y-97738764D01*
X128509276Y-97550976D01*
X128589119Y-97327874D01*
X129730881Y-97327874D01*
X129810724Y-97550976D01*
X129932631Y-97738764D01*
X130088831Y-97899161D01*
X130273322Y-98026003D01*
X130479013Y-98114415D01*
X130698000Y-98161000D01*
X131248000Y-98161000D01*
X131248000Y-97153000D01*
X131502000Y-97153000D01*
X131502000Y-98161000D01*
X132052000Y-98161000D01*
X132270987Y-98114415D01*
X132476678Y-98026003D01*
X132661169Y-97899161D01*
X132817369Y-97738764D01*
X132939276Y-97550976D01*
X133019119Y-97327874D01*
X132892954Y-97153000D01*
X131502000Y-97153000D01*
X131248000Y-97153000D01*
X129857046Y-97153000D01*
X129730881Y-97327874D01*
X128589119Y-97327874D01*
X128462954Y-97153000D01*
X127322000Y-97153000D01*
X127322000Y-97173000D01*
X127068000Y-97173000D01*
X127068000Y-97153000D01*
X127048000Y-97153000D01*
X127048000Y-96899000D01*
X127068000Y-96899000D01*
X127068000Y-95891000D01*
X127322000Y-95891000D01*
X127322000Y-96899000D01*
X128462954Y-96899000D01*
X128589119Y-96724126D01*
X128509276Y-96501024D01*
X128387369Y-96313236D01*
X128231169Y-96152839D01*
X128046678Y-96025997D01*
X127840987Y-95937585D01*
X127622000Y-95891000D01*
X127322000Y-95891000D01*
X127068000Y-95891000D01*
X126768000Y-95891000D01*
X126549013Y-95937585D01*
X126343322Y-96025997D01*
X126158831Y-96152839D01*
X126059000Y-96255352D01*
X126059000Y-95021069D01*
X128759006Y-95021069D01*
X128759006Y-95224947D01*
X128798780Y-95424906D01*
X128876801Y-95613264D01*
X128990069Y-95782782D01*
X129134232Y-95926945D01*
X129303750Y-96040213D01*
X129492108Y-96118234D01*
X129692067Y-96158008D01*
X129895945Y-96158008D01*
X130072477Y-96122894D01*
X130091335Y-96151117D01*
X130088831Y-96152839D01*
X129932631Y-96313236D01*
X129810724Y-96501024D01*
X129730881Y-96724126D01*
X129857046Y-96899000D01*
X131248000Y-96899000D01*
X131248000Y-96879000D01*
X131502000Y-96879000D01*
X131502000Y-96899000D01*
X132892954Y-96899000D01*
X133019119Y-96724126D01*
X132939276Y-96501024D01*
X132817369Y-96313236D01*
X132661169Y-96152839D01*
X132476678Y-96025997D01*
X132270987Y-95937585D01*
X132052000Y-95891000D01*
X131791904Y-95891000D01*
X131798108Y-95876022D01*
X131835000Y-95690552D01*
X131835000Y-95501448D01*
X131798108Y-95315978D01*
X131725741Y-95141269D01*
X131630053Y-94998061D01*
X132065000Y-94998061D01*
X132065000Y-95201939D01*
X132104774Y-95401898D01*
X132182795Y-95590256D01*
X132296063Y-95759774D01*
X132440226Y-95903937D01*
X132609744Y-96017205D01*
X132798102Y-96095226D01*
X132998061Y-96135000D01*
X133201939Y-96135000D01*
X133401898Y-96095226D01*
X133590256Y-96017205D01*
X133759774Y-95903937D01*
X133903937Y-95759774D01*
X133940000Y-95705801D01*
X133940001Y-98919197D01*
X133229895Y-99629303D01*
X133226147Y-99630049D01*
X133069637Y-99694878D01*
X132928782Y-99788995D01*
X132808995Y-99908782D01*
X132714878Y-100049637D01*
X132650049Y-100206147D01*
X132617000Y-100372297D01*
X132617000Y-100541703D01*
X132650049Y-100707853D01*
X132714878Y-100864363D01*
X132808995Y-101005218D01*
X132928782Y-101125005D01*
X133069637Y-101219122D01*
X133226147Y-101283951D01*
X133392297Y-101317000D01*
X133561703Y-101317000D01*
X133727853Y-101283951D01*
X133884363Y-101219122D01*
X134025218Y-101125005D01*
X134145005Y-101005218D01*
X134239122Y-100864363D01*
X134303951Y-100707853D01*
X134304697Y-100704105D01*
X135211003Y-99797799D01*
X135240001Y-99774001D01*
X135334974Y-99658276D01*
X135405546Y-99526247D01*
X135449003Y-99382986D01*
X135460000Y-99271333D01*
X135460000Y-99271324D01*
X135463676Y-99234001D01*
X135460000Y-99196678D01*
X135460000Y-93525071D01*
X139173000Y-93525071D01*
X139173000Y-93728949D01*
X139212774Y-93928908D01*
X139290795Y-94117266D01*
X139404063Y-94286784D01*
X139548226Y-94430947D01*
X139717744Y-94544215D01*
X139906102Y-94622236D01*
X140106061Y-94662010D01*
X140309939Y-94662010D01*
X140509898Y-94622236D01*
X140698256Y-94544215D01*
X140867774Y-94430947D01*
X140909971Y-94388750D01*
X149115000Y-94388750D01*
X149125734Y-94489013D01*
X149163083Y-94607000D01*
X149125734Y-94724987D01*
X149115000Y-94825250D01*
X149273750Y-94984000D01*
X149632151Y-94984000D01*
X149633067Y-94984266D01*
X149757688Y-94995026D01*
X150464250Y-94992000D01*
X150472250Y-94984000D01*
X150623000Y-94984000D01*
X150623000Y-94230000D01*
X150472250Y-94230000D01*
X150464250Y-94222000D01*
X149757688Y-94218974D01*
X149633067Y-94229734D01*
X149632151Y-94230000D01*
X149273750Y-94230000D01*
X149115000Y-94388750D01*
X140909971Y-94388750D01*
X141011937Y-94286784D01*
X141125205Y-94117266D01*
X141203226Y-93928908D01*
X141243000Y-93728949D01*
X141243000Y-93525071D01*
X141203226Y-93325112D01*
X141125205Y-93136754D01*
X141011937Y-92967236D01*
X140867774Y-92823073D01*
X140698256Y-92709805D01*
X140509898Y-92631784D01*
X140309939Y-92592010D01*
X140106061Y-92592010D01*
X139906102Y-92631784D01*
X139717744Y-92709805D01*
X139548226Y-92823073D01*
X139404063Y-92967236D01*
X139290795Y-93136754D01*
X139212774Y-93325112D01*
X139173000Y-93525071D01*
X135460000Y-93525071D01*
X135460000Y-92817801D01*
X137447741Y-90830061D01*
X143364000Y-90830061D01*
X143364000Y-91033939D01*
X143403774Y-91233898D01*
X143481795Y-91422256D01*
X143595063Y-91591774D01*
X143739226Y-91735937D01*
X143908744Y-91849205D01*
X144097102Y-91927226D01*
X144297061Y-91967000D01*
X144500939Y-91967000D01*
X144700898Y-91927226D01*
X144889256Y-91849205D01*
X145058774Y-91735937D01*
X145202937Y-91591774D01*
X145316205Y-91422256D01*
X145394226Y-91233898D01*
X145434000Y-91033939D01*
X145434000Y-90830061D01*
X145394226Y-90630102D01*
X145371842Y-90576061D01*
X147936000Y-90576061D01*
X147936000Y-90779939D01*
X147975774Y-90979898D01*
X148053795Y-91168256D01*
X148167063Y-91337774D01*
X148311226Y-91481937D01*
X148480744Y-91595205D01*
X148669102Y-91673226D01*
X148869061Y-91713000D01*
X149072939Y-91713000D01*
X149133331Y-91700987D01*
X149125734Y-91724987D01*
X149115000Y-91825250D01*
X149273750Y-91984000D01*
X150623000Y-91984000D01*
X150623000Y-91380750D01*
X150464250Y-91222000D01*
X149854041Y-91219387D01*
X149888205Y-91168256D01*
X149966226Y-90979898D01*
X150006000Y-90779939D01*
X150006000Y-90576061D01*
X149966226Y-90376102D01*
X149888205Y-90187744D01*
X149774937Y-90018226D01*
X149630774Y-89874063D01*
X149461256Y-89760795D01*
X149272898Y-89682774D01*
X149072939Y-89643000D01*
X148869061Y-89643000D01*
X148669102Y-89682774D01*
X148480744Y-89760795D01*
X148311226Y-89874063D01*
X148167063Y-90018226D01*
X148053795Y-90187744D01*
X147975774Y-90376102D01*
X147936000Y-90576061D01*
X145371842Y-90576061D01*
X145316205Y-90441744D01*
X145202937Y-90272226D01*
X145058774Y-90128063D01*
X144889256Y-90014795D01*
X144700898Y-89936774D01*
X144500939Y-89897000D01*
X144297061Y-89897000D01*
X144097102Y-89936774D01*
X143908744Y-90014795D01*
X143739226Y-90128063D01*
X143595063Y-90272226D01*
X143481795Y-90441744D01*
X143403774Y-90630102D01*
X143364000Y-90830061D01*
X137447741Y-90830061D01*
X137601803Y-90676000D01*
X141956461Y-90676000D01*
X141959637Y-90678122D01*
X142116147Y-90742951D01*
X142282297Y-90776000D01*
X142451703Y-90776000D01*
X142617853Y-90742951D01*
X142774363Y-90678122D01*
X142915218Y-90584005D01*
X143035005Y-90464218D01*
X143129122Y-90323363D01*
X143193951Y-90166853D01*
X143227000Y-90000703D01*
X143227000Y-89831297D01*
X143193951Y-89665147D01*
X143129122Y-89508637D01*
X143035005Y-89367782D01*
X142915218Y-89247995D01*
X142774363Y-89153878D01*
X142617853Y-89089049D01*
X142451703Y-89056000D01*
X142349985Y-89056000D01*
X142386000Y-88874939D01*
X142386000Y-88671061D01*
X142346226Y-88471102D01*
X142268205Y-88282744D01*
X142154937Y-88113226D01*
X142010774Y-87969063D01*
X141841256Y-87855795D01*
X141652898Y-87777774D01*
X141452939Y-87738000D01*
X141249061Y-87738000D01*
X141049102Y-87777774D01*
X140860744Y-87855795D01*
X140691226Y-87969063D01*
X140547063Y-88113226D01*
X140433795Y-88282744D01*
X140355774Y-88471102D01*
X140316000Y-88671061D01*
X140316000Y-88874939D01*
X140355774Y-89074898D01*
X140389368Y-89156000D01*
X137324322Y-89156000D01*
X137286999Y-89152324D01*
X137249676Y-89156000D01*
X137249667Y-89156000D01*
X137138014Y-89166997D01*
X136994753Y-89210454D01*
X136862724Y-89281026D01*
X136862722Y-89281027D01*
X136862723Y-89281027D01*
X136775996Y-89352201D01*
X136775992Y-89352205D01*
X136746999Y-89375999D01*
X136723205Y-89404992D01*
X134189003Y-91939196D01*
X134159999Y-91962999D01*
X134113876Y-92019201D01*
X134065026Y-92078724D01*
X134003470Y-92193887D01*
X133994454Y-92210754D01*
X133950997Y-92354015D01*
X133940000Y-92465668D01*
X133940000Y-92465678D01*
X133936324Y-92503000D01*
X133940000Y-92540323D01*
X133940000Y-94494199D01*
X133903937Y-94440226D01*
X133759774Y-94296063D01*
X133590256Y-94182795D01*
X133401898Y-94104774D01*
X133201939Y-94065000D01*
X132998061Y-94065000D01*
X132798102Y-94104774D01*
X132609744Y-94182795D01*
X132440226Y-94296063D01*
X132296063Y-94440226D01*
X132182795Y-94609744D01*
X132104774Y-94798102D01*
X132065000Y-94998061D01*
X131630053Y-94998061D01*
X131620681Y-94984036D01*
X131486964Y-94850319D01*
X131376084Y-94776231D01*
X131400507Y-94653446D01*
X131400507Y-94449568D01*
X131360733Y-94249609D01*
X131282712Y-94061251D01*
X131169444Y-93891733D01*
X131025281Y-93747570D01*
X130855763Y-93634302D01*
X130667405Y-93556281D01*
X130467446Y-93516507D01*
X130263568Y-93516507D01*
X130063609Y-93556281D01*
X129875251Y-93634302D01*
X129705733Y-93747570D01*
X129561570Y-93891733D01*
X129448302Y-94061251D01*
X129405963Y-94163464D01*
X129303750Y-94205803D01*
X129134232Y-94319071D01*
X128990069Y-94463234D01*
X128876801Y-94632752D01*
X128798780Y-94821110D01*
X128759006Y-95021069D01*
X126059000Y-95021069D01*
X126059000Y-90195061D01*
X128886000Y-90195061D01*
X128886000Y-90398939D01*
X128925774Y-90598898D01*
X129003795Y-90787256D01*
X129117063Y-90956774D01*
X129261226Y-91100937D01*
X129429719Y-91213520D01*
X129433774Y-91233906D01*
X129511795Y-91422264D01*
X129625063Y-91591782D01*
X129769226Y-91735945D01*
X129938744Y-91849213D01*
X130127102Y-91927234D01*
X130327061Y-91967008D01*
X130530939Y-91967008D01*
X130730898Y-91927234D01*
X130919256Y-91849213D01*
X131088774Y-91735945D01*
X131232937Y-91591782D01*
X131346205Y-91422264D01*
X131424226Y-91233906D01*
X131464000Y-91033947D01*
X131464000Y-90830069D01*
X131424226Y-90630110D01*
X131415626Y-90609348D01*
X131486964Y-90561681D01*
X131620681Y-90427964D01*
X131725741Y-90270731D01*
X131755841Y-90198061D01*
X132065000Y-90198061D01*
X132065000Y-90401939D01*
X132104774Y-90601898D01*
X132182795Y-90790256D01*
X132296063Y-90959774D01*
X132440226Y-91103937D01*
X132609744Y-91217205D01*
X132798102Y-91295226D01*
X132998061Y-91335000D01*
X133201939Y-91335000D01*
X133401898Y-91295226D01*
X133590256Y-91217205D01*
X133759774Y-91103937D01*
X133903937Y-90959774D01*
X134017205Y-90790256D01*
X134095226Y-90601898D01*
X134135000Y-90401939D01*
X134135000Y-90198061D01*
X134095226Y-89998102D01*
X134017205Y-89809744D01*
X133903937Y-89640226D01*
X133759774Y-89496063D01*
X133590256Y-89382795D01*
X133401898Y-89304774D01*
X133201939Y-89265000D01*
X132998061Y-89265000D01*
X132798102Y-89304774D01*
X132609744Y-89382795D01*
X132440226Y-89496063D01*
X132296063Y-89640226D01*
X132182795Y-89809744D01*
X132104774Y-89998102D01*
X132065000Y-90198061D01*
X131755841Y-90198061D01*
X131798108Y-90096022D01*
X131835000Y-89910552D01*
X131835000Y-89721448D01*
X131798108Y-89535978D01*
X131791904Y-89521000D01*
X132052000Y-89521000D01*
X132270987Y-89474415D01*
X132476678Y-89386003D01*
X132661169Y-89259161D01*
X132817369Y-89098764D01*
X132939276Y-88910976D01*
X133019119Y-88687874D01*
X132892954Y-88513000D01*
X131502000Y-88513000D01*
X131502000Y-88533000D01*
X131248000Y-88533000D01*
X131248000Y-88513000D01*
X129857046Y-88513000D01*
X129730881Y-88687874D01*
X129810724Y-88910976D01*
X129932631Y-89098764D01*
X130088831Y-89259161D01*
X130091335Y-89260883D01*
X130082652Y-89273878D01*
X130022939Y-89262000D01*
X129819061Y-89262000D01*
X129619102Y-89301774D01*
X129430744Y-89379795D01*
X129261226Y-89493063D01*
X129117063Y-89637226D01*
X129003795Y-89806744D01*
X128925774Y-89995102D01*
X128886000Y-90195061D01*
X126059000Y-90195061D01*
X126059000Y-89156648D01*
X126158831Y-89259161D01*
X126343322Y-89386003D01*
X126549013Y-89474415D01*
X126768000Y-89521000D01*
X127068000Y-89521000D01*
X127068000Y-88513000D01*
X127322000Y-88513000D01*
X127322000Y-89521000D01*
X127622000Y-89521000D01*
X127840987Y-89474415D01*
X128046678Y-89386003D01*
X128231169Y-89259161D01*
X128387369Y-89098764D01*
X128509276Y-88910976D01*
X128589119Y-88687874D01*
X128462954Y-88513000D01*
X127322000Y-88513000D01*
X127068000Y-88513000D01*
X127048000Y-88513000D01*
X127048000Y-88259000D01*
X127068000Y-88259000D01*
X127068000Y-88239000D01*
X127322000Y-88239000D01*
X127322000Y-88259000D01*
X128462954Y-88259000D01*
X128589119Y-88084126D01*
X129730881Y-88084126D01*
X129857046Y-88259000D01*
X131248000Y-88259000D01*
X131248000Y-87251000D01*
X131502000Y-87251000D01*
X131502000Y-88259000D01*
X132892954Y-88259000D01*
X133019119Y-88084126D01*
X132939276Y-87861024D01*
X132817369Y-87673236D01*
X132661169Y-87512839D01*
X132476678Y-87385997D01*
X132270987Y-87297585D01*
X132052000Y-87251000D01*
X131502000Y-87251000D01*
X131248000Y-87251000D01*
X130698000Y-87251000D01*
X130479013Y-87297585D01*
X130273322Y-87385997D01*
X130088831Y-87512839D01*
X129932631Y-87673236D01*
X129810724Y-87861024D01*
X129730881Y-88084126D01*
X128589119Y-88084126D01*
X128509276Y-87861024D01*
X128387369Y-87673236D01*
X128231169Y-87512839D01*
X128046678Y-87385997D01*
X127840987Y-87297585D01*
X127622000Y-87251000D01*
X127367091Y-87251000D01*
X127477379Y-87140712D01*
X127504475Y-87118475D01*
X127593200Y-87010363D01*
X127659128Y-86887020D01*
X127699727Y-86753184D01*
X127710000Y-86648877D01*
X127710000Y-86648875D01*
X127710966Y-86639061D01*
X134982000Y-86639061D01*
X134982000Y-86842939D01*
X135021774Y-87042898D01*
X135099795Y-87231256D01*
X135213063Y-87400774D01*
X135357226Y-87544937D01*
X135526744Y-87658205D01*
X135715102Y-87736226D01*
X135915061Y-87776000D01*
X136118939Y-87776000D01*
X136318898Y-87736226D01*
X136507256Y-87658205D01*
X136676774Y-87544937D01*
X136779000Y-87442711D01*
X136881226Y-87544937D01*
X137050744Y-87658205D01*
X137239102Y-87736226D01*
X137439061Y-87776000D01*
X137642939Y-87776000D01*
X137842898Y-87736226D01*
X138031256Y-87658205D01*
X138200774Y-87544937D01*
X138344937Y-87400774D01*
X138458205Y-87231256D01*
X138536226Y-87042898D01*
X138576000Y-86842939D01*
X138576000Y-86639061D01*
X138536226Y-86439102D01*
X138458205Y-86250744D01*
X138344937Y-86081226D01*
X138200774Y-85937063D01*
X138031256Y-85823795D01*
X137842898Y-85745774D01*
X137642939Y-85706000D01*
X137439061Y-85706000D01*
X137239102Y-85745774D01*
X137050744Y-85823795D01*
X136881226Y-85937063D01*
X136779000Y-86039289D01*
X136676774Y-85937063D01*
X136507256Y-85823795D01*
X136318898Y-85745774D01*
X136118939Y-85706000D01*
X135915061Y-85706000D01*
X135715102Y-85745774D01*
X135526744Y-85823795D01*
X135357226Y-85937063D01*
X135213063Y-86081226D01*
X135099795Y-86250744D01*
X135021774Y-86439102D01*
X134982000Y-86639061D01*
X127710966Y-86639061D01*
X127713435Y-86614000D01*
X127710000Y-86579125D01*
X127710000Y-85104105D01*
X127803962Y-85244729D01*
X128115271Y-85556038D01*
X128481331Y-85800631D01*
X128888075Y-85969110D01*
X129319872Y-86055000D01*
X129760128Y-86055000D01*
X130191925Y-85969110D01*
X130598669Y-85800631D01*
X130964729Y-85556038D01*
X131276038Y-85244729D01*
X131520631Y-84878669D01*
X131689110Y-84471925D01*
X131775000Y-84040128D01*
X131775000Y-83599872D01*
X131689110Y-83168075D01*
X131520631Y-82761331D01*
X131276038Y-82395271D01*
X130964729Y-82083962D01*
X130824105Y-81990000D01*
X142021928Y-81990000D01*
X142021928Y-83060000D01*
G04 #@! TA.AperFunction,Conductor*
D22*
G36*
X142021928Y-83060000D02*
G01*
X133379539Y-83060000D01*
X133376363Y-83057878D01*
X133219853Y-82993049D01*
X133053703Y-82960000D01*
X132884297Y-82960000D01*
X132718147Y-82993049D01*
X132561637Y-83057878D01*
X132420782Y-83151995D01*
X132300995Y-83271782D01*
X132206878Y-83412637D01*
X132142049Y-83569147D01*
X132109000Y-83735297D01*
X132109000Y-83904703D01*
X132142049Y-84070853D01*
X132206878Y-84227363D01*
X132300995Y-84368218D01*
X132420782Y-84488005D01*
X132561637Y-84582122D01*
X132718147Y-84646951D01*
X132884297Y-84680000D01*
X133053703Y-84680000D01*
X133219853Y-84646951D01*
X133376363Y-84582122D01*
X133379539Y-84580000D01*
X149822678Y-84580000D01*
X149860000Y-84583676D01*
X149897322Y-84580000D01*
X149897333Y-84580000D01*
X150008986Y-84569003D01*
X150044921Y-84558102D01*
X150049049Y-84578853D01*
X150113878Y-84735363D01*
X150207995Y-84876218D01*
X150327782Y-84996005D01*
X150468637Y-85090122D01*
X150625147Y-85154951D01*
X150628895Y-85155697D01*
X150721999Y-85248801D01*
X150722000Y-88858163D01*
X150708782Y-88866995D01*
X150588995Y-88986782D01*
X150494878Y-89127637D01*
X150430049Y-89284147D01*
X150397000Y-89450297D01*
X150397000Y-89619703D01*
X150430049Y-89785853D01*
X150494878Y-89942363D01*
X150588995Y-90083218D01*
X150708782Y-90203005D01*
X150849637Y-90297122D01*
X151006147Y-90361951D01*
X151172297Y-90395000D01*
X151341703Y-90395000D01*
X151507853Y-90361951D01*
X151664363Y-90297122D01*
X151805218Y-90203005D01*
X151925005Y-90083218D01*
X152019122Y-89942363D01*
X152083951Y-89785853D01*
X152086928Y-89770887D01*
X152116973Y-89734277D01*
X152187545Y-89602248D01*
X152231002Y-89458987D01*
X152241999Y-89347334D01*
X152241999Y-89347326D01*
X152245675Y-89310001D01*
X152241999Y-89272676D01*
X152241999Y-85938881D01*
X158273447Y-91970330D01*
X158208995Y-92034782D01*
X158114878Y-92175637D01*
X158050049Y-92332147D01*
X158017000Y-92498297D01*
X158017000Y-92667703D01*
X158050049Y-92833853D01*
X158114878Y-92990363D01*
X158208995Y-93131218D01*
X158328782Y-93251005D01*
X158469637Y-93345122D01*
X158626147Y-93409951D01*
X158714645Y-93427554D01*
X158636105Y-93506094D01*
X158577761Y-93458213D01*
X158445732Y-93387641D01*
X158302471Y-93344184D01*
X158190818Y-93333187D01*
X158190807Y-93333187D01*
X158153485Y-93329511D01*
X158116163Y-93333187D01*
X157660943Y-93333187D01*
X157623618Y-93329511D01*
X157586293Y-93333187D01*
X157586285Y-93333187D01*
X157474632Y-93344184D01*
X157331371Y-93387641D01*
X157199342Y-93458213D01*
X157083617Y-93553186D01*
X157059819Y-93582184D01*
X156777675Y-93864328D01*
X156777675Y-93824998D01*
X156781351Y-93787675D01*
X156777675Y-93750352D01*
X156777675Y-93750342D01*
X156766678Y-93638689D01*
X156723221Y-93495428D01*
X156652649Y-93363399D01*
X156557676Y-93247674D01*
X156529653Y-93224676D01*
X156528951Y-93221147D01*
X156464122Y-93064637D01*
X156370005Y-92923782D01*
X156250218Y-92803995D01*
X156109363Y-92709878D01*
X155952853Y-92645049D01*
X155786703Y-92612000D01*
X155639064Y-92612000D01*
X155636391Y-92607000D01*
X155639502Y-92601180D01*
X155675812Y-92481482D01*
X155688072Y-92357000D01*
X155688072Y-91857000D01*
X155675812Y-91732518D01*
X155639502Y-91612820D01*
X155580537Y-91502506D01*
X155501185Y-91405815D01*
X155404494Y-91326463D01*
X155294180Y-91267498D01*
X155174482Y-91231188D01*
X155050000Y-91218928D01*
X153050000Y-91218928D01*
X152925518Y-91231188D01*
X152805820Y-91267498D01*
X152695506Y-91326463D01*
X152657909Y-91357318D01*
X152651014Y-91357997D01*
X152507753Y-91401454D01*
X152375724Y-91472026D01*
X152298036Y-91535783D01*
X152276228Y-91496140D01*
X152195716Y-91400412D01*
X152098076Y-91322230D01*
X151987059Y-91264599D01*
X151866933Y-91229734D01*
X151742312Y-91218974D01*
X151035750Y-91222000D01*
X150877000Y-91380750D01*
X150877000Y-91984000D01*
X150897000Y-91984000D01*
X150897000Y-92218928D01*
X149750000Y-92218928D01*
X149637580Y-92230000D01*
X149273750Y-92230000D01*
X149115000Y-92388750D01*
X149125734Y-92489013D01*
X149163279Y-92607618D01*
X149160498Y-92612820D01*
X149124188Y-92732518D01*
X149111928Y-92857000D01*
X149111928Y-93357000D01*
X149124188Y-93481482D01*
X149160498Y-93601180D01*
X149163279Y-93606382D01*
X149125734Y-93724987D01*
X149115000Y-93825250D01*
X149273750Y-93984000D01*
X149637580Y-93984000D01*
X149750000Y-93995072D01*
X150897000Y-93995072D01*
X150897000Y-94230000D01*
X150877000Y-94230000D01*
X150877000Y-94984000D01*
X150897000Y-94984000D01*
X150897000Y-95218928D01*
X149750000Y-95218928D01*
X149637580Y-95230000D01*
X149273750Y-95230000D01*
X149156750Y-95347000D01*
X145430322Y-95347000D01*
X145392999Y-95343324D01*
X145355676Y-95347000D01*
X145355667Y-95347000D01*
X145244014Y-95357997D01*
X145100753Y-95401454D01*
X144968724Y-95472026D01*
X144852999Y-95566999D01*
X144829201Y-95595997D01*
X143460199Y-96965000D01*
X143398061Y-96965000D01*
X143198102Y-97004774D01*
X143009744Y-97082795D01*
X142840226Y-97196063D01*
X142696063Y-97340226D01*
X142582795Y-97509744D01*
X142504774Y-97698102D01*
X142465000Y-97898061D01*
X142465000Y-98101939D01*
X142504774Y-98301898D01*
X142582795Y-98490256D01*
X142696063Y-98659774D01*
X142840226Y-98803937D01*
X143009744Y-98917205D01*
X143198102Y-98995226D01*
X143398061Y-99035000D01*
X143601939Y-99035000D01*
X143801898Y-98995226D01*
X143990256Y-98917205D01*
X144159774Y-98803937D01*
X144303937Y-98659774D01*
X144417205Y-98490256D01*
X144495226Y-98301898D01*
X144535000Y-98101939D01*
X144535000Y-98039801D01*
X145707802Y-96867000D01*
X149370482Y-96867000D01*
X149395506Y-96887537D01*
X149505820Y-96946502D01*
X149625518Y-96982812D01*
X149750000Y-96995072D01*
X151750000Y-96995072D01*
X151874482Y-96982812D01*
X151980217Y-96950738D01*
X151987000Y-96959003D01*
X152015998Y-96982801D01*
X152226195Y-97192998D01*
X152249998Y-97222002D01*
X152365723Y-97316975D01*
X152497752Y-97387547D01*
X152641013Y-97431004D01*
X152752666Y-97442001D01*
X152752674Y-97442001D01*
X152789999Y-97445677D01*
X152827324Y-97442001D01*
X155375457Y-97442001D01*
X155412779Y-97445677D01*
X155450101Y-97442001D01*
X155450112Y-97442001D01*
X155561765Y-97431004D01*
X155682513Y-97394376D01*
X155682513Y-98371367D01*
X155616937Y-98273226D01*
X155472774Y-98129063D01*
X155303256Y-98015795D01*
X155114898Y-97937774D01*
X154914939Y-97898000D01*
X154711061Y-97898000D01*
X154511102Y-97937774D01*
X154322744Y-98015795D01*
X154153226Y-98129063D01*
X154009063Y-98273226D01*
X153895795Y-98442744D01*
X153817774Y-98631102D01*
X153778000Y-98831061D01*
X153778000Y-99034939D01*
X153817774Y-99234898D01*
X153895795Y-99423256D01*
X154009063Y-99592774D01*
X154153226Y-99736937D01*
X154322744Y-99850205D01*
X154511102Y-99928226D01*
X154711061Y-99968000D01*
X154914939Y-99968000D01*
X155114898Y-99928226D01*
X155303256Y-99850205D01*
X155472774Y-99736937D01*
X155616937Y-99592774D01*
X155682512Y-99494633D01*
X155682512Y-101033189D01*
X155678836Y-101070512D01*
X155682512Y-101107834D01*
X155682512Y-101107844D01*
X155693509Y-101219497D01*
X155727015Y-101329953D01*
X155736966Y-101362758D01*
X155779117Y-101441616D01*
X155776842Y-101442068D01*
X155506589Y-101554010D01*
X155263368Y-101716525D01*
X155056525Y-101923368D01*
X154940000Y-102097760D01*
X154823475Y-101923368D01*
X154616632Y-101716525D01*
X154373411Y-101554010D01*
X154103158Y-101442068D01*
X153816260Y-101385000D01*
X153523740Y-101385000D01*
X153236842Y-101442068D01*
X152966589Y-101554010D01*
X152723368Y-101716525D01*
X152516525Y-101923368D01*
X152400000Y-102097760D01*
X152283475Y-101923368D01*
X152076632Y-101716525D01*
X151833411Y-101554010D01*
X151563158Y-101442068D01*
X151276260Y-101385000D01*
X150983740Y-101385000D01*
X150696842Y-101442068D01*
X150426589Y-101554010D01*
X150183368Y-101716525D01*
X149976525Y-101923368D01*
X149860000Y-102097760D01*
X149743475Y-101923368D01*
X149536632Y-101716525D01*
X149293411Y-101554010D01*
X149023158Y-101442068D01*
X148736260Y-101385000D01*
X148443740Y-101385000D01*
X148156842Y-101442068D01*
X147886589Y-101554010D01*
X147643368Y-101716525D01*
X147436525Y-101923368D01*
X147320000Y-102097760D01*
X147203475Y-101923368D01*
X146996632Y-101716525D01*
X146753411Y-101554010D01*
X146483158Y-101442068D01*
X146196260Y-101385000D01*
X145903740Y-101385000D01*
X145616842Y-101442068D01*
X145346589Y-101554010D01*
X145103368Y-101716525D01*
X144896525Y-101923368D01*
X144780000Y-102097760D01*
X144663475Y-101923368D01*
X144456632Y-101716525D01*
X144213411Y-101554010D01*
X143943158Y-101442068D01*
X143656260Y-101385000D01*
X143363740Y-101385000D01*
X143076842Y-101442068D01*
X142806589Y-101554010D01*
X142563368Y-101716525D01*
X142356525Y-101923368D01*
X142234805Y-102105534D01*
X142165178Y-101988645D01*
X141970269Y-101772412D01*
X141736920Y-101598359D01*
X141474099Y-101473175D01*
X141326890Y-101428524D01*
X141097000Y-101549845D01*
X141097000Y-102743000D01*
X141117000Y-102743000D01*
X141117000Y-102997000D01*
X141097000Y-102997000D01*
X141097000Y-103017000D01*
X140843000Y-103017000D01*
X140843000Y-102997000D01*
X140823000Y-102997000D01*
X140823000Y-102743000D01*
X140843000Y-102743000D01*
X140843000Y-101549845D01*
X140613110Y-101428524D01*
X140465901Y-101473175D01*
X140203080Y-101598359D01*
X139969731Y-101772412D01*
X139774822Y-101988645D01*
X139705195Y-102105534D01*
X139583475Y-101923368D01*
X139376632Y-101716525D01*
X139133411Y-101554010D01*
X138863158Y-101442068D01*
X138576260Y-101385000D01*
X138283740Y-101385000D01*
X137996842Y-101442068D01*
X137726589Y-101554010D01*
X137483368Y-101716525D01*
X137276525Y-101923368D01*
X137160000Y-102097760D01*
X137043475Y-101923368D01*
X136836632Y-101716525D01*
X136593411Y-101554010D01*
X136323158Y-101442068D01*
X136036260Y-101385000D01*
X135743740Y-101385000D01*
X135456842Y-101442068D01*
X135186589Y-101554010D01*
X134943368Y-101716525D01*
X134811513Y-101848380D01*
X134789502Y-101775820D01*
X134730537Y-101665506D01*
X134651185Y-101568815D01*
X134554494Y-101489463D01*
X134444180Y-101430498D01*
X134324482Y-101394188D01*
X134200000Y-101381928D01*
X132500000Y-101381928D01*
X132375518Y-101394188D01*
X132255820Y-101430498D01*
X132145506Y-101489463D01*
X132048815Y-101568815D01*
X131969463Y-101665506D01*
X131910498Y-101775820D01*
X131874188Y-101895518D01*
X131861928Y-102020000D01*
X131861928Y-103430000D01*
X130824105Y-103430000D01*
X130964729Y-103336038D01*
X131276038Y-103024729D01*
X131520631Y-102658669D01*
X131689110Y-102251925D01*
X131775000Y-101820128D01*
X131775000Y-101379872D01*
X131689110Y-100948075D01*
X131520631Y-100541331D01*
X131276038Y-100175271D01*
X130964729Y-99863962D01*
X130598669Y-99619369D01*
X130191925Y-99450890D01*
X129760128Y-99365000D01*
X129319872Y-99365000D01*
X128888075Y-99450890D01*
X128481331Y-99619369D01*
X128115271Y-99863962D01*
X127803962Y-100175271D01*
X127710000Y-100315895D01*
X127710000Y-98840875D01*
X127713435Y-98806000D01*
X127709693Y-98768005D01*
X127699727Y-98666816D01*
X127659128Y-98532980D01*
X127593200Y-98409637D01*
X127504474Y-98301525D01*
X127477383Y-98279292D01*
X127359091Y-98161000D01*
X127622000Y-98161000D01*
X127840987Y-98114415D01*
X128046678Y-98026003D01*
X128231169Y-97899161D01*
X128387369Y-97738764D01*
X128509276Y-97550976D01*
X128589119Y-97327874D01*
X129730881Y-97327874D01*
X129810724Y-97550976D01*
X129932631Y-97738764D01*
X130088831Y-97899161D01*
X130273322Y-98026003D01*
X130479013Y-98114415D01*
X130698000Y-98161000D01*
X131248000Y-98161000D01*
X131248000Y-97153000D01*
X131502000Y-97153000D01*
X131502000Y-98161000D01*
X132052000Y-98161000D01*
X132270987Y-98114415D01*
X132476678Y-98026003D01*
X132661169Y-97899161D01*
X132817369Y-97738764D01*
X132939276Y-97550976D01*
X133019119Y-97327874D01*
X132892954Y-97153000D01*
X131502000Y-97153000D01*
X131248000Y-97153000D01*
X129857046Y-97153000D01*
X129730881Y-97327874D01*
X128589119Y-97327874D01*
X128462954Y-97153000D01*
X127322000Y-97153000D01*
X127322000Y-97173000D01*
X127068000Y-97173000D01*
X127068000Y-97153000D01*
X127048000Y-97153000D01*
X127048000Y-96899000D01*
X127068000Y-96899000D01*
X127068000Y-95891000D01*
X127322000Y-95891000D01*
X127322000Y-96899000D01*
X128462954Y-96899000D01*
X128589119Y-96724126D01*
X128509276Y-96501024D01*
X128387369Y-96313236D01*
X128231169Y-96152839D01*
X128046678Y-96025997D01*
X127840987Y-95937585D01*
X127622000Y-95891000D01*
X127322000Y-95891000D01*
X127068000Y-95891000D01*
X126768000Y-95891000D01*
X126549013Y-95937585D01*
X126343322Y-96025997D01*
X126158831Y-96152839D01*
X126059000Y-96255352D01*
X126059000Y-95021069D01*
X128759006Y-95021069D01*
X128759006Y-95224947D01*
X128798780Y-95424906D01*
X128876801Y-95613264D01*
X128990069Y-95782782D01*
X129134232Y-95926945D01*
X129303750Y-96040213D01*
X129492108Y-96118234D01*
X129692067Y-96158008D01*
X129895945Y-96158008D01*
X130072477Y-96122894D01*
X130091335Y-96151117D01*
X130088831Y-96152839D01*
X129932631Y-96313236D01*
X129810724Y-96501024D01*
X129730881Y-96724126D01*
X129857046Y-96899000D01*
X131248000Y-96899000D01*
X131248000Y-96879000D01*
X131502000Y-96879000D01*
X131502000Y-96899000D01*
X132892954Y-96899000D01*
X133019119Y-96724126D01*
X132939276Y-96501024D01*
X132817369Y-96313236D01*
X132661169Y-96152839D01*
X132476678Y-96025997D01*
X132270987Y-95937585D01*
X132052000Y-95891000D01*
X131791904Y-95891000D01*
X131798108Y-95876022D01*
X131835000Y-95690552D01*
X131835000Y-95501448D01*
X131798108Y-95315978D01*
X131725741Y-95141269D01*
X131630053Y-94998061D01*
X132065000Y-94998061D01*
X132065000Y-95201939D01*
X132104774Y-95401898D01*
X132182795Y-95590256D01*
X132296063Y-95759774D01*
X132440226Y-95903937D01*
X132609744Y-96017205D01*
X132798102Y-96095226D01*
X132998061Y-96135000D01*
X133201939Y-96135000D01*
X133401898Y-96095226D01*
X133590256Y-96017205D01*
X133759774Y-95903937D01*
X133903937Y-95759774D01*
X133940000Y-95705801D01*
X133940001Y-98919197D01*
X133229895Y-99629303D01*
X133226147Y-99630049D01*
X133069637Y-99694878D01*
X132928782Y-99788995D01*
X132808995Y-99908782D01*
X132714878Y-100049637D01*
X132650049Y-100206147D01*
X132617000Y-100372297D01*
X132617000Y-100541703D01*
X132650049Y-100707853D01*
X132714878Y-100864363D01*
X132808995Y-101005218D01*
X132928782Y-101125005D01*
X133069637Y-101219122D01*
X133226147Y-101283951D01*
X133392297Y-101317000D01*
X133561703Y-101317000D01*
X133727853Y-101283951D01*
X133884363Y-101219122D01*
X134025218Y-101125005D01*
X134145005Y-101005218D01*
X134239122Y-100864363D01*
X134303951Y-100707853D01*
X134304697Y-100704105D01*
X135211003Y-99797799D01*
X135240001Y-99774001D01*
X135334974Y-99658276D01*
X135405546Y-99526247D01*
X135449003Y-99382986D01*
X135460000Y-99271333D01*
X135460000Y-99271324D01*
X135463676Y-99234001D01*
X135460000Y-99196678D01*
X135460000Y-93525071D01*
X139173000Y-93525071D01*
X139173000Y-93728949D01*
X139212774Y-93928908D01*
X139290795Y-94117266D01*
X139404063Y-94286784D01*
X139548226Y-94430947D01*
X139717744Y-94544215D01*
X139906102Y-94622236D01*
X140106061Y-94662010D01*
X140309939Y-94662010D01*
X140509898Y-94622236D01*
X140698256Y-94544215D01*
X140867774Y-94430947D01*
X140909971Y-94388750D01*
X149115000Y-94388750D01*
X149125734Y-94489013D01*
X149163083Y-94607000D01*
X149125734Y-94724987D01*
X149115000Y-94825250D01*
X149273750Y-94984000D01*
X149632151Y-94984000D01*
X149633067Y-94984266D01*
X149757688Y-94995026D01*
X150464250Y-94992000D01*
X150472250Y-94984000D01*
X150623000Y-94984000D01*
X150623000Y-94230000D01*
X150472250Y-94230000D01*
X150464250Y-94222000D01*
X149757688Y-94218974D01*
X149633067Y-94229734D01*
X149632151Y-94230000D01*
X149273750Y-94230000D01*
X149115000Y-94388750D01*
X140909971Y-94388750D01*
X141011937Y-94286784D01*
X141125205Y-94117266D01*
X141203226Y-93928908D01*
X141243000Y-93728949D01*
X141243000Y-93525071D01*
X141203226Y-93325112D01*
X141125205Y-93136754D01*
X141011937Y-92967236D01*
X140867774Y-92823073D01*
X140698256Y-92709805D01*
X140509898Y-92631784D01*
X140309939Y-92592010D01*
X140106061Y-92592010D01*
X139906102Y-92631784D01*
X139717744Y-92709805D01*
X139548226Y-92823073D01*
X139404063Y-92967236D01*
X139290795Y-93136754D01*
X139212774Y-93325112D01*
X139173000Y-93525071D01*
X135460000Y-93525071D01*
X135460000Y-92817801D01*
X137447741Y-90830061D01*
X143364000Y-90830061D01*
X143364000Y-91033939D01*
X143403774Y-91233898D01*
X143481795Y-91422256D01*
X143595063Y-91591774D01*
X143739226Y-91735937D01*
X143908744Y-91849205D01*
X144097102Y-91927226D01*
X144297061Y-91967000D01*
X144500939Y-91967000D01*
X144700898Y-91927226D01*
X144889256Y-91849205D01*
X145058774Y-91735937D01*
X145202937Y-91591774D01*
X145316205Y-91422256D01*
X145394226Y-91233898D01*
X145434000Y-91033939D01*
X145434000Y-90830061D01*
X145394226Y-90630102D01*
X145371842Y-90576061D01*
X147936000Y-90576061D01*
X147936000Y-90779939D01*
X147975774Y-90979898D01*
X148053795Y-91168256D01*
X148167063Y-91337774D01*
X148311226Y-91481937D01*
X148480744Y-91595205D01*
X148669102Y-91673226D01*
X148869061Y-91713000D01*
X149072939Y-91713000D01*
X149133331Y-91700987D01*
X149125734Y-91724987D01*
X149115000Y-91825250D01*
X149273750Y-91984000D01*
X150623000Y-91984000D01*
X150623000Y-91380750D01*
X150464250Y-91222000D01*
X149854041Y-91219387D01*
X149888205Y-91168256D01*
X149966226Y-90979898D01*
X150006000Y-90779939D01*
X150006000Y-90576061D01*
X149966226Y-90376102D01*
X149888205Y-90187744D01*
X149774937Y-90018226D01*
X149630774Y-89874063D01*
X149461256Y-89760795D01*
X149272898Y-89682774D01*
X149072939Y-89643000D01*
X148869061Y-89643000D01*
X148669102Y-89682774D01*
X148480744Y-89760795D01*
X148311226Y-89874063D01*
X148167063Y-90018226D01*
X148053795Y-90187744D01*
X147975774Y-90376102D01*
X147936000Y-90576061D01*
X145371842Y-90576061D01*
X145316205Y-90441744D01*
X145202937Y-90272226D01*
X145058774Y-90128063D01*
X144889256Y-90014795D01*
X144700898Y-89936774D01*
X144500939Y-89897000D01*
X144297061Y-89897000D01*
X144097102Y-89936774D01*
X143908744Y-90014795D01*
X143739226Y-90128063D01*
X143595063Y-90272226D01*
X143481795Y-90441744D01*
X143403774Y-90630102D01*
X143364000Y-90830061D01*
X137447741Y-90830061D01*
X137601803Y-90676000D01*
X141956461Y-90676000D01*
X141959637Y-90678122D01*
X142116147Y-90742951D01*
X142282297Y-90776000D01*
X142451703Y-90776000D01*
X142617853Y-90742951D01*
X142774363Y-90678122D01*
X142915218Y-90584005D01*
X143035005Y-90464218D01*
X143129122Y-90323363D01*
X143193951Y-90166853D01*
X143227000Y-90000703D01*
X143227000Y-89831297D01*
X143193951Y-89665147D01*
X143129122Y-89508637D01*
X143035005Y-89367782D01*
X142915218Y-89247995D01*
X142774363Y-89153878D01*
X142617853Y-89089049D01*
X142451703Y-89056000D01*
X142349985Y-89056000D01*
X142386000Y-88874939D01*
X142386000Y-88671061D01*
X142346226Y-88471102D01*
X142268205Y-88282744D01*
X142154937Y-88113226D01*
X142010774Y-87969063D01*
X141841256Y-87855795D01*
X141652898Y-87777774D01*
X141452939Y-87738000D01*
X141249061Y-87738000D01*
X141049102Y-87777774D01*
X140860744Y-87855795D01*
X140691226Y-87969063D01*
X140547063Y-88113226D01*
X140433795Y-88282744D01*
X140355774Y-88471102D01*
X140316000Y-88671061D01*
X140316000Y-88874939D01*
X140355774Y-89074898D01*
X140389368Y-89156000D01*
X137324322Y-89156000D01*
X137286999Y-89152324D01*
X137249676Y-89156000D01*
X137249667Y-89156000D01*
X137138014Y-89166997D01*
X136994753Y-89210454D01*
X136862724Y-89281026D01*
X136862722Y-89281027D01*
X136862723Y-89281027D01*
X136775996Y-89352201D01*
X136775992Y-89352205D01*
X136746999Y-89375999D01*
X136723205Y-89404992D01*
X134189003Y-91939196D01*
X134159999Y-91962999D01*
X134113876Y-92019201D01*
X134065026Y-92078724D01*
X134003470Y-92193887D01*
X133994454Y-92210754D01*
X133950997Y-92354015D01*
X133940000Y-92465668D01*
X133940000Y-92465678D01*
X133936324Y-92503000D01*
X133940000Y-92540323D01*
X133940000Y-94494199D01*
X133903937Y-94440226D01*
X133759774Y-94296063D01*
X133590256Y-94182795D01*
X133401898Y-94104774D01*
X133201939Y-94065000D01*
X132998061Y-94065000D01*
X132798102Y-94104774D01*
X132609744Y-94182795D01*
X132440226Y-94296063D01*
X132296063Y-94440226D01*
X132182795Y-94609744D01*
X132104774Y-94798102D01*
X132065000Y-94998061D01*
X131630053Y-94998061D01*
X131620681Y-94984036D01*
X131486964Y-94850319D01*
X131376084Y-94776231D01*
X131400507Y-94653446D01*
X131400507Y-94449568D01*
X131360733Y-94249609D01*
X131282712Y-94061251D01*
X131169444Y-93891733D01*
X131025281Y-93747570D01*
X130855763Y-93634302D01*
X130667405Y-93556281D01*
X130467446Y-93516507D01*
X130263568Y-93516507D01*
X130063609Y-93556281D01*
X129875251Y-93634302D01*
X129705733Y-93747570D01*
X129561570Y-93891733D01*
X129448302Y-94061251D01*
X129405963Y-94163464D01*
X129303750Y-94205803D01*
X129134232Y-94319071D01*
X128990069Y-94463234D01*
X128876801Y-94632752D01*
X128798780Y-94821110D01*
X128759006Y-95021069D01*
X126059000Y-95021069D01*
X126059000Y-90195061D01*
X128886000Y-90195061D01*
X128886000Y-90398939D01*
X128925774Y-90598898D01*
X129003795Y-90787256D01*
X129117063Y-90956774D01*
X129261226Y-91100937D01*
X129429719Y-91213520D01*
X129433774Y-91233906D01*
X129511795Y-91422264D01*
X129625063Y-91591782D01*
X129769226Y-91735945D01*
X129938744Y-91849213D01*
X130127102Y-91927234D01*
X130327061Y-91967008D01*
X130530939Y-91967008D01*
X130730898Y-91927234D01*
X130919256Y-91849213D01*
X131088774Y-91735945D01*
X131232937Y-91591782D01*
X131346205Y-91422264D01*
X131424226Y-91233906D01*
X131464000Y-91033947D01*
X131464000Y-90830069D01*
X131424226Y-90630110D01*
X131415626Y-90609348D01*
X131486964Y-90561681D01*
X131620681Y-90427964D01*
X131725741Y-90270731D01*
X131755841Y-90198061D01*
X132065000Y-90198061D01*
X132065000Y-90401939D01*
X132104774Y-90601898D01*
X132182795Y-90790256D01*
X132296063Y-90959774D01*
X132440226Y-91103937D01*
X132609744Y-91217205D01*
X132798102Y-91295226D01*
X132998061Y-91335000D01*
X133201939Y-91335000D01*
X133401898Y-91295226D01*
X133590256Y-91217205D01*
X133759774Y-91103937D01*
X133903937Y-90959774D01*
X134017205Y-90790256D01*
X134095226Y-90601898D01*
X134135000Y-90401939D01*
X134135000Y-90198061D01*
X134095226Y-89998102D01*
X134017205Y-89809744D01*
X133903937Y-89640226D01*
X133759774Y-89496063D01*
X133590256Y-89382795D01*
X133401898Y-89304774D01*
X133201939Y-89265000D01*
X132998061Y-89265000D01*
X132798102Y-89304774D01*
X132609744Y-89382795D01*
X132440226Y-89496063D01*
X132296063Y-89640226D01*
X132182795Y-89809744D01*
X132104774Y-89998102D01*
X132065000Y-90198061D01*
X131755841Y-90198061D01*
X131798108Y-90096022D01*
X131835000Y-89910552D01*
X131835000Y-89721448D01*
X131798108Y-89535978D01*
X131791904Y-89521000D01*
X132052000Y-89521000D01*
X132270987Y-89474415D01*
X132476678Y-89386003D01*
X132661169Y-89259161D01*
X132817369Y-89098764D01*
X132939276Y-88910976D01*
X133019119Y-88687874D01*
X132892954Y-88513000D01*
X131502000Y-88513000D01*
X131502000Y-88533000D01*
X131248000Y-88533000D01*
X131248000Y-88513000D01*
X129857046Y-88513000D01*
X129730881Y-88687874D01*
X129810724Y-88910976D01*
X129932631Y-89098764D01*
X130088831Y-89259161D01*
X130091335Y-89260883D01*
X130082652Y-89273878D01*
X130022939Y-89262000D01*
X129819061Y-89262000D01*
X129619102Y-89301774D01*
X129430744Y-89379795D01*
X129261226Y-89493063D01*
X129117063Y-89637226D01*
X129003795Y-89806744D01*
X128925774Y-89995102D01*
X128886000Y-90195061D01*
X126059000Y-90195061D01*
X126059000Y-89156648D01*
X126158831Y-89259161D01*
X126343322Y-89386003D01*
X126549013Y-89474415D01*
X126768000Y-89521000D01*
X127068000Y-89521000D01*
X127068000Y-88513000D01*
X127322000Y-88513000D01*
X127322000Y-89521000D01*
X127622000Y-89521000D01*
X127840987Y-89474415D01*
X128046678Y-89386003D01*
X128231169Y-89259161D01*
X128387369Y-89098764D01*
X128509276Y-88910976D01*
X128589119Y-88687874D01*
X128462954Y-88513000D01*
X127322000Y-88513000D01*
X127068000Y-88513000D01*
X127048000Y-88513000D01*
X127048000Y-88259000D01*
X127068000Y-88259000D01*
X127068000Y-88239000D01*
X127322000Y-88239000D01*
X127322000Y-88259000D01*
X128462954Y-88259000D01*
X128589119Y-88084126D01*
X129730881Y-88084126D01*
X129857046Y-88259000D01*
X131248000Y-88259000D01*
X131248000Y-87251000D01*
X131502000Y-87251000D01*
X131502000Y-88259000D01*
X132892954Y-88259000D01*
X133019119Y-88084126D01*
X132939276Y-87861024D01*
X132817369Y-87673236D01*
X132661169Y-87512839D01*
X132476678Y-87385997D01*
X132270987Y-87297585D01*
X132052000Y-87251000D01*
X131502000Y-87251000D01*
X131248000Y-87251000D01*
X130698000Y-87251000D01*
X130479013Y-87297585D01*
X130273322Y-87385997D01*
X130088831Y-87512839D01*
X129932631Y-87673236D01*
X129810724Y-87861024D01*
X129730881Y-88084126D01*
X128589119Y-88084126D01*
X128509276Y-87861024D01*
X128387369Y-87673236D01*
X128231169Y-87512839D01*
X128046678Y-87385997D01*
X127840987Y-87297585D01*
X127622000Y-87251000D01*
X127367091Y-87251000D01*
X127477379Y-87140712D01*
X127504475Y-87118475D01*
X127593200Y-87010363D01*
X127659128Y-86887020D01*
X127699727Y-86753184D01*
X127710000Y-86648877D01*
X127710000Y-86648875D01*
X127710966Y-86639061D01*
X134982000Y-86639061D01*
X134982000Y-86842939D01*
X135021774Y-87042898D01*
X135099795Y-87231256D01*
X135213063Y-87400774D01*
X135357226Y-87544937D01*
X135526744Y-87658205D01*
X135715102Y-87736226D01*
X135915061Y-87776000D01*
X136118939Y-87776000D01*
X136318898Y-87736226D01*
X136507256Y-87658205D01*
X136676774Y-87544937D01*
X136779000Y-87442711D01*
X136881226Y-87544937D01*
X137050744Y-87658205D01*
X137239102Y-87736226D01*
X137439061Y-87776000D01*
X137642939Y-87776000D01*
X137842898Y-87736226D01*
X138031256Y-87658205D01*
X138200774Y-87544937D01*
X138344937Y-87400774D01*
X138458205Y-87231256D01*
X138536226Y-87042898D01*
X138576000Y-86842939D01*
X138576000Y-86639061D01*
X138536226Y-86439102D01*
X138458205Y-86250744D01*
X138344937Y-86081226D01*
X138200774Y-85937063D01*
X138031256Y-85823795D01*
X137842898Y-85745774D01*
X137642939Y-85706000D01*
X137439061Y-85706000D01*
X137239102Y-85745774D01*
X137050744Y-85823795D01*
X136881226Y-85937063D01*
X136779000Y-86039289D01*
X136676774Y-85937063D01*
X136507256Y-85823795D01*
X136318898Y-85745774D01*
X136118939Y-85706000D01*
X135915061Y-85706000D01*
X135715102Y-85745774D01*
X135526744Y-85823795D01*
X135357226Y-85937063D01*
X135213063Y-86081226D01*
X135099795Y-86250744D01*
X135021774Y-86439102D01*
X134982000Y-86639061D01*
X127710966Y-86639061D01*
X127713435Y-86614000D01*
X127710000Y-86579125D01*
X127710000Y-85104105D01*
X127803962Y-85244729D01*
X128115271Y-85556038D01*
X128481331Y-85800631D01*
X128888075Y-85969110D01*
X129319872Y-86055000D01*
X129760128Y-86055000D01*
X130191925Y-85969110D01*
X130598669Y-85800631D01*
X130964729Y-85556038D01*
X131276038Y-85244729D01*
X131520631Y-84878669D01*
X131689110Y-84471925D01*
X131775000Y-84040128D01*
X131775000Y-83599872D01*
X131689110Y-83168075D01*
X131520631Y-82761331D01*
X131276038Y-82395271D01*
X130964729Y-82083962D01*
X130824105Y-81990000D01*
X142021928Y-81990000D01*
X142021928Y-83060000D01*
G37*
G04 #@! TD.AperFunction*
D21*
X163675928Y-92699271D02*
X163089003Y-93286196D01*
X163059999Y-93309999D01*
X163006471Y-93375224D01*
X162965026Y-93425724D01*
X162935223Y-93481482D01*
X162894454Y-93557754D01*
X162850997Y-93701015D01*
X162840000Y-93812668D01*
X162840000Y-93812678D01*
X162836324Y-93850000D01*
X162840000Y-93887323D01*
X162840001Y-96265199D01*
X161942723Y-95367921D01*
X161952072Y-95273000D01*
X161952072Y-94973000D01*
X161936929Y-94819255D01*
X161892084Y-94671418D01*
X161819258Y-94535171D01*
X161780546Y-94488000D01*
X161819258Y-94440829D01*
X161892084Y-94304582D01*
X161936929Y-94156745D01*
X161952072Y-94003000D01*
X161952072Y-93703000D01*
X161936929Y-93549255D01*
X161892084Y-93401418D01*
X161820270Y-93267064D01*
X161844537Y-93237494D01*
X161903502Y-93127180D01*
X161939812Y-93007482D01*
X161952072Y-92883000D01*
X161949000Y-92868750D01*
X161790250Y-92710000D01*
X160466000Y-92710000D01*
X160466000Y-92730000D01*
X160212000Y-92730000D01*
X160212000Y-92710000D01*
X160192000Y-92710000D01*
X160192000Y-92507019D01*
X163675928Y-92507019D01*
X163675928Y-92699271D01*
G04 #@! TA.AperFunction,Conductor*
D22*
G36*
X163675928Y-92699271D02*
G01*
X163089003Y-93286196D01*
X163059999Y-93309999D01*
X163006471Y-93375224D01*
X162965026Y-93425724D01*
X162935223Y-93481482D01*
X162894454Y-93557754D01*
X162850997Y-93701015D01*
X162840000Y-93812668D01*
X162840000Y-93812678D01*
X162836324Y-93850000D01*
X162840000Y-93887323D01*
X162840001Y-96265199D01*
X161942723Y-95367921D01*
X161952072Y-95273000D01*
X161952072Y-94973000D01*
X161936929Y-94819255D01*
X161892084Y-94671418D01*
X161819258Y-94535171D01*
X161780546Y-94488000D01*
X161819258Y-94440829D01*
X161892084Y-94304582D01*
X161936929Y-94156745D01*
X161952072Y-94003000D01*
X161952072Y-93703000D01*
X161936929Y-93549255D01*
X161892084Y-93401418D01*
X161820270Y-93267064D01*
X161844537Y-93237494D01*
X161903502Y-93127180D01*
X161939812Y-93007482D01*
X161952072Y-92883000D01*
X161949000Y-92868750D01*
X161790250Y-92710000D01*
X160466000Y-92710000D01*
X160466000Y-92730000D01*
X160212000Y-92730000D01*
X160212000Y-92710000D01*
X160192000Y-92710000D01*
X160192000Y-92507019D01*
X163675928Y-92507019D01*
X163675928Y-92699271D01*
G37*
G04 #@! TD.AperFunction*
D21*
X159175722Y-84034973D02*
X159284007Y-84092853D01*
X159307752Y-84105545D01*
X159451013Y-84149002D01*
X159562666Y-84159999D01*
X159562675Y-84159999D01*
X159599998Y-84163675D01*
X159637321Y-84159999D01*
X159873020Y-84159999D01*
X165250009Y-89536989D01*
X160176539Y-89536989D01*
X160173363Y-89534867D01*
X160016853Y-89470038D01*
X159891002Y-89445005D01*
X159891000Y-85508333D01*
X159894677Y-85471000D01*
X159880003Y-85322014D01*
X159836547Y-85178754D01*
X159765974Y-85046724D01*
X159694800Y-84959998D01*
X159694795Y-84959993D01*
X159671001Y-84931000D01*
X159642008Y-84907206D01*
X158769802Y-84035000D01*
X158896260Y-84035000D01*
X159121228Y-83990251D01*
X159175722Y-84034973D01*
G04 #@! TA.AperFunction,Conductor*
D22*
G36*
X159175722Y-84034973D02*
G01*
X159284007Y-84092853D01*
X159307752Y-84105545D01*
X159451013Y-84149002D01*
X159562666Y-84159999D01*
X159562675Y-84159999D01*
X159599998Y-84163675D01*
X159637321Y-84159999D01*
X159873020Y-84159999D01*
X165250009Y-89536989D01*
X160176539Y-89536989D01*
X160173363Y-89534867D01*
X160016853Y-89470038D01*
X159891002Y-89445005D01*
X159891000Y-85508333D01*
X159894677Y-85471000D01*
X159880003Y-85322014D01*
X159836547Y-85178754D01*
X159765974Y-85046724D01*
X159694800Y-84959998D01*
X159694795Y-84959993D01*
X159671001Y-84931000D01*
X159642008Y-84907206D01*
X158769802Y-84035000D01*
X158896260Y-84035000D01*
X159121228Y-83990251D01*
X159175722Y-84034973D01*
G37*
G04 #@! TD.AperFunction*
D21*
X152516525Y-83496632D02*
X152723368Y-83703475D01*
X152966589Y-83865990D01*
X153236842Y-83977932D01*
X153523740Y-84035000D01*
X153816260Y-84035000D01*
X154036408Y-83991210D01*
X154281201Y-84236003D01*
X154305000Y-84265002D01*
X154420725Y-84359975D01*
X154552754Y-84430547D01*
X154696015Y-84474004D01*
X154807668Y-84485001D01*
X154807677Y-84485001D01*
X154845000Y-84488677D01*
X154882323Y-84485001D01*
X156308201Y-84485001D01*
X157920991Y-86097792D01*
X157920992Y-89468271D01*
X156473633Y-88020912D01*
X156615774Y-87925937D01*
X156759937Y-87781774D01*
X156873205Y-87612256D01*
X156951226Y-87423898D01*
X156991000Y-87223939D01*
X156991000Y-87020061D01*
X156951226Y-86820102D01*
X156892158Y-86677500D01*
X156951226Y-86534898D01*
X156991000Y-86334939D01*
X156991000Y-86131061D01*
X156951226Y-85931102D01*
X156873205Y-85742744D01*
X156759937Y-85573226D01*
X156615774Y-85429063D01*
X156446256Y-85315795D01*
X156257898Y-85237774D01*
X156057939Y-85198000D01*
X155854061Y-85198000D01*
X155654102Y-85237774D01*
X155465744Y-85315795D01*
X155296226Y-85429063D01*
X155152063Y-85573226D01*
X155038795Y-85742744D01*
X154960774Y-85931102D01*
X154921000Y-86131061D01*
X154921000Y-86334939D01*
X154954109Y-86501388D01*
X152116414Y-83663693D01*
X152283475Y-83496632D01*
X152400000Y-83322240D01*
X152516525Y-83496632D01*
G04 #@! TA.AperFunction,Conductor*
D22*
G36*
X152516525Y-83496632D02*
G01*
X152723368Y-83703475D01*
X152966589Y-83865990D01*
X153236842Y-83977932D01*
X153523740Y-84035000D01*
X153816260Y-84035000D01*
X154036408Y-83991210D01*
X154281201Y-84236003D01*
X154305000Y-84265002D01*
X154420725Y-84359975D01*
X154552754Y-84430547D01*
X154696015Y-84474004D01*
X154807668Y-84485001D01*
X154807677Y-84485001D01*
X154845000Y-84488677D01*
X154882323Y-84485001D01*
X156308201Y-84485001D01*
X157920991Y-86097792D01*
X157920992Y-89468271D01*
X156473633Y-88020912D01*
X156615774Y-87925937D01*
X156759937Y-87781774D01*
X156873205Y-87612256D01*
X156951226Y-87423898D01*
X156991000Y-87223939D01*
X156991000Y-87020061D01*
X156951226Y-86820102D01*
X156892158Y-86677500D01*
X156951226Y-86534898D01*
X156991000Y-86334939D01*
X156991000Y-86131061D01*
X156951226Y-85931102D01*
X156873205Y-85742744D01*
X156759937Y-85573226D01*
X156615774Y-85429063D01*
X156446256Y-85315795D01*
X156257898Y-85237774D01*
X156057939Y-85198000D01*
X155854061Y-85198000D01*
X155654102Y-85237774D01*
X155465744Y-85315795D01*
X155296226Y-85429063D01*
X155152063Y-85573226D01*
X155038795Y-85742744D01*
X154960774Y-85931102D01*
X154921000Y-86131061D01*
X154921000Y-86334939D01*
X154954109Y-86501388D01*
X152116414Y-83663693D01*
X152283475Y-83496632D01*
X152400000Y-83322240D01*
X152516525Y-83496632D01*
G37*
G04 #@! TD.AperFunction*
M02*
