%FSLAX45Y45*%
G04 Gerber Fmt 4.5, Leading zero omitted, Abs format (unit mm)*
G04 Created by KiCad (PCBNEW (5.1.7-0-10_14)) date 2020-10-24 15:10:07*
%MOMM*%
%LPD*%
G01*
G04 APERTURE LIST*
%TA.AperFunction,Profile*%
%ADD10C,0.150000*%
%TD*%
%ADD11C,0.200000*%
%ADD12C,0.300000*%
G04 APERTURE END LIST*
D10*
X12954000Y-10414000D02*
G75*
G02*
X12700000Y-10160000I0J254000D01*
G01*
X12700000Y-9880600D02*
X12700000Y-10160000D01*
X12534900Y-9715500D02*
X12700000Y-9880600D01*
X12534900Y-8826500D02*
X12534900Y-9715500D01*
X12534900Y-8826500D02*
X12700000Y-8661400D01*
X12700000Y-8382000D02*
X12700000Y-8661400D01*
X12700000Y-8382000D02*
G75*
G02*
X12954000Y-8128000I254000J0D01*
G01*
X17780000Y-10160000D02*
G75*
G02*
X17526000Y-10414000I-254000J0D01*
G01*
X17526000Y-8128000D02*
X12954000Y-8128000D01*
X17526000Y-8128000D02*
G75*
G02*
X17780000Y-8382000I0J-254000D01*
G01*
X12954000Y-10414000D02*
X17526000Y-10414000D01*
X17780000Y-10160000D02*
X17780000Y-8382000D01*
D11*
X13286900Y-8372000D02*
X13306900Y-8392000D01*
X13306900Y-8372000D02*
X13286900Y-8392000D01*
X13337700Y-10035700D02*
X13357700Y-10055700D01*
X13357700Y-10035700D02*
X13337700Y-10055700D01*
X13530000Y-9050000D02*
X13550000Y-9070000D01*
X13550000Y-9050000D02*
X13530000Y-9070000D01*
X14020000Y-8985000D02*
X14040000Y-9005000D01*
X14040000Y-8985000D02*
X14020000Y-9005000D01*
X14305000Y-8945000D02*
X14325000Y-8965000D01*
X14325000Y-8945000D02*
X14305000Y-8965000D01*
X14480000Y-9520000D02*
X14500000Y-9540000D01*
X14500000Y-9520000D02*
X14480000Y-9540000D01*
X14744799Y-9620000D02*
X14764799Y-9640000D01*
X14764799Y-9620000D02*
X14744799Y-9640000D01*
X14835538Y-9465538D02*
X14855538Y-9485538D01*
X14855538Y-9465538D02*
X14835538Y-9485538D01*
X14931133Y-9822791D02*
X14951133Y-9842791D01*
X14951133Y-9822791D02*
X14931133Y-9842791D01*
X14980000Y-8340000D02*
X15000000Y-8360000D01*
X15000000Y-8340000D02*
X14980000Y-8360000D01*
X15190000Y-8925000D02*
X15210000Y-8945000D01*
X15210000Y-8925000D02*
X15190000Y-8945000D01*
X15225000Y-9860000D02*
X15245000Y-9880000D01*
X15245000Y-9860000D02*
X15225000Y-9880000D01*
X15225000Y-10015000D02*
X15245000Y-10035000D01*
X15245000Y-10015000D02*
X15225000Y-10035000D01*
X15383750Y-8570000D02*
X15403750Y-8590000D01*
X15403750Y-8570000D02*
X15383750Y-8590000D01*
X15510000Y-9885000D02*
X15530000Y-9905000D01*
X15530000Y-9885000D02*
X15510000Y-9905000D01*
X15570000Y-9680000D02*
X15590000Y-9700000D01*
X15590000Y-9680000D02*
X15570000Y-9700000D01*
X15674894Y-9533041D02*
X15694894Y-9553041D01*
X15694894Y-9533041D02*
X15674894Y-9553041D01*
X15681914Y-9641915D02*
X15701914Y-9661915D01*
X15701914Y-9641915D02*
X15681914Y-9661915D01*
X15735000Y-8860000D02*
X15755000Y-8880000D01*
X15755000Y-8860000D02*
X15735000Y-8880000D01*
X15745000Y-8515000D02*
X15765000Y-8535000D01*
X15765000Y-8515000D02*
X15745000Y-8535000D01*
X15774328Y-9501214D02*
X15794328Y-9521214D01*
X15794328Y-9501214D02*
X15774328Y-9521214D01*
X15774800Y-9662305D02*
X15794800Y-9682305D01*
X15794800Y-9662305D02*
X15774800Y-9682305D01*
X15816640Y-9586640D02*
X15836640Y-9606640D01*
X15836640Y-9586640D02*
X15816640Y-9606640D01*
X15850000Y-9800000D02*
X15870000Y-9820000D01*
X15870000Y-9800000D02*
X15850000Y-9820000D01*
X15870000Y-10000000D02*
X15890000Y-10020000D01*
X15890000Y-10000000D02*
X15870000Y-10020000D01*
X15900000Y-9240000D02*
X15920000Y-9260000D01*
X15920000Y-9240000D02*
X15900000Y-9260000D01*
X15958668Y-9993705D02*
X15978668Y-10013705D01*
X15978668Y-9993705D02*
X15958668Y-10013705D01*
X15972389Y-9903304D02*
X15992389Y-9923304D01*
X15992389Y-9903304D02*
X15972389Y-9923304D01*
X15973208Y-8906792D02*
X15993208Y-8926792D01*
X15993208Y-8906792D02*
X15973208Y-8926792D01*
X16063659Y-9914275D02*
X16083659Y-9934275D01*
X16083659Y-9914275D02*
X16063659Y-9934275D01*
X16114999Y-8855000D02*
X16134999Y-8875000D01*
X16134999Y-8855000D02*
X16114999Y-8875000D01*
X16172814Y-9980000D02*
X16192814Y-10000000D01*
X16192814Y-9980000D02*
X16172814Y-10000000D01*
X16283581Y-9983581D02*
X16303581Y-10003581D01*
X16303581Y-9983581D02*
X16283581Y-10003581D01*
X16385531Y-10058697D02*
X16405531Y-10078697D01*
X16405531Y-10058697D02*
X16385531Y-10078697D01*
X16435000Y-8855000D02*
X16455000Y-8875000D01*
X16455000Y-8855000D02*
X16435000Y-8875000D01*
X16484618Y-9830201D02*
X16504618Y-9850201D01*
X16504618Y-9830201D02*
X16484618Y-9850201D01*
X16560000Y-9795000D02*
X16580000Y-9815000D01*
X16580000Y-9795000D02*
X16560000Y-9815000D01*
X16565000Y-9965201D02*
X16585000Y-9985201D01*
X16585000Y-9965201D02*
X16565000Y-9985201D01*
X16605000Y-8420000D02*
X16625000Y-8440000D01*
X16625000Y-8420000D02*
X16605000Y-8440000D01*
X16685000Y-9920000D02*
X16705000Y-9940000D01*
X16705000Y-9920000D02*
X16685000Y-9940000D01*
X16733036Y-9765678D02*
X16753036Y-9785678D01*
X16753036Y-9765678D02*
X16733036Y-9785678D01*
X16796053Y-9701053D02*
X16816053Y-9721053D01*
X16816053Y-9701053D02*
X16796053Y-9721053D01*
X16840000Y-8545000D02*
X16860000Y-8565000D01*
X16860000Y-8545000D02*
X16840000Y-8565000D01*
X16840000Y-8695000D02*
X16860000Y-8715000D01*
X16860000Y-8695000D02*
X16840000Y-8715000D01*
X16850000Y-9770000D02*
X16870000Y-9790000D01*
X16870000Y-9770000D02*
X16850000Y-9790000D01*
X16880000Y-9185000D02*
X16900000Y-9205000D01*
X16900000Y-9185000D02*
X16880000Y-9205000D01*
X16885000Y-8870000D02*
X16905000Y-8890000D01*
X16905000Y-8870000D02*
X16885000Y-8890000D01*
X16890000Y-9460000D02*
X16910000Y-9480000D01*
X16910000Y-9460000D02*
X16890000Y-9480000D01*
X16897086Y-9627915D02*
X16917086Y-9647915D01*
X16917086Y-9627915D02*
X16897086Y-9647915D01*
X16906655Y-9553345D02*
X16926655Y-9573345D01*
X16926655Y-9553345D02*
X16906655Y-9573345D01*
X16980000Y-9185000D02*
X17000000Y-9205000D01*
X17000000Y-9185000D02*
X16980000Y-9205000D01*
X16980000Y-9290000D02*
X17000000Y-9310000D01*
X17000000Y-9290000D02*
X16980000Y-9310000D01*
X17030000Y-8620000D02*
X17050000Y-8640000D01*
X17050000Y-8620000D02*
X17030000Y-8640000D01*
X17080000Y-8430000D02*
X17100000Y-8450000D01*
X17100000Y-8430000D02*
X17080000Y-8450000D01*
X17080000Y-8530000D02*
X17100000Y-8550000D01*
X17100000Y-8530000D02*
X17080000Y-8550000D01*
X17080000Y-8760000D02*
X17100000Y-8780000D01*
X17100000Y-8760000D02*
X17080000Y-8780000D01*
X17080000Y-8885000D02*
X17100000Y-8905000D01*
X17100000Y-8885000D02*
X17080000Y-8905000D01*
X17080000Y-8985000D02*
X17100000Y-9005000D01*
X17100000Y-8985000D02*
X17080000Y-9005000D01*
X17080000Y-9085000D02*
X17100000Y-9105000D01*
X17100000Y-9085000D02*
X17080000Y-9105000D01*
X17080000Y-9185000D02*
X17100000Y-9205000D01*
X17100000Y-9185000D02*
X17080000Y-9205000D01*
X17080000Y-9290000D02*
X17100000Y-9310000D01*
X17100000Y-9290000D02*
X17080000Y-9310000D01*
X17080000Y-9390000D02*
X17100000Y-9410000D01*
X17100000Y-9390000D02*
X17080000Y-9410000D01*
X17080000Y-9490000D02*
X17100000Y-9510000D01*
X17100000Y-9490000D02*
X17080000Y-9510000D01*
X17080000Y-9590000D02*
X17100000Y-9610000D01*
X17100000Y-9590000D02*
X17080000Y-9610000D01*
X17080000Y-9690000D02*
X17100000Y-9710000D01*
X17100000Y-9690000D02*
X17080000Y-9710000D01*
X17080000Y-9790000D02*
X17100000Y-9810000D01*
X17100000Y-9790000D02*
X17080000Y-9810000D01*
X17080000Y-9890000D02*
X17100000Y-9910000D01*
X17100000Y-9890000D02*
X17080000Y-9910000D01*
X17080000Y-9990000D02*
X17100000Y-10010000D01*
X17100000Y-9990000D02*
X17080000Y-10010000D01*
X17080000Y-10090000D02*
X17100000Y-10110000D01*
X17100000Y-10090000D02*
X17080000Y-10110000D01*
X13062900Y-9125000D02*
G75*
G03*
X13062900Y-9125000I-20000J0D01*
G01*
X13062900Y-9425000D02*
G75*
G03*
X13062900Y-9425000I-20000J0D01*
G01*
X13330000Y-9030000D02*
G75*
G03*
X13330000Y-9030000I-20000J0D01*
G01*
X13330000Y-9510000D02*
G75*
G03*
X13330000Y-9510000I-20000J0D01*
G01*
X13583600Y-9359900D02*
G75*
G03*
X13583600Y-9359900I-20000J0D01*
G01*
X13621700Y-8674100D02*
G75*
G03*
X13621700Y-8674100I-20000J0D01*
G01*
X13774100Y-8674100D02*
G75*
G03*
X13774100Y-8674100I-20000J0D01*
G01*
X13790000Y-9790000D02*
G75*
G03*
X13790000Y-9790000I-20000J0D01*
G01*
X13965000Y-8625000D02*
G75*
G03*
X13965000Y-8625000I-20000J0D01*
G01*
X14040800Y-9362701D02*
G75*
G03*
X14040800Y-9362701I-20000J0D01*
G01*
X14129700Y-8674100D02*
G75*
G03*
X14129700Y-8674100I-20000J0D01*
G01*
X14155000Y-8845000D02*
G75*
G03*
X14155000Y-8845000I-20000J0D01*
G01*
X14370000Y-9800000D02*
G75*
G03*
X14370000Y-9800000I-20000J0D01*
G01*
X14450000Y-9980000D02*
G75*
G03*
X14450000Y-9980000I-20000J0D01*
G01*
X14460000Y-9035000D02*
G75*
G03*
X14460000Y-9035000I-20000J0D01*
G01*
X14495000Y-8715000D02*
G75*
G03*
X14495000Y-8715000I-20000J0D01*
G01*
X14945000Y-8905000D02*
G75*
G03*
X14945000Y-8905000I-20000J0D01*
G01*
X15405000Y-8790000D02*
G75*
G03*
X15405000Y-8790000I-20000J0D01*
G01*
X15520000Y-8780000D02*
G75*
G03*
X15520000Y-8780000I-20000J0D01*
G01*
X15920000Y-9725000D02*
G75*
G03*
X15920000Y-9725000I-20000J0D01*
G01*
X16270000Y-9300000D02*
G75*
G03*
X16270000Y-9300000I-20000J0D01*
G01*
X16270000Y-9450000D02*
G75*
G03*
X16270000Y-9450000I-20000J0D01*
G01*
X16420000Y-9300000D02*
G75*
G03*
X16420000Y-9300000I-20000J0D01*
G01*
X16420000Y-9450000D02*
G75*
G03*
X16420000Y-9450000I-20000J0D01*
G01*
X12719500Y-8808600D02*
X12719500Y-8868600D01*
X12689500Y-8838600D02*
X12749500Y-8838600D01*
X12749500Y-8818600D02*
X12689500Y-8818600D01*
X12749500Y-8858600D02*
X12689500Y-8858600D01*
X12689500Y-8818600D02*
G75*
G03*
X12689500Y-8858600I0J-20000D01*
G01*
X12749500Y-8858600D02*
G75*
G03*
X12749500Y-8818600I0J20000D01*
G01*
X12719500Y-9672600D02*
X12719500Y-9732600D01*
X12689500Y-9702600D02*
X12749500Y-9702600D01*
X12749500Y-9682600D02*
X12689500Y-9682600D01*
X12749500Y-9722600D02*
X12689500Y-9722600D01*
X12689500Y-9682600D02*
G75*
G03*
X12689500Y-9722600I0J-20000D01*
G01*
X12749500Y-9722600D02*
G75*
G03*
X12749500Y-9682600I0J20000D01*
G01*
X13137500Y-8808600D02*
X13137500Y-8868600D01*
X13107500Y-8838600D02*
X13167500Y-8838600D01*
X13192500Y-8818600D02*
X13082500Y-8818600D01*
X13192500Y-8858600D02*
X13082500Y-8858600D01*
X13082500Y-8818600D02*
G75*
G03*
X13082500Y-8858600I0J-20000D01*
G01*
X13192500Y-8858600D02*
G75*
G03*
X13192500Y-8818600I0J20000D01*
G01*
X13137500Y-9672600D02*
X13137500Y-9732600D01*
X13107500Y-9702600D02*
X13167500Y-9702600D01*
X13192500Y-9682600D02*
X13082500Y-9682600D01*
X13192500Y-9722600D02*
X13082500Y-9722600D01*
X13082500Y-9682600D02*
G75*
G03*
X13082500Y-9722600I0J-20000D01*
G01*
X13192500Y-9722600D02*
G75*
G03*
X13192500Y-9682600I0J20000D01*
G01*
X13370356Y-10322356D02*
X13370356Y-10251644D01*
X13299644Y-10251644D01*
X13299644Y-10322356D01*
X13370356Y-10322356D01*
X13624356Y-10322356D02*
X13624356Y-10251644D01*
X13553644Y-10251644D01*
X13553644Y-10322356D01*
X13624356Y-10322356D01*
X13878356Y-10322356D02*
X13878356Y-10251644D01*
X13807644Y-10251644D01*
X13807644Y-10322356D01*
X13878356Y-10322356D01*
X14132356Y-10322356D02*
X14132356Y-10251644D01*
X14061644Y-10251644D01*
X14061644Y-10322356D01*
X14132356Y-10322356D01*
X14386356Y-10322356D02*
X14386356Y-10251644D01*
X14315644Y-10251644D01*
X14315644Y-10322356D01*
X14386356Y-10322356D01*
X14640356Y-10322356D02*
X14640356Y-10251644D01*
X14569644Y-10251644D01*
X14569644Y-10322356D01*
X14640356Y-10322356D01*
X14894356Y-10322356D02*
X14894356Y-10251644D01*
X14823644Y-10251644D01*
X14823644Y-10322356D01*
X14894356Y-10322356D01*
X15148356Y-10322356D02*
X15148356Y-10251644D01*
X15077644Y-10251644D01*
X15077644Y-10322356D01*
X15148356Y-10322356D01*
X15402356Y-10322356D02*
X15402356Y-10251644D01*
X15331644Y-10251644D01*
X15331644Y-10322356D01*
X15402356Y-10322356D01*
X15656356Y-10322356D02*
X15656356Y-10251644D01*
X15585644Y-10251644D01*
X15585644Y-10322356D01*
X15656356Y-10322356D01*
X15910356Y-10322356D02*
X15910356Y-10251644D01*
X15839644Y-10251644D01*
X15839644Y-10322356D01*
X15910356Y-10322356D01*
X16164356Y-10322356D02*
X16164356Y-10251644D01*
X16093644Y-10251644D01*
X16093644Y-10322356D01*
X16164356Y-10322356D01*
X16418356Y-10322356D02*
X16418356Y-10251644D01*
X16347644Y-10251644D01*
X16347644Y-10322356D01*
X16418356Y-10322356D01*
X16672356Y-10322356D02*
X16672356Y-10251644D01*
X16601644Y-10251644D01*
X16601644Y-10322356D01*
X16672356Y-10322356D01*
X16926356Y-10322356D02*
X16926356Y-10251644D01*
X16855644Y-10251644D01*
X16855644Y-10322356D01*
X16926356Y-10322356D01*
X17180356Y-10322356D02*
X17180356Y-10251644D01*
X17109644Y-10251644D01*
X17109644Y-10322356D01*
X17180356Y-10322356D01*
X14386356Y-8290356D02*
X14386356Y-8219644D01*
X14315644Y-8219644D01*
X14315644Y-8290356D01*
X14386356Y-8290356D01*
X14640356Y-8290356D02*
X14640356Y-8219644D01*
X14569644Y-8219644D01*
X14569644Y-8290356D01*
X14640356Y-8290356D01*
X14894356Y-8290356D02*
X14894356Y-8219644D01*
X14823644Y-8219644D01*
X14823644Y-8290356D01*
X14894356Y-8290356D01*
X15148356Y-8290356D02*
X15148356Y-8219644D01*
X15077644Y-8219644D01*
X15077644Y-8290356D01*
X15148356Y-8290356D01*
X15402356Y-8290356D02*
X15402356Y-8219644D01*
X15331644Y-8219644D01*
X15331644Y-8290356D01*
X15402356Y-8290356D01*
X15656356Y-8290356D02*
X15656356Y-8219644D01*
X15585644Y-8219644D01*
X15585644Y-8290356D01*
X15656356Y-8290356D01*
X15910356Y-8290356D02*
X15910356Y-8219644D01*
X15839644Y-8219644D01*
X15839644Y-8290356D01*
X15910356Y-8290356D01*
X16164356Y-8290356D02*
X16164356Y-8219644D01*
X16093644Y-8219644D01*
X16093644Y-8290356D01*
X16164356Y-8290356D01*
X16418356Y-8290356D02*
X16418356Y-8219644D01*
X16347644Y-8219644D01*
X16347644Y-8290356D01*
X16418356Y-8290356D01*
X16672356Y-8290356D02*
X16672356Y-8219644D01*
X16601644Y-8219644D01*
X16601644Y-8290356D01*
X16672356Y-8290356D01*
X16926356Y-8290356D02*
X16926356Y-8219644D01*
X16855644Y-8219644D01*
X16855644Y-8290356D01*
X16926356Y-8290356D01*
X17180356Y-8290356D02*
X17180356Y-8219644D01*
X17109644Y-8219644D01*
X17109644Y-8290356D01*
X17180356Y-8290356D01*
X12954000Y-8507000D02*
X13079000Y-8382000D01*
X12954000Y-8257000D01*
X12829000Y-8382000D01*
X12954000Y-8507000D01*
X12954000Y-10285000D02*
X13079000Y-10160000D01*
X12954000Y-10035000D01*
X12829000Y-10160000D01*
X12954000Y-10285000D01*
D12*
X12813828Y-10887214D02*
X12813828Y-10587214D01*
X12885257Y-10587214D01*
X12928114Y-10601500D01*
X12956686Y-10630072D01*
X12970971Y-10658643D01*
X12985257Y-10715786D01*
X12985257Y-10758643D01*
X12970971Y-10815786D01*
X12956686Y-10844357D01*
X12928114Y-10872929D01*
X12885257Y-10887214D01*
X12813828Y-10887214D01*
X13113828Y-10887214D02*
X13113828Y-10687214D01*
X13113828Y-10744357D02*
X13128114Y-10715786D01*
X13142400Y-10701500D01*
X13170971Y-10687214D01*
X13199543Y-10687214D01*
X13299543Y-10887214D02*
X13299543Y-10687214D01*
X13299543Y-10587214D02*
X13285257Y-10601500D01*
X13299543Y-10615786D01*
X13313828Y-10601500D01*
X13299543Y-10587214D01*
X13299543Y-10615786D01*
X13485257Y-10887214D02*
X13456686Y-10872929D01*
X13442400Y-10844357D01*
X13442400Y-10587214D01*
X13642400Y-10887214D02*
X13613828Y-10872929D01*
X13599543Y-10844357D01*
X13599543Y-10587214D01*
X13985257Y-10887214D02*
X13985257Y-10587214D01*
X14085257Y-10801500D01*
X14185257Y-10587214D01*
X14185257Y-10887214D01*
X14456686Y-10887214D02*
X14456686Y-10730072D01*
X14442400Y-10701500D01*
X14413828Y-10687214D01*
X14356686Y-10687214D01*
X14328114Y-10701500D01*
X14456686Y-10872929D02*
X14428114Y-10887214D01*
X14356686Y-10887214D01*
X14328114Y-10872929D01*
X14313828Y-10844357D01*
X14313828Y-10815786D01*
X14328114Y-10787214D01*
X14356686Y-10772929D01*
X14428114Y-10772929D01*
X14456686Y-10758643D01*
X14599543Y-10687214D02*
X14599543Y-10987214D01*
X14599543Y-10701500D02*
X14628114Y-10687214D01*
X14685257Y-10687214D01*
X14713828Y-10701500D01*
X14728114Y-10715786D01*
X14742400Y-10744357D01*
X14742400Y-10830072D01*
X14728114Y-10858643D01*
X14713828Y-10872929D01*
X14685257Y-10887214D01*
X14628114Y-10887214D01*
X14599543Y-10872929D01*
X14870971Y-10858643D02*
X14885257Y-10872929D01*
X14870971Y-10887214D01*
X14856686Y-10872929D01*
X14870971Y-10858643D01*
X14870971Y-10887214D01*
X14870971Y-10701500D02*
X14885257Y-10715786D01*
X14870971Y-10730072D01*
X14856686Y-10715786D01*
X14870971Y-10701500D01*
X14870971Y-10730072D01*
X12507400Y-11371500D02*
X12527400Y-11391500D01*
X12527400Y-11371500D02*
X12507400Y-11391500D01*
X12870971Y-11217214D02*
X12899543Y-11217214D01*
X12928114Y-11231500D01*
X12942400Y-11245786D01*
X12956686Y-11274357D01*
X12970971Y-11331500D01*
X12970971Y-11402929D01*
X12956686Y-11460071D01*
X12942400Y-11488643D01*
X12928114Y-11502929D01*
X12899543Y-11517214D01*
X12870971Y-11517214D01*
X12842400Y-11502929D01*
X12828114Y-11488643D01*
X12813828Y-11460071D01*
X12799543Y-11402929D01*
X12799543Y-11331500D01*
X12813828Y-11274357D01*
X12828114Y-11245786D01*
X12842400Y-11231500D01*
X12870971Y-11217214D01*
X13099543Y-11488643D02*
X13113828Y-11502929D01*
X13099543Y-11517214D01*
X13085257Y-11502929D01*
X13099543Y-11488643D01*
X13099543Y-11517214D01*
X13228114Y-11245786D02*
X13242400Y-11231500D01*
X13270971Y-11217214D01*
X13342400Y-11217214D01*
X13370971Y-11231500D01*
X13385257Y-11245786D01*
X13399543Y-11274357D01*
X13399543Y-11302929D01*
X13385257Y-11345786D01*
X13213828Y-11517214D01*
X13399543Y-11517214D01*
X13585257Y-11217214D02*
X13613828Y-11217214D01*
X13642400Y-11231500D01*
X13656686Y-11245786D01*
X13670971Y-11274357D01*
X13685257Y-11331500D01*
X13685257Y-11402929D01*
X13670971Y-11460071D01*
X13656686Y-11488643D01*
X13642400Y-11502929D01*
X13613828Y-11517214D01*
X13585257Y-11517214D01*
X13556686Y-11502929D01*
X13542400Y-11488643D01*
X13528114Y-11460071D01*
X13513828Y-11402929D01*
X13513828Y-11331500D01*
X13528114Y-11274357D01*
X13542400Y-11245786D01*
X13556686Y-11231500D01*
X13585257Y-11217214D01*
X13813828Y-11517214D02*
X13813828Y-11317214D01*
X13813828Y-11345786D02*
X13828114Y-11331500D01*
X13856686Y-11317214D01*
X13899543Y-11317214D01*
X13928114Y-11331500D01*
X13942400Y-11360071D01*
X13942400Y-11517214D01*
X13942400Y-11360071D02*
X13956686Y-11331500D01*
X13985257Y-11317214D01*
X14028114Y-11317214D01*
X14056686Y-11331500D01*
X14070971Y-11360071D01*
X14070971Y-11517214D01*
X14213828Y-11517214D02*
X14213828Y-11317214D01*
X14213828Y-11345786D02*
X14228114Y-11331500D01*
X14256686Y-11317214D01*
X14299543Y-11317214D01*
X14328114Y-11331500D01*
X14342400Y-11360071D01*
X14342400Y-11517214D01*
X14342400Y-11360071D02*
X14356686Y-11331500D01*
X14385257Y-11317214D01*
X14428114Y-11317214D01*
X14456686Y-11331500D01*
X14470971Y-11360071D01*
X14470971Y-11517214D01*
X15056686Y-11202929D02*
X14799543Y-11588643D01*
X15442400Y-11217214D02*
X15470971Y-11217214D01*
X15499543Y-11231500D01*
X15513828Y-11245786D01*
X15528114Y-11274357D01*
X15542400Y-11331500D01*
X15542400Y-11402929D01*
X15528114Y-11460071D01*
X15513828Y-11488643D01*
X15499543Y-11502929D01*
X15470971Y-11517214D01*
X15442400Y-11517214D01*
X15413828Y-11502929D01*
X15399543Y-11488643D01*
X15385257Y-11460071D01*
X15370971Y-11402929D01*
X15370971Y-11331500D01*
X15385257Y-11274357D01*
X15399543Y-11245786D01*
X15413828Y-11231500D01*
X15442400Y-11217214D01*
X15670971Y-11488643D02*
X15685257Y-11502929D01*
X15670971Y-11517214D01*
X15656686Y-11502929D01*
X15670971Y-11488643D01*
X15670971Y-11517214D01*
X15870971Y-11217214D02*
X15899543Y-11217214D01*
X15928114Y-11231500D01*
X15942400Y-11245786D01*
X15956686Y-11274357D01*
X15970971Y-11331500D01*
X15970971Y-11402929D01*
X15956686Y-11460071D01*
X15942400Y-11488643D01*
X15928114Y-11502929D01*
X15899543Y-11517214D01*
X15870971Y-11517214D01*
X15842400Y-11502929D01*
X15828114Y-11488643D01*
X15813828Y-11460071D01*
X15799543Y-11402929D01*
X15799543Y-11331500D01*
X15813828Y-11274357D01*
X15828114Y-11245786D01*
X15842400Y-11231500D01*
X15870971Y-11217214D01*
X16156686Y-11217214D02*
X16185257Y-11217214D01*
X16213828Y-11231500D01*
X16228114Y-11245786D01*
X16242400Y-11274357D01*
X16256686Y-11331500D01*
X16256686Y-11402929D01*
X16242400Y-11460071D01*
X16228114Y-11488643D01*
X16213828Y-11502929D01*
X16185257Y-11517214D01*
X16156686Y-11517214D01*
X16128114Y-11502929D01*
X16113828Y-11488643D01*
X16099543Y-11460071D01*
X16085257Y-11402929D01*
X16085257Y-11331500D01*
X16099543Y-11274357D01*
X16113828Y-11245786D01*
X16128114Y-11231500D01*
X16156686Y-11217214D01*
X16428114Y-11345786D02*
X16399543Y-11331500D01*
X16385257Y-11317214D01*
X16370971Y-11288643D01*
X16370971Y-11274357D01*
X16385257Y-11245786D01*
X16399543Y-11231500D01*
X16428114Y-11217214D01*
X16485257Y-11217214D01*
X16513828Y-11231500D01*
X16528114Y-11245786D01*
X16542400Y-11274357D01*
X16542400Y-11288643D01*
X16528114Y-11317214D01*
X16513828Y-11331500D01*
X16485257Y-11345786D01*
X16428114Y-11345786D01*
X16399543Y-11360071D01*
X16385257Y-11374357D01*
X16370971Y-11402929D01*
X16370971Y-11460071D01*
X16385257Y-11488643D01*
X16399543Y-11502929D01*
X16428114Y-11517214D01*
X16485257Y-11517214D01*
X16513828Y-11502929D01*
X16528114Y-11488643D01*
X16542400Y-11460071D01*
X16542400Y-11402929D01*
X16528114Y-11374357D01*
X16513828Y-11360071D01*
X16485257Y-11345786D01*
X16656686Y-11217214D02*
X16656686Y-11274357D01*
X16770971Y-11217214D02*
X16770971Y-11274357D01*
X17213828Y-11631500D02*
X17199543Y-11617214D01*
X17170971Y-11574357D01*
X17156686Y-11545786D01*
X17142400Y-11502929D01*
X17128114Y-11431500D01*
X17128114Y-11374357D01*
X17142400Y-11302929D01*
X17156686Y-11260071D01*
X17170971Y-11231500D01*
X17199543Y-11188643D01*
X17213828Y-11174357D01*
X17456686Y-11217214D02*
X17399543Y-11217214D01*
X17370971Y-11231500D01*
X17356686Y-11245786D01*
X17328114Y-11288643D01*
X17313828Y-11345786D01*
X17313828Y-11460071D01*
X17328114Y-11488643D01*
X17342400Y-11502929D01*
X17370971Y-11517214D01*
X17428114Y-11517214D01*
X17456686Y-11502929D01*
X17470971Y-11488643D01*
X17485257Y-11460071D01*
X17485257Y-11388643D01*
X17470971Y-11360071D01*
X17456686Y-11345786D01*
X17428114Y-11331500D01*
X17370971Y-11331500D01*
X17342400Y-11345786D01*
X17328114Y-11360071D01*
X17313828Y-11388643D01*
X17628114Y-11517214D02*
X17685257Y-11517214D01*
X17713828Y-11502929D01*
X17728114Y-11488643D01*
X17756686Y-11445786D01*
X17770971Y-11388643D01*
X17770971Y-11274357D01*
X17756686Y-11245786D01*
X17742400Y-11231500D01*
X17713828Y-11217214D01*
X17656686Y-11217214D01*
X17628114Y-11231500D01*
X17613828Y-11245786D01*
X17599543Y-11274357D01*
X17599543Y-11345786D01*
X17613828Y-11374357D01*
X17628114Y-11388643D01*
X17656686Y-11402929D01*
X17713828Y-11402929D01*
X17742400Y-11388643D01*
X17756686Y-11374357D01*
X17770971Y-11345786D01*
X18128114Y-11517214D02*
X18128114Y-11217214D01*
X18256686Y-11517214D02*
X18256686Y-11360071D01*
X18242400Y-11331500D01*
X18213828Y-11317214D01*
X18170971Y-11317214D01*
X18142400Y-11331500D01*
X18128114Y-11345786D01*
X18442400Y-11517214D02*
X18413828Y-11502929D01*
X18399543Y-11488643D01*
X18385257Y-11460071D01*
X18385257Y-11374357D01*
X18399543Y-11345786D01*
X18413828Y-11331500D01*
X18442400Y-11317214D01*
X18485257Y-11317214D01*
X18513828Y-11331500D01*
X18528114Y-11345786D01*
X18542400Y-11374357D01*
X18542400Y-11460071D01*
X18528114Y-11488643D01*
X18513828Y-11502929D01*
X18485257Y-11517214D01*
X18442400Y-11517214D01*
X18713828Y-11517214D02*
X18685257Y-11502929D01*
X18670971Y-11474357D01*
X18670971Y-11217214D01*
X18942400Y-11502929D02*
X18913828Y-11517214D01*
X18856686Y-11517214D01*
X18828114Y-11502929D01*
X18813828Y-11474357D01*
X18813828Y-11360071D01*
X18828114Y-11331500D01*
X18856686Y-11317214D01*
X18913828Y-11317214D01*
X18942400Y-11331500D01*
X18956686Y-11360071D01*
X18956686Y-11388643D01*
X18813828Y-11417214D01*
X19070971Y-11502929D02*
X19099543Y-11517214D01*
X19156686Y-11517214D01*
X19185257Y-11502929D01*
X19199543Y-11474357D01*
X19199543Y-11460071D01*
X19185257Y-11431500D01*
X19156686Y-11417214D01*
X19113828Y-11417214D01*
X19085257Y-11402929D01*
X19070971Y-11374357D01*
X19070971Y-11360071D01*
X19085257Y-11331500D01*
X19113828Y-11317214D01*
X19156686Y-11317214D01*
X19185257Y-11331500D01*
X19299543Y-11631500D02*
X19313828Y-11617214D01*
X19342400Y-11574357D01*
X19356686Y-11545786D01*
X19370971Y-11502929D01*
X19385257Y-11431500D01*
X19385257Y-11374357D01*
X19370971Y-11302929D01*
X19356686Y-11260071D01*
X19342400Y-11231500D01*
X19313828Y-11188643D01*
X19299543Y-11174357D01*
X12527400Y-11777500D02*
G75*
G03*
X12527400Y-11777500I-20000J0D01*
G01*
X12870971Y-11613214D02*
X12899543Y-11613214D01*
X12928114Y-11627500D01*
X12942400Y-11641786D01*
X12956686Y-11670357D01*
X12970971Y-11727500D01*
X12970971Y-11798929D01*
X12956686Y-11856071D01*
X12942400Y-11884643D01*
X12928114Y-11898929D01*
X12899543Y-11913214D01*
X12870971Y-11913214D01*
X12842400Y-11898929D01*
X12828114Y-11884643D01*
X12813828Y-11856071D01*
X12799543Y-11798929D01*
X12799543Y-11727500D01*
X12813828Y-11670357D01*
X12828114Y-11641786D01*
X12842400Y-11627500D01*
X12870971Y-11613214D01*
X13099543Y-11884643D02*
X13113828Y-11898929D01*
X13099543Y-11913214D01*
X13085257Y-11898929D01*
X13099543Y-11884643D01*
X13099543Y-11913214D01*
X13370971Y-11713214D02*
X13370971Y-11913214D01*
X13299543Y-11598929D02*
X13228114Y-11813214D01*
X13413828Y-11813214D01*
X13585257Y-11613214D02*
X13613828Y-11613214D01*
X13642400Y-11627500D01*
X13656686Y-11641786D01*
X13670971Y-11670357D01*
X13685257Y-11727500D01*
X13685257Y-11798929D01*
X13670971Y-11856071D01*
X13656686Y-11884643D01*
X13642400Y-11898929D01*
X13613828Y-11913214D01*
X13585257Y-11913214D01*
X13556686Y-11898929D01*
X13542400Y-11884643D01*
X13528114Y-11856071D01*
X13513828Y-11798929D01*
X13513828Y-11727500D01*
X13528114Y-11670357D01*
X13542400Y-11641786D01*
X13556686Y-11627500D01*
X13585257Y-11613214D01*
X13813828Y-11913214D02*
X13813828Y-11713214D01*
X13813828Y-11741786D02*
X13828114Y-11727500D01*
X13856686Y-11713214D01*
X13899543Y-11713214D01*
X13928114Y-11727500D01*
X13942400Y-11756071D01*
X13942400Y-11913214D01*
X13942400Y-11756071D02*
X13956686Y-11727500D01*
X13985257Y-11713214D01*
X14028114Y-11713214D01*
X14056686Y-11727500D01*
X14070971Y-11756071D01*
X14070971Y-11913214D01*
X14213828Y-11913214D02*
X14213828Y-11713214D01*
X14213828Y-11741786D02*
X14228114Y-11727500D01*
X14256686Y-11713214D01*
X14299543Y-11713214D01*
X14328114Y-11727500D01*
X14342400Y-11756071D01*
X14342400Y-11913214D01*
X14342400Y-11756071D02*
X14356686Y-11727500D01*
X14385257Y-11713214D01*
X14428114Y-11713214D01*
X14456686Y-11727500D01*
X14470971Y-11756071D01*
X14470971Y-11913214D01*
X15056686Y-11598929D02*
X14799543Y-11984643D01*
X15442400Y-11613214D02*
X15470971Y-11613214D01*
X15499543Y-11627500D01*
X15513828Y-11641786D01*
X15528114Y-11670357D01*
X15542400Y-11727500D01*
X15542400Y-11798929D01*
X15528114Y-11856071D01*
X15513828Y-11884643D01*
X15499543Y-11898929D01*
X15470971Y-11913214D01*
X15442400Y-11913214D01*
X15413828Y-11898929D01*
X15399543Y-11884643D01*
X15385257Y-11856071D01*
X15370971Y-11798929D01*
X15370971Y-11727500D01*
X15385257Y-11670357D01*
X15399543Y-11641786D01*
X15413828Y-11627500D01*
X15442400Y-11613214D01*
X15670971Y-11884643D02*
X15685257Y-11898929D01*
X15670971Y-11913214D01*
X15656686Y-11898929D01*
X15670971Y-11884643D01*
X15670971Y-11913214D01*
X15870971Y-11613214D02*
X15899543Y-11613214D01*
X15928114Y-11627500D01*
X15942400Y-11641786D01*
X15956686Y-11670357D01*
X15970971Y-11727500D01*
X15970971Y-11798929D01*
X15956686Y-11856071D01*
X15942400Y-11884643D01*
X15928114Y-11898929D01*
X15899543Y-11913214D01*
X15870971Y-11913214D01*
X15842400Y-11898929D01*
X15828114Y-11884643D01*
X15813828Y-11856071D01*
X15799543Y-11798929D01*
X15799543Y-11727500D01*
X15813828Y-11670357D01*
X15828114Y-11641786D01*
X15842400Y-11627500D01*
X15870971Y-11613214D01*
X16256686Y-11913214D02*
X16085257Y-11913214D01*
X16170971Y-11913214D02*
X16170971Y-11613214D01*
X16142400Y-11656071D01*
X16113828Y-11684643D01*
X16085257Y-11698929D01*
X16513828Y-11613214D02*
X16456686Y-11613214D01*
X16428114Y-11627500D01*
X16413828Y-11641786D01*
X16385257Y-11684643D01*
X16370971Y-11741786D01*
X16370971Y-11856071D01*
X16385257Y-11884643D01*
X16399543Y-11898929D01*
X16428114Y-11913214D01*
X16485257Y-11913214D01*
X16513828Y-11898929D01*
X16528114Y-11884643D01*
X16542400Y-11856071D01*
X16542400Y-11784643D01*
X16528114Y-11756071D01*
X16513828Y-11741786D01*
X16485257Y-11727500D01*
X16428114Y-11727500D01*
X16399543Y-11741786D01*
X16385257Y-11756071D01*
X16370971Y-11784643D01*
X16656686Y-11613214D02*
X16656686Y-11670357D01*
X16770971Y-11613214D02*
X16770971Y-11670357D01*
X17213828Y-12027500D02*
X17199543Y-12013214D01*
X17170971Y-11970357D01*
X17156686Y-11941786D01*
X17142400Y-11898929D01*
X17128114Y-11827500D01*
X17128114Y-11770357D01*
X17142400Y-11698929D01*
X17156686Y-11656071D01*
X17170971Y-11627500D01*
X17199543Y-11584643D01*
X17213828Y-11570357D01*
X17313828Y-11641786D02*
X17328114Y-11627500D01*
X17356686Y-11613214D01*
X17428114Y-11613214D01*
X17456686Y-11627500D01*
X17470971Y-11641786D01*
X17485257Y-11670357D01*
X17485257Y-11698929D01*
X17470971Y-11741786D01*
X17299543Y-11913214D01*
X17485257Y-11913214D01*
X17742400Y-11713214D02*
X17742400Y-11913214D01*
X17670971Y-11598929D02*
X17599543Y-11813214D01*
X17785257Y-11813214D01*
X18128114Y-11913214D02*
X18128114Y-11613214D01*
X18256686Y-11913214D02*
X18256686Y-11756071D01*
X18242400Y-11727500D01*
X18213828Y-11713214D01*
X18170971Y-11713214D01*
X18142400Y-11727500D01*
X18128114Y-11741786D01*
X18442400Y-11913214D02*
X18413828Y-11898929D01*
X18399543Y-11884643D01*
X18385257Y-11856071D01*
X18385257Y-11770357D01*
X18399543Y-11741786D01*
X18413828Y-11727500D01*
X18442400Y-11713214D01*
X18485257Y-11713214D01*
X18513828Y-11727500D01*
X18528114Y-11741786D01*
X18542400Y-11770357D01*
X18542400Y-11856071D01*
X18528114Y-11884643D01*
X18513828Y-11898929D01*
X18485257Y-11913214D01*
X18442400Y-11913214D01*
X18713828Y-11913214D02*
X18685257Y-11898929D01*
X18670971Y-11870357D01*
X18670971Y-11613214D01*
X18942400Y-11898929D02*
X18913828Y-11913214D01*
X18856686Y-11913214D01*
X18828114Y-11898929D01*
X18813828Y-11870357D01*
X18813828Y-11756071D01*
X18828114Y-11727500D01*
X18856686Y-11713214D01*
X18913828Y-11713214D01*
X18942400Y-11727500D01*
X18956686Y-11756071D01*
X18956686Y-11784643D01*
X18813828Y-11813214D01*
X19070971Y-11898929D02*
X19099543Y-11913214D01*
X19156686Y-11913214D01*
X19185257Y-11898929D01*
X19199543Y-11870357D01*
X19199543Y-11856071D01*
X19185257Y-11827500D01*
X19156686Y-11813214D01*
X19113828Y-11813214D01*
X19085257Y-11798929D01*
X19070971Y-11770357D01*
X19070971Y-11756071D01*
X19085257Y-11727500D01*
X19113828Y-11713214D01*
X19156686Y-11713214D01*
X19185257Y-11727500D01*
X19299543Y-12027500D02*
X19313828Y-12013214D01*
X19342400Y-11970357D01*
X19356686Y-11941786D01*
X19370971Y-11898929D01*
X19385257Y-11827500D01*
X19385257Y-11770357D01*
X19370971Y-11698929D01*
X19356686Y-11656071D01*
X19342400Y-11627500D01*
X19313828Y-11584643D01*
X19299543Y-11570357D01*
X12497400Y-12143500D02*
X12497400Y-12203500D01*
X12467400Y-12173500D02*
X12527400Y-12173500D01*
X12870971Y-12009214D02*
X12899543Y-12009214D01*
X12928114Y-12023500D01*
X12942400Y-12037786D01*
X12956686Y-12066357D01*
X12970971Y-12123500D01*
X12970971Y-12194929D01*
X12956686Y-12252071D01*
X12942400Y-12280643D01*
X12928114Y-12294929D01*
X12899543Y-12309214D01*
X12870971Y-12309214D01*
X12842400Y-12294929D01*
X12828114Y-12280643D01*
X12813828Y-12252071D01*
X12799543Y-12194929D01*
X12799543Y-12123500D01*
X12813828Y-12066357D01*
X12828114Y-12037786D01*
X12842400Y-12023500D01*
X12870971Y-12009214D01*
X13099543Y-12280643D02*
X13113828Y-12294929D01*
X13099543Y-12309214D01*
X13085257Y-12294929D01*
X13099543Y-12280643D01*
X13099543Y-12309214D01*
X13370971Y-12009214D02*
X13313828Y-12009214D01*
X13285257Y-12023500D01*
X13270971Y-12037786D01*
X13242400Y-12080643D01*
X13228114Y-12137786D01*
X13228114Y-12252071D01*
X13242400Y-12280643D01*
X13256686Y-12294929D01*
X13285257Y-12309214D01*
X13342400Y-12309214D01*
X13370971Y-12294929D01*
X13385257Y-12280643D01*
X13399543Y-12252071D01*
X13399543Y-12180643D01*
X13385257Y-12152071D01*
X13370971Y-12137786D01*
X13342400Y-12123500D01*
X13285257Y-12123500D01*
X13256686Y-12137786D01*
X13242400Y-12152071D01*
X13228114Y-12180643D01*
X13585257Y-12009214D02*
X13613828Y-12009214D01*
X13642400Y-12023500D01*
X13656686Y-12037786D01*
X13670971Y-12066357D01*
X13685257Y-12123500D01*
X13685257Y-12194929D01*
X13670971Y-12252071D01*
X13656686Y-12280643D01*
X13642400Y-12294929D01*
X13613828Y-12309214D01*
X13585257Y-12309214D01*
X13556686Y-12294929D01*
X13542400Y-12280643D01*
X13528114Y-12252071D01*
X13513828Y-12194929D01*
X13513828Y-12123500D01*
X13528114Y-12066357D01*
X13542400Y-12037786D01*
X13556686Y-12023500D01*
X13585257Y-12009214D01*
X13813828Y-12309214D02*
X13813828Y-12109214D01*
X13813828Y-12137786D02*
X13828114Y-12123500D01*
X13856686Y-12109214D01*
X13899543Y-12109214D01*
X13928114Y-12123500D01*
X13942400Y-12152071D01*
X13942400Y-12309214D01*
X13942400Y-12152071D02*
X13956686Y-12123500D01*
X13985257Y-12109214D01*
X14028114Y-12109214D01*
X14056686Y-12123500D01*
X14070971Y-12152071D01*
X14070971Y-12309214D01*
X14213828Y-12309214D02*
X14213828Y-12109214D01*
X14213828Y-12137786D02*
X14228114Y-12123500D01*
X14256686Y-12109214D01*
X14299543Y-12109214D01*
X14328114Y-12123500D01*
X14342400Y-12152071D01*
X14342400Y-12309214D01*
X14342400Y-12152071D02*
X14356686Y-12123500D01*
X14385257Y-12109214D01*
X14428114Y-12109214D01*
X14456686Y-12123500D01*
X14470971Y-12152071D01*
X14470971Y-12309214D01*
X15056686Y-11994929D02*
X14799543Y-12380643D01*
X15442400Y-12009214D02*
X15470971Y-12009214D01*
X15499543Y-12023500D01*
X15513828Y-12037786D01*
X15528114Y-12066357D01*
X15542400Y-12123500D01*
X15542400Y-12194929D01*
X15528114Y-12252071D01*
X15513828Y-12280643D01*
X15499543Y-12294929D01*
X15470971Y-12309214D01*
X15442400Y-12309214D01*
X15413828Y-12294929D01*
X15399543Y-12280643D01*
X15385257Y-12252071D01*
X15370971Y-12194929D01*
X15370971Y-12123500D01*
X15385257Y-12066357D01*
X15399543Y-12037786D01*
X15413828Y-12023500D01*
X15442400Y-12009214D01*
X15670971Y-12280643D02*
X15685257Y-12294929D01*
X15670971Y-12309214D01*
X15656686Y-12294929D01*
X15670971Y-12280643D01*
X15670971Y-12309214D01*
X15870971Y-12009214D02*
X15899543Y-12009214D01*
X15928114Y-12023500D01*
X15942400Y-12037786D01*
X15956686Y-12066357D01*
X15970971Y-12123500D01*
X15970971Y-12194929D01*
X15956686Y-12252071D01*
X15942400Y-12280643D01*
X15928114Y-12294929D01*
X15899543Y-12309214D01*
X15870971Y-12309214D01*
X15842400Y-12294929D01*
X15828114Y-12280643D01*
X15813828Y-12252071D01*
X15799543Y-12194929D01*
X15799543Y-12123500D01*
X15813828Y-12066357D01*
X15828114Y-12037786D01*
X15842400Y-12023500D01*
X15870971Y-12009214D01*
X16085257Y-12037786D02*
X16099543Y-12023500D01*
X16128114Y-12009214D01*
X16199543Y-12009214D01*
X16228114Y-12023500D01*
X16242400Y-12037786D01*
X16256686Y-12066357D01*
X16256686Y-12094929D01*
X16242400Y-12137786D01*
X16070971Y-12309214D01*
X16256686Y-12309214D01*
X16513828Y-12109214D02*
X16513828Y-12309214D01*
X16442400Y-11994929D02*
X16370971Y-12209214D01*
X16556686Y-12209214D01*
X16656686Y-12009214D02*
X16656686Y-12066357D01*
X16770971Y-12009214D02*
X16770971Y-12066357D01*
X17213828Y-12423500D02*
X17199543Y-12409214D01*
X17170971Y-12366357D01*
X17156686Y-12337786D01*
X17142400Y-12294929D01*
X17128114Y-12223500D01*
X17128114Y-12166357D01*
X17142400Y-12094929D01*
X17156686Y-12052071D01*
X17170971Y-12023500D01*
X17199543Y-11980643D01*
X17213828Y-11966357D01*
X17385257Y-12009214D02*
X17413828Y-12009214D01*
X17442400Y-12023500D01*
X17456686Y-12037786D01*
X17470971Y-12066357D01*
X17485257Y-12123500D01*
X17485257Y-12194929D01*
X17470971Y-12252071D01*
X17456686Y-12280643D01*
X17442400Y-12294929D01*
X17413828Y-12309214D01*
X17385257Y-12309214D01*
X17356686Y-12294929D01*
X17342400Y-12280643D01*
X17328114Y-12252071D01*
X17313828Y-12194929D01*
X17313828Y-12123500D01*
X17328114Y-12066357D01*
X17342400Y-12037786D01*
X17356686Y-12023500D01*
X17385257Y-12009214D01*
X17842400Y-12309214D02*
X17842400Y-12009214D01*
X17970971Y-12309214D02*
X17970971Y-12152071D01*
X17956686Y-12123500D01*
X17928114Y-12109214D01*
X17885257Y-12109214D01*
X17856686Y-12123500D01*
X17842400Y-12137786D01*
X18156686Y-12309214D02*
X18128114Y-12294929D01*
X18113828Y-12280643D01*
X18099543Y-12252071D01*
X18099543Y-12166357D01*
X18113828Y-12137786D01*
X18128114Y-12123500D01*
X18156686Y-12109214D01*
X18199543Y-12109214D01*
X18228114Y-12123500D01*
X18242400Y-12137786D01*
X18256686Y-12166357D01*
X18256686Y-12252071D01*
X18242400Y-12280643D01*
X18228114Y-12294929D01*
X18199543Y-12309214D01*
X18156686Y-12309214D01*
X18428114Y-12309214D02*
X18399543Y-12294929D01*
X18385257Y-12266357D01*
X18385257Y-12009214D01*
X18656686Y-12294929D02*
X18628114Y-12309214D01*
X18570971Y-12309214D01*
X18542400Y-12294929D01*
X18528114Y-12266357D01*
X18528114Y-12152071D01*
X18542400Y-12123500D01*
X18570971Y-12109214D01*
X18628114Y-12109214D01*
X18656686Y-12123500D01*
X18670971Y-12152071D01*
X18670971Y-12180643D01*
X18528114Y-12209214D01*
X18785257Y-12294929D02*
X18813828Y-12309214D01*
X18870971Y-12309214D01*
X18899543Y-12294929D01*
X18913828Y-12266357D01*
X18913828Y-12252071D01*
X18899543Y-12223500D01*
X18870971Y-12209214D01*
X18828114Y-12209214D01*
X18799543Y-12194929D01*
X18785257Y-12166357D01*
X18785257Y-12152071D01*
X18799543Y-12123500D01*
X18828114Y-12109214D01*
X18870971Y-12109214D01*
X18899543Y-12123500D01*
X19270971Y-12194929D02*
X19499543Y-12194929D01*
X19385257Y-12309214D02*
X19385257Y-12080643D01*
X19999543Y-12109214D02*
X19999543Y-12309214D01*
X19928114Y-11994929D02*
X19856686Y-12209214D01*
X20042400Y-12209214D01*
X20370971Y-12294929D02*
X20399543Y-12309214D01*
X20456686Y-12309214D01*
X20485257Y-12294929D01*
X20499543Y-12266357D01*
X20499543Y-12252071D01*
X20485257Y-12223500D01*
X20456686Y-12209214D01*
X20413828Y-12209214D01*
X20385257Y-12194929D01*
X20370971Y-12166357D01*
X20370971Y-12152071D01*
X20385257Y-12123500D01*
X20413828Y-12109214D01*
X20456686Y-12109214D01*
X20485257Y-12123500D01*
X20670971Y-12309214D02*
X20642400Y-12294929D01*
X20628114Y-12266357D01*
X20628114Y-12009214D01*
X20828114Y-12309214D02*
X20799543Y-12294929D01*
X20785257Y-12280643D01*
X20770971Y-12252071D01*
X20770971Y-12166357D01*
X20785257Y-12137786D01*
X20799543Y-12123500D01*
X20828114Y-12109214D01*
X20870971Y-12109214D01*
X20899543Y-12123500D01*
X20913828Y-12137786D01*
X20928114Y-12166357D01*
X20928114Y-12252071D01*
X20913828Y-12280643D01*
X20899543Y-12294929D01*
X20870971Y-12309214D01*
X20828114Y-12309214D01*
X21013828Y-12109214D02*
X21128114Y-12109214D01*
X21056686Y-12009214D02*
X21056686Y-12266357D01*
X21070971Y-12294929D01*
X21099543Y-12309214D01*
X21128114Y-12309214D01*
X21213828Y-12294929D02*
X21242400Y-12309214D01*
X21299543Y-12309214D01*
X21328114Y-12294929D01*
X21342400Y-12266357D01*
X21342400Y-12252071D01*
X21328114Y-12223500D01*
X21299543Y-12209214D01*
X21256686Y-12209214D01*
X21228114Y-12194929D01*
X21213828Y-12166357D01*
X21213828Y-12152071D01*
X21228114Y-12123500D01*
X21256686Y-12109214D01*
X21299543Y-12109214D01*
X21328114Y-12123500D01*
X21442400Y-12423500D02*
X21456686Y-12409214D01*
X21485257Y-12366357D01*
X21499543Y-12337786D01*
X21513828Y-12294929D01*
X21528114Y-12223500D01*
X21528114Y-12166357D01*
X21513828Y-12094929D01*
X21499543Y-12052071D01*
X21485257Y-12023500D01*
X21456686Y-11980643D01*
X21442400Y-11966357D01*
X12512756Y-12604856D02*
X12512756Y-12534144D01*
X12442044Y-12534144D01*
X12442044Y-12604856D01*
X12512756Y-12604856D01*
X12970971Y-12705214D02*
X12799543Y-12705214D01*
X12885257Y-12705214D02*
X12885257Y-12405214D01*
X12856686Y-12448071D01*
X12828114Y-12476643D01*
X12799543Y-12490929D01*
X13099543Y-12676643D02*
X13113828Y-12690929D01*
X13099543Y-12705214D01*
X13085257Y-12690929D01*
X13099543Y-12676643D01*
X13099543Y-12705214D01*
X13299543Y-12405214D02*
X13328114Y-12405214D01*
X13356686Y-12419500D01*
X13370971Y-12433786D01*
X13385257Y-12462357D01*
X13399543Y-12519500D01*
X13399543Y-12590929D01*
X13385257Y-12648071D01*
X13370971Y-12676643D01*
X13356686Y-12690929D01*
X13328114Y-12705214D01*
X13299543Y-12705214D01*
X13270971Y-12690929D01*
X13256686Y-12676643D01*
X13242400Y-12648071D01*
X13228114Y-12590929D01*
X13228114Y-12519500D01*
X13242400Y-12462357D01*
X13256686Y-12433786D01*
X13270971Y-12419500D01*
X13299543Y-12405214D01*
X13585257Y-12405214D02*
X13613828Y-12405214D01*
X13642400Y-12419500D01*
X13656686Y-12433786D01*
X13670971Y-12462357D01*
X13685257Y-12519500D01*
X13685257Y-12590929D01*
X13670971Y-12648071D01*
X13656686Y-12676643D01*
X13642400Y-12690929D01*
X13613828Y-12705214D01*
X13585257Y-12705214D01*
X13556686Y-12690929D01*
X13542400Y-12676643D01*
X13528114Y-12648071D01*
X13513828Y-12590929D01*
X13513828Y-12519500D01*
X13528114Y-12462357D01*
X13542400Y-12433786D01*
X13556686Y-12419500D01*
X13585257Y-12405214D01*
X13813828Y-12705214D02*
X13813828Y-12505214D01*
X13813828Y-12533786D02*
X13828114Y-12519500D01*
X13856686Y-12505214D01*
X13899543Y-12505214D01*
X13928114Y-12519500D01*
X13942400Y-12548071D01*
X13942400Y-12705214D01*
X13942400Y-12548071D02*
X13956686Y-12519500D01*
X13985257Y-12505214D01*
X14028114Y-12505214D01*
X14056686Y-12519500D01*
X14070971Y-12548071D01*
X14070971Y-12705214D01*
X14213828Y-12705214D02*
X14213828Y-12505214D01*
X14213828Y-12533786D02*
X14228114Y-12519500D01*
X14256686Y-12505214D01*
X14299543Y-12505214D01*
X14328114Y-12519500D01*
X14342400Y-12548071D01*
X14342400Y-12705214D01*
X14342400Y-12548071D02*
X14356686Y-12519500D01*
X14385257Y-12505214D01*
X14428114Y-12505214D01*
X14456686Y-12519500D01*
X14470971Y-12548071D01*
X14470971Y-12705214D01*
X15056686Y-12390929D02*
X14799543Y-12776643D01*
X15442400Y-12405214D02*
X15470971Y-12405214D01*
X15499543Y-12419500D01*
X15513828Y-12433786D01*
X15528114Y-12462357D01*
X15542400Y-12519500D01*
X15542400Y-12590929D01*
X15528114Y-12648071D01*
X15513828Y-12676643D01*
X15499543Y-12690929D01*
X15470971Y-12705214D01*
X15442400Y-12705214D01*
X15413828Y-12690929D01*
X15399543Y-12676643D01*
X15385257Y-12648071D01*
X15370971Y-12590929D01*
X15370971Y-12519500D01*
X15385257Y-12462357D01*
X15399543Y-12433786D01*
X15413828Y-12419500D01*
X15442400Y-12405214D01*
X15670971Y-12676643D02*
X15685257Y-12690929D01*
X15670971Y-12705214D01*
X15656686Y-12690929D01*
X15670971Y-12676643D01*
X15670971Y-12705214D01*
X15870971Y-12405214D02*
X15899543Y-12405214D01*
X15928114Y-12419500D01*
X15942400Y-12433786D01*
X15956686Y-12462357D01*
X15970971Y-12519500D01*
X15970971Y-12590929D01*
X15956686Y-12648071D01*
X15942400Y-12676643D01*
X15928114Y-12690929D01*
X15899543Y-12705214D01*
X15870971Y-12705214D01*
X15842400Y-12690929D01*
X15828114Y-12676643D01*
X15813828Y-12648071D01*
X15799543Y-12590929D01*
X15799543Y-12519500D01*
X15813828Y-12462357D01*
X15828114Y-12433786D01*
X15842400Y-12419500D01*
X15870971Y-12405214D01*
X16070971Y-12405214D02*
X16256686Y-12405214D01*
X16156686Y-12519500D01*
X16199543Y-12519500D01*
X16228114Y-12533786D01*
X16242400Y-12548071D01*
X16256686Y-12576643D01*
X16256686Y-12648071D01*
X16242400Y-12676643D01*
X16228114Y-12690929D01*
X16199543Y-12705214D01*
X16113828Y-12705214D01*
X16085257Y-12690929D01*
X16070971Y-12676643D01*
X16399543Y-12705214D02*
X16456686Y-12705214D01*
X16485257Y-12690929D01*
X16499543Y-12676643D01*
X16528114Y-12633786D01*
X16542400Y-12576643D01*
X16542400Y-12462357D01*
X16528114Y-12433786D01*
X16513828Y-12419500D01*
X16485257Y-12405214D01*
X16428114Y-12405214D01*
X16399543Y-12419500D01*
X16385257Y-12433786D01*
X16370971Y-12462357D01*
X16370971Y-12533786D01*
X16385257Y-12562357D01*
X16399543Y-12576643D01*
X16428114Y-12590929D01*
X16485257Y-12590929D01*
X16513828Y-12576643D01*
X16528114Y-12562357D01*
X16542400Y-12533786D01*
X16656686Y-12405214D02*
X16656686Y-12462357D01*
X16770971Y-12405214D02*
X16770971Y-12462357D01*
X17213828Y-12819500D02*
X17199543Y-12805214D01*
X17170971Y-12762357D01*
X17156686Y-12733786D01*
X17142400Y-12690929D01*
X17128114Y-12619500D01*
X17128114Y-12562357D01*
X17142400Y-12490929D01*
X17156686Y-12448071D01*
X17170971Y-12419500D01*
X17199543Y-12376643D01*
X17213828Y-12362357D01*
X17313828Y-12433786D02*
X17328114Y-12419500D01*
X17356686Y-12405214D01*
X17428114Y-12405214D01*
X17456686Y-12419500D01*
X17470971Y-12433786D01*
X17485257Y-12462357D01*
X17485257Y-12490929D01*
X17470971Y-12533786D01*
X17299543Y-12705214D01*
X17485257Y-12705214D01*
X17656686Y-12533786D02*
X17628114Y-12519500D01*
X17613828Y-12505214D01*
X17599543Y-12476643D01*
X17599543Y-12462357D01*
X17613828Y-12433786D01*
X17628114Y-12419500D01*
X17656686Y-12405214D01*
X17713828Y-12405214D01*
X17742400Y-12419500D01*
X17756686Y-12433786D01*
X17770971Y-12462357D01*
X17770971Y-12476643D01*
X17756686Y-12505214D01*
X17742400Y-12519500D01*
X17713828Y-12533786D01*
X17656686Y-12533786D01*
X17628114Y-12548071D01*
X17613828Y-12562357D01*
X17599543Y-12590929D01*
X17599543Y-12648071D01*
X17613828Y-12676643D01*
X17628114Y-12690929D01*
X17656686Y-12705214D01*
X17713828Y-12705214D01*
X17742400Y-12690929D01*
X17756686Y-12676643D01*
X17770971Y-12648071D01*
X17770971Y-12590929D01*
X17756686Y-12562357D01*
X17742400Y-12548071D01*
X17713828Y-12533786D01*
X18128114Y-12705214D02*
X18128114Y-12405214D01*
X18256686Y-12705214D02*
X18256686Y-12548071D01*
X18242400Y-12519500D01*
X18213828Y-12505214D01*
X18170971Y-12505214D01*
X18142400Y-12519500D01*
X18128114Y-12533786D01*
X18442400Y-12705214D02*
X18413828Y-12690929D01*
X18399543Y-12676643D01*
X18385257Y-12648071D01*
X18385257Y-12562357D01*
X18399543Y-12533786D01*
X18413828Y-12519500D01*
X18442400Y-12505214D01*
X18485257Y-12505214D01*
X18513828Y-12519500D01*
X18528114Y-12533786D01*
X18542400Y-12562357D01*
X18542400Y-12648071D01*
X18528114Y-12676643D01*
X18513828Y-12690929D01*
X18485257Y-12705214D01*
X18442400Y-12705214D01*
X18713828Y-12705214D02*
X18685257Y-12690929D01*
X18670971Y-12662357D01*
X18670971Y-12405214D01*
X18942400Y-12690929D02*
X18913828Y-12705214D01*
X18856686Y-12705214D01*
X18828114Y-12690929D01*
X18813828Y-12662357D01*
X18813828Y-12548071D01*
X18828114Y-12519500D01*
X18856686Y-12505214D01*
X18913828Y-12505214D01*
X18942400Y-12519500D01*
X18956686Y-12548071D01*
X18956686Y-12576643D01*
X18813828Y-12605214D01*
X19070971Y-12690929D02*
X19099543Y-12705214D01*
X19156686Y-12705214D01*
X19185257Y-12690929D01*
X19199543Y-12662357D01*
X19199543Y-12648071D01*
X19185257Y-12619500D01*
X19156686Y-12605214D01*
X19113828Y-12605214D01*
X19085257Y-12590929D01*
X19070971Y-12562357D01*
X19070971Y-12548071D01*
X19085257Y-12519500D01*
X19113828Y-12505214D01*
X19156686Y-12505214D01*
X19185257Y-12519500D01*
X19299543Y-12819500D02*
X19313828Y-12805214D01*
X19342400Y-12762357D01*
X19356686Y-12733786D01*
X19370971Y-12690929D01*
X19385257Y-12619500D01*
X19385257Y-12562357D01*
X19370971Y-12490929D01*
X19356686Y-12448071D01*
X19342400Y-12419500D01*
X19313828Y-12376643D01*
X19299543Y-12362357D01*
X12402400Y-13090500D02*
X12527400Y-12965500D01*
X12402400Y-12840500D01*
X12277400Y-12965500D01*
X12402400Y-13090500D01*
X12799543Y-12829786D02*
X12813828Y-12815500D01*
X12842400Y-12801214D01*
X12913828Y-12801214D01*
X12942400Y-12815500D01*
X12956686Y-12829786D01*
X12970971Y-12858357D01*
X12970971Y-12886929D01*
X12956686Y-12929786D01*
X12785257Y-13101214D01*
X12970971Y-13101214D01*
X13099543Y-13072643D02*
X13113828Y-13086929D01*
X13099543Y-13101214D01*
X13085257Y-13086929D01*
X13099543Y-13072643D01*
X13099543Y-13101214D01*
X13385257Y-12801214D02*
X13242400Y-12801214D01*
X13228114Y-12944071D01*
X13242400Y-12929786D01*
X13270971Y-12915500D01*
X13342400Y-12915500D01*
X13370971Y-12929786D01*
X13385257Y-12944071D01*
X13399543Y-12972643D01*
X13399543Y-13044071D01*
X13385257Y-13072643D01*
X13370971Y-13086929D01*
X13342400Y-13101214D01*
X13270971Y-13101214D01*
X13242400Y-13086929D01*
X13228114Y-13072643D01*
X13585257Y-12801214D02*
X13613828Y-12801214D01*
X13642400Y-12815500D01*
X13656686Y-12829786D01*
X13670971Y-12858357D01*
X13685257Y-12915500D01*
X13685257Y-12986929D01*
X13670971Y-13044071D01*
X13656686Y-13072643D01*
X13642400Y-13086929D01*
X13613828Y-13101214D01*
X13585257Y-13101214D01*
X13556686Y-13086929D01*
X13542400Y-13072643D01*
X13528114Y-13044071D01*
X13513828Y-12986929D01*
X13513828Y-12915500D01*
X13528114Y-12858357D01*
X13542400Y-12829786D01*
X13556686Y-12815500D01*
X13585257Y-12801214D01*
X13813828Y-13101214D02*
X13813828Y-12901214D01*
X13813828Y-12929786D02*
X13828114Y-12915500D01*
X13856686Y-12901214D01*
X13899543Y-12901214D01*
X13928114Y-12915500D01*
X13942400Y-12944071D01*
X13942400Y-13101214D01*
X13942400Y-12944071D02*
X13956686Y-12915500D01*
X13985257Y-12901214D01*
X14028114Y-12901214D01*
X14056686Y-12915500D01*
X14070971Y-12944071D01*
X14070971Y-13101214D01*
X14213828Y-13101214D02*
X14213828Y-12901214D01*
X14213828Y-12929786D02*
X14228114Y-12915500D01*
X14256686Y-12901214D01*
X14299543Y-12901214D01*
X14328114Y-12915500D01*
X14342400Y-12944071D01*
X14342400Y-13101214D01*
X14342400Y-12944071D02*
X14356686Y-12915500D01*
X14385257Y-12901214D01*
X14428114Y-12901214D01*
X14456686Y-12915500D01*
X14470971Y-12944071D01*
X14470971Y-13101214D01*
X15056686Y-12786929D02*
X14799543Y-13172643D01*
X15442400Y-12801214D02*
X15470971Y-12801214D01*
X15499543Y-12815500D01*
X15513828Y-12829786D01*
X15528114Y-12858357D01*
X15542400Y-12915500D01*
X15542400Y-12986929D01*
X15528114Y-13044071D01*
X15513828Y-13072643D01*
X15499543Y-13086929D01*
X15470971Y-13101214D01*
X15442400Y-13101214D01*
X15413828Y-13086929D01*
X15399543Y-13072643D01*
X15385257Y-13044071D01*
X15370971Y-12986929D01*
X15370971Y-12915500D01*
X15385257Y-12858357D01*
X15399543Y-12829786D01*
X15413828Y-12815500D01*
X15442400Y-12801214D01*
X15670971Y-13072643D02*
X15685257Y-13086929D01*
X15670971Y-13101214D01*
X15656686Y-13086929D01*
X15670971Y-13072643D01*
X15670971Y-13101214D01*
X15870971Y-12801214D02*
X15899543Y-12801214D01*
X15928114Y-12815500D01*
X15942400Y-12829786D01*
X15956686Y-12858357D01*
X15970971Y-12915500D01*
X15970971Y-12986929D01*
X15956686Y-13044071D01*
X15942400Y-13072643D01*
X15928114Y-13086929D01*
X15899543Y-13101214D01*
X15870971Y-13101214D01*
X15842400Y-13086929D01*
X15828114Y-13072643D01*
X15813828Y-13044071D01*
X15799543Y-12986929D01*
X15799543Y-12915500D01*
X15813828Y-12858357D01*
X15828114Y-12829786D01*
X15842400Y-12815500D01*
X15870971Y-12801214D01*
X16113828Y-13101214D02*
X16170971Y-13101214D01*
X16199543Y-13086929D01*
X16213828Y-13072643D01*
X16242400Y-13029786D01*
X16256686Y-12972643D01*
X16256686Y-12858357D01*
X16242400Y-12829786D01*
X16228114Y-12815500D01*
X16199543Y-12801214D01*
X16142400Y-12801214D01*
X16113828Y-12815500D01*
X16099543Y-12829786D01*
X16085257Y-12858357D01*
X16085257Y-12929786D01*
X16099543Y-12958357D01*
X16113828Y-12972643D01*
X16142400Y-12986929D01*
X16199543Y-12986929D01*
X16228114Y-12972643D01*
X16242400Y-12958357D01*
X16256686Y-12929786D01*
X16428114Y-12929786D02*
X16399543Y-12915500D01*
X16385257Y-12901214D01*
X16370971Y-12872643D01*
X16370971Y-12858357D01*
X16385257Y-12829786D01*
X16399543Y-12815500D01*
X16428114Y-12801214D01*
X16485257Y-12801214D01*
X16513828Y-12815500D01*
X16528114Y-12829786D01*
X16542400Y-12858357D01*
X16542400Y-12872643D01*
X16528114Y-12901214D01*
X16513828Y-12915500D01*
X16485257Y-12929786D01*
X16428114Y-12929786D01*
X16399543Y-12944071D01*
X16385257Y-12958357D01*
X16370971Y-12986929D01*
X16370971Y-13044071D01*
X16385257Y-13072643D01*
X16399543Y-13086929D01*
X16428114Y-13101214D01*
X16485257Y-13101214D01*
X16513828Y-13086929D01*
X16528114Y-13072643D01*
X16542400Y-13044071D01*
X16542400Y-12986929D01*
X16528114Y-12958357D01*
X16513828Y-12944071D01*
X16485257Y-12929786D01*
X16656686Y-12801214D02*
X16656686Y-12858357D01*
X16770971Y-12801214D02*
X16770971Y-12858357D01*
X17213828Y-13215500D02*
X17199543Y-13201214D01*
X17170971Y-13158357D01*
X17156686Y-13129786D01*
X17142400Y-13086929D01*
X17128114Y-13015500D01*
X17128114Y-12958357D01*
X17142400Y-12886929D01*
X17156686Y-12844071D01*
X17170971Y-12815500D01*
X17199543Y-12772643D01*
X17213828Y-12758357D01*
X17313828Y-12829786D02*
X17328114Y-12815500D01*
X17356686Y-12801214D01*
X17428114Y-12801214D01*
X17456686Y-12815500D01*
X17470971Y-12829786D01*
X17485257Y-12858357D01*
X17485257Y-12886929D01*
X17470971Y-12929786D01*
X17299543Y-13101214D01*
X17485257Y-13101214D01*
X17842400Y-13101214D02*
X17842400Y-12801214D01*
X17970971Y-13101214D02*
X17970971Y-12944071D01*
X17956686Y-12915500D01*
X17928114Y-12901214D01*
X17885257Y-12901214D01*
X17856686Y-12915500D01*
X17842400Y-12929786D01*
X18156686Y-13101214D02*
X18128114Y-13086929D01*
X18113828Y-13072643D01*
X18099543Y-13044071D01*
X18099543Y-12958357D01*
X18113828Y-12929786D01*
X18128114Y-12915500D01*
X18156686Y-12901214D01*
X18199543Y-12901214D01*
X18228114Y-12915500D01*
X18242400Y-12929786D01*
X18256686Y-12958357D01*
X18256686Y-13044071D01*
X18242400Y-13072643D01*
X18228114Y-13086929D01*
X18199543Y-13101214D01*
X18156686Y-13101214D01*
X18428114Y-13101214D02*
X18399543Y-13086929D01*
X18385257Y-13058357D01*
X18385257Y-12801214D01*
X18656686Y-13086929D02*
X18628114Y-13101214D01*
X18570971Y-13101214D01*
X18542400Y-13086929D01*
X18528114Y-13058357D01*
X18528114Y-12944071D01*
X18542400Y-12915500D01*
X18570971Y-12901214D01*
X18628114Y-12901214D01*
X18656686Y-12915500D01*
X18670971Y-12944071D01*
X18670971Y-12972643D01*
X18528114Y-13001214D01*
X18785257Y-13086929D02*
X18813828Y-13101214D01*
X18870971Y-13101214D01*
X18899543Y-13086929D01*
X18913828Y-13058357D01*
X18913828Y-13044071D01*
X18899543Y-13015500D01*
X18870971Y-13001214D01*
X18828114Y-13001214D01*
X18799543Y-12986929D01*
X18785257Y-12958357D01*
X18785257Y-12944071D01*
X18799543Y-12915500D01*
X18828114Y-12901214D01*
X18870971Y-12901214D01*
X18899543Y-12915500D01*
X19013828Y-13215500D02*
X19028114Y-13201214D01*
X19056686Y-13158357D01*
X19070971Y-13129786D01*
X19085257Y-13086929D01*
X19099543Y-13015500D01*
X19099543Y-12958357D01*
X19085257Y-12886929D01*
X19070971Y-12844071D01*
X19056686Y-12815500D01*
X19028114Y-12772643D01*
X19013828Y-12758357D01*
M02*
